<svg width="31" height="30" viewBox="0 0 31 30" fill="none" xmlns="http://www.w3.org/2000/svg">
<path fill-rule="evenodd" clip-rule="evenodd" d="M8.1875 15C4.7761 15 2 17.7761 2 21.1875C2 24.5989 4.7761 27.375 8.1875 27.375H15.8029C19.2143 27.375 21.9904 24.5989 21.9904 21.1875C21.9904 17.7761 19.2143 15 15.8029 15H8.1875Z" fill="#FAC33D"/>
<path fill-rule="evenodd" clip-rule="evenodd" d="M23.8944 3.57715C23.6419 3.57715 23.3998 3.67745 23.2213 3.85597C23.0427 4.03449 22.9425 4.27661 22.9425 4.52907V7.38484H20.0867C19.8342 7.38484 19.5921 7.48515 19.4136 7.66367C19.2351 7.84219 19.1348 8.0843 19.1348 8.33676C19.1348 8.58923 19.2351 8.83137 19.4136 9.00989C19.5921 9.18841 19.8342 9.28869 20.0867 9.28869H22.9425V12.1445C22.9425 12.3969 23.0427 12.6391 23.2213 12.8176C23.3998 12.9961 23.6419 13.0964 23.8944 13.0964C24.1468 13.0964 24.389 12.9961 24.5675 12.8176C24.746 12.6391 24.8463 12.3969 24.8463 12.1445V9.28869H27.7021C27.9545 9.28869 28.1967 9.18841 28.3752 9.00989C28.5537 8.83137 28.654 8.58923 28.654 8.33676C28.654 8.0843 28.5537 7.84219 28.3752 7.66367C28.1967 7.48515 27.9545 7.38484 27.7021 7.38484H24.8463V4.52907C24.8463 4.27661 24.746 4.03449 24.5675 3.85597C24.389 3.67745 24.1468 3.57715 23.8944 3.57715Z" fill="#FAC33D"/>
<path fill-rule="evenodd" clip-rule="evenodd" d="M11.9947 2.625C8.85163 2.625 6.2832 5.19342 6.2832 8.33654C6.2832 11.4797 8.85163 14.0481 11.9947 14.0481C15.1378 14.0481 17.7063 11.4797 17.7063 8.33654C17.7063 5.19342 15.1378 2.625 11.9947 2.625Z" fill="#FAC33D"/>
</svg>
