<svg width="36" height="36" viewBox="0 0 36 36" fill="none" xmlns="http://www.w3.org/2000/svg">
<ellipse cx="18" cy="18" rx="18" ry="18" fill="white" fill-opacity="0.1"/>
<g clip-path="url(#clip0_11464_26197)">
<path d="M15.2013 13.8374L18.1886 21.825H16.3657L15.7607 20.0461H12.7735L12.1465 21.825H10.3786L13.3989 13.8374H15.1997H15.2013ZM15.3019 18.7371L14.2946 15.8064H14.2726L13.2323 18.7371H15.3019Z" fill="url(#paint0_linear_11464_26197)"/>
<path d="M22.3324 13.8374C24.402 13.8374 25.9577 15.1464 25.9577 17.7864C25.9577 20.1027 24.7729 21.825 22.3324 21.825H18.8863V13.8374H22.3324ZM22.2099 20.3494C23.2281 20.3494 24.2009 19.7224 24.2009 17.9545C24.2009 16.3438 23.6304 15.3145 21.8956 15.3145H20.6431V20.3494H22.2099Z" fill="url(#paint1_linear_11464_26197)"/>
<path d="M18 29C11.9343 29 7 24.0657 7 18C7 11.9343 11.9343 7 18 7C24.0657 7 29 11.9343 29 18C29 24.0657 24.0657 29 18 29ZM18 8.90457C12.9856 8.90457 8.90457 12.984 8.90457 18C8.90457 23.016 12.984 27.0954 18 27.0954C23.016 27.0954 27.0954 23.016 27.0954 18C27.0954 12.984 23.0144 8.90457 18 8.90457Z" fill="url(#paint2_linear_11464_26197)"/>
<path d="M24.9011 9.75284L9.75482 24.8992L11.1016 26.2459L26.2479 11.0996L24.9011 9.75284Z" fill="url(#paint3_linear_11464_26197)"/>
</g>
<defs>
<linearGradient id="paint0_linear_11464_26197" x1="11.0886" y1="13.8374" x2="19.5522" y2="19.9311" gradientUnits="userSpaceOnUse">
<stop stop-color="#FAC33D"/>
<stop offset="1" stop-color="#ECA700"/>
</linearGradient>
<linearGradient id="paint1_linear_11464_26197" x1="19.5291" y1="13.8374" x2="27.6947" y2="19.1606" gradientUnits="userSpaceOnUse">
<stop stop-color="#FAC33D"/>
<stop offset="1" stop-color="#ECA700"/>
</linearGradient>
<linearGradient id="paint2_linear_11464_26197" x1="9" y1="7" x2="32.4725" y2="24.2843" gradientUnits="userSpaceOnUse">
<stop stop-color="#FAC33D"/>
<stop offset="1" stop-color="#ECA700"/>
</linearGradient>
<linearGradient id="paint3_linear_11464_26197" x1="11.1318" y1="23.5222" x2="14.456" y2="26.1302" gradientUnits="userSpaceOnUse">
<stop stop-color="#FAC33D"/>
<stop offset="1" stop-color="#ECA700"/>
</linearGradient>
<clipPath id="clip0_11464_26197">
<rect width="22" height="22" fill="white" transform="translate(7 7)"/>
</clipPath>
</defs>
</svg>
