<svg width="36" height="36" viewBox="0 0 36 36" fill="none" xmlns="http://www.w3.org/2000/svg">
<ellipse cx="18" cy="18" rx="18" ry="18" fill="white" fill-opacity="0.1"/>
<path d="M9 23.2727V25.7273H11.4545C11.4545 24.3773 10.35 23.2727 9 23.2727ZM9 20V21.6364C11.25 21.6364 13.0909 23.4773 13.0909 25.7273H14.7273C14.7273 22.5773 12.15 20 9 20ZM23.7273 14.2727H12.2727V15.6227C15.5045 16.6864 18.0818 19.2227 19.1045 22.4545H23.7273V14.2727ZM9 16.7273V18.3636C13.05 18.3636 16.3636 21.6773 16.3636 25.7273H18C18 20.7773 13.95 16.7273 9 16.7273ZM25.3636 11H10.6364C9.73636 11 9 11.7364 9 12.6364V15.0909H10.6364V12.6364H25.3636V24.0909H19.6364V25.7273H25.3636C26.2636 25.7273 27 24.9909 27 24.0909V12.6364C27 11.7364 26.2636 11 25.3636 11Z" fill="url(#paint0_linear_11354_15375)"/>
<defs>
<linearGradient id="paint0_linear_11354_15375" x1="10.6364" y1="11" x2="27" y2="25.7273" gradientUnits="userSpaceOnUse">
<stop stop-color="#FAC33D"/>
<stop offset="1" stop-color="#ECA700"/>
</linearGradient>
</defs>
</svg>
