<svg xmlns="http://www.w3.org/2000/svg" width="15" height="15" fill="none"><g fill="#9C9C9C" clip-path="url(#a)" opacity=".7"><path d="m14.874 7.166-4.5-5A.5.5 0 0 0 10.002 2h-3a.502.502 0 0 0-.371.834L10.829 7.5l-4.198 4.665a.5.5 0 0 0 .371.835h3c.142 0 .276-.061.372-.165l4.5-5a.5.5 0 0 0 0-.669Z"/><path d="m8.372 7.166-4.5-5A.5.5 0 0 0 3.5 2h-3a.502.502 0 0 0-.371.834L4.327 7.5.13 12.165A.5.5 0 0 0 .5 13h3c.141 0 .275-.061.371-.165l4.5-5a.5.5 0 0 0 0-.669Z"/></g><defs><clipPath id="a"><path fill="#fff" d="M0 0h15v15H0z"/></clipPath></defs></svg>