<svg width="36" height="36" viewBox="0 0 36 36" fill="none" xmlns="http://www.w3.org/2000/svg">
<ellipse cx="18" cy="18" rx="18" ry="18" fill="white" fill-opacity="0.1"/>
<path d="M25.0494 14.7811C24.7634 10.9921 21.7109 8 18 8C14.8257 8 12.1009 10.1469 11.2216 13.2781C8.71364 14.1846 7 16.6588 7 19.4545C7 23.0635 9.81993 26 13.2857 26H23.5C26.5329 26 29 23.4309 29 20.2727C29 17.6963 27.3736 15.4847 25.0494 14.7811ZM21.6984 19.2148L18.5555 22.4875C18.4023 22.6471 18.2011 22.7273 18 22.7273C17.7989 22.7273 17.5977 22.6471 17.4445 22.4875L14.3016 19.2148C14.0769 18.9808 14.0094 18.629 14.1311 18.323C14.2529 18.0178 14.5397 17.8182 14.8571 17.8182H16.4286V14.5455C16.4286 13.6422 17.1326 12.9091 18 12.9091C18.8674 12.9091 19.5714 13.6422 19.5714 14.5455V17.8182H21.1429C21.4603 17.8182 21.7471 18.0178 21.8689 18.323C21.9906 18.629 21.9231 18.9808 21.6984 19.2148Z" fill="url(#paint0_linear_11464_26161)"/>
<defs>
<linearGradient id="paint0_linear_11464_26161" x1="9" y1="8" x2="29" y2="26" gradientUnits="userSpaceOnUse">
<stop stop-color="#FAC33D"/>
<stop offset="1" stop-color="#ECA700"/>
</linearGradient>
</defs>
</svg>
