<svg width="38" height="38" viewBox="0 0 38 38" fill="none" xmlns="http://www.w3.org/2000/svg">
<ellipse cx="19" cy="19" rx="19" ry="19" fill="white" fill-opacity="0.1"/>
<path fill-rule="evenodd" clip-rule="evenodd" d="M26.8668 16.5499L26.9027 16.6377C26.9705 16.8064 27.0324 16.9766 27.0947 17.1681C27.429 18.1947 27.5918 19.2813 27.5918 20.4355C27.5918 25.1993 23.6491 29.0524 18.7959 29.0524C13.9427 29.0524 10 25.1993 10 20.4355C10 18.3765 10.6693 16.7726 12.2154 14.4063C12.6866 13.6852 13.3339 12.9177 13.843 12.5846C14.418 12.2085 15.074 12.4339 15.3681 12.9756C15.3902 13.0164 15.4091 13.0543 15.4259 13.0919L15.4459 13.1405L15.6063 13.0216C15.8342 12.8442 16.0458 12.6488 16.2111 12.4552L16.2919 12.3559C16.6878 11.8429 17.1017 10.7227 17.1017 10.1709L17.1043 10.0865C17.1476 9.36495 17.7458 8.92105 18.4405 9.01169C18.8003 9.05865 19.1787 9.23798 19.5845 9.51684C20.333 10.0312 21.1309 10.8631 21.7158 11.7761C22.0248 12.2585 22.2261 12.8004 22.3413 13.3966C22.361 13.4983 22.378 13.5979 22.3926 13.6969L22.4078 13.8129L22.4548 13.7068C22.523 13.5475 22.5664 13.4273 22.5762 13.3737L22.5783 13.3549C22.5783 12.7069 23.2299 12.2618 23.8335 12.4975C24.1436 12.6185 24.4192 12.8377 24.7211 13.1513C24.8489 13.2842 24.9793 13.4329 25.1152 13.5983C25.2388 13.7489 25.3295 13.8648 25.4728 14.0544L25.7448 14.4197C26.0903 14.8976 26.3367 15.3149 26.5351 15.7869L26.8668 16.5499ZM16.8912 19.6312C16.8912 19.3933 16.9544 19.1602 17.0737 18.958C17.4273 18.3587 18.1756 18.1731 18.747 18.5411L21.3714 20.2305C21.4944 20.3097 21.5982 20.4181 21.6743 20.5471C21.9449 21.0056 21.8082 21.6072 21.3714 21.8882L18.747 23.5778C18.5552 23.7012 18.3347 23.7665 18.1098 23.7665C17.438 23.7665 16.8912 23.1952 16.8912 22.4876V19.6312Z" fill="url(#paint0_linear_11686_26134)"/>
<defs>
<linearGradient id="paint0_linear_11686_26134" x1="11.5993" y1="9" x2="32.0226" y2="22.1936" gradientUnits="userSpaceOnUse">
<stop stop-color="#FAC33D"/>
<stop offset="1" stop-color="#ECA700"/>
</linearGradient>
</defs>
</svg>
