<svg xmlns="http://www.w3.org/2000/svg" width="40" height="40" fill="none"><rect width="40" height="40" fill="#fff" fill-opacity=".08" rx="20"/><path fill="url(#a)" d="M13.58 29.804h8.918c1.714 0 3.12-1.286 3.34-2.941h.581a3.389 3.389 0 0 0 3.385-3.384V13.58a3.389 3.389 0 0 0-3.384-3.385h-8.918a3.388 3.388 0 0 0-3.384 3.385v.537h-.537a3.388 3.388 0 0 0-3.385 3.384v8.918a3.388 3.388 0 0 0 3.385 3.384Zm2.498-16.223c0-.785.64-1.424 1.424-1.424h8.917c.785 0 1.424.639 1.424 1.424v9.897c0 .785-.639 1.424-1.424 1.424h-.537v-7.4a3.388 3.388 0 0 0-3.384-3.384h-6.42v-.537Zm-3.921 3.921c0-.785.639-1.423 1.424-1.423h8.917c.785 0 1.424.638 1.424 1.423v8.918c0 .785-.639 1.423-1.424 1.423H13.58a1.425 1.425 0 0 1-1.423-1.423v-8.918Z"/><defs><linearGradient id="a" x1="20" x2="20" y1="10.196" y2="29.804" gradientUnits="userSpaceOnUse"><stop stop-color="#fff"/><stop offset="1" stop-color="#DFDFDF"/></linearGradient></defs></svg>