<svg xmlns="http://www.w3.org/2000/svg" width="40" height="40" fill="none"><rect width="40" height="40" fill="#fff" fill-opacity=".08" rx="20"/><path fill="url(#a)" fill-rule="evenodd" d="M31.176 28.078c1.789-1.267 2.942-3.156 2.942-5.24 0-3.835-3.812-6.933-8.506-6.933-4.694 0-8.506 3.11-8.506 6.933s3.812 6.933 8.506 6.933c.976 0 1.906-.139 2.776-.38l.247-.035c.165 0 .306.046.447.127l1.86 1.048.164.057a.283.283 0 0 0 .282-.276l-.047-.207-.388-1.405-.024-.173c0-.184.095-.357.236-.45h.011ZM16.094 8.235c-5.647 0-10.212 3.732-10.212 8.327 0 2.51 1.377 4.767 3.53 6.287a.646.646 0 0 1 .282.542l-.035.207-.459 1.681-.059.242c0 .184.153.334.341.334l.2-.057 2.236-1.267c.164-.092.34-.15.54-.15l.307.046a12.55 12.55 0 0 0 3.33.46h.564a6.408 6.408 0 0 1-.341-2.05c0-4.191 4.164-7.588 9.305-7.588h.553c-.776-3.973-5-7.014-10.082-7.014Zm6.694 13.486c-.623 0-1.13-.495-1.13-1.106 0-.61.507-1.105 1.13-1.105.624 0 1.13.495 1.13 1.105s-.506 1.106-1.13 1.106Zm5.67 0c-.623 0-1.129-.495-1.129-1.106 0-.61.506-1.105 1.13-1.105.623 0 1.13.495 1.13 1.105s-.507 1.106-1.13 1.106Zm-15.776-6.495c-.753 0-1.364-.6-1.364-1.336 0-.737.611-1.336 1.364-1.336.753 0 1.365.599 1.365 1.336 0 .737-.612 1.336-1.365 1.336Zm6.8 0c-.753 0-1.364-.6-1.364-1.336 0-.737.611-1.336 1.364-1.336.753 0 1.365.599 1.365 1.336 0 .737-.612 1.336-1.365 1.336Z" clip-rule="evenodd"/><defs><linearGradient id="a" x1="20" x2="20" y1="8.235" y2="30.588" gradientUnits="userSpaceOnUse"><stop stop-color="#02E26F"/><stop offset="1" stop-color="#07C362"/></linearGradient></defs></svg>