<svg xmlns="http://www.w3.org/2000/svg" width="40" height="40" fill="none"><rect width="40" height="40" fill="#fff" fill-opacity=".08" rx="20"/><g filter="url(#a)"><g clip-path="url(#b)"><ellipse cx="18.407" cy="23.367" fill="#fff" rx="8.511" ry="6.62"/><path fill="#D33437" d="M29.006 19.529a6.683 6.683 0 0 0-1.56-.712 5.258 5.258 0 0 1-.258-.09.77.77 0 0 1-.181-.114c-.07-.056-.094-.12-.068-.19.025-.07.048-.171.068-.303.454-1.16.454-2.06 0-2.696-.465-.616-1.237-.924-2.318-.924-1.08 0-2.323.298-3.726.894l-.091.03c-.06.02-.128.038-.204.053a.643.643 0 0 1-.22.008.187.187 0 0 1-.151-.106c-.03-.06-.025-.162.015-.303.454-1.465.354-2.52-.303-3.166-.747-.747-1.991-.782-3.733-.106-1.742.677-3.466 1.868-5.173 3.575-1.292 1.292-2.29 2.595-2.992 3.908-.701 1.313-1.052 2.55-1.052 3.711 0 1.09.328 2.098.984 3.022.657.924 1.523 1.686 2.598 2.287 1.076.6 2.29 1.07 3.643 1.408 1.353.338 2.742.508 4.165.508s2.79-.157 4.097-.47c1.308-.313 2.45-.732 3.423-1.257a12.743 12.743 0 0 0 2.552-1.78c.728-.662 1.278-1.353 1.651-2.075.374-.722.561-1.427.561-2.112 0-.647-.171-1.235-.515-1.765-.343-.53-.747-.942-1.212-1.235Zm-4.945 6.945c-1.48 1.197-3.345 1.911-5.597 2.144-1.474.141-2.86.035-4.157-.318-1.298-.354-2.35-.904-3.158-1.651-.808-.748-1.258-1.606-1.348-2.575-.142-1.474.527-2.81 2.006-4.006 1.48-1.197 3.345-1.911 5.597-2.143 1.474-.142 2.86-.036 4.157.318 1.297.353 2.35.903 3.158 1.65.808.748 1.258 1.607 1.348 2.576.141 1.474-.527 2.81-2.007 4.006Z"/><path fill="#000" d="M18.904 20.196c-1.07-.272-2.134-.176-3.189.288-1.055.465-1.82 1.167-2.294 2.106-.475.959-.508 1.905-.099 2.84.41.934 1.154 1.572 2.234 1.916 1.121.363 2.252.303 3.393-.182s1.938-1.242 2.393-2.272c.454-1.01.441-1.972-.038-2.886-.48-.913-1.28-1.516-2.4-1.81Zm-1.621 4.908a1.747 1.747 0 0 1-.947.72c-.409.135-.785.123-1.128-.039-.344-.161-.56-.416-.651-.765-.091-.348-.026-.694.197-1.037a1.66 1.66 0 0 1 .908-.696c.394-.132.763-.127 1.106.015.353.15.58.403.682.757.1.353.045.7-.167 1.045Zm1.424-1.833a.596.596 0 0 1-.333.28.627.627 0 0 1-.44.008c-.303-.142-.368-.369-.196-.682a.596.596 0 0 1 .325-.28.606.606 0 0 1 .432-.008c.131.05.22.144.265.28a.457.457 0 0 1-.053.401Z"/><path fill="#F19F4B" d="M28.703 16.629a.884.884 0 0 0 .515.446c.232.071.457.05.674-.06a.885.885 0 0 0 .447-.515 3.358 3.358 0 0 0 .098-1.78 3.464 3.464 0 0 0-.825-1.643 3.369 3.369 0 0 0-1.53-.992 3.471 3.471 0 0 0-1.802-.083.84.84 0 0 0-.56.386.877.877 0 0 0-.121.674c.04.242.166.429.378.56.212.13.44.172.682.121.636-.131 1.176.046 1.62.53.445.485.566 1.045.364 1.681a.87.87 0 0 0 .06.675Z"/><path fill="#F19F4B" d="M34.058 13.978a6.991 6.991 0 0 0-1.704-3.37 6.924 6.924 0 0 0-3.15-2.037 7.231 7.231 0 0 0-3.696-.174c-.283.06-.503.21-.66.447a.989.989 0 0 0-.143.78c.06.283.212.503.455.66.241.156.504.204.787.143a5.197 5.197 0 0 1 2.62.129c.87.267 1.617.75 2.243 1.446a4.919 4.919 0 0 1 1.211 2.393c.182.909.132 1.777-.15 2.605a1.02 1.02 0 0 0 .075.788c.131.252.333.424.606.515.273.09.535.07.788-.06a1.02 1.02 0 0 0 .515-.606c.394-1.162.461-2.38.204-3.658h-.001Z"/></g></g><defs><clipPath id="b"><path fill="#fff" d="M7.059 8.235h27.15v21.988H7.06z"/></clipPath><filter id="a" width="36.563" height="31.4" x="2.353" y="5.882" color-interpolation-filters="sRGB" filterUnits="userSpaceOnUse"><feFlood flood-opacity="0" result="BackgroundImageFix"/><feColorMatrix in="SourceAlpha" result="hardAlpha" values="0 0 0 0 0 0 0 0 0 0 0 0 0 0 0 0 0 0 127 0"/><feOffset dy="2.353"/><feGaussianBlur stdDeviation="2.353"/><feColorMatrix values="0 0 0 0 0 0 0 0 0 0 0 0 0 0 0 0 0 0 0.05 0"/><feBlend in2="BackgroundImageFix" result="effect1_dropShadow_11686_8014"/><feBlend in="SourceGraphic" in2="effect1_dropShadow_11686_8014" result="shape"/></filter></defs></svg>