<svg xmlns="http://www.w3.org/2000/svg" width="40" height="40" fill="none"><rect width="40" height="40" fill="#fff" fill-opacity=".08" rx="20"/><g clip-path="url(#a)"><path fill="url(#b)" fill-rule="evenodd" d="M27.803 12.165a10.86 10.86 0 0 0-7.733-3.206c-6.024 0-10.928 4.903-10.93 10.93-.001 1.926.502 3.807 1.459 5.465l-1.551 5.664 5.794-1.52a10.92 10.92 0 0 0 5.224 1.33h.005c6.024 0 10.928-4.904 10.93-10.93a10.864 10.864 0 0 0-3.198-7.733ZM20.07 28.982h-.003a9.073 9.073 0 0 1-4.624-1.266l-.332-.197-3.439.902.918-3.353-.216-.343a9.062 9.062 0 0 1-1.389-4.835c.002-5.01 4.078-9.085 9.09-9.085 2.426 0 4.707.947 6.422 2.664a9.032 9.032 0 0 1 2.659 6.428c-.002 5.01-4.078 9.085-9.086 9.085Zm4.984-6.804c-.273-.137-1.616-.797-1.866-.889-.25-.09-.433-.136-.615.137s-.705.889-.865 1.07c-.16.183-.318.206-.591.07-.274-.137-1.154-.426-2.197-1.357-.812-.724-1.36-1.618-1.52-1.891-.158-.274 0-.408.12-.558.296-.367.592-.752.683-.934.091-.182.046-.342-.023-.479-.068-.136-.614-1.48-.841-2.028-.222-.532-.447-.46-.615-.468a10.84 10.84 0 0 0-.524-.01c-.182 0-.477.068-.728.342-.25.273-.956.934-.956 2.278 0 1.345.979 2.644 1.116 2.826.136.182 1.925 2.94 4.665 4.124.652.281 1.16.45 1.557.575.655.208 1.25.179 1.72.108.525-.078 1.616-.66 1.844-1.298.228-.638.228-1.185.16-1.3-.069-.113-.251-.181-.524-.318Z" clip-rule="evenodd"/></g><defs><linearGradient id="b" x1="20.024" x2="20.024" y1="8.959" y2="31.018" gradientUnits="userSpaceOnUse"><stop stop-color="#40EB61"/><stop offset="1" stop-color="#16C83D"/></linearGradient><clipPath id="a"><path fill="#fff" d="M8.235 8.235h23.53v23.53H8.234z"/></clipPath></defs></svg>