<svg width="27" height="27" viewBox="0 0 27 27" fill="none" xmlns="http://www.w3.org/2000/svg">
<g clip-path="url(#clip0_6706_47880)">
<path fill-rule="evenodd" clip-rule="evenodd" d="M9.84312 4.83655H9.91453H9.91514C11.3741 4.83655 12.518 4.83655 13.4374 4.90918C14.3737 4.98314 15.1472 5.13625 15.8473 5.48116C16.9984 6.04818 17.9341 6.95296 18.5206 8.0658C18.5738 8.16679 18.6227 8.26938 18.6674 8.3739C19.9086 7.84962 20.925 7.42403 21.7501 7.20763C22.6277 6.97746 23.4824 6.93004 24.2466 7.4135C25.0108 7.89696 25.3082 8.67331 25.4414 9.54295C25.5703 10.3843 25.5703 11.494 25.5703 12.8559V12.8592V14.8139V14.8172C25.5703 16.1791 25.5703 17.2887 25.4414 18.1301C25.3082 18.9998 25.0108 19.7761 24.2466 20.2596C23.4824 20.7431 22.6277 20.6957 21.7501 20.4655C20.925 20.2491 19.9086 19.8235 18.6674 19.2992C18.6227 19.4037 18.5738 19.5063 18.5206 19.6072C17.9341 20.7202 16.9984 21.6249 15.8473 22.1919C15.1472 22.5368 14.3737 22.69 13.4374 22.7639C12.518 22.8365 11.3736 22.8365 9.91455 22.8365H9.84274C8.38365 22.8365 7.23968 22.8365 6.32025 22.7639C5.38392 22.69 4.61041 22.5368 3.91026 22.1919C2.75927 21.6249 1.82348 20.7202 1.23703 19.6072C0.88029 18.9303 0.721932 18.1825 0.645432 17.2772C0.570305 16.3881 0.570308 15.282 0.570313 13.8712V13.8711V13.802V13.8019C0.570308 12.3911 0.570305 11.2849 0.645432 10.3959C0.721932 9.49063 0.88029 8.74274 1.23703 8.0658C1.82348 6.95296 2.75927 6.04818 3.91026 5.48116C4.61041 5.13625 5.38393 4.98314 6.32025 4.90918C7.23963 4.83655 8.38353 4.83655 9.8425 4.83655H9.84312ZM5.73047 9.83655C5.17818 9.83655 4.73047 10.2843 4.73047 10.8365C4.73047 11.3888 5.17818 11.8365 5.73047 11.8365H9.73047C10.2828 11.8365 10.7305 11.3888 10.7305 10.8365C10.7305 10.2843 10.2828 9.83655 9.73047 9.83655H5.73047Z" fill="currentColor"/>
</g>
<defs>
<clipPath id="clip0_6706_47880">
<rect width="26" height="26" fill="white" transform="translate(0.0703125 0.836548)"/>
</clipPath>
</defs>
</svg>
