<svg width="66" height="66" viewBox="0 0 66 66" fill="none" xmlns="http://www.w3.org/2000/svg">
<path fill-rule="evenodd" clip-rule="evenodd" d="M17.8246 40.2214C21.0834 38.6924 23.7179 39.6384 26.2671 40.5569C28.1894 41.2499 30.1804 41.9649 32.9331 41.9649C35.0726 41.9649 36.3349 40.0757 38.1581 36.9572C39.9731 33.8579 42.2309 29.9997 46.7904 29.9997C53.1264 29.9997 57.0534 33.9954 59.7154 36.9407C59.7841 35.6812 59.8281 34.3777 59.8281 32.9999C59.8281 13.2028 52.8101 6.1875 33.0156 6.1875C13.2211 6.1875 6.20312 13.2028 6.20312 32.9999C6.20312 40.3837 7.18213 45.9882 9.43713 50.1159C10.8561 47.3192 13.9416 42.0447 17.8246 40.2214Z" fill="#999999"/>
<path fill-rule="evenodd" clip-rule="evenodd" d="M58.4067 41.6124C58.0025 41.1971 57.5735 40.7214 57.1143 40.2071C54.6833 37.4984 51.6555 34.1241 46.7935 34.1241C44.7475 34.1241 43.5128 35.9831 41.7253 39.0411C39.8855 42.1844 37.6003 46.0921 32.9363 46.0921C29.463 46.0921 26.9192 45.1764 24.8733 44.4366C22.4642 43.5676 21.2213 43.1826 19.585 43.9554C16.472 45.4184 13.348 51.3199 12.4075 53.4704C12.3525 53.6024 12.2673 53.7096 12.1875 53.8251C16.4142 58.0574 23.1188 59.8119 33.0215 59.8119C49.4088 59.8119 57.0208 54.9774 59.163 42.0909C58.8853 41.9864 58.6267 41.8379 58.4067 41.6124Z" fill="#565656"/>
<path d="M30.5447 24.1557C30.5447 20.7292 27.7535 17.938 24.3271 17.938C20.9006 17.938 18.1094 20.7292 18.1094 24.1557C18.1094 27.5823 20.9006 30.3708 24.3271 30.3708C27.7535 30.3708 30.5447 27.5823 30.5447 24.1557Z" fill="#565656"/>
</svg>
