<svg width="59" height="45" viewBox="0 0 59 45" fill="none" xmlns="http://www.w3.org/2000/svg">
<path d="M30.368 16.576L26 28H28L29.04 25.136H33.824L34.864 28H36.864L32.496 16.576H30.368ZM29.6 23.6L31.408 18.592H31.472L33.264 23.6H29.6ZM37.9794 16.576V28H39.8514V23.616H42.6834C45.4674 23.616 46.8594 22.432 46.8594 20.08C46.8594 17.744 45.4674 16.576 42.7154 16.576H37.9794ZM39.8514 18.176H42.5714C43.3874 18.176 43.9954 18.32 44.3794 18.624C44.7634 18.912 44.9714 19.392 44.9714 20.08C44.9714 20.768 44.7794 21.264 44.3954 21.568C44.0114 21.856 43.4034 22.016 42.5714 22.016H39.8514V18.176ZM48.4638 16.576V28H50.3358V23.616H53.1678C55.9518 23.616 57.3438 22.432 57.3438 20.08C57.3438 17.744 55.9518 16.576 53.1998 16.576H48.4638ZM50.3358 18.176H53.0558C53.8718 18.176 54.4798 18.32 54.8638 18.624C55.2478 18.912 55.4558 19.392 55.4558 20.08C55.4558 20.768 55.2638 21.264 54.8798 21.568C54.4958 21.856 53.8878 22.016 53.0558 22.016H50.3358V18.176Z" fill="white"/>
<path d="M10.3438 31.1094H16.75C18.1172 31.1094 19.0312 30.2031 19.0312 28.8516V15.8438C19.0312 14.5 18.1172 13.5938 16.75 13.5938H10.3438C8.94531 13.5938 8 14.5 8 15.8438V28.8594C8 30.2031 8.94531 31.1094 10.3438 31.1094ZM10.6797 29.2891C10.0859 29.2891 9.74219 28.9688 9.74219 28.3906V16.3125C9.74219 15.7344 10.0859 15.4141 10.6797 15.4141H16.3594C16.9453 15.4141 17.2969 15.7422 17.2969 16.3125V28.3906C17.2969 28.9609 16.9453 29.2891 16.3594 29.2891H10.6797ZM12.5078 17.3281H14.5312C14.8906 17.3281 15.1641 17.0547 15.1641 16.6875C15.1641 16.3281 14.8906 16.0547 14.5312 16.0547H12.5078C12.1484 16.0547 11.8672 16.3281 11.8672 16.6875C11.8672 17.0547 12.1484 17.3281 12.5078 17.3281ZM11.8125 28.6484H15.2266C15.4688 28.6484 15.6406 28.4844 15.6406 28.2344C15.6406 27.9844 15.4688 27.8125 15.2266 27.8125H11.8125C11.5781 27.8125 11.3984 27.9844 11.3984 28.2344C11.3984 28.4844 11.5781 28.6484 11.8125 28.6484Z" fill="url(#paint0_linear_3221_11833)"/>
<defs>
<linearGradient id="paint0_linear_3221_11833" x1="13.5156" y1="13.5937" x2="13.5156" y2="31.1094" gradientUnits="userSpaceOnUse">
<stop stop-color="#4F80FF"/>
<stop offset="1" stop-color="#094EFF"/>
</linearGradient>
</defs>
</svg>
