<svg width="100%" height="100%" viewBox="0 0 16 9" fill="none" xmlns="http://www.w3.org/2000/svg">
<path d="M8.00445 9.5346e-08C7.6394 9.96992e-08 7.33667 0.12894 7.05175 0.412608L0.347245 7.03152C0.115748 7.24642 8.96929e-08 7.52149 9.34856e-08 7.83954C1.01174e-07 8.48424 0.534224 9 1.202 9C1.54035 9 1.83417 8.87106 2.07457 8.63897L8.01336 2.75931L13.9343 8.63897C14.1747 8.87106 14.4775 9 14.8069 9C15.4747 9 16 8.48424 16 7.83954C16 7.51289 15.8932 7.24642 15.6617 7.03152L8.95715 0.412608C8.67223 0.12894 8.3695 0.00859608 8.00445 9.5346e-08Z" fill="#9C9C9C"/>
</svg>
