<svg width="30" height="30" viewBox="0 0 30 30" fill="none" xmlns="http://www.w3.org/2000/svg">
<path fill-rule="evenodd" clip-rule="evenodd" d="M8.88654 8.33344C8.55182 8.33344 8.28048 8.60479 8.28048 8.9395V12.0055C8.28048 12.3402 8.00914 12.6115 7.67442 12.6115C7.3397 12.6115 7.06836 12.3402 7.06836 12.0055V8.9395C7.06836 7.93535 7.88239 7.12132 8.88654 7.12132H11.9525C12.2872 7.12132 12.5586 7.39267 12.5586 7.72738C12.5586 8.0621 12.2872 8.33344 11.9525 8.33344H8.88654Z" fill="white"/>
<path fill-rule="evenodd" clip-rule="evenodd" d="M6.94727 8.93939C6.94727 7.8683 7.81556 7 8.88666 7H11.9526C12.3543 7 12.6799 7.32561 12.6799 7.72727C12.6799 8.12893 12.3543 8.45455 11.9526 8.45455H8.88666C8.61889 8.45455 8.40181 8.67162 8.40181 8.93939V12.0053C8.40181 12.407 8.0762 12.7326 7.67454 12.7326C7.27288 12.7326 6.94727 12.407 6.94727 12.0053V8.93939ZM8.88666 7.24242C7.94945 7.24242 7.18969 8.00218 7.18969 8.93939V12.0053C7.18969 12.2731 7.40676 12.4902 7.67454 12.4902C7.94231 12.4902 8.15939 12.2731 8.15939 12.0053V8.93939C8.15939 8.53773 8.485 8.21212 8.88666 8.21212H11.9526C12.2204 8.21212 12.4375 7.99505 12.4375 7.72727C12.4375 7.4595 12.2204 7.24242 11.9526 7.24242H8.88666Z" fill="white"/>
<path fill-rule="evenodd" clip-rule="evenodd" d="M21.008 21.6668C21.3427 21.6668 21.6141 21.3954 21.6141 21.0607L21.6141 17.9948C21.6141 17.6601 21.8854 17.3887 22.2201 17.3887C22.5548 17.3887 22.8262 17.6601 22.8262 17.9948L22.8262 21.0607C22.8262 22.0649 22.0121 22.8789 21.008 22.8789L17.942 22.8789C17.6073 22.8789 17.336 22.6076 17.336 22.2728C17.336 21.9381 17.6073 21.6668 17.942 21.6668L21.008 21.6668Z" fill="white"/>
<path fill-rule="evenodd" clip-rule="evenodd" d="M22.9473 21.0606C22.9473 22.1317 22.079 23 21.0079 23L17.9419 23C17.5403 23 17.2146 22.6744 17.2146 22.2727C17.2146 21.8711 17.5403 21.5455 17.9419 21.5455L21.0079 21.5455C21.2756 21.5455 21.4927 21.3284 21.4927 21.0606L21.4927 17.9947C21.4927 17.593 21.8183 17.2674 22.22 17.2674C22.6217 17.2674 22.9473 17.593 22.9473 17.9947L22.9473 21.0606ZM21.0079 22.7576C21.9451 22.7576 22.7048 21.9978 22.7048 21.0606L22.7048 17.9947C22.7048 17.7269 22.4878 17.5098 22.22 17.5098C21.9522 17.5098 21.7351 17.7269 21.7351 17.9947L21.7351 21.0606C21.7351 21.4623 21.4095 21.7879 21.0079 21.7879L17.9419 21.7879C17.6741 21.7879 17.4571 22.005 17.4571 22.2727C17.4571 22.5405 17.6741 22.7576 17.9419 22.7576L21.0079 22.7576Z" fill="white"/>
<path fill-rule="evenodd" clip-rule="evenodd" d="M8.28048 21.0607C8.28048 21.3954 8.55182 21.6668 8.88654 21.6668L11.9525 21.6668C12.2872 21.6668 12.5586 21.9381 12.5586 22.2728C12.5586 22.6076 12.2872 22.8789 11.9525 22.8789L8.88654 22.8789C7.88239 22.8789 7.06836 22.0649 7.06836 21.0607L7.06836 17.9948C7.06836 17.6601 7.3397 17.3887 7.67442 17.3887C8.00914 17.3887 8.28048 17.6601 8.28048 17.9948L8.28048 21.0607Z" fill="white"/>
<path fill-rule="evenodd" clip-rule="evenodd" d="M8.88666 23C7.81556 23 6.94727 22.1317 6.94727 21.0606L6.94727 17.9947C6.94727 17.593 7.27288 17.2674 7.67454 17.2674C8.0762 17.2674 8.40181 17.593 8.40181 17.9947L8.40181 21.0606C8.40181 21.3284 8.61888 21.5455 8.88666 21.5455L11.9526 21.5455C12.3543 21.5455 12.6799 21.8711 12.6799 22.2727C12.6799 22.6744 12.3543 23 11.9526 23L8.88666 23ZM7.18969 21.0606C7.18969 21.9978 7.94945 22.7576 8.88666 22.7576L11.9526 22.7576C12.2204 22.7576 12.4375 22.5405 12.4375 22.2727C12.4375 22.005 12.2204 21.7879 11.9526 21.7879L8.88666 21.7879C8.485 21.7879 8.15939 21.4623 8.15939 21.0606L8.15939 17.9947C8.15939 17.7269 7.94231 17.5098 7.67454 17.5098C7.40676 17.5098 7.18969 17.7269 7.18969 17.9947L7.18969 21.0606Z" fill="white"/>
<path fill-rule="evenodd" clip-rule="evenodd" d="M21.6141 8.9395C21.6141 8.60479 21.3427 8.33344 21.008 8.33344L17.942 8.33344C17.6073 8.33344 17.336 8.0621 17.336 7.72738C17.336 7.39266 17.6073 7.12132 17.942 7.12132L21.008 7.12132C22.0121 7.12132 22.8262 7.93535 22.8262 8.9395L22.8262 12.0055C22.8262 12.3402 22.5548 12.6115 22.2201 12.6115C21.8854 12.6115 21.6141 12.3402 21.6141 12.0055L21.6141 8.9395Z" fill="white"/>
<path fill-rule="evenodd" clip-rule="evenodd" d="M21.0079 7C22.079 7 22.9473 7.8683 22.9473 8.93939L22.9473 12.0053C22.9473 12.407 22.6217 12.7326 22.22 12.7326C21.8183 12.7326 21.4927 12.407 21.4927 12.0053L21.4927 8.93939C21.4927 8.67162 21.2756 8.45455 21.0079 8.45455L17.9419 8.45455C17.5403 8.45455 17.2146 8.12893 17.2146 7.72727C17.2146 7.32561 17.5403 7 17.9419 7L21.0079 7ZM22.7048 8.93939C22.7048 8.00218 21.9451 7.24242 21.0079 7.24242L17.9419 7.24242C17.6741 7.24242 17.4571 7.4595 17.4571 7.72727C17.4571 7.99505 17.6741 8.21212 17.9419 8.21212L21.0079 8.21212C21.4095 8.21212 21.7351 8.53773 21.7351 8.93939L21.7351 12.0053C21.7351 12.2731 21.9522 12.4902 22.22 12.4902C22.4878 12.4902 22.7048 12.2731 22.7048 12.0053L22.7048 8.93939Z" fill="white"/>
</svg>
