<svg width="182" height="288" viewBox="0 0 182 288" fill="none" xmlns="http://www.w3.org/2000/svg">
<g clip-path="url(#clip0_9859_68909)">
<path d="M135.72 153.081C136.143 152.561 136.681 152.187 137.267 151.966L136.883 151.653C135.308 150.37 135.071 148.046 136.354 146.472C136.832 145.885 137.456 145.484 138.129 145.277C137.337 143.981 137.402 142.27 138.415 141.026C138.838 140.506 139.376 140.132 139.962 139.911L133.868 134.947C132.293 133.664 132.056 131.34 133.339 129.766C134.621 128.191 136.945 127.954 138.52 129.236L156.236 143.669C156.426 143.824 156.729 143.793 156.884 143.603C156.965 143.503 157.004 143.394 157.012 143.413L155.311 137.382C154.765 135.472 155.925 133.343 157.852 132.79C158.812 132.515 159.823 132.633 160.7 133.122C161.572 133.609 162.197 134.399 162.46 135.337L167.267 151.67C168.542 155.86 167.559 160.643 164.702 164.151C160.033 169.881 151.573 170.745 145.842 166.077L136.249 158.262C134.675 156.979 134.437 154.655 135.72 153.081Z" fill="white"/>
</g>
<path d="M3.15 147.05V153.872H5.004V146.852C5.508 147.284 6.03 147.788 6.57 148.382L7.632 146.762C6.84 146.042 5.994 145.412 5.076 144.836C5.994 143.594 6.678 142.334 7.128 141.074V139.49H5.328C5.112 138.752 4.806 137.942 4.446 137.06L2.664 137.564C2.988 138.176 3.276 138.824 3.546 139.49H1.098V141.29H5.238C4.428 143.072 2.916 144.908 0.684 146.78L1.278 148.76C1.944 148.184 2.574 147.626 3.15 147.05ZM16.11 137.78H7.992V147.986H9.864V139.58H14.202V147.986H16.11V137.78ZM15.498 153.584C16.092 153.584 16.542 153.44 16.848 153.17C17.136 152.882 17.352 151.946 17.478 150.398L15.732 149.84C15.696 150.812 15.624 151.388 15.534 151.604C15.444 151.784 15.318 151.874 15.156 151.874H14.256C13.968 151.874 13.842 151.694 13.842 151.352V147.932H12.42C12.69 146.798 12.852 145.502 12.906 144.044V140.66H11.106V144.044C11.034 146.168 10.674 147.914 10.026 149.264C9.36 150.506 8.082 151.55 6.192 152.378L7.218 154.034C9.162 153.206 10.566 152.054 11.448 150.542C11.646 150.164 11.826 149.75 12.006 149.3V151.748C12.006 152.972 12.564 153.584 13.698 153.584H15.498ZM22.248 137.258V142.406H21.366V138.752H19.566V142.406H18.702V144.242H26.442V142.406H24.084V140.93H26.208V139.166H24.084V137.258H22.248ZM25.2 145.448C24.948 146.636 24.534 147.68 23.94 148.58V144.692H22.14V149.462H23.256C22.176 150.668 20.682 151.55 18.774 152.126L19.854 153.836C23.724 152.558 26.046 149.894 26.838 145.826L25.2 145.448ZM20.016 145.502C19.728 146.888 19.26 148.004 18.648 148.868L20.034 150.074C20.7 149.156 21.24 147.842 21.636 146.15L20.016 145.502ZM26.604 137.78V139.544H29.844C29.808 140.03 29.754 140.516 29.7 140.984H27.036V149.804H28.854V142.712H32.94V149.804H34.776V140.984H31.644C31.698 140.516 31.752 140.048 31.788 139.544H35.208V137.78H26.604ZM32.454 149.66L31.194 150.866C32.418 151.964 33.372 152.99 34.038 153.962L35.442 152.558C34.614 151.604 33.624 150.632 32.454 149.66ZM29.934 143.54V146.69C29.862 148.13 29.556 149.318 29.016 150.218C28.458 151.046 27.396 151.73 25.812 152.306L26.838 153.944C28.53 153.35 29.736 152.504 30.492 151.424C31.266 150.236 31.698 148.67 31.77 146.69V143.54H29.934ZM41.364 147.86V149.318C41.364 150.974 39.888 152.018 36.954 152.432L38.016 153.998C41.4 153.422 43.146 151.946 43.218 149.57V149.462H46.764V151.928C46.764 153.098 47.412 153.692 48.726 153.692H50.94C51.732 153.692 52.254 153.476 52.488 153.08C52.74 152.72 52.938 151.874 53.1 150.506L51.426 149.966C51.282 151.19 51.156 151.856 51.066 151.928C50.958 152.036 50.814 152.09 50.634 152.09H49.212C48.816 152.09 48.618 151.91 48.618 151.586V147.86H41.364ZM37.242 138.482V140.102H52.758V138.482H45.972C45.738 137.942 45.486 137.438 45.234 137.006L43.182 137.33C43.47 137.69 43.722 138.068 43.974 138.482H37.242ZM39.798 140.858V144.62H50.202V140.858H39.798ZM48.348 143.18H41.652V142.334H48.348V143.18ZM52.524 145.376H37.458V148.904H39.33V146.996H50.652V148.832H52.524V145.376ZM58.608 147.086V148.688H59.85C60.57 149.588 61.452 150.398 62.496 151.118C60.966 151.676 59.238 152.09 57.312 152.342L58.122 154.016C60.48 153.62 62.568 153.008 64.368 152.18C66.06 153.008 68.112 153.62 70.488 154.016L71.298 152.36C69.372 152.108 67.662 151.73 66.186 151.19C67.41 150.416 68.454 149.516 69.336 148.472V147.086H58.608ZM61.902 148.688H66.78C66.024 149.3 65.178 149.858 64.242 150.344C63.342 149.876 62.568 149.318 61.902 148.688ZM57.942 143.432H60.498V146.204H68.148V143.432H70.812V141.704H68.148V140.57H66.33V141.704H62.334V140.588H60.498V141.704H57.942V140.192H70.812V138.428H64.8C64.62 137.924 64.422 137.474 64.242 137.078L62.244 137.402C62.46 137.726 62.658 138.068 62.838 138.428H56.07V144.278C56.034 147.806 55.53 150.578 54.594 152.558L56.016 153.836C57.24 151.424 57.87 148.238 57.942 144.278V143.432ZM62.334 143.432H66.33V144.656H62.334V143.432Z" fill="white"/>
<path d="M3.15 147.05V153.872H5.004V146.852C5.508 147.284 6.03 147.788 6.57 148.382L7.632 146.762C6.84 146.042 5.994 145.412 5.076 144.836C5.994 143.594 6.678 142.334 7.128 141.074V139.49H5.328C5.112 138.752 4.806 137.942 4.446 137.06L2.664 137.564C2.988 138.176 3.276 138.824 3.546 139.49H1.098V141.29H5.238C4.428 143.072 2.916 144.908 0.684 146.78L1.278 148.76C1.944 148.184 2.574 147.626 3.15 147.05ZM16.11 137.78H7.992V147.986H9.864V139.58H14.202V147.986H16.11V137.78ZM15.498 153.584C16.092 153.584 16.542 153.44 16.848 153.17C17.136 152.882 17.352 151.946 17.478 150.398L15.732 149.84C15.696 150.812 15.624 151.388 15.534 151.604C15.444 151.784 15.318 151.874 15.156 151.874H14.256C13.968 151.874 13.842 151.694 13.842 151.352V147.932H12.42C12.69 146.798 12.852 145.502 12.906 144.044V140.66H11.106V144.044C11.034 146.168 10.674 147.914 10.026 149.264C9.36 150.506 8.082 151.55 6.192 152.378L7.218 154.034C9.162 153.206 10.566 152.054 11.448 150.542C11.646 150.164 11.826 149.75 12.006 149.3V151.748C12.006 152.972 12.564 153.584 13.698 153.584H15.498ZM22.248 137.258V142.406H21.366V138.752H19.566V142.406H18.702V144.242H26.442V142.406H24.084V140.93H26.208V139.166H24.084V137.258H22.248ZM25.2 145.448C24.948 146.636 24.534 147.68 23.94 148.58V144.692H22.14V149.462H23.256C22.176 150.668 20.682 151.55 18.774 152.126L19.854 153.836C23.724 152.558 26.046 149.894 26.838 145.826L25.2 145.448ZM20.016 145.502C19.728 146.888 19.26 148.004 18.648 148.868L20.034 150.074C20.7 149.156 21.24 147.842 21.636 146.15L20.016 145.502ZM26.604 137.78V139.544H29.844C29.808 140.03 29.754 140.516 29.7 140.984H27.036V149.804H28.854V142.712H32.94V149.804H34.776V140.984H31.644C31.698 140.516 31.752 140.048 31.788 139.544H35.208V137.78H26.604ZM32.454 149.66L31.194 150.866C32.418 151.964 33.372 152.99 34.038 153.962L35.442 152.558C34.614 151.604 33.624 150.632 32.454 149.66ZM29.934 143.54V146.69C29.862 148.13 29.556 149.318 29.016 150.218C28.458 151.046 27.396 151.73 25.812 152.306L26.838 153.944C28.53 153.35 29.736 152.504 30.492 151.424C31.266 150.236 31.698 148.67 31.77 146.69V143.54H29.934ZM41.364 147.86V149.318C41.364 150.974 39.888 152.018 36.954 152.432L38.016 153.998C41.4 153.422 43.146 151.946 43.218 149.57V149.462H46.764V151.928C46.764 153.098 47.412 153.692 48.726 153.692H50.94C51.732 153.692 52.254 153.476 52.488 153.08C52.74 152.72 52.938 151.874 53.1 150.506L51.426 149.966C51.282 151.19 51.156 151.856 51.066 151.928C50.958 152.036 50.814 152.09 50.634 152.09H49.212C48.816 152.09 48.618 151.91 48.618 151.586V147.86H41.364ZM37.242 138.482V140.102H52.758V138.482H45.972C45.738 137.942 45.486 137.438 45.234 137.006L43.182 137.33C43.47 137.69 43.722 138.068 43.974 138.482H37.242ZM39.798 140.858V144.62H50.202V140.858H39.798ZM48.348 143.18H41.652V142.334H48.348V143.18ZM52.524 145.376H37.458V148.904H39.33V146.996H50.652V148.832H52.524V145.376ZM58.608 147.086V148.688H59.85C60.57 149.588 61.452 150.398 62.496 151.118C60.966 151.676 59.238 152.09 57.312 152.342L58.122 154.016C60.48 153.62 62.568 153.008 64.368 152.18C66.06 153.008 68.112 153.62 70.488 154.016L71.298 152.36C69.372 152.108 67.662 151.73 66.186 151.19C67.41 150.416 68.454 149.516 69.336 148.472V147.086H58.608ZM61.902 148.688H66.78C66.024 149.3 65.178 149.858 64.242 150.344C63.342 149.876 62.568 149.318 61.902 148.688ZM57.942 143.432H60.498V146.204H68.148V143.432H70.812V141.704H68.148V140.57H66.33V141.704H62.334V140.588H60.498V141.704H57.942V140.192H70.812V138.428H64.8C64.62 137.924 64.422 137.474 64.242 137.078L62.244 137.402C62.46 137.726 62.658 138.068 62.838 138.428H56.07V144.278C56.034 147.806 55.53 150.578 54.594 152.558L56.016 153.836C57.24 151.424 57.87 148.238 57.942 144.278V143.432ZM62.334 143.432H66.33V144.656H62.334V143.432Z" fill="white"/>
<g clip-path="url(#clip1_9859_68909)">
<path d="M129.526 134.958L135.095 78.6081L142.585 83.5281C144.866 85.0212 147.254 81.7976 145.54 79.5494L128.278 56.926C127.345 55.7045 125.66 55.7045 124.726 56.926L107.464 79.5494C105.741 81.7993 108.138 85.0212 110.41 83.5281L117.909 78.6184L123.471 134.958C123.86 138.999 129.135 139.003 129.526 134.958Z" fill="url(#paint0_linear_9859_68909)"/>
</g>
<g opacity="0.6" clip-path="url(#clip2_9859_68909)">
<path d="M124.474 155.042L118.905 211.392L111.415 206.472C109.134 204.979 106.746 208.202 108.46 210.451L125.722 233.074C126.655 234.295 128.34 234.295 129.274 233.074L146.536 210.451C148.259 208.201 145.862 204.979 143.59 206.472L136.091 211.382L130.529 155.042C130.14 151.001 124.865 150.997 124.474 155.042Z" fill="url(#paint1_linear_9859_68909)"/>
</g>
<path d="M120.086 259.358L118.358 257.629C117.881 257.152 117.106 257.152 116.629 257.629C116.152 258.107 116.152 258.88 116.629 259.358L118.358 261.086C118.596 261.325 118.909 261.444 119.222 261.444C119.535 261.444 119.848 261.325 120.086 261.086C120.563 260.609 120.563 259.835 120.086 259.358Z" fill="white"/>
<path d="M116.001 266.778H113.556C112.882 266.778 112.334 267.326 112.334 268.001C112.334 268.675 112.882 269.223 113.556 269.223H116.001C116.675 269.223 117.223 268.675 117.223 268.001C117.223 267.326 116.675 266.778 116.001 266.778Z" fill="white"/>
<path d="M120.086 274.914C119.609 274.437 118.834 274.437 118.358 274.914L116.629 276.642C116.152 277.12 116.152 277.893 116.629 278.371C116.868 278.61 117.181 278.729 117.494 278.729C117.806 278.729 118.119 278.61 118.358 278.371L120.086 276.642C120.563 276.165 120.563 275.391 120.086 274.914Z" fill="white"/>
<path d="M127.002 277.778C126.327 277.778 125.779 278.326 125.779 279.001V281.445C125.779 282.12 126.327 282.667 127.002 282.667C127.676 282.667 128.224 282.12 128.224 281.445V279.001C128.224 278.326 127.676 277.778 127.002 277.778Z" fill="white"/>
<path d="M137.373 276.642L135.645 274.914C135.168 274.437 134.393 274.437 133.917 274.914C133.439 275.391 133.439 276.165 133.917 276.642L135.645 278.371C135.883 278.61 136.196 278.729 136.509 278.729C136.822 278.729 137.135 278.61 137.373 278.371C137.85 277.893 137.85 277.12 137.373 276.642Z" fill="white"/>
<path d="M140.446 266.778H138.002C137.327 266.778 136.779 267.326 136.779 268.001C136.779 268.675 137.327 269.223 138.002 269.223H140.446C141.121 269.223 141.668 268.675 141.668 268.001C141.668 267.326 141.121 266.778 140.446 266.778Z" fill="white"/>
<path d="M137.373 257.629C136.896 257.152 136.121 257.152 135.645 257.629L133.917 259.358C133.439 259.835 133.439 260.609 133.917 261.086C134.155 261.325 134.468 261.444 134.781 261.444C135.094 261.444 135.406 261.325 135.645 261.086L137.373 259.358C137.85 258.88 137.85 258.107 137.373 257.629Z" fill="white"/>
<path d="M127.002 253.333C126.327 253.333 125.779 253.881 125.779 254.556V257C125.779 257.675 126.327 258.222 127.002 258.222C127.676 258.222 128.224 257.675 128.224 257V254.556C128.224 253.881 127.676 253.333 127.002 253.333Z" fill="white"/>
<path d="M126.999 260.056C122.619 260.056 119.055 263.62 119.055 268C119.055 272.381 122.619 275.945 126.999 275.945C131.38 275.945 134.944 272.381 134.944 268C134.944 263.62 131.38 260.056 126.999 260.056ZM126.999 273.5C123.967 273.5 121.499 271.032 121.499 268C121.499 264.968 123.967 262.5 126.999 262.5C130.031 262.5 132.499 264.968 132.499 268C132.499 271.032 130.031 273.5 126.999 273.5Z" fill="white"/>
<path d="M127.703 33.2314C124.45 33.2467 121.316 32.0077 118.953 29.772C116.591 27.5363 115.18 24.4759 115.016 21.2272C114.852 17.9785 115.946 14.7915 118.071 12.3287C120.196 9.86602 123.189 8.31714 126.427 8.00414C126.586 7.98865 126.747 8.01679 126.892 8.08555C127.037 8.15431 127.161 8.26113 127.25 8.39461C127.339 8.52824 127.39 8.6838 127.397 8.84432C127.403 9.00484 127.366 9.16416 127.289 9.3049C126.583 10.6013 126.22 12.056 126.232 13.5318C126.16 15.7138 126.954 17.8359 128.442 19.4338C129.929 21.0317 131.989 21.9754 134.171 22.0585C135.895 22.0549 137.564 21.4586 138.9 20.3696C139.032 20.264 139.192 20.1985 139.36 20.181C139.528 20.1635 139.698 20.1947 139.849 20.2709C140 20.3472 140.126 20.4652 140.211 20.6109C140.297 20.7566 140.339 20.9239 140.333 21.0929C140.213 24.3592 138.829 27.4513 136.472 29.7162C134.116 31.9811 130.971 33.2415 127.703 33.2314ZM125.043 10.0341C123.16 10.5089 121.438 11.4792 120.056 12.8443C118.674 14.2095 117.683 15.9196 117.185 17.7972C116.687 19.6748 116.701 21.6514 117.226 23.5218C117.75 25.3922 118.765 27.0881 120.166 28.4336C121.567 29.779 123.303 30.7249 125.193 31.173C127.083 31.6211 129.059 31.5551 130.914 30.9818C132.77 30.4086 134.439 29.3489 135.747 27.913C137.055 26.477 137.955 24.7171 138.353 22.8159C137.059 23.4794 135.625 23.8246 134.171 23.8226C131.522 23.7393 129.013 22.6097 127.195 20.6809C125.376 18.7522 124.396 16.1816 124.468 13.5318C124.463 12.3419 124.657 11.1596 125.043 10.0341Z" fill="white" stroke="white" stroke-width="0.5"/>
<defs>
<linearGradient id="paint0_linear_9859_68909" x1="126.999" y1="56.0001" x2="126.999" y2="161.5" gradientUnits="userSpaceOnUse">
<stop offset="0.238123" stop-color="white"/>
<stop offset="1" stop-color="white" stop-opacity="0"/>
</linearGradient>
<linearGradient id="paint1_linear_9859_68909" x1="127.001" y1="234" x2="127.001" y2="152" gradientUnits="userSpaceOnUse">
<stop stop-color="#CACACA"/>
<stop offset="1" stop-color="white" stop-opacity="0"/>
</linearGradient>
<clipPath id="clip0_9859_68909">
<rect width="46.0333" height="46.0333" fill="white" transform="matrix(-0.631597 0.775297 0.775297 0.631597 146.133 114.06)"/>
</clipPath>
<clipPath id="clip1_9859_68909">
<rect width="82" height="73" fill="white" transform="translate(90 138) rotate(-90)"/>
</clipPath>
<clipPath id="clip2_9859_68909">
<rect width="82" height="73" fill="white" transform="translate(164 152) rotate(90)"/>
</clipPath>
</defs>
</svg>
