<svg width="182" height="288" viewBox="0 0 182 288" fill="none" xmlns="http://www.w3.org/2000/svg">
<g clip-path="url(#clip0_11373_34702)">
<path d="M135.72 152.081C136.143 151.561 136.681 151.187 137.267 150.966L136.883 150.653C135.308 149.37 135.071 147.046 136.354 145.472C136.832 144.885 137.456 144.484 138.129 144.277C137.337 142.981 137.402 141.27 138.415 140.026C138.838 139.506 139.376 139.132 139.962 138.911L133.868 133.947C132.293 132.664 132.056 130.34 133.339 128.766C134.621 127.191 136.945 126.954 138.52 128.236L156.236 142.669C156.426 142.824 156.729 142.793 156.884 142.603C156.965 142.503 157.004 142.394 157.012 142.413L155.311 136.382C154.765 134.472 155.925 132.343 157.852 131.79C158.812 131.515 159.823 131.633 160.7 132.122C161.572 132.609 162.197 133.399 162.46 134.337L167.267 150.67C168.542 154.86 167.559 159.643 164.702 163.151C160.033 168.881 151.573 169.745 145.842 165.077L136.249 157.262C134.675 155.979 134.437 153.655 135.72 152.081Z" fill="white"/>
</g>
<path d="M3.15 146.05V152.872H5.004V145.852C5.508 146.284 6.03 146.788 6.57 147.382L7.632 145.762C6.84 145.042 5.994 144.412 5.076 143.836C5.994 142.594 6.678 141.334 7.128 140.074V138.49H5.328C5.112 137.752 4.806 136.942 4.446 136.06L2.664 136.564C2.988 137.176 3.276 137.824 3.546 138.49H1.098V140.29H5.238C4.428 142.072 2.916 143.908 0.684 145.78L1.278 147.76C1.944 147.184 2.574 146.626 3.15 146.05ZM16.11 136.78H7.992V146.986H9.864V138.58H14.202V146.986H16.11V136.78ZM15.498 152.584C16.092 152.584 16.542 152.44 16.848 152.17C17.136 151.882 17.352 150.946 17.478 149.398L15.732 148.84C15.696 149.812 15.624 150.388 15.534 150.604C15.444 150.784 15.318 150.874 15.156 150.874H14.256C13.968 150.874 13.842 150.694 13.842 150.352V146.932H12.42C12.69 145.798 12.852 144.502 12.906 143.044V139.66H11.106V143.044C11.034 145.168 10.674 146.914 10.026 148.264C9.36 149.506 8.082 150.55 6.192 151.378L7.218 153.034C9.162 152.206 10.566 151.054 11.448 149.542C11.646 149.164 11.826 148.75 12.006 148.3V150.748C12.006 151.972 12.564 152.584 13.698 152.584H15.498ZM22.248 136.258V141.406H21.366V137.752H19.566V141.406H18.702V143.242H26.442V141.406H24.084V139.93H26.208V138.166H24.084V136.258H22.248ZM25.2 144.448C24.948 145.636 24.534 146.68 23.94 147.58V143.692H22.14V148.462H23.256C22.176 149.668 20.682 150.55 18.774 151.126L19.854 152.836C23.724 151.558 26.046 148.894 26.838 144.826L25.2 144.448ZM20.016 144.502C19.728 145.888 19.26 147.004 18.648 147.868L20.034 149.074C20.7 148.156 21.24 146.842 21.636 145.15L20.016 144.502ZM26.604 136.78V138.544H29.844C29.808 139.03 29.754 139.516 29.7 139.984H27.036V148.804H28.854V141.712H32.94V148.804H34.776V139.984H31.644C31.698 139.516 31.752 139.048 31.788 138.544H35.208V136.78H26.604ZM32.454 148.66L31.194 149.866C32.418 150.964 33.372 151.99 34.038 152.962L35.442 151.558C34.614 150.604 33.624 149.632 32.454 148.66ZM29.934 142.54V145.69C29.862 147.13 29.556 148.318 29.016 149.218C28.458 150.046 27.396 150.73 25.812 151.306L26.838 152.944C28.53 152.35 29.736 151.504 30.492 150.424C31.266 149.236 31.698 147.67 31.77 145.69V142.54H29.934ZM41.364 146.86V148.318C41.364 149.974 39.888 151.018 36.954 151.432L38.016 152.998C41.4 152.422 43.146 150.946 43.218 148.57V148.462H46.764V150.928C46.764 152.098 47.412 152.692 48.726 152.692H50.94C51.732 152.692 52.254 152.476 52.488 152.08C52.74 151.72 52.938 150.874 53.1 149.506L51.426 148.966C51.282 150.19 51.156 150.856 51.066 150.928C50.958 151.036 50.814 151.09 50.634 151.09H49.212C48.816 151.09 48.618 150.91 48.618 150.586V146.86H41.364ZM37.242 137.482V139.102H52.758V137.482H45.972C45.738 136.942 45.486 136.438 45.234 136.006L43.182 136.33C43.47 136.69 43.722 137.068 43.974 137.482H37.242ZM39.798 139.858V143.62H50.202V139.858H39.798ZM48.348 142.18H41.652V141.334H48.348V142.18ZM52.524 144.376H37.458V147.904H39.33V145.996H50.652V147.832H52.524V144.376ZM58.608 146.086V147.688H59.85C60.57 148.588 61.452 149.398 62.496 150.118C60.966 150.676 59.238 151.09 57.312 151.342L58.122 153.016C60.48 152.62 62.568 152.008 64.368 151.18C66.06 152.008 68.112 152.62 70.488 153.016L71.298 151.36C69.372 151.108 67.662 150.73 66.186 150.19C67.41 149.416 68.454 148.516 69.336 147.472V146.086H58.608ZM61.902 147.688H66.78C66.024 148.3 65.178 148.858 64.242 149.344C63.342 148.876 62.568 148.318 61.902 147.688ZM57.942 142.432H60.498V145.204H68.148V142.432H70.812V140.704H68.148V139.57H66.33V140.704H62.334V139.588H60.498V140.704H57.942V139.192H70.812V137.428H64.8C64.62 136.924 64.422 136.474 64.242 136.078L62.244 136.402C62.46 136.726 62.658 137.068 62.838 137.428H56.07V143.278C56.034 146.806 55.53 149.578 54.594 151.558L56.016 152.836C57.24 150.424 57.87 147.238 57.942 143.278V142.432ZM62.334 142.432H66.33V143.656H62.334V142.432Z" fill="white"/>
<path d="M3.15 146.05V152.872H5.004V145.852C5.508 146.284 6.03 146.788 6.57 147.382L7.632 145.762C6.84 145.042 5.994 144.412 5.076 143.836C5.994 142.594 6.678 141.334 7.128 140.074V138.49H5.328C5.112 137.752 4.806 136.942 4.446 136.06L2.664 136.564C2.988 137.176 3.276 137.824 3.546 138.49H1.098V140.29H5.238C4.428 142.072 2.916 143.908 0.684 145.78L1.278 147.76C1.944 147.184 2.574 146.626 3.15 146.05ZM16.11 136.78H7.992V146.986H9.864V138.58H14.202V146.986H16.11V136.78ZM15.498 152.584C16.092 152.584 16.542 152.44 16.848 152.17C17.136 151.882 17.352 150.946 17.478 149.398L15.732 148.84C15.696 149.812 15.624 150.388 15.534 150.604C15.444 150.784 15.318 150.874 15.156 150.874H14.256C13.968 150.874 13.842 150.694 13.842 150.352V146.932H12.42C12.69 145.798 12.852 144.502 12.906 143.044V139.66H11.106V143.044C11.034 145.168 10.674 146.914 10.026 148.264C9.36 149.506 8.082 150.55 6.192 151.378L7.218 153.034C9.162 152.206 10.566 151.054 11.448 149.542C11.646 149.164 11.826 148.75 12.006 148.3V150.748C12.006 151.972 12.564 152.584 13.698 152.584H15.498ZM22.248 136.258V141.406H21.366V137.752H19.566V141.406H18.702V143.242H26.442V141.406H24.084V139.93H26.208V138.166H24.084V136.258H22.248ZM25.2 144.448C24.948 145.636 24.534 146.68 23.94 147.58V143.692H22.14V148.462H23.256C22.176 149.668 20.682 150.55 18.774 151.126L19.854 152.836C23.724 151.558 26.046 148.894 26.838 144.826L25.2 144.448ZM20.016 144.502C19.728 145.888 19.26 147.004 18.648 147.868L20.034 149.074C20.7 148.156 21.24 146.842 21.636 145.15L20.016 144.502ZM26.604 136.78V138.544H29.844C29.808 139.03 29.754 139.516 29.7 139.984H27.036V148.804H28.854V141.712H32.94V148.804H34.776V139.984H31.644C31.698 139.516 31.752 139.048 31.788 138.544H35.208V136.78H26.604ZM32.454 148.66L31.194 149.866C32.418 150.964 33.372 151.99 34.038 152.962L35.442 151.558C34.614 150.604 33.624 149.632 32.454 148.66ZM29.934 142.54V145.69C29.862 147.13 29.556 148.318 29.016 149.218C28.458 150.046 27.396 150.73 25.812 151.306L26.838 152.944C28.53 152.35 29.736 151.504 30.492 150.424C31.266 149.236 31.698 147.67 31.77 145.69V142.54H29.934ZM41.364 146.86V148.318C41.364 149.974 39.888 151.018 36.954 151.432L38.016 152.998C41.4 152.422 43.146 150.946 43.218 148.57V148.462H46.764V150.928C46.764 152.098 47.412 152.692 48.726 152.692H50.94C51.732 152.692 52.254 152.476 52.488 152.08C52.74 151.72 52.938 150.874 53.1 149.506L51.426 148.966C51.282 150.19 51.156 150.856 51.066 150.928C50.958 151.036 50.814 151.09 50.634 151.09H49.212C48.816 151.09 48.618 150.91 48.618 150.586V146.86H41.364ZM37.242 137.482V139.102H52.758V137.482H45.972C45.738 136.942 45.486 136.438 45.234 136.006L43.182 136.33C43.47 136.69 43.722 137.068 43.974 137.482H37.242ZM39.798 139.858V143.62H50.202V139.858H39.798ZM48.348 142.18H41.652V141.334H48.348V142.18ZM52.524 144.376H37.458V147.904H39.33V145.996H50.652V147.832H52.524V144.376ZM58.608 146.086V147.688H59.85C60.57 148.588 61.452 149.398 62.496 150.118C60.966 150.676 59.238 151.09 57.312 151.342L58.122 153.016C60.48 152.62 62.568 152.008 64.368 151.18C66.06 152.008 68.112 152.62 70.488 153.016L71.298 151.36C69.372 151.108 67.662 150.73 66.186 150.19C67.41 149.416 68.454 148.516 69.336 147.472V146.086H58.608ZM61.902 147.688H66.78C66.024 148.3 65.178 148.858 64.242 149.344C63.342 148.876 62.568 148.318 61.902 147.688ZM57.942 142.432H60.498V145.204H68.148V142.432H70.812V140.704H68.148V139.57H66.33V140.704H62.334V139.588H60.498V140.704H57.942V139.192H70.812V137.428H64.8C64.62 136.924 64.422 136.474 64.242 136.078L62.244 136.402C62.46 136.726 62.658 137.068 62.838 137.428H56.07V143.278C56.034 146.806 55.53 149.578 54.594 151.558L56.016 152.836C57.24 150.424 57.87 147.238 57.942 143.278V142.432ZM62.334 142.432H66.33V143.656H62.334V142.432Z" fill="white"/>
<g clip-path="url(#clip1_11373_34702)">
<path d="M129.526 133.958L135.095 77.6081L142.585 82.5281C144.866 84.0212 147.254 80.7976 145.54 78.5494L128.278 55.926C127.345 54.7045 125.66 54.7045 124.726 55.926L107.464 78.5494C105.741 80.7993 108.138 84.0212 110.41 82.5281L117.909 77.6184L123.471 133.958C123.86 137.999 129.135 138.003 129.526 133.958Z" fill="url(#paint0_linear_11373_34702)"/>
</g>
<g opacity="0.6" clip-path="url(#clip2_11373_34702)">
<path d="M124.474 154.042L118.905 210.392L111.415 205.472C109.134 203.979 106.746 207.202 108.46 209.451L125.722 232.074C126.655 233.295 128.34 233.295 129.274 232.074L146.536 209.451C148.259 207.201 145.862 203.979 143.59 205.472L136.091 210.382L130.529 154.042C130.14 150.001 124.865 149.997 124.474 154.042Z" fill="url(#paint1_linear_11373_34702)"/>
</g>
<path d="M120.086 11.3577L118.358 9.62944C117.881 9.15216 117.106 9.15216 116.629 9.62944C116.152 10.1067 116.152 10.8804 116.629 11.3577L118.358 13.0859C118.596 13.3248 118.909 13.444 119.222 13.444C119.535 13.444 119.848 13.3248 120.086 13.0859C120.563 12.6086 120.563 11.8349 120.086 11.3577Z" fill="white"/>
<path d="M116.001 18.7783H113.556C112.882 18.7783 112.334 19.3259 112.334 20.0005C112.334 20.6752 112.882 21.2228 113.556 21.2228H116.001C116.675 21.2228 117.223 20.6752 117.223 20.0005C117.223 19.3259 116.675 18.7783 116.001 18.7783Z" fill="white"/>
<path d="M120.086 26.9141C119.609 26.4368 118.834 26.4368 118.358 26.9141L116.629 28.6423C116.152 29.1196 116.152 29.8933 116.629 30.3706C116.868 30.6095 117.181 30.7287 117.494 30.7287C117.806 30.7287 118.119 30.6095 118.358 30.3706L120.086 28.6423C120.563 28.1651 120.563 27.3914 120.086 26.9141Z" fill="white"/>
<path d="M127.002 29.7783C126.327 29.7783 125.779 30.3259 125.779 31.0005V33.445C125.779 34.1197 126.327 34.6672 127.002 34.6672C127.676 34.6672 128.224 34.1197 128.224 33.445V31.0005C128.224 30.3259 127.676 29.7783 127.002 29.7783Z" fill="white"/>
<path d="M137.373 28.6423L135.645 26.9141C135.168 26.4368 134.393 26.4368 133.917 26.9141C133.439 27.3914 133.439 28.1651 133.917 28.6423L135.645 30.3706C135.883 30.6095 136.196 30.7287 136.509 30.7287C136.822 30.7287 137.135 30.6095 137.373 30.3706C137.85 29.8933 137.85 29.1196 137.373 28.6423Z" fill="white"/>
<path d="M140.446 18.7783H138.002C137.327 18.7783 136.779 19.3259 136.779 20.0005C136.779 20.6752 137.327 21.2228 138.002 21.2228H140.446C141.121 21.2228 141.668 20.6752 141.668 20.0005C141.668 19.3259 141.121 18.7783 140.446 18.7783Z" fill="white"/>
<path d="M137.373 9.62944C136.896 9.15216 136.121 9.15216 135.645 9.62944L133.917 11.3577C133.439 11.8349 133.439 12.6086 133.917 13.0859C134.155 13.3248 134.468 13.444 134.781 13.444C135.094 13.444 135.406 13.3248 135.645 13.0859L137.373 11.3577C137.85 10.8804 137.85 10.1067 137.373 9.62944Z" fill="white"/>
<path d="M127.002 5.3335C126.327 5.3335 125.779 5.88105 125.779 6.55572V9.00016C125.779 9.67483 126.327 10.2224 127.002 10.2224C127.676 10.2224 128.224 9.67483 128.224 9.00016V6.55572C128.224 5.88105 127.676 5.3335 127.002 5.3335Z" fill="white"/>
<path d="M126.999 12.0557C122.619 12.0557 119.055 15.6197 119.055 20.0001C119.055 24.3806 122.619 27.9446 126.999 27.9446C131.38 27.9446 134.944 24.3806 134.944 20.0001C134.944 15.6197 131.38 12.0557 126.999 12.0557ZM126.999 25.5001C123.967 25.5001 121.499 23.0324 121.499 20.0001C121.499 16.9678 123.967 14.5001 126.999 14.5001C130.031 14.5001 132.499 16.9678 132.499 20.0001C132.499 23.0324 130.031 25.5001 126.999 25.5001Z" fill="white"/>
<path d="M127.703 281.231C124.45 281.247 121.316 280.008 118.953 277.772C116.591 275.536 115.18 272.476 115.016 269.227C114.852 265.978 115.946 262.791 118.071 260.329C120.196 257.866 123.189 256.317 126.427 256.004C126.586 255.989 126.747 256.017 126.892 256.086C127.037 256.154 127.161 256.261 127.25 256.395C127.339 256.528 127.39 256.684 127.397 256.844C127.403 257.005 127.366 257.164 127.289 257.305C126.583 258.601 126.22 260.056 126.232 261.532C126.16 263.714 126.954 265.836 128.442 267.434C129.929 269.032 131.989 269.975 134.171 270.058C135.895 270.055 137.564 269.459 138.9 268.37C139.032 268.264 139.192 268.198 139.36 268.181C139.528 268.164 139.698 268.195 139.849 268.271C140 268.347 140.126 268.465 140.211 268.611C140.297 268.757 140.339 268.924 140.333 269.093C140.213 272.359 138.829 275.451 136.472 277.716C134.116 279.981 130.971 281.242 127.703 281.231ZM125.043 258.034C123.16 258.509 121.438 259.479 120.056 260.844C118.674 262.209 117.683 263.92 117.185 265.797C116.687 267.675 116.701 269.651 117.226 271.522C117.75 273.392 118.765 275.088 120.166 276.434C121.567 277.779 123.303 278.725 125.193 279.173C127.083 279.621 129.059 279.555 130.914 278.982C132.77 278.409 134.439 277.349 135.747 275.913C137.055 274.477 137.955 272.717 138.353 270.816C137.059 271.479 135.625 271.825 134.171 271.823C131.522 271.739 129.013 270.61 127.195 268.681C125.376 266.752 124.396 264.182 124.468 261.532C124.463 260.342 124.657 259.16 125.043 258.034Z" fill="white" stroke="white" stroke-width="0.5"/>
<defs>
<linearGradient id="paint0_linear_11373_34702" x1="126.999" y1="55.0001" x2="126.999" y2="160.5" gradientUnits="userSpaceOnUse">
<stop offset="0.238123" stop-color="white"/>
<stop offset="1" stop-color="white" stop-opacity="0"/>
</linearGradient>
<linearGradient id="paint1_linear_11373_34702" x1="127.001" y1="233" x2="127.001" y2="151" gradientUnits="userSpaceOnUse">
<stop stop-color="#CACACA"/>
<stop offset="1" stop-color="white" stop-opacity="0"/>
</linearGradient>
<clipPath id="clip0_11373_34702">
<rect width="46.0333" height="46.0333" fill="white" transform="matrix(-0.631597 0.775297 0.775297 0.631597 146.133 113.06)"/>
</clipPath>
<clipPath id="clip1_11373_34702">
<rect width="82" height="73" fill="white" transform="translate(90 137) rotate(-90)"/>
</clipPath>
<clipPath id="clip2_11373_34702">
<rect width="82" height="73" fill="white" transform="translate(164 151) rotate(90)"/>
</clipPath>
</defs>
</svg>
