<svg width="50" height="50" viewBox="0 0 50 50" fill="none" xmlns="http://www.w3.org/2000/svg">
<path d="M25.5202 12.5C25.5202 11.9082 25.1858 11.3671 24.6564 11.1025C24.1271 10.8378 23.4937 10.8949 23.0202 11.25L8.85352 21.875V14.1129C8.85352 13.25 8.15395 12.5504 7.29102 12.5504C6.42808 12.5504 5.72852 13.25 5.72852 14.1129V35.8871C5.72852 36.75 6.42808 37.4496 7.29102 37.4496C8.15395 37.4496 8.85352 36.75 8.85352 35.8871V28.125L23.0202 38.75C23.4937 39.1052 24.1271 39.1623 24.6564 38.8975C25.1858 38.6329 25.5202 38.0919 25.5202 37.5V27.2802L41.8066 38.7765C42.2835 39.1131 42.9083 39.1558 43.4264 38.8873C43.9448 38.6188 44.2702 38.0838 44.2702 37.5V12.5C44.2702 11.9163 43.9448 11.3813 43.4264 11.1127C42.9083 10.8441 42.2835 10.8869 41.8066 11.2235L25.5202 22.7198V12.5Z" fill="url(#paint0_linear_9884_71408)"/>
<defs>
<linearGradient id="paint0_linear_9884_71408" x1="21.8749" y1="25" x2="62.9031" y2="25" gradientUnits="userSpaceOnUse">
<stop stop-color="white"/>
<stop offset="1" stop-color="white" stop-opacity="0"/>
</linearGradient>
</defs>
</svg>
