<svg width="13" height="19" viewBox="0 0 13 19" fill="none" xmlns="http://www.w3.org/2000/svg">
<path d="M7.06934 4.30615C6.91895 4.15576 6.72917 4.08057 6.5 4.08057C6.26367 4.08057 6.07031 4.15576 5.91992 4.30615C5.76953 4.45654 5.69434 4.6499 5.69434 4.88623V10.2573L5.76953 12.5239L4.69531 11.2349L3.41699 9.9458C3.25944 9.78825 3.06966 9.70947 2.84766 9.70947C2.62565 9.70947 2.43945 9.78467 2.28906 9.93506C2.14583 10.0854 2.07422 10.2681 2.07422 10.4829C2.07422 10.7192 2.14583 10.9054 2.28906 11.0415L5.87695 14.6187C6.07747 14.8192 6.28516 14.9194 6.5 14.9194C6.71484 14.9194 6.92253 14.8192 7.12305 14.6187L10.7109 11.0415C10.8542 10.8983 10.9258 10.7121 10.9258 10.4829C10.9258 10.2681 10.8506 10.0854 10.7002 9.93506C10.5498 9.78467 10.3636 9.70947 10.1416 9.70947C9.90527 9.70947 9.71549 9.78825 9.57227 9.9458L8.30469 11.2349L7.21973 12.5347L7.29492 10.2573V4.88623C7.29492 4.6499 7.21973 4.45654 7.06934 4.30615Z" fill="#FAC33D"/>
</svg>
