<svg width="22" height="22" viewBox="0 0 22 22" fill="none" xmlns="http://www.w3.org/2000/svg">
<rect x="0.140625" y="0.285767" width="21.4286" height="21.4286" rx="5.71429" fill="#123ED2"/>
<path d="M17.831 9.47882C17.4028 7.59117 16.3699 6.09496 14.7669 5.02718C13.5985 4.2508 12.2816 3.85718 10.8528 3.85718C10.7689 3.85718 10.6828 3.85718 10.5989 3.86153C9.99641 3.8811 9.40683 3.97461 8.84737 4.14207C7.3562 4.58571 6.12539 5.4295 5.18938 6.64951C4.16944 7.97827 3.67239 9.51362 3.71327 11.2121C3.72403 11.6318 3.77137 12.0493 3.85744 12.4517C4.14147 13.7913 4.75472 14.9613 5.68428 15.9225C7.01622 17.3056 8.67308 18.0494 10.6075 18.1364C10.7043 18.1407 10.8012 18.1429 10.898 18.1429C11.3692 18.1429 11.8512 18.0907 12.3311 17.9863C13.8588 17.6558 15.1542 16.9033 16.1806 15.7507C17.3447 14.4415 17.973 12.8779 17.9967 11.2251C17.9967 10.4944 17.9472 9.9877 17.8331 9.47882H17.831ZM15.3844 6.65821L15.4059 6.67996C15.4404 6.71693 15.4748 6.75173 15.5071 6.7887C15.8535 7.17145 16.1547 7.59987 16.428 8.10005C16.5162 8.2588 16.5614 8.41756 16.5679 8.58501C16.5937 9.27875 16.5356 9.88114 16.3914 10.4248C16.187 11.2055 15.8083 11.9319 15.2661 12.5843C14.7604 13.1932 14.1407 13.7282 13.3704 14.2175C13.3553 14.2262 13.3424 14.2349 13.3252 14.2436C13.2908 14.0436 13.2843 13.8413 13.3058 13.6086C13.3316 13.3389 13.3596 13.0671 13.3854 12.7974C13.4263 12.4038 13.465 12.0102 13.4995 11.6144C13.5382 11.1664 13.564 10.6967 13.5812 10.2182C13.592 9.85505 13.5985 9.49404 13.6028 9.13087C13.6049 8.91557 13.6092 8.6981 13.6114 8.4828C13.6114 8.45453 13.6243 8.41973 13.6415 8.40234C14.1235 7.91737 14.6076 7.43241 15.0896 6.94745L15.3414 6.69518C15.3543 6.68213 15.3672 6.67126 15.3823 6.65821H15.3844ZM12.4494 5.67959C12.3655 5.64479 12.3246 5.59913 12.3009 5.51649C12.2536 5.33164 12.1977 5.14896 12.1417 4.95758L12.0922 4.79013L12.2192 4.82275C12.3526 4.85755 12.4817 4.88799 12.6065 4.92714C13.2434 5.11851 13.7771 5.36426 14.2332 5.67742C14.3193 5.73831 14.3559 5.80137 14.3494 5.89271C14.3408 6.02754 14.3365 6.16455 14.3322 6.30373L14.3279 6.44074L13.9298 6.27981L13.4823 6.09714C13.138 5.95795 12.7937 5.8166 12.4494 5.67959ZM12.2945 6.19717C12.6775 6.35593 13.0605 6.51468 13.4435 6.67126L14.1687 6.9692C14.1923 6.9779 14.2139 6.99094 14.2354 7.00617L13.9019 7.34325C13.9019 7.34325 11.5414 9.70282 11.0787 10.1682C11.0336 10.2139 10.9991 10.2334 10.9625 10.2334C10.9496 10.2334 10.9389 10.2334 10.926 10.2269C10.8722 10.2095 10.8442 10.166 10.8356 10.0899C10.7904 9.68977 10.7431 9.28962 10.6936 8.8873L10.6548 8.55239C10.6161 8.22618 10.5795 7.89998 10.5343 7.57377C10.515 7.42589 10.5494 7.34107 10.6613 7.25843C11.1046 6.9344 11.5285 6.61472 12.0363 6.23197C12.0901 6.19282 12.1374 6.17325 12.1891 6.17325C12.2213 6.17325 12.2579 6.18195 12.2966 6.19717H12.2945ZM13.1251 9.29179L13.1143 9.618C13.1014 9.9964 13.0863 10.3857 13.0605 10.7684C13.0239 11.286 12.9809 11.8058 12.9357 12.3233L12.8884 12.8757C12.8798 12.9779 12.869 13.0802 12.8582 13.1824C12.8281 13.4673 12.798 13.763 12.8174 14.074C12.826 14.2197 12.8346 14.3654 12.8389 14.5111C12.8389 14.5198 12.8281 14.5394 12.8238 14.5437C12.4128 14.7373 11.9997 14.9287 11.5736 15.12L11.5091 14.9896C11.4532 14.8786 11.3972 14.7699 11.3434 14.6568C10.9324 13.813 10.5774 12.8866 10.2568 11.8253C10.2482 11.7971 10.2503 11.7905 10.2697 11.771C10.6785 11.3621 11.0874 10.9533 11.4962 10.5444L12.047 9.99205C12.4064 9.63105 12.7657 9.27222 13.1315 8.90904V8.96776C13.1315 9.0765 13.1337 9.18088 13.1315 9.28745L13.1251 9.29179ZM7.90059 14.1284C8.42562 14.6851 8.83015 15.1374 9.1981 15.5789C9.06685 15.5854 8.93774 15.5898 8.81294 15.5898C8.08134 15.5898 7.42936 15.4789 6.82256 15.2527L7.90059 14.1305V14.1284ZM7.7844 11.8949C8.4622 11.6318 9.14216 11.3643 9.81996 11.099L10.3493 10.8924L7.48961 13.7543V13.75C7.49821 13.6738 7.50467 13.6021 7.51328 13.5325L7.68757 12.0254C7.69618 11.958 7.72415 11.9189 7.78655 11.8949H7.7844ZM8.25563 13.7891L9.84794 12.195C10.1642 13.2563 10.6226 14.2632 11.1067 15.2853C11.1067 15.2853 10.8291 15.3419 10.7366 15.3593L10.4117 15.4201C10.2202 15.4571 10.0287 15.4919 9.83718 15.5311C9.82642 15.5311 9.81566 15.5354 9.80705 15.5354C9.77693 15.5354 9.75971 15.5245 9.7425 15.4984C9.50796 15.107 9.19595 14.7808 8.8904 14.4633C8.73548 14.3023 8.5827 14.1392 8.42778 13.974L8.25563 13.7913V13.7891ZM7.38202 6.94745C7.40354 6.94745 7.42936 6.9518 7.46594 6.95832L9.82427 7.45198C9.93186 7.47373 9.94477 7.48895 9.95552 7.59552C9.98565 7.89998 10.1018 9.0591 10.1018 9.0591L10.2116 10.1291C10.2116 10.1443 10.2137 10.1552 10.2159 10.1595C10.2159 10.2356 10.1858 10.2769 10.1126 10.3074C9.82212 10.4248 9.53163 10.5423 9.24114 10.6597C8.90762 10.7967 7.76503 11.273 7.76503 11.273C7.74782 11.2795 7.72845 11.2882 7.71124 11.2925C7.6682 11.3078 7.63593 11.3186 7.61441 11.3186C7.59074 11.3186 7.57353 11.3034 7.51758 11.236C7.39708 11.0859 7.27443 10.9381 7.15178 10.788L6.96243 10.5597C6.64612 10.1769 6.33196 9.79633 6.0135 9.41358C5.97692 9.37008 5.97692 9.33094 6.01565 9.26352C6.12324 9.07215 6.23083 8.88295 6.33626 8.69157L7.25507 7.04749C7.30456 6.95832 7.33038 6.9431 7.37556 6.9431L7.38202 6.94745ZM5.34861 9.69194H5.37228C5.44328 9.69194 5.49708 9.71587 5.54011 9.77023C5.94464 10.2704 7.06141 11.6427 7.06141 11.6427C7.11305 11.7057 7.13242 11.7797 7.12166 11.8688L7.10659 12.0037C7.08938 12.1646 7.07217 12.3233 7.05495 12.4843L6.89787 13.8804L6.87205 14.087H6.04793C5.90806 14.0827 5.77035 14.0827 5.63049 14.0827C5.55087 14.0827 5.47126 14.0827 5.38734 14.0827C5.30772 14.0827 5.25608 14.0544 5.20659 13.9827C4.93116 13.5738 4.73751 13.1193 4.61701 12.5908C4.4836 12.0124 4.43196 11.41 4.45993 10.7989C4.47069 10.564 4.49651 10.3226 4.52018 10.0899L4.54385 9.87027C4.55246 9.77458 4.58043 9.74849 4.68156 9.74196C4.68156 9.74196 5.21089 9.69847 5.3443 9.68977L5.34861 9.69194ZM6.94736 15.8116C7.45518 15.9704 7.95869 16.0595 8.44714 16.0769C8.55688 16.0813 8.66877 16.0813 8.77851 16.0813C8.9442 16.0813 9.10988 16.0769 9.27557 16.0747H9.42189C9.45416 16.0726 9.45847 16.0747 9.46708 16.1052C9.5639 16.4705 9.42834 16.7946 9.08191 17.0207C9.02596 17.0577 8.97647 17.0729 8.92483 17.0729C8.8904 17.0729 8.85598 17.0664 8.81509 17.0512C7.99312 16.7576 7.24861 16.3009 6.59663 15.6898C6.71497 15.7311 6.83117 15.7725 6.94736 15.8094V15.8116ZM13.0476 14.9939L13.0949 15.0591C13.1358 15.1135 13.1746 15.1679 13.2154 15.2201C13.4737 15.5572 13.8115 15.7333 14.2182 15.7442H14.2504C14.5043 15.7442 14.7475 15.6659 14.9734 15.5811C15.109 15.5289 15.2467 15.4745 15.3866 15.418H15.393L15.2747 15.5332C15.1456 15.6594 15.0186 15.7877 14.8917 15.916C14.5452 16.2683 14.1235 16.5119 13.7943 16.6837C13.592 16.7902 13.379 16.8816 13.1724 16.9707L13.0928 17.0055C13.0476 17.0251 13.0132 17.0338 12.9852 17.0338C12.94 17.0338 12.9013 17.0099 12.841 16.9446C12.4881 16.564 12.1654 16.1248 11.8276 15.5637L13.0498 14.9983L13.0476 14.9939ZM11.4166 4.67487C11.5091 4.68357 11.5328 4.70532 11.5586 4.79883C11.6296 5.06849 11.6985 5.33816 11.7673 5.60782C11.7845 5.67959 11.7759 5.71004 11.7157 5.75353L11.4123 5.9797C11.139 6.18412 10.8657 6.38855 10.5946 6.59515L10.5257 6.64951C10.4225 6.73215 10.3278 6.80827 10.2051 6.84306C10.1535 6.85829 10.0975 6.86699 10.0373 6.87786L9.95552 6.89526L9.41974 6.78217L8.86673 6.66256C8.43208 6.56905 7.99742 6.47336 7.56277 6.37985C7.47024 6.36028 7.40784 6.31461 7.37126 6.24284C7.30886 6.12106 7.24861 5.99057 7.18621 5.84052C7.169 5.7992 7.16254 5.76223 7.25076 5.71439C7.33683 5.66872 7.42075 5.62305 7.50682 5.5752C7.75427 5.44037 8.01249 5.29901 8.2707 5.17941C8.84306 4.91626 9.47353 4.74664 10.1492 4.67487C10.3579 4.65312 10.5709 4.64008 10.7861 4.64008C11.0013 4.64008 11.2057 4.65095 11.4187 4.6727L11.4166 4.67487ZM6.86345 6.51468C6.88711 6.5647 6.87205 6.60819 6.83978 6.66691L5.70795 8.69157C5.6434 8.80683 5.57884 8.91992 5.51644 9.03518C5.48202 9.09825 5.43683 9.12869 5.36367 9.13522C5.19368 9.15261 5.02584 9.17219 4.8537 9.19393L4.69447 9.21351C4.9742 8.07178 5.60467 7.08228 6.67194 6.11236L6.8656 6.51686L6.86345 6.51468ZM6.45031 14.746L6.48689 14.7503L6.15121 15.0939C6.134 15.1113 6.11678 15.1309 6.09742 15.144C6.08236 15.1548 6.06729 15.1614 6.05654 15.1614C6.05008 15.1614 6.03932 15.1614 6.02426 15.144C5.89085 14.983 5.75959 14.8221 5.62834 14.6677C5.90376 14.6938 6.17919 14.7221 6.45246 14.7482L6.45031 14.746ZM9.95983 16.0399C9.95983 16.0399 10.2503 15.9682 10.3407 15.9464L10.6247 15.879C10.827 15.8312 11.0293 15.7855 11.2315 15.7333C11.2487 15.729 11.2659 15.7268 11.281 15.7268C11.3262 15.7268 11.3585 15.7464 11.3929 15.7985L11.4338 15.8573C11.6898 16.2248 11.9438 16.5945 12.2041 16.9598C12.2579 17.0338 12.316 17.1034 12.3784 17.173C12.3913 17.1882 12.4042 17.2012 12.415 17.2165C11.9029 17.3426 11.3886 17.4057 10.8808 17.4057C10.4461 17.4057 10.005 17.36 9.56606 17.2665C9.9297 16.912 10.0588 16.5097 9.95768 16.0399H9.95983ZM14.4376 15.2309C14.3774 15.2396 14.3193 15.244 14.2633 15.244C13.9858 15.244 13.7684 15.1331 13.5963 14.9047L13.4737 14.7416C13.4737 14.7416 13.7039 14.5916 13.7814 14.5416C14.7217 13.9196 15.4425 13.2367 15.9869 12.4517C16.4883 11.7297 16.8175 10.9424 16.9681 10.116C16.981 10.0508 16.9896 9.98336 17.0004 9.91811C17.0068 9.87244 17.0155 9.82678 17.0219 9.78111C17.0348 9.84635 17.0499 9.91376 17.0606 9.97901C17.1532 10.5053 17.179 11.049 17.1338 11.5992C17.0563 12.5343 16.7917 13.4042 16.3441 14.1849C16.329 14.211 16.3075 14.2458 16.2817 14.2632L16.0687 14.4133C15.8578 14.5633 15.6383 14.7199 15.4167 14.8591C15.1047 15.057 14.7755 15.1831 14.4376 15.2353V15.2309ZM14.9412 6.25372C14.9433 6.30373 14.9132 6.33201 14.8594 6.37985V6.17108C14.9132 6.19935 14.939 6.21675 14.9412 6.25372Z" fill="white"/>
</svg>
