<svg width="18" height="18" viewBox="0 0 18 18" fill="none" xmlns="http://www.w3.org/2000/svg">
    <path fill-rule="evenodd" clip-rule="evenodd"
        d="M2.17997 1.19025C1.92753 1.19004 1.67504 1.28641 1.48209 1.47937C1.48166 1.47979 1.48124 1.48022 1.48081 1.48065C1.09642 1.86624 1.09685 2.48857 1.48209 2.87364L7.40826 8.80012L1.48209 14.7266C1.09642 15.1121 1.09642 15.7354 1.48209 16.1209C1.67312 16.3121 1.92395 16.4087 2.17495 16.4098C1.92308 16.4093 1.67117 16.3127 1.47948 16.1209C1.09381 15.7354 1.09381 15.1121 1.47948 14.7266L7.40565 8.80011L1.47948 2.87364C1.09381 2.48814 1.09381 1.86486 1.47948 1.47936C1.47949 1.47935 1.4795 1.47935 1.4795 1.47934C1.67312 1.28573 1.92667 1.18937 2.17997 1.19025ZM8.8012 7.40454L8.80251 7.40584L14.7289 1.47937C14.922 1.2862 15.1749 1.18983 15.4276 1.19025C15.174 1.18916 14.9201 1.28553 14.7262 1.47936L8.8012 7.40454ZM15.4217 16.4098C15.1707 16.4087 14.9201 16.3121 14.7289 16.1209L8.80251 10.1944L8.8012 10.1957L14.7262 16.1209C14.9181 16.3127 15.1699 16.4093 15.4217 16.4098ZM1.34495 3.00816C0.884995 2.54837 0.885027 1.8046 1.34498 1.34481C1.80478 0.885035 2.54829 0.885091 3.00821 1.34481L8.7999 7.13679L14.5917 1.34484C15.0515 0.885053 15.7952 0.885053 16.255 1.34484C16.715 1.80463 16.715 2.54837 16.255 3.00816L10.4634 8.80011L16.255 14.592C16.7149 15.0518 16.7149 15.7956 16.255 16.2554C16.0257 16.4847 15.7243 16.6 15.4234 16.6C15.1224 16.6 14.821 16.4847 14.5917 16.2554L8.7999 10.4634L3.00825 16.2554C2.77892 16.4847 2.47752 16.6 2.1766 16.6C1.87578 16.6 1.57418 16.4848 1.34498 16.2554C0.884995 15.7956 0.885018 15.0518 1.34498 14.592L7.13661 8.80011L1.34495 3.00816Z"
        fill="currentColor" />
    <path
        d="M2.17997 1.19025L2.17955 1.69025L2.1817 0.690253L2.17997 1.19025ZM1.48209 1.47937L1.83557 1.833L1.83565 1.83292L1.48209 1.47937ZM1.48081 1.48065L1.12672 1.12764L1.12671 1.12764L1.48081 1.48065ZM1.48209 2.87364L1.83565 2.5201L1.83556 2.52001L1.48209 2.87364ZM7.40826 8.80012L7.76182 9.15366L8.11535 8.80012L7.76182 8.44657L7.40826 8.80012ZM1.48209 14.7266L1.83556 15.0802L1.83565 15.0801L1.48209 14.7266ZM1.48209 16.1209L1.83581 15.7675L1.83556 15.7672L1.48209 16.1209ZM2.17495 16.4098L2.17411 16.9098L2.1771 15.9098L2.17495 16.4098ZM1.47948 16.1209L1.8332 15.7675L1.83295 15.7672L1.47948 16.1209ZM1.47948 14.7266L1.83295 15.0802L1.83304 15.0801L1.47948 14.7266ZM7.40565 8.80011L7.75921 9.15366L8.11274 8.80011L7.75921 8.44657L7.40565 8.80011ZM1.47948 2.87364L1.83304 2.52009L1.83295 2.52L1.47948 2.87364ZM1.47948 1.47936L1.83295 1.833L1.83303 1.83292L1.47948 1.47936ZM1.4795 1.47934L1.12596 1.12577L1.12595 1.12578L1.4795 1.47934ZM8.80251 7.40584L8.44895 7.7594L8.80251 8.11295L9.15606 7.75939L8.80251 7.40584ZM8.8012 7.40454L8.44764 7.05099L8.09409 7.40454L8.44764 7.75809L8.8012 7.40454ZM14.7289 1.47937L14.3753 1.12582V1.12582L14.7289 1.47937ZM15.4276 1.19025L15.4268 1.69025L15.4298 0.690258L15.4276 1.19025ZM14.7262 1.47936L15.0798 1.83291L15.0798 1.83291L14.7262 1.47936ZM14.7289 16.1209L14.3753 16.4744L14.7289 16.1209ZM15.4217 16.4098L15.4209 16.9098L15.4239 15.9098L15.4217 16.4098ZM8.80251 10.1944L9.15606 9.84084L8.80251 9.48728L8.44895 9.84084L8.80251 10.1944ZM8.8012 10.1957L8.44765 9.84214L8.0941 10.1957L8.44765 10.5492L8.8012 10.1957ZM14.7262 16.1209L14.3727 16.4744L14.7262 16.1209ZM1.34498 1.34481L1.69847 1.69843L1.69853 1.69837L1.34498 1.34481ZM1.34495 3.00816L1.69851 2.65461L1.69844 2.65454L1.34495 3.00816ZM3.00821 1.34481L3.36178 0.991266L3.36169 0.991178L3.00821 1.34481ZM8.7999 7.13679L8.44633 7.49033L8.79989 7.84391L9.15345 7.49034L8.7999 7.13679ZM14.5917 1.34484L14.9453 1.69839L14.9453 1.69839L14.5917 1.34484ZM16.255 1.34484L15.9015 1.69839L15.9015 1.69846L16.255 1.34484ZM16.255 3.00816L15.9015 2.65454L15.9015 2.65461L16.255 3.00816ZM10.4634 8.80011L10.1098 8.44657L9.75627 8.80011L10.1098 9.15366L10.4634 8.80011ZM16.255 14.592L15.9014 14.9456L15.9015 14.9457L16.255 14.592ZM16.255 16.2554L15.9015 15.9018L15.9014 15.9019L16.255 16.2554ZM14.5917 16.2554L14.2382 16.6089V16.6089L14.5917 16.2554ZM8.7999 10.4634L9.15345 10.1099L8.79989 9.75632L8.44633 10.1099L8.7999 10.4634ZM3.00825 16.2554L3.3618 16.6089L3.36181 16.6089L3.00825 16.2554ZM1.34498 16.2554L1.69867 15.902L1.69846 15.9018L1.34498 16.2554ZM1.34498 14.592L1.69847 14.9457L1.69855 14.9456L1.34498 14.592ZM7.13661 8.80011L7.49017 9.15366L7.8437 8.80011L7.49017 8.44657L7.13661 8.80011ZM2.18038 0.69025C1.80024 0.689933 1.41887 0.835476 1.12853 1.12582L1.83565 1.83292C1.93121 1.73735 2.05481 1.69015 2.17955 1.69025L2.18038 0.69025ZM1.12861 1.12574C1.12798 1.12637 1.12735 1.127 1.12672 1.12764L1.83491 1.83365C1.83513 1.83343 1.83535 1.83321 1.83557 1.833L1.12861 1.12574ZM1.12671 1.12764C0.547579 1.70858 0.548222 2.64714 1.12861 3.22727L1.83556 2.52001C1.64548 2.33001 1.64527 2.02389 1.83492 1.83365L1.12671 1.12764ZM1.12853 3.22719L7.0547 9.15366L7.76182 8.44657L1.83565 2.5201L1.12853 3.22719ZM7.0547 8.44657L1.12853 14.373L1.83565 15.0801L7.76182 9.15366L7.0547 8.44657ZM1.12861 14.373C0.547582 14.9537 0.547581 15.8937 1.12861 16.4745L1.83556 15.7672C1.64527 15.577 1.64527 15.2704 1.83556 15.0802L1.12861 14.373ZM1.12837 16.4743C1.41634 16.7625 1.79516 16.9081 2.17279 16.9097L2.1771 15.9098C2.05274 15.9092 1.9299 15.8617 1.83581 15.7675L1.12837 16.4743ZM2.17578 15.9098C2.05098 15.9095 1.92761 15.862 1.8332 15.7675L1.12575 16.4742C1.41473 16.7635 1.79518 16.9091 2.17411 16.9098L2.17578 15.9098ZM1.83295 15.7672C1.64265 15.577 1.64265 15.2704 1.83295 15.0802L1.126 14.373C0.54497 14.9537 0.54497 15.8937 1.126 16.4745L1.83295 15.7672ZM1.83304 15.0801L7.75921 9.15366L7.05209 8.44657L1.12591 14.373L1.83304 15.0801ZM7.75921 8.44657L1.83304 2.52009L1.12591 3.22718L7.05209 9.15366L7.75921 8.44657ZM1.83295 2.52C1.64265 2.32979 1.64265 2.02321 1.83295 1.833L1.126 1.12573C0.54497 1.7065 0.54497 2.6465 1.126 3.22727L1.83295 2.52ZM1.83303 1.83292C1.83303 1.83292 1.83303 1.83292 1.83303 1.83292C1.83303 1.83292 1.83303 1.83292 1.83303 1.83292C1.83303 1.83292 1.83303 1.83292 1.83303 1.83292C1.83303 1.83292 1.83303 1.83292 1.83303 1.83292C1.83303 1.83292 1.83303 1.83292 1.83303 1.83292C1.83303 1.83292 1.83303 1.83292 1.83303 1.83292C1.83303 1.83292 1.83303 1.83292 1.83303 1.83292C1.83303 1.83292 1.83303 1.83292 1.83303 1.83292C1.83303 1.83292 1.83303 1.83292 1.83303 1.83292C1.83303 1.83292 1.83303 1.83292 1.83303 1.83292C1.83303 1.83292 1.83303 1.83292 1.83303 1.83292C1.83303 1.83292 1.83303 1.83292 1.83303 1.83292C1.83303 1.83292 1.83303 1.83292 1.83303 1.83292C1.83303 1.83292 1.83303 1.83292 1.83303 1.83292C1.83303 1.83292 1.83303 1.83292 1.83303 1.83292C1.83303 1.83292 1.83303 1.83292 1.83303 1.83292C1.83303 1.83292 1.83303 1.83292 1.83303 1.83292C1.83303 1.83292 1.83303 1.83292 1.83303 1.83292C1.83303 1.83292 1.83303 1.83292 1.83303 1.83292C1.83303 1.83292 1.83303 1.83292 1.83303 1.83292C1.83303 1.83292 1.83303 1.83292 1.83303 1.83292C1.83303 1.83292 1.83303 1.83292 1.83303 1.83292C1.83303 1.83292 1.83303 1.83292 1.83303 1.83292C1.83303 1.83292 1.83303 1.83292 1.83303 1.83292C1.83303 1.83292 1.83303 1.83292 1.83303 1.83292C1.83303 1.83292 1.83303 1.83292 1.83303 1.83292C1.83303 1.83292 1.83303 1.83292 1.83303 1.83292C1.83303 1.83292 1.83303 1.83292 1.83303 1.83292C1.83303 1.83292 1.83303 1.83292 1.83303 1.83292C1.83303 1.83292 1.83303 1.83292 1.83303 1.83292C1.83303 1.83292 1.83303 1.83292 1.83303 1.83292C1.83303 1.83292 1.83303 1.83292 1.83303 1.83292C1.83303 1.83292 1.83303 1.83292 1.83303 1.83292C1.83303 1.83292 1.83303 1.83292 1.83303 1.83292C1.83303 1.83292 1.83303 1.83292 1.83303 1.83292C1.83303 1.83291 1.83303 1.83291 1.83303 1.83291C1.83303 1.83291 1.83303 1.83291 1.83303 1.83291C1.83303 1.83291 1.83303 1.83291 1.83303 1.83291C1.83303 1.83291 1.83303 1.83291 1.83303 1.83291C1.83303 1.83291 1.83303 1.83291 1.83303 1.83291C1.83303 1.83291 1.83303 1.83291 1.83303 1.83291C1.83303 1.83291 1.83303 1.83291 1.83303 1.83291C1.83303 1.83291 1.83303 1.83291 1.83303 1.83291C1.83303 1.83291 1.83303 1.83291 1.83303 1.83291C1.83303 1.83291 1.83303 1.83291 1.83303 1.83291C1.83303 1.83291 1.83303 1.83291 1.83303 1.83291C1.83303 1.83291 1.83303 1.83291 1.83303 1.83291C1.83303 1.83291 1.83303 1.83291 1.83303 1.83291C1.83303 1.83291 1.83303 1.83291 1.83303 1.83291C1.83303 1.83291 1.83303 1.83291 1.83303 1.83291C1.83303 1.83291 1.83303 1.83291 1.83303 1.83291C1.83303 1.83291 1.83303 1.83291 1.83303 1.83291C1.83303 1.83291 1.83303 1.83291 1.83303 1.83291C1.83303 1.83291 1.83303 1.83291 1.83303 1.83291C1.83303 1.83291 1.83303 1.83291 1.83303 1.83291C1.83303 1.83291 1.83303 1.83291 1.83303 1.83291C1.83303 1.83291 1.83303 1.83291 1.83303 1.83291C1.83303 1.83291 1.83303 1.83291 1.83303 1.83291C1.83303 1.83291 1.83303 1.83291 1.83303 1.83291C1.83303 1.83291 1.83303 1.83291 1.83303 1.83291C1.83303 1.83291 1.83303 1.83291 1.83303 1.83291C1.83303 1.83291 1.83303 1.83291 1.83303 1.83291C1.83303 1.83291 1.83303 1.83291 1.83303 1.83291C1.83303 1.83291 1.83303 1.83291 1.83303 1.83291C1.83303 1.83291 1.83303 1.83291 1.83303 1.83291C1.83303 1.83291 1.83303 1.83291 1.83303 1.83291C1.83303 1.83291 1.83303 1.83291 1.83303 1.83291C1.83303 1.83291 1.83303 1.83291 1.83303 1.83291C1.83303 1.83291 1.83303 1.83291 1.83303 1.83291C1.83303 1.83291 1.83303 1.83291 1.83303 1.83291C1.83303 1.83291 1.83303 1.83291 1.83303 1.83291C1.83303 1.83291 1.83303 1.83291 1.83303 1.83291C1.83303 1.83291 1.83303 1.83291 1.83303 1.83291C1.83303 1.83291 1.83303 1.83291 1.83303 1.83291C1.83303 1.83291 1.83303 1.83291 1.83303 1.83291C1.83303 1.83291 1.83303 1.83291 1.83303 1.83291C1.83303 1.83291 1.83303 1.83291 1.83303 1.83291C1.83303 1.83291 1.83303 1.83291 1.83303 1.83291C1.83303 1.83291 1.83303 1.83291 1.83303 1.83291C1.83303 1.83291 1.83303 1.83291 1.83303 1.83291C1.83303 1.83291 1.83303 1.83291 1.83303 1.83291C1.83303 1.83291 1.83303 1.83291 1.83303 1.83291C1.83303 1.83291 1.83303 1.83291 1.83303 1.83291C1.83303 1.83291 1.83303 1.83291 1.83303 1.83291C1.83303 1.83291 1.83303 1.83291 1.83303 1.83291C1.83303 1.83291 1.83303 1.83291 1.83303 1.83291C1.83303 1.83291 1.83303 1.83291 1.83304 1.83291C1.83304 1.83291 1.83304 1.83291 1.83304 1.83291C1.83304 1.83291 1.83304 1.83291 1.83304 1.83291C1.83304 1.83291 1.83304 1.83291 1.83304 1.83291C1.83304 1.83291 1.83304 1.83291 1.83304 1.83291C1.83304 1.83291 1.83304 1.83291 1.83304 1.83291C1.83304 1.83291 1.83304 1.83291 1.83304 1.83291C1.83304 1.83291 1.83304 1.83291 1.83304 1.83291C1.83304 1.83291 1.83304 1.83291 1.83304 1.83291C1.83304 1.83291 1.83304 1.83291 1.83304 1.83291C1.83304 1.83291 1.83304 1.83291 1.83304 1.83291C1.83304 1.83291 1.83304 1.83291 1.83304 1.83291C1.83304 1.83291 1.83304 1.83291 1.83304 1.83291C1.83304 1.83291 1.83304 1.83291 1.83304 1.83291C1.83304 1.83291 1.83304 1.83291 1.83304 1.83291C1.83304 1.83291 1.83304 1.83291 1.83304 1.83291C1.83304 1.83291 1.83304 1.83291 1.83304 1.83291C1.83304 1.83291 1.83304 1.83291 1.83304 1.83291C1.83304 1.83291 1.83304 1.83291 1.83304 1.83291C1.83304 1.83291 1.83304 1.83291 1.83304 1.83291C1.83304 1.83291 1.83304 1.83291 1.83304 1.83291C1.83304 1.83291 1.83304 1.83291 1.83304 1.83291C1.83304 1.83291 1.83304 1.83291 1.83304 1.83291C1.83304 1.83291 1.83304 1.83291 1.83304 1.83291C1.83304 1.83291 1.83304 1.83291 1.83304 1.83291C1.83304 1.83291 1.83304 1.83291 1.83304 1.83291C1.83304 1.83291 1.83304 1.83291 1.83304 1.83291C1.83304 1.83291 1.83304 1.83291 1.83304 1.83291C1.83304 1.83291 1.83304 1.83291 1.83304 1.83291C1.83304 1.83291 1.83304 1.83291 1.83304 1.83291C1.83304 1.83291 1.83304 1.83291 1.83304 1.83291C1.83304 1.83291 1.83304 1.83291 1.83304 1.83291C1.83304 1.83291 1.83304 1.83291 1.83304 1.83291C1.83304 1.83291 1.83304 1.83291 1.83304 1.83291C1.83304 1.83291 1.83304 1.83291 1.83304 1.83291C1.83304 1.83291 1.83304 1.83291 1.83304 1.83291C1.83304 1.83291 1.83304 1.83291 1.83304 1.83291C1.83304 1.83291 1.83304 1.83291 1.83304 1.83291C1.83304 1.83291 1.83304 1.83291 1.83304 1.83291C1.83304 1.83291 1.83304 1.83291 1.83304 1.83291C1.83304 1.83291 1.83304 1.83291 1.83304 1.83291C1.83304 1.83291 1.83304 1.83291 1.83304 1.83291C1.83304 1.83291 1.83304 1.83291 1.83304 1.83291C1.83304 1.83291 1.83304 1.83291 1.83304 1.83291C1.83304 1.83291 1.83304 1.83291 1.83304 1.83291C1.83304 1.83291 1.83304 1.83291 1.83304 1.83291C1.83304 1.83291 1.83304 1.83291 1.83304 1.83291C1.83304 1.83291 1.83304 1.83291 1.83304 1.83291C1.83304 1.83291 1.83304 1.83291 1.83304 1.83291C1.83304 1.83291 1.83304 1.83291 1.83304 1.83291C1.83304 1.83291 1.83304 1.83291 1.83304 1.83291C1.83304 1.83291 1.83304 1.83291 1.83304 1.83291C1.83304 1.83291 1.83304 1.83291 1.83304 1.83291C1.83304 1.83291 1.83304 1.83291 1.83304 1.83291C1.83304 1.83291 1.83304 1.83291 1.83304 1.83291C1.83304 1.83291 1.83304 1.83291 1.83304 1.83291C1.83304 1.83291 1.83304 1.83291 1.83304 1.83291C1.83304 1.83291 1.83304 1.83291 1.83304 1.83291C1.83304 1.83291 1.83304 1.83291 1.83304 1.83291C1.83304 1.83291 1.83304 1.83291 1.83304 1.83291C1.83304 1.83291 1.83304 1.83291 1.83304 1.83291C1.83304 1.83291 1.83304 1.83291 1.83304 1.83291C1.83304 1.83291 1.83304 1.83291 1.83304 1.83291C1.83304 1.83291 1.83304 1.83291 1.83304 1.83291C1.83304 1.83291 1.83304 1.83291 1.83304 1.83291C1.83304 1.83291 1.83304 1.83291 1.83304 1.83291C1.83304 1.83291 1.83304 1.83291 1.83304 1.83291C1.83304 1.83291 1.83304 1.83291 1.83304 1.83291C1.83304 1.83291 1.83304 1.83291 1.83304 1.83291C1.83304 1.83291 1.83304 1.83291 1.83304 1.83291C1.83304 1.83291 1.83304 1.83291 1.83304 1.83291C1.83304 1.83291 1.83304 1.83291 1.83304 1.83291C1.83304 1.83291 1.83304 1.83291 1.83304 1.83291C1.83304 1.83291 1.83304 1.83291 1.83304 1.83291C1.83304 1.83291 1.83304 1.83291 1.83304 1.83291C1.83304 1.83291 1.83304 1.83291 1.83304 1.83291C1.83304 1.83291 1.83304 1.83291 1.83304 1.83291C1.83304 1.83291 1.83304 1.83291 1.83304 1.83291C1.83304 1.83291 1.83304 1.83291 1.83304 1.83291C1.83304 1.83291 1.83304 1.83291 1.83304 1.83291C1.83304 1.83291 1.83304 1.83291 1.83304 1.83291C1.83304 1.83291 1.83304 1.83291 1.83304 1.83291C1.83304 1.83291 1.83304 1.83291 1.83304 1.83291C1.83304 1.83291 1.83304 1.83291 1.83304 1.83291C1.83304 1.83291 1.83304 1.83291 1.83304 1.83291C1.83304 1.83291 1.83304 1.83291 1.83304 1.83291C1.83304 1.83291 1.83304 1.83291 1.83304 1.83291C1.83304 1.83291 1.83304 1.83291 1.83304 1.83291C1.83304 1.83291 1.83304 1.83291 1.83304 1.83291C1.83304 1.83291 1.83304 1.83291 1.83304 1.83291C1.83304 1.83291 1.83304 1.83291 1.83304 1.83291C1.83304 1.83291 1.83304 1.83291 1.83304 1.83291C1.83304 1.83291 1.83304 1.83291 1.83304 1.83291C1.83304 1.83291 1.83304 1.83291 1.83304 1.83291C1.83304 1.83291 1.83304 1.83291 1.83304 1.83291C1.83304 1.83291 1.83304 1.83291 1.83304 1.83291C1.83304 1.83291 1.83304 1.83291 1.83304 1.83291C1.83304 1.83291 1.83304 1.83291 1.83304 1.83291C1.83304 1.83291 1.83304 1.83291 1.83304 1.83291C1.83304 1.83291 1.83304 1.83291 1.83304 1.83291C1.83304 1.83291 1.83304 1.83291 1.83304 1.83291C1.83304 1.83291 1.83304 1.83291 1.83304 1.83291C1.83304 1.83291 1.83304 1.83291 1.83304 1.83291C1.83304 1.83291 1.83304 1.83291 1.83304 1.83291C1.83304 1.83291 1.83304 1.83291 1.83304 1.83291C1.83304 1.83291 1.83304 1.83291 1.83304 1.83291C1.83304 1.83291 1.83304 1.83291 1.83304 1.83291C1.83304 1.83291 1.83304 1.83291 1.83304 1.83291C1.83304 1.83291 1.83304 1.83291 1.83304 1.83291C1.83304 1.83291 1.83304 1.83291 1.83304 1.83291C1.83304 1.83291 1.83304 1.83291 1.83304 1.83291C1.83304 1.83291 1.83304 1.83291 1.83304 1.83291C1.83304 1.83291 1.83304 1.83291 1.83304 1.83291C1.83304 1.83291 1.83304 1.83291 1.83304 1.83291C1.83304 1.83291 1.83304 1.83291 1.83304 1.83291C1.83304 1.83291 1.83304 1.83291 1.83304 1.83291C1.83304 1.83291 1.83304 1.83291 1.83304 1.83291C1.83304 1.83291 1.83304 1.83291 1.83304 1.83291C1.83304 1.83291 1.83304 1.83291 1.83304 1.83291C1.83304 1.83291 1.83304 1.83291 1.83304 1.83291C1.83304 1.83291 1.83304 1.83291 1.83304 1.83291C1.83304 1.83291 1.83304 1.83291 1.83304 1.83291C1.83304 1.83291 1.83304 1.83291 1.83304 1.83291C1.83304 1.83291 1.83304 1.83291 1.83304 1.83291C1.83304 1.83291 1.83304 1.83291 1.83304 1.83291C1.83304 1.83291 1.83304 1.83291 1.83304 1.83291C1.83304 1.83291 1.83304 1.83291 1.83304 1.83291C1.83304 1.83291 1.83304 1.83291 1.83304 1.83291C1.83304 1.83291 1.83304 1.83291 1.83304 1.83291C1.83304 1.83291 1.83304 1.83291 1.83304 1.83291C1.83304 1.83291 1.83304 1.83291 1.83304 1.83291C1.83304 1.83291 1.83304 1.83291 1.83304 1.83291C1.83304 1.83291 1.83304 1.83291 1.83304 1.83291C1.83304 1.83291 1.83304 1.83291 1.83304 1.83291C1.83304 1.83291 1.83304 1.83291 1.83304 1.83291C1.83304 1.8329 1.83304 1.8329 1.83304 1.8329C1.83304 1.8329 1.83304 1.8329 1.83304 1.8329C1.83304 1.8329 1.83304 1.8329 1.83304 1.8329C1.83304 1.8329 1.83304 1.8329 1.83304 1.8329C1.83304 1.8329 1.83304 1.8329 1.83304 1.8329C1.83304 1.8329 1.83304 1.8329 1.83304 1.8329C1.83304 1.8329 1.83304 1.8329 1.83304 1.8329C1.83304 1.8329 1.83304 1.8329 1.83304 1.8329C1.83304 1.8329 1.83304 1.8329 1.83304 1.8329C1.83304 1.8329 1.83304 1.8329 1.83304 1.8329L1.83304 1.8329C1.83304 1.8329 1.83304 1.8329 1.83304 1.8329C1.83304 1.8329 1.83304 1.8329 1.83304 1.8329C1.83304 1.8329 1.83304 1.8329 1.83304 1.8329C1.83304 1.8329 1.83304 1.8329 1.83304 1.8329C1.83304 1.8329 1.83304 1.8329 1.83304 1.8329C1.83304 1.8329 1.83304 1.8329 1.83304 1.8329C1.83304 1.8329 1.83304 1.8329 1.83304 1.8329C1.83304 1.8329 1.83304 1.8329 1.83304 1.8329C1.83304 1.8329 1.83304 1.8329 1.83304 1.8329C1.83304 1.8329 1.83304 1.8329 1.83304 1.8329C1.83304 1.8329 1.83304 1.8329 1.83304 1.8329C1.83304 1.8329 1.83304 1.8329 1.83304 1.8329C1.83304 1.8329 1.83304 1.8329 1.83304 1.8329C1.83304 1.8329 1.83304 1.8329 1.83304 1.8329C1.83304 1.8329 1.83304 1.8329 1.83304 1.8329C1.83304 1.8329 1.83304 1.8329 1.83304 1.8329C1.83304 1.8329 1.83304 1.8329 1.83304 1.8329C1.83304 1.8329 1.83304 1.8329 1.83304 1.8329C1.83304 1.8329 1.83304 1.8329 1.83304 1.8329C1.83304 1.8329 1.83304 1.8329 1.83304 1.8329C1.83304 1.8329 1.83304 1.8329 1.83304 1.8329C1.83304 1.8329 1.83304 1.8329 1.83304 1.8329C1.83304 1.8329 1.83304 1.8329 1.83304 1.8329C1.83304 1.8329 1.83304 1.8329 1.83304 1.8329C1.83304 1.8329 1.83304 1.8329 1.83304 1.8329C1.83304 1.8329 1.83304 1.8329 1.83304 1.8329C1.83304 1.8329 1.83304 1.8329 1.83304 1.8329C1.83304 1.8329 1.83304 1.8329 1.83304 1.8329C1.83304 1.8329 1.83304 1.8329 1.83304 1.8329C1.83304 1.8329 1.83304 1.8329 1.83304 1.8329C1.83304 1.8329 1.83304 1.8329 1.83304 1.8329C1.83304 1.8329 1.83304 1.8329 1.83304 1.8329C1.83304 1.8329 1.83304 1.8329 1.83304 1.8329C1.83304 1.8329 1.83304 1.8329 1.83304 1.8329C1.83304 1.8329 1.83304 1.8329 1.83304 1.8329C1.83304 1.8329 1.83304 1.8329 1.83304 1.8329C1.83304 1.8329 1.83304 1.8329 1.83304 1.8329C1.83304 1.8329 1.83304 1.8329 1.83304 1.8329C1.83304 1.8329 1.83304 1.8329 1.83304 1.8329C1.83304 1.8329 1.83304 1.8329 1.83304 1.8329C1.83304 1.8329 1.83304 1.8329 1.83305 1.8329C1.83305 1.8329 1.83305 1.8329 1.83305 1.8329C1.83305 1.8329 1.83305 1.8329 1.83305 1.8329C1.83305 1.8329 1.83305 1.8329 1.83305 1.8329C1.83305 1.8329 1.83305 1.8329 1.83305 1.8329C1.83305 1.8329 1.83305 1.8329 1.83305 1.8329C1.83305 1.8329 1.83305 1.8329 1.83305 1.8329C1.83305 1.8329 1.83305 1.8329 1.83305 1.8329L1.83305 1.8329C1.83305 1.8329 1.83305 1.8329 1.83305 1.8329C1.83305 1.8329 1.83305 1.8329 1.83305 1.8329C1.83305 1.8329 1.83305 1.8329 1.83305 1.8329C1.83305 1.8329 1.83305 1.8329 1.83305 1.8329C1.83305 1.8329 1.83305 1.8329 1.83305 1.8329C1.83305 1.8329 1.83305 1.8329 1.83305 1.8329C1.83305 1.8329 1.83305 1.8329 1.83305 1.8329C1.83305 1.8329 1.83305 1.8329 1.83305 1.8329C1.83305 1.8329 1.83305 1.8329 1.83305 1.8329C1.83305 1.8329 1.83305 1.8329 1.83305 1.8329C1.83305 1.8329 1.83305 1.8329 1.83305 1.8329C1.83305 1.8329 1.83305 1.8329 1.83305 1.8329C1.83305 1.8329 1.83305 1.8329 1.83305 1.8329C1.83305 1.8329 1.83305 1.8329 1.83305 1.8329C1.83305 1.8329 1.83305 1.8329 1.83305 1.8329C1.83305 1.8329 1.83305 1.8329 1.83305 1.8329C1.83305 1.8329 1.83305 1.8329 1.83305 1.8329C1.83305 1.8329 1.83305 1.8329 1.83305 1.8329C1.83305 1.8329 1.83305 1.8329 1.83305 1.8329C1.83305 1.8329 1.83305 1.8329 1.83305 1.8329C1.83305 1.8329 1.83305 1.8329 1.83305 1.8329C1.83305 1.8329 1.83305 1.8329 1.83305 1.8329C1.83305 1.8329 1.83305 1.8329 1.83305 1.8329C1.83305 1.8329 1.83305 1.8329 1.83305 1.8329C1.83305 1.8329 1.83305 1.8329 1.83305 1.8329C1.83305 1.8329 1.83305 1.8329 1.83305 1.8329C1.83305 1.8329 1.83305 1.8329 1.83305 1.8329C1.83305 1.8329 1.83305 1.8329 1.83305 1.8329C1.83305 1.8329 1.83305 1.8329 1.83305 1.8329C1.83305 1.8329 1.83305 1.8329 1.83305 1.8329C1.83305 1.8329 1.83305 1.8329 1.83305 1.8329C1.83305 1.8329 1.83305 1.8329 1.83305 1.8329C1.83305 1.8329 1.83305 1.8329 1.83305 1.8329C1.83305 1.8329 1.83305 1.8329 1.83305 1.8329C1.83305 1.8329 1.83305 1.8329 1.83305 1.8329C1.83305 1.8329 1.83305 1.8329 1.83305 1.8329C1.83305 1.8329 1.83305 1.8329 1.83305 1.8329C1.83305 1.8329 1.83305 1.8329 1.83305 1.8329C1.83305 1.8329 1.83305 1.8329 1.83305 1.8329C1.83305 1.8329 1.83305 1.8329 1.83305 1.8329C1.83305 1.8329 1.83305 1.8329 1.83305 1.8329C1.83305 1.8329 1.83305 1.8329 1.83305 1.8329C1.83305 1.8329 1.83305 1.8329 1.83305 1.8329C1.83305 1.8329 1.83305 1.8329 1.83305 1.8329C1.83305 1.8329 1.83305 1.8329 1.83305 1.8329C1.83305 1.8329 1.83305 1.8329 1.83305 1.8329C1.83305 1.8329 1.83305 1.8329 1.83305 1.8329C1.83305 1.8329 1.83305 1.8329 1.83305 1.8329C1.83305 1.8329 1.83305 1.8329 1.83305 1.8329C1.83305 1.8329 1.83305 1.8329 1.83305 1.8329C1.83305 1.8329 1.83305 1.8329 1.83305 1.8329C1.83305 1.8329 1.83305 1.8329 1.83305 1.8329C1.83305 1.8329 1.83305 1.8329 1.83305 1.8329C1.83305 1.8329 1.83305 1.8329 1.83305 1.8329C1.83305 1.8329 1.83305 1.8329 1.83305 1.8329C1.83305 1.8329 1.83305 1.8329 1.83305 1.8329C1.83305 1.8329 1.83305 1.8329 1.83305 1.8329C1.83305 1.8329 1.83305 1.8329 1.83305 1.8329C1.83305 1.8329 1.83305 1.8329 1.83305 1.8329C1.83305 1.8329 1.83305 1.8329 1.83305 1.8329C1.83305 1.8329 1.83305 1.8329 1.83305 1.8329C1.83305 1.8329 1.83305 1.8329 1.83305 1.8329C1.83305 1.8329 1.83305 1.8329 1.83305 1.8329C1.83305 1.8329 1.83305 1.8329 1.83305 1.8329C1.83305 1.8329 1.83305 1.8329 1.83305 1.8329C1.83305 1.8329 1.83305 1.8329 1.83305 1.8329C1.83305 1.8329 1.83305 1.8329 1.83305 1.8329C1.83305 1.8329 1.83305 1.8329 1.83305 1.8329C1.83305 1.8329 1.83305 1.8329 1.83305 1.8329C1.83305 1.8329 1.83305 1.8329 1.83305 1.8329C1.83305 1.8329 1.83305 1.8329 1.83305 1.8329C1.83305 1.8329 1.83305 1.8329 1.83305 1.8329C1.83305 1.8329 1.83305 1.8329 1.83305 1.8329C1.83305 1.8329 1.83305 1.8329 1.83305 1.8329C1.83305 1.8329 1.83305 1.8329 1.83305 1.8329C1.83305 1.8329 1.83305 1.8329 1.83305 1.8329C1.83305 1.8329 1.83305 1.8329 1.83305 1.8329C1.83305 1.8329 1.83305 1.8329 1.83305 1.8329C1.83305 1.8329 1.83305 1.8329 1.83305 1.8329C1.83305 1.8329 1.83305 1.8329 1.83305 1.8329C1.83305 1.8329 1.83305 1.8329 1.83305 1.8329C1.83305 1.8329 1.83305 1.8329 1.83305 1.8329C1.83305 1.8329 1.83305 1.8329 1.83305 1.8329C1.83305 1.8329 1.83305 1.8329 1.83305 1.8329C1.83305 1.8329 1.83305 1.8329 1.83305 1.8329C1.83305 1.8329 1.83305 1.8329 1.83305 1.8329C1.83305 1.8329 1.83305 1.8329 1.83305 1.8329C1.83305 1.8329 1.83305 1.8329 1.83305 1.8329C1.83305 1.8329 1.83305 1.8329 1.83305 1.8329C1.83305 1.8329 1.83305 1.8329 1.83305 1.8329C1.83305 1.8329 1.83305 1.8329 1.83305 1.8329C1.83305 1.8329 1.83305 1.8329 1.83305 1.8329C1.83305 1.8329 1.83305 1.8329 1.83305 1.8329C1.83305 1.8329 1.83305 1.8329 1.83305 1.8329C1.83305 1.8329 1.83305 1.8329 1.83305 1.8329C1.83305 1.8329 1.83305 1.8329 1.83305 1.8329C1.83305 1.8329 1.83305 1.8329 1.83305 1.8329C1.83305 1.8329 1.83305 1.8329 1.83305 1.8329C1.83305 1.8329 1.83305 1.8329 1.83305 1.8329C1.83305 1.8329 1.83305 1.8329 1.83305 1.8329C1.83305 1.8329 1.83305 1.8329 1.83305 1.8329C1.83305 1.8329 1.83305 1.8329 1.83305 1.8329C1.83305 1.8329 1.83305 1.8329 1.83305 1.8329C1.83305 1.8329 1.83305 1.8329 1.83305 1.8329C1.83305 1.8329 1.83305 1.8329 1.83305 1.8329C1.83305 1.8329 1.83305 1.8329 1.83305 1.8329C1.83305 1.8329 1.83305 1.8329 1.83305 1.8329C1.83305 1.8329 1.83305 1.8329 1.83305 1.8329C1.83305 1.8329 1.83305 1.8329 1.83305 1.8329C1.83305 1.8329 1.83305 1.8329 1.83305 1.8329C1.83305 1.8329 1.83305 1.8329 1.83305 1.8329C1.83305 1.8329 1.83305 1.8329 1.83305 1.8329C1.83305 1.8329 1.83305 1.8329 1.83305 1.8329C1.83305 1.8329 1.83305 1.8329 1.83305 1.8329C1.83305 1.8329 1.83305 1.8329 1.83305 1.8329C1.83305 1.8329 1.83305 1.8329 1.83305 1.8329C1.83305 1.8329 1.83305 1.8329 1.83305 1.8329C1.83305 1.8329 1.83305 1.8329 1.83305 1.8329C1.83305 1.8329 1.83305 1.8329 1.83305 1.8329C1.83305 1.8329 1.83305 1.8329 1.83305 1.8329C1.83305 1.8329 1.83305 1.8329 1.83305 1.8329C1.83305 1.8329 1.83305 1.8329 1.83305 1.8329C1.83305 1.8329 1.83305 1.8329 1.83305 1.8329C1.83305 1.8329 1.83305 1.8329 1.83305 1.8329C1.83305 1.8329 1.83305 1.8329 1.83305 1.8329C1.83305 1.8329 1.83305 1.8329 1.83305 1.8329C1.83305 1.8329 1.83305 1.8329 1.83305 1.8329C1.83305 1.8329 1.83305 1.83289 1.83305 1.83289C1.83305 1.83289 1.83305 1.83289 1.83305 1.83289C1.83305 1.83289 1.83305 1.83289 1.83305 1.83289C1.83305 1.83289 1.83305 1.83289 1.83305 1.83289C1.83305 1.83289 1.83305 1.83289 1.83305 1.83289C1.83305 1.83289 1.83305 1.83289 1.83305 1.83289C1.83305 1.83289 1.83305 1.83289 1.83305 1.83289C1.83305 1.83289 1.83305 1.83289 1.83305 1.83289C1.83305 1.83289 1.83305 1.83289 1.83305 1.83289C1.83305 1.83289 1.83305 1.83289 1.83305 1.83289C1.83305 1.83289 1.83305 1.83289 1.83305 1.83289C1.83305 1.83289 1.83305 1.83289 1.83305 1.83289C1.83305 1.83289 1.83305 1.83289 1.83305 1.83289C1.83305 1.83289 1.83305 1.83289 1.83305 1.83289C1.83305 1.83289 1.83305 1.83289 1.83305 1.83289C1.83305 1.83289 1.83305 1.83289 1.83305 1.83289C1.83305 1.83289 1.83305 1.83289 1.83305 1.83289C1.83305 1.83289 1.83305 1.83289 1.83305 1.83289C1.83305 1.83289 1.83305 1.83289 1.83305 1.83289C1.83305 1.83289 1.83305 1.83289 1.83305 1.83289C1.83305 1.83289 1.83305 1.83289 1.83305 1.83289C1.83305 1.83289 1.83305 1.83289 1.83305 1.83289C1.83305 1.83289 1.83305 1.83289 1.83305 1.83289C1.83305 1.83289 1.83305 1.83289 1.83305 1.83289C1.83305 1.83289 1.83305 1.83289 1.83305 1.83289C1.83305 1.83289 1.83305 1.83289 1.83305 1.83289C1.83305 1.83289 1.83305 1.83289 1.83305 1.83289C1.83305 1.83289 1.83305 1.83289 1.83305 1.83289C1.83305 1.83289 1.83305 1.83289 1.83305 1.83289C1.83305 1.83289 1.83305 1.83289 1.83305 1.83289C1.83305 1.83289 1.83305 1.83289 1.83305 1.83289C1.83305 1.83289 1.83305 1.83289 1.83305 1.83289C1.83305 1.83289 1.83305 1.83289 1.83305 1.83289C1.83305 1.83289 1.83305 1.83289 1.83305 1.83289C1.83305 1.83289 1.83305 1.83289 1.83305 1.83289C1.83305 1.83289 1.83305 1.83289 1.83305 1.83289C1.83305 1.83289 1.83305 1.83289 1.83305 1.83289C1.83305 1.83289 1.83305 1.83289 1.83305 1.83289C1.83305 1.83289 1.83305 1.83289 1.83305 1.83289C1.83305 1.83289 1.83305 1.83289 1.83305 1.83289C1.83305 1.83289 1.83305 1.83289 1.83305 1.83289C1.83305 1.83289 1.83305 1.83289 1.83305 1.83289C1.83305 1.83289 1.83305 1.83289 1.83305 1.83289C1.83305 1.83289 1.83305 1.83289 1.83305 1.83289C1.83305 1.83289 1.83305 1.83289 1.83305 1.83289C1.83305 1.83289 1.83305 1.83289 1.83305 1.83289C1.83305 1.83289 1.83305 1.83289 1.83305 1.83289C1.83305 1.83289 1.83305 1.83289 1.83305 1.83289C1.83305 1.83289 1.83305 1.83289 1.83305 1.83289C1.83305 1.83289 1.83305 1.83289 1.83305 1.83289C1.83305 1.83289 1.83305 1.83289 1.83305 1.83289C1.83305 1.83289 1.83305 1.83289 1.83305 1.83289C1.83306 1.83289 1.83306 1.83289 1.83306 1.83289C1.83306 1.83289 1.83306 1.83289 1.83306 1.83289C1.83306 1.83289 1.83306 1.83289 1.83306 1.83289C1.83306 1.83289 1.83306 1.83289 1.83306 1.83289C1.83306 1.83289 1.83306 1.83289 1.83306 1.83289C1.83306 1.83289 1.83306 1.83289 1.83306 1.83289C1.83306 1.83289 1.83306 1.83289 1.83306 1.83289C1.83306 1.83289 1.83306 1.83289 1.83306 1.83289C1.83306 1.83289 1.83306 1.83289 1.83306 1.83289C1.83306 1.83289 1.83306 1.83289 1.83306 1.83289C1.83306 1.83289 1.83306 1.83289 1.83306 1.83289C1.83306 1.83289 1.83306 1.83289 1.83306 1.83289C1.83306 1.83289 1.83306 1.83289 1.83306 1.83289C1.83306 1.83289 1.83306 1.83289 1.83306 1.83289C1.83306 1.83289 1.83306 1.83289 1.83306 1.83289C1.83306 1.83289 1.83306 1.83289 1.83306 1.83289C1.83306 1.83289 1.83306 1.83289 1.83306 1.83289C1.83306 1.83289 1.83306 1.83289 1.83306 1.83289C1.83306 1.83289 1.83306 1.83289 1.83306 1.83289C1.83306 1.83289 1.83306 1.83289 1.83306 1.83289C1.83306 1.83289 1.83306 1.83289 1.83306 1.83289C1.83306 1.83289 1.83306 1.83289 1.83306 1.83289C1.83306 1.83289 1.83306 1.83289 1.83306 1.83289C1.83306 1.83289 1.83306 1.83289 1.83306 1.83289C1.83306 1.83289 1.83306 1.83289 1.83306 1.83289C1.83306 1.83289 1.83306 1.83289 1.83306 1.83289C1.83306 1.83289 1.83306 1.83289 1.83306 1.83289C1.83306 1.83289 1.83306 1.83289 1.83306 1.83289C1.83306 1.83289 1.83306 1.83289 1.83306 1.83289C1.83306 1.83289 1.83306 1.83289 1.83306 1.83289C1.83306 1.83289 1.83306 1.83289 1.83306 1.83289C1.83306 1.83289 1.83306 1.83289 1.83306 1.83289C1.83306 1.83289 1.83306 1.83289 1.83306 1.83289C1.83306 1.83289 1.83306 1.83289 1.83306 1.83289C1.83306 1.83289 1.83306 1.83289 1.83306 1.83289C1.83306 1.83289 1.83306 1.83289 1.83306 1.83289C1.83306 1.83289 1.83306 1.83289 1.83306 1.83289C1.83306 1.83289 1.83306 1.83289 1.83306 1.83289C1.83306 1.83289 1.83306 1.83289 1.83306 1.83289C1.83306 1.83289 1.83306 1.83289 1.83306 1.83289C1.83306 1.83289 1.83306 1.83289 1.83306 1.83289C1.83306 1.83289 1.83306 1.83289 1.83306 1.83289C1.83306 1.83289 1.83306 1.83289 1.83306 1.83289C1.83306 1.83289 1.83306 1.83289 1.83306 1.83289C1.83306 1.83289 1.83306 1.83289 1.83306 1.83289C1.83306 1.83289 1.83306 1.83289 1.83306 1.83289C1.83306 1.83289 1.83306 1.83289 1.83306 1.83289C1.83306 1.83289 1.83306 1.83289 1.83306 1.83289C1.83306 1.83289 1.83306 1.83289 1.83306 1.83289C1.83306 1.83289 1.83306 1.83289 1.83306 1.83289C1.83306 1.83289 1.83306 1.83289 1.83306 1.83289C1.83306 1.83289 1.83306 1.83289 1.83306 1.83289L1.12595 1.12578C1.12595 1.12578 1.12595 1.12578 1.12595 1.12578C1.12595 1.12578 1.12595 1.12578 1.12595 1.12578C1.12595 1.12578 1.12595 1.12578 1.12595 1.12578C1.12595 1.12578 1.12595 1.12578 1.12595 1.12578C1.12595 1.12578 1.12595 1.12578 1.12595 1.12578C1.12595 1.12578 1.12595 1.12578 1.12595 1.12578C1.12595 1.12578 1.12595 1.12578 1.12595 1.12578C1.12595 1.12578 1.12595 1.12578 1.12595 1.12578C1.12595 1.12578 1.12595 1.12578 1.12595 1.12578C1.12595 1.12578 1.12595 1.12578 1.12595 1.12578C1.12595 1.12578 1.12595 1.12578 1.12595 1.12578C1.12595 1.12578 1.12595 1.12578 1.12595 1.12578C1.12595 1.12578 1.12595 1.12578 1.12595 1.12578C1.12595 1.12578 1.12595 1.12578 1.12595 1.12578C1.12595 1.12578 1.12595 1.12578 1.12595 1.12578C1.12595 1.12578 1.12595 1.12578 1.12595 1.12578C1.12595 1.12578 1.12595 1.12578 1.12595 1.12578C1.12595 1.12578 1.12595 1.12578 1.12595 1.12578C1.12595 1.12578 1.12595 1.12578 1.12595 1.12578C1.12595 1.12578 1.12595 1.12578 1.12595 1.12578C1.12595 1.12578 1.12595 1.12578 1.12595 1.12578C1.12595 1.12578 1.12595 1.12578 1.12595 1.12578C1.12595 1.12578 1.12595 1.12578 1.12595 1.12578C1.12595 1.12578 1.12595 1.12578 1.12595 1.12578C1.12595 1.12578 1.12595 1.12578 1.12595 1.12578C1.12595 1.12578 1.12595 1.12578 1.12595 1.12578C1.12595 1.12578 1.12595 1.12578 1.12595 1.12578C1.12595 1.12578 1.12595 1.12578 1.12595 1.12578C1.12595 1.12578 1.12595 1.12578 1.12595 1.12578C1.12595 1.12578 1.12595 1.12578 1.12595 1.12578C1.12595 1.12578 1.12595 1.12578 1.12595 1.12578C1.12595 1.12578 1.12595 1.12578 1.12595 1.12578C1.12595 1.12578 1.12595 1.12578 1.12595 1.12578C1.12595 1.12578 1.12595 1.12578 1.12595 1.12578C1.12595 1.12578 1.12595 1.12578 1.12595 1.12578C1.12595 1.12578 1.12595 1.12578 1.12595 1.12578C1.12595 1.12578 1.12595 1.12578 1.12595 1.12578C1.12595 1.12578 1.12595 1.12578 1.12595 1.12578C1.12595 1.12578 1.12595 1.12578 1.12595 1.12578C1.12595 1.12578 1.12595 1.12578 1.12595 1.12578C1.12595 1.12578 1.12595 1.12578 1.12595 1.12578C1.12595 1.12578 1.12595 1.12578 1.12595 1.12578C1.12595 1.12578 1.12595 1.12578 1.12595 1.12578C1.12595 1.12579 1.12595 1.12579 1.12595 1.12579C1.12595 1.12579 1.12595 1.12579 1.12595 1.12579C1.12595 1.12579 1.12595 1.12579 1.12595 1.12579C1.12595 1.12579 1.12595 1.12579 1.12595 1.12579C1.12595 1.12579 1.12595 1.12579 1.12595 1.12579C1.12595 1.12579 1.12595 1.12579 1.12595 1.12579C1.12595 1.12579 1.12595 1.12579 1.12595 1.12579C1.12595 1.12579 1.12595 1.12579 1.12595 1.12579C1.12595 1.12579 1.12595 1.12579 1.12595 1.12579C1.12595 1.12579 1.12595 1.12579 1.12595 1.12579C1.12595 1.12579 1.12595 1.12579 1.12595 1.12579C1.12595 1.12579 1.12595 1.12579 1.12595 1.12579C1.12595 1.12579 1.12595 1.12579 1.12595 1.12579C1.12595 1.12579 1.12595 1.12579 1.12595 1.12579C1.12595 1.12579 1.12595 1.12579 1.12595 1.12579C1.12595 1.12579 1.12595 1.12579 1.12595 1.12579C1.12595 1.12579 1.12595 1.12579 1.12595 1.12579C1.12595 1.12579 1.12595 1.12579 1.12595 1.12579C1.12595 1.12579 1.12595 1.12579 1.12595 1.12579C1.12595 1.12579 1.12595 1.12579 1.12595 1.12579C1.12595 1.12579 1.12595 1.12579 1.12595 1.12579C1.12595 1.12579 1.12595 1.12579 1.12595 1.12579C1.12595 1.12579 1.12595 1.12579 1.12595 1.12579C1.12595 1.12579 1.12595 1.12579 1.12595 1.12579C1.12595 1.12579 1.12595 1.12579 1.12595 1.12579C1.12595 1.12579 1.12595 1.12579 1.12595 1.12579C1.12595 1.12579 1.12595 1.12579 1.12595 1.12579C1.12595 1.12579 1.12595 1.12579 1.12595 1.12579C1.12595 1.12579 1.12595 1.12579 1.12595 1.12579C1.12595 1.12579 1.12595 1.12579 1.12595 1.12579C1.12595 1.12579 1.12595 1.12579 1.12595 1.12579C1.12595 1.12579 1.12595 1.12579 1.12595 1.12579C1.12595 1.12579 1.12595 1.12579 1.12595 1.12579C1.12595 1.12579 1.12595 1.12579 1.12595 1.12579C1.12595 1.12579 1.12595 1.12579 1.12595 1.12579C1.12595 1.12579 1.12595 1.12579 1.12595 1.12579C1.12595 1.12579 1.12595 1.12579 1.12595 1.12579C1.12595 1.12579 1.12595 1.12579 1.12595 1.12579C1.12595 1.12579 1.12595 1.12579 1.12595 1.12579C1.12595 1.12579 1.12595 1.12579 1.12595 1.12579C1.12595 1.12579 1.12595 1.12579 1.12595 1.12579C1.12595 1.12579 1.12595 1.12579 1.12595 1.12579C1.12595 1.12579 1.12595 1.12579 1.12595 1.12579C1.12595 1.12579 1.12595 1.12579 1.12595 1.12579C1.12595 1.12579 1.12595 1.12579 1.12595 1.12579C1.12595 1.12579 1.12595 1.12579 1.12595 1.12579C1.12595 1.12579 1.12595 1.12579 1.12595 1.12579C1.12595 1.12579 1.12595 1.12579 1.12595 1.12579C1.12595 1.12579 1.12595 1.12579 1.12595 1.12579C1.12595 1.12579 1.12595 1.12579 1.12595 1.12579C1.12595 1.12579 1.12595 1.12579 1.12595 1.12579C1.12595 1.12579 1.12595 1.12579 1.12595 1.12579C1.12595 1.12579 1.12595 1.12579 1.12595 1.12579C1.12595 1.12579 1.12595 1.12579 1.12595 1.12579C1.12595 1.12579 1.12595 1.12579 1.12595 1.12579C1.12595 1.12579 1.12595 1.12579 1.12595 1.12579C1.12595 1.12579 1.12595 1.12579 1.12595 1.12579C1.12595 1.12579 1.12595 1.12579 1.12595 1.12579C1.12595 1.12579 1.12595 1.12579 1.12595 1.12579C1.12595 1.12579 1.12595 1.12579 1.12595 1.12579C1.12595 1.12579 1.12595 1.12579 1.12595 1.12579C1.12595 1.12579 1.12595 1.12579 1.12595 1.12579C1.12595 1.12579 1.12595 1.12579 1.12595 1.12579C1.12595 1.12579 1.12595 1.12579 1.12595 1.12579C1.12595 1.12579 1.12595 1.12579 1.12595 1.12579C1.12595 1.12579 1.12595 1.12579 1.12595 1.12579C1.12595 1.12579 1.12595 1.12579 1.12595 1.12579C1.12595 1.12579 1.12595 1.12579 1.12595 1.12579C1.12595 1.12579 1.12595 1.12579 1.12595 1.12579C1.12594 1.12579 1.12594 1.12579 1.12594 1.12579C1.12594 1.12579 1.12594 1.12579 1.12594 1.12579C1.12594 1.12579 1.12594 1.12579 1.12594 1.12579C1.12594 1.12579 1.12594 1.12579 1.12594 1.12579C1.12594 1.12579 1.12594 1.12579 1.12594 1.12579C1.12594 1.12579 1.12594 1.12579 1.12594 1.12579C1.12594 1.12579 1.12594 1.12579 1.12594 1.12579C1.12594 1.12579 1.12594 1.12579 1.12594 1.12579C1.12594 1.12579 1.12594 1.12579 1.12594 1.12579C1.12594 1.12579 1.12594 1.12579 1.12594 1.12579C1.12594 1.12579 1.12594 1.12579 1.12594 1.12579C1.12594 1.12579 1.12594 1.12579 1.12594 1.12579C1.12594 1.12579 1.12594 1.12579 1.12594 1.12579C1.12594 1.12579 1.12594 1.12579 1.12594 1.12579C1.12594 1.12579 1.12594 1.12579 1.12594 1.12579C1.12594 1.12579 1.12594 1.12579 1.12594 1.12579C1.12594 1.12579 1.12594 1.12579 1.12594 1.12579C1.12594 1.12579 1.12594 1.12579 1.12594 1.12579C1.12594 1.12579 1.12594 1.12579 1.12594 1.12579C1.12594 1.12579 1.12594 1.12579 1.12594 1.12579C1.12594 1.12579 1.12594 1.12579 1.12594 1.12579C1.12594 1.12579 1.12594 1.12579 1.12594 1.12579C1.12594 1.12579 1.12594 1.12579 1.12594 1.12579C1.12594 1.12579 1.12594 1.12579 1.12594 1.12579C1.12594 1.12579 1.12594 1.12579 1.12594 1.12579C1.12594 1.12579 1.12594 1.12579 1.12594 1.12579C1.12594 1.12579 1.12594 1.12579 1.12594 1.12579C1.12594 1.12579 1.12594 1.12579 1.12594 1.12579C1.12594 1.12579 1.12594 1.12579 1.12594 1.12579C1.12594 1.12579 1.12594 1.12579 1.12594 1.12579C1.12594 1.12579 1.12594 1.12579 1.12594 1.12579C1.12594 1.12579 1.12594 1.12579 1.12594 1.12579C1.12594 1.12579 1.12594 1.12579 1.12594 1.12579C1.12594 1.12579 1.12594 1.12579 1.12594 1.12579C1.12594 1.12579 1.12594 1.12579 1.12594 1.12579C1.12594 1.12579 1.12594 1.12579 1.12594 1.12579C1.12594 1.12579 1.12594 1.12579 1.12594 1.12579C1.12594 1.12579 1.12594 1.12579 1.12594 1.12579C1.12594 1.12579 1.12594 1.12579 1.12594 1.12579C1.12594 1.12579 1.12594 1.12579 1.12594 1.12579C1.12594 1.12579 1.12594 1.12579 1.12594 1.12579C1.12594 1.12579 1.12594 1.12579 1.12594 1.12579C1.12594 1.12579 1.12594 1.12579 1.12594 1.12579C1.12594 1.12579 1.12594 1.12579 1.12594 1.12579C1.12594 1.12579 1.12594 1.12579 1.12594 1.12579C1.12594 1.12579 1.12594 1.12579 1.12594 1.12579C1.12594 1.12579 1.12594 1.12579 1.12594 1.12579C1.12594 1.12579 1.12594 1.12579 1.12594 1.12579C1.12594 1.12579 1.12594 1.12579 1.12594 1.12579C1.12594 1.12579 1.12594 1.12579 1.12594 1.12579C1.12594 1.12579 1.12594 1.12579 1.12594 1.12579C1.12594 1.12579 1.12594 1.12579 1.12594 1.12579C1.12594 1.12579 1.12594 1.12579 1.12594 1.12579C1.12594 1.12579 1.12594 1.12579 1.12594 1.12579C1.12594 1.12579 1.12594 1.12579 1.12594 1.12579C1.12594 1.12579 1.12594 1.12579 1.12594 1.12579C1.12594 1.12579 1.12594 1.12579 1.12594 1.12579C1.12594 1.12579 1.12594 1.12579 1.12594 1.12579C1.12594 1.12579 1.12594 1.12579 1.12594 1.12579C1.12594 1.12579 1.12594 1.12579 1.12594 1.12579C1.12594 1.12579 1.12594 1.12579 1.12594 1.12579C1.12594 1.12579 1.12594 1.12579 1.12594 1.12579C1.12594 1.12579 1.12594 1.12579 1.12594 1.12579C1.12594 1.12579 1.12594 1.12579 1.12594 1.12579C1.12594 1.12579 1.12594 1.12579 1.12594 1.12579C1.12594 1.12579 1.12594 1.12579 1.12594 1.12579C1.12594 1.12579 1.12594 1.12579 1.12594 1.12579C1.12594 1.12579 1.12594 1.12579 1.12594 1.12579C1.12594 1.12579 1.12594 1.12579 1.12594 1.12579C1.12594 1.12579 1.12594 1.12579 1.12594 1.12579C1.12594 1.12579 1.12594 1.12579 1.12594 1.12579C1.12594 1.12579 1.12594 1.12579 1.12594 1.12579C1.12594 1.12579 1.12594 1.12579 1.12594 1.12579C1.12594 1.12579 1.12594 1.12579 1.12594 1.12579C1.12594 1.12579 1.12594 1.12579 1.12594 1.12579C1.12594 1.12579 1.12594 1.12579 1.12594 1.12579C1.12594 1.12579 1.12594 1.12579 1.12594 1.12579C1.12594 1.12579 1.12594 1.12579 1.12594 1.12579C1.12594 1.12579 1.12594 1.12579 1.12594 1.12579C1.12594 1.12579 1.12594 1.12579 1.12594 1.12579C1.12594 1.12579 1.12594 1.12579 1.12594 1.12579C1.12594 1.12579 1.12594 1.12579 1.12594 1.12579C1.12594 1.12579 1.12594 1.12579 1.12594 1.12579C1.12594 1.12579 1.12594 1.12579 1.12594 1.12579C1.12594 1.12579 1.12594 1.12579 1.12594 1.12579C1.12594 1.12579 1.12594 1.12579 1.12594 1.12579C1.12594 1.12579 1.12594 1.12579 1.12594 1.12579C1.12594 1.12579 1.12594 1.12579 1.12594 1.12579C1.12594 1.12579 1.12594 1.12579 1.12594 1.12579C1.12594 1.12579 1.12594 1.12579 1.12594 1.12579C1.12594 1.12579 1.12594 1.12579 1.12594 1.12579C1.12594 1.12579 1.12594 1.12579 1.12594 1.12579C1.12594 1.12579 1.12594 1.12579 1.12594 1.12579C1.12594 1.12579 1.12594 1.12579 1.12594 1.12579C1.12594 1.12579 1.12594 1.12579 1.12594 1.12579C1.12594 1.12579 1.12594 1.12579 1.12594 1.12579C1.12594 1.12579 1.12594 1.12579 1.12594 1.12579C1.12594 1.12579 1.12594 1.12579 1.12594 1.12579C1.12594 1.12579 1.12594 1.12579 1.12594 1.12579C1.12594 1.12579 1.12594 1.12579 1.12594 1.12579C1.12594 1.12579 1.12594 1.12579 1.12594 1.12579C1.12594 1.12579 1.12594 1.12579 1.12594 1.12579C1.12594 1.12579 1.12594 1.12579 1.12594 1.12579C1.12594 1.12579 1.12594 1.12579 1.12594 1.12579C1.12594 1.12579 1.12594 1.12579 1.12594 1.12579C1.12594 1.12579 1.12594 1.12579 1.12594 1.12579C1.12594 1.12579 1.12594 1.12579 1.12594 1.12579C1.12594 1.12579 1.12594 1.12579 1.12594 1.12579C1.12594 1.12579 1.12594 1.12579 1.12594 1.12579C1.12594 1.12579 1.12594 1.12579 1.12594 1.12579C1.12594 1.12579 1.12594 1.12579 1.12594 1.12579C1.12594 1.12579 1.12594 1.12579 1.12594 1.12579C1.12594 1.12579 1.12594 1.12579 1.12594 1.12579C1.12594 1.12579 1.12594 1.12579 1.12594 1.12579C1.12594 1.12579 1.12594 1.12579 1.12594 1.12579C1.12594 1.12579 1.12594 1.12579 1.12594 1.12579C1.12594 1.12579 1.12594 1.12579 1.12594 1.12579C1.12594 1.12579 1.12594 1.12579 1.12594 1.12579C1.12594 1.1258 1.12594 1.1258 1.12594 1.1258C1.12594 1.1258 1.12594 1.1258 1.12594 1.1258C1.12594 1.1258 1.12594 1.1258 1.12594 1.1258C1.12594 1.1258 1.12594 1.1258 1.12594 1.1258C1.12594 1.1258 1.12594 1.1258 1.12594 1.1258C1.12594 1.1258 1.12594 1.1258 1.12594 1.1258C1.12594 1.1258 1.12594 1.1258 1.12594 1.1258C1.12594 1.1258 1.12594 1.1258 1.12594 1.1258C1.12594 1.1258 1.12594 1.1258 1.12594 1.1258C1.12594 1.1258 1.12594 1.1258 1.12594 1.1258C1.12594 1.1258 1.12594 1.1258 1.12594 1.1258C1.12594 1.1258 1.12594 1.1258 1.12594 1.1258C1.12594 1.1258 1.12594 1.1258 1.12594 1.1258C1.12594 1.1258 1.12594 1.1258 1.12594 1.1258C1.12594 1.1258 1.12594 1.1258 1.12594 1.1258C1.12594 1.1258 1.12594 1.1258 1.12594 1.1258C1.12594 1.1258 1.12594 1.1258 1.12594 1.1258C1.12594 1.1258 1.12594 1.1258 1.12594 1.1258C1.12594 1.1258 1.12594 1.1258 1.12594 1.1258C1.12594 1.1258 1.12594 1.1258 1.12594 1.1258C1.12594 1.1258 1.12594 1.1258 1.12594 1.1258C1.12594 1.1258 1.12594 1.1258 1.12594 1.1258C1.12594 1.1258 1.12594 1.1258 1.12594 1.1258C1.12594 1.1258 1.12594 1.1258 1.12594 1.1258C1.12594 1.1258 1.12594 1.1258 1.12594 1.1258C1.12594 1.1258 1.12594 1.1258 1.12594 1.1258C1.12594 1.1258 1.12594 1.1258 1.12594 1.1258C1.12594 1.1258 1.12594 1.1258 1.12594 1.1258C1.12594 1.1258 1.12594 1.1258 1.12594 1.1258C1.12594 1.1258 1.12594 1.1258 1.12594 1.1258C1.12594 1.1258 1.12594 1.1258 1.12594 1.1258C1.12594 1.1258 1.12594 1.1258 1.12594 1.1258C1.12594 1.1258 1.12594 1.1258 1.12594 1.1258C1.12594 1.1258 1.12594 1.1258 1.12594 1.1258C1.12594 1.1258 1.12594 1.1258 1.12594 1.1258C1.12594 1.1258 1.12594 1.1258 1.12594 1.1258C1.12594 1.1258 1.12594 1.1258 1.12594 1.1258C1.12594 1.1258 1.12594 1.1258 1.12594 1.1258C1.12594 1.1258 1.12594 1.1258 1.12594 1.1258C1.12594 1.1258 1.12594 1.1258 1.12594 1.1258C1.12594 1.1258 1.12594 1.1258 1.12594 1.1258C1.12594 1.1258 1.12594 1.1258 1.12594 1.1258C1.12594 1.1258 1.12594 1.1258 1.12594 1.1258C1.12594 1.1258 1.12594 1.1258 1.12594 1.1258C1.12594 1.1258 1.12594 1.1258 1.12594 1.1258C1.12594 1.1258 1.12594 1.1258 1.12594 1.1258C1.12594 1.1258 1.12594 1.1258 1.12594 1.1258C1.12594 1.1258 1.12594 1.1258 1.12594 1.1258C1.12594 1.1258 1.12594 1.1258 1.12594 1.1258C1.12594 1.1258 1.12594 1.1258 1.12594 1.1258C1.12594 1.1258 1.12594 1.1258 1.12594 1.1258C1.12594 1.1258 1.12594 1.1258 1.12594 1.1258C1.12594 1.1258 1.12594 1.1258 1.12594 1.1258C1.12594 1.1258 1.12594 1.1258 1.12594 1.1258C1.12594 1.1258 1.12594 1.1258 1.12594 1.1258C1.12594 1.1258 1.12594 1.1258 1.12594 1.1258C1.12594 1.1258 1.12594 1.1258 1.12594 1.1258C1.12594 1.1258 1.12594 1.1258 1.12594 1.1258C1.12594 1.1258 1.12594 1.1258 1.12594 1.1258C1.12594 1.1258 1.12594 1.1258 1.12594 1.1258C1.12594 1.1258 1.12594 1.1258 1.12594 1.1258C1.12594 1.1258 1.12594 1.1258 1.12594 1.1258C1.12594 1.1258 1.12594 1.1258 1.12594 1.1258C1.12594 1.1258 1.12594 1.1258 1.12594 1.1258C1.12594 1.1258 1.12594 1.1258 1.12594 1.1258C1.12594 1.1258 1.12594 1.1258 1.12594 1.1258C1.12594 1.1258 1.12594 1.1258 1.12594 1.1258C1.12594 1.1258 1.12594 1.1258 1.12594 1.1258C1.12594 1.1258 1.12594 1.1258 1.12593 1.1258C1.12593 1.1258 1.12593 1.1258 1.12593 1.1258C1.12593 1.1258 1.12593 1.1258 1.12593 1.1258C1.12593 1.1258 1.12593 1.1258 1.12593 1.1258C1.12593 1.1258 1.12593 1.1258 1.12593 1.1258C1.12593 1.1258 1.12593 1.1258 1.12593 1.1258C1.12593 1.1258 1.12593 1.1258 1.12593 1.1258C1.12593 1.1258 1.12593 1.1258 1.12593 1.1258C1.12593 1.1258 1.12593 1.1258 1.12593 1.1258C1.12593 1.1258 1.12593 1.1258 1.12593 1.1258C1.12593 1.1258 1.12593 1.1258 1.12593 1.1258C1.12593 1.1258 1.12593 1.1258 1.12593 1.1258C1.12593 1.1258 1.12593 1.1258 1.12593 1.1258C1.12593 1.1258 1.12593 1.1258 1.12593 1.1258C1.12593 1.1258 1.12593 1.1258 1.12593 1.1258C1.12593 1.1258 1.12593 1.1258 1.12593 1.1258C1.12593 1.1258 1.12593 1.1258 1.12593 1.1258C1.12593 1.1258 1.12593 1.1258 1.12593 1.1258C1.12593 1.1258 1.12593 1.1258 1.12593 1.1258C1.12593 1.1258 1.12593 1.1258 1.12593 1.1258C1.12593 1.1258 1.12593 1.1258 1.12593 1.1258C1.12593 1.1258 1.12593 1.1258 1.12593 1.1258C1.12593 1.1258 1.12593 1.1258 1.12593 1.1258C1.12593 1.1258 1.12593 1.1258 1.12593 1.1258C1.12593 1.1258 1.12593 1.1258 1.12593 1.1258C1.12593 1.1258 1.12593 1.1258 1.12593 1.1258C1.12593 1.1258 1.12593 1.1258 1.12593 1.1258C1.12593 1.1258 1.12593 1.1258 1.12593 1.1258C1.12593 1.1258 1.12593 1.1258 1.12593 1.1258C1.12593 1.1258 1.12593 1.1258 1.12593 1.1258C1.12593 1.1258 1.12593 1.1258 1.12593 1.1258C1.12593 1.1258 1.12593 1.1258 1.12593 1.1258C1.12593 1.1258 1.12593 1.1258 1.12593 1.1258C1.12593 1.1258 1.12593 1.1258 1.12593 1.1258C1.12593 1.1258 1.12593 1.1258 1.12593 1.1258C1.12593 1.1258 1.12593 1.1258 1.12593 1.1258C1.12593 1.1258 1.12593 1.1258 1.12593 1.1258C1.12593 1.1258 1.12593 1.1258 1.12593 1.1258C1.12593 1.1258 1.12593 1.1258 1.12593 1.1258C1.12593 1.1258 1.12593 1.1258 1.12593 1.1258C1.12593 1.1258 1.12593 1.1258 1.12593 1.1258C1.12593 1.1258 1.12593 1.1258 1.12593 1.1258C1.12593 1.1258 1.12593 1.1258 1.12593 1.1258C1.12593 1.1258 1.12593 1.1258 1.12593 1.1258C1.12593 1.1258 1.12593 1.1258 1.12593 1.1258C1.12593 1.1258 1.12593 1.1258 1.12593 1.1258C1.12593 1.1258 1.12593 1.1258 1.12593 1.1258C1.12593 1.1258 1.12593 1.1258 1.12593 1.1258C1.12593 1.1258 1.12593 1.1258 1.12593 1.1258C1.12593 1.1258 1.12593 1.1258 1.12593 1.1258C1.12593 1.1258 1.12593 1.1258 1.12593 1.1258C1.12593 1.1258 1.12593 1.1258 1.12593 1.1258C1.12593 1.1258 1.12593 1.1258 1.12593 1.1258C1.12593 1.1258 1.12593 1.1258 1.12593 1.1258C1.12593 1.1258 1.12593 1.1258 1.12593 1.1258C1.12593 1.1258 1.12593 1.1258 1.12593 1.1258C1.12593 1.1258 1.12593 1.1258 1.12593 1.1258C1.12593 1.1258 1.12593 1.1258 1.12593 1.1258C1.12593 1.1258 1.12593 1.1258 1.12593 1.1258C1.12593 1.1258 1.12593 1.1258 1.12593 1.1258C1.12593 1.1258 1.12593 1.1258 1.12593 1.1258C1.12593 1.1258 1.12593 1.1258 1.12593 1.1258C1.12593 1.1258 1.12593 1.1258 1.12593 1.1258C1.12593 1.1258 1.12593 1.1258 1.12593 1.1258C1.12593 1.1258 1.12593 1.1258 1.12593 1.1258C1.12593 1.1258 1.12593 1.1258 1.12593 1.1258C1.12593 1.1258 1.12593 1.1258 1.12593 1.1258C1.12593 1.1258 1.12593 1.1258 1.12593 1.1258C1.12593 1.1258 1.12593 1.1258 1.12593 1.1258C1.12593 1.1258 1.12593 1.1258 1.12593 1.1258C1.12593 1.1258 1.12593 1.1258 1.12593 1.1258C1.12593 1.1258 1.12593 1.1258 1.12593 1.1258C1.12593 1.1258 1.12593 1.1258 1.12593 1.1258C1.12593 1.1258 1.12593 1.1258 1.12593 1.1258C1.12593 1.1258 1.12593 1.1258 1.12593 1.1258C1.12593 1.1258 1.12593 1.1258 1.12593 1.1258C1.12593 1.1258 1.12593 1.1258 1.12593 1.1258C1.12593 1.1258 1.12593 1.1258 1.12593 1.1258C1.12593 1.1258 1.12593 1.1258 1.12593 1.1258C1.12593 1.1258 1.12593 1.1258 1.12593 1.1258C1.12593 1.1258 1.12593 1.1258 1.12593 1.1258C1.12593 1.1258 1.12593 1.1258 1.12593 1.1258C1.12593 1.1258 1.12593 1.1258 1.12593 1.1258C1.12593 1.1258 1.12593 1.1258 1.12593 1.1258C1.12593 1.1258 1.12593 1.1258 1.12593 1.1258C1.12593 1.1258 1.12593 1.1258 1.12593 1.1258C1.12593 1.1258 1.12593 1.1258 1.12593 1.1258C1.12593 1.1258 1.12593 1.1258 1.12593 1.1258C1.12593 1.1258 1.12593 1.1258 1.12593 1.1258C1.12593 1.1258 1.12593 1.1258 1.12593 1.1258C1.12593 1.1258 1.12593 1.1258 1.12593 1.1258C1.12593 1.1258 1.12593 1.1258 1.12593 1.1258C1.12593 1.1258 1.12593 1.1258 1.12593 1.1258C1.12593 1.1258 1.12593 1.1258 1.12593 1.1258C1.12593 1.1258 1.12593 1.1258 1.12593 1.1258C1.12593 1.1258 1.12593 1.1258 1.12593 1.1258C1.12593 1.1258 1.12593 1.1258 1.12593 1.1258C1.12593 1.1258 1.12593 1.1258 1.12593 1.1258C1.12593 1.1258 1.12593 1.1258 1.12593 1.1258C1.12593 1.1258 1.12593 1.1258 1.12593 1.1258C1.12593 1.1258 1.12593 1.1258 1.12593 1.1258C1.12593 1.1258 1.12593 1.1258 1.12593 1.1258C1.12593 1.1258 1.12593 1.1258 1.12593 1.1258C1.12593 1.1258 1.12593 1.1258 1.12593 1.1258C1.12593 1.1258 1.12593 1.1258 1.12593 1.1258C1.12593 1.1258 1.12593 1.1258 1.12593 1.1258C1.12593 1.1258 1.12593 1.1258 1.12593 1.1258C1.12593 1.1258 1.12593 1.1258 1.12593 1.1258C1.12593 1.1258 1.12593 1.1258 1.12593 1.1258C1.12593 1.1258 1.12593 1.1258 1.12593 1.1258C1.12593 1.1258 1.12593 1.1258 1.12593 1.1258C1.12593 1.1258 1.12593 1.1258 1.12593 1.1258C1.12593 1.1258 1.12593 1.1258 1.12593 1.1258C1.12593 1.1258 1.12593 1.1258 1.12593 1.1258C1.12593 1.1258 1.12593 1.1258 1.12593 1.1258C1.12593 1.1258 1.12593 1.1258 1.12593 1.1258C1.12593 1.1258 1.12593 1.1258 1.12593 1.1258C1.12593 1.1258 1.12593 1.1258 1.12593 1.1258C1.12593 1.1258 1.12593 1.1258 1.12593 1.12581C1.12593 1.12581 1.12593 1.12581 1.12593 1.12581C1.12593 1.12581 1.12593 1.12581 1.12593 1.12581C1.12593 1.12581 1.12593 1.12581 1.12593 1.12581C1.12593 1.12581 1.12593 1.12581 1.12593 1.12581C1.12593 1.12581 1.12593 1.12581 1.12593 1.12581C1.12593 1.12581 1.12593 1.12581 1.12593 1.12581C1.12593 1.12581 1.12593 1.12581 1.12593 1.12581C1.12593 1.12581 1.12593 1.12581 1.12593 1.12581C1.12593 1.12581 1.12593 1.12581 1.12593 1.12581C1.12593 1.12581 1.12593 1.12581 1.12593 1.12581C1.12593 1.12581 1.12593 1.12581 1.12593 1.12581C1.12593 1.12581 1.12593 1.12581 1.12593 1.12581C1.12593 1.12581 1.12593 1.12581 1.12593 1.12581C1.12593 1.12581 1.12593 1.12581 1.12593 1.12581C1.12593 1.12581 1.12593 1.12581 1.12593 1.12581C1.12593 1.12581 1.12593 1.12581 1.12593 1.12581C1.12593 1.12581 1.12593 1.12581 1.12593 1.12581C1.12593 1.12581 1.12593 1.12581 1.12593 1.12581C1.12593 1.12581 1.12593 1.12581 1.12593 1.12581C1.12593 1.12581 1.12593 1.12581 1.12593 1.12581C1.12593 1.12581 1.12593 1.12581 1.12593 1.12581C1.12593 1.12581 1.12593 1.12581 1.12593 1.12581C1.12593 1.12581 1.12593 1.12581 1.12593 1.12581C1.12593 1.12581 1.12593 1.12581 1.12593 1.12581C1.12593 1.12581 1.12593 1.12581 1.12593 1.12581C1.12593 1.12581 1.12593 1.12581 1.12593 1.12581C1.12593 1.12581 1.12593 1.12581 1.12593 1.12581C1.12593 1.12581 1.12593 1.12581 1.12593 1.12581C1.12593 1.12581 1.12593 1.12581 1.12593 1.12581C1.12593 1.12581 1.12593 1.12581 1.12593 1.12581C1.12593 1.12581 1.12593 1.12581 1.12593 1.12581C1.12593 1.12581 1.12593 1.12581 1.12593 1.12581C1.12593 1.12581 1.12593 1.12581 1.12593 1.12581C1.12593 1.12581 1.12593 1.12581 1.12593 1.12581C1.12593 1.12581 1.12593 1.12581 1.12593 1.12581C1.12593 1.12581 1.12593 1.12581 1.12593 1.12581C1.12593 1.12581 1.12593 1.12581 1.12593 1.12581C1.12593 1.12581 1.12593 1.12581 1.12593 1.12581C1.12593 1.12581 1.12593 1.12581 1.12593 1.12581C1.12593 1.12581 1.12593 1.12581 1.12593 1.12581C1.12593 1.12581 1.12593 1.12581 1.12593 1.12581C1.12593 1.12581 1.12593 1.12581 1.12593 1.12581C1.12593 1.12581 1.12593 1.12581 1.12593 1.12581C1.12593 1.12581 1.12593 1.12581 1.12593 1.12581C1.12593 1.12581 1.12593 1.12581 1.12593 1.12581C1.12593 1.12581 1.12593 1.12581 1.12593 1.12581C1.12593 1.12581 1.12593 1.12581 1.12593 1.12581C1.12593 1.12581 1.12593 1.12581 1.12593 1.12581C1.12593 1.12581 1.12593 1.12581 1.12593 1.12581C1.12593 1.12581 1.12593 1.12581 1.12593 1.12581C1.12593 1.12581 1.12593 1.12581 1.12593 1.12581C1.12593 1.12581 1.12593 1.12581 1.12593 1.12581C1.12593 1.12581 1.12593 1.12581 1.12593 1.12581C1.12593 1.12581 1.12593 1.12581 1.12593 1.12581C1.12593 1.12581 1.12593 1.12581 1.12593 1.12581C1.12593 1.12581 1.12593 1.12581 1.12593 1.12581C1.12593 1.12581 1.12593 1.12581 1.12593 1.12581C1.12593 1.12581 1.12593 1.12581 1.12593 1.12581C1.12593 1.12581 1.12593 1.12581 1.12593 1.12581C1.12593 1.12581 1.12593 1.12581 1.12593 1.12581C1.12593 1.12581 1.12593 1.12581 1.12593 1.12581C1.12593 1.12581 1.12593 1.12581 1.12593 1.12581C1.12593 1.12581 1.12593 1.12581 1.12593 1.12581C1.12593 1.12581 1.12593 1.12581 1.12593 1.12581C1.12593 1.12581 1.12593 1.12581 1.12593 1.12581C1.12593 1.12581 1.12593 1.12581 1.12593 1.12581C1.12593 1.12581 1.12593 1.12581 1.12593 1.12581C1.12593 1.12581 1.12593 1.12581 1.12593 1.12581C1.12593 1.12581 1.12593 1.12581 1.12592 1.12581C1.12592 1.12581 1.12592 1.12581 1.12592 1.12581C1.12592 1.12581 1.12592 1.12581 1.12592 1.12581C1.12592 1.12581 1.12592 1.12581 1.12592 1.12581C1.12592 1.12581 1.12592 1.12581 1.12592 1.12581C1.12592 1.12581 1.12592 1.12581 1.12592 1.12581C1.12592 1.12581 1.12592 1.12581 1.12592 1.12581C1.12592 1.12581 1.12592 1.12581 1.12592 1.12581C1.12592 1.12581 1.12592 1.12581 1.12592 1.12581C1.12592 1.12581 1.12592 1.12581 1.12592 1.12581C1.12592 1.12581 1.12592 1.12581 1.12592 1.12581C1.12592 1.12581 1.12592 1.12581 1.12592 1.12581C1.12592 1.12581 1.12592 1.12581 1.12592 1.12581C1.12592 1.12581 1.12592 1.12581 1.12592 1.12581C1.12592 1.12581 1.12592 1.12581 1.12592 1.12581C1.12592 1.12581 1.12592 1.12581 1.12592 1.12581C1.12592 1.12581 1.12592 1.12581 1.12592 1.12581C1.12592 1.12581 1.12592 1.12581 1.12592 1.12581C1.12592 1.12581 1.12592 1.12581 1.12592 1.12581C1.12592 1.12581 1.12592 1.12581 1.12592 1.12581C1.12592 1.12581 1.12592 1.12581 1.12592 1.12581C1.12592 1.12581 1.12592 1.12581 1.12592 1.12581C1.12592 1.12581 1.12592 1.12581 1.12592 1.12581C1.12592 1.12581 1.12592 1.12581 1.12592 1.12581C1.12592 1.12581 1.12592 1.12581 1.12592 1.12581C1.12592 1.12581 1.12592 1.12581 1.12592 1.12581C1.12592 1.12581 1.12592 1.12581 1.12592 1.12581L1.83303 1.83292ZM1.83305 1.8329C1.92894 1.73701 2.05306 1.68981 2.17823 1.69025L2.1817 0.690253C1.80028 0.688929 1.4173 0.83445 1.12596 1.12577L1.83305 1.8329ZM9.15606 7.05229L9.15475 7.05098L8.44764 7.75809L8.44895 7.7594L9.15606 7.05229ZM14.3753 1.12582L8.44895 7.05229L9.15606 7.75939L15.0824 1.83292L14.3753 1.12582ZM15.4285 0.690254C15.0479 0.68962 14.666 0.835135 14.3753 1.12582L15.0824 1.83292C15.1781 1.73727 15.3019 1.69004 15.4268 1.69025L15.4285 0.690254ZM15.0798 1.83291C15.1758 1.73694 15.3001 1.68971 15.4255 1.69025L15.4298 0.690258C15.0479 0.688614 14.6644 0.834125 14.3727 1.12581L15.0798 1.83291ZM9.15475 7.75809L15.0798 1.83291L14.3727 1.12581L8.44764 7.05099L9.15475 7.75809ZM14.3753 16.4744C14.6633 16.7624 15.0418 16.9081 15.4196 16.9097L15.4239 15.9098C15.2997 15.9092 15.1768 15.8618 15.0824 15.7673L14.3753 16.4744ZM8.44895 10.5479L14.3753 16.4744L15.0824 15.7673L9.15606 9.84084L8.44895 10.5479ZM9.15476 10.5492L9.15606 10.5479L8.44895 9.84084L8.44765 9.84214L9.15476 10.5492ZM15.0798 15.7673L9.15476 9.84214L8.44765 10.5492L14.3727 16.4744L15.0798 15.7673ZM15.4226 15.9098C15.2979 15.9095 15.1746 15.8621 15.0798 15.7673L14.3727 16.4744C14.6617 16.7634 15.0418 16.9091 15.4209 16.9098L15.4226 15.9098ZM0.991497 0.991191C0.336207 1.64624 0.33614 2.70669 0.991463 3.36178L1.69844 2.65454C1.43385 2.39005 1.43385 1.96296 1.69847 1.69843L0.991497 0.991191ZM1.69853 1.69837C1.96301 1.4339 2.39 1.43383 2.65474 1.69844L3.36169 0.991178C2.70657 0.336356 1.64655 0.336169 0.99144 0.991248L1.69853 1.69837ZM2.65465 1.69835L8.44633 7.49033L9.15346 6.78324L3.36178 0.991266L2.65465 1.69835ZM9.15345 7.49034L14.9453 1.69839L14.2382 0.991292L8.44634 6.78324L9.15345 7.49034ZM14.9453 1.69839C15.2098 1.43387 15.6369 1.43387 15.9015 1.69839L16.6086 0.991292C15.9535 0.336236 14.8932 0.336236 14.2382 0.991292L14.9453 1.69839ZM15.9015 1.69846C16.1661 1.96297 16.1661 2.39003 15.9015 2.65454L16.6085 3.36177C17.2638 2.70671 17.2638 1.64629 16.6085 0.991223L15.9015 1.69846ZM15.9015 2.65461L10.1098 8.44657L10.8169 9.15366L16.6086 3.3617L15.9015 2.65461ZM10.1098 9.15366L15.9014 14.9456L16.6085 14.2385L10.8169 8.44657L10.1098 9.15366ZM15.9015 14.9457C16.1661 15.2102 16.1661 15.6373 15.9015 15.9018L16.6085 16.609C17.2638 15.954 17.2638 14.8935 16.6085 14.2384L15.9015 14.9457ZM15.4234 17.1C15.8517 17.1 16.2818 16.9357 16.6085 16.609L15.9014 15.9019C15.7695 16.0338 15.5969 16.1 15.4234 16.1V17.1ZM14.2382 16.6089C14.5649 16.9356 14.995 17.1 15.4234 17.1V16.1C15.2499 16.1 15.0772 16.0338 14.9453 15.9018L14.2382 16.6089ZM8.44634 10.817L14.2382 16.6089L14.9453 15.9018L9.15345 10.1099L8.44634 10.817ZM3.36181 16.6089L9.15346 10.817L8.44633 10.1099L2.65468 15.9018L3.36181 16.6089ZM2.1766 17.1C2.60494 17.1 3.0351 16.9356 3.3618 16.6089L2.65469 15.9018C2.52273 16.0338 2.35009 16.1 2.1766 16.1V17.1ZM0.991299 16.6088C1.31803 16.9358 1.74851 17.1 2.1766 17.1V16.1C2.00304 16.1 1.83033 16.0338 1.69867 15.902L0.991299 16.6088ZM0.991496 14.2384C0.336195 14.8935 0.33614 15.954 0.99151 16.609L1.69846 15.9018C1.43385 15.6373 1.43384 15.2102 1.69847 14.9457L0.991496 14.2384ZM6.78305 8.44657L0.991422 14.2385L1.69855 14.9456L7.49017 9.15366L6.78305 8.44657ZM0.991388 3.3617L6.78305 9.15366L7.49017 8.44657L1.69851 2.65461L0.991388 3.3617ZM1.83437 1.1271L1.83306 1.12579L1.12595 1.83289L1.12726 1.83419L1.83437 1.1271Z"
        fill="currentColor" />
</svg>