<svg width="100%" height="100%" viewBox="0 0 19 18" fill="none" xmlns="http://www.w3.org/2000/svg">
<path d="M13.8014 17.6C13.5014 17.6 13.2014 17.6 12.9014 17.4L9.30142 15.6L5.70142 17.4C4.90142 17.8 3.80142 17.6 3.20142 16.9C2.80142 16.4 2.70142 15.9 2.80142 15.3L3.50142 11.4L0.601421 8.6C0.00142086 8.1 -0.0985792 7.3 0.101421 6.6C0.301421 5.9 1.00142 5.4 1.70142 5.2L5.70142 4.6L7.50142 1.1C7.80142 0.4 8.50142 0 9.30142 0C10.1014 0 10.8014 0.4 11.1014 1.1L12.9014 4.6L16.9014 5.2C17.7014 5.3 18.3014 5.8 18.5014 6.6C18.7014 7.3 18.5014 8.1 18.0014 8.7L15.1014 11.5L15.8014 15.4C15.9014 16 15.8014 16.6 15.4014 17C15.0014 17.4 14.5014 17.7 13.9014 17.7L13.8014 17.6ZM9.30142 13.9C9.50142 13.9 9.70142 13.9 9.90142 14L13.6014 15.9C13.8014 15.9 14.0014 15.9 14.1014 15.8C14.1014 15.8 14.2014 15.6 14.1014 15.5L13.4014 11.5C13.4014 11.1 13.4014 10.6 13.8014 10.3L16.8014 7.4C16.9014 7.3 16.9014 7.1 16.9014 7C16.9014 6.9 16.7014 6.7 16.6014 6.7L12.5014 6.1C12.1014 6.1 11.7014 5.8 11.5014 5.4L9.70142 1.7C9.60142 1.4 9.10142 1.4 8.90142 1.7L7.10142 5.4C6.90142 5.8 6.50142 6.1 6.10142 6.1L2.00142 6.7C1.80142 6.7 1.70142 6.8 1.70142 7C1.70142 7.1 1.70142 7.3 1.80142 7.4L4.80142 10.3C5.10142 10.6 5.30142 11 5.20142 11.5L4.50142 15.5C4.50142 15.6 4.50142 15.7 4.50142 15.8C4.60142 15.9 4.90142 16 5.00142 15.9L8.70142 14C8.90142 14 9.10142 13.9 9.30142 13.9Z" fill="currentColor"/>
</svg>
