<svg width="100%" height="100%" viewBox="0 0 24 24" fill="none" xmlns="http://www.w3.org/2000/svg">
<g clip-path="url(#clip0_2505_42717)">
<path d="M16.8014 20.6C16.5014 20.6 16.2014 20.6 15.9014 20.4L12.3014 18.6L8.70142 20.4C7.90142 20.8 6.80142 20.6 6.20142 19.9C5.80142 19.4 5.70142 18.9 5.80142 18.3L6.50142 14.4L3.60142 11.6C3.00142 11.1 2.90142 10.3 3.10142 9.6C3.30142 8.9 4.00142 8.4 4.70142 8.2L8.70142 7.6L10.5014 4.1C10.8014 3.4 11.5014 3 12.3014 3C13.1014 3 13.8014 3.4 14.1014 4.1L15.9014 7.6L19.9014 8.2C20.7014 8.3 21.3014 8.8 21.5014 9.6C21.7014 10.3 21.5014 11.1 21.0014 11.7L18.1014 14.5L18.8014 18.4C18.9014 19 18.8014 19.6 18.4014 20C18.0014 20.4 17.5014 20.7 16.9014 20.7L16.8014 20.6ZM12.3014 16.9C12.5014 16.9 12.7014 16.9 12.9014 17L16.6014 18.9C16.8014 18.9 17.0014 18.9 17.1014 18.8C17.1014 18.8 17.2014 18.6 17.1014 18.5L16.4014 14.5C16.4014 14.1 16.4014 13.6 16.8014 13.3L19.8014 10.4C19.9014 10.3 19.9014 10.1 19.9014 10C19.9014 9.9 19.7014 9.7 19.6014 9.7L15.5014 9.1C15.1014 9.1 14.7014 8.8 14.5014 8.4L12.7014 4.7C12.6014 4.4 12.1014 4.4 11.9014 4.7L10.1014 8.4C9.90142 8.8 9.50142 9.1 9.10142 9.1L5.00142 9.7C4.80142 9.7 4.70142 9.8 4.70142 10C4.70142 10.1 4.70142 10.3 4.80142 10.4L7.80142 13.3C8.10142 13.6 8.30142 14 8.20142 14.5L7.50142 18.5C7.50142 18.6 7.50142 18.7 7.50142 18.8C7.60142 18.9 7.90142 19 8.00142 18.9L11.7014 17C11.9014 17 12.1014 16.9 12.3014 16.9Z" fill="#9C9C9C"/>
</g>
<defs>
<clipPath id="clip0_2505_42717">
<rect width="18.6" height="17.6" fill="white" transform="translate(3 3)"/>
</clipPath>
</defs>
</svg>
