<svg width="100%" height="100%" viewBox="0 0 34 34" fill="none" xmlns="http://www.w3.org/2000/svg">
<rect width="100%" height="100%" rx="17" fill="black" fill-opacity="0.4"/>
<path fill-rule="evenodd" clip-rule="evenodd" d="M25.455 11.23C26 12.2996 26 13.6997 26 16.5V19.1988C26 19.4785 26 19.6183 25.9944 19.7364C25.8725 22.312 23.812 24.3725 21.2364 24.4944C21.1183 24.5 20.9623 24.5 20.6504 24.5L20.5703 24.5001C19.5501 24.5066 18.5562 24.8251 17.7222 25.4128L17.6692 25.4506L15.0585 27.3154C14.1635 27.9546 12.9874 27.0314 13.3959 26.0103C13.6852 25.2869 13.1525 24.5 12.3734 24.5H11.7717C9.68863 24.5 8 22.8114 8 20.7283V16.5C8 13.6997 8 12.2996 8.54497 11.23C9.02433 10.2892 9.78924 9.52433 10.73 9.04497C11.7996 8.5 13.1997 8.5 16 8.5H18C20.8003 8.5 22.2004 8.5 23.27 9.04497C24.2108 9.52433 24.9757 10.2892 25.455 11.23ZM15 15.25L19 15.25C19.4142 15.25 19.75 14.9142 19.75 14.5C19.75 14.0858 19.4142 13.75 19 13.75L15 13.75C14.5858 13.75 14.25 14.0858 14.25 14.5C14.25 14.9142 14.5858 15.25 15 15.25ZM13 17.75C12.5858 17.75 12.25 18.0858 12.25 18.5C12.25 18.9142 12.5858 19.25 13 19.25H21C21.4142 19.25 21.75 18.9142 21.75 18.5C21.75 18.0858 21.4142 17.75 21 17.75H13Z" fill="currentColor"/>
</svg>
