<svg width="23" height="22" viewBox="0 0 23 22" fill="none" xmlns="http://www.w3.org/2000/svg">
<rect x="0.5" width="22" height="22" rx="11" fill="#FAC33D"/>
<path d="M17.8862 8.81296V14.063C17.8862 14.3356 17.5958 14.5744 17.3219 14.4829L14.5 13.6167V9.2592C14.5 9.2592 17.3202 8.39346 17.3219 8.39295C17.5917 8.31011 17.8862 8.52484 17.8862 8.81296Z" fill="#1D2023"/>
<path d="M13.4257 7H6.3125C5.58874 7 5 7.58874 5 8.3125V14.4375C5 15.1613 5.58874 15.75 6.3125 15.75H13.4257C14.1495 15.75 14.7382 15.1613 14.7382 14.4375V8.3125C14.7382 7.58874 14.1495 7 13.4257 7ZM8.9375 10.0625H7.625C7.38339 10.0625 7.1875 9.86661 7.1875 9.625C7.1875 9.38339 7.38339 9.1875 7.625 9.1875H8.9375C9.17911 9.1875 9.375 9.38339 9.375 9.625C9.375 9.86661 9.17911 10.0625 8.9375 10.0625Z" fill="#1D2023"/>
</svg>
