<svg width="140" height="95" viewBox="0 0 140 95" fill="none" xmlns="http://www.w3.org/2000/svg">
<path d="M8 94.7692H132C136.418 94.7692 140 91.1875 140 86.7692V27.4385C140 25.3797 139.206 23.4001 137.784 21.9116L119.209 2.47314C117.7 0.893548 115.61 0 113.425 0H8C3.58172 0 0 3.58172 0 8V86.7692C0 91.1875 3.58172 94.7692 8 94.7692Z" fill="#D0D0D0"/>
<path opacity="0.6" fill-rule="evenodd" clip-rule="evenodd" d="M117.771 0.969736C117.436 0.618888 116.844 0.856428 116.844 1.34194V24.7692H139.276C139.75 24.7692 139.993 24.2011 139.665 23.8586L117.771 0.969736Z" fill="white"/>
<circle cx="69.9976" cy="47.3846" r="30.1538" fill="white"/>
<path d="M82.9255 45.5193C84.3614 46.3483 84.3614 48.4208 82.9255 49.2498L65.1562 59.5089C63.7203 60.3379 61.9255 59.3017 61.9255 57.6436L61.9255 37.1255C61.9255 35.4675 63.7204 34.4312 65.1562 35.2602L82.9255 45.5193Z" fill="#111111"/>
</svg>
