<svg width="100%" height="100%" viewBox="0 0 24 24" fill="none" xmlns="http://www.w3.org/2000/svg">
<g clip-path="url(#clip0_2505_42733)">
<path d="M19.31 4.76C17.38 2.92 14.86 1.95 12.2 2C9.53 1.94 7.02 2.92 5.09 4.76C3.17 6.6 2.07 9.07 2 11.74C2 14.01 2.82 16.19 4.3 17.9L3.85 18.35C3.59 18.61 3.42 18.93 3.35 19.29C3.28 19.64 3.31 20.01 3.45 20.34C3.59 20.68 3.83 20.96 4.13 21.16C4.43 21.37 4.78 21.47 5.14 21.47H12.42C15 21.47 17.44 20.5 19.31 18.72C21.23 16.88 22.33 14.4 22.4 11.73C22.33 9.07 21.23 6.6 19.31 4.76ZM18.04 17.44C16.46 18.94 14.4 19.74 12.2 19.67H5.12V19.62L6.19 18.55C6.27 18.46 6.34 18.36 6.39 18.25C6.43 18.14 6.45 18.03 6.45 17.91C6.45 17.79 6.43 17.67 6.38 17.56C6.33 17.45 6.27 17.35 6.18 17.27C5.43 16.55 4.83 15.7 4.42 14.75C4.01 13.79 3.8 12.78 3.8 11.74C3.86 9.56 4.77 7.53 6.35 6.04C7.89 4.59 9.88 3.8 11.98 3.8H12.21C14.39 3.76 16.46 4.54 18.05 6.04C19.63 7.53 20.54 9.56 20.6 11.73C20.54 13.91 19.63 15.94 18.04 17.44Z" fill="currentColor"/>
<path d="M13.5894 17.09H10.7994C10.6094 17.09 10.4394 17.02 10.3094 16.89C10.1794 16.76 10.1094 16.58 10.1094 16.4C10.1094 16.22 10.1794 16.04 10.3094 15.91C10.4394 15.78 10.6194 15.71 10.7994 15.71H13.5894C13.7794 15.71 13.9494 15.78 14.0794 15.91C14.2094 16.04 14.2794 16.22 14.2794 16.4C14.2794 16.58 14.2094 16.76 14.0794 16.89C13.9494 17.02 13.7694 17.09 13.5894 17.09Z" fill="currentColor"/>
<path d="M14.2302 15.75C14.0602 15.58 13.8302 15.49 13.5902 15.49H10.8002C10.5702 15.49 10.3402 15.59 10.1702 15.75C10.0002 15.92 9.91016 16.15 9.91016 16.39C9.91016 16.63 10.0002 16.86 10.1702 17.02C10.3402 17.19 10.5702 17.29 10.8002 17.29H13.5902C13.8302 17.29 14.0602 17.19 14.2302 17.02C14.4002 16.86 14.4902 16.62 14.4902 16.39C14.4902 16.16 14.4002 15.92 14.2302 15.75ZM13.5902 16.89H10.8002C10.6702 16.89 10.5402 16.83 10.4502 16.74C10.3602 16.65 10.3102 16.52 10.3102 16.39C10.3102 16.26 10.3602 16.13 10.4502 16.04C10.5502 15.94 10.6702 15.89 10.8002 15.89H13.5902C13.7302 15.89 13.8502 15.94 13.9502 16.04C14.0402 16.13 14.0902 16.26 14.0902 16.39C14.0902 16.52 14.0402 16.65 13.9502 16.74C13.8502 16.83 13.7302 16.89 13.5902 16.89Z" fill="currentColor"/>
<path d="M12.9 15.49V16.39C12.9 16.57 12.82 16.75 12.69 16.88H12.68C12.55 17.01 12.38 17.09 12.2 17.09C12.01 17.09 11.85 17.01 11.72 16.89H11.71C11.57 16.75 11.5 16.57 11.5 16.39V15.49H12.9Z" fill="currentColor"/>
<path d="M12.7008 15.49V16.39C12.7008 16.52 12.6408 16.65 12.5508 16.74C12.3608 16.93 12.0308 16.93 11.8508 16.74C11.7508 16.65 11.7008 16.52 11.7008 16.39V15.49H11.3008V16.39C11.3008 16.56 11.3608 16.74 11.4508 16.89C11.4808 16.94 11.5208 16.98 11.5608 17.02C11.5908 17.05 11.6208 17.07 11.6508 17.09C11.8008 17.22 12.0008 17.29 12.2008 17.29C12.4008 17.29 12.6008 17.22 12.7508 17.09C12.7808 17.07 12.8108 17.05 12.8308 17.02C12.8708 16.98 12.9108 16.94 12.9408 16.89C13.0408 16.74 13.1008 16.56 13.1008 16.39V15.49H12.7008Z" fill="currentColor"/>
<path d="M13.1008 9.88V15.49H11.3008V10.66C11.1608 10.59 11.0408 10.47 10.9608 10.33C10.8508 10.15 10.8208 9.93 10.8508 9.73C10.8908 9.52 10.9908 9.33 11.1608 9.19C11.3208 9.06 11.5208 8.98 11.7308 8.98H12.2008C12.4408 8.98 12.6708 9.08 12.8308 9.24C13.0008 9.41 13.1008 9.64 13.1008 9.88Z" fill="currentColor"/>
<path d="M12.2003 8.22C12.8244 8.22 13.3303 7.71408 13.3303 7.09C13.3303 6.46592 12.8244 5.96 12.2003 5.96C11.5762 5.96 11.0703 6.46592 11.0703 7.09C11.0703 7.71408 11.5762 8.22 12.2003 8.22Z" fill="currentColor"/>
</g>
<defs>
<clipPath id="clip0_2505_42733">
<rect width="20.4" height="19.47" fill="white" transform="translate(2 2)"/>
</clipPath>
</defs>
</svg>
