<svg width="34" height="34" viewBox="0 0 34 34" fill="none" xmlns="http://www.w3.org/2000/svg">
<rect width="34" height="34" rx="17" fill="black" fill-opacity="0.6"/>
<g filter="url(#filter0_d_3111_76234)">
<g clip-path="url(#clip0_3111_76234)">
<ellipse cx="15.6463" cy="19.8616" rx="7.23471" ry="5.627" fill="white"/>
<path d="M24.6549 16.5997C24.2604 16.3507 23.8185 16.1492 23.3292 15.9945C23.2259 15.9602 23.1529 15.9345 23.11 15.9174C23.0672 15.9002 23.0153 15.8682 22.9558 15.8209C22.8958 15.7735 22.876 15.7199 22.8981 15.6599C22.9197 15.5999 22.9387 15.5142 22.9558 15.4024C23.3418 14.4153 23.3418 13.6514 22.9558 13.1107C22.5608 12.5872 21.9042 12.3252 20.9856 12.3252C20.0671 12.3252 19.0114 12.5786 17.8187 13.085L17.7411 13.1107C17.6897 13.1279 17.632 13.1427 17.5675 13.1558C17.503 13.1689 17.4408 13.1707 17.3808 13.1621C17.3209 13.1536 17.278 13.1238 17.2523 13.0719C17.2266 13.0205 17.2311 12.9344 17.2654 12.8145C17.6514 11.5699 17.5657 10.6729 17.0079 10.1237C16.373 9.48878 15.3151 9.45856 13.8342 10.0335C12.3537 10.6089 10.8882 11.6213 9.43752 13.0719C8.33903 14.1704 7.49126 15.2779 6.89467 16.3936C6.29807 17.5101 6 18.5612 6 19.5483C6 20.475 6.27913 21.3314 6.83695 22.1169C7.39521 22.9024 8.13069 23.5504 9.0452 24.0609C9.95926 24.5714 10.9915 24.9709 12.1414 25.2582C13.2917 25.5454 14.4718 25.6893 15.6817 25.6893C16.8916 25.6893 18.0527 25.5562 19.1643 25.2902C20.2759 25.0241 21.2458 24.6679 22.0738 24.2214C22.9021 23.7755 23.6255 23.2709 24.2432 22.7085C24.8615 22.1462 25.3291 21.5586 25.6466 20.9449C25.964 20.3312 26.1232 19.7323 26.1232 19.1493C26.1232 18.6 25.9776 18.0999 25.6853 17.6494C25.3936 17.1985 25.0504 16.8486 24.6549 16.5997ZM20.4517 22.5034C19.1945 23.5202 17.6086 24.1276 15.6948 24.3252C14.4416 24.4456 13.2637 24.3554 12.1607 24.055C11.0577 23.7543 10.1631 23.2866 9.4763 22.6517C8.78952 22.0163 8.40757 21.2867 8.33046 20.4629C8.21006 19.2097 8.77869 18.0747 10.0364 17.0578C11.2936 16.0405 12.8795 15.4335 14.7933 15.236C16.0465 15.1156 17.2244 15.2058 18.3269 15.5066C19.4295 15.8069 20.3246 16.2745 21.0114 16.9099C21.6981 17.5453 22.0801 18.2749 22.1572 19.0988C22.2771 20.3519 21.709 21.4869 20.4513 22.5043L20.4517 22.5034Z" fill="#D33437"/>
<path d="M16.0682 17.1669C15.1587 16.9351 14.255 17.0167 13.3581 17.4118C12.4611 17.8063 11.8109 18.4029 11.4077 19.2011C11.0042 20.0164 10.9762 20.8209 11.3239 21.615C11.6715 22.4091 12.3047 22.9516 13.2228 23.2438C14.1756 23.5527 15.137 23.5013 16.1065 23.0891C17.0765 22.6769 17.7543 22.0334 18.1407 21.1582C18.5267 20.2996 18.5159 19.482 18.1083 18.7055C17.7002 17.929 17.0201 17.4163 16.0678 17.1673L16.0682 17.1669ZM14.6906 21.3381C14.5016 21.6298 14.2338 21.8337 13.8857 21.9496C13.538 22.0655 13.2183 22.0546 12.9265 21.9175C12.6348 21.78 12.4503 21.5636 12.3732 21.2673C12.2961 20.9715 12.3516 20.6775 12.5405 20.3857C12.7204 20.1021 12.9784 19.905 13.313 19.7936C13.648 19.6818 13.961 19.6863 14.2527 19.8062C14.5531 19.9348 14.7465 20.1494 14.8322 20.4497C14.9179 20.7501 14.871 21.0459 14.6906 21.3381ZM15.9009 19.7801C15.8409 19.8919 15.7462 19.9713 15.6177 20.0186C15.4892 20.066 15.3643 20.0678 15.2443 20.025C14.9869 19.9046 14.9309 19.7115 15.077 19.4455C15.137 19.3337 15.2295 19.2543 15.3539 19.2069C15.4784 19.1596 15.6006 19.1578 15.721 19.2006C15.8324 19.2435 15.9077 19.3228 15.9465 19.4387C15.9852 19.5542 15.9699 19.6683 15.9014 19.7796L15.9009 19.7801Z" fill="black"/>
<path d="M24.3976 14.1344C24.4922 14.3188 24.6379 14.4455 24.8354 14.5141C25.0329 14.5741 25.2237 14.5569 25.4081 14.4627C25.5925 14.3684 25.7193 14.2223 25.7882 14.0248C25.951 13.5441 25.9794 13.04 25.8717 12.5124C25.7644 11.9848 25.5308 11.5189 25.1705 11.1154C24.8102 10.7118 24.3764 10.4308 23.8699 10.2721C23.3635 10.1134 22.8526 10.0899 22.3381 10.2013C22.1316 10.2441 21.9733 10.3537 21.8615 10.5296C21.7501 10.7055 21.7158 10.8967 21.7591 11.1023C21.7934 11.3084 21.9007 11.4671 22.0806 11.5785C22.261 11.6899 22.454 11.7246 22.6601 11.6817C23.2008 11.5699 23.6598 11.7205 24.0377 12.1322C24.4156 12.5439 24.5184 13.0206 24.3466 13.5613C24.2862 13.7588 24.3033 13.9495 24.3976 14.1344Z" fill="#F19F4B"/>
<path d="M28.9492 11.8815C28.73 10.7961 28.2475 9.84104 27.5007 9.01718C26.754 8.18474 25.8611 7.60754 24.8226 7.28557C23.7841 6.96359 22.7375 6.91444 21.6813 7.13766C21.441 7.18906 21.2543 7.31578 21.1213 7.51735C20.9883 7.71937 20.9477 7.94033 20.9991 8.18068C21.0505 8.42103 21.179 8.60772 21.3855 8.74075C21.5912 8.87378 21.8144 8.91481 22.0547 8.86295C22.8015 8.70873 23.5442 8.74526 24.2824 8.97253C25.0206 9.19981 25.6559 9.60971 26.188 10.2018C26.7202 10.7853 27.0638 11.4635 27.218 12.236C27.3727 13.0084 27.3298 13.7466 27.0895 14.4501C27.0209 14.6819 27.0421 14.9051 27.154 15.1197C27.2653 15.3344 27.4372 15.4801 27.6689 15.5576C27.9007 15.6347 28.1239 15.6176 28.3386 15.5062C28.5532 15.3948 28.6993 15.223 28.7764 14.9912C29.111 14.0041 29.1688 12.9679 28.9501 11.882L28.9492 11.8815Z" fill="#F19F4B"/>
</g>
</g>
<defs>
<filter id="filter0_d_3111_76234" x="2" y="5" width="31.0786" height="26.6897" filterUnits="userSpaceOnUse" color-interpolation-filters="sRGB">
<feFlood flood-opacity="0" result="BackgroundImageFix"/>
<feColorMatrix in="SourceAlpha" type="matrix" values="0 0 0 0 0 0 0 0 0 0 0 0 0 0 0 0 0 0 127 0" result="hardAlpha"/>
<feOffset dy="2"/>
<feGaussianBlur stdDeviation="2"/>
<feColorMatrix type="matrix" values="0 0 0 0 0 0 0 0 0 0 0 0 0 0 0 0 0 0 0.05 0"/>
<feBlend mode="normal" in2="BackgroundImageFix" result="effect1_dropShadow_3111_76234"/>
<feBlend mode="normal" in="SourceGraphic" in2="effect1_dropShadow_3111_76234" result="shape"/>
</filter>
<clipPath id="clip0_3111_76234">
<rect width="23.0787" height="18.6897" fill="white" transform="translate(6 7)"/>
</clipPath>
</defs>
</svg>
