<svg width="40" height="40" viewBox="0 0 40 40" fill="none" xmlns="http://www.w3.org/2000/svg">
<rect width="40" height="40" rx="20" fill="url(#paint0_linear_1188_11742)"/>
<g clip-path="url(#clip0_1188_11742)">
<path d="M22.2035 17.7953C21.9664 17.557 21.7039 17.3457 21.4203 17.1653C20.6691 16.6841 19.7957 16.4287 18.9035 16.4287C17.6653 16.4264 16.4774 16.9185 15.6036 17.7953L11.3638 22.0379C10.4912 22.912 10.001 24.0961 10.0002 25.3311C9.99864 27.9079 12.0865 29.9982 14.6638 29.9998C15.9001 30.0041 17.0868 29.5147 17.9606 28.6399L21.4605 25.1405C21.5242 25.0776 21.5597 24.9913 21.559 24.9018C21.5578 24.7179 21.4078 24.5695 21.2238 24.5706H21.0906C20.3594 24.5734 19.6348 24.4328 18.9574 24.1574C18.8324 24.1059 18.6891 24.1352 18.5942 24.2309L16.0774 26.7503C15.2958 27.5318 14.029 27.5318 13.2474 26.7503C12.4658 25.9688 12.4658 24.7023 13.2474 23.9208L17.504 19.668C18.2848 18.8884 19.5496 18.8884 20.3305 19.668C20.8566 20.1632 21.6777 20.1632 22.2039 19.668C22.4304 19.4415 22.5675 19.1411 22.5906 18.8213C22.6148 18.4397 22.4742 18.0655 22.2039 17.7949L22.2035 17.7953Z" fill="white"/>
<path d="M28.6333 11.3668C26.8106 9.54442 23.856 9.54442 22.0334 11.3668L18.537 14.8595C18.4409 14.956 18.4132 15.1009 18.4671 15.2262C18.5202 15.3516 18.6444 15.4321 18.7803 15.4297H18.9038C19.6342 15.4285 20.3576 15.5699 21.0338 15.8464C21.1588 15.898 21.3022 15.8687 21.3971 15.773L23.9072 13.2668C24.6888 12.4853 25.9556 12.4853 26.7372 13.2668C27.5188 14.0483 27.5188 15.3149 26.7372 16.0964L23.6107 19.2193L23.5841 19.2494L22.4908 20.3359C21.71 21.1154 20.4451 21.1154 19.6643 20.3359C19.1381 19.8407 18.3171 19.8407 17.7909 20.3359C17.5632 20.5644 17.4257 20.8674 17.4042 21.1892C17.38 21.5708 17.5206 21.945 17.7909 22.2156C18.1768 22.6031 18.628 22.919 19.1241 23.1487C19.194 23.1819 19.2639 23.2088 19.3342 23.2385C19.4041 23.2686 19.4776 23.2916 19.5475 23.3186C19.6174 23.3451 19.6909 23.3685 19.7608 23.3885L19.9577 23.4416C20.0909 23.4748 20.2244 23.5017 20.3612 23.5248C20.5256 23.5494 20.6916 23.5646 20.8576 23.5716H21.1108L21.3108 23.5482C21.3842 23.5451 21.4607 23.5283 21.5475 23.5283H21.6607L21.8908 23.4951L21.9975 23.4752L22.1908 23.4353H22.2275C23.0463 23.2295 23.7939 22.8058 24.3908 22.209L28.634 17.9664C30.4567 16.144 30.4567 13.1899 28.634 11.3675L28.6333 11.3668Z" fill="white"/>
</g>
<defs>
<linearGradient id="paint0_linear_1188_11742" x1="7.22222" y1="5.0375" x2="34.1117" y2="35.063" gradientUnits="userSpaceOnUse">
<stop stop-color="#AC42FF"/>
<stop offset="1" stop-color="#7D00FA"/>
</linearGradient>
<clipPath id="clip0_1188_11742">
<rect width="20" height="20" fill="white" transform="translate(9.99992 10)"/>
</clipPath>
</defs>
</svg>
