<svg width="28" height="28" viewBox="0 0 28 28" fill="none" xmlns="http://www.w3.org/2000/svg">
<path d="M15.0769 9.69231C15.0769 9.09754 14.5948 8.61539 14 8.61539C13.4052 8.61539 12.9231 9.09754 12.9231 9.69231V12.9231H9.69231C9.09754 12.9231 8.61539 13.4052 8.61539 14C8.61539 14.5948 9.09754 15.0769 9.69231 15.0769H12.9231V18.3077C12.9231 18.9025 13.4052 19.3846 14 19.3846C14.5948 19.3846 15.0769 18.9025 15.0769 18.3077V15.0769H18.3077C18.9025 15.0769 19.3846 14.5948 19.3846 14C19.3846 13.4052 18.9025 12.9231 18.3077 12.9231H15.0769V9.69231Z" fill="currentColor"/>
<path fill-rule="evenodd" clip-rule="evenodd" d="M20.4092 0.177661C18.7692 -2.08616e-05 16.7021 -1.15353e-05 14.065 1.90022e-07H13.935C11.2979 -1.15353e-05 9.23083 -2.08616e-05 7.59084 0.177661C5.91725 0.358983 4.56121 0.735645 3.40341 1.57683C2.70249 2.08609 2.08609 2.70249 1.57683 3.40341C0.735645 4.56121 0.358983 5.91725 0.177661 7.59084C-2.08616e-05 9.23083 -1.15353e-05 11.2979 1.90022e-07 13.935V14.065C-1.15353e-05 16.7021 -2.08616e-05 18.7692 0.177661 20.4092C0.358983 22.0828 0.735645 23.4388 1.57683 24.5966C2.08609 25.2975 2.70249 25.9139 3.40341 26.4232C4.56121 27.2644 5.91725 27.641 7.59084 27.8223C9.2308 28 11.2979 28 13.9349 28H14.065C16.702 28 18.7692 28 20.4092 27.8223C22.0828 27.641 23.4388 27.2644 24.5966 26.4232C25.2975 25.9139 25.9139 25.2975 26.4232 24.5966C27.2644 23.4388 27.641 22.0828 27.8223 20.4092C28 18.7692 28 16.7021 28 14.0651V13.935C28 11.298 28 9.2308 27.8223 7.59084C27.641 5.91725 27.2644 4.56121 26.4232 3.40341C25.9139 2.70249 25.2975 2.08609 24.5966 1.57683C23.4388 0.735645 22.0828 0.358983 20.4092 0.177661ZM4.66941 3.31933C5.39886 2.78936 6.3325 2.48044 7.82283 2.31898C9.33332 2.15532 11.2839 2.15385 14 2.15385C16.7161 2.15385 18.6667 2.15532 20.1772 2.31898C21.6675 2.48044 22.6011 2.78936 23.3306 3.31933C23.8487 3.69574 24.3043 4.15134 24.6807 4.66941C25.2106 5.39886 25.5196 6.3325 25.681 7.82283C25.8447 9.33332 25.8462 11.2839 25.8462 14C25.8462 16.7161 25.8447 18.6667 25.681 20.1772C25.5196 21.6675 25.2106 22.6011 24.6807 23.3306C24.3043 23.8487 23.8487 24.3043 23.3306 24.6807C22.6011 25.2106 21.6675 25.5196 20.1772 25.681C18.6667 25.8447 16.7161 25.8462 14 25.8462C11.2839 25.8462 9.33332 25.8447 7.82283 25.681C6.3325 25.5196 5.39886 25.2106 4.66941 24.6807C4.15134 24.3043 3.69574 23.8487 3.31933 23.3306C2.78936 22.6011 2.48044 21.6675 2.31898 20.1772C2.15532 18.6667 2.15385 16.7161 2.15385 14C2.15385 11.2839 2.15532 9.33332 2.31898 7.82283C2.48044 6.3325 2.78936 5.39886 3.31933 4.66941C3.69574 4.15134 4.15134 3.69574 4.66941 3.31933Z" fill="currentColor"/>
</svg>
