<svg width="8" height="6" viewBox="0 0 8 6" fill="none" xmlns="http://www.w3.org/2000/svg">
<path d="M3.99791 5.25C4.16903 5.25 4.31093 5.18553 4.44449 5.0437L7.58723 1.73424C7.69574 1.62679 7.75 1.48926 7.75 1.33023C7.75 1.00788 7.49958 0.750002 7.18656 0.750002C7.02796 0.750002 6.89023 0.814471 6.77754 0.930517L3.99374 3.87034L1.21828 0.930517C1.10559 0.814471 0.96369 0.750001 0.809266 0.750001C0.496244 0.750001 0.250001 1.00788 0.250001 1.33023C0.25 1.49355 0.300084 1.62679 0.408598 1.73424L3.55133 5.0437C3.68489 5.18553 3.82679 5.2457 3.99791 5.25Z" fill="#FAC33D"/>
</svg>
