<svg width="100%" height="100%" viewBox="0 0 28 28" fill="none" xmlns="http://www.w3.org/2000/svg">
<path d="M14.0107 19.1707C13.5277 19.1707 13.1357 18.7855 13.1357 18.309V9.69158C13.1357 9.21589 13.5277 8.82983 14.0107 8.82983C14.4937 8.82983 14.8857 9.21589 14.8857 9.69158V18.309C14.8857 18.7855 14.4937 19.1707 14.0107 19.1707Z" fill="currentColor"/>
<path d="M8.83105 14.0004C8.83105 13.5247 9.21625 13.1387 9.6928 13.1387H18.3102C18.7859 13.1387 19.172 13.5247 19.172 14.0004C19.172 14.4761 18.7859 14.8622 18.3102 14.8622H9.6928C9.21625 14.8622 8.83105 14.4761 8.83105 14.0004Z" fill="currentColor"/>
<rect x="3.20801" y="3.79163" width="21.5833" height="20.4167" rx="10.2083" stroke="currentColor" stroke-width="1.75"/>
</svg>
