<svg width="30" height="30" viewBox="0 0 30 30" fill="none" xmlns="http://www.w3.org/2000/svg">
<g clip-path="url(#clip0_2492_43625)">
<path d="M7.29961 22.3C7.29961 22.9 6.79961 23.4 6.19961 23.4C5.59961 23.4 5.09961 22.9 5.09961 22.3C5.09961 21.7 5.59961 21.2 6.19961 21.2C6.79961 21.2 7.29961 21.7 7.29961 22.3Z" fill="white"/>
<path d="M10.4996 22.2C10.4996 22.4 10.4996 22.7 10.2996 22.8C10.1996 23 9.99961 23.1 9.69961 23.1H9.59961C9.19961 23.1 8.79961 22.8 8.69961 22.4C8.59961 21.7 8.29961 21.1 7.79961 20.6C7.29961 20.1 6.69961 19.8 5.89961 19.7C5.69961 19.7 5.39961 19.5 5.29961 19.4C5.19961 19.2 5.09961 19 5.09961 18.8C5.09961 18.3 5.59961 18 6.09961 18.1C7.19961 18.2 8.19961 18.7 8.99961 19.5C9.79961 20.2 10.2996 21.2 10.3996 22.3L10.4996 22.2Z" fill="white"/>
<path d="M13.7 23C13.7 23.1 13.5 23.2 13.3 23.2H13C12.5 23.2 12.2 22.9 12.1 22.4C12 20.9 11.3 19.4 10.1 18.3C9 17.2 7.4 16.5 5.8 16.4C5.6 16.4 5.3 16.3 5.2 16.1C5.1 15.9 5 15.7 5 15.5C5 15 5.5 14.7 6 14.7C8 14.8 10 15.7 11.4 17.1C12.8 18.5 13.7 20.3 13.9 22.3C13.9 22.5 13.9 22.8 13.7 22.9V23Z" fill="white"/>
<path d="M24.3 22C23.7 22.7 22.9 23.1 21.9 23.2C21.8 23.2 21.7 23.2 21.5 23.2C21.3 23.2 21.3 23.2 21.1 23.2H17C16.5 23.2 16.1 22.8 16.1 22.3C16.1 21.8 16.5 21.5 17 21.5H21C21.8 21.5 22.3 21.3 22.6 21C22.9 20.7 23.1 20.2 23.1 19.4V10.8C23.1 10.1 22.9 9.6 22.6 9.2C22.3 8.9 21.7 8.7 21 8.7H9C8.2 8.7 7.7 8.9 7.3 9.2C7 9.5 6.8 10 6.8 10.8V11.8C6.8 12.3 6.4 12.7 5.9 12.7C5.4 12.7 5 12.3 5 11.8V10.8C5 9.9 5.2 9 5.7 8.3C6.5 7.6 7.3 7.1 8.3 7C8.5 7 8.8 7 9 7H21.1C21.2 7 21.4 7 21.5 7C23.3 7 24.8 8.3 25 10.1C25 10.3 25 10.6 25 10.8V19.6C25 20.5 24.8 21.4 24.2 22.1L24.3 22Z" fill="white"/>
</g>
<defs>
<clipPath id="clip0_2492_43625">
<rect width="20.1" height="16.4" fill="white" transform="translate(5 7)"/>
</clipPath>
</defs>
</svg>
