<svg width="22" height="22" viewBox="0 0 22 22" fill="none" xmlns="http://www.w3.org/2000/svg">
<path d="M10.9998 15.864C11.1796 15.864 11.3521 15.7926 11.4792 15.6654C11.4792 15.6654 11.4792 15.6654 11.4792 15.6654L13.5722 13.5724C13.8369 13.3076 13.8369 12.8785 13.5722 12.6137C13.3074 12.349 12.8783 12.349 12.6135 12.6137L11.6777 13.5494V10.1628C11.6777 9.78843 11.3742 9.48491 10.9998 9.48491C10.6254 9.48491 10.3219 9.78843 10.3219 10.1628V13.5494L9.38614 12.6137C9.38614 12.6137 9.38614 12.6137 9.38614 12.6137C9.12143 12.349 8.69219 12.349 8.42746 12.6137C8.16272 12.8785 8.16272 13.3076 8.42746 13.5724L8.46282 13.537L8.42746 13.5724L10.5205 15.6654C10.5205 15.6654 10.5205 15.6654 10.5205 15.6654C10.6476 15.7926 10.8201 15.864 10.9998 15.864Z" fill="#9C9C9C" stroke="#9C9C9C" stroke-width="0.1"/>
<path d="M1.95 11V11.05H1.95823C1.95 11.5222 1.95 12.0511 1.95 12.6459V12.6463V12.7025V12.7052C1.95 13.8516 1.95 14.7534 2.00928 15.479C2.06974 16.219 2.19521 16.835 2.48014 17.3942C2.94647 18.3095 3.69055 19.0535 4.60577 19.5199L4.62847 19.4753L4.60577 19.5199C5.16498 19.8048 5.78103 19.9303 6.521 19.9907C7.24665 20.05 8.14867 20.05 9.29521 20.05H9.29743H12.7025H12.7048C13.8513 20.05 14.7533 20.05 15.479 19.9907C16.219 19.9303 16.835 19.8048 17.3942 19.5199C18.3095 19.0535 19.0535 18.3095 19.5199 17.3942C19.8048 16.835 19.9303 16.219 19.9907 15.479C20.05 14.7533 20.05 13.8513 20.05 12.7048V12.7025V12.6463V12.6459C20.05 12.0513 20.05 11.5222 20.0418 11.05H20.05V11V10.9519V10.9481C20.05 9.0187 20.05 7.50146 19.8907 6.31645C19.7273 5.10136 19.3854 4.13461 18.6254 3.37462C17.8654 2.61463 16.8986 2.27267 15.6836 2.10931C14.4985 1.94999 12.9813 1.94999 11.0519 1.95L11.0481 1.95H10.9519L10.9481 1.95C9.01869 1.94999 7.50145 1.94999 6.31644 2.10931C5.10136 2.27267 4.13461 2.61463 3.37462 3.37462C2.61463 4.13461 2.27267 5.10136 2.10931 6.31644C1.94999 7.50145 1.94999 9.01868 1.95 10.9481L1.95 10.9519V11ZM18.5469 6.4971L18.547 6.49712C18.5545 6.55294 18.5616 6.60968 18.5684 6.66739C18.223 6.33314 17.8278 6.04988 17.3942 5.82897C16.835 5.54404 16.219 5.41858 15.479 5.35812C14.7534 5.29884 13.8516 5.29884 12.7052 5.29884H12.7025H9.29749H9.2948C8.14844 5.29884 7.24657 5.29884 6.52099 5.35812C5.78103 5.41858 5.16498 5.54404 4.60577 5.82897C4.17221 6.04988 3.77705 6.33313 3.43164 6.66737C3.4384 6.60967 3.44552 6.55292 3.45303 6.4971C3.59618 5.43237 3.86723 4.79941 4.33333 4.33333C4.79941 3.86723 5.43237 3.59618 6.4971 3.45303C7.58135 3.30725 9.00749 3.30581 11 3.30581C12.9925 3.30581 14.4186 3.30725 15.5029 3.45303C16.5676 3.59618 17.2005 3.86723 17.6667 4.33333C18.1328 4.79941 18.4039 5.43237 18.5469 6.4971ZM5.22129 7.03701C5.55752 6.8657 5.97528 6.76304 6.63139 6.70943C7.29542 6.65518 8.14218 6.65465 9.32558 6.65465H12.6744C13.8578 6.65465 14.7046 6.65518 15.3686 6.70943C16.0247 6.76304 16.4425 6.8657 16.7787 7.03701C17.4388 7.37335 17.9755 7.91003 18.3118 8.57013C18.4831 8.90635 18.5858 9.32411 18.6394 9.98025C18.6936 10.6442 18.6942 11.491 18.6942 12.6744C18.6942 13.8578 18.6936 14.7046 18.6394 15.3686C18.5858 16.0247 18.4831 16.4425 18.3118 16.7787C17.9755 17.4388 17.4388 17.9755 16.7787 18.3118C16.4425 18.4831 16.0247 18.5858 15.3686 18.6394C14.7046 18.6936 13.8578 18.6942 12.6744 18.6942H9.32558C8.14218 18.6942 7.29542 18.6936 6.63139 18.6394C5.97528 18.5858 5.55751 18.4831 5.22129 18.3118C4.56119 17.9755 4.02451 17.4388 3.68818 16.7787C3.51686 16.4425 3.4142 16.0247 3.36059 15.3686C3.30634 14.7046 3.30581 13.8578 3.30581 12.6744C3.30581 11.491 3.30634 10.6442 3.36059 9.98025C3.4142 9.32411 3.51686 8.90635 3.68818 8.57013C4.02451 7.91003 4.56119 7.37336 5.22129 7.03701Z" fill="#9C9C9C" stroke="#9C9C9C" stroke-width="0.1"/>
</svg>
