<svg width="59" height="59" viewBox="0 0 59 59" fill="none" xmlns="http://www.w3.org/2000/svg">
<path d="M49.7812 7.375H9.21875C5.14406 7.375 1.84375 10.6753 1.84375 14.75V35.0312C1.84375 37.0667 3.49575 38.7188 5.53125 38.7188H16.5938V53.4688L34.0246 38.7188H53.4688C55.5042 38.7188 57.1562 37.0667 57.1562 35.0312V14.75C57.1562 10.6753 53.8559 7.375 49.7812 7.375Z" fill="#FAC33D"/>
<path d="M20.2812 14.75H27.6562C28.674 14.75 29.5 13.924 29.5 12.9062C29.5 11.8885 28.674 11.0625 27.6562 11.0625H20.2812C19.2635 11.0625 18.4375 11.8885 18.4375 12.9062C18.4375 13.924 19.2635 14.75 20.2812 14.75Z" fill="#35373A"/>
<path d="M20.2812 22.125H35.0312C36.049 22.125 36.875 21.299 36.875 20.2812C36.875 19.2635 36.049 18.4375 35.0312 18.4375H20.2812C19.2635 18.4375 18.4375 19.2635 18.4375 20.2812C18.4375 21.299 19.2635 22.125 20.2812 22.125Z" fill="#35373A"/>
<path d="M20.2812 29.5H38.7188C39.7365 29.5 40.5625 28.674 40.5625 27.6562C40.5625 26.6385 39.7365 25.8125 38.7188 25.8125H20.2812C19.2635 25.8125 18.4375 26.6385 18.4375 27.6562C18.4375 28.674 19.2635 29.5 20.2812 29.5Z" fill="#35373A"/>
<path d="M53.4688 0H5.53125C2.48169 0 0 2.48169 0 5.53125V35.0312C0 38.0808 2.48169 40.5625 5.53125 40.5625H9.21875C10.2365 40.5625 11.0625 39.7365 11.0625 38.7187C11.0625 37.701 10.2365 36.875 9.21875 36.875H5.53125C4.5135 36.875 3.6875 36.049 3.6875 35.0312V5.53125C3.6875 4.5135 4.5135 3.6875 5.53125 3.6875H53.4688C54.4865 3.6875 55.3125 4.5135 55.3125 5.53125V35.0312C55.3125 36.049 54.4865 36.875 53.4688 36.875H33.9619C33.5231 36.875 33.1027 37.0299 32.7671 37.3138L18.4375 49.4826V38.7187C18.4375 37.701 17.6115 36.875 16.5938 36.875C15.576 36.875 14.75 37.701 14.75 38.7187V53.4687C14.75 55.047 16.5974 55.8804 17.7885 54.8737L34.6404 40.5625H53.4688C56.5183 40.5625 59 38.0808 59 35.0312V5.53125C59 2.48169 56.5183 0 53.4688 0Z" fill="#35373A"/>
</svg>
