<svg width="32" height="32" viewBox="0 0 32 32" fill="none" xmlns="http://www.w3.org/2000/svg">
<path d="M23.1441 1.99963H9.67375C8.69971 2.00045 7.76584 2.3254 7.07709 2.90317C6.38834 3.48094 6.00097 4.26433 6 5.08142V27.6812C6.00097 28.4983 6.38834 29.2817 7.07709 29.8594C7.76584 30.4372 8.69971 30.7621 9.67375 30.763H23.1441C24.1182 30.7621 25.0521 30.4372 25.7408 29.8594C26.4296 29.2817 26.8169 28.4983 26.8179 27.6812V5.08142C26.8169 4.26433 26.4296 3.48094 25.7408 2.90317C25.0521 2.3254 24.1182 2.00045 23.1441 1.99963ZM24.71 27.7435C24.71 28.0159 24.581 28.2772 24.3513 28.4699C24.1217 28.6625 23.4689 28.7084 23.1441 28.7084H9.67375C9.34897 28.7084 8.79696 28.6002 8.56731 28.4076C8.33766 28.2149 8.20864 27.9536 8.20864 27.6812V5.08142C8.20864 4.80897 8.33766 4.54768 8.56731 4.35504C8.79696 4.16239 9.34897 4.05416 9.67375 4.05416H10.8983C10.8983 4.46283 11.0919 4.85476 11.4363 5.14373C11.7808 5.43271 12.248 5.59505 12.7352 5.59505H20.0827C20.5699 5.59505 21.0371 5.43271 21.3816 5.14373C21.726 4.85476 21.9196 4.46283 21.9196 4.05416H23.1441C23.4689 4.05416 24.1217 4.2247 24.3513 4.41735C24.581 4.61 24.71 4.87129 24.71 5.14373V27.7435Z" fill="white"/>
</svg>
