<svg width="36" height="32" viewBox="0 0 36 28" fill="none" xmlns="http://www.w3.org/2000/svg">
<g filter="url(#filter0_d_18237_33460)">
<path fill-rule="evenodd" clip-rule="evenodd" d="M16.6797 4.96069C11.7091 4.96069 7.67969 8.99013 7.67969 13.9607C7.67969 18.9313 11.7091 22.9607 16.6797 22.9607H20.1156C25.0861 22.9607 29.1156 18.9313 29.1156 13.9607C29.1156 8.99013 25.0861 4.96069 20.1156 4.96069H16.6797ZM13.8951 9.52258L13.7866 9.36356V9.36395C13.746 9.30485 13.7086 9.23876 13.6753 9.16722C13.6197 9.04786 13.6189 8.91683 13.673 8.80719C13.7232 8.70532 13.8175 8.633 13.9322 8.6089C14.5696 8.47359 15.0854 8.41061 15.5551 8.41061C16.1485 8.41061 16.6789 8.51092 17.1765 8.71699C17.2696 8.75548 17.3592 8.80097 17.4465 8.85073C17.5896 8.93194 17.7263 9.02447 17.86 9.11494L17.866 9.11901L17.8882 9.13402L17.8882 9.13403L17.8882 9.13403L17.8882 9.13404L17.8882 9.13404C17.9468 9.17372 18.0052 9.21327 18.0642 9.25159C18.1604 9.31419 18.2245 9.40789 18.2446 9.5152C18.2639 9.61823 18.2396 9.72632 18.1778 9.81224C18.1052 9.91294 17.9951 9.97048 17.8749 9.97048C17.7799 9.97048 17.686 9.9351 17.6034 9.86823C17.2167 9.55563 16.8106 9.3624 16.3621 9.27647C16.0909 9.22476 15.8167 9.19949 15.5242 9.19949C15.2484 9.19949 14.9583 9.22243 14.643 9.26908C14.7273 9.38611 14.8068 9.49653 14.8868 9.60695C14.8972 9.62173 14.9084 9.63573 14.9196 9.64972C14.9266 9.65828 14.9343 9.668 14.9417 9.67772C14.9544 9.69405 14.9672 9.71154 14.9795 9.7302C15.1035 9.91916 15.0742 10.1423 14.9081 10.2734C14.8374 10.329 14.7558 10.3585 14.672 10.3585C14.6676 10.3585 14.6632 10.3581 14.6588 10.3577L14.65 10.357C14.6463 10.3566 14.6426 10.3564 14.6388 10.3562C14.635 10.356 14.6313 10.3558 14.6276 10.3554C14.5244 10.3422 14.4313 10.2846 14.3614 10.1894C14.2011 9.97059 14.0461 9.74366 13.8962 9.52406L13.8961 9.52395L13.8961 9.52393L13.8951 9.52258ZM24.7258 13.1198C24.4364 12.1408 23.9269 11.4316 23.1674 10.9518C22.5052 10.5331 21.808 10.3208 21.0952 10.3208C20.5996 10.3208 20.0896 10.4242 19.5801 10.6276C19.3529 10.7186 19.1463 10.7625 18.9489 10.7625C18.7515 10.7625 18.5548 10.7174 18.3563 10.6245C17.8282 10.3772 17.2827 10.3336 17.0011 10.3298C16.077 10.3371 15.3419 10.551 14.6882 11.0028C14.4201 11.1882 14.1455 11.4009 13.9523 11.7018C13.5475 12.3321 13.2682 13.0315 13.1221 13.7811C13.0375 14.2151 12.9707 14.6081 13.0136 15.023C13.1233 16.0879 13.5374 17.1015 14.2444 18.0358C15.3001 19.4312 16.6889 20.3939 18.3721 20.8974C18.588 20.9619 18.8279 20.9973 19.0659 20.9997H19.0775C19.2587 20.9997 19.4348 20.96 19.6048 20.9215L19.6774 20.9052C21.0145 20.6089 22.1498 20.0168 23.0523 19.1451C24.8351 17.4223 25.398 15.3951 24.7258 13.1198ZM18.9643 20.2294C18.9133 20.2294 18.8577 20.2217 18.804 20.2073C17.0142 19.7263 15.5941 18.7018 14.5835 17.1626C14.1057 16.4347 13.838 15.6696 13.7877 14.8881C13.768 14.579 13.8287 14.2493 13.8874 13.9305L13.8967 13.8795C14.016 13.231 14.2598 12.635 14.6218 12.1081C14.7245 11.9588 14.8868 11.8091 15.1043 11.6641C15.6641 11.2905 16.2512 11.1007 16.8496 11.1007C17.2649 11.1007 17.6945 11.1921 18.1264 11.3725C18.4223 11.4962 18.7012 11.5564 18.9794 11.5564C19.2575 11.5564 19.5106 11.4985 19.7678 11.3846C20.1858 11.1995 20.6127 11.1054 21.0365 11.1054C21.2397 11.1054 21.446 11.1272 21.65 11.1696C22.6965 11.3877 23.3999 11.9406 23.7994 12.8597C24.0833 13.5121 24.2251 14.1867 24.2336 14.9196C24.2247 15.9409 23.874 16.9374 23.2188 17.8021C22.1997 19.1462 20.79 19.9616 19.0288 20.2248C19.0084 20.2279 18.9867 20.2294 18.9635 20.2294H18.9643ZM20.2587 10.0852C20.2147 10.0852 20.1714 10.0774 20.1312 10.0622L20.1316 10.0614C20.0644 10.0366 20.0049 9.99146 19.9601 9.93042C19.9126 9.86588 19.8859 9.79162 19.8821 9.7158C19.8805 9.69053 19.8821 9.66487 19.8859 9.6396C19.9018 9.53734 19.9597 9.44558 20.0486 9.38104L20.093 9.34877L20.0958 9.34677C20.2865 9.20859 20.4834 9.06594 20.6964 8.95025C21.2059 8.67381 21.7893 8.53345 22.4306 8.53345C22.5005 8.53345 22.5719 8.5354 22.643 8.53851C22.954 8.55289 23.2661 8.58944 23.5725 8.63104C23.6749 8.64504 23.7761 8.65904 23.8769 8.67342C23.958 8.68508 24.039 8.69634 24.1201 8.70761L24.1201 8.70761L24.1201 8.70761L24.1203 8.70764C24.2918 8.73135 24.4174 8.813 24.4738 8.93742C24.5309 9.06339 24.5089 9.21464 24.4119 9.36355C24.2199 9.65826 24.0164 9.95103 23.8193 10.2341L23.7475 10.3375C23.7405 10.3472 23.7336 10.3565 23.7266 10.3655C23.6219 10.4985 23.5026 10.5276 23.4187 10.5276C23.3728 10.5276 23.326 10.5191 23.2793 10.5016C23.1661 10.4596 23.0819 10.3713 23.0479 10.2593C23.0108 10.1373 23.0367 10.0016 23.1186 9.88726C23.2078 9.76246 23.2986 9.63843 23.3894 9.51479L23.4188 9.47474L23.4189 9.47467C23.4419 9.44347 23.4648 9.41235 23.4875 9.38104C23.4334 9.37288 23.3809 9.36549 23.3287 9.35966C23.0614 9.32972 22.8227 9.31534 22.5986 9.31534C22.2455 9.31534 21.9268 9.35149 21.6251 9.42576C21.2651 9.5144 20.9321 9.67537 20.6357 9.90398C20.623 9.9137 20.6103 9.92381 20.5979 9.93392L20.588 9.94172C20.5606 9.96344 20.5323 9.98585 20.5009 10.007C20.4248 10.0579 20.3414 10.0852 20.2587 10.0852ZM18.0446 7.79087C18.2103 8.0051 18.3243 8.21895 18.3919 8.44095C18.4548 8.64675 18.5034 8.86378 18.5505 9.07387L18.5507 9.0747C18.5665 9.14507 18.5824 9.21545 18.5986 9.28543C18.648 9.49733 18.7941 9.62913 18.9803 9.62913C18.9919 9.62913 19.0038 9.62874 19.0158 9.62758C19.1607 9.61475 19.2719 9.53038 19.3268 9.40285C19.3318 9.39119 19.3364 9.37913 19.3403 9.36708C19.3484 9.34259 19.3546 9.31654 19.3585 9.28932C19.3623 9.2621 19.3646 9.23372 19.3643 9.20456V9.19484L19.3627 9.18512C19.2997 8.71661 19.1916 8.31265 19.0316 7.95067C18.8887 7.6268 18.7156 7.36086 18.5028 7.13769C18.4831 7.11708 18.463 7.09919 18.4421 7.08286L18.4363 7.0782C18.3819 7.03699 18.3239 7.0121 18.2656 7.00355C18.2513 7.00161 18.237 7.00005 18.2223 7.00005C18.1644 7.00005 18.1095 7.01638 18.0589 7.04865C17.9697 7.10542 17.8588 7.22011 17.8403 7.35542C17.8202 7.50199 17.9241 7.6443 17.9697 7.69873C17.9956 7.72944 18.0203 7.76016 18.0438 7.79087H18.0446ZM19.1647 11.8717C19.2729 11.8717 19.3791 11.9196 19.4641 12.0067L19.4645 12.0074C19.8813 12.4343 20.202 12.927 20.4172 13.4717C20.669 14.1097 20.7927 14.8111 20.7942 15.6159C20.7857 16.4126 20.6636 17.2189 20.4206 18.0825C20.3642 18.2835 20.2201 18.4083 20.0448 18.4083C20.01 18.4083 19.9744 18.4032 19.9393 18.3931C19.7199 18.3309 19.614 18.1147 19.6816 17.8671C19.9215 16.9919 20.0316 16.2158 20.0193 15.4942C20.0019 14.4919 19.7647 13.6812 19.2942 13.0164C19.2065 12.8927 19.1079 12.778 19.0033 12.6567C18.9731 12.6217 18.9434 12.5871 18.9136 12.5521C18.746 12.3542 18.7479 12.119 18.919 11.967C18.989 11.9048 19.074 11.8717 19.1647 11.8717Z" fill="#EC54AB"/>
</g>
<defs>
<filter id="filter0_d_18237_33460" x="0.91047" y="0.447882" width="34.9759" height="31.5384" filterUnits="userSpaceOnUse" color-interpolation-filters="sRGB">
<feFlood flood-opacity="0" result="BackgroundImageFix"/>
<feColorMatrix in="SourceAlpha" type="matrix" values="0 0 0 0 0 0 0 0 0 0 0 0 0 0 0 0 0 0 127 0" result="hardAlpha"/>
<feOffset dy="2.25641"/>
<feGaussianBlur stdDeviation="3.38461"/>
<feColorMatrix type="matrix" values="0 0 0 0 0 0 0 0 0 0 0 0 0 0 0 0 0 0 0.06 0"/>
<feBlend mode="normal" in2="BackgroundImageFix" result="effect1_dropShadow_18237_33460"/>
<feBlend mode="normal" in="SourceGraphic" in2="effect1_dropShadow_18237_33460" result="shape"/>
</filter>
</defs>
</svg>
