<svg width="24" height="24" viewBox="0 0 24 24" fill="none" xmlns="http://www.w3.org/2000/svg">
<g clip-path="url(#clip0_19807_18470)">
<path d="M10.2864 17.2173C10.7474 17.6783 11.3587 17.9288 12.0051 17.9288C12.6565 17.9288 13.2678 17.6733 13.7238 17.2173L18.301 12.6402C18.792 12.1491 18.792 11.3574 18.301 10.8663C17.8099 10.3753 17.0182 10.3753 16.5271 10.8663L13.2578 14.1406V1.25271C13.2578 0.561216 12.6966 0 12.0051 0C11.3136 0 10.7524 0.561216 10.7524 1.25271V14.1406L7.47808 10.8663C6.98702 10.3753 6.1953 10.3753 5.70424 10.8663C5.21317 11.3574 5.21317 12.1491 5.70424 12.6402L10.2864 17.2173Z" fill="white"/>
<path d="M2.66406 22.6666C2.66406 21.9302 3.26102 21.3333 3.99739 21.3333H19.9974C20.7338 21.3333 21.3307 21.9302 21.3307 22.6666C21.3307 23.403 20.7338 23.9999 19.9974 23.9999H3.99739C3.26101 23.9999 2.66406 23.403 2.66406 22.6666Z" fill="white"/>
</g>
<defs>
<clipPath id="clip0_19807_18470">
<rect width="24" height="24" fill="white"/>
</clipPath>
</defs>
</svg>
