<svg width="36" height="36" viewBox="0 0 36 36" fill="none" xmlns="http://www.w3.org/2000/svg">
<path d="M17.9453 31.8906C16.0404 31.8906 14.2448 31.526 12.5586 30.7969C10.8815 30.0677 9.40039 29.0605 8.11523 27.7754C6.83008 26.4902 5.82292 25.0091 5.09375 23.332C4.36458 21.6458 4 19.8503 4 17.9453C4 16.0404 4.36458 14.2493 5.09375 12.5723C5.82292 10.8861 6.82552 9.40039 8.10156 8.11523C9.38672 6.83008 10.8678 5.82292 12.5449 5.09375C14.2311 4.36458 16.0267 4 17.9316 4C19.8366 4 21.6322 4.36458 23.3184 5.09375C25.0046 5.82292 26.4902 6.83008 27.7754 8.11523C29.0605 9.40039 30.0677 10.8861 30.7969 12.5723C31.526 14.2493 31.8906 16.0404 31.8906 17.9453C31.8906 19.8503 31.526 21.6458 30.7969 23.332C30.0677 25.0091 29.0605 26.4902 27.7754 27.7754C26.4902 29.0605 25.0046 30.0677 23.3184 30.7969C21.6413 31.526 19.8503 31.8906 17.9453 31.8906ZM17.9453 29.5664C19.5586 29.5664 21.0671 29.2656 22.4707 28.6641C23.8743 28.0625 25.1094 27.2331 26.1758 26.1758C27.2422 25.1094 28.0716 23.8743 28.6641 22.4707C29.2656 21.0671 29.5664 19.5586 29.5664 17.9453C29.5664 16.332 29.2656 14.8236 28.6641 13.4199C28.0625 12.0163 27.2285 10.7812 26.1621 9.71484C25.1048 8.64844 23.8698 7.81901 22.457 7.22656C21.0534 6.625 19.5449 6.32422 17.9316 6.32422C16.3184 6.32422 14.8099 6.625 13.4062 7.22656C12.0026 7.81901 10.7721 8.64844 9.71484 9.71484C8.65755 10.7812 7.82812 12.0163 7.22656 13.4199C6.63411 14.8236 6.33789 16.332 6.33789 17.9453C6.33789 19.5586 6.63411 21.0671 7.22656 22.4707C7.82812 23.8743 8.65755 25.1094 9.71484 26.1758C10.7812 27.2331 12.0163 28.0625 13.4199 28.6641C14.8236 29.2656 16.332 29.5664 17.9453 29.5664ZM14.0762 23.2637C13.7389 23.2637 13.4883 23.1816 13.3242 23.0176C13.1693 22.8535 13.0918 22.6393 13.0918 22.375V13.4883C13.0918 13.224 13.1693 13.0098 13.3242 12.8457C13.4883 12.6725 13.7389 12.5859 14.0762 12.5859H15.4297C15.7669 12.5859 16.013 12.6725 16.168 12.8457C16.332 13.0098 16.4141 13.224 16.4141 13.4883V22.375C16.4141 22.6393 16.332 22.8535 16.168 23.0176C16.013 23.1816 15.7669 23.2637 15.4297 23.2637H14.0762ZM20.4746 23.2637C20.1374 23.2637 19.8867 23.1816 19.7227 23.0176C19.5586 22.8535 19.4766 22.6393 19.4766 22.375V13.4883C19.4766 13.224 19.5586 13.0098 19.7227 12.8457C19.8867 12.6725 20.1374 12.5859 20.4746 12.5859H21.8145C22.1426 12.5859 22.3887 12.6725 22.5527 12.8457C22.7168 13.0098 22.7988 13.224 22.7988 13.4883V22.375C22.7988 22.6393 22.7168 22.8535 22.5527 23.0176C22.3887 23.1816 22.1426 23.2637 21.8145 23.2637H20.4746Z" fill="#9C9C9C"/>
</svg>
