<svg width="32" height="32" viewBox="0 0 32 32" fill="none" xmlns="http://www.w3.org/2000/svg">
<path d="M15.9505 28.3475C14.2572 28.3475 12.6612 28.0234 11.1623 27.3752C9.67159 26.7271 8.35503 25.8318 7.21267 24.6895C6.07031 23.5471 5.17506 22.2306 4.52691 20.7398C3.87876 19.241 3.55469 17.6449 3.55469 15.9516C3.55469 14.2583 3.87876 12.6663 4.52691 11.1756C5.17506 9.67673 6.06626 8.35613 7.20052 7.21377C8.34288 6.07141 9.65943 5.17616 11.1502 4.52801C12.649 3.87986 14.2451 3.55579 15.9384 3.55579C17.6317 3.55579 19.2277 3.87986 20.7266 4.52801C22.2254 5.17616 23.546 6.07141 24.6884 7.21377C25.8307 8.35613 26.726 9.67673 27.3741 11.1756C28.0223 12.6663 28.3464 14.2583 28.3464 15.9516C28.3464 17.6449 28.0223 19.241 27.3741 20.7398C26.726 22.2306 25.8307 23.5471 24.6884 24.6895C23.546 25.8318 22.2254 26.7271 20.7266 27.3752C19.2358 28.0234 17.6438 28.3475 15.9505 28.3475ZM15.9505 26.2815C17.3845 26.2815 18.7254 26.0141 19.9731 25.4794C21.2208 24.9447 22.3186 24.2074 23.2665 23.2676C24.2144 22.3197 24.9517 21.2219 25.4783 19.9742C26.013 18.7265 26.2804 17.3856 26.2804 15.9516C26.2804 14.5176 26.013 13.1767 25.4783 11.929C24.9436 10.6814 24.2023 9.58356 23.2543 8.63565C22.3145 7.68773 21.2167 6.95046 19.9609 6.42384C18.7133 5.88912 17.3724 5.62176 15.9384 5.62176C14.5043 5.62176 13.1635 5.88912 11.9158 6.42384C10.6681 6.95046 9.57436 7.68773 8.63455 8.63565C7.69473 9.58356 6.95747 10.6814 6.42274 11.929C5.89612 13.1767 5.63281 14.5176 5.63281 15.9516C5.63281 17.3856 5.89612 18.7265 6.42274 19.9742C6.95747 21.2219 7.69473 22.3197 8.63455 23.2676C9.58247 24.2074 10.6803 24.9447 11.928 25.4794C13.1756 26.0141 14.5165 26.2815 15.9505 26.2815Z" fill="#07C160"/>
<g clip-path="url(#clip0_19739_38194)">
<path d="M22.4986 11.4313C22.0786 11.0107 21.3965 11.011 20.9759 11.4313L14.1227 18.2848L11.0767 15.2389C10.6561 14.8183 9.97432 14.8183 9.55373 15.2389C9.13313 15.6595 9.13313 16.3412 9.55373 16.7618L13.361 20.5691C13.5712 20.7793 13.8468 20.8846 14.1224 20.8846C14.398 20.8846 14.6738 20.7796 14.884 20.5691L22.4986 12.9543C22.9192 12.534 22.9192 11.8519 22.4986 11.4313Z" fill="#07C160"/>
</g>
<defs>
<clipPath id="clip0_19739_38194">
<rect width="13.5758" height="13.5758" fill="white" transform="translate(9.22266 9.21204)"/>
</clipPath>
</defs>
</svg>
