<svg xmlns="http://www.w3.org/2000/svg" width="26" height="26" fill="none"><rect width="26" height="26" fill="url(#a)" rx="13"/><path fill="#1D2023" d="M16.667 12.997c0 .267-.095.49-.303.698l-4.854 4.917a.78.78 0 0 1-.592.255c-.473 0-.851-.392-.851-.882a.9.9 0 0 1 .264-.64l4.312-4.355-4.312-4.342a.911.911 0 0 1-.264-.64c0-.49.378-.875.85-.875.24 0 .436.079.593.248l4.854 4.917c.208.209.296.431.303.699Z"/><defs><linearGradient id="a" x1="2.364" x2="30.104" y1="0" y2="20.427" gradientUnits="userSpaceOnUse"><stop stop-color="#FAC33D"/><stop offset="1" stop-color="#ECA700"/></linearGradient></defs></svg>