<svg width="21" height="21" viewBox="0 0 21 21" fill="none" xmlns="http://www.w3.org/2000/svg">
<path d="M10.459 20.918C9.03027 20.918 7.68359 20.6445 6.41895 20.0977C5.16113 19.5508 4.05029 18.7954 3.08643 17.8315C2.12256 16.8677 1.36719 15.7568 0.820312 14.499C0.273437 13.2344 0 11.8877 0 10.459C0 9.03027 0.273437 7.68701 0.820312 6.4292C1.36719 5.16455 2.11914 4.05029 3.07617 3.08643C4.04004 2.12256 5.15088 1.36719 6.40869 0.820312C7.67334 0.273437 9.02002 0 10.4487 0C11.8774 0 13.2241 0.273437 14.4888 0.820312C15.7534 1.36719 16.8677 2.12256 17.8315 3.08643C18.7954 4.05029 19.5508 5.16455 20.0977 6.4292C20.6445 7.68701 20.918 9.03027 20.918 10.459C20.918 11.8877 20.6445 13.2344 20.0977 14.499C19.5508 15.7568 18.7954 16.8677 17.8315 17.8315C16.8677 18.7954 15.7534 19.5508 14.4888 20.0977C13.231 20.6445 11.8877 20.918 10.459 20.918ZM10.459 19.1748C11.6689 19.1748 12.8003 18.9492 13.853 18.498C14.9058 18.0469 15.832 17.4248 16.6318 16.6318C17.4316 15.832 18.0537 14.9058 18.498 13.853C18.9492 12.8003 19.1748 11.6689 19.1748 10.459C19.1748 9.24902 18.9492 8.11768 18.498 7.06494C18.0469 6.01221 17.4214 5.08594 16.6216 4.28613C15.8286 3.48633 14.9023 2.86426 13.8428 2.41992C12.79 1.96875 11.6587 1.74316 10.4487 1.74316C9.23877 1.74316 8.10742 1.96875 7.05469 2.41992C6.00195 2.86426 5.0791 3.48633 4.28613 4.28613C3.49316 5.08594 2.87109 6.01221 2.41992 7.06494C1.97559 8.11768 1.75342 9.24902 1.75342 10.459C1.75342 11.6689 1.97559 12.8003 2.41992 13.853C2.87109 14.9058 3.49316 15.832 4.28613 16.6318C5.08594 17.4248 6.01221 18.0469 7.06494 18.498C8.11768 18.9492 9.24902 19.1748 10.459 19.1748ZM10.4692 5.22949C10.688 5.22949 10.8691 5.30127 11.0127 5.44482C11.1562 5.58838 11.228 5.77295 11.228 5.99854V11.1255L11.1562 13.2993L12.1919 12.0586L13.4019 10.8281C13.5386 10.6777 13.7197 10.6025 13.9453 10.6025C14.1572 10.6025 14.335 10.6743 14.4785 10.8179C14.6221 10.9614 14.6938 11.1357 14.6938 11.3408C14.6938 11.5596 14.6255 11.7373 14.4888 11.874L11.064 15.2886C10.8726 15.48 10.6743 15.5757 10.4692 15.5757C10.2642 15.5757 10.0659 15.48 9.87451 15.2886L6.44971 11.874C6.31299 11.7441 6.24463 11.5664 6.24463 11.3408C6.24463 11.1357 6.31299 10.9614 6.44971 10.8179C6.59326 10.6743 6.771 10.6025 6.98291 10.6025C7.19482 10.6025 7.37598 10.6777 7.52637 10.8281L8.74658 12.0586L9.77197 13.2891L9.7002 11.1255V5.99854C9.7002 5.77295 9.77197 5.58838 9.91553 5.44482C10.0591 5.30127 10.2437 5.22949 10.4692 5.22949Z" fill="#FAC33D"/>
</svg>
