<svg width="32" height="32" viewBox="0 0 32 32" fill="none" xmlns="http://www.w3.org/2000/svg">
<path d="M15.9505 28.3471C14.2572 28.3471 12.6612 28.023 11.1623 27.3749C9.67159 26.7267 8.35503 25.8315 7.21267 24.6891C6.07031 23.5467 5.17506 22.2302 4.52691 20.7394C3.87876 19.2406 3.55469 17.6445 3.55469 15.9513C3.55469 14.258 3.87876 12.666 4.52691 11.1752C5.17506 9.67637 6.06626 8.35577 7.20052 7.21341C8.34288 6.07104 9.65943 5.17579 11.1502 4.52764C12.649 3.87949 14.2451 3.55542 15.9384 3.55542C17.6317 3.55542 19.2277 3.87949 20.7266 4.52764C22.2254 5.17579 23.546 6.07104 24.6884 7.21341C25.8307 8.35577 26.726 9.67637 27.3741 11.1752C28.0223 12.666 28.3464 14.258 28.3464 15.9513C28.3464 17.6445 28.0223 19.2406 27.3741 20.7394C26.726 22.2302 25.8307 23.5467 24.6884 24.6891C23.546 25.8315 22.2254 26.7267 20.7266 27.3749C19.2358 28.023 17.6438 28.3471 15.9505 28.3471ZM15.9505 26.2811C17.3845 26.2811 18.7254 26.0138 19.9731 25.479C21.2208 24.9443 22.3186 24.207 23.2665 23.2672C24.2144 22.3193 24.9517 21.2215 25.4783 19.9738C26.013 18.7261 26.2804 17.3853 26.2804 15.9513C26.2804 14.5172 26.013 13.1764 25.4783 11.9287C24.9436 10.681 24.2023 9.5832 23.2543 8.63528C22.3145 7.68736 21.2167 6.9501 19.9609 6.42348C18.7133 5.88875 17.3724 5.62139 15.9384 5.62139C14.5043 5.62139 13.1635 5.88875 11.9158 6.42348C10.6681 6.9501 9.57436 7.68736 8.63455 8.63528C7.69473 9.5832 6.95747 10.681 6.42274 11.9287C5.89612 13.1764 5.63281 14.5172 5.63281 15.9513C5.63281 17.3853 5.89612 18.7261 6.42274 19.9738C6.95747 21.2215 7.69473 22.3193 8.63455 23.2672C9.58247 24.207 10.6803 24.9443 11.928 25.479C13.1756 26.0138 14.5165 26.2811 15.9505 26.2811ZM12.5113 20.6787C12.2115 20.6787 11.9887 20.6058 11.8429 20.4599C11.7052 20.3141 11.6363 20.1237 11.6363 19.8888V11.9894C11.6363 11.7545 11.7052 11.5641 11.8429 11.4183C11.9887 11.2643 12.2115 11.1874 12.5113 11.1874H13.7144C14.0142 11.1874 14.2329 11.2643 14.3707 11.4183C14.5165 11.5641 14.5894 11.7545 14.5894 11.9894V19.8888C14.5894 20.1237 14.5165 20.3141 14.3707 20.4599C14.2329 20.6058 14.0142 20.6787 13.7144 20.6787H12.5113ZM18.1988 20.6787C17.899 20.6787 17.6762 20.6058 17.5304 20.4599C17.3845 20.3141 17.3116 20.1237 17.3116 19.8888V11.9894C17.3116 11.7545 17.3845 11.5641 17.5304 11.4183C17.6762 11.2643 17.899 11.1874 18.1988 11.1874H19.3898C19.6814 11.1874 19.9002 11.2643 20.046 11.4183C20.1918 11.5641 20.2648 11.7545 20.2648 11.9894V19.8888C20.2648 20.1237 20.1918 20.3141 20.046 20.4599C19.9002 20.6058 19.6814 20.6787 19.3898 20.6787H18.1988Z" fill="#FAC33D"/>
</svg>
