<svg width="24" height="24" viewBox="0 0 24 24" fill="none" xmlns="http://www.w3.org/2000/svg">
<path d="M9.72835 2.40015C9.60711 2.40016 9.49084 2.44833 9.40511 2.53405C9.31939 2.61978 9.27122 2.73605 9.27121 2.85729V9.37158H6.41406C6.32367 9.37161 6.23531 9.39844 6.16016 9.44868C6.08501 9.49892 6.02644 9.5703 5.99185 9.65381C5.95726 9.73733 5.9482 9.82922 5.96582 9.91788C5.98345 10.0065 6.02695 10.088 6.09085 10.1519L11.6909 15.7519C11.7766 15.8376 11.8928 15.8858 12.0141 15.8858C12.1353 15.8858 12.2515 15.8376 12.3373 15.7519L17.9373 10.1519C18.0012 10.088 18.0447 10.0065 18.0623 9.91788C18.0799 9.82922 18.0709 9.73733 18.0363 9.65381C18.0017 9.5703 17.9431 9.49892 17.868 9.44868C17.7928 9.39844 17.7045 9.37161 17.6141 9.37158H14.7569V2.85729C14.7569 2.73605 14.7087 2.61978 14.623 2.53405C14.5373 2.44833 14.421 2.40016 14.2998 2.40015H9.72835ZM2.87121 18.6859C2.74997 18.6859 2.6337 18.734 2.54797 18.8198C2.46224 18.9055 2.41407 19.0218 2.41406 19.143V21.143C2.41407 21.2642 2.46224 21.3805 2.54797 21.4662C2.6337 21.552 2.74997 21.6001 2.87121 21.6001H21.1569C21.2782 21.6001 21.3944 21.552 21.4802 21.4662C21.5659 21.3805 21.6141 21.2642 21.6141 21.143V19.143C21.6141 19.0218 21.5659 18.9055 21.4802 18.8198C21.3944 18.734 21.2782 18.6859 21.1569 18.6859H2.87121Z" fill="#9C9C9C"/>
</svg>
