<svg width="26" height="26" viewBox="0 0 26 26" fill="none" xmlns="http://www.w3.org/2000/svg">
    <g clip-path="url(#clip0_569_6306)">
        <path
            d="M18.0559 22.0999H7.94482C6.86458 22.0999 5.84895 21.6792 5.085 20.9153C4.32109 20.1514 3.90039 19.1357 3.90039 18.0554V17.0443C3.90039 16.4858 4.35306 16.0331 4.91151 16.0331C5.46996 16.0331 5.92262 16.4858 5.92262 17.0443V18.0554C5.92262 18.5956 6.13299 19.1034 6.51488 19.4853C6.89687 19.8673 7.40467 20.0777 7.94482 20.0777H18.0559C18.596 20.0777 19.1038 19.8673 19.4858 19.4853C19.8678 19.1033 20.0782 18.5955 20.0782 18.0554V17.0443C20.0782 16.4858 20.5308 16.0331 21.0892 16.0331C21.6477 16.0331 22.1004 16.4858 22.1004 17.0443V18.0554C22.1004 19.1357 21.6797 20.1513 20.9157 20.9153C20.1518 21.6792 19.1362 22.0999 18.0559 22.0999ZM13.0004 18.0554C12.8605 18.0554 12.7273 18.027 12.6062 17.9757C12.4932 17.9279 12.387 17.8586 12.294 17.7678C12.294 17.7678 12.294 17.7678 12.294 17.7678C12.2933 17.7671 12.2926 17.7664 12.292 17.7658C12.2918 17.7656 12.2916 17.7654 12.2914 17.7652C12.2908 17.7647 12.2903 17.7642 12.2898 17.7637C12.2894 17.7633 12.2891 17.763 12.2888 17.7626C12.2884 17.7623 12.288 17.7618 12.2876 17.7615C12.2869 17.7608 12.2862 17.7601 12.2855 17.7593L8.24099 13.7148C7.84614 13.32 7.84614 12.6798 8.24099 12.2849C8.63583 11.89 9.27608 11.89 9.67093 12.2849L11.9893 14.6033V4.91102C11.9893 4.35257 12.4419 3.8999 13.0004 3.8999C13.5588 3.8999 14.0115 4.35257 14.0115 4.91102V14.6032L16.3299 12.2849C16.7247 11.89 17.365 11.89 17.7598 12.2849C18.1546 12.6797 18.1546 13.32 17.7598 13.7148L13.7153 17.7593C13.7146 17.76 13.7138 17.7608 13.7131 17.7615C13.7128 17.7618 13.7123 17.7623 13.712 17.7626C13.7117 17.7629 13.7113 17.7632 13.711 17.7636C13.7105 17.7641 13.7099 17.7646 13.7094 17.7651C13.7093 17.7653 13.709 17.7656 13.7088 17.7657C13.7082 17.7664 13.7075 17.767 13.7069 17.7677C13.7068 17.7677 13.7068 17.7677 13.7068 17.7678C13.6957 17.7786 13.6844 17.7891 13.6729 17.7994C13.5882 17.8749 13.4939 17.9338 13.3942 17.9758C13.3938 17.9759 13.3936 17.9761 13.3932 17.9762C13.3928 17.9764 13.3925 17.9766 13.3921 17.9767C13.2716 18.0274 13.1393 18.0554 13.0004 18.0554Z"
            fill="#848484" />
    </g>
    <defs>
        <clipPath id="clip0_569_6306">
            <rect width="18.2" height="18.2" fill="white" transform="translate(3.90039 3.8999)" />
        </clipPath>
    </defs>
</svg>