<svg width="27" height="27" viewBox="0 0 27 27" fill="none" xmlns="http://www.w3.org/2000/svg">
<g clip-path="url(#clip0_3707_11528)">
<path d="M13.1411 2.97705C7.06636 2.97705 2.14111 7.90175 2.14111 13.9771C2.14111 20.0524 7.06636 24.9771 13.1411 24.9771C19.2159 24.9771 24.1411 20.0524 24.1411 13.9771C24.1411 7.90175 19.2164 2.97705 13.1411 2.97705ZM13.1411 6.26605C15.1514 6.26605 16.7799 7.89515 16.7799 9.9043C16.7799 11.9135 15.1514 13.5426 13.1411 13.5426C11.1309 13.5426 9.50341 11.9135 9.50341 9.9043C9.50341 7.89515 11.132 6.26605 13.1411 6.26605ZM13.1389 22.1011C11.1342 22.1011 9.29826 21.3713 7.88201 20.1623C7.53716 19.8681 7.33806 19.4363 7.33806 18.9837C7.33806 16.946 8.98696 15.3152 11.0253 15.3152H15.2586C17.2969 15.3152 18.9398 16.946 18.9398 18.9837C18.9398 19.4369 18.7418 19.8676 18.3964 20.1618C16.9807 21.3707 15.1442 22.1011 13.1389 22.1011Z" fill="currentColor"/>
</g>
<defs>
<clipPath id="clip0_3707_11528">
<rect width="22" height="22" fill="white" transform="translate(2.14111 2.97705)"/>
</clipPath>
</defs>
</svg>
