<svg width="96" height="96" viewBox="0 0 96 96" fill="none" xmlns="http://www.w3.org/2000/svg">
<g id="Frame" clip-path="url(#clip0_15064_14049)">
<circle id="Ellipse 2576" cx="48.4446" cy="47.5554" r="35.1111" fill="#F1F1F1"/>
<g id="Group">
<g id="_&#195;&#142;&#195;&#147;&#195;&#136;_1">
<path id="Vector" d="M47.9762 88.8861C42.3987 88.8861 36.9854 87.7925 31.887 85.6365C26.9649 83.5548 22.5453 80.5747 18.75 76.7806C14.9559 72.9865 11.9758 68.5668 9.89411 63.6436C7.73807 58.5453 6.64453 53.1319 6.64453 47.5544C6.64453 41.9769 7.73807 36.5635 9.89411 31.4651C11.9758 26.543 14.9559 22.1234 18.75 18.3282C22.5442 14.534 26.9638 11.554 31.887 9.47223C36.9854 7.3162 42.3987 6.22266 47.9762 6.22266C53.5538 6.22266 58.9671 7.3162 64.0655 9.47223C68.9876 11.554 73.4072 14.534 77.2025 18.3282C80.9966 22.1223 83.9767 26.5419 86.0584 31.4651C88.2144 36.5635 89.308 41.9769 89.308 47.5544C89.308 53.1319 88.2144 58.5453 86.0584 63.6436C83.9767 68.5657 80.9966 72.9853 77.2025 76.7806C73.4083 80.5758 68.9887 83.5548 64.0655 85.6365C58.9671 87.7925 53.5538 88.8861 47.9762 88.8861ZM47.9762 14.7514C29.8884 14.7514 15.1733 29.4665 15.1733 47.5544C15.1733 65.6422 29.8884 80.3573 47.9762 80.3573C66.0641 80.3573 80.7792 65.6422 80.7792 47.5544C80.7792 29.4665 66.0641 14.7514 47.9762 14.7514Z" fill="url(#paint0_radial_15064_14049)"/>
<path id="Vector_2" d="M95.9689 46.2513C95.7925 41.2993 94.8454 36.3861 93.1674 31.7236C91.5226 27.1553 89.1847 22.8421 86.2434 18.9781C83.2312 15.0221 79.6045 11.5263 75.5354 8.66933C71.4972 5.83344 67.0144 3.63859 62.3042 2.16907C57.5917 0.698444 52.6597 -0.0268875 47.7254 -0.000269861C42.8034 0.0274569 37.8924 0.807133 33.2088 2.32323C28.6683 3.79386 24.3484 5.93991 20.4434 8.68375C16.4186 11.513 12.8252 14.9677 9.83515 18.875C6.85175 22.7723 4.485 27.1287 2.82361 31.7469C1.12673 36.466 0.182913 41.4424 0.0243155 46.4531C-0.132063 51.4018 0.465725 56.3704 1.82101 61.1328C3.14968 65.8064 5.18926 70.2782 7.85879 74.3385C10.5294 78.401 13.8278 82.0521 17.5842 85.1386C21.4061 88.2784 25.7115 90.8115 30.3097 92.6326C34.8791 94.4426 39.7213 95.5428 44.6245 95.8833C49.4789 96.2204 54.3832 95.83 59.1178 94.7054C63.9256 93.5631 68.5571 91.6721 72.7893 89.1202C76.976 86.5937 80.7635 83.4151 84.002 79.753C87.1983 76.1385 89.8413 72.0449 91.8132 67.6397C93.8195 63.1557 95.136 58.3701 95.6916 53.4891C95.9655 51.089 96.0565 48.6679 95.97 46.2535C95.9567 45.8664 95.991 46.8347 95.97 46.2535L95.9689 46.2513ZM91.1932 65.5347C89.4786 69.7636 87.1407 73.7318 84.2682 77.2775C81.3702 80.8565 77.9454 84.0151 74.1346 86.6015C70.2606 89.23 65.9852 91.2607 61.5045 92.6171C56.7211 94.0644 51.7114 94.7232 46.7162 94.5879C41.7486 94.4537 36.8111 93.5254 32.1385 91.8341C27.7999 90.2636 23.7007 88.0532 20.0142 85.2772C16.3509 82.5179 13.0881 79.2162 10.3753 75.5174C7.62256 71.7654 5.44989 67.5987 3.93268 63.2001C2.31122 58.4998 1.45945 53.549 1.39845 48.5781C1.33856 43.6039 2.06611 38.6286 3.57223 33.8874C4.98962 29.4234 7.07911 25.1756 9.76306 21.336C12.3916 17.5774 15.5801 14.2069 19.1802 11.3655C22.7769 8.52626 26.7928 6.23381 31.0605 4.57021C35.7098 2.75799 40.6429 1.70326 45.6271 1.45372C50.599 1.20529 55.6054 1.74097 60.4043 3.0652C64.9471 4.31845 69.3002 6.26265 73.2584 8.81906C77.1269 11.3167 80.616 14.3977 83.5939 17.909C86.5451 21.3881 88.9751 25.2998 90.784 29.4888C92.7426 34.0227 93.9759 38.8593 94.4173 43.7792C94.8631 48.7389 94.5215 53.7708 93.3892 58.6196C92.8391 60.9775 92.1015 63.2921 91.1921 65.5358C88.8464 71.3196 93.4568 59.9516 91.1921 65.5358L91.1932 65.5347Z" fill="url(#paint1_linear_15064_14049)"/>
<path id="Vector_3" d="M48.0003 86.3902C42.8342 86.3902 37.8223 85.3787 33.1043 83.3824C28.5472 81.4548 24.4547 78.6954 20.9412 75.1819C17.4276 71.6684 14.6683 67.5759 12.7407 63.0187C10.7444 58.2997 9.73291 53.2878 9.73291 48.1228C9.73291 42.9579 10.7444 37.9449 12.7407 33.2269C14.6683 28.6697 17.4276 24.5773 20.9412 21.0637C24.4558 17.5491 28.5472 14.7908 33.1043 12.8633C37.8234 10.8669 42.8342 9.85547 48.0003 9.85547C53.1663 9.85547 58.1782 10.8669 62.8962 12.8633C67.4534 14.7908 71.5458 17.5502 75.0594 21.0637C78.574 24.5784 81.3323 28.6697 83.2598 33.2269C85.2561 37.946 86.2676 42.9568 86.2676 48.1228C86.2676 53.2889 85.2561 58.3008 83.2598 63.0187C81.3323 67.5759 78.5729 71.6684 75.0594 75.1819C71.5458 78.6966 67.4534 81.4548 62.8962 83.3824C58.1771 85.3787 53.1652 86.3902 48.0003 86.3902ZM48.0003 12.1823C28.1834 12.1823 12.0608 28.3049 12.0608 48.1217C12.0608 67.9386 28.1834 84.0611 48.0003 84.0611C67.8171 84.0611 83.9397 67.9386 83.9397 48.1217C83.9397 28.3049 67.8171 12.1834 48.0003 12.1834V12.1823Z" fill="#C1272D"/>
<path id="Vector_4" d="M91.1931 30.4634C88.8474 24.6796 85.4026 19.4914 80.9553 15.044C76.5079 10.5966 71.3197 7.15185 65.5359 4.80616C59.9517 2.54144 54.0514 1.39355 48.0004 1.39355C41.9493 1.39355 36.049 2.54144 30.4649 4.80616C24.6799 7.15185 19.4928 10.5966 15.0455 15.044C10.5981 19.4914 7.15331 24.6796 4.80763 30.4634C2.54291 36.0476 1.39502 41.9478 1.39502 47.9989C1.39502 54.05 2.54291 59.9502 4.80763 65.5344C7.15331 71.3193 10.5981 76.5064 15.0455 80.9538C19.4928 85.4012 24.6811 88.8459 30.4649 91.1916C36.0501 93.4564 41.9493 94.6042 48.0004 94.6042C54.0514 94.6042 59.9517 93.4564 65.5359 91.1916C71.3208 88.8459 76.5079 85.4012 80.9553 80.9538C85.4026 76.5064 88.8474 71.3182 91.1931 65.5344C93.4578 59.9502 94.6057 54.05 94.6057 47.9989C94.6057 41.9478 93.4578 36.0476 91.1931 30.4634ZM78.7604 69.354C78.5087 69.7167 78.2491 70.076 77.9819 70.4321C76.9249 71.8417 75.7571 73.1948 74.4761 74.4757C73.1951 75.7567 71.8509 76.9212 70.4357 77.9848C70.0808 78.251 69.7226 78.5116 69.3599 78.7645C63.1358 83.1054 55.7483 85.4422 48.0015 85.4422C37.9999 85.4422 28.5972 81.5472 21.5258 74.4757C14.4543 67.4043 10.5593 58.0016 10.5593 48C10.5593 40.2532 12.8972 32.8645 17.237 26.6415C17.4898 26.2789 17.7494 25.9195 18.0167 25.5657C19.0803 24.1506 20.2514 22.7997 21.5258 21.5254C22.8001 20.2511 24.1509 19.081 25.5672 18.0174C25.9221 17.7512 26.2814 17.4917 26.6441 17.2388C32.8616 12.9079 40.2491 10.5755 48.0015 10.5755C58.0131 10.5755 67.4157 14.4639 74.4772 21.5254C87.4711 34.5193 88.8995 54.7676 78.7615 69.3563L78.7604 69.354Z" fill="url(#paint2_linear_15064_14049)"/>
<path id="Vector_5" d="M55.7794 48.7077C57.4952 47.0973 58.5299 44.6585 58.5299 41.3623L58.3625 40.1745C58.3625 36.9704 57.5517 34.4406 55.9513 32.655C54.3354 30.8505 52.033 29.9355 49.1084 29.9355C46.1838 29.9355 43.8824 30.8505 42.2665 32.655C40.6673 34.4406 39.8554 36.9704 39.8554 40.1745V41.3246C39.8554 44.6407 40.7216 47.1173 42.4329 48.7121C40.7216 50.3569 39.8554 52.9122 39.8554 56.3347L38.2661 59.022C38.2661 62.2261 39.8732 64.889 41.4724 66.6757C43.0884 68.4802 46.1849 69.4506 49.1095 69.4506C52.0341 69.4506 54.3354 68.5356 55.9525 66.7312C57.5517 64.9456 58.6464 62.4213 58.6464 59.2172L58.3636 56.3347C58.3636 52.9088 57.4952 50.3502 55.7794 48.7066V48.7077ZM51.1469 59.0475C51.1025 61.9134 50.1154 62.1529 49.1095 62.1529C48.1036 62.1529 47.0721 61.9134 47.0721 59.0553V55.656C47.0721 52.9266 48.1025 52.5584 49.1095 52.5584C50.1165 52.5584 51.1469 52.9266 51.1469 55.656V59.0475ZM51.1469 42.4248C51.1469 44.9169 50.1675 45.2607 49.1095 45.2607C48.1235 45.2607 47.0721 45.0411 47.0721 42.4248V40.3852C47.0721 37.4783 48.1235 37.2354 49.1095 37.2354C50.0955 37.2354 51.1469 37.4783 51.1469 40.3852V42.4248Z" fill="url(#paint3_linear_15064_14049)"/>
<path id="Vector_6" d="M31.5971 30.3541H30.8286L30.6012 31.0362C30.5701 31.1283 30.5402 31.2181 30.5091 31.3068L26.3745 34.9302C26.1494 34.9468 25.9132 34.9557 25.6603 34.9557H24.7065V36.3919L21.4824 39.2167L24.7065 41.1032H26.5553L26.0119 67.6666L28.8078 69.0307H36.0234V30.3519L33.9794 28.2646L31.5983 30.3519L31.5971 30.3541Z" fill="url(#paint4_linear_15064_14049)"/>
<path id="Vector_7" d="M77.5181 49.9309V46.6193H71.0522V39.5589H67.3878L66.3941 37.6436L65.3804 39.5589V44.8359H59.255L58.9146 46.6193V52.7668H65.3804V59.9325H71.0522L72.657 58.3976V52.7668H77.5181L79.7961 51.0988L77.5181 49.9309Z" fill="url(#paint5_linear_15064_14049)"/>
<path id="Vector_8" d="M27.9916 28.962C27.0932 31.4463 26.2769 32.9546 22.536 32.9546H21.4824V39.2176H26.0108V67.6674H33.9783V28.2666H28.2433L27.9916 28.962Z" fill="black"/>
<path id="Vector_9" d="M48.4282 27.8408C45.1997 27.8408 42.6577 28.7724 40.8732 30.6113C39.1064 32.4302 38.2114 35.0076 38.2114 38.2716V39.4439C38.2114 42.8221 39.1674 45.3453 41.0573 46.9701C39.1674 48.6448 38.2114 51.2489 38.2114 54.7347V57.6648C38.2114 60.9277 39.1064 63.5052 40.8732 65.3252C42.6577 67.164 45.1997 68.0956 48.4282 68.0956C51.6567 68.0956 54.1987 67.164 55.9832 65.3252C57.7499 63.5063 58.6449 60.9288 58.6449 57.6648V54.7347C58.6449 51.2444 57.6867 48.6392 55.7924 46.9634C57.6867 45.3231 58.6449 42.8011 58.6449 39.4439V38.2716C58.6449 35.0076 57.7488 32.4313 55.9832 30.6113C54.1987 28.7724 51.6567 27.8408 48.4282 27.8408ZM50.6774 40.5619C50.6774 43.1005 49.596 43.451 48.4282 43.451C47.3402 43.451 46.179 43.2281 46.179 40.5619V38.4846C46.179 35.5245 47.3402 35.276 48.4282 35.276C49.5162 35.276 50.6774 35.5245 50.6774 38.4846V40.5619ZM46.1779 54.0404C46.1779 51.2599 47.3147 50.8851 48.4271 50.8851C49.5395 50.8851 50.6763 51.2599 50.6763 54.0404V57.4951C50.6275 60.4142 49.5384 60.6593 48.4271 60.6593C47.3158 60.6593 46.1779 60.4153 46.1779 57.504V54.0415V54.0404Z" fill="black"/>
<path id="Vector_10" d="M72.6569 44.8359V37.6436H66.394V44.8359H59.2549V51.0988H66.394V58.3976H72.6569V51.0988H79.796V44.8359H72.6569Z" fill="black"/>
<g id="Group_2" style="mix-blend-mode:hard-light">
<path id="Vector_11" d="M28.2433 28.2676L27.9916 28.963C27.0932 31.4473 26.2769 32.9556 22.536 32.9556H21.4824V39.2185H26.0108L27.2418 50.7152C29.8348 51.1921 30.6201 51.1211 33.3351 51.4372L33.9783 28.2676H28.2433Z" fill="url(#paint6_radial_15064_14049)" fill-opacity="0.3"/>
<path id="Vector_12" d="M54.5596 46.8524C56.4539 45.2121 58.275 42.9529 58.275 39.5957V38.4234C58.275 35.1594 57.7504 32.4311 55.9837 30.6123C54.1992 28.7734 51.6572 27.8418 48.4287 27.8418C45.2002 27.8418 42.6582 28.7734 40.8737 30.6123C39.1069 32.4311 38.5347 34.8689 38.5347 38.1329V39.3051C38.5347 42.6834 40.5266 45.5048 42.4164 47.1296C41.0334 48.3563 39.6914 49.9921 39.3177 52.1948C41.914 52.4055 43.0652 52.4587 45.7436 52.5153C46.0908 51.1012 46.8239 49.9489 48.4298 50.0121C49.8195 50.0676 50.8043 50.8517 51.1481 52.2857C53.8287 52.2591 54.8979 52.7315 57.4998 52.5508C57.1371 50.2894 55.9726 48.099 54.5607 46.8513L54.5596 46.8524ZM50.6779 40.5628C50.6779 43.1015 49.5965 43.452 48.4287 43.452C47.3407 43.452 46.1795 43.229 46.1795 40.5628V38.4855C46.1795 35.5254 47.3407 35.277 48.4287 35.277C49.5167 35.277 50.6779 35.5254 50.6779 38.4855V40.5628Z" fill="url(#paint7_radial_15064_14049)" fill-opacity="0.3"/>
<path id="Vector_13" d="M72.36 45.2609L72.3323 38.0631L66.7869 37.9521L66.8978 45.2609H59.6978V50.5501L66.3943 51.1013V51.4384C71.0535 50.8196 75.1072 50.0632 79.366 48.9796L79.4858 45.262H72.36V45.2609Z" fill="url(#paint8_radial_15064_14049)" fill-opacity="0.3"/>
</g>
</g>
</g>
</g>
<defs>
<radialGradient id="paint0_radial_15064_14049" cx="0" cy="0" r="1" gradientUnits="userSpaceOnUse" gradientTransform="translate(47.9762 47.5544) scale(41.3317)">
<stop offset="0.78" stop-color="#FFADAD"/>
<stop offset="0.87" stop-color="#BA0000"/>
</radialGradient>
<linearGradient id="paint1_linear_15064_14049" x1="48.0005" y1="95.9997" x2="48.0005" y2="-0.000267029" gradientUnits="userSpaceOnUse">
<stop stop-color="#FF2A2A"/>
<stop offset="0.1" stop-color="#921212"/>
<stop offset="0.37" stop-color="#B34141"/>
<stop offset="1" stop-color="#FF7878"/>
</linearGradient>
<linearGradient id="paint2_linear_15064_14049" x1="47.9993" y1="92.1166" x2="47.9993" y2="4.1995" gradientUnits="userSpaceOnUse">
<stop stop-color="#B70707"/>
<stop offset="0.25" stop-color="#C20808"/>
<stop offset="0.83" stop-color="#FF1515"/>
<stop offset="1" stop-color="#C95C5C"/>
</linearGradient>
<linearGradient id="paint3_linear_15064_14049" x1="38.2672" y1="49.6947" x2="58.6453" y2="49.6947" gradientUnits="userSpaceOnUse">
<stop offset="0.45" stop-color="#737373"/>
<stop offset="1" stop-color="#212121"/>
</linearGradient>
<linearGradient id="paint4_linear_15064_14049" x1="21.4824" y1="48.6505" x2="36.0234" y2="48.6505" gradientUnits="userSpaceOnUse">
<stop offset="0.61" stop-color="#212121"/>
<stop offset="1" stop-color="#737373"/>
</linearGradient>
<linearGradient id="paint5_linear_15064_14049" x1="58.9146" y1="48.7875" x2="79.7961" y2="48.7875" gradientUnits="userSpaceOnUse">
<stop stop-color="#737373"/>
<stop offset="1" stop-color="#212121"/>
</linearGradient>
<radialGradient id="paint6_radial_15064_14049" cx="0" cy="0" r="1" gradientUnits="userSpaceOnUse" gradientTransform="translate(50.9549 -82.8191) scale(135.881 135.881)">
<stop offset="0.47"/>
<stop offset="0.98" stop-color="#AFAFAF"/>
<stop offset="1"/>
</radialGradient>
<radialGradient id="paint7_radial_15064_14049" cx="0" cy="0" r="1" gradientUnits="userSpaceOnUse" gradientTransform="translate(50.8453 -84.2053) scale(137.54 137.54)">
<stop offset="0.47"/>
<stop offset="0.98" stop-color="#AFAFAF"/>
<stop offset="1"/>
</radialGradient>
<radialGradient id="paint8_radial_15064_14049" cx="0" cy="0" r="1" gradientUnits="userSpaceOnUse" gradientTransform="translate(51.7025 -81.0001) scale(134.18 134.18)">
<stop offset="0.47"/>
<stop offset="0.98" stop-color="#AFAFAF"/>
<stop offset="1"/>
</radialGradient>
<clipPath id="clip0_15064_14049">
<rect width="96" height="96" fill="white"/>
</clipPath>
</defs>
</svg>
