<svg width="86" height="86" viewBox="0 0 86 86" fill="none" xmlns="http://www.w3.org/2000/svg">
    <path
        d="M84.4693 83.6267C84.1319 84.1006 83.6866 84.4874 83.1702 84.7551C82.6537 85.0229 82.081 85.164 81.4993 85.1667H4.4993C3.91758 85.164 3.34485 85.0229 2.82842 84.7551C2.31199 84.4874 1.86669 84.1006 1.5293 83.6267C16.0126 51.415 13.006 58.1067 17.3326 48.5H68.666C73.3226 58.8583 69.876 51.2133 84.4693 83.6267Z"
        fill="#898989" />
    <path
        d="M17.3322 24.6667V48.5001C12.6756 58.8584 16.1222 51.2134 1.52889 83.6267C1.06908 83.0138 0.824212 82.2663 0.832222 81.5001V55.8334L17.3322 24.6667Z"
        fill="url(#paint0_linear_569_6292)" />
    <path
        d="M85.166 55.8334V81.5001C85.174 82.2663 84.9292 83.0138 84.4693 83.6267C69.986 51.4151 72.9927 58.1067 68.666 48.5001V24.6667L85.166 55.8334Z"
        fill="url(#paint1_linear_569_6292)" />
    <path
        d="M85.1654 55.8334V81.5C85.1654 82.4725 84.7791 83.4051 84.0914 84.0928C83.4038 84.7804 82.4712 85.1667 81.4987 85.1667H4.4987C3.52624 85.1667 2.59361 84.7804 1.90597 84.0928C1.21834 83.4051 0.832031 82.4725 0.832031 81.5V55.8334H32.1637C32.6058 55.8284 33.0349 55.9833 33.3718 56.2697C33.7087 56.5561 33.9307 56.9545 33.997 57.3917C34.2797 59.0504 35.0135 60.5993 36.118 61.8687C37.2225 63.1381 38.655 64.079 40.2587 64.5884C41.8624 65.0977 43.5754 65.1558 45.2099 64.7562C46.8444 64.3567 48.3374 63.515 49.5254 62.3234C50.8583 60.9781 51.7475 59.2572 52.0737 57.3917C52.14 56.9545 52.3621 56.5561 52.699 56.2697C53.0359 55.9833 53.4649 55.8284 53.907 55.8334H85.1654Z"
        fill="url(#paint2_linear_569_6292)" />
    <path d="M17.332 24.6667H68.6654V48.5001H17.332V24.6667Z" fill="url(#paint3_linear_569_6292)" />
    <path
        d="M59.499 17.3334C59.5032 14.1921 58.6106 11.115 56.9262 8.46356C55.2418 5.81214 52.8355 3.69663 49.9902 2.36567C47.1449 1.03471 43.9788 0.543601 40.8639 0.950072C37.7491 1.35654 34.8151 2.6437 32.4066 4.66026C29.9981 6.67682 28.2153 9.33899 27.2677 12.3339C26.3201 15.3288 26.2471 18.5319 27.0572 21.5669C27.8674 24.6018 29.527 27.3425 31.8411 29.4667C34.1552 31.5909 37.0276 33.0104 40.1207 33.5584L42.174 37.7017C42.2538 37.8512 42.3726 37.9763 42.518 38.0634C42.6633 38.1506 42.8295 38.1967 42.999 38.1967C43.1685 38.1967 43.3347 38.1506 43.4801 38.0634C43.6254 37.9763 43.7443 37.8512 43.824 37.7017L45.8773 33.5584C49.6911 32.8827 53.1456 30.887 55.636 27.9207C58.1263 24.9543 59.4938 21.2065 59.499 17.3334Z"
        fill="#E0E0E0" />
    <path
        d="M45.584 17.3333L49.8007 13.135C50.1459 12.7898 50.3399 12.3215 50.3399 11.8333C50.3399 11.3451 50.1459 10.8769 49.8007 10.5317C49.4555 10.1864 48.9873 9.99249 48.499 9.99249C48.0108 9.99249 47.5426 10.1864 47.1974 10.5317L42.999 14.7483L38.8007 10.5317C38.6298 10.3607 38.4268 10.2251 38.2035 10.1326C37.9802 10.0401 37.7408 9.99249 37.499 9.99249C37.0108 9.99249 36.5426 10.1864 36.1974 10.5317C35.8521 10.8769 35.6582 11.3451 35.6582 11.8333C35.6582 12.3215 35.8521 12.7898 36.1974 13.135L40.414 17.3333L36.1974 21.5317C36.0264 21.7026 35.8908 21.9055 35.7983 22.1289C35.7058 22.3522 35.6582 22.5916 35.6582 22.8333C35.6582 23.3215 35.8521 23.7898 36.1974 24.135C36.5426 24.4802 37.0108 24.6742 37.499 24.6742C37.7408 24.6742 37.9802 24.6265 38.2035 24.534C38.4268 24.4415 38.6298 24.3059 38.8007 24.135L42.999 19.9183L47.1974 24.135C47.5426 24.4802 48.0108 24.6742 48.499 24.6742C48.9873 24.6742 49.4555 24.4802 49.8007 24.135C50.1459 23.7898 50.3399 23.3215 50.3399 22.8333C50.3399 22.3451 50.1459 21.8769 49.8007 21.5317L45.584 17.3333Z"
        fill="#BABABA" />
    <path
        d="M19.1654 68.6667H8.16536C7.15284 68.6667 6.33203 69.4876 6.33203 70.5001V77.8334C6.33203 78.8459 7.15284 79.6667 8.16536 79.6667H19.1654C20.1779 79.6667 20.9987 78.8459 20.9987 77.8334V70.5001C20.9987 69.4876 20.1779 68.6667 19.1654 68.6667Z"
        fill="url(#paint4_linear_569_6292)" />
    <path
        d="M15.499 76H11.8324C11.3461 76 10.8798 75.8069 10.536 75.4631C10.1922 75.1193 9.99902 74.6529 9.99902 74.1667C9.99902 73.6805 10.1922 73.2142 10.536 72.8703C10.8798 72.5265 11.3461 72.3334 11.8324 72.3334H15.499C15.9853 72.3334 16.4516 72.5265 16.7954 72.8703C17.1392 73.2142 17.3324 73.6805 17.3324 74.1667C17.3324 74.6529 17.1392 75.1193 16.7954 75.4631C16.4516 75.8069 15.9853 76 15.499 76Z"
        fill="#CCCCCC" />
    <path
        d="M30.166 79.6668H26.4993C26.0131 79.6668 25.5468 79.4736 25.203 79.1298C24.8592 78.786 24.666 78.3197 24.666 77.8335C24.666 77.3472 24.8592 76.8809 25.203 76.5371C25.5468 76.1933 26.0131 76.0001 26.4993 76.0001H30.166C30.6522 76.0001 31.1186 76.1933 31.4624 76.5371C31.8062 76.8809 31.9993 77.3472 31.9993 77.8335C31.9993 78.3197 31.8062 78.786 31.4624 79.1298C31.1186 79.4736 30.6522 79.6668 30.166 79.6668Z"
        fill="#939393" />
    <path
        d="M33.8327 72.3334H26.4993C26.0131 72.3334 25.5468 72.1403 25.203 71.7964C24.8592 71.4526 24.666 70.9863 24.666 70.5001C24.666 70.0139 24.8592 69.5475 25.203 69.2037C25.5468 68.8599 26.0131 68.6667 26.4993 68.6667H33.8327C34.3189 68.6667 34.7852 68.8599 35.129 69.2037C35.4729 69.5475 35.666 70.0139 35.666 70.5001C35.666 70.9863 35.4729 71.4526 35.129 71.7964C34.7852 72.1403 34.3189 72.3334 33.8327 72.3334Z"
        fill="#939393" />
    <defs>
        <linearGradient id="paint0_linear_569_6292" x1="9.08222" y1="83.6268" x2="9.08222" y2="24.6667"
            gradientUnits="userSpaceOnUse">
            <stop stop-color="#B2B2B2" />
            <stop offset="1" stop-color="#C9C9C9" />
        </linearGradient>
        <linearGradient id="paint1_linear_569_6292" x1="76.916" y1="83.6268" x2="76.916" y2="-0.999917"
            gradientUnits="userSpaceOnUse">
            <stop stop-color="#B2B2B2" />
            <stop offset="1" stop-color="#C9C9C9" />
        </linearGradient>
        <linearGradient id="paint2_linear_569_6292" x1="42.9987" y1="85.1667" x2="42.9987" y2="55.8334"
            gradientUnits="userSpaceOnUse">
            <stop stop-color="#A1A1A1" />
            <stop offset="1" stop-color="#DFDFDF" />
        </linearGradient>
        <linearGradient id="paint3_linear_569_6292" x1="42.9987" y1="48.5001" x2="42.9987" y2="-0.999918"
            gradientUnits="userSpaceOnUse">
            <stop stop-color="#9E9E9E" />
            <stop offset="1" stop-color="#CCCCCC" />
        </linearGradient>
        <linearGradient id="paint4_linear_569_6292" x1="6.33203" y1="74.1667" x2="20.9987" y2="74.1667"
            gradientUnits="userSpaceOnUse">
            <stop stop-color="#DADADA" />
            <stop offset="1" stop-color="#EBEBEB" />
        </linearGradient>
    </defs>
</svg>