<svg xmlns="http://www.w3.org/2000/svg" width="40" height="40" fill="none"><path fill="#fff" d="M30.2 13.4H30v-.2c0-1.7-1.4-3-3.1-3h-.2V10c0-1.7-1.4-3-3-3h-7.3c-1.7 0-3 1.4-3 3v.2h-.2c-1.7 0-3 1.4-3 3v.2H10c-1.7 0-3 1.4-3 3v13.9c0 1.7 1.4 3 3 3h20.4c1.7 0 3-1.4 3-3V16.4c0-1.7-1.4-3-3-3h-.2Zm0 17.9H9.7c-.6 0-1-.5-1-1V16.4c0-.6.5-1 1-1h20.4c.6 0 1 .5 1 1v13.9c0 .6-.5 1-1 1h.1Zm-15-21.4c0-.6.5-1 1-1h7.3c.6 0 1 .5 1 1v.2h-9.4v-.2h.1Zm-3.3 3.3c0-.6.5-1 1-1h13.9c.6 0 1 .5 1 1v.2H12v-.2h-.1Z"/><path fill="#fff" d="M24.1 22.6c.4.2.4.8 0 1l-5.7 3.3c-.4.2-.9 0-.9-.5v-6.6c0-.5.5-.8.9-.5l5.7 3.3Z"/></svg>