<svg width="40" height="40" viewBox="0 0 40 40" fill="none" xmlns="http://www.w3.org/2000/svg">
<path d="M40 20.0007C40 30.102 32.5124 38.4529 22.7853 39.808C21.8758 39.9341 20.9452 40 20.0007 40C18.9104 40 17.8398 39.9131 16.7971 39.7449C7.27324 38.2118 0 29.9548 0 20.0007C0 8.95491 8.95491 0 19.9993 0C31.0437 0 40 8.95491 40 20.0007Z" fill="url(#paint0_linear_1182_9493)"/>
<path d="M22.7853 16.0635V20.4217H28.175L27.3216 26.2925H22.7853V39.8185C21.8758 39.9447 20.9452 40.0106 20.0007 40.0106C18.9104 40.0106 17.8397 39.9236 16.7971 39.7554V26.2925H11.8264V20.4217H16.7971V15.0892C16.7971 11.781 19.478 9.0979 22.7867 9.0979V9.1007C22.7965 9.1007 22.8049 9.0979 22.8147 9.0979H28.1764V14.1752H24.6729C23.6317 14.1752 22.7867 15.0205 22.7867 16.0621L22.7853 16.0635Z" fill="white"/>
<defs>
<linearGradient id="paint0_linear_1182_9493" x1="20" y1="0" x2="20" y2="40" gradientUnits="userSpaceOnUse">
<stop stop-color="#1877F2"/>
<stop offset="1" stop-color="#1565CC"/>
</linearGradient>
</defs>
</svg>
