<svg width="42" height="42" viewBox="0 0 42 42" fill="none" xmlns="http://www.w3.org/2000/svg">
<path fill-rule="evenodd" clip-rule="evenodd" d="M2.46087 11.2613C1.8543 17.6895 1.84489 24.1176 2.44206 30.5458L2.44676 30.5505C2.88876 35.3422 6.66456 39.1182 11.456 39.5602C17.8791 40.1527 24.3069 40.148 30.7347 39.5414C35.3898 39.0994 39.0997 35.3892 39.5417 30.7339C40.153 24.2446 40.153 17.7553 39.5417 11.266C39.0997 6.61068 35.3898 2.9005 30.7347 2.45848C24.2458 1.84717 17.7568 1.84717 11.2679 2.45848C6.61283 2.8958 2.89817 6.61068 2.46087 11.2613ZM15.9923 31.5002C15.9722 31.5022 15.9525 31.5042 15.9331 31.5062V31.4968C15.8437 31.5015 15.7544 31.5062 15.6651 31.5015C15.4158 31.4779 15.1666 31.4544 14.9268 31.3933C14.6961 31.3333 14.4608 31.2235 14.2522 31.1261L14.2403 31.1206C14.1604 31.0829 14.0899 31.0453 14.0193 30.9983C13.8124 30.8619 13.6149 30.7162 13.4363 30.5422C13.2982 30.4081 13.1768 30.2409 13.0635 30.0851C13.0417 30.0551 13.0202 30.0255 12.999 29.9967C12.9425 29.9215 12.8908 29.8415 12.8485 29.7522C12.8432 29.7408 12.8379 29.7295 12.8326 29.7181C12.7388 29.5173 12.6428 29.3119 12.5805 29.0938C12.446 28.6232 12.4512 28.1127 12.4563 27.6182C12.4573 27.5247 12.4582 27.4318 12.4582 27.3399V13.9005C12.4582 13.6277 12.5005 13.3456 12.5523 13.0775C12.5924 12.8686 12.6876 12.6596 12.776 12.4654C12.7911 12.4323 12.8059 12.3996 12.8203 12.3675C12.8532 12.2923 12.8908 12.2217 12.9331 12.1512C13.0648 11.9443 13.22 11.7421 13.3892 11.5634C13.5122 11.4292 13.6706 11.3128 13.8177 11.2047C13.8562 11.1764 13.8939 11.1487 13.93 11.1214C14.1933 10.9239 14.513 10.8016 14.8187 10.6981C15.0138 10.6318 15.238 10.6076 15.4457 10.5851C15.4883 10.5805 15.5302 10.576 15.571 10.5712C15.6509 10.5571 15.7356 10.5571 15.8155 10.5571H15.8155C16.3939 10.5759 16.9299 10.7217 17.4331 11.0085C17.6874 11.1529 17.9392 11.2997 18.1921 11.4472C18.2853 11.5016 18.3786 11.556 18.4722 11.6104C18.8601 11.8337 19.248 12.0583 19.6359 12.2828C20.0238 12.5073 20.4118 12.7319 20.7998 12.9553C21.2935 13.2398 21.786 13.5243 22.2786 13.8088C22.7711 14.0933 23.2637 14.3778 23.7574 14.6622C24.7307 15.2265 25.7087 15.7908 26.6867 16.355L26.6868 16.3551C27.4391 16.7877 28.1867 17.2203 28.9343 17.6529L28.9344 17.653C29.0685 17.7306 29.2013 17.807 29.3342 17.8834C29.467 17.9598 29.5998 18.0362 29.7338 18.1138C29.7714 18.1326 29.8043 18.1514 29.8372 18.1749C29.856 18.1867 29.8737 18.1984 29.8913 18.2102C29.9089 18.2219 29.9266 18.2337 29.9454 18.2455C30.092 18.3432 30.228 18.4551 30.3626 18.5658C30.3834 18.5829 30.4042 18.5999 30.425 18.6169C30.4955 18.6781 30.5567 18.7392 30.6131 18.8097C30.6279 18.8279 30.6428 18.8461 30.6577 18.8643C30.79 19.0258 30.926 19.1919 31.0316 19.3693C31.1448 19.5652 31.2257 19.7773 31.3043 19.9831C31.3105 19.9995 31.3168 20.016 31.3231 20.0324C31.3513 20.1076 31.3748 20.1828 31.3889 20.2581C31.4359 20.4979 31.4736 20.7424 31.483 20.9869C31.4877 21.0622 31.483 21.1421 31.4736 21.2174C31.4718 21.2349 31.47 21.2526 31.4682 21.2705C31.4462 21.4883 31.4215 21.7333 31.3607 21.9462C31.1162 22.7927 30.552 23.4933 29.7902 23.9306L29.3529 24.1846C29.0285 24.3703 28.7052 24.5572 28.3819 24.7441C28.0587 24.9311 27.7354 25.118 27.4109 25.3037L24.6038 26.926C23.5975 27.5044 22.5866 28.0875 21.5803 28.6706C20.9536 29.0357 20.3244 29.3982 19.6963 29.76C19.4668 29.8922 19.2373 30.0244 19.0083 30.1566C18.7661 30.2953 18.5239 30.4352 18.2818 30.5751C18.0396 30.715 17.7975 30.8549 17.5553 30.9936C17.5365 31.0054 17.5177 31.0159 17.4989 31.0265C17.4801 31.0371 17.4613 31.0477 17.4425 31.0594L17.4424 31.0595C17.4189 31.0736 17.3954 31.0877 17.3672 31.1018C17.1462 31.2146 16.9158 31.3181 16.676 31.3886C16.4607 31.4532 16.2099 31.4783 15.9923 31.5002ZM16.2152 26.8273V26.8367V26.8602C16.2152 27.1141 16.4879 27.274 16.7089 27.1471C16.8171 27.0906 16.9205 27.0295 17.024 26.9684C17.2614 26.832 17.4989 26.6945 17.7363 26.5569C17.9738 26.4194 18.2113 26.2818 18.4487 26.1455C18.7332 25.9809 19.0165 25.8175 19.2998 25.6541C19.5831 25.4906 19.8664 25.3272 20.1509 25.1627C20.4542 24.9863 20.7575 24.8111 21.0608 24.6359C21.3641 24.4608 21.6673 24.2856 21.9706 24.1093C22.2715 23.9353 22.5736 23.7613 22.8758 23.5874C23.1779 23.4134 23.48 23.2394 23.7809 23.0654C24.1803 22.8313 24.5821 22.5997 24.9828 22.3688C25.1294 22.2843 25.2759 22.1999 25.4219 22.1155C25.8732 21.857 26.3197 21.5985 26.7662 21.3399L26.7667 21.3396C26.7738 21.3349 26.7797 21.3314 26.7856 21.3279C26.7914 21.3243 26.7973 21.3208 26.8044 21.3161C27.0254 21.1891 27.0254 20.8741 26.8044 20.7471C26.6727 20.6672 26.541 20.5919 26.4094 20.5167C25.9352 20.2444 25.4563 19.9674 24.9774 19.6904L24.9752 19.6891C24.6931 19.5269 24.4098 19.3634 24.1265 19.2C23.8432 19.0366 23.5599 18.8732 23.2778 18.711L21.4628 17.6624C21.1642 17.4907 20.8657 17.318 20.5671 17.1452C20.2685 16.9723 19.9699 16.7995 19.6713 16.6278C19.3986 16.4704 19.1271 16.314 18.8557 16.1577C18.584 16.0013 18.3124 15.8449 18.0396 15.6874C17.5976 15.4287 17.1556 15.1748 16.7136 14.9209H16.7089C16.4879 14.7939 16.2152 14.9538 16.2152 15.2077V26.8273Z" fill="#FAC33D"/>
</svg>
