<svg width="100%" height="100%" viewBox="0 0 24 24" fill="none" xmlns="http://www.w3.org/2000/svg">
<g clip-path="url(#clip0_2505_42653)">
<path d="M10.9994 13.4C10.7994 13.4 10.5994 13.4 10.3994 13.2C10.1994 13 10.0994 12.7 10.1994 12.5L10.5994 10.3C10.5994 9.8 10.8994 9.4 11.1994 9.1L17.5994 2.7C18.4994 1.8 19.9994 1.8 20.8994 2.7C21.7994 3.6 21.7994 5.1 20.8994 6L14.4994 12.4C14.1994 12.7 13.7994 12.9 13.2994 13L11.0994 13.4C11.0994 13.4 10.9994 13.4 10.8994 13.4H10.9994ZM19.2994 3.6C19.0994 3.6 18.8994 3.6 18.7994 3.8L12.3994 10.2C12.2994 10.3 12.1994 10.4 12.1994 10.6L11.9994 11.7L13.0994 11.5C13.1994 11.5 13.3994 11.5 13.4994 11.3L19.8994 4.9C20.1994 4.6 20.1994 4.2 19.8994 3.9C19.7994 3.8 19.5994 3.7 19.3994 3.7L19.2994 3.6Z" fill="currentColor"/>
<path d="M5.9 21.6C5.5 21.6 5.1 21.2 5.1 20.8V20C3.4 19.6 2 18.1 2 16.2V8.6C2 6.5 3.7 4.7 5.9 4.7H11.3C11.7 4.7 12.1 5.1 12.1 5.5C12.1 5.9 11.7 6.3 11.3 6.3H5.9C4.7 6.3 3.6 7.3 3.6 8.6V16.2C3.6 17.4 4.6 18.5 5.9 18.5C7.2 18.5 6.7 18.9 6.7 19.3V19.9C7.2 19.7 7.6 19.4 7.8 18.9C7.9 18.7 8.2 18.5 8.5 18.5H17.8C19 18.5 20.1 17.5 20.1 16.2V8.9C20.1 8.5 20.5 8.1 20.9 8.1C21.3 8.1 21.7 8.5 21.7 8.9V16.2C21.7 18.3 20 20.1 17.8 20.1H8.9C8.2 21.1 7 21.6 5.8 21.6H5.9Z" fill="currentColor"/>
<path d="M16.5016 16.6H5.90156C5.50156 16.6 5.10156 16.2 5.10156 15.8C5.10156 15.4 5.50156 15 5.90156 15H16.6016C17.0016 15 17.4016 15.4 17.4016 15.8C17.4016 16.2 17.0016 16.6 16.6016 16.6H16.5016Z" fill="currentColor"/>
<path d="M7.40156 13.6H5.90156C5.50156 13.6 5.10156 13.2 5.10156 12.8C5.10156 12.4 5.50156 12 5.90156 12H7.40156C7.80156 12 8.20156 12.4 8.20156 12.8C8.20156 13.2 7.80156 13.6 7.40156 13.6Z" fill="currentColor"/>
</g>
<defs>
<clipPath id="clip0_2505_42653">
<rect width="19.6" height="19.6" fill="white" transform="translate(2 2)"/>
</clipPath>
</defs>
</svg>
