<svg width="26" height="26" viewBox="0 0 26 26" fill="none" xmlns="http://www.w3.org/2000/svg">
    <path fill-rule="evenodd" clip-rule="evenodd"
        d="M10.2544 3.52075H15.7456C16.9786 3.52075 17.9557 3.52074 18.7422 3.58763C19.5467 3.65606 20.226 3.79889 20.8424 4.12837C21.74 4.60813 22.4751 5.34328 22.9549 6.24086C23.2844 6.85726 23.4272 7.53659 23.4956 8.34107C23.5625 9.12753 23.5625 10.1046 23.5625 11.3376V11.4122C23.5625 12.6452 23.5625 13.6223 23.4956 14.4088C23.4272 15.2132 23.2844 15.8926 22.9549 16.509C22.4751 17.4066 21.74 18.1417 20.8424 18.6215C20.226 18.9509 19.5467 19.0938 18.7422 19.1622C17.9557 19.2291 16.9786 19.2291 15.7456 19.2291H13C12.5513 19.2291 12.1875 18.8653 12.1875 18.4166C12.1875 17.9679 12.5513 17.6041 13 17.6041H15.7083C16.9869 17.6041 17.8949 17.6034 18.6045 17.5431C19.3039 17.4836 19.7355 17.3706 20.0764 17.1884C20.6905 16.8601 21.1935 16.3571 21.5218 15.743C21.704 15.4021 21.817 14.9705 21.8765 14.2711C21.9368 13.5615 21.9375 12.6535 21.9375 11.3749C21.9375 10.0963 21.9368 9.18832 21.8765 8.47879C21.817 7.77935 21.704 7.34775 21.5218 7.00688C21.1935 6.39275 20.6905 5.88975 20.0764 5.56149C19.7355 5.37929 19.3039 5.26628 18.6045 5.20679C17.8949 5.14644 16.9869 5.14575 15.7083 5.14575H10.2917C9.01309 5.14575 8.10507 5.14644 7.39554 5.20679C6.6961 5.26628 6.2645 5.37929 5.92362 5.56149C5.30949 5.88975 4.8065 6.39275 4.47824 7.00688C4.29604 7.34775 4.18303 7.77935 4.12354 8.47879C4.06319 9.18832 4.0625 10.0963 4.0625 11.3749V14.0833C4.0625 16.0278 5.63883 17.6041 7.58333 17.6041C8.03206 17.6041 8.39583 17.9679 8.39583 18.4166C8.39583 18.8653 8.03206 19.2291 7.58333 19.2291C4.74137 19.2291 2.4375 16.9252 2.4375 14.0833L2.4375 11.3376C2.43749 10.1046 2.43749 9.12753 2.50438 8.34107C2.57281 7.53659 2.71564 6.85726 3.04511 6.24086C3.52488 5.34328 4.26003 4.60813 5.1576 4.12837C5.77401 3.79889 6.45334 3.65606 7.25781 3.58763C8.04428 3.52074 9.02138 3.52075 10.2544 3.52075Z"
        fill="#848484" />
    <path fill-rule="evenodd" clip-rule="evenodd"
        d="M7.8403 17.6459C8.26601 17.7878 8.49607 18.248 8.35417 18.6737L7.89114 20.0628L12.6367 17.69C13.038 17.4893 13.5261 17.652 13.7268 18.0534C13.9274 18.4547 13.7648 18.9428 13.3634 19.1434L6.8634 22.3934C6.56946 22.5404 6.21594 22.4958 5.96768 22.2805C5.71942 22.0652 5.62531 21.7216 5.72923 21.4098L6.81256 18.1598C6.95446 17.7341 7.4146 17.504 7.8403 17.6459Z"
        fill="#848484" />
</svg>