<svg width="26" height="26" viewBox="0 0 26 26" fill="none" xmlns="http://www.w3.org/2000/svg">
<path d="M18.4545 3H7.54545C5.03909 3 3 5.03909 3 7.54545V14.8182C3 17.0127 4.56455 18.8491 6.63636 19.2718V22.0909C6.63636 22.4264 6.82091 22.7345 7.11636 22.8927C7.25091 22.9645 7.39818 23 7.54545 23C7.72182 23 7.89727 22.9482 8.05 22.8473L13.2755 19.3636H18.4545C20.9609 19.3636 23 17.3245 23 14.8182V7.54545C23 5.03909 20.9609 3 18.4545 3ZM12.4955 17.6982L8.45455 20.3918V18.4545C8.45455 17.9527 8.04727 17.5455 7.54545 17.5455C6.04182 17.5455 4.81818 16.3218 4.81818 14.8182V7.54545C4.81818 6.04182 6.04182 4.81818 7.54545 4.81818H18.4545C19.9582 4.81818 21.1818 6.04182 21.1818 7.54545V14.8182C21.1818 16.3218 19.9582 17.5455 18.4545 17.5455H13C12.9364 17.5445 12.8455 17.5509 12.7418 17.5818C12.6327 17.6136 12.55 17.6609 12.4955 17.6982Z" fill="white"/>
<path d="M18.4545 8.45453H7.54544C7.04363 8.45453 6.63635 8.8618 6.63635 9.36362C6.63635 9.86544 7.04363 10.2727 7.54544 10.2727H18.4545C18.9564 10.2727 19.3636 9.86544 19.3636 9.36362C19.3636 8.8618 18.9564 8.45453 18.4545 8.45453Z" fill="white"/>
<path d="M16.6364 12.0909H9.36368C8.86186 12.0909 8.45459 12.4982 8.45459 13C8.45459 13.5019 8.86186 13.9091 9.36368 13.9091H16.6364C17.1382 13.9091 17.5455 13.5019 17.5455 13C17.5455 12.4982 17.1382 12.0909 16.6364 12.0909Z" fill="white"/>
</svg>
