<svg width="27" height="27" viewBox="0 0 27 27" fill="none" xmlns="http://www.w3.org/2000/svg">
<g clip-path="url(#clip0_25570_24034)">
<path d="M13.0312 2.03406C6.96586 2.03406 2.03125 6.96867 2.03125 13.0341C2.03125 19.0994 6.96586 24.0341 13.0312 24.0341C19.0965 24.0341 24.0312 19.0994 24.0312 13.0341C24.0312 6.96867 19.0966 2.03406 13.0312 2.03406ZM12.1465 2.89048H13.8529V4.59688H12.1465V2.89048ZM20.7134 13.0341C20.7134 17.2701 17.2672 20.7163 13.0312 20.7163C8.79531 20.7163 5.34915 17.27 5.34915 13.0341C5.34915 8.79812 8.79541 5.35186 13.0312 5.35186C17.2672 5.35186 20.7134 8.79812 20.7134 13.0341ZM6.462 5.2582L7.66861 6.46481L6.462 7.67142L5.25539 6.46481L6.462 5.2582ZM4.5625 13.8873H2.8561V12.1809H4.5625V13.8873ZM6.462 20.81L5.25539 19.6034L6.462 18.3968L7.66861 19.6034L6.462 20.81ZM13.8529 23.1776H12.1465V21.4712H13.8529V23.1776ZM19.6005 20.81L18.3939 19.6034L19.6005 18.3968L20.8071 19.6034L19.6005 20.81ZM19.6005 7.67142L18.3939 6.46481L19.6005 5.2582L20.8071 6.46481L19.6005 7.67142ZM21.4369 13.8873V12.1809H23.1433V13.8873H21.4369Z" fill="currentColor"/>
<path d="M6.77344 13.0341C6.77344 16.4859 9.58169 19.2943 13.0335 19.2943C16.4854 19.2943 19.2937 16.4859 19.2937 13.0341C19.2937 9.58221 16.4854 6.77386 13.0335 6.77386C9.58169 6.77386 6.77344 9.58221 6.77344 13.0341ZM16.0269 12.5034C16.3222 12.9836 16.4174 13.4108 16.4174 13.9183C16.4174 15.1725 15.5324 15.8468 14.5262 15.8468C13.8398 15.8468 13.449 15.5225 13.2358 15.2527L13.5996 16.5417H12.4559L12.8117 15.2822C12.5919 15.5439 12.207 15.872 11.5457 15.872C10.5395 15.872 9.64957 15.1852 9.64957 13.9309C9.64957 13.4233 9.74238 12.9835 10.0376 12.5033C10.4979 11.7543 13.0402 9.59833 13.0402 9.59833C13.0402 9.59833 15.5666 11.7544 16.0269 12.5034Z" fill="currentColor"/>
</g>
<defs>
<clipPath id="clip0_25570_24034">
<rect width="22" height="22" fill="white" transform="translate(2.03125 2.03394)"/>
</clipPath>
</defs>
</svg>
