<svg width="100%" height="100%" viewBox="0 0 40 40" fill="none" xmlns="http://www.w3.org/2000/svg">
<path d="M30.1985 13.5271H29.7364V13.0649C29.7364 11.5202 28.4797 10.2636 26.935 10.2636H26.4729V9.80139C26.4729 8.25673 25.2162 7 23.6714 7H16.3285C14.7838 7 13.5271 8.25673 13.5271 9.80144V10.2636H13.065C11.5202 10.2636 10.2635 11.5203 10.2635 13.065V13.5272H9.80139C8.25673 13.5271 7 14.7838 7 16.3285V30.1986C7 31.7433 8.25673 33 9.80144 33H30.1985C31.7433 33 33 31.7433 33 30.1986V16.3285C32.9999 14.7838 31.7432 13.5271 30.1985 13.5271ZM15.0505 9.80144C15.0505 9.09675 15.6238 8.52343 16.3285 8.52343H23.6715C24.3761 8.52343 24.9495 9.09675 24.9495 9.80144V10.2636H15.0505V9.80144ZM11.7869 13.065C11.7869 12.3603 12.3603 11.787 13.065 11.787H26.935C27.6396 11.787 28.213 12.3603 28.213 13.065V13.5272H11.7869V13.065ZM31.4765 30.1986C31.4765 30.9032 30.9032 31.4765 30.1985 31.4765H9.80144C9.09675 31.4765 8.52343 30.9032 8.52343 30.1986V16.3285C8.52343 15.6238 9.09675 15.0505 9.80144 15.0505H30.1985C30.9032 15.0505 31.4766 15.6238 31.4766 16.3285V30.1986H31.4765Z" fill="white" stroke="white" stroke-width="0.5"/>
<path d="M24.1 22.4804C24.5 22.7113 24.5 23.2887 24.1 23.5196L18.4 26.8105C18 27.0415 17.5 26.7528 17.5 26.2909L17.5 19.7091C17.5 19.2472 18 18.9585 18.4 19.1895L24.1 22.4804Z" fill="white"/>
</svg>
