<svg width="26" height="26" viewBox="0 0 26 26" fill="none" xmlns="http://www.w3.org/2000/svg">
<path d="M22 10.3478V13.0435C22 13.6174 21.5304 14.087 20.9565 14.087C20.3826 14.087 19.913 13.6174 19.913 13.0435V10.3478C19.913 8.00001 18 6.08696 15.6522 6.08696H10.3478C8 6.08696 6.08696 8.00001 6.08696 10.3478V15.6522C6.08696 18.0001 8 19.9131 10.3478 19.9131H15.6522C16.4174 19.9131 17.1652 19.7044 17.8174 19.3044H17.5652C16.9913 19.3044 16.5217 18.8348 16.5217 18.2609C16.5217 17.687 16.9913 17.2174 17.5652 17.2174H20.5217C20.6261 17.2174 20.713 17.2609 20.7652 17.287H20.8783L21.2261 17.6435C21.3913 17.8087 21.3913 17.974 21.3913 18.174V20.9566C21.2696 21.5827 20.8 22.0001 20.2609 22.0001C19.687 22.0001 19.2174 21.5305 19.2174 20.9566V20.8696C18.1739 21.5914 16.9043 22.0001 15.6522 22.0001H10.3478C6.84348 22.0001 4 19.1566 4 15.6522V10.3478C4 6.84349 6.84348 4 10.3478 4H15.6522C19.1565 4 22 6.84349 22 10.3478Z" fill="#FAC33D"/>
<path d="M16.452 13.1479C16.4346 13.5739 16.2172 13.9392 15.8694 14.1392L12.3129 16.3913C12.1042 16.5218 11.8694 16.5913 11.6346 16.5913C10.9216 16.5913 10.3477 16.0174 10.3477 15.3044V10.7826C10.3477 10.0696 10.9216 9.49567 11.6346 9.49567C11.8694 9.49567 12.1042 9.56523 12.3129 9.69567L15.8781 11.9565C16.2607 12.2261 16.4781 12.6783 16.452 13.1479Z" fill="#FAC33D"/>
</svg>
