<svg width="26" height="26" viewBox="0 0 26 26" fill="none" xmlns="http://www.w3.org/2000/svg">
    <mask id="mask0_569_6278" style="mask-type:luminance" maskUnits="userSpaceOnUse" x="3" y="3" width="20" height="20">
        <path d="M3.25 3.25H22.75V22.75H3.25V3.25Z" fill="white" />
    </mask>
    <g mask="url(#mask0_569_6278)">
        <path fill-rule="evenodd" clip-rule="evenodd"
            d="M10.0039 21.1758C7.14326 21.1758 4.82422 18.8568 4.82422 15.9961V13C4.82422 12.5513 4.46045 12.1875 4.01172 12.1875C3.56299 12.1875 3.19922 12.5513 3.19922 13V15.9961C3.19922 19.7542 6.24581 22.8008 10.0039 22.8008H15.9961C19.7542 22.8008 22.8008 19.7542 22.8008 15.9961V10.0039C22.8008 6.24576 19.7542 3.19922 15.9961 3.19922H10.0039C8.33604 3.19922 6.80878 3.79947 5.62589 4.79461V4.01172C5.62589 3.56299 5.26212 3.19922 4.81339 3.19922C4.36466 3.19922 4.00089 3.56299 4.00089 4.01172V7.00783C4.00089 7.45656 4.36466 7.82033 4.81339 7.82033H7.8095C8.25823 7.82033 8.622 7.45656 8.622 7.00783C8.622 6.55909 8.25823 6.19533 7.8095 6.19533H6.49319C7.41667 5.34358 8.64988 4.82422 10.0039 4.82422H15.9961C18.8568 4.82422 21.1758 7.14322 21.1758 10.0039V15.9961C21.1758 18.8568 18.8568 21.1758 15.9961 21.1758H10.0039ZM12.4255 13.5745L15.4216 16.5706C15.7389 16.8879 16.2533 16.8879 16.5706 16.5706C16.8879 16.2533 16.8879 15.7389 16.5706 15.4216L13.8125 12.6635V8.50586C13.8125 8.05713 13.4487 7.69336 13 7.69336C12.5513 7.69336 12.1875 8.05713 12.1875 8.50586V13C12.1875 13.2155 12.2731 13.4222 12.4255 13.5745Z"
            fill="#848484" />
    </g>
</svg>