<svg width="100%" height="100%" viewBox="0 0 24 24" fill="none" xmlns="http://www.w3.org/2000/svg">
<path d="M19.4777 21.0001C19.0299 21.0001 18.6717 20.6419 18.6717 20.1941V19.5672C17.5971 20.4628 16.1642 21.0001 14.7314 21.0001H9.26869C5.77613 21.0001 3 18.1344 3 14.7314V9.26869C3 5.77613 5.86569 3 9.26869 3H14.7314C18.224 3 21.0001 5.86569 21.0001 9.26869V12.0448C21.0001 12.4926 20.6419 12.8508 20.1941 12.8508C19.7464 12.8508 19.3881 12.4926 19.3881 12.0448V9.26869C19.3881 6.67166 17.2389 4.61195 14.7314 4.61195H9.26869C6.67166 4.61195 4.61195 6.76121 4.61195 9.26869V14.7314C4.61195 17.3284 6.76121 19.3881 9.26869 19.3881H14.7314C15.8956 19.3881 16.9702 18.9404 17.7762 18.224H16.7016C16.2538 18.224 15.8956 17.8657 15.8956 17.418C15.8956 16.9702 16.2538 16.612 16.7016 16.612H19.4777C19.5672 16.612 19.6568 16.612 19.7464 16.612C19.8359 16.612 19.9255 16.7016 20.015 16.7016C20.1046 16.7911 20.1941 16.8807 20.2837 16.9702C20.3732 17.0598 20.3732 17.1493 20.3732 17.3284V17.418V20.1941C20.2837 20.6419 19.9255 21.0001 19.4777 21.0001Z" fill="currentColor"/>
<path d="M14.8227 11.1495C15.4495 11.5972 15.4495 12.5823 14.8227 12.9405L11.151 15.2689C10.4346 15.7167 9.53906 15.1793 9.53906 14.3734V9.71662C9.53906 8.91065 10.4346 8.37333 11.151 8.8211L14.8227 11.1495Z" fill="currentColor"/>
</svg>
