<svg width="25" height="24" viewBox="0 0 25 24" fill="none" xmlns="http://www.w3.org/2000/svg">
    <path
        d="M5.31944 7.208C8.22827 4.28797 9.68269 2.82796 11.4319 2.49728C12.1377 2.36384 12.8623 2.36384 13.5681 2.49728C15.3173 2.82796 16.7717 4.28797 19.6806 7.208C20.7758 8.30745 21.3234 8.85717 21.6741 9.52302C21.8186 9.79741 21.9372 10.0847 22.0285 10.381C22.25 11.1002 22.25 11.8762 22.25 13.428V17.8998C22.25 17.9927 22.25 18.0391 22.2492 18.0784C22.2071 20.0879 20.5881 21.7069 18.5785 21.749C18.5393 21.7498 18.4855 21.7498 18.378 21.7498C18.3113 21.7498 18.2779 21.7498 18.2558 21.7496C16.2193 21.7256 14.5743 20.0805 14.5503 18.044C14.55 18.0219 14.55 17.9958 14.55 17.9436V16.1873C14.55 15.0551 13.6322 14.1373 12.5 14.1373C11.3678 14.1373 10.45 15.0551 10.45 16.1873V17.9436C10.45 17.9958 10.45 18.0219 10.4497 18.044C10.4257 20.0805 8.78068 21.7256 6.74418 21.7496C6.72209 21.7498 6.68873 21.7498 6.622 21.7498C6.51449 21.7498 6.46073 21.7498 6.42147 21.749C4.41192 21.7069 2.79292 20.0879 2.75082 18.0784C2.75 18.0391 2.75 17.9927 2.75 17.8998V13.428C2.75 11.8762 2.75 11.1002 2.97151 10.381C3.06279 10.0847 3.18144 9.79741 3.32594 9.52302C3.67659 8.85717 4.2242 8.30744 5.31944 7.208Z"
        fill="currentColor" />
</svg>