<svg width="70" height="70" viewBox="0 0 70 70" fill="none" xmlns="http://www.w3.org/2000/svg">
<path d="M64.1667 22.05V47.95C64.1665 48.3638 64.0493 48.769 63.8288 49.1191C63.6082 49.4692 63.2933 49.7499 62.9202 49.9288C62.5471 50.1077 62.1311 50.1776 61.72 50.1304C61.3089 50.0833 60.9196 49.9209 60.5967 49.6621L54.2851 44.5958C54.183 44.5138 54.1007 44.4099 54.0442 44.2917C53.9876 44.1736 53.9583 44.0443 53.9584 43.9133V26.0867C53.9583 25.9557 53.9876 25.8264 54.0442 25.7083C54.1007 25.5902 54.183 25.4862 54.2851 25.4042L60.5967 20.3379C60.9196 20.0791 61.3089 19.9168 61.72 19.8696C62.1311 19.8224 62.5471 19.8923 62.9202 20.0712C63.2933 20.2501 63.6082 20.5308 63.8288 20.8809C64.0493 21.231 64.1665 21.6362 64.1667 22.05ZM49.5834 46.6667V23.3333C49.753 22.1448 49.6436 20.9331 49.2638 19.7941C48.884 18.6552 48.2444 17.6203 47.3954 16.7713C46.5465 15.9224 45.5116 15.2827 44.3726 14.9029C43.2337 14.5232 42.022 14.4138 40.8334 14.5833H14.5834C13.3949 14.4138 12.1831 14.5232 11.0442 14.9029C9.90525 15.2827 8.87034 15.9224 8.02139 16.7713C7.17244 17.6203 6.53277 18.6552 6.15301 19.7941C5.77325 20.9331 5.66383 22.1448 5.83341 23.3333V46.6667C5.66383 47.8552 5.77325 49.0669 6.15301 50.2059C6.53277 51.3448 7.17244 52.3798 8.02139 53.2287C8.87034 54.0776 9.90525 54.7173 11.0442 55.0971C12.1831 55.4768 13.3949 55.5863 14.5834 55.4167H40.8334C42.022 55.5863 43.2337 55.4768 44.3726 55.0971C45.5116 54.7173 46.5465 54.0776 47.3954 53.2287C48.2444 52.3798 48.884 51.3448 49.2638 50.2059C49.6436 49.0669 49.753 47.8552 49.5834 46.6667Z" fill="#575757"/>
</svg>
