<svg width="19" height="23" viewBox="0 0 19 23" fill="none" xmlns="http://www.w3.org/2000/svg">
<path d="M15.8472 7.36353C15.694 7.21466 15.479 7.14701 15.2687 7.1816C15.058 7.21605 14.876 7.34835 14.7782 7.53819C14.4421 8.19131 14.015 8.79151 13.5126 9.32208C13.5627 8.93881 13.5879 8.55324 13.5879 8.16665C13.5879 7.42485 13.4885 6.66149 13.2923 5.89751C12.6473 3.38813 10.956 1.26597 8.65221 0.0752269C8.45163 -0.0284079 8.21265 -0.0247692 8.0153 0.08493C7.81796 0.194674 7.68872 0.395879 7.67102 0.620938C7.49143 2.90135 6.31681 4.97602 4.44658 6.31434C4.42182 6.33217 4.39725 6.35023 4.37268 6.3682C4.32178 6.40544 4.27381 6.44066 4.22897 6.47021C4.22197 6.47489 4.215 6.47965 4.20818 6.48454C3.03194 7.3267 2.0614 8.44929 1.40137 9.73132C0.730684 11.0354 0.390625 12.4347 0.390625 13.8904C0.390625 14.632 0.490037 15.3953 0.686121 16.1595C1.7209 20.187 5.34537 22.9999 9.5002 22.9999C14.523 22.9999 18.6092 18.9134 18.6092 13.8904C18.6092 11.4134 17.6283 9.09545 15.8472 7.36353Z" fill="currentColor"/>
</svg>
