<svg width="36" height="33" viewBox="0 0 36 29" fill="none" xmlns="http://www.w3.org/2000/svg">
<g filter="url(#filter0_d_18237_33474)">
<path fill-rule="evenodd" clip-rule="evenodd" d="M16.0413 4.97339C11.0565 4.97339 7.01562 9.01431 7.01562 13.999C7.01562 18.9838 11.0565 23.0247 16.0413 23.0247H19.4259C24.4106 23.0247 28.4515 18.9838 28.4515 13.999C28.4515 9.01431 24.4106 4.97339 19.4259 4.97339H16.0413ZM12.8951 9.52258L12.7866 9.36356V9.36395C12.746 9.30485 12.7086 9.23876 12.6753 9.16722C12.6197 9.04786 12.6189 8.91683 12.673 8.80719C12.7232 8.70532 12.8175 8.633 12.9322 8.6089C13.5696 8.47359 14.0854 8.41061 14.5551 8.41061C15.1485 8.41061 15.6789 8.51092 16.1765 8.71699C16.2696 8.75548 16.3592 8.80097 16.4465 8.85073C16.5896 8.93194 16.7263 9.02447 16.86 9.11494L16.866 9.11901L16.8882 9.13402L16.8882 9.13403L16.8882 9.13403L16.8882 9.13404L16.8882 9.13404C16.9468 9.17372 17.0052 9.21327 17.0642 9.25159C17.1604 9.31419 17.2245 9.40789 17.2446 9.5152C17.2639 9.61823 17.2396 9.72632 17.1778 9.81224C17.1052 9.91294 16.9951 9.97048 16.8749 9.97048C16.7799 9.97048 16.686 9.9351 16.6034 9.86823C16.2167 9.55563 15.8106 9.3624 15.3621 9.27647C15.0909 9.22476 14.8167 9.19949 14.5242 9.19949C14.2484 9.19949 13.9583 9.22243 13.643 9.26908C13.7273 9.38611 13.8068 9.49653 13.8868 9.60695C13.8972 9.62173 13.9084 9.63573 13.9196 9.64972C13.9266 9.65828 13.9343 9.668 13.9417 9.67772C13.9544 9.69405 13.9672 9.71154 13.9795 9.7302C14.1035 9.91916 14.0742 10.1423 13.9081 10.2734C13.8374 10.329 13.7558 10.3585 13.672 10.3585C13.6676 10.3585 13.6632 10.3581 13.6588 10.3577L13.65 10.357C13.6463 10.3566 13.6426 10.3564 13.6388 10.3562C13.635 10.356 13.6313 10.3558 13.6276 10.3554C13.5244 10.3422 13.4313 10.2846 13.3614 10.1894C13.2011 9.97059 13.0461 9.74366 12.8962 9.52406L12.8961 9.52395L12.8961 9.52393L12.8951 9.52258ZM23.7258 13.1198C23.4364 12.1408 22.9269 11.4316 22.1674 10.9518C21.5052 10.5331 20.808 10.3208 20.0952 10.3208C19.5996 10.3208 19.0896 10.4242 18.5801 10.6276C18.3529 10.7186 18.1463 10.7625 17.9489 10.7625C17.7515 10.7625 17.5548 10.7174 17.3563 10.6245C16.8282 10.3772 16.2827 10.3336 16.0011 10.3298C15.077 10.3371 14.3419 10.551 13.6882 11.0028C13.4201 11.1882 13.1455 11.4009 12.9523 11.7018C12.5475 12.3321 12.2682 13.0315 12.1221 13.7811C12.0375 14.2151 11.9707 14.6081 12.0136 15.023C12.1233 16.0879 12.5374 17.1015 13.2444 18.0358C14.3001 19.4312 15.6889 20.3939 17.3721 20.8974C17.588 20.9619 17.8279 20.9973 18.0659 20.9997H18.0775C18.2587 20.9997 18.4348 20.96 18.6048 20.9215L18.6774 20.9052C20.0145 20.6089 21.1498 20.0168 22.0523 19.1451C23.8351 17.4223 24.398 15.3951 23.7258 13.1198ZM17.9643 20.2294C17.9133 20.2294 17.8577 20.2217 17.804 20.2073C16.0142 19.7263 14.5941 18.7018 13.5835 17.1626C13.1057 16.4347 12.838 15.6696 12.7877 14.8881C12.768 14.579 12.8287 14.2493 12.8874 13.9305L12.8967 13.8795C13.016 13.231 13.2598 12.635 13.6218 12.1081C13.7245 11.9588 13.8868 11.8091 14.1043 11.6641C14.6641 11.2905 15.2512 11.1007 15.8496 11.1007C16.2649 11.1007 16.6945 11.1921 17.1264 11.3725C17.4223 11.4962 17.7012 11.5564 17.9794 11.5564C18.2575 11.5564 18.5106 11.4985 18.7678 11.3846C19.1858 11.1995 19.6127 11.1054 20.0365 11.1054C20.2397 11.1054 20.446 11.1272 20.65 11.1696C21.6965 11.3877 22.3999 11.9406 22.7994 12.8597C23.0833 13.5121 23.2251 14.1867 23.2336 14.9196C23.2247 15.9409 22.874 16.9374 22.2188 17.8021C21.1997 19.1462 19.79 19.9616 18.0288 20.2248C18.0084 20.2279 17.9867 20.2294 17.9635 20.2294H17.9643ZM19.2587 10.0852C19.2147 10.0852 19.1714 10.0774 19.1312 10.0622L19.1316 10.0614C19.0644 10.0366 19.0049 9.99146 18.9601 9.93042C18.9126 9.86588 18.8859 9.79162 18.8821 9.7158C18.8805 9.69053 18.8821 9.66487 18.8859 9.6396C18.9018 9.53734 18.9597 9.44558 19.0486 9.38104L19.093 9.34877L19.0958 9.34677C19.2865 9.20859 19.4834 9.06594 19.6964 8.95025C20.2059 8.67381 20.7893 8.53345 21.4306 8.53345C21.5005 8.53345 21.5719 8.5354 21.643 8.53851C21.954 8.55289 22.2661 8.58944 22.5725 8.63104C22.6749 8.64504 22.7761 8.65904 22.8769 8.67342C22.958 8.68508 23.0391 8.69635 23.1202 8.70762L23.1202 8.70762L23.1202 8.70763L23.1203 8.70764C23.2918 8.73135 23.4174 8.813 23.4738 8.93742C23.5309 9.06339 23.5089 9.21464 23.4119 9.36355C23.2199 9.65826 23.0164 9.95103 22.8193 10.2341L22.7475 10.3375C22.7405 10.3472 22.7336 10.3565 22.7266 10.3655C22.6219 10.4985 22.5026 10.5276 22.4187 10.5276C22.3728 10.5276 22.326 10.5191 22.2793 10.5016C22.1661 10.4596 22.0819 10.3713 22.0479 10.2593C22.0108 10.1373 22.0367 10.0016 22.1186 9.88726C22.2078 9.76246 22.2986 9.63843 22.3894 9.51479L22.4188 9.47474L22.4189 9.47467C22.4419 9.44347 22.4648 9.41235 22.4875 9.38104C22.4334 9.37288 22.3809 9.36549 22.3287 9.35966C22.0614 9.32972 21.8227 9.31534 21.5986 9.31534C21.2455 9.31534 20.9268 9.35149 20.6251 9.42576C20.2651 9.5144 19.9321 9.67537 19.6357 9.90398C19.623 9.9137 19.6103 9.92381 19.5979 9.93392L19.588 9.94172C19.5606 9.96344 19.5323 9.98585 19.5009 10.007C19.4248 10.0579 19.3414 10.0852 19.2587 10.0852ZM17.0446 7.79087C17.2103 8.0051 17.3243 8.21895 17.3919 8.44095C17.4548 8.64675 17.5034 8.86378 17.5505 9.07387L17.5507 9.0747C17.5665 9.14507 17.5824 9.21545 17.5986 9.28543C17.648 9.49733 17.7941 9.62913 17.9803 9.62913C17.9919 9.62913 18.0038 9.62874 18.0158 9.62758C18.1607 9.61475 18.2719 9.53038 18.3268 9.40285C18.3318 9.39119 18.3364 9.37913 18.3403 9.36708C18.3484 9.34259 18.3546 9.31654 18.3585 9.28932C18.3623 9.2621 18.3646 9.23372 18.3643 9.20456V9.19484L18.3627 9.18512C18.2997 8.71661 18.1916 8.31265 18.0316 7.95067C17.8887 7.6268 17.7156 7.36086 17.5028 7.13769C17.4831 7.11708 17.463 7.09919 17.4421 7.08286L17.4363 7.0782C17.3819 7.03699 17.3239 7.0121 17.2656 7.00355C17.2513 7.00161 17.237 7.00005 17.2223 7.00005C17.1644 7.00005 17.1095 7.01638 17.0589 7.04865C16.9697 7.10542 16.8588 7.22011 16.8403 7.35542C16.8202 7.50199 16.9241 7.6443 16.9697 7.69873C16.9956 7.72944 17.0203 7.76016 17.0438 7.79087H17.0446ZM18.1647 11.8717C18.2729 11.8717 18.3791 11.9196 18.4641 12.0067L18.4645 12.0074C18.8813 12.4343 19.202 12.927 19.4172 13.4717C19.669 14.1097 19.7927 14.8111 19.7942 15.6159C19.7857 16.4126 19.6636 17.2189 19.4206 18.0825C19.3642 18.2835 19.2201 18.4083 19.0448 18.4083C19.01 18.4083 18.9744 18.4032 18.9393 18.3931C18.7199 18.3309 18.614 18.1147 18.6816 17.8671C18.9215 16.9919 19.0316 16.2158 19.0193 15.4942C19.0019 14.4919 18.7647 13.6812 18.2942 13.0164C18.2065 12.8927 18.1079 12.778 18.0033 12.6567C17.9731 12.6217 17.9434 12.5871 17.9136 12.5521C17.746 12.3542 17.7479 12.119 17.919 11.967C17.989 11.9048 18.074 11.8717 18.1647 11.8717Z" fill="white"/>
</g>
<defs>
<filter id="filter0_d_18237_33474" x="0.246389" y="0.460565" width="34.976" height="31.5897" filterUnits="userSpaceOnUse" color-interpolation-filters="sRGB">
<feFlood flood-opacity="0" result="BackgroundImageFix"/>
<feColorMatrix in="SourceAlpha" type="matrix" values="0 0 0 0 0 0 0 0 0 0 0 0 0 0 0 0 0 0 127 0" result="hardAlpha"/>
<feOffset dy="2.25641"/>
<feGaussianBlur stdDeviation="3.38462"/>
<feColorMatrix type="matrix" values="0 0 0 0 0 0 0 0 0 0 0 0 0 0 0 0 0 0 0.06 0"/>
<feBlend mode="normal" in2="BackgroundImageFix" result="effect1_dropShadow_18237_33474"/>
<feBlend mode="normal" in="SourceGraphic" in2="effect1_dropShadow_18237_33474" result="shape"/>
</filter>
</defs>
</svg>
