<svg width="36" height="36" viewBox="0 0 36 36" fill="none" xmlns="http://www.w3.org/2000/svg">
<rect width="36" height="36" rx="18" fill="currentColor"/>
<path d="M25.5517 18.5718C24.9967 18.4874 24.5039 18.8678 24.4243 19.4101C24.2244 20.7723 23.5957 22.0152 22.6061 23.0048C20.0874 25.5235 15.9922 25.5215 13.4745 23.0048C10.9572 20.4871 10.9572 16.3904 13.4745 13.8733C14.4214 12.9269 15.6167 12.3098 16.9546 12.0852C17.5299 11.976 18.1485 11.9571 18.7903 12.0298C19.6715 12.1313 20.4917 12.4237 21.2402 12.8529L19.9468 13.0738C19.4064 13.1665 19.0425 13.6797 19.1357 14.2206C19.2182 14.7047 19.6383 15.0467 20.1137 15.0467C20.169 15.0467 20.2253 15.0423 20.2825 15.0326L23.75 14.4397C24.009 14.3951 24.2409 14.2496 24.3933 14.0342C24.5456 13.8193 24.6058 13.5525 24.5611 13.2925L23.9673 9.8255C23.8761 9.28514 23.3696 8.92322 22.8205 9.01392C22.2801 9.10661 21.9162 9.62035 22.0094 10.1612L22.1657 11.0737C21.2041 10.5343 20.1433 10.1852 19.0163 10.0555C18.1722 9.95942 17.3534 9.98615 16.6039 10.1297C14.8784 10.4188 13.3105 11.2275 12.0696 12.4684C8.7776 15.7603 8.7776 21.1168 12.0696 24.4096C13.7155 26.056 15.8781 26.8788 18.0403 26.8788C20.2029 26.8788 22.3645 26.0561 24.011 24.4096C25.3043 23.1162 26.127 21.4873 26.3899 19.6993C26.4696 19.1559 26.0941 18.6513 25.5517 18.5718Z" fill="#F3F3F3"/>
</svg>
