<svg width="90" height="99" viewBox="0 0 90 99" fill="none" xmlns="http://www.w3.org/2000/svg">
<g filter="url(#filter0_d_11678_9560)">
<path d="M44.3081 56.75L60.6196 56.75L44.3081 82.9844L44.3081 56.75Z" fill="url(#paint0_linear_11678_9560)"/>
<path d="M44.3081 56.75L27.9966 56.75L44.3081 82.9844L44.3081 56.75Z" fill="url(#paint1_linear_11678_9560)"/>
<path d="M34.3025 47.2355L48.4287 55.3912L21.1854 69.9551L34.3025 47.2355Z" fill="url(#paint2_linear_11678_9560)"/>
<path d="M34.3029 47.236L20.1767 39.0802L21.1857 69.9556L34.3029 47.236Z" fill="url(#paint3_linear_11678_9560)"/>
<path d="M54.3574 47.235L40.2312 55.3908L67.4746 69.9546L54.3574 47.235Z" fill="url(#paint4_linear_11678_9560)"/>
<path d="M54.3577 47.235L68.4839 39.0792L67.4749 69.9546L54.3577 47.235Z" fill="url(#paint5_linear_11678_9560)"/>
<path d="M55.9139 37.1069L44.38 25.5729L74.4644 18.5564L55.9139 37.1069Z" fill="url(#paint6_linear_11678_9560)"/>
<path d="M55.9156 37.1088L67.4495 48.6428L74.466 18.5583L55.9156 37.1088Z" fill="url(#paint7_linear_11678_9560)"/>
<path d="M34.0844 37.084L45.6183 25.55L15.5339 18.5335L34.0844 37.084Z" fill="url(#paint8_linear_11678_9560)"/>
<path d="M34.0842 37.0839L22.5502 48.6179L15.5337 18.5334L34.0842 37.0839Z" fill="url(#paint9_linear_11678_9560)"/>
<path d="M73.8791 43.59C73.8791 59.7805 60.6549 72.9083 44.3387 72.9083C28.0225 72.9083 14.7984 59.7805 14.7984 43.59C14.7984 27.3994 28.0225 14.2716 44.3387 14.2716C60.6549 14.2716 73.8791 27.3994 73.8791 43.59Z" fill="url(#paint10_linear_11678_9560)" stroke="url(#paint11_linear_11678_9560)" stroke-width="0.435751"/>
<g filter="url(#filter1_i_11678_9560)">
<ellipse cx="44.2368" cy="43.59" rx="26.1291" ry="25.9343" fill="url(#paint12_linear_11678_9560)"/>
</g>
<g filter="url(#filter2_ii_11678_9560)">
<ellipse cx="44.2904" cy="43.5899" rx="21.7743" ry="21.6119" fill="url(#paint13_linear_11678_9560)"/>
</g>
<g filter="url(#filter3_d_11678_9560)">
<path d="M53.7356 52.9265L34.4978 52.7871L57.9177 39.6831L53.7356 52.9265Z" fill="url(#paint14_linear_11678_9560)" stroke="url(#paint15_linear_11678_9560)" stroke-width="0.435751"/>
<path d="M43.6984 31.5977L53.5962 52.9264H33.9402L43.6984 31.5977Z" fill="url(#paint16_linear_11678_9560)"/>
<g filter="url(#filter4_f_11678_9560)">
<path d="M38.6799 42.75C39.2375 41.0771 39.6558 39.5437 42.5833 34.1069C41.6074 37.0344 39.6558 41.3559 38.6799 42.75Z" fill="white"/>
</g>
<g filter="url(#filter5_f_11678_9560)">
<path d="M50.669 52.9262C43.9776 52.3686 39.5166 49.0229 37.8439 44.7014C42.5835 44.0044 50.0472 50.3553 50.669 52.9262Z" fill="#C66329"/>
</g>
<path d="M33.9402 52.9265H50.3899L29.7581 39.6831L33.9402 52.9265Z" fill="url(#paint17_linear_11678_9560)" stroke="url(#paint18_linear_11678_9560)" stroke-width="0.435751"/>
<path d="M45.2626 31.7371C45.2626 32.6778 44.5 33.4404 43.5593 33.4404C42.6186 33.4404 41.856 32.6778 41.856 31.7371C41.856 30.7963 42.6186 30.0337 43.5593 30.0337C44.5 30.0337 45.2626 30.7963 45.2626 31.7371Z" fill="url(#paint19_linear_11678_9560)" stroke="url(#paint20_linear_11678_9560)" stroke-width="0.217875"/>
<path d="M59.2031 39.8225C59.2031 40.6092 58.5653 41.247 57.7786 41.247C56.9918 41.247 56.3541 40.6092 56.3541 39.8225C56.3541 39.0358 56.9918 38.398 57.7786 38.398C58.5653 38.398 59.2031 39.0358 59.2031 39.8225Z" fill="url(#paint21_linear_11678_9560)" stroke="url(#paint22_linear_11678_9560)" stroke-width="0.217875"/>
<circle cx="1.53344" cy="1.53344" r="1.42451" transform="matrix(0.707108 -0.707106 0.707108 0.707106 27.8066 39.8223)" fill="url(#paint23_linear_11678_9560)" stroke="url(#paint24_linear_11678_9560)" stroke-width="0.217875"/>
</g>
</g>
<defs>
<filter id="filter0_d_11678_9560" x="-13.5" y="-11.25" width="117" height="117" filterUnits="userSpaceOnUse" color-interpolation-filters="sRGB">
<feFlood flood-opacity="0" result="BackgroundImageFix"/>
<feColorMatrix in="SourceAlpha" type="matrix" values="0 0 0 0 0 0 0 0 0 0 0 0 0 0 0 0 0 0 127 0" result="hardAlpha"/>
<feOffset dy="2.25"/>
<feGaussianBlur stdDeviation="6.75"/>
<feComposite in2="hardAlpha" operator="out"/>
<feColorMatrix type="matrix" values="0 0 0 0 0 0 0 0 0 0 0 0 0 0 0 0 0 0 0.25 0"/>
<feBlend mode="normal" in2="BackgroundImageFix" result="effect1_dropShadow_11678_9560"/>
<feBlend mode="normal" in="SourceGraphic" in2="effect1_dropShadow_11678_9560" result="shape"/>
</filter>
<filter id="filter1_i_11678_9560" x="18.1077" y="16.7843" width="52.2583" height="52.7402" filterUnits="userSpaceOnUse" color-interpolation-filters="sRGB">
<feFlood flood-opacity="0" result="BackgroundImageFix"/>
<feBlend mode="normal" in="SourceGraphic" in2="BackgroundImageFix" result="shape"/>
<feColorMatrix in="SourceAlpha" type="matrix" values="0 0 0 0 0 0 0 0 0 0 0 0 0 0 0 0 0 0 127 0" result="hardAlpha"/>
<feOffset dy="-0.871502"/>
<feGaussianBlur stdDeviation="0.435751"/>
<feComposite in2="hardAlpha" operator="arithmetic" k2="-1" k3="1"/>
<feColorMatrix type="matrix" values="0 0 0 0 0.616667 0 0 0 0 0.407 0 0 0 0 0 0 0 0 0.25 0"/>
<feBlend mode="normal" in2="shape" result="effect1_innerShadow_11678_9560"/>
</filter>
<filter id="filter2_ii_11678_9560" x="22.5161" y="21.1065" width="43.5486" height="44.9666" filterUnits="userSpaceOnUse" color-interpolation-filters="sRGB">
<feFlood flood-opacity="0" result="BackgroundImageFix"/>
<feBlend mode="normal" in="SourceGraphic" in2="BackgroundImageFix" result="shape"/>
<feColorMatrix in="SourceAlpha" type="matrix" values="0 0 0 0 0 0 0 0 0 0 0 0 0 0 0 0 0 0 127 0" result="hardAlpha"/>
<feOffset dy="0.871502"/>
<feGaussianBlur stdDeviation="0.871502"/>
<feComposite in2="hardAlpha" operator="arithmetic" k2="-1" k3="1"/>
<feColorMatrix type="matrix" values="0 0 0 0 0.7 0 0 0 0 0.465967 0 0 0 0 0.0116667 0 0 0 1 0"/>
<feBlend mode="normal" in2="shape" result="effect1_innerShadow_11678_9560"/>
<feColorMatrix in="SourceAlpha" type="matrix" values="0 0 0 0 0 0 0 0 0 0 0 0 0 0 0 0 0 0 127 0" result="hardAlpha"/>
<feOffset dy="-0.871502"/>
<feGaussianBlur stdDeviation="0.435751"/>
<feComposite in2="hardAlpha" operator="arithmetic" k2="-1" k3="1"/>
<feColorMatrix type="matrix" values="0 0 0 0 1 0 0 0 0 0.72 0 0 0 0 0 0 0 0 1 0"/>
<feBlend mode="normal" in2="effect1_innerShadow_11678_9560" result="effect2_innerShadow_11678_9560"/>
</filter>
<filter id="filter3_d_11678_9560" x="24.0844" y="27.3103" width="39.5851" height="31.9357" filterUnits="userSpaceOnUse" color-interpolation-filters="sRGB">
<feFlood flood-opacity="0" result="BackgroundImageFix"/>
<feColorMatrix in="SourceAlpha" type="matrix" values="0 0 0 0 0 0 0 0 0 0 0 0 0 0 0 0 0 0 127 0" result="hardAlpha"/>
<feOffset dy="1.743"/>
<feGaussianBlur stdDeviation="2.17875"/>
<feComposite in2="hardAlpha" operator="out"/>
<feColorMatrix type="matrix" values="0 0 0 0 0 0 0 0 0 0 0 0 0 0 0 0 0 0 0.4 0"/>
<feBlend mode="normal" in2="BackgroundImageFix" result="effect1_dropShadow_11678_9560"/>
<feBlend mode="normal" in="SourceGraphic" in2="effect1_dropShadow_11678_9560" result="shape"/>
</filter>
<filter id="filter4_f_11678_9560" x="37.8084" y="33.2354" width="5.64632" height="10.3861" filterUnits="userSpaceOnUse" color-interpolation-filters="sRGB">
<feFlood flood-opacity="0" result="BackgroundImageFix"/>
<feBlend mode="normal" in="SourceGraphic" in2="BackgroundImageFix" result="shape"/>
<feGaussianBlur stdDeviation="0.435751" result="effect1_foregroundBlur_11678_9560"/>
</filter>
<filter id="filter5_f_11678_9560" x="33.4862" y="40.2909" width="21.5402" height="16.9929" filterUnits="userSpaceOnUse" color-interpolation-filters="sRGB">
<feFlood flood-opacity="0" result="BackgroundImageFix"/>
<feBlend mode="normal" in="SourceGraphic" in2="BackgroundImageFix" result="shape"/>
<feGaussianBlur stdDeviation="2.17875" result="effect1_foregroundBlur_11678_9560"/>
</filter>
<linearGradient id="paint0_linear_11678_9560" x1="52.4639" y1="82.9844" x2="52.4639" y2="56.75" gradientUnits="userSpaceOnUse">
<stop stop-color="#FFF962"/>
<stop offset="1" stop-color="#FF7A00"/>
</linearGradient>
<linearGradient id="paint1_linear_11678_9560" x1="44.3081" y1="73.3334" x2="40.9098" y2="79.4502" gradientUnits="userSpaceOnUse">
<stop stop-color="#FF922D"/>
<stop offset="1" stop-color="#FFC01F"/>
</linearGradient>
<linearGradient id="paint2_linear_11678_9560" x1="28.2484" y1="74.033" x2="41.3656" y2="51.3134" gradientUnits="userSpaceOnUse">
<stop stop-color="#FFF962"/>
<stop offset="1" stop-color="#FF7A00"/>
</linearGradient>
<linearGradient id="paint3_linear_11678_9560" x1="21.1994" y1="55.5234" x2="23.2926" y2="66.3063" gradientUnits="userSpaceOnUse">
<stop stop-color="#FFE27B"/>
<stop offset="1" stop-color="#FFC01F"/>
</linearGradient>
<linearGradient id="paint4_linear_11678_9560" x1="60.4115" y1="74.0325" x2="47.2943" y2="51.3129" gradientUnits="userSpaceOnUse">
<stop stop-color="#FFF962"/>
<stop offset="1" stop-color="#FF7A00"/>
</linearGradient>
<linearGradient id="paint5_linear_11678_9560" x1="67.4612" y1="55.5224" x2="65.368" y2="66.3053" gradientUnits="userSpaceOnUse">
<stop stop-color="#FFE27B"/>
<stop offset="1" stop-color="#FFC01F"/>
</linearGradient>
<linearGradient id="paint6_linear_11678_9560" x1="74.5562" y1="18.9601" x2="66.4005" y2="20.4554" gradientUnits="userSpaceOnUse">
<stop stop-color="#FFF962"/>
<stop offset="1" stop-color="#FF7A00"/>
</linearGradient>
<linearGradient id="paint7_linear_11678_9560" x1="72.1111" y1="28.0693" x2="71.0236" y2="21.8165" gradientUnits="userSpaceOnUse">
<stop stop-color="#FFE27B"/>
<stop offset="1" stop-color="#FFC01F"/>
</linearGradient>
<linearGradient id="paint8_linear_11678_9560" x1="21.5347" y1="18.9613" x2="20.0395" y2="24.2625" gradientUnits="userSpaceOnUse">
<stop stop-color="#FFA462"/>
<stop offset="1" stop-color="#FFE176"/>
</linearGradient>
<linearGradient id="paint9_linear_11678_9560" x1="19.2823" y1="32.4703" x2="18.5133" y2="21.513" gradientUnits="userSpaceOnUse">
<stop stop-color="#FFE27B"/>
<stop offset="1" stop-color="#FF981F"/>
</linearGradient>
<linearGradient id="paint10_linear_11678_9560" x1="25.263" y1="21.6271" x2="64.6115" y2="65.8456" gradientUnits="userSpaceOnUse">
<stop stop-color="#FFECA9"/>
<stop offset="0.237301" stop-color="#FFD600"/>
<stop offset="1" stop-color="#FF9900"/>
</linearGradient>
<linearGradient id="paint11_linear_11678_9560" x1="44.3387" y1="14.0537" x2="44.3387" y2="73.1262" gradientUnits="userSpaceOnUse">
<stop stop-color="white" stop-opacity="0.5"/>
<stop offset="1" stop-color="white" stop-opacity="0"/>
</linearGradient>
<linearGradient id="paint12_linear_11678_9560" x1="27.5432" y1="23.7791" x2="60.6345" y2="64.0045" gradientUnits="userSpaceOnUse">
<stop stop-color="#FFC700"/>
<stop offset="1" stop-color="#D58500"/>
</linearGradient>
<linearGradient id="paint13_linear_11678_9560" x1="29.8809" y1="25.7919" x2="47.5908" y2="65.3013" gradientUnits="userSpaceOnUse">
<stop stop-color="#FFB13C"/>
<stop offset="0.484375" stop-color="#B45F1D"/>
<stop offset="1" stop-color="#743110"/>
</linearGradient>
<linearGradient id="paint14_linear_11678_9560" x1="43.8379" y1="52.7871" x2="57.0813" y2="40.7983" gradientUnits="userSpaceOnUse">
<stop stop-color="#FFE508"/>
<stop offset="1" stop-color="#E87A03"/>
</linearGradient>
<linearGradient id="paint15_linear_11678_9560" x1="50.8081" y1="43.3076" x2="51.9233" y2="45.3987" gradientUnits="userSpaceOnUse">
<stop stop-color="#FFBB5B"/>
<stop offset="1" stop-color="#FFBC7D" stop-opacity="0"/>
</linearGradient>
<linearGradient id="paint16_linear_11678_9560" x1="44.5349" y1="37.3132" x2="48.5776" y2="53.2053" gradientUnits="userSpaceOnUse">
<stop stop-color="#FFE408"/>
<stop offset="1" stop-color="#E67102"/>
</linearGradient>
<linearGradient id="paint17_linear_11678_9560" x1="32.2673" y1="47.7685" x2="47.8806" y2="52.7871" gradientUnits="userSpaceOnUse">
<stop stop-color="#FFE308"/>
<stop offset="1" stop-color="#FFA600"/>
</linearGradient>
<linearGradient id="paint18_linear_11678_9560" x1="44.9531" y1="49.1626" x2="44.3955" y2="50.4172" gradientUnits="userSpaceOnUse">
<stop stop-color="#FFE33F"/>
<stop offset="1" stop-color="#FFDA00" stop-opacity="0"/>
</linearGradient>
<linearGradient id="paint19_linear_11678_9560" x1="43.5593" y1="29.9248" x2="43.5593" y2="33.5493" gradientUnits="userSpaceOnUse">
<stop stop-color="#FFE508"/>
<stop offset="1" stop-color="#E97E03"/>
</linearGradient>
<linearGradient id="paint20_linear_11678_9560" x1="43.5593" y1="29.9248" x2="43.5593" y2="33.5493" gradientUnits="userSpaceOnUse">
<stop stop-color="white" stop-opacity="0.3"/>
<stop offset="1" stop-color="white" stop-opacity="0"/>
</linearGradient>
<linearGradient id="paint21_linear_11678_9560" x1="58.7544" y1="38.7073" x2="56.8027" y2="40.7983" gradientUnits="userSpaceOnUse">
<stop stop-color="#E77302"/>
<stop offset="1" stop-color="#FFE508"/>
</linearGradient>
<linearGradient id="paint22_linear_11678_9560" x1="58.8938" y1="38.9861" x2="56.6633" y2="40.9377" gradientUnits="userSpaceOnUse">
<stop stop-color="white" stop-opacity="0.3"/>
<stop offset="1" stop-color="white" stop-opacity="0"/>
</linearGradient>
<linearGradient id="paint23_linear_11678_9560" x1="1.77432" y1="-1.25275e-08" x2="1.18288" y2="2.95721" gradientUnits="userSpaceOnUse">
<stop stop-color="#E77302"/>
<stop offset="1" stop-color="#FFC839"/>
</linearGradient>
<linearGradient id="paint24_linear_11678_9560" x1="2.64868" y1="0.69702" x2="0.418212" y2="2.64868" gradientUnits="userSpaceOnUse">
<stop stop-color="white" stop-opacity="0.3"/>
<stop offset="1" stop-color="white" stop-opacity="0"/>
</linearGradient>
</defs>
</svg>
