<svg width="27" height="27" viewBox="0 0 27 27" fill="none" xmlns="http://www.w3.org/2000/svg">
<g clip-path="url(#clip0_6706_43777)">
<path d="M13.0703 2.97693C6.99556 2.97693 2.07031 7.90163 2.07031 13.9769C2.07031 20.0522 6.99556 24.9769 13.0703 24.9769C19.1451 24.9769 24.0703 20.0522 24.0703 13.9769C24.0703 7.90163 19.1456 2.97693 13.0703 2.97693ZM13.0703 6.26593C15.0806 6.26593 16.7091 7.89503 16.7091 9.90418C16.7091 11.9133 15.0806 13.5424 13.0703 13.5424C11.0601 13.5424 9.43261 11.9133 9.43261 9.90418C9.43261 7.89503 11.0612 6.26593 13.0703 6.26593ZM13.0681 22.101C11.0634 22.101 9.22746 21.3711 7.81121 20.1622C7.46636 19.868 7.26726 19.4362 7.26726 18.9836C7.26726 16.9458 8.91616 15.3151 10.9545 15.3151H15.1878C17.2261 15.3151 18.869 16.9458 18.869 18.9836C18.869 19.4368 18.671 19.8674 18.3256 20.1617C16.9099 21.3706 15.0734 22.101 13.0681 22.101Z" fill="currentColor"/>
</g>
<defs>
<clipPath id="clip0_6706_43777">
<rect width="22" height="22" fill="white" transform="translate(2.07031 2.97693)"/>
</clipPath>
</defs>
</svg>
