<svg width="260" height="50" viewBox="0 0 260 50" fill="none" xmlns="http://www.w3.org/2000/svg">
<g clip-path="url(#clip0_24897_169294)">
<path d="M45.0126 3.45898H4.79942C4.05917 3.45898 3.45898 4.05917 3.45898 4.79942V45.0126C3.45898 45.7529 4.05917 46.3531 4.79942 46.3531H45.0126C45.7529 46.3531 46.3531 45.7529 46.3531 45.0126V4.79942C46.3531 4.05917 45.7529 3.45898 45.0126 3.45898ZM38.3104 36.97H7.81541C7.35272 36.97 6.97764 36.5949 6.97764 36.1322V13.6379C6.97764 13.1753 7.35272 12.8002 7.81541 12.8002H41.9966C42.4593 12.8002 42.8344 13.1753 42.8344 13.638V36.1322C42.8344 36.5949 42.4593 36.97 41.9966 36.97H38.3104ZM40.74 10.1612H36.7187V6.13986H40.74V10.1612ZM31.5244 10.1612H27.5031V6.13986H31.5244V10.1612ZM22.3089 10.1612H18.2876V6.13986H22.3089V10.1612ZM13.0934 10.1612H9.07208V6.13986H13.0934V10.1612ZM9.07208 39.6509H13.0934V43.6722H9.07208V39.6509ZM18.2876 39.6509H22.3089V43.6722H18.2876V39.6509ZM27.5031 39.6509H31.5244V43.6722H27.5031V39.6509ZM36.7187 39.6509H40.74V43.6722H36.7187V39.6509Z" fill="#FAC33D"/>
</g>
<g clip-path="url(#clip1_24897_169294)">
<path d="M70.5473 24.5332H106.88V37.4207C106.88 38.182 106.72 38.8985 106.402 39.5603C106.083 40.2221 105.658 40.8043 105.127 41.3019C104.596 41.7995 103.974 42.1876 103.268 42.4712C102.561 42.7549 101.818 42.8942 101.037 42.8942H90.4664L92.8035 37.9681H97.2123C97.7063 37.9681 98.1153 37.8188 98.434 37.5202C98.7527 37.2217 98.912 36.8584 98.912 36.4255V29.4593H60.1895L63.589 21.9954H61.1987V6.96826H105.924V16.3229C105.924 17.1191 105.764 17.8555 105.445 18.5372C105.127 19.2189 104.702 19.816 104.171 20.3285C103.639 20.841 103.018 21.2491 102.312 21.5476C101.605 21.8462 100.861 21.9954 100.081 21.9954H71.6628L70.5473 24.5332ZM68.4758 42.8942H60.455L66.5104 31.4496H74.5843L68.4758 42.8942ZM68.582 10.949V12.7901H98.5402V10.949H68.582ZM96.8936 18.0147C97.3557 18.0147 97.7435 17.8655 98.0622 17.5669C98.3809 17.2684 98.5402 16.8852 98.5402 16.4225V16.1737H68.582V18.0147H96.8936ZM81.7551 31.4496H89.829L83.7205 42.8942H75.6997L81.7551 31.4496Z" fill="#FAC33D"/>
<path d="M113.202 27.6182V14.8301H109.059V9.95375H113.202V6.91846H119.789V9.95375H122.391V14.8301H119.789V20.7017H123.613L119.789 28.265V38.167C119.789 38.8288 119.667 39.4458 119.417 40.0081C119.167 40.5704 118.843 41.063 118.434 41.476C118.025 41.889 117.547 42.2224 117 42.4712C116.453 42.72 115.858 42.8444 115.221 42.8444H109.484L110.706 39.3613H111.662C112.087 39.3613 112.448 39.212 112.751 38.9134C113.053 38.6149 113.202 38.2516 113.202 37.8187V35.8284H109.006L113.202 27.6182ZM155.802 15.8751H149.003V14.7306C149.003 14.2977 148.844 13.9345 148.525 13.6359C148.206 13.3374 147.819 13.1881 147.357 13.1881H131.315V15.8751H124.516V9.35664H135.936L134.874 7.16725H142.895L143.957 9.35664H150.544C152.174 9.35664 153.454 9.70496 154.395 10.4016C155.335 11.0982 155.802 12.2078 155.802 13.7354V15.8751ZM136.202 37.968V30.2554H126.057V25.3292H153.731V30.2554H143.532V37.968H155.165V42.8941H124.675V37.968H136.202ZM133.599 23.9858H125.578L129.722 16.8702H137.742L133.599 23.9858ZM154.049 23.9858H146.029L141.886 16.8702H149.906L154.049 23.9858Z" fill="#FAC33D"/>
<path d="M184.644 6.91846V9.6552H203.023V30.3051C203.023 30.9669 202.89 31.5839 202.624 32.1462C202.359 32.7085 202.003 33.2011 201.562 33.6141C201.121 34.0271 200.59 34.3605 199.968 34.6093C199.347 34.8581 198.704 34.9825 198.029 34.9825H184.644V36.6245C184.644 37.0873 184.803 37.4704 185.122 37.769C185.441 38.0675 185.85 38.2168 186.344 38.2168H204.085L201.323 42.8941H182.413C181.707 42.8941 181.048 42.7697 180.448 42.5209C179.847 42.2722 179.322 41.9338 178.881 41.5009C178.44 41.068 178.084 40.5704 177.818 40.0081C177.553 39.4458 177.42 38.8487 177.42 38.2168V34.9825H158.457V9.6552H177.42V6.91846H184.644ZM165.044 14.5316V19.7563H177.42V14.5316H165.044ZM177.42 30.1559V24.6326H165.044V30.1559H177.42ZM184.644 14.5316V19.7563H195.639V14.5316H184.644ZM193.993 30.1559C194.455 30.1559 194.842 30.0066 195.161 29.708C195.48 29.4095 195.639 29.0263 195.639 28.5636V24.6326H184.644V30.1559H193.993Z" fill="#FAC33D"/>
<path d="M226.075 21.05V22.1447H236.38V25.7771H208.6V22.1447H218.851V21.05H209.343V6.91846H235.689V16.3726C235.689 16.9698 235.546 17.5818 235.265 18.2137C234.983 18.8108 234.627 19.3084 234.202 19.7065C233.74 20.1394 233.193 20.4529 232.556 20.6519C231.987 20.9156 231.35 21.05 230.643 21.05H226.075ZM213.805 42.8941H208.6L210.352 36.8236H215.611L213.805 42.8941ZM216.567 39.212C216.636 39.212 216.769 39.202 216.966 39.1871C217.162 39.1722 217.375 39.1523 217.603 39.1373C217.831 39.1224 218.039 39.0975 218.214 39.0627C218.389 39.0279 218.517 38.998 218.586 38.9632C218.761 38.6995 218.851 38.4656 218.851 38.2666V35.6293H209.29V27.7674H209.343V26.623H235.689V30.952C235.689 31.2506 235.647 31.5591 235.557 31.8725C235.466 32.186 235.371 32.4796 235.265 32.7433C235.121 33.0419 234.962 33.3155 234.786 33.5643C234.611 33.8131 234.415 34.0371 234.202 34.2361C233.74 34.6342 233.193 34.9675 232.556 35.2313C231.987 35.495 231.35 35.6293 230.643 35.6293H226.075V37.4207C226.075 38.2815 225.932 39.0129 225.65 39.6101C225.369 40.2718 224.944 40.8391 224.375 41.3019C223.913 41.7348 223.297 42.1328 222.516 42.4961C221.81 42.7598 221.045 42.8941 220.232 42.8941H215.346L216.567 39.212ZM216.514 32.395H227.669C227.881 32.395 228.057 32.3104 228.2 32.1462C228.375 32.0119 228.466 31.8477 228.466 31.6486V30.3549H216.514V32.395ZM216.567 12.2924H228.466V11.0982H216.567V12.2924ZM216.567 17.3678H227.669C227.844 17.3678 228.025 17.2832 228.2 17.119C228.375 17.0195 228.466 16.8354 228.466 16.5717V15.9248H216.567V17.3678ZM235.689 42.8941H230.378L228.678 36.8236H233.883L235.689 42.8941ZM247.216 6.91846H255.98L245.835 18.8606H237.23L247.216 6.91846ZM247.216 18.9104H255.98L245.835 30.9022H237.23L247.216 18.9104ZM247.216 30.9022H255.98L245.835 42.7946H237.23L247.216 30.9022Z" fill="#FAC33D"/>
</g>
<defs>
<clipPath id="clip0_24897_169294">
<rect x="3.45898" y="3.45898" width="42.8941" height="42.8941" rx="5.44554" fill="white"/>
</clipPath>
<clipPath id="clip1_24897_169294">
<rect width="195.791" height="35.9757" fill="white" transform="translate(60.1895 6.91846)"/>
</clipPath>
</defs>
</svg>
