<svg width="27" height="27" viewBox="27 0 27 27" fill="none" xmlns="http://www.w3.org/2000/svg">
<path d="M43.5151 9.36353C43.3619 9.21466 43.147 9.14701 42.9367 9.1816C42.7259 9.21605 42.544 9.34835 42.4462 9.53819C42.11 10.1913 41.683 10.7915 41.1806 11.3221C41.2307 10.9388 41.2559 10.5532 41.2559 10.1666C41.2559 9.42485 41.1565 8.66149 40.9603 7.89751C40.3153 5.38813 38.624 3.26597 36.3202 2.07523C36.1196 1.97159 35.8806 1.97523 35.6833 2.08493C35.4859 2.19467 35.3567 2.39588 35.339 2.62094C35.1594 4.90135 33.9848 6.97602 32.1145 8.31434C32.0898 8.33217 32.0652 8.35023 32.0406 8.3682C31.9898 8.40544 31.9418 8.44066 31.8969 8.47021C31.8899 8.47489 31.883 8.47965 31.8761 8.48454C30.6999 9.3267 29.7294 10.4493 29.0693 11.7313C28.3987 13.0354 28.0586 14.4347 28.0586 15.8904C28.0586 16.632 28.158 17.3953 28.3541 18.1595C29.3889 22.187 33.0133 24.9999 37.1682 24.9999C42.1909 24.9999 46.2772 20.9134 46.2772 15.8904C46.2772 13.4134 45.2963 11.0954 43.5151 9.36353Z" fill="currentColor"/>
</svg>
