<svg xmlns="http://www.w3.org/2000/svg" width="23" height="24" fill="none"><g clip-path="url(#a)"><path fill="#FAC33D" fill-rule="evenodd" d="M22 6.988c0-.804-.627-1.455-1.4-1.455H2.4c-.773 0-1.4.651-1.4 1.455v13.09c0 .804.627 1.455 1.4 1.455h18.2c.773 0 1.4-.651 1.4-1.454V6.988Z" clip-rule="evenodd"/></g><path fill="#1D2023" d="M15.482 12.636a1 1 0 0 1 0 1.732l-5.25 3.031a1 1 0 0 1-1.5-.866V10.47a1 1 0 0 1 1.5-.866l5.25 3.031Z"/><path fill="#FAC33D" d="M19 4c0-.398-.198-.78-.55-1.06-.35-.282-.828-.44-1.325-.44H5.875c-.497 0-.974.158-1.326.44C4.198 3.22 4 3.601 4 4v.5h15V4Z"/><defs><clipPath id="a"><rect width="21" height="16" x="1" y="5.533" fill="#fff" rx="4"/></clipPath></defs></svg>