<svg width="40" height="40" viewBox="0 0 40 40" fill="none" xmlns="http://www.w3.org/2000/svg">
<path d="M20 40C8.9543 40 0 31.0457 0 20C0 8.95431 8.9543 0 20 0C31.0457 0 40 8.95431 40 20C40 31.0457 31.0457 40 20 40Z" fill="url(#paint0_linear_1182_8956)"/>
<path d="M24.9453 7.05811H15.0543C10.6422 7.05811 7.05862 10.6417 7.05862 15.0538V24.9448C7.05862 29.3569 10.6422 32.9405 15.0543 32.9405H24.9453C29.3574 32.9405 32.941 29.3569 32.941 24.9448V15.0538C32.941 10.6417 29.3574 7.05811 24.9453 7.05811ZM30.0514 24.9551C30.0514 27.7723 27.7624 30.0715 24.935 30.0715H15.0439C12.2268 30.0715 9.92754 27.7826 9.92754 24.9551V15.0641C9.92754 12.247 12.2165 9.94773 15.0439 9.94773H24.935C27.7521 9.94773 30.0514 12.2366 30.0514 15.0641V24.9551Z" fill="white"/>
<path d="M19.9944 13.3865C16.3487 13.3865 13.3762 16.359 13.3762 20.0047C13.3762 23.6503 16.3487 26.6228 19.9944 26.6228C23.6401 26.6228 26.6126 23.6503 26.6126 20.0047C26.6126 16.359 23.6401 13.3865 19.9944 13.3865V13.3865ZM19.9944 24.0232C17.778 24.0232 15.9758 22.2211 15.9758 20.0047C15.9758 17.7882 17.778 15.9861 19.9944 15.9861C22.2108 15.9861 24.0129 17.7882 24.0129 20.0047C24.0129 22.2211 22.2108 24.0232 19.9944 24.0232Z" fill="white"/>
<path d="M27.1159 14.1111C27.7256 14.0123 28.1398 13.4378 28.0409 12.8281C27.9421 12.2184 27.3677 11.8042 26.7579 11.9031C26.1482 12.0019 25.734 12.5763 25.8329 13.1861C25.9317 13.7958 26.5061 14.21 27.1159 14.1111Z" fill="white"/>
<defs>
<linearGradient id="paint0_linear_1182_8956" x1="35.2285" y1="35.2285" x2="6.80631" y2="6.80631" gradientUnits="userSpaceOnUse">
<stop stop-color="#FEE411"/>
<stop offset="0.0518459" stop-color="#FEDB16"/>
<stop offset="0.1381" stop-color="#FEC125"/>
<stop offset="0.2481" stop-color="#FE983D"/>
<stop offset="0.3762" stop-color="#FE5F5E"/>
<stop offset="0.5" stop-color="#FE2181"/>
<stop offset="1" stop-color="#9000DC"/>
</linearGradient>
</defs>
</svg>
