<svg width="100%" height="100%" viewBox="0 0 34 34" fill="none" xmlns="http://www.w3.org/2000/svg">
<rect width="100%" height="100%" rx="17" fill="black" fill-opacity="0.4"/>
<path d="M11.7295 12.1875C11.7295 9.7828 13.6789 7.83337 16.0837 7.83337C18.4884 7.83337 20.4378 9.7828 20.4378 12.1875C20.4378 14.5923 18.4884 16.5417 16.0837 16.5417C13.6789 16.5417 11.7295 14.5923 11.7295 12.1875Z" fill="currentColor"/>
<path d="M8.97949 22.2709C8.97949 19.8661 10.9289 17.9167 13.3337 17.9167H18.8337C19.905 17.9167 20.8859 18.3036 21.6444 18.9453C21.1921 18.9577 20.7436 19.1364 20.3985 19.4816C19.6826 20.1975 19.6826 21.3583 20.3985 22.0743L21.0467 22.7225L20.3985 23.3706C19.6826 24.0866 19.6826 25.2474 20.3985 25.9634C20.4917 26.0565 20.5924 26.1376 20.6987 26.2065C20.1334 26.4749 19.5011 26.625 18.8337 26.625H13.3337C10.9289 26.625 8.97949 24.6756 8.97949 22.2709Z" fill="currentColor"/>
<path d="M26.0701 21.2641C26.3386 20.9956 26.3386 20.5603 26.0701 20.2918C25.8016 20.0233 25.3663 20.0233 25.0978 20.2918L23.6394 21.7502L22.181 20.2918C21.9125 20.0233 21.4772 20.0233 21.2087 20.2918C20.9403 20.5603 20.9403 20.9956 21.2087 21.2641L22.6672 22.7225L21.2087 24.1809C20.9403 24.4494 20.9403 24.8847 21.2087 25.1531C21.4772 25.4216 21.9125 25.4216 22.181 25.1531L23.6394 23.6947L25.0978 25.1531C25.3663 25.4216 25.8016 25.4216 26.0701 25.1531C26.3386 24.8847 26.3386 24.4494 26.0701 24.1809L24.6117 22.7225L26.0701 21.2641Z" fill="currentColor"/>
</svg>
