<svg width="125" height="52" viewBox="0 0 185 52" fill="none" xmlns="http://www.w3.org/2000/svg">
<g clip-path="url(#clip0_17840_97996)">
<path d="M81.9026 11.3072C82.2523 11.3072 82.4157 11.4726 82.3948 11.7994C82.353 12.723 82.2922 13.7511 82.2105 14.8799C82.1288 16.0088 82.0261 17.1604 81.9026 18.331H91.2981C91.4615 18.331 91.5907 18.388 91.6838 18.5001C91.777 18.6123 91.8017 18.7719 91.7618 18.9771C91.6591 19.5111 91.5299 20.0965 91.376 20.7331C91.2221 21.3697 91.0624 21.9341 90.899 22.4282C90.8572 22.6335 90.785 22.7722 90.6842 22.8444C90.5816 22.9166 90.3973 22.9527 90.1293 22.9527H81.1957C80.7225 25.1306 79.9832 27.1317 78.9779 28.9598C77.9707 30.788 76.7545 32.4261 75.3273 33.8742C73.9001 35.3223 72.2867 36.5689 70.4908 37.6179C68.6931 38.665 66.7794 39.4765 64.746 40.0523C64.5199 40.134 64.3393 40.1188 64.2063 40.0067C64.0733 39.8927 64.0163 39.7235 64.0372 39.4993C64.098 38.8627 64.1911 38.1633 64.3146 37.4051C64.4381 36.6449 64.5617 35.9988 64.6852 35.4648C64.7669 35.1778 64.9512 34.9612 65.2401 34.8187C66.6369 34.1212 67.8987 33.3706 69.0295 32.5705C70.1583 31.7705 71.1503 30.8868 72.0016 29.9214C72.853 28.956 73.5733 27.9032 74.1586 26.763C74.7439 25.6228 75.2114 24.3552 75.561 22.9584H69.9549C68.8052 22.9584 67.8949 22.6354 67.2279 21.9873C66.5609 21.3412 66.1751 20.2466 66.0725 18.7073C66.0516 18.4602 66.1542 18.3367 66.3803 18.3367H76.3307C76.4542 17.2896 76.5568 16.2159 76.6386 15.1175C76.7203 14.0191 76.7925 12.9054 76.8533 11.7747C76.8533 11.4669 77.0376 11.3129 77.4082 11.3129H81.9064L81.9026 11.3072ZM84.9831 30.6245C85.538 30.6245 86.0568 30.7272 86.5395 30.9324C87.0222 31.1376 87.4422 31.4246 87.8033 31.7952C88.1624 32.1657 88.4494 32.5914 88.666 33.0741C88.8808 33.5568 88.9891 34.0756 88.9891 34.6305C88.9891 35.1854 88.8808 35.7043 88.666 36.1869C88.4513 36.6696 88.1624 37.0896 87.8033 37.4507C87.4441 37.8099 87.0222 38.0968 86.5395 38.3135C86.0568 38.5282 85.538 38.6365 84.9831 38.6365C84.4282 38.6365 83.9056 38.5282 83.4115 38.3135C82.9174 38.0987 82.4917 37.8099 82.1326 37.4507C81.7734 37.0915 81.4864 36.6696 81.2698 36.1869C81.0531 35.7043 80.9467 35.1854 80.9467 34.6305C80.9467 34.0756 81.055 33.5568 81.2698 33.0741C81.4845 32.5914 81.7734 32.1657 82.1326 31.7952C82.4917 31.4246 82.9174 31.1376 83.4115 30.9324C83.9037 30.7272 84.4282 30.6245 84.9831 30.6245Z" fill="#F9C33B"/>
<path d="M121.86 35.3983C122.086 35.3983 122.234 35.4439 122.306 35.537C122.379 35.6301 122.394 35.7784 122.352 35.9836C122.27 36.4568 122.156 36.9794 122.014 37.5552C121.869 38.1291 121.746 38.5928 121.643 38.9406C121.561 39.2694 121.345 39.4328 120.997 39.4328H98.508C97.3982 39.4328 96.5259 39.161 95.8893 38.6156C95.2526 38.0702 94.8612 37.1409 94.7186 35.8278C94.6768 35.5408 94.7908 35.3964 95.0569 35.3964H121.86V35.3983ZM102.883 11.1837C103.438 11.1837 103.981 11.2559 104.515 11.3984C105.049 11.5429 105.52 11.7367 105.933 11.9838C106.343 12.2308 106.678 12.5083 106.934 12.8161C107.191 13.124 107.33 13.4318 107.35 13.7397H114.929C116.161 13.7397 116.947 13.9753 117.286 14.4485C117.624 14.9217 117.65 15.7123 117.364 16.8202C117.24 17.1908 117.116 17.55 116.993 17.8977C116.869 18.2474 116.736 18.5857 116.592 18.9144H117.331C118.686 18.9144 119.621 19.2223 120.134 19.838C120.647 20.4537 120.822 21.44 120.659 22.795L119.612 32.8081C119.57 33.1786 119.462 33.4504 119.289 33.6252C119.114 33.8001 118.821 33.8875 118.411 33.8875H98.3863C97.9341 33.8875 97.6414 33.8058 97.5084 33.6404C97.3753 33.477 97.3392 33.1882 97.4001 32.7777L98.9089 21.7479C98.9299 21.4818 99.0933 21.3773 99.4012 21.44C99.8933 21.5426 100.387 21.6909 100.88 21.8866C101.372 22.0824 101.809 22.3123 102.189 22.5803C102.569 22.8482 102.867 23.1504 103.082 23.4886C103.297 23.8269 103.384 24.1823 103.344 24.5509L103.314 24.6441H107.073L107.288 22.5498H103.837C103.324 22.5498 102.85 22.4681 102.419 22.3028C101.988 22.1394 101.607 21.917 101.279 21.6396C100.95 21.3621 100.688 21.0295 100.494 20.6381C100.298 20.2485 100.19 19.8171 100.171 19.3439C100.15 19.057 100.264 18.9125 100.509 18.9125H111.199C111.322 18.6655 111.434 18.4146 111.537 18.1581C111.64 17.9015 111.721 17.6602 111.784 17.434H101.495C101.146 17.434 100.925 17.3523 100.832 17.187C100.739 17.0236 100.754 16.7138 100.878 16.2634L102.295 11.5201C102.337 11.3566 102.404 11.2578 102.495 11.2274C102.586 11.197 102.715 11.1818 102.881 11.1818L102.883 11.1837ZM102.79 30.1932H106.486L106.733 27.8519H103.004L102.79 30.1932ZM115.02 30.1932L115.267 27.8519H111.294L111.047 30.1932H115.02ZM111.847 22.5517L111.632 24.646H115.636L115.76 23.6293C115.801 23.2188 115.784 22.9356 115.714 22.7817C115.642 22.6278 115.4 22.5498 114.99 22.5498H111.847V22.5517Z" fill="#F9C33B"/>
<path d="M131.626 33.612C131.892 33.6329 131.996 33.7773 131.934 34.0433C131.831 34.4139 131.708 34.7731 131.563 35.1209C131.419 35.4705 131.255 35.7993 131.071 36.1072C131.255 36.1889 131.43 36.2459 131.595 36.2763C131.759 36.3067 131.945 36.3428 132.15 36.3846L132.489 33.1198H127.99C127.722 33.1198 127.529 33.059 127.405 32.9354C127.282 32.8119 127.24 32.5972 127.282 32.2893L127.99 27.2685C128.032 27.0424 128.103 26.8979 128.205 26.8371C128.308 26.7763 128.462 26.744 128.667 26.744H139.604C140.198 26.744 140.681 26.7858 141.052 26.8675C141.422 26.9492 141.704 27.0823 141.899 27.2685C142.095 27.4528 142.217 27.6999 142.27 28.0078C142.321 28.3156 142.327 28.6957 142.285 29.148L141.914 32.2912C141.873 32.62 141.785 32.8404 141.652 32.9544C141.519 33.0685 141.287 33.1236 140.959 33.1236H136.954L136.462 38.9463C136.441 39.4594 136.257 39.7673 135.907 39.8699C135.558 39.9934 135.117 40.0751 134.583 40.1169C134.049 40.1569 133.484 40.1683 132.888 40.1474C132.291 40.1264 131.706 40.0694 131.132 39.9782C130.556 39.8851 130.073 39.7578 129.684 39.5924C129.397 39.4689 129.283 39.2333 129.345 38.8836C129.387 38.5966 129.448 38.2983 129.53 37.9904C129.057 38.4009 128.522 38.7449 127.928 39.0223C127.331 39.2998 126.685 39.5107 125.987 39.6533C125.822 39.6932 125.695 39.6742 125.602 39.5924C125.509 39.5107 125.472 39.3777 125.493 39.1915C125.514 39.0071 125.545 38.7905 125.586 38.5453C125.628 38.2983 125.668 38.0417 125.71 37.7757C125.752 37.5077 125.792 37.2569 125.833 37.0212C125.875 36.7856 125.915 36.5746 125.957 36.3903C125.978 36.1433 126.081 35.9703 126.265 35.8658C126.778 35.5998 127.164 35.3223 127.42 35.0334C127.677 34.7465 127.928 34.355 128.175 33.8628C128.236 33.6994 128.389 33.6158 128.637 33.6158H131.624L131.626 33.612ZM129.315 13.4642C129.357 13.2798 129.427 13.1259 129.53 13.0024C129.632 12.8789 129.796 12.818 130.022 12.818H140.959C142.15 12.818 142.956 13.0233 143.378 13.4338C143.798 13.8442 143.969 14.6044 143.885 15.7142L143.176 21.6282C143.155 21.8752 143.079 22.0539 142.944 22.1679C142.811 22.28 142.631 22.337 142.405 22.337H137.722C137.865 22.5024 137.988 22.7076 138.093 22.9527H143.421C143.585 22.9527 143.703 23.0041 143.775 23.1067C143.847 23.2093 143.862 23.3328 143.821 23.4773C143.779 23.7642 143.718 24.1234 143.636 24.5548C143.554 24.9862 143.461 25.3871 143.359 25.7558C143.298 26.0428 143.102 26.1872 142.773 26.1872H129.003C128.203 26.1872 127.586 25.9762 127.154 25.5563C126.723 25.1363 126.476 24.4008 126.415 23.3537C126.394 23.0877 126.508 22.9527 126.753 22.9527H133.099C133.201 22.7057 133.325 22.5005 133.469 22.337H129.001C128.488 22.337 128.262 22.0805 128.323 21.5674L129.309 13.4661L129.315 13.4642ZM132.088 29.3304L131.934 30.3775H137.633L137.756 29.3304H132.088ZM138.927 18.8251H133.104L133.011 19.6879H138.864L138.925 18.8251H138.927ZM133.351 16.6074H139.144L139.237 15.8986H133.444L133.351 16.6074ZM139.419 33.9198C139.974 33.9198 140.466 34.0852 140.898 34.412C141.329 34.7408 141.607 35.1627 141.73 35.6758C142.53 35.3679 143.26 35.0505 143.917 34.7199C144.575 34.3911 145.17 34.011 145.704 33.5797C146.238 33.1483 146.726 32.6295 147.167 32.0232C147.608 31.417 148.015 30.674 148.383 29.7903C148.465 29.5851 148.64 29.4824 148.908 29.4824H152.481C152.665 29.4824 152.794 29.5338 152.866 29.6364C152.939 29.739 152.954 29.8625 152.912 30.0069C152.152 32.7587 150.761 34.9935 148.737 36.7077C146.713 38.4218 144.111 39.5772 140.928 40.174C140.702 40.2139 140.521 40.174 140.388 40.0504C140.255 39.9269 140.219 39.7312 140.28 39.4651L140.588 38.2014C140.217 38.4066 139.828 38.5092 139.417 38.5092C138.76 38.5092 138.205 38.2888 137.755 37.846C137.302 37.4032 137.076 36.8654 137.076 36.2288C137.076 35.5922 137.302 35.022 137.755 34.5812C138.207 34.1403 138.76 33.9179 139.417 33.9179L139.419 33.9198ZM153.005 20.6723C153.129 20.6723 153.231 20.7141 153.313 20.7958C153.395 20.8775 153.416 21.0011 153.374 21.1664C153.045 22.4606 152.553 23.6521 151.895 24.7391C151.238 25.828 150.462 26.8029 149.569 27.6657C148.676 28.5285 147.684 29.262 146.597 29.8682C145.508 30.4744 144.379 30.9419 143.209 31.2707C143.024 31.3125 142.87 31.2916 142.747 31.2099C142.623 31.1282 142.581 30.9742 142.623 30.7481C142.684 30.2768 142.777 29.7523 142.901 29.1765C143.024 28.6026 143.136 28.0667 143.239 27.5745C143.321 27.2457 143.475 27.031 143.701 26.9283C144.419 26.5388 145.041 26.1682 145.565 25.8185C146.09 25.4688 146.555 25.0793 146.968 24.6479C147.378 24.2165 147.752 23.7129 148.093 23.139C148.431 22.5651 148.775 21.8448 149.124 20.9821C149.206 20.7768 149.381 20.6742 149.649 20.6742H153.007L153.005 20.6723ZM153.098 12.4779C153.385 12.4779 153.509 12.6223 153.469 12.9093C153.264 14.1217 152.868 15.2562 152.283 16.3128C151.698 17.3713 150.983 18.3253 150.141 19.1786C149.299 20.0319 148.359 20.7654 147.323 21.3811C146.285 21.9969 145.214 22.4701 144.104 22.7988C143.919 22.8406 143.765 22.814 143.642 22.7209C143.518 22.6278 143.477 22.4701 143.518 22.2439C143.579 21.7707 143.657 21.2633 143.75 20.7198C143.843 20.1763 143.94 19.6461 144.043 19.133C144.125 18.8251 144.258 18.6199 144.444 18.5173C145.122 18.065 145.702 17.6545 146.185 17.2858C146.667 16.9153 147.083 16.52 147.433 16.1C147.783 15.68 148.085 15.2068 148.342 14.6823C148.598 14.1578 148.83 13.5174 149.035 12.7572C149.096 12.5729 149.261 12.4798 149.527 12.4798H153.1L153.098 12.4779Z" fill="#F9C33B"/>
<path d="M166.222 30.5618C165.935 30.7671 165.719 30.7272 165.576 30.4383C165.452 30.1723 165.329 29.8948 165.205 29.6059C165.082 29.319 164.937 29.032 164.774 28.7432L164.096 39.8034C164.035 40.1321 163.839 40.2956 163.51 40.2956H159.875C159.464 40.2956 159.278 40.1112 159.32 39.7407L160.152 30.7766C159.639 31.1262 159.115 31.4341 158.581 31.7002C158.047 31.9681 157.503 32.1829 156.948 32.3463C156.783 32.3881 156.635 32.3672 156.502 32.2855C156.369 32.2038 156.312 32.0498 156.333 31.8237C156.353 31.5367 156.393 31.2175 156.456 30.8678C156.517 30.5181 156.583 30.1704 156.656 29.8207C156.728 29.471 156.798 29.1385 156.87 28.8192C156.943 28.5018 157.009 28.2187 157.07 27.9716C157.112 27.869 157.167 27.7759 157.239 27.6942C157.311 27.6124 157.378 27.5516 157.439 27.5098C158.835 26.668 159.976 25.7292 160.857 24.6916C161.741 23.654 162.387 22.4168 162.798 20.9801H160.487C159.727 20.9801 159.075 20.6723 158.531 20.0566C157.988 19.4408 157.684 18.5686 157.623 17.4378C157.623 17.2117 157.705 17.0996 157.87 17.0996H165.757C166.866 17.0996 167.564 17.3713 167.851 17.9167C168.138 18.4602 168.149 19.1748 167.881 20.0585C167.408 21.5579 166.72 23.0572 165.817 24.5566C166.31 25.0089 166.756 25.4707 167.157 25.942C167.558 26.4152 167.902 26.8561 168.189 27.2666L169.73 13.5269C169.772 13.2608 169.854 13.0955 169.977 13.0347C170.101 12.9739 170.285 12.9415 170.532 12.9415H180.513C181.889 12.9415 182.797 13.219 183.24 13.7739C183.681 14.3288 183.831 15.2828 183.687 16.6397L182.7 29.9176C182.658 30.2255 182.495 30.3794 182.208 30.3794H178.696C178.347 30.3794 178.193 30.216 178.234 29.8872L179.344 17.8103C179.405 17.358 179.242 17.1319 178.852 17.1319H173.708L172.075 30.0392C172.014 30.3262 171.828 30.4706 171.52 30.4706H168.256C167.969 30.4706 167.845 30.2958 167.885 29.9461L167.946 29.2373C167.659 29.4843 167.37 29.72 167.083 29.9461C166.796 30.1723 166.507 30.3775 166.22 30.5618H166.222ZM164.651 10.9081C165.432 10.9081 166.093 11.1761 166.638 11.7082C167.182 12.2422 167.455 12.8997 167.455 13.6808C167.455 14.4618 167.184 15.1232 166.638 15.6686C166.095 16.2121 165.432 16.4857 164.651 16.4857C163.869 16.4857 163.208 16.214 162.663 15.6686C162.119 15.1251 161.846 14.4618 161.846 13.6808C161.846 12.8997 162.117 12.2441 162.663 11.7082C163.206 11.1742 163.869 10.9081 164.651 10.9081ZM174.263 18.3937C174.304 18.1068 174.468 17.9623 174.755 17.9623H178.082C178.432 17.9623 178.586 18.1163 178.544 18.4241C178.339 20.7863 178.134 22.8919 177.928 24.7391C177.723 26.5881 177.415 28.251 177.005 29.7295C176.944 29.9556 176.881 30.1666 176.821 30.3604C176.76 30.5561 176.688 30.7462 176.606 30.9305H179.255C179.563 30.9305 179.707 31.0844 179.686 31.3923L179.316 35.2425C179.85 35.2843 180.553 35.1817 181.425 34.9346C182.297 34.6876 183.145 34.3493 183.966 33.9179C184.069 33.8571 184.177 33.8571 184.289 33.9179C184.401 33.9787 184.458 34.0927 184.458 34.2562C184.458 34.5032 184.443 34.7845 184.413 35.1037C184.382 35.423 184.34 35.7499 184.289 36.09C184.238 36.4283 184.192 36.7476 184.15 37.0459C184.108 37.3443 184.069 37.5951 184.027 37.8004C183.985 37.9638 183.939 38.0873 183.888 38.1709C183.837 38.2527 183.738 38.3458 183.595 38.4484C183.246 38.6745 182.727 38.8684 182.039 39.0337C181.351 39.1971 180.6 39.315 179.791 39.3872C178.979 39.4594 178.168 39.4803 177.356 39.448C176.545 39.4176 175.832 39.3188 175.215 39.1553C174.783 39.0318 174.599 38.7544 174.66 38.323L175.122 34.1022C174.135 35.6434 172.889 36.8958 171.378 37.8612C169.869 38.8266 168.065 39.5658 165.971 40.0789C165.395 40.2214 165.16 40.0276 165.262 39.4936C165.365 38.9596 165.473 38.4047 165.586 37.8308C165.698 37.255 165.836 36.6392 166.002 35.9817C166.063 35.6948 166.207 35.499 166.433 35.3964C167.233 35.0068 167.957 34.6324 168.605 34.2714C169.251 33.9122 169.827 33.5169 170.331 33.0855C170.834 32.6542 171.27 32.1677 171.64 31.6222C172.011 31.0787 172.319 30.4364 172.564 29.6972C172.974 28.4847 173.303 26.9815 173.55 25.1838C173.797 23.386 174.033 21.1227 174.259 18.3899L174.263 18.3937Z" fill="#F9C33B"/>
<g clip-path="url(#clip1_17840_97996)">
<path d="M53.1051 20.9154L36.679 11.4324L20.2529 1.94791C16.393 -0.280488 11.5668 2.50573 11.5668 6.96253V10.0356C11.545 10.2935 11.5349 10.5587 11.5378 10.8311C11.5552 12.28 11.5624 13.7274 11.5668 15.1763V20.0229C11.5668 21.2153 11.5639 22.4063 11.5668 23.5987C11.5668 24.145 11.5668 24.6941 11.5668 25.3867L6.78253 22.6251L1.94903 19.8345C1.5274 19.5911 1 19.8954 1 20.3822V31.5459C1 32.0327 1.5274 32.337 1.94903 32.0936L7.06507 29.303L11.5682 26.5429V39.6409C11.561 40.1799 11.5537 40.7174 11.5436 41.2564C11.5378 41.5679 11.5465 41.8693 11.5682 42.1634V44.9004C11.5682 49.3586 16.393 52.1434 20.2543 49.915L36.6805 40.432L53.1066 30.949C56.9664 28.7206 56.9664 23.1481 53.1066 20.9197L53.1051 20.9154ZM37.6744 27.4528C32.1729 31.9516 23.823 32.7514 17.3725 29.3045L11.9522 25.6199C15.686 24.1464 19.3126 22.2049 23.1811 21.3138C28.4638 20.0968 33.3915 21.7224 37.7193 25.0186C38.8465 25.8778 38.7799 26.5501 37.6758 27.4528H37.6744Z" fill="#F9C33B"/>
<path d="M33.2032 25.1085C33.2032 25.0867 33.1988 25.0665 33.1974 25.0447C33.1959 25.0288 33.1945 25.0129 33.193 24.9955C33.193 24.9897 33.1901 24.9839 33.1887 24.9781C33.1814 24.9433 33.1727 24.9085 33.1626 24.8738C33.1539 24.8448 33.1438 24.8158 33.1322 24.7868C33.122 24.7622 33.1133 24.739 33.1017 24.7158C33.0916 24.6941 33.08 24.6738 33.0684 24.6535C33.0568 24.6318 33.0438 24.6115 33.0293 24.5912C33.0163 24.5724 33.0047 24.5536 32.9902 24.5362C32.9713 24.5115 32.9511 24.4898 32.9308 24.4681C32.9105 24.4463 32.8902 24.4261 32.8685 24.4058C32.8467 24.3855 32.8236 24.3652 32.8004 24.3464C32.783 24.3319 32.7642 24.3203 32.7453 24.3072C32.725 24.2942 32.7048 24.2812 32.683 24.2681C32.6627 24.2565 32.6424 24.2449 32.6207 24.2348C32.5975 24.2232 32.5729 24.2145 32.5483 24.2044C32.5193 24.1928 32.4918 24.1826 32.4613 24.1739C32.4266 24.1638 32.3932 24.1551 32.357 24.1479C32.3512 24.1479 32.3454 24.145 32.3396 24.1435C32.3237 24.1406 32.3078 24.1406 32.2918 24.1392C32.2701 24.1363 32.2498 24.1334 32.2281 24.1319C32.2063 24.1319 32.1846 24.1319 32.1629 24.1319C32.1411 24.1319 32.1194 24.1319 32.0977 24.1319C32.0759 24.1319 32.0556 24.1363 32.0339 24.1392C32.018 24.1406 32.002 24.1421 31.9861 24.1435C31.9803 24.1435 31.9745 24.1464 31.9687 24.1479C31.9339 24.1551 31.8992 24.1638 31.8644 24.1739C31.8354 24.1826 31.8064 24.1928 31.7775 24.2044C31.7528 24.2145 31.7296 24.2232 31.705 24.2348C31.6833 24.2449 31.663 24.2565 31.6427 24.2681C31.621 24.2797 31.6007 24.2928 31.5804 24.3072C31.5616 24.3203 31.5427 24.3319 31.5254 24.3464C31.5022 24.3652 31.479 24.3855 31.4573 24.4058C31.4355 24.4261 31.4152 24.4463 31.395 24.4681C31.3747 24.4898 31.3544 24.513 31.3355 24.5362C31.3211 24.5536 31.3095 24.5724 31.2964 24.5912C31.2834 24.6115 31.2703 24.6318 31.2573 24.6535C31.2457 24.6738 31.2341 24.6941 31.224 24.7158C31.2124 24.739 31.2037 24.7636 31.1936 24.7868C31.182 24.8158 31.1718 24.8433 31.1631 24.8738C31.153 24.9071 31.1443 24.9419 31.137 24.9781C31.137 24.9839 31.1342 24.9897 31.1327 24.9955C31.1298 25.0114 31.1298 25.0273 31.1284 25.0447C31.1255 25.0665 31.1226 25.0867 31.1226 25.1085C31.1226 25.1302 31.1226 25.1519 31.1226 25.1737C31.1226 25.1954 31.1226 25.2171 31.1226 25.2389C31.1226 25.2606 31.1269 25.2809 31.1298 25.3026C31.1313 25.3186 31.1327 25.3345 31.1342 25.3504C31.1342 25.3562 31.137 25.362 31.1385 25.3678C31.1457 25.4026 31.1544 25.4374 31.1646 25.4722C31.1733 25.5011 31.1834 25.5301 31.195 25.5591C31.2051 25.5837 31.2138 25.6069 31.2254 25.6315C31.2356 25.6533 31.2472 25.6736 31.2588 25.6938C31.2703 25.7156 31.2834 25.7359 31.2979 25.7561C31.3109 25.775 31.3225 25.7938 31.337 25.8126C31.3558 25.8358 31.3747 25.859 31.395 25.8807C31.4152 25.9025 31.4355 25.9228 31.4573 25.943C31.479 25.9633 31.5022 25.9836 31.5254 26.0024C31.5427 26.0169 31.5616 26.0285 31.5819 26.0416C31.6021 26.0546 31.6224 26.0676 31.6427 26.0807C31.663 26.0923 31.6833 26.1039 31.705 26.114C31.7282 26.1256 31.7528 26.1343 31.776 26.1444C31.805 26.156 31.834 26.1662 31.8629 26.1749C31.8963 26.185 31.931 26.1937 31.9673 26.2009C31.9731 26.2009 31.9789 26.2038 31.9847 26.2053C32.0006 26.2082 32.0165 26.2082 32.0325 26.2096C32.0542 26.2125 32.0745 26.2154 32.0962 26.2169C32.1179 26.2169 32.1397 26.2169 32.1614 26.2169C32.1832 26.2169 32.2049 26.2169 32.2266 26.2169C32.2484 26.2169 32.2686 26.2125 32.2904 26.2096C32.3063 26.2082 32.3222 26.2067 32.3382 26.2053C32.344 26.2053 32.3498 26.2024 32.3556 26.2009C32.3903 26.1937 32.4251 26.185 32.4599 26.1749C32.4889 26.1662 32.5178 26.156 32.5468 26.1444C32.5715 26.1343 32.5946 26.1256 32.6178 26.114C32.6396 26.1039 32.6598 26.0923 32.6801 26.0807C32.7019 26.0691 32.7221 26.0561 32.741 26.0416C32.7598 26.0285 32.7786 26.0169 32.7975 26.0024C32.8207 25.9836 32.8438 25.9648 32.8656 25.9445C32.8873 25.9242 32.909 25.9039 32.9279 25.8822C32.9482 25.8605 32.9684 25.8373 32.9858 25.8141C33.0003 25.7967 33.0119 25.7779 33.025 25.7576C33.038 25.7373 33.051 25.717 33.0641 25.6953C33.0757 25.675 33.0873 25.6547 33.0974 25.633C33.109 25.6098 33.1177 25.5852 33.1278 25.5605C33.1394 25.5316 33.1496 25.504 33.1583 25.4736C33.1684 25.4388 33.1771 25.4055 33.1843 25.3693C33.1843 25.3635 33.1872 25.3577 33.1887 25.3519C33.1916 25.336 33.1916 25.32 33.193 25.3041C33.1959 25.2823 33.1988 25.2621 33.2003 25.2403C33.2003 25.2186 33.2003 25.1969 33.2003 25.1751C33.2003 25.1534 33.2003 25.1317 33.2003 25.1099L33.2032 25.1085Z" fill="#F9C33B"/>
</g>
</g>
<defs>
<clipPath id="clip0_17840_97996">
<rect width="184.46" height="52" fill="white"/>
</clipPath>
<clipPath id="clip1_17840_97996">
<rect width="55" height="49.5319" fill="white" transform="translate(1 1.16406)"/>
</clipPath>
</defs>
</svg>
