<svg width="132" height="32" viewBox="0 0 132 32" fill="none" xmlns="http://www.w3.org/2000/svg">
<g clip-path="url(#clip0_22093_71619)">
<path d="M10.211 12.0761L19.6066 28.2373L26.9065 15.7144L29.485 19.602C30.4465 21.053 32.0714 21.9248 33.81 21.9248H36.8084C37.456 21.9248 37.8563 21.2199 37.5286 20.6623L27.8877 4.35773C27.5639 3.80992 26.7711 3.80992 26.4473 4.35773L19.8657 15.5553L13.4567 4.19083C13.1466 3.64303 12.3656 3.61947 12.0261 4.1496L10.3268 6.79634C9.30046 8.3946 9.25533 10.4346 10.211 12.0761Z" fill="#F9C33B"/>
<path d="M6.0709 21.9817C7.86453 21.9817 9.31856 20.5269 9.31856 18.7322C9.31856 16.9375 7.86453 15.4827 6.0709 15.4827C4.27727 15.4827 2.82324 16.9375 2.82324 18.7322C2.82324 20.5269 4.27727 21.9817 6.0709 21.9817Z" fill="#F9C33B"/>
</g>
<path d="M115.183 6.02075C115.183 6.56914 115.183 7.11032 115.183 7.64428C115.183 8.16381 115.168 8.68334 115.139 9.20287C115.457 9.27503 115.76 9.38326 116.049 9.52758C116.337 9.67189 116.59 9.85228 116.806 10.0688C117.023 10.2852 117.196 10.5378 117.326 10.8264C117.456 11.1006 117.521 11.4109 117.521 11.7572C117.521 11.9593 117.492 12.1469 117.434 12.32C117.391 12.4932 117.369 12.6736 117.369 12.8612C117.167 13.3952 116.929 13.9147 116.655 14.4198C116.381 14.9105 116.078 15.3939 115.746 15.8702C116.179 16.0433 116.597 16.2309 117.001 16.433C117.42 16.6206 117.838 16.8371 118.257 17.0824C118.127 15.3795 118.011 13.6766 117.91 11.9737C117.824 10.2564 117.766 8.53181 117.737 6.80005L121.482 6.90828C121.453 7.09589 121.432 7.2835 121.417 7.47111C121.417 7.64428 121.41 7.82467 121.395 8.01228C122.074 7.69479 122.781 7.41338 123.517 7.16805C124.253 6.90828 124.924 6.7784 125.53 6.7784C126.035 6.7784 126.497 6.85777 126.915 7.01652C127.334 7.16083 127.709 7.4206 128.041 7.79581C128.229 8.01228 128.38 8.31534 128.496 8.70499C128.626 9.0802 128.734 9.51314 128.82 10.0038C128.907 10.48 128.972 10.9924 129.015 11.5408C129.059 12.0747 129.087 12.6015 129.102 13.121C129.131 13.6405 129.145 14.1384 129.145 14.6146C129.145 15.0764 129.145 15.4733 129.145 15.8052C129.145 16.5845 129.138 17.3638 129.123 18.1431C129.109 18.908 129.08 19.68 129.037 20.4593L126.547 20.2429V20.5243C126.547 20.8129 126.547 21.1232 126.547 21.4551C126.562 21.787 126.598 22.1189 126.656 22.4509L126.915 22.3643C127.204 22.2921 127.464 22.1911 127.695 22.0612C127.94 21.9313 128.185 21.8015 128.431 21.6716L130.271 25.2217C129.737 25.4382 129.174 25.6113 128.582 25.7412C127.991 25.8711 127.413 25.936 126.851 25.936C126.403 25.936 125.963 25.8928 125.53 25.8062C125.112 25.734 124.722 25.5608 124.361 25.2866C124.347 25.2722 124.332 25.2506 124.318 25.2217C124.303 25.2073 124.282 25.1928 124.253 25.1784L124.188 25.1135C124.015 25.0124 123.878 24.8609 123.777 24.6589C123.69 24.4713 123.618 24.262 123.56 24.0311C123.502 23.8146 123.466 23.5982 123.452 23.3817C123.438 23.1652 123.43 22.9704 123.43 22.7972C123.43 22.4509 123.452 22.1045 123.495 21.7582C123.539 21.3974 123.596 21.0366 123.668 20.6758C123.25 21.7004 122.73 22.6746 122.11 23.5982C121.489 24.5362 120.746 25.4815 119.88 26.4339L117.109 24.0528C117.845 23.36 118.473 22.6746 118.993 21.9963C119.527 21.3036 119.981 20.5964 120.356 19.8749L118.473 19.8965L118.257 17.3422L116.33 19.8099C116.027 19.478 115.71 19.1605 115.378 18.8575C115.522 19.9975 115.652 21.152 115.767 22.321C115.883 23.4755 115.998 24.6011 116.114 25.6979L111.589 25.6113C111.705 24.6589 111.813 23.6848 111.914 22.689C112.03 21.6932 112.131 20.6975 112.217 19.7017C112.03 19.8604 111.842 20.0192 111.654 20.1779C111.481 20.3222 111.301 20.4738 111.113 20.6325L109.446 18.8142C109.836 18.4245 110.233 17.9988 110.637 17.537C111.055 17.0752 111.459 16.5989 111.849 16.1083C112.239 15.6032 112.6 15.0909 112.931 14.5713C113.263 14.0374 113.538 13.5106 113.754 12.9911L113.884 12.7746C113.408 12.8612 112.91 12.9911 112.39 13.1643C111.871 13.3375 111.423 13.489 111.048 13.6189L109.858 9.78734C110.19 9.70075 110.521 9.62138 110.853 9.54922C111.2 9.47707 111.539 9.41213 111.871 9.3544C111.799 8.8493 111.719 8.35863 111.633 7.8824C111.546 7.39173 111.459 6.89385 111.373 6.38875L115.183 6.02075ZM121.222 10.7615C121.15 12.0891 121.085 13.4096 121.027 14.7229C120.984 16.0361 120.941 17.3566 120.898 18.6843C121.316 17.6019 121.612 16.4691 121.785 15.2857C121.973 14.1023 122.117 12.8179 122.218 11.4325L124.946 11.5191C124.931 12.1541 124.924 12.7891 124.924 13.424C124.924 14.059 124.902 14.6868 124.859 15.3073C124.801 16.0578 124.707 16.7721 124.578 17.4504C124.462 18.1287 124.303 18.7925 124.101 19.4419L125.335 19.6151C125.494 18.3451 125.609 17.0824 125.682 15.8269C125.768 14.5569 125.811 13.2869 125.811 12.017C125.811 11.7284 125.804 11.4469 125.79 11.1728C125.79 10.8841 125.775 10.6027 125.747 10.3285C125.732 10.0543 125.674 9.85228 125.573 9.7224C125.487 9.59252 125.328 9.54201 125.097 9.57087C124.866 9.57087 124.585 9.61416 124.253 9.70075C123.921 9.77291 123.575 9.87393 123.214 10.0038C122.853 10.1193 122.492 10.2491 122.131 10.3935C121.785 10.5233 121.482 10.646 121.222 10.7615ZM114.187 17.8184C114.173 17.8184 114.165 17.8112 114.165 17.7968L114.144 17.8184H114.187Z" fill="#FAC33D"/>
<path d="M91.5498 5.89087C91.4921 6.39597 91.4343 6.90828 91.3766 7.42781C91.3189 7.93291 91.2756 8.44522 91.2467 8.96475C91.9827 8.89259 92.6899 8.83487 93.3681 8.79157C94.0609 8.74828 94.8474 8.7122 95.7277 8.68334L95.706 10.6099C95.2587 10.5955 94.8401 10.5738 94.4505 10.545C94.0753 10.5161 93.7073 10.4945 93.3465 10.48C93.0001 10.4512 92.6538 10.4295 92.3074 10.4151C91.9611 10.3862 91.6003 10.3646 91.2251 10.3502C91.2539 10.4945 91.2684 10.5883 91.2684 10.6316L91.7663 10.7182C92.1559 10.7903 92.4878 10.848 92.762 10.8913C93.0362 10.9346 93.3032 10.9707 93.563 10.9996C93.8227 11.014 94.0897 11.0284 94.3639 11.0429C94.6525 11.0429 94.9917 11.0429 95.3813 11.0429H96.3121C96.4276 10.6677 96.5214 10.278 96.5936 9.87393C96.6657 9.46985 96.7018 9.05855 96.7018 8.64004C96.7018 8.51016 96.6801 8.42357 96.6369 8.38028C96.5936 8.33699 96.5503 8.27926 96.507 8.2071C96.2616 8.10608 96.0596 8.05557 95.9009 8.05557C95.7565 8.04114 95.5617 8.04114 95.3164 8.05557C95.0278 8.07001 94.7536 8.09165 94.4938 8.12051C94.2485 8.13495 93.9887 8.16381 93.7145 8.2071C93.4547 8.23597 93.1733 8.27204 92.8703 8.31534C92.5672 8.3442 92.2208 8.38028 91.8312 8.42357L91.658 6.45369C92.1487 6.29495 92.5961 6.17228 93.0001 6.08569C93.4187 5.98467 93.8227 5.9053 94.2124 5.84757C94.602 5.78985 94.9989 5.75377 95.403 5.73934C95.8215 5.72491 96.2833 5.71769 96.7884 5.71769C97.611 5.71769 98.2604 6.0424 98.7366 6.69181C99.2273 7.34122 99.4726 8.21432 99.4726 9.3111C99.4726 9.91722 99.4293 10.5233 99.3427 11.1295C99.2561 11.7356 99.1479 12.3273 99.018 12.9045C98.4119 12.9911 97.813 13.0705 97.2213 13.1426C96.6441 13.2004 96.0524 13.2437 95.4463 13.2725V13.857V13.9219H95.5761C96.3699 13.9508 97.1203 13.9724 97.8274 13.9869C98.5346 13.9869 99.285 13.9869 100.079 13.9869L100.187 15.7403C98.0367 15.9423 95.9081 16.0938 93.8011 16.1949C91.6941 16.2815 89.5583 16.3392 87.3936 16.368L87.4585 13.4457C88.2955 13.5178 89.1398 13.5828 89.9912 13.6405C90.8427 13.6982 91.7013 13.7487 92.5672 13.792C92.5239 13.6044 92.4734 13.4385 92.4157 13.2942C92.1559 13.2942 91.8817 13.2869 91.5931 13.2725C91.3045 13.2581 91.0303 13.2364 90.7705 13.2076C90.5252 13.1787 90.2943 13.1426 90.0778 13.0993C89.8758 13.056 89.7242 12.9983 89.6232 12.9262C89.4645 12.8107 89.3346 12.7169 89.2336 12.6448C89.147 12.5726 89.0532 12.4788 88.9521 12.3633C88.779 12.1324 88.6419 11.8366 88.5409 11.4758C88.4398 11.1006 88.3605 10.7037 88.3027 10.2852C88.2594 9.86671 88.2306 9.45542 88.2161 9.05134C88.2161 8.63283 88.2161 8.27204 88.2161 7.96899C88.2161 7.57934 88.2161 7.18248 88.2161 6.7784C88.2161 6.35989 88.2234 5.95581 88.2378 5.56616L91.5498 5.89087ZM99.9056 23.425L98.8232 25.7196C98.2315 25.3155 97.6903 24.9836 97.1997 24.7238C96.7234 24.464 96.2472 24.2548 95.771 24.096C95.771 24.4713 95.7565 24.8248 95.7277 25.1567C95.6988 25.4887 95.6699 25.7989 95.6411 26.0876L91.9394 25.2217C92.0693 24.7455 92.192 24.1971 92.3074 23.5765C92.4373 22.956 92.5167 22.3498 92.5456 21.7582H92.2858C92.1848 21.7582 92.0188 21.7582 91.7879 21.7582C91.557 21.7437 91.3117 21.7293 91.0519 21.7149C90.8066 21.7004 90.5757 21.6788 90.3592 21.6499C90.1427 21.6211 90.0056 21.5778 89.9479 21.52C89.8902 21.52 89.8108 21.484 89.7098 21.4118C89.6088 21.3397 89.5294 21.2891 89.4717 21.2603C89.2263 21.0727 89.0459 20.8273 88.9305 20.5243C88.815 20.2068 88.7285 19.8749 88.6707 19.5285C88.6274 19.1677 88.6058 18.8142 88.6058 18.4678C88.6058 18.1215 88.6058 17.804 88.6058 17.5153V16.7144L91.8961 16.8226C91.8817 16.9092 91.8601 17.0968 91.8312 17.3855C91.8023 17.6597 91.7735 17.9555 91.7446 18.273C91.7302 18.576 91.7158 18.8647 91.7013 19.1389C91.6869 19.4131 91.6941 19.5862 91.723 19.6584H94.3639C94.768 19.6584 95.0927 19.6584 95.338 19.6584C95.5978 19.6584 95.9225 19.6512 96.3121 19.6368C96.341 19.4636 96.3627 19.2904 96.3771 19.1172C96.3915 18.9296 96.3987 18.7348 96.3987 18.5328H95.403C95.0566 18.5328 94.7608 18.54 94.5154 18.5544C94.2701 18.5688 94.032 18.5905 93.8011 18.6193C93.5702 18.6338 93.3321 18.6626 93.0867 18.7059C92.8558 18.7348 92.5744 18.7709 92.2425 18.8142L91.9611 17.1906C92.4085 17.0896 92.827 16.9958 93.2166 16.9092C93.6063 16.8082 93.9887 16.7216 94.3639 16.6495C94.7536 16.5629 95.1432 16.4979 95.5329 16.4546C95.9369 16.4113 96.3627 16.3897 96.81 16.3897C97.8202 16.3897 98.5201 16.635 98.9098 17.1257C99.2994 17.6164 99.4943 18.3307 99.4943 19.2687C99.4943 19.5718 99.4798 19.8893 99.451 20.2212C99.4365 20.5387 99.4221 20.8634 99.4077 21.1953C98.7871 21.2675 98.1594 21.3397 97.5244 21.4118C96.8894 21.484 96.2472 21.5489 95.5978 21.6066C95.6122 21.6644 95.6194 21.7221 95.6194 21.7798C95.6339 21.8231 95.6411 21.8808 95.6411 21.953C97.3873 22.0684 98.8881 22.4004 100.144 22.9488L100.122 22.9704C101.002 22.3787 101.839 21.686 102.633 20.8923C103.441 20.0986 104.156 19.276 104.776 18.4245L108.066 21.1087C107.114 22.0612 106.039 22.956 104.841 23.793C103.658 24.6444 102.431 25.3227 101.161 25.8278L99.9056 23.425ZM99.6025 11.4758C100.454 10.6965 101.262 9.85228 102.027 8.9431C102.792 8.03393 103.427 7.05259 103.932 5.9991L107.59 8.09887C106.724 9.25338 105.772 10.3141 104.733 11.281C103.708 12.2479 102.619 13.1066 101.464 13.857L99.6025 11.4758ZM100.36 16.9525C101.212 16.2454 101.984 15.4877 102.676 14.6796C103.369 13.8714 104.033 13.0128 104.668 12.1036L107.98 14.7229C107.114 15.6753 106.176 16.5557 105.166 17.3638C104.17 18.1575 103.124 18.8575 102.027 19.4636L100.36 16.9525ZM87.7616 23.6631C87.7616 23.1869 87.9275 22.7828 88.2594 22.4509C88.6058 22.1189 89.0243 21.953 89.515 21.953C90.0056 21.953 90.4169 22.1189 90.7489 22.4509C91.0952 22.7828 91.2684 23.1869 91.2684 23.6631C91.2684 24.1538 91.0952 24.5651 90.7489 24.897C90.4169 25.2289 90.0056 25.3949 89.515 25.3949C89.0243 25.3949 88.6058 25.2217 88.2594 24.8753C87.9275 24.5434 87.7616 24.1393 87.7616 23.6631Z" fill="#FAC33D"/>
<path d="M84.1521 25.135C83.0265 25.6401 81.807 25.8927 80.4938 25.8927C80.2051 25.8927 79.8732 25.8638 79.498 25.8061C79.1228 25.7628 78.7548 25.6762 78.394 25.5463C78.0476 25.4309 77.7302 25.2793 77.4415 25.0917C77.1529 24.9041 76.9436 24.6732 76.8138 24.399V24.3774L76.5973 23.9228V23.9011C76.554 23.8434 76.5251 23.7063 76.5107 23.4898C76.4963 23.2734 76.4818 23.0425 76.4674 22.7971C76.453 22.5518 76.4458 22.3209 76.4458 22.1044C76.4458 21.8735 76.4458 21.7292 76.4458 21.6715C76.4458 21.0942 76.4458 20.6036 76.4458 20.1995C76.4458 19.7954 76.453 19.413 76.4674 19.0522C76.4818 18.677 76.4963 18.2873 76.5107 17.8833C76.5396 17.4792 76.5684 16.9885 76.5973 16.4113L78.3507 16.4329L77.1168 13.5106C77.8384 13.3229 78.5167 13.157 79.1516 13.0127C79.7866 12.8539 80.4793 12.7746 81.2298 12.7746C81.5617 12.7746 81.8936 12.8251 82.2255 12.9261C82.5719 13.0271 82.8749 13.157 83.1347 13.3157C83.5532 13.5755 83.8707 13.893 84.0872 14.2682C84.3036 14.6434 84.4552 15.0403 84.5418 15.4588C84.6284 15.8773 84.6716 16.3102 84.6716 16.7576C84.6861 17.1906 84.6933 17.6091 84.6933 18.0131C84.6933 18.879 84.6572 19.8748 84.5851 21.0004C84.5273 22.1261 84.383 23.5043 84.1521 25.135ZM72.3761 12.6447L72.1813 14.0301C72.5565 14.0445 72.9245 14.1167 73.2853 14.2466C73.6461 14.362 73.978 14.528 74.2811 14.7444C74.5985 14.9609 74.8727 15.2279 75.1036 15.5454C75.3345 15.8484 75.5149 16.1948 75.6448 16.5844C75.7747 16.9597 75.8541 17.3565 75.8829 17.775C75.9262 18.1791 75.9551 18.5688 75.9695 18.944C75.9695 19.5934 75.9262 20.3582 75.8396 21.2386C75.7531 22.1044 75.6304 23.0136 75.4716 23.9661C75.4139 24.3413 75.3418 24.6877 75.2552 25.0051C75.1686 25.3371 75.0676 25.7267 74.9521 26.1741L70.9907 25.0917L71.7051 22.7971C71.9071 22.1477 72.0803 21.455 72.2246 20.719C72.3833 19.983 72.4771 19.2903 72.506 18.6409C72.5204 18.4533 72.5276 18.2801 72.5276 18.1214C72.5276 17.9482 72.4988 17.7678 72.4411 17.5802C72.4411 17.5658 72.4411 17.5586 72.4411 17.5586C72.3545 17.5153 72.239 17.4864 72.0947 17.472C71.9648 17.4575 71.8566 17.4431 71.77 17.4287H71.5535C71.1927 18.9584 70.7526 20.4015 70.2331 21.7581C69.728 23.1146 69.1291 24.4928 68.4364 25.8927L65.8604 24.832C66.3077 23.6486 66.6902 22.4724 67.0076 21.3035C67.3396 20.1201 67.6138 18.9007 67.8302 17.6451C67.2674 17.7317 66.7551 17.84 66.2933 17.9699L65.6006 15.1341C65.9758 15.0186 66.3871 14.9032 66.8345 14.7877C67.2818 14.6723 67.7509 14.564 68.2415 14.463C68.2704 14.1022 68.292 13.7487 68.3065 13.4023C68.3353 13.0415 68.3642 12.6735 68.3931 12.2983L72.3761 12.6447ZM66.0985 7.62255L70.3846 7.81738L70.1681 6.67008L74.5192 6.49691L74.3893 7.94726L76.9869 8.0122L76.7921 6.45361L81.1648 6.38867C81.136 6.6773 81.0999 6.95871 81.0566 7.23291C81.0277 7.5071 80.9916 7.78852 80.9484 8.07714C82.2905 8.10601 83.6254 8.10601 84.9531 8.07714L85.0829 10.48C84.3181 10.5521 83.5532 10.6243 82.7884 10.6964C82.0379 10.7542 81.2731 10.8191 80.4938 10.8913C80.4216 11.1943 80.3495 11.4974 80.2773 11.8004C80.2196 12.1035 80.1546 12.3993 80.0825 12.688L77.3116 12.32C77.3116 12.1179 77.3044 11.9159 77.29 11.7138C77.29 11.5118 77.2828 11.3098 77.2683 11.1077C76.72 11.1366 76.1644 11.1655 75.6015 11.1943C75.0531 11.2232 74.4975 11.252 73.9347 11.2809C73.8914 11.5118 73.8481 11.7355 73.8048 11.952C73.7615 12.1684 73.711 12.3849 73.6533 12.6014L70.9041 12.32L70.8392 11.4324C70.031 11.4613 69.2301 11.4902 68.4364 11.519C67.6571 11.5335 66.8705 11.5551 66.0768 11.584L66.0985 7.62255ZM79.9526 22.3642C80.1546 22.3498 80.4216 22.3209 80.7535 22.2776C81.0855 22.2199 81.3524 22.1549 81.5545 22.0828C81.5545 21.7942 81.5545 21.4478 81.5545 21.0437C81.5689 20.6397 81.5689 20.2211 81.5545 19.7882C81.5545 19.3553 81.54 18.9151 81.5112 18.4677C81.4967 18.0204 81.4751 17.6091 81.4462 17.2338L81.3596 16.3896L79.7794 16.736C79.7794 17.8183 79.7866 18.7564 79.8011 19.5501C79.8155 20.3294 79.8516 21.0798 79.9093 21.8014L79.9526 22.3642Z" fill="#FAC33D"/>
<path d="M50.0639 12.5582C50.0495 12.7602 50.0279 13.056 49.999 13.4457C49.9846 13.8353 49.9629 14.2827 49.9341 14.7878C49.9052 15.2785 49.8763 15.8124 49.8475 16.3897C49.8186 16.967 49.7825 17.5442 49.7392 18.1215C49.7104 18.6843 49.6743 19.2255 49.631 19.745C49.6021 20.2645 49.5661 20.7191 49.5228 21.1088L52.2286 21.2386C52.1998 20.4882 52.1637 19.6223 52.1204 18.641C52.0771 17.6597 52.0338 16.6711 51.9905 15.6753C51.9472 14.6796 51.9039 13.7199 51.8606 12.7963C51.8174 11.8582 51.7668 11.0573 51.7091 10.3935C50.5402 10.4512 49.3712 10.4945 48.2023 10.5233C47.0478 10.5522 45.8861 10.5811 44.7171 10.6099L44.7821 6.47534C46.9468 6.59079 49.097 6.6846 51.2329 6.75675C53.3832 6.82891 55.5406 6.86499 57.7054 6.86499C58.4269 6.86499 59.1413 6.86499 59.8484 6.86499C60.57 6.86499 61.2988 6.85056 62.0348 6.82169L62.143 9.65746C61.1617 9.75848 60.1803 9.84507 59.199 9.91722C58.2321 9.98938 57.258 10.0615 56.2766 10.1337L56.1468 13.9003C57.0126 13.857 57.8785 13.7993 58.7444 13.7271C59.6103 13.655 60.4834 13.5684 61.3637 13.4673L61.4936 17.5586C60.57 17.5442 59.6536 17.5226 58.7444 17.4937C57.8352 17.4648 56.9261 17.4071 56.0169 17.3205L55.8221 21.3685C57.0199 21.4118 58.2105 21.4407 59.3938 21.4551C60.5916 21.4695 61.7966 21.484 63.0089 21.4984L63.0522 24.5723C60.8153 24.7022 58.5857 24.7815 56.3632 24.8104C54.1552 24.8393 51.9328 24.8537 49.6959 24.8537C48.7002 24.8537 47.7116 24.8465 46.7303 24.832C45.749 24.832 44.7604 24.832 43.7646 24.832L43.8945 20.7408C44.2842 20.7696 44.6738 20.7985 45.0635 20.8273C45.4531 20.8562 45.8428 20.8851 46.2324 20.9139C46.1891 20.3511 46.1386 19.68 46.0809 18.9008C46.0232 18.1215 45.9654 17.3422 45.9077 16.5629C45.8644 15.7836 45.8211 15.0692 45.7778 14.4198C45.7345 13.756 45.6985 13.2797 45.6696 12.9911L50.0639 12.5582Z" fill="#FAC33D"/>
<defs>
<clipPath id="clip0_22093_71619">
<rect width="34.8235" height="24.4706" fill="white" transform="translate(2.82324 3.76465)"/>
</clipPath>
</defs>
</svg>
