<svg width="34" height="34" viewBox="0 0 34 34" fill="none" xmlns="http://www.w3.org/2000/svg">
<rect width="34" height="34" rx="17" fill="black" fill-opacity="0.6"/>
<g filter="url(#filter0_d_3111_76235)">
<path d="M23.0816 14.3391C23.2477 13.7634 23.34 13.1496 23.34 12.5169C23.34 8.9168 20.5038 6 17.0031 6C13.5024 6 10.6661 8.9168 10.6661 12.5169C10.6661 13.1496 10.7584 13.7634 10.9245 14.3391C10.1247 14.9972 7.03006 17.857 8.3036 21.5584C8.3036 21.5584 9.38027 21.4635 10.2662 19.7805C10.5369 20.8561 11.0353 21.8368 11.7182 22.653C10.7153 22.9567 10.0386 23.5451 10.0386 24.2158C10.0386 25.2028 11.4844 26 13.2624 26C14.4744 26 15.5265 25.633 16.0741 25.0889C16.3755 25.1332 16.6832 25.1585 16.9969 25.1585C17.3107 25.1585 17.6183 25.1269 17.9198 25.0889C18.4735 25.633 19.5256 26 20.7314 26C22.5156 26 23.9614 25.2028 23.9614 24.2158C23.9614 23.5388 23.2847 22.9503 22.2818 22.653C22.9647 21.8368 23.4631 20.8561 23.7338 19.7805C24.6197 21.4635 25.6964 21.5584 25.6964 21.5584C26.9699 17.8507 23.8753 14.9972 23.0755 14.3391H23.0816Z" fill="#48A2EF"/>
</g>
<defs>
<filter id="filter0_d_3111_76235" x="4" y="4" width="26" height="28" filterUnits="userSpaceOnUse" color-interpolation-filters="sRGB">
<feFlood flood-opacity="0" result="BackgroundImageFix"/>
<feColorMatrix in="SourceAlpha" type="matrix" values="0 0 0 0 0 0 0 0 0 0 0 0 0 0 0 0 0 0 127 0" result="hardAlpha"/>
<feOffset dy="2"/>
<feGaussianBlur stdDeviation="2"/>
<feComposite in2="hardAlpha" operator="out"/>
<feColorMatrix type="matrix" values="0 0 0 0 0 0 0 0 0 0 0 0 0 0 0 0 0 0 0.05 0"/>
<feBlend mode="normal" in2="BackgroundImageFix" result="effect1_dropShadow_3111_76235"/>
<feBlend mode="normal" in="SourceGraphic" in2="effect1_dropShadow_3111_76235" result="shape"/>
</filter>
</defs>
</svg>
