<svg width="100" height="100" viewBox="0 0 100 100" fill="none" xmlns="http://www.w3.org/2000/svg">
<path fill-rule="evenodd" clip-rule="evenodd" d="M80.4345 26.0314H21.8272C19.5687 26.0314 17.7383 27.8618 17.7383 30.1203V38.298H80.4345V26.0314Z" fill="url(#paint0_linear_8203_3382)"/>
<path fill-rule="evenodd" clip-rule="evenodd" d="M80.4334 23.7317C80.4334 21.4733 78.603 19.6429 76.3445 19.6429C70.5806 19.6429 60.1893 19.6429 54.9747 19.6429C53.0188 19.6429 51.2115 20.691 50.2411 22.3892C48.6314 25.2078 46.3594 29.1836 46.3594 29.1836H80.4334V23.7317Z" fill="url(#paint1_linear_8203_3382)"/>
<path fill-rule="evenodd" clip-rule="evenodd" d="M17.7383 29.8627H80.4345V32.4019H17.7383V29.8627Z" fill="url(#paint2_linear_8203_3382)"/>
<path fill-rule="evenodd" clip-rule="evenodd" d="M85.0227 37.7306C85.2394 36.1686 84.7691 34.589 83.7347 33.4004C82.6988 32.2106 81.1995 31.5277 79.6226 31.5277C65.7258 31.5277 32.4423 31.5277 18.5456 31.5277C16.9686 31.5277 15.4694 32.2106 14.4335 33.4004C13.399 34.589 12.9288 36.1686 13.1455 37.7306C14.5276 47.6802 17.2099 66.9906 18.4461 75.8935C18.8209 78.5881 21.1243 80.5944 23.8461 80.5944H74.322C77.0439 80.5944 79.3473 78.5881 79.7221 75.8935C80.9583 66.9906 83.6406 47.6802 85.0227 37.7306Z" fill="url(#paint3_linear_8203_3382)"/>
<path fill-rule="evenodd" clip-rule="evenodd" d="M13.6035 41.0289C13.7057 39.8936 14.1609 38.8087 14.9228 37.9337C15.9573 36.7452 17.4566 36.0623 19.0335 36.0623H79.1347C80.7116 36.0623 82.2109 36.7452 83.2454 37.9337C84.0072 38.8087 84.4625 39.8936 84.5647 41.0289L85.0227 37.7306C85.2394 36.1686 84.7691 34.589 83.7347 33.4004C82.6988 32.2106 81.1995 31.5277 79.6226 31.5277C65.7258 31.5277 32.4423 31.5277 18.5456 31.5277C16.9686 31.5277 15.4694 32.2106 14.4335 33.4004C13.399 34.589 12.9288 36.1686 13.1455 37.7306L13.6035 41.0289Z" fill="#444444"/>
<g filter="url(#filter0_d_8203_3382)">
<path fill-rule="evenodd" clip-rule="evenodd" d="M49.0859 55.7071C49.0859 47.8088 55.4987 41.396 63.397 41.396C71.2954 41.396 77.7081 47.8088 77.7081 55.7071C77.7081 58.801 76.7242 61.667 75.0524 64.0088L86.4555 75.412C87.2529 76.2093 87.2529 77.5055 86.4555 78.3028C85.6568 79.1015 84.362 79.1015 83.5633 78.3028L72.2271 66.9666C69.7943 68.8779 66.7277 70.0182 63.397 70.0182C55.4987 70.0182 49.0859 63.6055 49.0859 55.7071ZM70.8748 62.6735C70.8664 62.6817 70.858 62.69 70.8496 62.6983C70.8151 62.7328 70.7822 62.7682 70.7507 62.8045C68.8911 64.7306 66.2828 65.9293 63.397 65.9293C57.7557 65.9293 53.1748 61.3484 53.1748 55.7071C53.1748 50.0658 57.7557 45.4849 63.397 45.4849C69.0383 45.4849 73.6192 50.0658 73.6192 55.7071C73.6192 58.3978 72.5771 60.8473 70.8748 62.6735Z" fill="currentColor"/>
</g>
<defs>
<filter id="filter0_d_8203_3382" x="45.0859" y="39.396" width="45.9688" height="45.5058" filterUnits="userSpaceOnUse" color-interpolation-filters="sRGB">
<feFlood flood-opacity="0" result="BackgroundImageFix"/>
<feColorMatrix in="SourceAlpha" type="matrix" values="0 0 0 0 0 0 0 0 0 0 0 0 0 0 0 0 0 0 127 0" result="hardAlpha"/>
<feOffset dy="2"/>
<feGaussianBlur stdDeviation="2"/>
<feComposite in2="hardAlpha" operator="out"/>
<feColorMatrix type="matrix" values="0 0 0 0 0 0 0 0 0 0 0 0 0 0 0 0 0 0 0.1 0"/>
<feBlend mode="normal" in2="BackgroundImageFix" result="effect1_dropShadow_8203_3382"/>
<feBlend mode="normal" in="SourceGraphic" in2="effect1_dropShadow_8203_3382" result="shape"/>
</filter>
<linearGradient id="paint0_linear_8203_3382" x1="17.7383" y1="29.4933" x2="80.4345" y2="29.4933" gradientUnits="userSpaceOnUse">
<stop stop-color="#4A4A4A"/>
<stop offset="1" stop-color="#3F3F3F"/>
</linearGradient>
<linearGradient id="paint1_linear_8203_3382" x1="11.9255" y1="30.0532" x2="80.7946" y2="30.0532" gradientUnits="userSpaceOnUse">
<stop stop-color="#1F1F1F"/>
<stop offset="0.388511" stop-color="#2E2E2E"/>
<stop offset="1" stop-color="#474747"/>
</linearGradient>
<linearGradient id="paint2_linear_8203_3382" x1="17.7383" y1="31.1316" x2="80.4345" y2="31.1316" gradientUnits="userSpaceOnUse">
<stop stop-color="#2C2C2C"/>
<stop offset="1" stop-color="#373737"/>
</linearGradient>
<linearGradient id="paint3_linear_8203_3382" x1="13.0937" y1="56.0611" x2="85.0745" y2="56.0611" gradientUnits="userSpaceOnUse">
<stop stop-color="#303030"/>
<stop offset="1" stop-color="#414141"/>
</linearGradient>
</defs>
</svg>
