<svg width="100%" height="100%" viewBox="0 0 50 50" fill="none" xmlns="http://www.w3.org/2000/svg">
<path d="M24.4798 12.5C24.4798 11.9082 24.8142 11.3671 25.3436 11.1025C25.8729 10.8378 26.5063 10.8949 26.9798 11.25L41.1465 21.875V14.1129C41.1465 13.25 41.846 12.5504 42.709 12.5504C43.5719 12.5504 44.2715 13.25 44.2715 14.1129V35.8871C44.2715 36.75 43.5719 37.4496 42.709 37.4496C41.846 37.4496 41.1465 36.75 41.1465 35.8871V28.125L26.9798 38.75C26.5063 39.1052 25.8729 39.1623 25.3436 38.8975C24.8142 38.6329 24.4798 38.0919 24.4798 37.5V27.2802L8.19336 38.7765C7.71648 39.1131 7.09169 39.1558 6.57356 38.8873C6.05523 38.6187 5.72981 38.0838 5.72981 37.5V12.5C5.72981 11.9163 6.05523 11.3813 6.57356 11.1127C7.09169 10.8441 7.71648 10.8869 8.19336 11.2235L24.4798 22.7198V12.5Z" fill="url(#paint0_linear_9884_71415)"/>
<defs>
<linearGradient id="paint0_linear_9884_71415" x1="28.5715" y1="25" x2="-12.9031" y2="25" gradientUnits="userSpaceOnUse">
<stop stop-color="white"/>
<stop offset="1" stop-color="white" stop-opacity="0"/>
</linearGradient>
</defs>
</svg>
