<svg width="6" height="5" viewBox="0 0 6 5" fill="none" xmlns="http://www.w3.org/2000/svg">
<path d="M2.16303 3.0025C2.19171 2.97547 2.21764 2.95175 2.24246 2.92693C3.15653 2.01358 4.07005 1.10023 4.98412 0.186872C5.18382 -0.0127858 5.4144 -0.0536001 5.62899 0.0699454C5.90205 0.227135 5.96715 0.583983 5.7658 0.82611C5.74097 0.855893 5.71339 0.884022 5.68581 0.911599C4.65093 1.93857 3.61605 2.96554 2.58117 3.99251C2.33128 4.24016 2.0687 4.24457 1.80722 4.0063C1.27047 3.51764 0.734274 3.02842 0.196975 2.54086C0.058513 2.4151 -0.0187168 2.26564 0.00390047 2.0748C0.0491351 1.69865 0.481622 1.51113 0.778405 1.74884C0.983616 1.9132 1.17173 2.09907 1.36646 2.27667C1.61414 2.50225 1.86073 2.72948 2.10786 2.95561C2.12441 2.97051 2.14206 2.98485 2.16247 3.0025H2.16303Z" fill="#FAC33D"/>
</svg>
