<svg width="16" height="17" viewBox="0 0 16 17" fill="none" xmlns="http://www.w3.org/2000/svg">
<path d="M14.1986 3.83333H7.5319C7.1319 3.83333 6.86523 3.56667 6.86523 3.16667C6.86523 2.76667 7.1319 2.5 7.5319 2.5H14.1986C14.5986 2.5 14.8652 2.76667 14.8652 3.16667C14.8652 3.56667 14.5319 3.83333 14.1986 3.83333Z" fill="#9C9C9C"/>
<path d="M4.53255 2.16666C4.33255 2.16666 4.19922 2.23333 4.06589 2.36666L1.39922 5.03333C1.13255 5.3 1.13255 5.7 1.39922 5.96666C1.66589 6.23333 2.06589 6.23333 2.33255 5.96666L4.99922 3.3C5.26589 3.03333 5.26589 2.63333 4.99922 2.36666C4.86589 2.23333 4.66589 2.16666 4.53255 2.16666Z" fill="#FAC33D"/>
<path d="M4.5319 2.16666C4.1319 2.16666 3.86523 2.43333 3.86523 2.83333V14.1667C3.86523 14.5667 4.1319 14.8333 4.5319 14.8333C4.9319 14.8333 5.19857 14.5667 5.19857 14.1667V2.83333C5.19857 2.43333 4.86523 2.16666 4.5319 2.16666Z" fill="#FAC33D"/>
<path d="M12.8652 7.16666H7.5319C7.1319 7.16666 6.86523 6.9 6.86523 6.49999C6.86523 6.09999 7.1319 5.83333 7.5319 5.83333H12.8652C13.2652 5.83333 13.5319 6.09999 13.5319 6.49999C13.5319 6.9 13.1986 7.16666 12.8652 7.16666Z" fill="#9C9C9C"/>
<path d="M11.5319 10.5H7.5319C7.1319 10.5 6.86523 10.2333 6.86523 9.83333C6.86523 9.43333 7.1319 9.16666 7.5319 9.16666H11.5319C11.9319 9.16666 12.1986 9.43333 12.1986 9.83333C12.1986 10.2333 11.8652 10.5 11.5319 10.5Z" fill="#9C9C9C"/>
<path d="M14.1314 13.8333H7.5319C7.1319 13.8333 6.86523 13.5667 6.86523 13.1667C6.86523 12.7667 7.1319 12.5 7.5319 12.5H14.1314C14.5314 12.5 14.798 12.7667 14.798 13.1667C14.798 13.5667 14.4647 13.8333 14.1314 13.8333Z" fill="#9C9C9C"/>
</svg>
