<svg width="102" height="36" viewBox="0 0 102 36" fill="none" xmlns="http://www.w3.org/2000/svg">
<path d="M5.67812 28.2187C3.7174 23.7182 5.77629 18.4803 10.2768 16.5196L20.5134 12.0598C23.6637 10.6873 27.3302 12.1285 28.7027 15.2789C30.0752 18.4292 28.634 22.0957 25.4837 23.4682L10.3577 30.0581C8.55754 30.8424 6.46241 30.0189 5.67812 28.2187Z" fill="url(#paint0_linear_1_60082)"/>
<path d="M5.81471 7.26422C6.6109 5.46926 8.71145 4.65961 10.5064 5.4558L25.5897 12.1464C28.7308 13.5397 30.1477 17.2157 28.7544 20.3568C27.3611 23.498 23.6851 24.9149 20.5439 23.5216L10.3358 18.9935C5.84837 17.003 3.82422 11.7516 5.81471 7.26422Z" fill="#CCCCCC"/>
<g clip-path="url(#clip0_1_60082)">
<path d="M39.1453 17.9983H38.0652C37.9589 17.9983 37.9058 17.9811 37.8704 17.9469C37.835 17.9126 37.8172 17.827 37.835 17.7071L38.2422 14.1109C38.2777 13.8369 38.4193 13.6999 38.6672 13.6999H52.7272C53.2053 13.6999 53.5949 13.7342 53.8959 13.7856C54.1969 13.8369 54.4271 13.9397 54.5865 14.0767C54.7459 14.2137 54.8521 14.4192 54.8875 14.6589C54.923 14.8987 54.923 15.2069 54.8875 15.5665L54.6573 17.7071C54.6573 17.8099 54.6219 17.8784 54.5865 17.9126C54.5511 17.9469 54.498 17.9469 54.3917 17.9469H53.1522C53.3293 18.1181 53.4532 18.3408 53.5063 18.5976C53.5595 18.8545 53.5595 19.1627 53.5417 19.5224L53.2407 22.8788C53.2407 22.8788 53.2053 23.0329 53.2053 23.1014C53.2053 23.1699 53.1522 23.2213 53.0991 23.2727C53.2407 23.5124 53.3824 23.7522 53.5417 24.0262C53.7011 24.3002 53.8251 24.5913 53.949 24.8824C54.073 25.1735 54.1792 25.4647 54.2855 25.7387C54.3917 26.0127 54.4626 26.2695 54.498 26.4922C54.5334 26.5949 54.5334 26.6805 54.498 26.7662C54.4803 26.8518 54.4094 26.9203 54.3209 26.9545C53.8782 27.1086 53.4709 27.2285 53.0636 27.3313C52.6741 27.434 52.1783 27.5196 51.6116 27.6224C51.3637 27.6566 51.222 27.5881 51.1866 27.3826L51.0095 26.6977C49.9648 26.8004 48.8669 26.9032 47.7513 26.9717C46.618 27.0401 45.4847 27.1086 44.316 27.1771C43.1473 27.2456 41.9963 27.297 40.8276 27.3313C39.6589 27.3655 38.5256 27.3998 37.4277 27.4169C37.286 27.4169 37.1975 27.4169 37.1444 27.3655C37.1089 27.3141 37.0735 27.2456 37.0381 27.1429C37.0027 26.9717 36.9496 26.7662 36.9142 26.5264C36.8787 26.2867 36.8433 26.064 36.8256 25.8414C36.7902 25.6188 36.7725 25.3962 36.7548 25.1907C36.7371 24.9852 36.7194 24.7968 36.7017 24.6427C36.7017 24.4543 36.8079 24.3516 37.0027 24.3516C37.9058 24.3858 38.9683 24.3858 40.2078 24.3858H43.9796L44.0858 23.3412H38.9505C38.7735 23.3412 38.6318 23.3069 38.5433 23.2213C38.4547 23.1357 38.4193 22.9987 38.4547 22.7932L39.163 17.9811L39.1453 17.9983ZM49.1502 8.10013C49.5221 8.10013 49.8762 8.15151 50.2127 8.23713C50.5491 8.33988 50.8502 8.45975 51.0981 8.631C51.346 8.80225 51.5585 8.99062 51.7001 9.21324C51.8418 9.43587 51.8949 9.64136 51.8772 9.86399V10.001H55.7021C55.9146 10.001 56.0208 10.1037 56.0031 10.3264C55.9677 10.6346 55.8969 10.96 55.8261 11.3196C55.7552 11.6792 55.7021 11.9532 55.649 12.1587C55.6136 12.2786 55.5781 12.3642 55.5073 12.3985C55.4365 12.4327 55.3479 12.467 55.2594 12.467H51.4699L51.3814 13.0663C51.346 13.2718 51.222 13.3746 51.045 13.3746H48.4242C48.1763 13.3746 48.0878 13.2718 48.1232 13.0663L48.2117 12.467H45.166L45.0951 13.0149C45.0951 13.2547 44.9535 13.3574 44.741 13.3574H42.2088C42.0671 13.3574 41.9609 13.3232 41.9077 13.2376C41.8369 13.1691 41.8192 13.0834 41.8369 12.9807L41.9077 12.4498H39.5526C38.8797 12.4498 38.3308 12.2615 37.9058 11.9018C37.4808 11.5251 37.2506 10.9771 37.1798 10.2236C37.1798 10.0695 37.2506 10.001 37.3923 10.001H42.2619L42.4921 8.4255C42.4921 8.25426 42.5983 8.15151 42.7754 8.15151C43.1296 8.15151 43.466 8.20288 43.8025 8.28851C44.1389 8.39125 44.4222 8.52825 44.6879 8.6995C44.9358 8.87075 45.1483 9.07625 45.3076 9.29887C45.467 9.52149 45.5378 9.74411 45.5201 10.001H48.6013L48.8492 8.32275C48.8492 8.32275 48.8846 8.20288 48.9377 8.15151C48.9909 8.10013 49.0617 8.08301 49.1679 8.08301L49.1502 8.10013ZM41.164 17.4845H44.7056L44.8118 16.5769C44.8118 16.4399 44.9004 16.3714 45.042 16.3714H48.0169C48.1586 16.3714 48.2294 16.4399 48.2117 16.5769L48.1232 17.4845H51.3814L51.5762 16.0118H41.3057L41.164 17.4845ZM44.3337 21.0978L44.4754 19.745H42.1734L42.0317 21.0978H44.3337ZM47.5034 24.3858C48.0169 24.3858 48.5127 24.3858 48.9731 24.3858C49.4513 24.3858 49.9117 24.3858 50.3721 24.3516C50.3189 24.1803 50.2658 24.0262 50.2127 23.8549C50.1596 23.6837 50.1242 23.5296 50.071 23.3583H47.6096L47.5034 24.3858ZM47.9284 19.745L47.8044 21.0978H50.0356L50.1596 20.0875C50.1596 19.9334 50.1596 19.8477 50.1064 19.7964C50.0533 19.7621 49.9471 19.7279 49.8054 19.7279H47.9284V19.745Z" fill="#CCCCCC"/>
<path d="M64.4851 21.1835C64.2903 21.3205 64.1309 21.2863 64.0424 21.0979C63.9539 20.9266 63.8653 20.7383 63.7945 20.5499C63.706 20.3615 63.6174 20.1731 63.4935 19.9676L63.0331 27.3484C62.9976 27.5711 62.856 27.6738 62.6258 27.6738H60.1113C59.828 27.6738 59.704 27.5539 59.7217 27.2971L60.2884 21.3205C59.9342 21.5603 59.58 21.7657 59.2082 21.937C58.8363 22.1082 58.4645 22.2624 58.0749 22.3651C57.9686 22.3994 57.8624 22.3651 57.7739 22.3309C57.6853 22.2795 57.6499 22.1767 57.6499 22.0226C57.6499 21.8342 57.6853 21.6116 57.7384 21.389C57.7739 21.1493 57.827 20.9266 57.8801 20.6869C57.9332 20.4471 57.9864 20.2245 58.0218 20.019C58.0572 19.8135 58.1103 19.6252 58.1634 19.4539C58.1988 19.3854 58.2343 19.3169 58.2874 19.2655C58.3405 19.2142 58.3759 19.1628 58.429 19.1457C59.3853 18.5805 60.1821 17.964 60.7842 17.2619C61.3862 16.5769 61.8466 15.7378 62.13 14.7788H60.5363C60.005 14.7788 59.5623 14.5733 59.1905 14.1623C58.8186 13.7513 58.6061 13.1691 58.5707 12.4156C58.5707 12.2615 58.6238 12.193 58.7478 12.193H64.1841C64.9455 12.193 65.4236 12.3814 65.6361 12.741C65.8309 13.1006 65.8486 13.5801 65.6538 14.1623C65.3351 15.1556 64.857 16.1659 64.2372 17.1592C64.5736 17.4674 64.8924 17.7757 65.158 18.0839C65.4413 18.3922 65.6715 18.7004 65.8663 18.9744L66.9288 9.81265C66.9642 9.6414 67.0173 9.52153 67.1059 9.48728C67.1944 9.45303 67.3183 9.41878 67.4954 9.41878H74.3837C75.34 9.41878 75.9597 9.60715 76.2608 9.96677C76.5618 10.3264 76.668 10.9771 76.5618 11.8847L75.8889 20.7383C75.8535 20.9438 75.7472 21.0465 75.5525 21.0465H73.1265C72.8786 21.0465 72.7723 20.9438 72.8078 20.7211L73.5692 12.6725C73.6046 12.3642 73.4984 12.2272 73.2327 12.2272H69.6912L68.5579 20.841C68.5225 21.0294 68.3808 21.1321 68.1683 21.1321H65.9194C65.7246 21.1321 65.6361 21.0123 65.6715 20.7896L65.7069 20.3101C65.5122 20.4814 65.3174 20.6355 65.1049 20.7896C64.9101 20.9438 64.7153 21.0808 64.5028 21.2006L64.4851 21.1835ZM63.4049 8.06592C63.9362 8.06592 64.3966 8.23717 64.7684 8.59679C65.1403 8.95641 65.3351 9.38453 65.3351 9.9154C65.3351 10.4463 65.1403 10.8744 64.7684 11.234C64.3966 11.5936 63.9362 11.782 63.4049 11.782C62.8737 11.782 62.4133 11.5936 62.0414 11.234C61.6696 10.8744 61.4748 10.4291 61.4748 9.9154C61.4748 9.40165 61.6696 8.95641 62.0414 8.59679C62.4133 8.23717 62.8737 8.06592 63.4049 8.06592ZM70.0276 13.0664C70.063 12.878 70.1693 12.7752 70.3641 12.7752H72.6661C72.914 12.7752 73.0202 12.878 72.9848 13.0835C72.8432 14.659 72.7015 16.0632 72.5598 17.2962C72.4182 18.5292 72.2057 19.6423 71.9224 20.6184C71.8869 20.7725 71.8338 20.9095 71.7984 21.0465C71.763 21.1835 71.7099 21.3034 71.6567 21.4233H73.4806C73.6931 21.4233 73.7994 21.526 73.7817 21.7315L73.5338 24.3002C73.9056 24.3345 74.3837 24.266 74.9858 24.0947C75.5879 23.9235 76.1722 23.7009 76.7389 23.4097C76.8097 23.3755 76.8805 23.3755 76.9691 23.4097C77.0399 23.444 77.093 23.5296 77.093 23.6324C77.093 23.8036 77.093 23.992 77.0576 24.1975C77.0222 24.403 77.0045 24.6256 76.9691 24.8482C76.9337 25.0708 76.8982 25.2935 76.8805 25.4818C76.8451 25.6873 76.8274 25.8414 76.792 25.9784C76.7566 26.0812 76.7389 26.1668 76.7035 26.2182C76.668 26.2696 76.5972 26.3381 76.5087 26.4066C76.2608 26.5607 75.9066 26.6806 75.4285 26.8004C74.9504 26.9032 74.4369 26.9888 73.8702 27.0402C73.3036 27.0916 72.7546 27.1087 72.188 27.0744C71.6213 27.0402 71.1432 26.9888 70.7182 26.8861C70.4172 26.8004 70.2932 26.6121 70.3287 26.3381L70.6474 23.5296C69.9745 24.5571 69.1068 25.3962 68.0621 26.0298C67.0173 26.6806 65.7778 27.1601 64.3257 27.5026C63.9362 27.6053 63.7591 27.4683 63.8299 27.1087C63.9007 26.7491 63.9716 26.3894 64.0601 25.9956C64.1309 25.6188 64.2372 25.2078 64.3434 24.7626C64.3789 24.5742 64.4851 24.4372 64.6445 24.3687C65.1934 24.1118 65.6892 23.855 66.1496 23.6152C66.5923 23.3755 66.9996 23.1186 67.3361 22.8275C67.6902 22.5364 67.9912 22.211 68.2391 21.8514C68.4871 21.4918 68.6996 21.0636 68.8766 20.567C69.16 19.7621 69.3902 18.7518 69.5495 17.5531C69.7266 16.3543 69.886 14.8473 70.0453 13.015L70.0276 13.0664Z" fill="#CCCCCC"/>
<path d="M89.1875 13.991C89.1875 13.7855 89.2229 13.6485 89.2938 13.5629C89.3646 13.4773 89.4708 13.443 89.6302 13.443H91.6489L91.9853 12.1929H90.5864C90.0552 12.1929 89.5948 11.9874 89.2406 11.5935C88.8865 11.1997 88.6917 10.6517 88.674 9.96668C88.674 9.79543 88.7625 9.69268 88.9219 9.69268H98.1831C98.2893 9.69268 98.3778 9.70981 98.431 9.76118C98.4841 9.79543 98.4841 9.88105 98.4664 10.0009C98.431 10.3434 98.3778 10.6859 98.307 11.0113C98.2362 11.3538 98.1654 11.6449 98.0768 11.9189C98.0414 12.0902 97.8997 12.1587 97.6695 12.1587H95.155C95.0665 12.3984 94.978 12.6039 94.8717 12.8094C94.7655 13.0149 94.6592 13.2204 94.5353 13.4088H95.6863C96.1644 13.4088 96.5539 13.443 96.8373 13.4944C97.1206 13.5458 97.3331 13.6485 97.4747 13.7855C97.6164 13.9225 97.6872 14.1109 97.7227 14.3506C97.7581 14.5904 97.7581 14.8986 97.7404 15.2925L97.28 22.5534C97.28 22.7246 97.2445 22.8274 97.1914 22.8788C97.1206 22.9301 97.0321 22.9644 96.8904 22.9644H94.9425C94.6946 22.9644 94.5884 22.8616 94.5884 22.5876L95.1373 15.8747H91.6312L90.852 22.4678C90.852 22.7075 90.7281 22.8103 90.4625 22.8103H88.6386C88.3907 22.8103 88.2667 22.6904 88.2844 22.4335L88.5854 19.6764C88.2844 20.8238 87.8417 21.8513 87.2574 22.7589C86.673 23.6665 85.9647 24.4371 85.1501 25.105C84.3356 25.7557 83.4148 26.3037 82.37 26.7147C81.343 27.1257 80.2274 27.434 79.041 27.6052C78.8816 27.6395 78.7576 27.6052 78.6868 27.5367C78.616 27.4682 78.5806 27.3483 78.5983 27.1942C78.6691 26.886 78.7576 26.4921 78.8816 26.0469C79.0055 25.6016 79.1118 25.2077 79.218 24.8824C79.2889 24.7111 79.3951 24.5912 79.5545 24.557C80.4576 24.3515 81.2721 24.0775 81.9804 23.7521C82.6888 23.4268 83.2908 22.9986 83.8043 22.4849H82.8304C82.8304 22.4849 82.6711 22.4678 82.6179 22.4164C82.5648 22.365 82.5471 22.2965 82.5471 22.1767L83.0783 17.553H81.1659C80.6169 17.553 80.1743 17.3303 79.8201 16.9022C79.4659 16.4741 79.2889 15.9432 79.2712 15.3096C79.2712 15.1555 79.342 15.087 79.5014 15.087H80.8826L81.3784 10.1379C81.3784 9.96668 81.4846 9.88105 81.6794 9.9153C82.4586 10.0181 82.9898 10.2407 83.2908 10.5489C83.5919 10.8572 83.7158 11.3024 83.6804 11.8847L83.4325 15.087H83.9814L84.6366 8.3912C84.6366 8.21995 84.7429 8.13433 84.9731 8.16858C85.7345 8.23707 86.3366 8.4597 86.7615 8.81932C87.1865 9.19606 87.3813 9.65843 87.3282 10.2407L87.2397 11.2853H88.6209C88.8156 11.2853 88.9042 11.388 88.9042 11.6107C88.8688 11.9018 88.8334 12.21 88.7802 12.5183C88.7271 12.8436 88.674 13.1348 88.6209 13.4088C88.5854 13.6314 88.4615 13.7341 88.2844 13.7341H87.0272L86.9032 15.0699H88.5854C88.7979 15.0699 88.8865 15.1555 88.8688 15.3781C88.8688 15.498 88.8334 15.6521 88.7979 15.8234C88.7625 15.9946 88.7448 16.1659 88.7094 16.3542C88.674 16.5426 88.6563 16.6967 88.6209 16.8508C88.5854 17.005 88.5677 17.142 88.55 17.2276C88.5146 17.4331 88.4261 17.5358 88.249 17.5358H86.0532L85.7168 20.3957C85.9647 19.8477 86.2126 19.2141 86.4251 18.4777C86.4251 18.3578 86.5313 18.2893 86.673 18.2893H88.674H88.6917C88.6917 18.2893 88.6917 18.2893 88.7094 18.2893L89.1698 13.9054L89.1875 13.991ZM82.3877 18.3236C82.6356 18.3236 82.7419 18.4434 82.7065 18.7003C82.5294 20.0361 82.1398 21.1149 81.5732 21.9369C81.0065 22.7589 80.2097 23.3411 79.2003 23.6665C79.0941 23.7008 78.9878 23.6836 78.8993 23.598C78.8108 23.5124 78.7753 23.4268 78.793 23.3069C78.8285 23.0158 78.8639 22.6561 78.9347 22.228C79.0055 21.7999 79.0587 21.406 79.1295 21.0464C79.1649 20.9265 79.2357 20.8067 79.342 20.7039C79.4482 20.6012 79.5368 20.4984 79.6253 20.3785C79.7139 20.2587 79.7847 20.1217 79.8555 19.9676C79.9263 19.8134 79.9972 19.6251 80.0503 19.3853C80.1034 19.1456 80.1743 18.8716 80.2451 18.5291C80.2982 18.3749 80.4045 18.3064 80.5461 18.3064H82.37L82.3877 18.3236ZM94.429 16.4741C94.5353 16.4741 94.6238 16.4912 94.6592 16.5426C94.6946 16.594 94.7123 16.6625 94.6946 16.7823C94.6415 17.827 94.553 18.8544 94.4644 19.8477C94.3582 20.858 94.1988 21.7657 93.9509 22.5876C93.7207 23.3583 93.3843 24.0261 92.9593 24.5912C92.5166 25.1564 92.003 25.653 91.401 26.0469C90.7989 26.4578 90.126 26.7832 89.3646 27.0401C88.6209 27.297 87.824 27.4853 86.9917 27.6052C86.8501 27.6395 86.7438 27.6052 86.6553 27.5367C86.5668 27.4682 86.5491 27.3655 86.5845 27.2113C86.6907 26.7832 86.797 26.3551 86.9209 25.8927C87.0449 25.4475 87.1688 25.0707 87.2574 24.7967C87.2928 24.6255 87.399 24.5399 87.5407 24.5056C88.0011 24.3857 88.4084 24.2659 88.7979 24.1289C89.1875 24.009 89.5417 23.8549 89.8427 23.6836C90.1437 23.5124 90.4271 23.3069 90.6573 23.0843C90.8875 22.8445 91.0645 22.5705 91.1885 22.2452C91.3301 21.8513 91.4541 21.4574 91.5426 21.0464C91.6312 20.6525 91.702 20.2244 91.7728 19.7963C91.826 19.3511 91.8791 18.8887 91.9145 18.3921C91.9499 17.8955 91.9853 17.3303 92.003 16.7138C92.003 16.5426 92.0739 16.4398 92.2155 16.4398H94.4467L94.429 16.4741ZM95.1904 23.3754C95.7571 23.3754 96.2352 23.5638 96.6248 23.9576C97.0143 24.3344 97.2091 24.8139 97.2091 25.379C97.2091 25.9441 97.0143 26.3894 96.6248 26.7832C96.2352 27.16 95.7571 27.3655 95.1904 27.3655C94.6238 27.3655 94.1457 27.1771 93.7384 26.7832C93.3488 26.4065 93.1363 25.927 93.1363 25.379C93.1363 24.831 93.3311 24.3515 93.7384 23.9576C94.128 23.5809 94.6238 23.3754 95.1904 23.3754Z" fill="#CCCCCC"/>
</g>
<defs>
<linearGradient id="paint0_linear_1_60082" x1="19.348" y1="17.6584" x2="3.76406" y2="26.3976" gradientUnits="userSpaceOnUse">
<stop stop-color="#A7A7A7"/>
<stop offset="1" stop-color="#CCCCCC"/>
</linearGradient>
<clipPath id="clip0_1_60082">
<rect width="61.7647" height="19.6079" fill="white" transform="translate(36.7197 8.06592)"/>
</clipPath>
</defs>
</svg>
