<svg width="107" height="37" viewBox="0 0 107 37" fill="none" xmlns="http://www.w3.org/2000/svg">
<g filter="url(#filter0_d_6623_55889)">
<path fill-rule="evenodd" clip-rule="evenodd" d="M6.15529 10.7909C5.74526 15.1361 5.7389 19.4814 6.14257 23.8267L6.14575 23.8299C6.44453 27.069 8.99687 29.6215 12.2358 29.9203C16.5776 30.3208 20.9226 30.3176 25.2676 29.9076C28.4143 29.6088 30.9222 27.1008 31.221 23.9539C31.6342 19.5673 31.6342 15.1806 31.221 10.794C30.9222 7.64711 28.4143 5.13912 25.2676 4.84032C20.8813 4.42709 16.495 4.42709 12.1086 4.84032C8.9619 5.13594 6.45089 7.64711 6.15529 10.7909ZM15.3027 24.4719C15.2891 24.4733 15.2758 24.4746 15.2627 24.476V24.4696C15.2023 24.4728 15.1419 24.476 15.0815 24.4728C14.9131 24.4569 14.7446 24.441 14.5825 24.3997C14.4265 24.3591 14.2675 24.2849 14.1264 24.219L14.1184 24.2153C14.0644 24.1899 14.0167 24.1645 13.969 24.1327C13.8292 24.0405 13.6957 23.9419 13.5749 23.8243C13.4816 23.7337 13.3995 23.6207 13.3229 23.5154C13.3082 23.4951 13.2937 23.4751 13.2793 23.4556C13.2412 23.4047 13.2062 23.3507 13.1776 23.2903C13.174 23.2826 13.1704 23.275 13.1668 23.2673C13.1034 23.1316 13.0385 22.9927 12.9964 22.8453C12.9055 22.5272 12.9091 22.1821 12.9125 21.8478C12.9131 21.7846 12.9138 21.7218 12.9138 21.6596V12.5749C12.9138 12.3905 12.9424 12.1998 12.9773 12.0186C13.0045 11.8774 13.0688 11.7361 13.1286 11.6048C13.1388 11.5824 13.1488 11.5604 13.1585 11.5386C13.1808 11.4878 13.2062 11.4401 13.2348 11.3924C13.3238 11.2526 13.4287 11.1159 13.5431 10.9951C13.6262 10.9044 13.7333 10.8257 13.8327 10.7526C13.8588 10.7335 13.8842 10.7148 13.9087 10.6963C14.0866 10.5628 14.3028 10.4801 14.5094 10.4102C14.6413 10.3654 14.7929 10.349 14.9333 10.3338C14.9621 10.3307 14.9904 10.3276 15.0179 10.3244C15.072 10.3148 15.1292 10.3148 15.1832 10.3148H15.1832C15.5742 10.3276 15.9365 10.4261 16.2766 10.62C16.4485 10.7176 16.6187 10.8168 16.7897 10.9165C16.8527 10.9533 16.9158 10.9901 16.9791 11.0269C17.2413 11.1778 17.5035 11.3296 17.7657 11.4814C18.028 11.6332 18.2902 11.785 18.5524 11.936C18.8863 12.1283 19.2193 12.3207 19.5524 12.5131C19.8852 12.7053 20.2181 12.8976 20.5517 13.0899C21.2097 13.4713 21.8708 13.8527 22.5319 14.2342C23.0404 14.5266 23.5458 14.819 24.0511 15.1114L24.0513 15.1115C24.1418 15.164 24.2316 15.2156 24.3214 15.2673C24.4112 15.3189 24.501 15.3706 24.5916 15.423C24.617 15.4357 24.6393 15.4485 24.6615 15.4643C24.6742 15.4723 24.6862 15.4802 24.6981 15.4882C24.71 15.4961 24.7219 15.5041 24.7346 15.512C24.8337 15.5781 24.9257 15.6537 25.0167 15.7285C25.0307 15.7401 25.0448 15.7516 25.0588 15.7631C25.1065 15.8045 25.1478 15.8458 25.186 15.8935C25.196 15.9057 25.2061 15.918 25.2162 15.9304C25.3056 16.0395 25.3975 16.1518 25.4689 16.2717C25.5454 16.4042 25.6001 16.5475 25.6532 16.6866C25.6574 16.6977 25.6617 16.7088 25.6659 16.7199C25.685 16.7708 25.7009 16.8217 25.7104 16.8725C25.7422 17.0346 25.7676 17.1999 25.774 17.3652C25.7772 17.4161 25.774 17.4701 25.7676 17.521C25.7664 17.5328 25.7652 17.5448 25.764 17.5569C25.7492 17.7041 25.7325 17.8697 25.6914 18.0137C25.5261 18.5858 25.1447 19.0595 24.6297 19.3551L24.3341 19.5267C24.1149 19.6523 23.8964 19.7786 23.6779 19.9049C23.4593 20.0313 23.2408 20.1577 23.0214 20.2833L21.1239 21.3799C20.4437 21.7709 19.7603 22.1651 19.0801 22.5592C18.6566 22.8059 18.2313 23.0509 17.8069 23.2954C17.6516 23.3849 17.4964 23.4743 17.3414 23.5637C17.1777 23.6575 17.014 23.752 16.8504 23.8466C16.6867 23.9412 16.523 24.0357 16.3593 24.1295C16.3466 24.1374 16.3338 24.1446 16.3211 24.1517C16.3084 24.1589 16.2957 24.166 16.283 24.174C16.2671 24.1835 16.2512 24.1931 16.2321 24.2026C16.0827 24.2789 15.927 24.3488 15.7649 24.3965C15.6194 24.4402 15.4498 24.4572 15.3027 24.4719ZM15.4534 21.3132V21.3195V21.3354C15.4534 21.5071 15.6378 21.6151 15.7871 21.5293C15.8602 21.4912 15.9301 21.4499 16 21.4086L16.0001 21.4085C16.1606 21.3163 16.3211 21.2234 16.4817 21.1304C16.6422 21.0374 16.8027 20.9444 16.9632 20.8522C17.1555 20.741 17.347 20.6305 17.5385 20.5201C17.73 20.4096 17.9215 20.2992 18.1138 20.1879C18.3188 20.0687 18.5238 19.9503 18.7289 19.8319C18.9339 19.7135 19.1389 19.5951 19.3439 19.4759C19.5474 19.3582 19.7517 19.2405 19.956 19.1229C20.1601 19.0053 20.3643 18.8878 20.5676 18.7702C20.8376 18.6119 21.1093 18.4554 21.3802 18.2992C21.4792 18.2422 21.5782 18.1851 21.6769 18.1281C21.9819 17.9534 22.2836 17.7786 22.5854 17.6039L22.586 17.6036C22.5907 17.6004 22.5947 17.598 22.5987 17.5957C22.6027 17.5933 22.6066 17.5909 22.6114 17.5877C22.7608 17.5019 22.7608 17.2889 22.6114 17.2031C22.5224 17.1491 22.4334 17.0982 22.3444 17.0473C22.0235 16.863 21.6994 16.6756 21.3754 16.4881L21.375 16.4879C21.1842 16.3782 20.9927 16.2678 20.8012 16.1573C20.6097 16.0468 20.4182 15.9364 20.2275 15.8267L19.0006 15.1179C18.7988 15.0019 18.597 14.885 18.3952 14.7682C18.1933 14.6514 17.9915 14.5346 17.7896 14.4185C17.6052 14.312 17.4216 14.2063 17.238 14.1006C17.0545 13.9949 16.871 13.8893 16.6867 13.7828C16.3879 13.608 16.0891 13.4363 15.7903 13.2647H15.7871C15.6378 13.1789 15.4534 13.2869 15.4534 13.4586V21.3132Z" fill="#CCCCCC"/>
<path d="M40.4597 21.4155C40.6085 21.426 40.6673 21.5098 40.6327 21.6599C40.5739 21.8694 40.5047 22.0719 40.4251 22.2709C40.3455 22.4699 40.2521 22.6549 40.1483 22.8295C40.2521 22.8749 40.349 22.9063 40.4424 22.9237C40.5358 22.9412 40.6396 22.9621 40.7538 22.9831L40.9441 21.1327H38.4184C38.2697 21.1327 38.159 21.0978 38.0898 21.028C38.0206 20.9581 37.9964 20.8359 38.0206 20.6614L38.4184 17.816C38.4427 17.6868 38.4807 17.6065 38.5395 17.5716C38.5984 17.5367 38.6849 17.5192 38.799 17.5192H44.9401C45.2757 17.5192 45.5456 17.5437 45.7532 17.5891C45.9607 17.6345 46.1199 17.7113 46.2306 17.816C46.3413 17.9207 46.4105 18.0604 46.4382 18.2349C46.4659 18.4095 46.4693 18.626 46.4486 18.8808L46.241 20.6614C46.2168 20.8464 46.1683 20.9721 46.0957 21.0384C46.023 21.1048 45.8916 21.1327 45.7082 21.1327H43.4593L43.1826 24.432C43.1722 24.7217 43.0684 24.8963 42.8712 24.9557C42.674 25.0255 42.4283 25.0709 42.1273 25.0953C41.8263 25.1197 41.5115 25.1232 41.1759 25.1128C40.8403 25.1023 40.5116 25.0709 40.1899 25.015C39.8681 24.9626 39.5948 24.8893 39.3768 24.7985C39.2142 24.7287 39.1519 24.5961 39.1865 24.397C39.2107 24.233 39.2453 24.0654 39.2903 23.8908C39.0239 24.1247 38.7264 24.3167 38.3908 24.4739C38.0552 24.631 37.6919 24.7497 37.3009 24.8335C37.2075 24.8579 37.1383 24.8439 37.0864 24.7985C37.0345 24.7532 37.0138 24.6764 37.0276 24.5716C37.038 24.4669 37.0553 24.3447 37.0795 24.205C37.1037 24.0654 37.1245 23.9187 37.1487 23.7686C37.1729 23.6185 37.1937 23.4754 37.2179 23.3427C37.2421 23.21 37.2629 23.0913 37.2871 22.9831C37.2975 22.8434 37.3563 22.7457 37.4601 22.6863C37.7472 22.5362 37.9652 22.3791 38.1105 22.215C38.2558 22.0509 38.3977 21.831 38.5326 21.5517C38.5672 21.4574 38.6537 21.412 38.7921 21.412H40.4701L40.4597 21.4155ZM39.1623 9.99903C39.1865 9.89429 39.2246 9.80701 39.2834 9.73719C39.3422 9.66736 39.4322 9.63245 39.5602 9.63245H45.7013C46.369 9.63245 46.8222 9.74766 47.0575 9.98158C47.2928 10.2155 47.3896 10.6449 47.3447 11.2733L46.9468 14.625C46.9364 14.7646 46.8914 14.8659 46.8153 14.9322C46.7392 14.995 46.6389 15.0265 46.5109 15.0265H43.8814C43.961 15.1207 44.0302 15.2359 44.089 15.3756H47.0817C47.1751 15.3756 47.2409 15.4035 47.2824 15.4629C47.3239 15.5222 47.3308 15.5921 47.3101 15.6724C47.2858 15.8364 47.2512 16.0389 47.2063 16.2833C47.1613 16.5277 47.1094 16.7546 47.0506 16.9641C47.016 17.1282 46.9053 17.2085 46.7219 17.2085H38.9893C38.5395 17.2085 38.1936 17.0898 37.9514 16.8524C37.7092 16.615 37.5708 16.196 37.5362 15.6025C37.5258 15.4524 37.5881 15.3756 37.7265 15.3756H41.2901C41.3489 15.2359 41.4181 15.1207 41.4976 15.0265H38.9893C38.7022 15.0265 38.5741 14.8798 38.6087 14.5901L39.1623 9.99903ZM40.7192 18.9891L40.6327 19.5826H43.833L43.9022 18.9891H40.7192ZM44.5595 13.0364H41.2901L41.2382 13.5252H44.5249L44.5595 13.0364ZM41.4284 11.7796H44.6806L44.7325 11.3781H41.4803L41.4284 11.7796ZM44.8363 21.5901C45.1477 21.5901 45.4245 21.6843 45.6667 21.8694C45.9089 22.0544 46.0645 22.2953 46.1337 22.5851C46.5835 22.4105 46.9918 22.229 47.362 22.0439C47.7322 21.8589 48.0643 21.6424 48.3653 21.398C48.6663 21.1537 48.9396 20.8604 49.1887 20.5182C49.4378 20.1761 49.6662 19.7537 49.8703 19.2544C49.9153 19.1392 50.0156 19.0798 50.1644 19.0798H52.171C52.2748 19.0798 52.3475 19.1078 52.3855 19.1671C52.4271 19.2265 52.434 19.2963 52.4132 19.3766C51.9877 20.9372 51.2058 22.201 50.0675 23.1751C48.9292 24.1492 47.4692 24.802 45.684 25.1372C45.556 25.1616 45.4556 25.1372 45.3795 25.0674C45.3034 24.9975 45.2826 24.8858 45.3207 24.7357L45.4937 24.02C45.2861 24.1352 45.0681 24.1946 44.8363 24.1946C44.4661 24.1946 44.1547 24.0689 43.9022 23.8175C43.6496 23.5661 43.5216 23.2624 43.5216 22.9028C43.5216 22.5432 43.6496 22.2185 43.9022 21.9706C44.1547 21.7192 44.4661 21.5936 44.8363 21.5936V21.5901ZM52.4651 14.0838C52.5343 14.0838 52.5931 14.1083 52.6381 14.1537C52.6831 14.199 52.6969 14.2689 52.6727 14.3631C52.4893 15.0963 52.2126 15.7701 51.8424 16.3881C51.4722 17.006 51.0362 17.5576 50.538 18.0464C50.0364 18.5352 49.4793 18.9507 48.867 19.2963C48.2546 19.6384 47.6214 19.9038 46.9641 20.0888C46.8603 20.1133 46.7738 20.0993 46.7046 20.0539C46.6354 20.0085 46.6112 19.9212 46.6354 19.7921C46.67 19.5232 46.7219 19.2265 46.7911 18.9018C46.8603 18.5771 46.9226 18.2734 46.9814 17.9941C47.0264 17.809 47.1129 17.6868 47.2409 17.6275C47.6457 17.4075 47.9916 17.198 48.2892 16.999C48.5833 16.8 48.8462 16.5801 49.0745 16.3357C49.3029 16.0913 49.5174 15.805 49.7077 15.4803C49.898 15.1556 50.0917 14.7472 50.2855 14.2584C50.3304 14.1432 50.4308 14.0838 50.5795 14.0838H52.4651ZM52.517 9.44043C52.6796 9.44043 52.7488 9.52073 52.7246 9.68482C52.6104 10.3726 52.389 11.015 52.0603 11.6155C51.7317 12.216 51.3303 12.7571 50.8598 13.2389C50.3858 13.7207 49.8599 14.1397 49.2752 14.4888C48.694 14.8379 48.092 15.1068 47.4692 15.2918C47.3654 15.3162 47.2789 15.3023 47.2097 15.2499C47.1405 15.1975 47.1163 15.1068 47.1405 14.9811C47.1751 14.7123 47.2166 14.426 47.272 14.1152C47.3239 13.808 47.3793 13.5078 47.4346 13.2145C47.4796 13.0399 47.5557 12.9247 47.6595 12.8654C48.0401 12.6105 48.3653 12.3766 48.6386 12.1671C48.9085 11.9576 49.1437 11.7342 49.3375 11.4968C49.5347 11.2594 49.7042 10.9906 49.8495 10.6938C49.9948 10.397 50.1229 10.0339 50.237 9.60452C50.2716 9.49978 50.365 9.44741 50.5138 9.44741H52.5205L52.517 9.44043Z" fill="#CCCCCC"/>
<path d="M59.8061 19.846C59.6487 19.9567 59.5314 19.9366 59.4544 19.7789C59.3874 19.6346 59.3204 19.4837 59.2534 19.326C59.1864 19.1683 59.1094 19.014 59.0189 18.8564L58.6504 24.878C58.6169 25.0558 58.5097 25.1464 58.3322 25.1464H56.3558C56.1313 25.1464 56.0308 25.0458 56.0543 24.8445L56.5065 19.9634C56.2285 20.1546 55.9437 20.3224 55.6523 20.4666C55.3609 20.6109 55.0661 20.7283 54.7646 20.8189C54.6742 20.8423 54.5938 20.8289 54.5234 20.7853C54.4497 20.7417 54.4196 20.6578 54.4296 20.5337C54.4397 20.376 54.4631 20.2049 54.4966 20.0137C54.5301 19.8225 54.567 19.6346 54.6072 19.4434C54.6474 19.2522 54.6842 19.0711 54.7244 18.9C54.7646 18.7255 54.7981 18.5712 54.8349 18.437C54.8584 18.38 54.8885 18.3297 54.9254 18.2861C54.9656 18.2425 55.0024 18.2089 55.0359 18.1854C55.7964 17.7258 56.4161 17.2159 56.8951 16.649C57.3741 16.0854 57.7259 15.4111 57.9503 14.6261H56.6941C56.2821 14.6261 55.927 14.4584 55.6322 14.1229C55.3374 13.7874 55.1699 13.3111 55.1364 12.6971C55.1364 12.573 55.18 12.5126 55.2704 12.5126H59.5582C60.1612 12.5126 60.5397 12.6602 60.6972 12.9588C60.8546 13.254 60.858 13.6432 60.7139 14.1229C60.456 14.9381 60.0842 15.7566 59.5917 16.5718C59.8597 16.8167 60.1009 17.0683 60.3187 17.3266C60.5364 17.5849 60.724 17.8231 60.8781 18.0479L61.7155 10.5669C61.739 10.4227 61.7825 10.3321 61.8495 10.2985C61.9165 10.265 62.017 10.2482 62.151 10.2482H67.5778C68.3248 10.2482 68.8206 10.3992 69.0584 10.7011C69.2996 11.003 69.38 11.523 69.303 12.261L68.767 19.4904C68.7435 19.6581 68.6564 19.742 68.499 19.742H66.5896C66.3986 19.742 66.3149 19.6514 66.3383 19.4736L66.9413 12.8984C66.9748 12.6535 66.8844 12.5294 66.6733 12.5294H63.8762L62.9885 19.5575C62.955 19.7152 62.8545 19.7923 62.687 19.7923H60.9116C60.7541 19.7923 60.6871 19.6984 60.7106 19.5072L60.7441 19.1214C60.5866 19.2556 60.4325 19.383 60.2751 19.5072C60.1177 19.6313 59.9636 19.742 59.8061 19.8426V19.846ZM58.9519 9.14453C59.3774 9.14453 59.7358 9.28878 60.0306 9.58064C60.3254 9.8725 60.4761 10.2281 60.4761 10.6541C60.4761 11.0802 60.3287 11.4391 60.0306 11.7344C59.7358 12.0296 59.374 12.1805 58.9519 12.1805C58.5298 12.1805 58.1681 12.0329 57.8733 11.7344C57.5785 11.4391 57.4277 11.0768 57.4277 10.6541C57.4277 10.2315 57.5751 9.8725 57.8733 9.58064C58.1681 9.28878 58.5298 9.14453 58.9519 9.14453ZM64.1777 13.2205C64.2011 13.0628 64.2882 12.9857 64.4457 12.9857H66.2546C66.4455 12.9857 66.5293 13.0695 66.5058 13.2373C66.3953 14.5221 66.2814 15.6694 66.1708 16.6758C66.0603 17.6822 65.8928 18.588 65.6684 19.3931C65.6349 19.5172 65.6014 19.6313 65.5679 19.7386C65.5344 19.846 65.4942 19.9466 65.4506 20.0473H66.8911C67.0586 20.0473 67.1356 20.1311 67.1256 20.2989L66.9246 22.3956C67.216 22.419 67.5979 22.362 68.0702 22.2278C68.5426 22.0936 69.0048 21.9091 69.4504 21.6743C69.5073 21.6408 69.5643 21.6408 69.6279 21.6743C69.6882 21.7078 69.7217 21.7682 69.7217 21.8588C69.7217 21.993 69.7116 22.1473 69.6949 22.3218C69.6781 22.4962 69.6547 22.674 69.6279 22.8585C69.6011 23.043 69.5743 23.2175 69.5542 23.3785C69.5308 23.5395 69.5107 23.6771 69.4872 23.7911C69.4638 23.8817 69.4403 23.9488 69.4102 23.9924C69.3834 24.036 69.3298 24.0863 69.2527 24.1434C69.0618 24.2675 68.7804 24.3715 68.4052 24.4621C68.03 24.5526 67.6247 24.6164 67.1825 24.6533C66.7403 24.6935 66.3015 24.7036 65.8593 24.6868C65.4171 24.67 65.0319 24.6164 64.6969 24.5258C64.4624 24.4587 64.3619 24.3077 64.3954 24.0729L64.6467 21.7749C64.1107 22.6136 63.434 23.2946 62.61 23.8213C61.7892 24.348 60.8077 24.7506 59.6721 25.029C59.3606 25.1062 59.23 25.0022 59.2869 24.7103C59.3439 24.4184 59.4008 24.1165 59.4644 23.8045C59.5247 23.4925 59.6018 23.1571 59.6889 22.7981C59.7224 22.6405 59.7994 22.5365 59.9234 22.4794C60.3589 22.2681 60.7508 22.0634 61.1025 21.8655C61.4543 21.6709 61.7658 21.4562 62.0405 21.2214C62.3152 20.9866 62.553 20.7216 62.7507 20.423C62.9516 20.1278 63.1191 19.7789 63.2531 19.3763C63.4776 18.7155 63.6551 17.8969 63.7891 16.9174C63.9231 15.9378 64.0504 14.7066 64.1743 13.2205H64.1777Z" fill="#CCCCCC"/>
<path d="M84.4433 10.3016C84.5904 10.3016 84.6421 10.3794 84.6024 10.535L83.7872 13.1811C83.7474 13.3367 83.648 13.4145 83.4889 13.4145H79.8702L79.0749 24.913C79.047 25.0686 78.9476 25.1465 78.7766 25.1465H75.5556C75.3846 25.1465 75.309 25.0492 75.3369 24.8546L76.1918 13.4145H73.5076C73.1617 13.4145 72.8634 13.3367 72.6049 13.1811C72.3465 13.0254 72.1278 12.8192 71.9488 12.5585C71.7699 12.2978 71.6386 11.9981 71.5511 11.6557C71.4637 11.3133 71.4199 10.9514 71.4199 10.574C71.4199 10.3911 71.5074 10.3016 71.6784 10.3016H84.4433Z" fill="#CCCCCC"/>
<path d="M90.2686 25.1425C90.1019 25.1425 89.9895 25.0569 89.9391 24.8897L86.3341 10.6711C86.2682 10.426 86.3535 10.3015 86.5861 10.3015H89.881C90.1407 10.3015 90.2957 10.426 90.3461 10.6711L92.5556 21.3885H92.5944L96.9165 10.6127C96.9553 10.5077 97.0057 10.4299 97.0638 10.3793C97.122 10.3287 97.215 10.3015 97.3468 10.3015H100.855C101.138 10.3015 101.223 10.4454 101.107 10.7294L95.5249 22.8862C95.304 23.353 95.0869 23.7343 94.8659 24.0338C94.645 24.3334 94.4047 24.5629 94.1372 24.7263C93.8736 24.8897 93.5751 24.9986 93.2456 25.0569C92.9161 25.1153 92.5324 25.1464 92.0943 25.1464H90.2725L90.2686 25.1425Z" fill="#CCCCCC"/>
</g>
<defs>
<filter id="filter0_d_6623_55889" x="-0.38889" y="-2.04167" width="107.778" height="41.143" filterUnits="userSpaceOnUse" color-interpolation-filters="sRGB">
<feFlood flood-opacity="0" result="BackgroundImageFix"/>
<feColorMatrix in="SourceAlpha" type="matrix" values="0 0 0 0 0 0 0 0 0 0 0 0 0 0 0 0 0 0 127 0" result="hardAlpha"/>
<feOffset dy="1.34722"/>
<feGaussianBlur stdDeviation="2.69445"/>
<feComposite in2="hardAlpha" operator="out"/>
<feColorMatrix type="matrix" values="0 0 0 0 0.309804 0 0 0 0 0.501961 0 0 0 0 1 0 0 0 0.15 0"/>
<feBlend mode="normal" in2="BackgroundImageFix" result="effect1_dropShadow_6623_55889"/>
<feBlend mode="normal" in="SourceGraphic" in2="effect1_dropShadow_6623_55889" result="shape"/>
</filter>
</defs>
</svg>
