<svg width="150" height="47" viewBox="0 0 150 47" fill="none" xmlns="http://www.w3.org/2000/svg">
<path d="M7.68716 39.1741C4.68727 32.2884 7.83736 24.2745 14.7231 21.2746L30.3852 14.4511C35.2052 12.3512 40.8149 14.5563 42.9148 19.3763C45.0147 24.1963 42.8097 29.806 37.9897 31.9059L14.847 41.9885C12.0927 43.1885 8.88712 41.9284 7.68716 39.1741Z" fill="url(#paint0_linear_13277_26946)"/>
<path d="M7.89732 7.11357C9.1155 4.36729 12.3293 3.12852 15.0756 4.3467L38.153 14.5832C42.959 16.715 45.1269 22.3392 42.995 27.1452C40.8632 31.9512 35.239 34.1191 30.433 31.9873L14.8145 25.0593C7.94881 22.0139 4.85188 13.9793 7.89732 7.11357Z" fill="#C5C5C5"/>
<g clip-path="url(#clip0_13277_26946)">
<path d="M58.8921 23.5374H57.2395C57.0769 23.5374 56.9956 23.5112 56.9415 23.4588C56.8873 23.4064 56.8602 23.2754 56.8873 23.092L57.5104 17.5898C57.5646 17.1706 57.7813 16.961 58.1606 16.961H79.6724C80.4039 16.961 80.9999 17.0134 81.4605 17.092C81.9211 17.1706 82.2733 17.3278 82.5171 17.5374C82.761 17.747 82.9235 18.0614 82.9777 18.4282C83.0319 18.795 83.0319 19.2666 82.9777 19.8168L82.6255 23.092C82.6255 23.2492 82.5713 23.354 82.5171 23.4064C82.463 23.4588 82.3817 23.4588 82.2191 23.4588H80.3226C80.5935 23.7208 80.7832 24.0614 80.8645 24.4544C80.9457 24.8474 80.9458 25.319 80.9187 25.8692L80.4581 31.0046C80.4581 31.0046 80.4039 31.2404 80.4039 31.3452C80.4039 31.45 80.3226 31.5286 80.2413 31.6072C80.4581 31.9741 80.6748 32.3409 80.9187 32.7601C81.1625 33.1793 81.3521 33.6247 81.5418 34.0701C81.7314 34.5155 81.894 34.961 82.0566 35.3802C82.2191 35.7994 82.3275 36.1924 82.3817 36.533C82.4359 36.6902 82.4359 36.8212 82.3817 36.9522C82.3546 37.0832 82.2462 37.188 82.1107 37.2404C81.4334 37.4762 80.8103 37.6596 80.1871 37.8168C79.5911 37.9741 78.8325 38.1051 77.9655 38.2623C77.5862 38.3147 77.3695 38.2099 77.3153 37.8954L77.0444 36.8474C75.4459 37.0046 73.7661 37.1618 72.0593 37.2666C70.3253 37.3714 68.5914 37.4762 66.8033 37.581C65.0151 37.6858 63.2541 37.7644 61.466 37.8168C59.6778 37.8692 57.9439 37.9217 56.2641 37.9479C56.0474 37.9479 55.9119 37.9479 55.8306 37.8692C55.7765 37.7906 55.7223 37.6858 55.6681 37.5286C55.6139 37.2666 55.5326 36.9522 55.4784 36.5854C55.4242 36.2186 55.3701 35.878 55.343 35.5374C55.2888 35.1968 55.2617 34.8561 55.2346 34.5417C55.2075 34.2273 55.1804 33.9391 55.1533 33.7033C55.1533 33.4151 55.3159 33.2579 55.6139 33.2579C56.9956 33.3103 58.6212 33.3103 60.5177 33.3103H66.2885L66.4511 31.712H58.5941C58.3232 31.712 58.1064 31.6596 57.971 31.5286C57.8355 31.3976 57.7813 31.188 57.8355 30.8736L58.9192 23.5112L58.8921 23.5374ZM74.1996 8.39327C74.7686 8.39327 75.3104 8.47187 75.8252 8.60287C76.34 8.76008 76.8005 8.94348 77.1798 9.20549C77.5591 9.4675 77.8843 9.75571 78.101 10.0963C78.3177 10.4369 78.399 10.7513 78.3719 11.092V11.3016H84.224C84.5491 11.3016 84.7117 11.4588 84.6846 11.7994C84.6304 12.271 84.522 12.7688 84.4136 13.319C84.3053 13.8692 84.224 14.2885 84.1427 14.6029C84.0885 14.7863 84.0343 14.9173 83.926 14.9697C83.8176 15.0221 83.6821 15.0745 83.5467 15.0745H77.7488L77.6133 15.9915C77.5591 16.3059 77.3695 16.4631 77.0986 16.4631H73.0888C72.7095 16.4631 72.574 16.3059 72.6282 15.9915L72.7637 15.0745H68.1037L67.9953 15.9129C67.9953 16.2797 67.7786 16.4369 67.4535 16.4369H63.5792C63.3625 16.4369 63.1999 16.3845 63.1186 16.2535C63.0103 16.1487 62.9832 16.0177 63.0103 15.8605L63.1186 15.0483H59.5153C58.4857 15.0483 57.6459 14.7601 56.9956 14.2099C56.3454 13.6334 55.9932 12.795 55.8848 11.6422C55.8848 11.4064 55.9932 11.3016 56.2099 11.3016H63.6605L64.0127 8.89108C64.0127 8.62907 64.1753 8.47187 64.4462 8.47187C64.988 8.47187 65.5028 8.55047 66.0176 8.68148C66.5323 8.83868 66.9658 9.04829 67.3722 9.3103C67.7515 9.57231 68.0766 9.88672 68.3205 10.2273C68.5643 10.5679 68.6727 10.9086 68.6456 11.3016H73.3597L73.739 8.73388C73.739 8.73388 73.7932 8.55047 73.8745 8.47187C73.9558 8.39327 74.0642 8.36707 74.2267 8.36707L74.1996 8.39327ZM61.9807 22.7513H67.3993L67.5619 21.3627C67.5619 21.1531 67.6973 21.0483 67.9141 21.0483H72.4657C72.6824 21.0483 72.7908 21.1531 72.7637 21.3627L72.6282 22.7513H77.6133L77.9113 20.4981H62.1975L61.9807 22.7513ZM66.8304 28.2797L67.0471 26.2099H63.525L63.3083 28.2797H66.8304ZM71.68 33.3103C72.4657 33.3103 73.2243 33.3103 73.9287 33.3103C74.6602 33.3103 75.3646 33.3103 76.069 33.2579C75.9878 32.9959 75.9065 32.7601 75.8252 32.4981C75.7439 32.2361 75.6897 32.0003 75.6085 31.7382H71.8425L71.68 33.3103ZM72.3302 26.2099L72.1406 28.2797H75.5543L75.7439 26.7339C75.7439 26.4981 75.7439 26.3671 75.6626 26.2885C75.5814 26.2361 75.4188 26.1837 75.2021 26.1837H72.3302V26.2099Z" fill="#C5C5C5"/>
<path d="M97.6624 28.4107C97.3644 28.6203 97.1206 28.5679 96.9851 28.2797C96.8497 28.0177 96.7142 27.7295 96.6058 27.4413C96.4704 27.153 96.3349 26.8648 96.1452 26.5504L95.4408 37.843C95.3866 38.1836 95.1699 38.3408 94.8177 38.3408H90.9705C90.537 38.3408 90.3474 38.1574 90.3745 37.7644L91.2414 28.6203C90.6996 28.9871 90.1577 29.3015 89.5888 29.5635C89.0198 29.8255 88.4509 30.0613 87.8548 30.2186C87.6923 30.271 87.5297 30.2186 87.3942 30.1661C87.2588 30.0875 87.2046 29.9303 87.2046 29.6945C87.2046 29.4063 87.2588 29.0657 87.3401 28.7251C87.3942 28.3583 87.4755 28.0177 87.5568 27.6509C87.6381 27.2841 87.7194 26.9434 87.7735 26.629C87.8277 26.3146 87.909 26.0264 87.9903 25.7644C88.0445 25.6596 88.0987 25.5548 88.1799 25.4762C88.2612 25.3976 88.3154 25.319 88.3967 25.2928C89.8597 24.4282 91.0789 23.4849 92 22.4107C92.9212 21.3627 93.6256 20.0788 94.0591 18.6116H91.6207C90.8079 18.6116 90.1306 18.2972 89.5617 17.6683C88.9927 17.0395 88.6676 16.1487 88.6134 14.9958C88.6134 14.76 88.6947 14.6552 88.8843 14.6552H97.2019C98.3669 14.6552 99.0984 14.9434 99.4235 15.4937C99.7215 16.0439 99.7486 16.7775 99.4506 17.6683C98.9629 19.188 98.2314 20.7338 97.2831 22.2535C97.7979 22.7251 98.2856 23.1967 98.692 23.6683C99.1255 24.1399 99.4777 24.6116 99.7757 25.0308L101.401 11.0133C101.455 10.7513 101.537 10.5679 101.672 10.5155C101.808 10.4631 101.997 10.4107 102.268 10.4107H112.807C114.27 10.4107 115.219 10.6989 115.679 11.2491C116.14 11.7993 116.302 12.795 116.14 14.1836L115.11 27.7295C115.056 28.0439 114.894 28.2011 114.595 28.2011H110.884C110.504 28.2011 110.342 28.0439 110.396 27.7033L111.561 15.3889C111.615 14.9172 111.453 14.7076 111.046 14.7076H105.628L103.894 27.8867C103.84 28.1749 103.623 28.3321 103.298 28.3321H99.857C99.5589 28.3321 99.4235 28.1487 99.4777 27.8081L99.5319 27.0744C99.2338 27.3365 98.9358 27.5723 98.6107 27.8081C98.3127 28.0439 98.0147 28.2535 97.6895 28.4369L97.6624 28.4107ZM96.0098 8.34082C96.8226 8.34082 97.527 8.60283 98.0959 9.15305C98.6649 9.70327 98.9629 10.3583 98.9629 11.1705C98.9629 11.9827 98.6649 12.6378 98.0959 13.188C97.527 13.7382 96.8226 14.0264 96.0098 14.0264C95.197 14.0264 94.4926 13.7382 93.9236 13.188C93.3547 12.6378 93.0567 11.9565 93.0567 11.1705C93.0567 10.3845 93.3547 9.70327 93.9236 9.15305C94.4926 8.60283 95.197 8.34082 96.0098 8.34082ZM106.143 15.9915C106.197 15.7033 106.359 15.5461 106.657 15.5461H110.179C110.559 15.5461 110.721 15.7033 110.667 16.0177C110.45 18.4282 110.234 20.5766 110.017 22.4631C109.8 24.3496 109.475 26.0526 109.041 27.5461C108.987 27.7819 108.906 27.9915 108.852 28.2011C108.798 28.4107 108.716 28.5941 108.635 28.7775H111.426C111.751 28.7775 111.913 28.9347 111.886 29.2491L111.507 33.1793C112.076 33.2317 112.807 33.1268 113.729 32.8648C114.65 32.6028 115.544 32.2622 116.411 31.8168C116.519 31.7644 116.627 31.7644 116.763 31.8168C116.871 31.8692 116.953 32.0002 116.953 32.1574C116.953 32.4194 116.953 32.7076 116.898 33.022C116.844 33.3365 116.817 33.6771 116.763 34.0177C116.709 34.3583 116.655 34.6989 116.627 34.9871C116.573 35.3015 116.546 35.5373 116.492 35.7469C116.438 35.9041 116.411 36.0351 116.357 36.1138C116.302 36.1924 116.194 36.2972 116.059 36.402C115.679 36.6378 115.137 36.8212 114.406 37.0046C113.674 37.1618 112.889 37.2928 112.022 37.3714C111.155 37.45 110.315 37.4762 109.448 37.4238C108.581 37.3714 107.849 37.2928 107.199 37.1356C106.739 37.0046 106.549 36.7164 106.603 36.2972L107.091 32.0002C106.061 33.5723 104.734 34.8561 103.135 35.8255C101.537 36.8212 99.6402 37.5548 97.4186 38.0788C96.8226 38.236 96.5516 38.0264 96.66 37.4762C96.7684 36.926 96.8767 36.3758 97.0122 35.7731C97.1206 35.1967 97.2831 34.5679 97.4457 33.8867C97.4999 33.5985 97.6624 33.3889 97.9063 33.2841C98.7462 32.891 99.5048 32.498 100.209 32.1312C100.886 31.7644 101.51 31.3714 102.024 30.926C102.566 30.4806 103.027 29.9827 103.406 29.4325C103.785 28.8823 104.111 28.2273 104.381 27.4675C104.815 26.236 105.167 24.6902 105.411 22.8561C105.682 21.022 105.926 18.7164 106.17 15.9129L106.143 15.9915Z" fill="#C5C5C5"/>
<path d="M135.457 17.4061C135.457 17.0917 135.511 16.8821 135.62 16.7511C135.728 16.6201 135.89 16.5677 136.134 16.5677H139.223L139.738 14.655H137.597C136.785 14.655 136.08 14.3406 135.538 13.738C134.996 13.1354 134.698 12.297 134.671 11.2489C134.671 10.9869 134.807 10.8297 135.051 10.8297H149.22C149.383 10.8297 149.518 10.8559 149.599 10.9345C149.681 10.9869 149.681 11.1179 149.654 11.3013C149.599 11.8253 149.518 12.3494 149.41 12.8472C149.301 13.3712 149.193 13.8166 149.058 14.2358C149.003 14.4978 148.787 14.6026 148.434 14.6026H144.587C144.452 14.9695 144.316 15.2839 144.154 15.5983C143.991 15.9127 143.829 16.2271 143.639 16.5153H145.4C146.132 16.5153 146.728 16.5677 147.161 16.6463C147.595 16.7249 147.92 16.8821 148.136 17.0917C148.353 17.3013 148.462 17.5895 148.516 17.9564C148.57 18.3232 148.57 18.7948 148.543 19.3974L147.838 30.5066C147.838 30.7686 147.784 30.9258 147.703 31.0044C147.595 31.083 147.459 31.1354 147.242 31.1354H144.262C143.883 31.1354 143.72 30.9782 143.72 30.559L144.56 20.2882H139.196L138.004 30.3756C138.004 30.7424 137.814 30.8996 137.408 30.8996H134.617C134.238 30.8996 134.048 30.7162 134.075 30.3232L134.536 26.1048C134.075 27.8603 133.398 29.4323 132.504 30.821C131.61 32.2096 130.526 33.3887 129.28 34.4105C128.034 35.4061 126.625 36.2446 125.026 36.8734C123.455 37.5022 121.748 37.9738 119.933 38.2358C119.689 38.2882 119.499 38.2358 119.391 38.131C119.283 38.0262 119.228 37.8428 119.255 37.607C119.364 37.1354 119.499 36.5328 119.689 35.8515C119.879 35.1703 120.041 34.5677 120.204 34.0699C120.312 33.8079 120.475 33.6245 120.718 33.5721C122.1 33.2577 123.346 32.8384 124.43 32.3406C125.514 31.8428 126.435 31.1878 127.221 30.4018H125.731C125.731 30.4018 125.487 30.3756 125.406 30.297C125.324 30.2184 125.297 30.1136 125.297 29.9301L126.11 22.8559H123.184C122.344 22.8559 121.667 22.5153 121.125 21.8603C120.583 21.2053 120.312 20.393 120.285 19.4236C120.285 19.1878 120.393 19.083 120.637 19.083H122.75L123.509 11.5109C123.509 11.2489 123.672 11.1179 123.97 11.1703C125.162 11.3275 125.974 11.6681 126.435 12.1398C126.896 12.6114 127.085 13.2926 127.031 14.1834L126.652 19.083H127.492L128.494 8.83845C128.494 8.57644 128.657 8.44544 129.009 8.49784C130.174 8.60264 131.095 8.94325 131.745 9.49347C132.395 10.0699 132.694 10.7773 132.612 11.6681L132.477 13.2664H134.59C134.888 13.2664 135.023 13.4236 135.023 13.7642C134.969 14.2096 134.915 14.6812 134.834 15.1529C134.753 15.6507 134.671 16.0961 134.59 16.5153C134.536 16.8559 134.346 17.0131 134.075 17.0131H132.152L131.962 19.0568H134.536C134.861 19.0568 134.996 19.1878 134.969 19.5284C134.969 19.7118 134.915 19.9476 134.861 20.2096C134.807 20.4716 134.78 20.7336 134.725 21.0219C134.671 21.3101 134.644 21.5459 134.59 21.7817C134.536 22.0175 134.509 22.2271 134.482 22.3581C134.427 22.6725 134.292 22.8297 134.021 22.8297H130.662L130.147 27.2053C130.526 26.3668 130.905 25.3974 131.23 24.2708C131.23 24.0874 131.393 23.9826 131.61 23.9826H134.671H134.698C134.698 23.9826 134.698 23.9826 134.725 23.9826L135.43 17.2751L135.457 17.4061ZM125.053 24.035C125.433 24.035 125.595 24.2184 125.541 24.6114C125.27 26.655 124.674 28.3057 123.807 29.5633C122.94 30.821 121.721 31.7118 120.177 32.2096C120.014 32.262 119.851 32.2358 119.716 32.1048C119.581 31.9738 119.526 31.8428 119.553 31.6594C119.608 31.214 119.662 30.6638 119.77 30.0088C119.879 29.3537 119.96 28.7511 120.068 28.2009C120.122 28.0175 120.231 27.8341 120.393 27.6769C120.556 27.5197 120.691 27.3625 120.827 27.1791C120.962 26.9957 121.071 26.786 121.179 26.5502C121.287 26.3144 121.396 26.0262 121.477 25.6594C121.558 25.2926 121.667 24.8734 121.775 24.3494C121.856 24.1136 122.019 24.0088 122.236 24.0088H125.026L125.053 24.035ZM143.476 21.2053C143.639 21.2053 143.775 21.2315 143.829 21.3101C143.883 21.3887 143.91 21.4935 143.883 21.6769C143.802 23.2751 143.666 24.8472 143.531 26.3668C143.368 27.9127 143.124 29.3013 142.745 30.559C142.393 31.738 141.878 32.7598 141.228 33.6245C140.55 34.4891 139.765 35.2489 138.844 35.8515C137.922 36.4804 136.893 36.9782 135.728 37.3712C134.59 37.7642 133.371 38.0524 132.097 38.2358C131.881 38.2882 131.718 38.2358 131.583 38.131C131.447 38.0262 131.42 37.869 131.474 37.6332C131.637 36.9782 131.799 36.3232 131.989 35.6157C132.179 34.9345 132.368 34.3581 132.504 33.9389C132.558 33.6769 132.721 33.5459 132.937 33.4935C133.642 33.3101 134.265 33.1267 134.861 32.9171C135.457 32.7336 135.999 32.4978 136.459 32.2358C136.92 31.9738 137.353 31.6594 137.706 31.3188C138.058 30.952 138.329 30.5328 138.518 30.035C138.735 29.4323 138.925 28.8297 139.06 28.2009C139.196 27.5983 139.304 26.9433 139.413 26.2882C139.494 25.607 139.575 24.8996 139.629 24.1398C139.683 23.3799 139.738 22.5153 139.765 21.5721C139.765 21.3101 139.873 21.1529 140.09 21.1529H143.504L143.476 21.2053ZM144.641 31.7642C145.508 31.7642 146.24 32.0524 146.836 32.655C147.432 33.2315 147.73 33.9651 147.73 34.8297C147.73 35.6943 147.432 36.3756 146.836 36.9782C146.24 37.5546 145.508 37.869 144.641 37.869C143.775 37.869 143.043 37.5808 142.42 36.9782C141.824 36.4018 141.499 35.6681 141.499 34.8297C141.499 33.9913 141.797 33.2577 142.42 32.655C143.016 32.0786 143.775 31.7642 144.641 31.7642Z" fill="#C5C5C5"/>
</g>
<defs>
<linearGradient id="paint0_linear_13277_26946" x1="28.602" y1="23.0169" x2="4.75867" y2="36.388" gradientUnits="userSpaceOnUse">
<stop stop-color="#AAAAAA"/>
<stop offset="1" stop-color="#C5C5C5"/>
</linearGradient>
<clipPath id="clip0_13277_26946">
<rect width="94.5" height="30" fill="white" transform="translate(55.1807 8.34082)"/>
</clipPath>
</defs>
</svg>
