<svg xmlns="http://www.w3.org/2000/svg" width="30" height="30" fill="none"><path fill="#fff" d="M23.7 12.8h-1.5V8.7c0-1.8-1-2.7-2.8-2.7H6.8C5 6 4 6.9 4 8.7v8.7c0 1.8 1 2.7 2.8 2.7h5.5v1c0 1.8.9 2.7 2.8 2.7h8.6c1.8 0 2.8-.9 2.8-2.7v-5.7c0-1.8-1-2.6-2.8-2.6Zm-3 0h-5.6c-1.8 0-2.8.9-2.8 2.7v3.2H6.8c-.9 0-1.3-.4-1.3-1.3V8.8c0-.9.4-1.3 1.3-1.3h12.6c.9 0 1.3.4 1.3 1.3v4Z"/><path fill="#fff" d="M11.4 12.7c0 .2 0 .4-.1.5-.1.1-.3.2-.4.2h-.1l-3-.5c-.2 0-.4-.2-.5-.4 0-.2 0-.4.2-.6l.8-.8-1.4-1.4c-.2-.2-.2-.7 0-.9.2-.2.6-.2.9 0l1.4 1.4.8-.8c.2-.2.4-.2.6-.2.2 0 .4.3.4.5l.5 3h-.1Z"/></svg>