<svg width="60" height="60" viewBox="0 0 60 60" fill="none" xmlns="http://www.w3.org/2000/svg">
<g clip-path="url(#clip0_17840_98036)">
<rect width="60" height="60" rx="16.5" fill="#14161A"/>
<rect width="60" height="60" fill="#F9C33B"/>
<g style="mix-blend-mode:screen" opacity="0.1">
<rect width="60" height="60" rx="11.25" fill="url(#paint0_linear_17840_98036)"/>
</g>
<g clip-path="url(#clip1_17840_98036)">
<path d="M9 29.9377V25.6748C9 25.3032 9.4027 25.0702 9.72405 25.257L13.4156 27.388L17.1072 29.519C17.4295 29.7047 17.4295 30.1697 17.1072 30.3555L13.6305 32.4865L9.72405 34.6175C9.40169 34.8032 9 34.5713 9 34.1997V29.9367V29.9377Z" fill="#17181A"/>
<path d="M17.0703 21.7V25.4006C17.0713 24.1674 17.0733 22.9332 17.0703 21.7Z" fill="#17181A"/>
<path d="M17.0703 30.3022V40.3807C17.1105 37.124 17.0703 33.8381 17.0703 30.3022Z" fill="#17181A"/>
<path d="M48.79 26.0825L36.2471 18.841L23.7033 11.5985C20.7548 9.89628 17.0703 12.0242 17.0703 15.4276V17.7745C17.223 15.9749 18.1679 14.6503 19.7797 13.7937C21.5813 12.8367 23.409 12.9793 25.1132 14.1582C29.5178 17.2061 33.9504 20.2138 38.3168 23.3158C43.0759 26.6971 43.0056 33.6644 38.2204 37.0236C33.9515 40.0202 29.6664 42.9938 25.3783 45.9623C23.6249 47.1754 21.741 47.5259 19.7958 46.4744C18.0956 45.5546 17.2109 44.1667 17.0703 42.3069V44.3967C17.0703 47.801 20.7548 49.928 23.7033 48.2258L36.2461 40.9843L48.789 33.7428C51.7374 32.0406 51.7374 27.7857 48.789 26.0835L48.79 26.0825Z" fill="#17181A"/>
<path d="M32.6618 28.5479C33.2071 28.4586 33.6721 28.9235 33.5827 29.4688C33.5285 29.7992 33.2623 30.0653 32.932 30.1196C32.3867 30.2089 31.9217 29.744 32.0111 29.1987C32.0653 28.8683 32.3314 28.6022 32.6618 28.5479Z" fill="#17181A"/>
<path d="M17.0693 30.3033L17.0703 30.3023L17.0693 29.9679V30.3033Z" fill="#17181A"/>
<path d="M17.0514 41.6139C17.0464 41.8519 17.0534 42.0819 17.0705 42.3058V40.3807C17.0655 40.7925 17.0594 41.2032 17.0514 41.6139Z" fill="#17181A"/>
<path d="M17.0482 18.382C17.0612 19.4877 17.0673 20.5944 17.0703 21.7V17.7745C17.0532 17.9713 17.0462 18.1732 17.0482 18.382Z" fill="#17181A"/>
<path d="M17.0708 25.4016C17.0698 26.3114 17.0687 27.2223 17.0698 28.1321C17.0698 28.6664 17.0698 29.2006 17.0698 29.9689V30.3033V29.9136V25.4026L17.0708 25.4016Z" fill="#17181A"/>
<path d="M19.7958 46.4744C21.74 47.5258 23.6249 47.1753 25.3783 45.9622C29.6674 42.9947 33.9525 40.0212 38.2204 37.0236C43.0056 33.6644 43.0759 26.697 38.3169 23.3158C33.9515 20.2137 29.5178 17.206 25.1132 14.1582C23.409 12.9792 21.5813 12.8376 19.7797 13.7937C18.1679 14.6493 17.222 15.9748 17.0703 17.7744V21.7C17.0733 22.9332 17.0713 24.1674 17.0703 25.4006V30.3012C17.0703 33.8371 17.1105 37.124 17.0703 40.3797V42.3048C17.2109 44.1657 18.0956 45.5535 19.7958 46.4724V46.4744ZM25.9377 26.3877C29.9717 25.4588 33.7345 26.699 37.0395 29.2167C37.9011 29.8724 37.8499 30.3856 37.0063 31.0755C32.8046 34.511 26.4288 35.1215 21.503 32.4894L17.3635 29.6756C20.2146 28.5508 22.9842 27.0676 25.9377 26.3877Z" fill="#17181A"/>
<path d="M32.6618 30.1205C33.2071 30.2098 33.6721 29.7449 33.5827 29.1996C33.5285 28.8692 33.2623 28.6031 32.932 28.5489C32.3867 28.4595 31.9217 28.9244 32.0111 29.4697C32.0653 29.8001 32.3314 30.0662 32.6618 30.1205Z" fill="#17181A"/>
</g>
</g>
<defs>
<linearGradient id="paint0_linear_17840_98036" x1="37.5293" y1="-18.9551" x2="30" y2="60" gradientUnits="userSpaceOnUse">
<stop stop-color="white"/>
<stop offset="1" stop-color="white" stop-opacity="0.01"/>
</linearGradient>
<clipPath id="clip0_17840_98036">
<rect width="60" height="60" rx="16.5" fill="white"/>
</clipPath>
<clipPath id="clip1_17840_98036">
<rect width="42" height="37.8244" fill="white" transform="translate(9 11)"/>
</clipPath>
</defs>
</svg>
