<svg width="385" height="94" viewBox="0 0 385 94" fill="none" xmlns="http://www.w3.org/2000/svg">
<path fill-rule="evenodd" clip-rule="evenodd" d="M45.8637 9.94671C48.7883 10.9444 53.8271 11.8085 58.1098 11.8085C64.5894 11.8085 66.8845 10.2844 66.8845 8.40426C66.8845 6.52414 64.5894 5 58.1098 5C53.4358 5 47.8612 6.0292 45.1172 7.1381C42.359 6.0292 36.7555 5 32.0573 5C25.544 5 23.2371 6.52414 23.2371 8.40426C23.2371 10.2844 25.544 11.8085 32.0573 11.8085C36.2018 11.8085 41.0507 11.0076 44.0295 10.0576L43.6504 16.8082C41.0902 17.2226 39.044 18.8222 38.3834 20.887C32.7899 21.2915 27.4393 22.2147 22.9544 23.6566C20.8346 22.8027 18.6464 22.0218 16.2579 21.4351C14.9484 21.1138 13.6067 20.8808 12.1687 20.8567C10.9877 20.8406 10.1763 21.1218 9.68624 21.7565C9.09174 22.5438 8.73825 23.3713 8.47314 24.2068C7.90274 25.9983 7.62156 27.8059 7.40465 29.6135C7.12346 31.9353 6.99492 34.2651 6.93065 36.5949C6.89091 37.8836 6.86321 39.1724 6.87589 40.4611C5.65603 44.58 5 49.2965 5 54.3452C5 65.7136 8.11579 75.2294 13.9263 80.3663C19.7368 85.5031 32.3684 88.0294 45 88.0294C57.6316 88.0294 70.2632 85.5031 76.0737 80.3663C81.6737 75.3978 85 65.7136 85 54.3452C85 49.5915 84.4184 45.1323 83.3322 41.1893C83.3418 40.3699 83.3431 39.5494 83.3238 38.7238C83.2916 37.1171 83.2515 35.5023 83.1551 33.8955C83.0105 31.3729 82.7775 28.8423 82.2714 26.3357C82.0223 25.0985 81.709 23.8613 81.1225 22.6563C80.8735 22.1341 80.6003 21.6119 80.0139 21.1781C79.7327 20.9852 79.4194 20.8085 78.9775 20.7523C78.3187 20.6719 77.6519 20.6639 77.0012 20.7201C75.5471 20.8487 74.1814 21.162 72.8638 21.5396C70.7828 22.137 68.8253 22.8485 66.9395 23.6226C62.4584 22.1945 57.1231 21.281 51.5493 20.8822C50.8897 18.8277 48.858 17.2347 46.3136 16.8131L45.8637 9.94671ZM19.4842 34.5978C23.6526 30.9347 34.3474 29.0821 45 29.0821C55.6526 29.0821 66.8526 31.3557 70.5158 34.64C74.1789 37.9242 76.5789 45.6294 76.5789 54.3452C76.5789 63.061 74.1789 70.7663 70.5158 74.0505C62.1368 81.4189 27.9053 81.4189 19.4842 74.0505C15.8211 70.7663 13.4211 63.061 13.4211 54.3452C13.4211 45.6294 15.3158 38.261 19.4842 34.5978Z" fill="#FCCC04"/>
<path d="M54.6574 52.3479C56.6831 53.4542 56.6831 56.3633 54.6574 57.4697L40.046 65.4496C38.1015 66.5115 35.7294 65.1042 35.7294 62.8887L35.7294 46.9288C35.7294 44.7133 38.1015 43.306 40.046 44.368L54.6574 52.3479Z" fill="#FCCC04"/>
<circle cx="45.0573" cy="7.5861" r="1.66667" fill="#FCCC04"/>
<path d="M363.987 71.0046C363.302 71.5755 362.218 72.0893 360.733 72.546C359.249 73.0027 357.622 73.231 355.852 73.231C353.854 73.231 352.085 72.917 350.543 72.2891C349.002 71.6611 347.975 70.8048 347.461 69.7202C346.605 68.0647 345.605 65.8954 344.464 63.2124C343.379 60.4723 342.18 57.4182 340.867 54.0501C339.611 50.6249 338.327 47.1141 337.014 43.5177C335.758 39.8642 334.588 36.2678 333.503 32.7284C332.419 29.1891 331.477 25.9637 330.677 23.0523C331.363 22.3673 332.362 21.7393 333.674 21.1685C334.987 20.5405 336.415 20.2266 337.956 20.2266C339.84 20.2266 341.353 20.6262 342.494 21.4254C343.636 22.2246 344.464 23.6517 344.978 25.7068C346.747 31.758 348.517 37.5807 350.287 43.1752C352.056 48.7125 353.94 54.4211 355.938 60.301H356.366C357.565 56.5904 358.764 52.5944 359.963 48.3129C361.219 44.0315 362.446 39.6358 363.645 35.126C364.901 30.5591 366.071 26.0779 367.156 21.6823C368.012 21.2827 368.954 20.9401 369.981 20.6547C371.009 20.3693 372.122 20.2266 373.321 20.2266C375.205 20.2266 376.775 20.6547 378.03 21.511C379.343 22.3102 380 23.6517 380 25.5356C380 26.6773 379.686 28.447 379.058 30.8446C378.487 33.1851 377.688 35.9252 376.66 39.065C375.69 42.1476 374.605 45.3444 373.406 48.6554C372.265 51.9093 371.094 55.0491 369.896 58.0746C368.697 61.1002 367.555 63.7547 366.47 66.0382C365.443 68.3216 364.615 69.9771 363.987 71.0046Z" fill="#FCCC04"/>
<path d="M298.349 31.0161L298.263 20.5693H324.722C325.065 21.0831 325.379 21.7967 325.664 22.7101C325.95 23.6234 326.092 24.5939 326.092 25.6215C326.092 27.4482 325.664 28.8183 324.808 29.7317C324.009 30.5879 322.896 31.0161 321.468 31.0161H298.349ZM310.422 20.5693L310.508 31.0161H284.049C283.649 30.5023 283.306 29.7887 283.021 28.8754C282.793 27.962 282.678 26.9915 282.678 25.964C282.678 24.0801 283.078 22.7101 283.877 21.8538C284.734 20.9975 285.847 20.5693 287.217 20.5693H310.422ZM297.664 28.7041H310.765V72.375C310.194 72.5462 309.338 72.6889 308.196 72.8031C307.054 72.9744 305.884 73.06 304.685 73.06C302.116 73.06 300.29 72.6033 299.205 71.6899C298.177 70.7766 297.664 69.1781 297.664 66.8947V28.7041Z" fill="#FCCC04"/>
<path d="M260.572 64.3259C261.885 64.3259 263.169 64.2117 264.425 63.9834C265.738 63.6979 266.68 63.384 267.251 63.0414V54.821L260.058 55.5061C258.117 55.6202 256.576 56.0198 255.434 56.7049C254.292 57.3899 253.722 58.4175 253.722 59.7875C253.722 61.1576 254.264 62.2708 255.348 63.1271C256.433 63.9263 258.174 64.3259 260.572 64.3259ZM260.058 30.0742C265.995 30.0742 270.733 31.3301 274.273 33.8419C277.812 36.2966 279.582 40.1214 279.582 45.3162V64.754C279.582 66.1812 279.21 67.3514 278.468 68.2648C277.726 69.1211 276.784 69.8632 275.643 70.4912C273.93 71.5187 271.789 72.3179 269.22 72.8888C266.709 73.5167 263.826 73.8307 260.572 73.8307C254.749 73.8307 250.097 72.689 246.614 70.4055C243.189 68.1221 241.477 64.7255 241.477 60.2157C241.477 56.3338 242.675 53.3653 245.073 51.3102C247.471 49.1981 251.038 47.9136 255.777 47.4569L267.165 46.2581V45.2306C267.165 43.2896 266.395 41.891 264.853 41.0347C263.369 40.1785 261.228 39.7503 258.431 39.7503C256.262 39.7503 254.121 40.0072 252.009 40.521C249.954 41.0347 248.099 41.6342 246.443 42.3192C245.758 41.8625 245.159 41.1775 244.645 40.2641C244.188 39.2936 243.96 38.2946 243.96 37.2671C243.96 34.8695 245.273 33.1283 247.899 32.0437C249.554 31.3587 251.467 30.8734 253.636 30.588C255.862 30.2455 258.003 30.0742 260.058 30.0742Z" fill="#FCCC04"/>
<path d="M222.844 42.4046V53.1083H210.171V40.8633C210.171 39.2649 210.542 37.9234 211.284 36.8387C212.083 35.697 213.168 34.698 214.538 33.8417C216.422 32.7 218.676 31.8152 221.302 31.1872C223.985 30.5022 226.783 30.1597 229.694 30.1597C235.517 30.1597 238.428 32.1006 238.428 35.9824C238.428 36.8958 238.286 37.7521 238 38.5513C237.772 39.3505 237.486 40.0356 237.144 40.6064C236.573 40.4922 235.859 40.4066 235.003 40.3495C234.204 40.2354 233.319 40.1783 232.349 40.1783C230.636 40.1783 228.923 40.3781 227.211 40.7777C225.498 41.1773 224.043 41.7196 222.844 42.4046ZM210.171 49.8544L222.844 50.1113V72.3748C222.273 72.5461 221.474 72.6888 220.446 72.803C219.419 72.9742 218.305 73.0599 217.107 73.0599C214.709 73.0599 212.939 72.6317 211.798 71.7754C210.713 70.9191 210.171 69.3778 210.171 67.1515V49.8544Z" fill="#FCCC04"/>
<path d="M202.197 51.9097C202.197 56.3624 201.283 60.2442 199.456 63.5552C197.687 66.8091 195.175 69.3209 191.921 71.0906C188.667 72.8602 184.842 73.7451 180.447 73.7451C176.108 73.7451 172.284 72.8888 168.973 71.1762C165.719 69.4065 163.178 66.8948 161.352 63.6408C159.582 60.3299 158.697 56.4195 158.697 51.9097C158.697 47.3999 159.61 43.5465 161.437 40.3497C163.264 37.0958 165.804 34.584 169.058 32.8144C172.369 30.9876 176.165 30.0742 180.447 30.0742C184.785 30.0742 188.582 30.9876 191.836 32.8144C195.089 34.584 197.63 37.1244 199.456 40.4353C201.283 43.6893 202.197 47.514 202.197 51.9097ZM180.447 40.0928C177.764 40.0928 175.623 41.1204 174.025 43.1755C172.483 45.2306 171.713 48.142 171.713 51.9097C171.713 55.7344 172.483 58.6744 174.025 60.7295C175.566 62.7275 177.707 63.7265 180.447 63.7265C183.187 63.7265 185.328 62.6989 186.869 60.6438C188.41 58.5887 189.181 55.6773 189.181 51.9097C189.181 48.1991 188.41 45.3162 186.869 43.2611C185.328 41.1489 183.187 40.0928 180.447 40.0928Z" fill="#FCCC04"/>
<path d="M138.824 46.5149C138.824 42.6901 138.167 39.5504 136.854 37.0957C135.598 34.641 133.828 32.8143 131.545 31.6154C129.319 30.3596 126.721 29.7316 123.753 29.7316C122.725 29.7316 121.726 29.7887 120.756 29.9029C119.842 29.9599 118.9 30.0456 117.93 30.1598V62.6132C118.786 62.7845 119.757 62.9272 120.841 63.0413C121.926 63.0984 122.954 63.127 123.924 63.127C128.434 63.127 132.03 61.7284 134.713 58.9311C137.453 56.1339 138.824 51.9952 138.824 46.5149ZM152.267 46.258C152.267 52.4233 151.068 57.5325 148.671 61.5856C146.33 65.6388 143.019 68.6929 138.738 70.748C134.514 72.746 129.547 73.745 123.838 73.745C121.955 73.745 119.643 73.6023 116.902 73.3168C114.162 73.0885 111.679 72.5747 109.453 71.7755C106.484 70.6909 105 68.7785 105 66.0384V25.1076C105 23.9659 105.314 23.1096 105.942 22.5388C106.57 21.9108 107.398 21.397 108.425 20.9974C110.709 20.2553 113.163 19.7701 115.789 19.5417C118.415 19.3134 120.813 19.1992 122.982 19.1992C128.862 19.1992 133.971 20.1982 138.31 22.1962C142.705 24.1372 146.131 27.1056 148.585 31.1017C151.04 35.0977 152.267 40.1498 152.267 46.258Z" fill="#FCCC04"/>
</svg>
