<svg width="60" height="60" viewBox="0 0 60 60" fill="none" xmlns="http://www.w3.org/2000/svg">
<g clip-path="url(#clip0_17840_98036)">
<rect width="60" height="60" rx="16.5" fill="#14161A"/>
<rect width="60" height="60" fill="#F9C33B"/>
<g style="mix-blend-mode:screen" opacity="0.1">
<rect width="60" height="60" rx="11.25" fill="url(#paint0_linear_17840_98036)"/>
</g>
<g clip-path="url(#clip1_17840_98036)">
<path d="M48.7894 26.1007L36.2458 18.8591L23.7022 11.6164C20.7547 9.91472 17.0692 12.0424 17.0692 15.4458V17.7925C17.0526 17.9894 17.0448 18.1919 17.047 18.3999C17.0603 19.5063 17.0659 20.6117 17.0692 21.7181V25.4191C17.0692 26.3297 17.067 27.2392 17.0692 28.1498C17.0692 28.5669 17.0692 28.9862 17.0692 29.5151L13.4158 27.4062L9.72471 25.2753C9.40274 25.0894 9 25.3217 9 25.6935V34.2185C9 34.5903 9.40274 34.8226 9.72471 34.6367L13.6315 32.5058L17.0703 30.398V40.4001C17.0648 40.8117 17.0592 41.2222 17.0515 41.6338C17.047 41.8717 17.0537 42.1018 17.0703 42.3264V44.4165C17.0703 47.8209 20.7547 49.9475 23.7033 48.2458L36.2469 41.0042L48.7905 33.7627C51.738 32.061 51.738 27.8057 48.7905 26.104L48.7894 26.1007ZM37.0059 31.0929C32.8048 34.5283 26.4285 35.1391 21.5026 32.5069L17.3635 29.6932C20.2148 28.568 22.9841 27.0854 25.9383 26.4049C29.9723 25.4755 33.7353 26.7169 37.0402 29.2341C37.901 29.8902 37.8501 30.4036 37.007 31.0929H37.0059Z" fill="#17181A"/>
<path d="M33.5918 29.3027C33.5918 29.2861 33.5884 29.2706 33.5873 29.254C33.5862 29.2418 33.5851 29.2297 33.584 29.2164C33.584 29.212 33.5818 29.2075 33.5807 29.2031C33.5752 29.1765 33.5685 29.15 33.5608 29.1234C33.5541 29.1013 33.5464 29.0792 33.5375 29.057C33.5298 29.0382 33.5232 29.0205 33.5143 29.0028C33.5066 28.9862 33.4977 28.9707 33.4889 28.9553C33.48 28.9387 33.4701 28.9232 33.459 28.9077C33.449 28.8933 33.4402 28.8789 33.4291 28.8656C33.4147 28.8468 33.3992 28.8302 33.3838 28.8136C33.3683 28.797 33.3528 28.7816 33.3362 28.7661C33.3196 28.7506 33.3019 28.7351 33.2842 28.7207C33.2709 28.7096 33.2565 28.7008 33.2421 28.6908C33.2266 28.6809 33.2111 28.6709 33.1946 28.661C33.1791 28.6521 33.1636 28.6432 33.147 28.6355C33.1293 28.6266 33.1105 28.62 33.0917 28.6123C33.0695 28.6034 33.0485 28.5957 33.0253 28.589C32.9987 28.5813 32.9733 28.5746 32.9456 28.5691C32.9412 28.5691 32.9368 28.5669 32.9323 28.5658C32.9202 28.5636 32.908 28.5636 32.8958 28.5625C32.8792 28.5603 32.8637 28.5581 32.8471 28.5569C32.8305 28.5569 32.8139 28.5569 32.7973 28.5569C32.7807 28.5569 32.7642 28.5569 32.7476 28.5569C32.731 28.5569 32.7155 28.5603 32.6989 28.5625C32.6867 28.5636 32.6745 28.5647 32.6624 28.5658C32.6579 28.5658 32.6535 28.568 32.6491 28.5691C32.6225 28.5746 32.596 28.5813 32.5694 28.589C32.5473 28.5957 32.5252 28.6034 32.503 28.6123C32.4842 28.62 32.4665 28.6266 32.4477 28.6355C32.4311 28.6432 32.4156 28.6521 32.4001 28.661C32.3835 28.6698 32.3681 28.6798 32.3526 28.6908C32.3382 28.7008 32.3238 28.7096 32.3105 28.7207C32.2928 28.7351 32.2751 28.7506 32.2585 28.7661C32.2419 28.7816 32.2264 28.797 32.2109 28.8136C32.1954 28.8302 32.18 28.8479 32.1656 28.8656C32.1545 28.8789 32.1457 28.8933 32.1357 28.9077C32.1257 28.9232 32.1158 28.9387 32.1058 28.9553C32.097 28.9707 32.0881 28.9862 32.0804 29.0028C32.0715 29.0205 32.0649 29.0393 32.0571 29.057C32.0483 29.0792 32.0405 29.1002 32.0339 29.1234C32.0262 29.1489 32.0195 29.1754 32.014 29.2031C32.014 29.2075 32.0118 29.212 32.0107 29.2164C32.0085 29.2285 32.0085 29.2407 32.0074 29.254C32.0051 29.2706 32.0029 29.2861 32.0029 29.3027C32.0029 29.3193 32.0029 29.3359 32.0029 29.3525C32.0029 29.3691 32.0029 29.3857 32.0029 29.4023C32.0029 29.4189 32.0062 29.4343 32.0085 29.4509C32.0096 29.4631 32.0107 29.4753 32.0118 29.4875C32.0118 29.4919 32.014 29.4963 32.0151 29.5007C32.0206 29.5273 32.0273 29.5538 32.035 29.5804C32.0417 29.6025 32.0494 29.6246 32.0583 29.6468C32.066 29.6656 32.0726 29.6833 32.0815 29.7021C32.0892 29.7187 32.0981 29.7342 32.1069 29.7497C32.1158 29.7663 32.1257 29.7818 32.1368 29.7973C32.1468 29.8116 32.1556 29.826 32.1667 29.8404C32.1811 29.8581 32.1954 29.8758 32.2109 29.8924C32.2264 29.909 32.2419 29.9245 32.2585 29.94C32.2751 29.9555 32.2928 29.971 32.3105 29.9853C32.3238 29.9964 32.3382 30.0053 32.3537 30.0152C32.3692 30.0252 32.3846 30.0351 32.4001 30.0451C32.4156 30.0539 32.4311 30.0628 32.4477 30.0705C32.4654 30.0794 32.4842 30.086 32.5019 30.0938C32.5241 30.1026 32.5462 30.1104 32.5683 30.117C32.5938 30.1248 32.6203 30.1314 32.648 30.1369C32.6524 30.1369 32.6568 30.1391 32.6613 30.1402C32.6734 30.1425 32.6856 30.1425 32.6978 30.1436C32.7144 30.1458 32.7299 30.148 32.7464 30.1491C32.763 30.1491 32.7796 30.1491 32.7962 30.1491C32.8128 30.1491 32.8294 30.1491 32.846 30.1491C32.8626 30.1491 32.8781 30.1458 32.8947 30.1436C32.9069 30.1425 32.9191 30.1414 32.9312 30.1402C32.9356 30.1402 32.9401 30.138 32.9445 30.1369C32.9711 30.1314 32.9976 30.1248 33.0242 30.117C33.0463 30.1104 33.0684 30.1026 33.0905 30.0938C33.1094 30.086 33.1271 30.0794 33.1448 30.0705C33.1614 30.0628 33.1768 30.0539 33.1923 30.0451C33.2089 30.0362 33.2244 30.0263 33.2388 30.0152C33.2532 30.0053 33.2676 29.9964 33.282 29.9853C33.2997 29.971 33.3174 29.9566 33.334 29.9411C33.3506 29.9256 33.3672 29.9101 33.3815 29.8935C33.397 29.8769 33.4125 29.8592 33.4258 29.8415C33.4369 29.8282 33.4457 29.8138 33.4557 29.7984C33.4656 29.7829 33.4756 29.7674 33.4855 29.7508C33.4944 29.7353 33.5032 29.7198 33.511 29.7032C33.5198 29.6855 33.5265 29.6667 33.5342 29.6479C33.5431 29.6258 33.5508 29.6047 33.5575 29.5815C33.5652 29.5549 33.5718 29.5295 33.5774 29.5018C33.5774 29.4974 33.5796 29.493 33.5807 29.4886C33.5829 29.4764 33.5829 29.4642 33.584 29.452C33.5862 29.4354 33.5884 29.42 33.5895 29.4034C33.5895 29.3868 33.5895 29.3702 33.5895 29.3536C33.5895 29.337 33.5895 29.3204 33.5895 29.3038L33.5918 29.3027Z" fill="#17181A"/>
</g>
</g>
<defs>
<linearGradient id="paint0_linear_17840_98036" x1="37.5293" y1="-18.9551" x2="30" y2="60" gradientUnits="userSpaceOnUse">
<stop stop-color="white"/>
<stop offset="1" stop-color="white" stop-opacity="0.01"/>
</linearGradient>
<clipPath id="clip0_17840_98036">
<rect width="60" height="60" rx="16.5" fill="white"/>
</clipPath>
<clipPath id="clip1_17840_98036">
<rect width="42" height="37.8243" fill="white" transform="translate(9 11.0178)"/>
</clipPath>
</defs>
</svg>
