<svg width="1024" height="1024" viewBox="0 0 1024 1024" fill="none" xmlns="http://www.w3.org/2000/svg">
<g clip-path="url(#clip0_22689_275759)">
<rect width="1024" height="1024" fill="url(#paint0_linear_22689_275759)"/>
<g style="mix-blend-mode:screen" opacity="0.2">
<rect width="1024" height="1024" fill="url(#paint1_linear_22689_275759)"/>
</g>
<path d="M191.48 476.68C192.227 476.68 196.8 477.613 205.2 479.48C213.6 481.347 224.053 482.653 236.56 483.4C236.56 485.453 236.187 487.227 235.44 488.72L226.48 487.6C225.733 492.827 224.707 497.587 223.4 501.88H223.12C222.933 503 222.747 504.12 222.56 505.24H287.52C295.92 502.813 301.893 496.28 305.44 485.64H308.52C309.453 487.88 310.573 490.12 311.88 492.36C312.813 490.493 314.213 487.32 316.08 482.84C317.76 478.92 318.973 475.84 319.72 473.6H158.72V476.68C158.72 488.44 154.333 501.227 145.56 515.04H142.48C136.507 503.28 129.507 495.253 121.48 490.96C121.48 490.213 121.107 489.467 120.36 488.72C138.653 478.64 148.547 466.227 150.04 451.48H153.4C155.64 457.08 157.133 462.587 157.88 468H180.28C178.04 454.187 171.227 446.16 159.84 443.92V441.68C171.6 439.627 178.507 432.347 180.56 419.84H182.8C184.293 431.6 191.2 438.88 203.52 441.68V443.92C193.627 445.413 186.813 453.44 183.08 468H272.96C280.613 445.04 284.813 427.587 285.56 415.64C286.307 415.64 290.693 417.507 298.72 421.24C306.747 424.787 316.64 428.333 328.4 431.88C328.4 433.373 328.027 434.867 327.28 436.36C326.533 436.36 324.853 435.987 322.24 435.24L318.6 434.12C309.827 444.76 297.133 456.053 280.52 468H320.56C325.787 462.4 329.8 456.893 332.6 451.48H334.84C342.12 460.253 352.293 469.4 365.36 478.92C364.8 479.667 364.52 480.787 364.52 482.28C357.8 483.027 350.8 483.773 343.52 484.52H343.24C333.72 489 324.293 492.827 314.96 496C319.44 500.853 325.693 505.053 333.72 508.6C332.973 509.907 332.6 510.933 332.6 511.68H220.6C218.36 520.267 215.84 528.293 213.04 535.76H282.48C286.96 531.093 290.6 526.707 293.4 522.6H295.36C304.133 531.373 314.773 538.653 327.28 544.44V548.92C322.8 550.413 318.227 551.813 313.56 553.12C304.973 566.747 295.827 578.227 286.12 587.56C305.347 593.347 328.493 596.52 355.56 597.08C355.56 599.32 355.187 601.467 354.44 603.52C347.907 605.76 342.773 609.027 339.04 613.32C335.493 617.8 332.32 624.8 329.52 634.32C297.973 628.347 274.08 619.947 257.84 609.12C247.947 614.907 236.933 619.76 224.8 623.68C207.813 629.28 186.16 633.2 159.84 635.44C159.093 633.947 158.72 632.453 158.72 630.96C181.307 622.933 199.507 614.907 213.32 606.88C222.467 601.653 230.68 596.427 237.96 591.2C227.32 578.507 218.733 562.267 212.2 542.48H210.52C204.547 557.6 197.547 570.293 189.52 580.56C174.773 601.093 152.84 617.52 123.72 629.84C122.973 629.093 122.227 627.973 121.48 626.48C141.267 608.373 156.2 590.08 166.28 571.6C175.613 554.613 182.893 534.64 188.12 511.68H154.52V505.24H189.52C190.827 495.72 191.48 486.2 191.48 476.68ZM319.44 408.92C319.067 408.92 318.787 409.013 318.6 409.2C317.107 409.387 315.613 409.667 314.12 410.04V409.76C304.413 410.88 293.12 411.907 280.24 412.84C264.933 413.96 250.373 414.52 236.56 414.52C209.493 415.827 177.76 416.48 141.36 416.48C140.613 415.173 140.24 413.4 140.24 411.16C178.88 406.12 213.133 400.987 243 395.76C272.12 390.72 294.707 385.307 310.76 379.52L319.44 388.76C325.413 394.92 333.067 401.64 342.4 408.92C341.093 409.667 340.067 410.413 339.32 411.16C338.573 411.16 337.08 410.413 334.84 408.92L331.48 406.68C327.747 407.24 323.733 407.987 319.44 408.92ZM217.24 542.48C228.067 555.547 241.133 566.373 256.44 574.96C264.653 565.813 272.4 554.987 279.68 542.48H217.24ZM239.64 415.64C240.387 427.213 247.013 434.867 259.52 438.6V439.44C250 441.68 243.373 450.08 239.64 464.64H237.4C235.347 450.08 228.44 441.68 216.68 439.44V438.6C228.44 435.613 235.347 427.96 237.4 415.64H239.64ZM283.6 542.48H282.76C283.32 542.667 283.973 542.947 284.72 543.32C284.347 542.947 283.973 542.667 283.6 542.48ZM462.52 632.08L435.36 634.32V575.24H389.16V568.52H435.36V531.56H427.52V546.68L400.36 550.04V453.72L392.52 450.64L393.64 447.28L427.52 453.72H435.36V423.2H391.4V416.48H435.36V387.08L426.4 384.84L428.64 381.48L462.52 387.08V416.48H475.96C481.933 413.867 486.6 408.827 489.96 401.36H493.32C495.373 407.893 501.907 414.053 512.92 419.84L511.8 423.2H462.52V453.72H473.44C475.68 451.293 478.947 446.907 483.24 440.56H484.36C492.387 446.533 500.413 451.293 508.44 454.84V457.08C503.4 460.813 499.76 463.24 497.52 464.36V541.36L470.36 544.44V531.56H462.52V568.52H475.68C483.52 566.28 489.68 560.493 494.16 551.16H497.52C499.76 558.44 506.667 565.347 518.24 571.88L517.4 575.24H462.52V632.08ZM499.76 522.6V517.28H533.64V476.68H505.36V471.36H533.64V431.88H498.64V426.56H533.64V396.88C533.64 392.027 535.133 388.48 538.12 386.24C541.107 383.813 544.747 382.6 549.04 382.6C551.093 382.6 552.773 383.253 554.08 384.56L557.72 388.2C560.147 391.747 562.293 393.52 564.16 393.52C565.467 393.52 566.493 393.053 567.24 392.12C567.987 391.187 568.453 390.067 568.64 388.76C569.013 387.267 569.013 385.68 568.64 384C568.453 382.32 568.08 380.827 567.52 379.52L570.88 378.4C572.56 380.453 573.867 383.067 574.8 386.24C575.733 389.227 576.2 392.027 576.2 394.64C576.2 399.493 574.893 403.88 572.28 407.8C569.853 411.533 566.493 413.4 562.2 413.4C557.347 413.4 554.08 411.907 552.4 408.92C551.28 407.8 550.16 406.68 549.04 405.56C547.92 404.253 546.8 403.6 545.68 403.6C543.44 403.6 541.947 404.347 541.2 405.84C540.64 407.333 541.387 409.48 543.44 412.28C545.12 414.893 547.08 417.133 549.32 419C551.747 420.68 554.08 422.08 556.32 423.2C558.747 424.507 561.36 425.627 564.16 426.56H578.44C587.773 424.32 595.053 417.693 600.28 406.68H603.64C606.627 415.453 614.28 422.733 626.6 428.52L625.48 431.88H564.16V471.36H576.2C584.04 468.933 589.92 462.307 593.84 451.48H597.2C599.253 460.253 606.533 467.627 619.04 473.6L617.92 476.68H564.16V517.28H591.6C593.84 517.28 598.6 512.147 605.88 501.88H608.12C616.147 508.413 624.827 513.547 634.16 517.28V519.52C626.88 524.56 622.587 527.453 621.28 528.2H621C621 531.56 620.907 536.32 620.72 542.48C620.347 555.547 619.04 567.867 616.8 579.44C615.307 588.96 608.027 597.733 594.96 605.76H592.72C587.68 595.68 578.533 588.027 565.28 582.8V579.44C582.08 580.187 590.48 575.147 590.48 564.32C591.227 555.547 591.787 546.213 592.16 536.32C592.347 529.413 592.44 524.84 592.44 522.6H564.16V612.48L575.36 620.04L557.72 627.6L549.04 649.44L539.24 627.6L521.6 620.04L533.64 613.6V522.6H499.76ZM427.52 523.72H470.36V495.44H427.52V523.72ZM427.52 488.72H470.36V461.56H427.52V488.72ZM803.56 620.04L775 623.4V608H734.68V627.6L707.24 629.84V541.36L730.48 547.8H741.12V512.8H711.16C709.667 523.44 707.613 533.333 705 542.48C697.72 569.36 684.653 594.093 665.8 616.68L662.44 614.44C671.213 587.56 677.373 561.52 680.92 536.32C684.653 511.12 686.52 482.187 686.52 449.52V407.8L676.72 402.48L680.08 396.88L716.2 407.8H775.84C778.08 405 781.813 399.867 787.04 392.4H788.16C795.44 399.12 804.213 405 814.48 410.04V411.16C807.947 416.2 803.933 418.72 802.44 418.72V464.64L774.16 469.12V459.32H715.92C715.36 476.307 714.147 491.987 712.28 506.36H741.12V475.56L730.2 473.6L732.44 466.88L768.56 473.6V506.36H781.72L789.28 501.88L797.96 488.72L806.92 500.76L820.08 510.56L806.92 518.4L797.96 532.4L789.28 519.52L778.36 512.8H768.56V547.8H778.08C780.507 544.627 783.867 539.493 788.16 532.4H790.4C796.933 539.867 804.96 546.12 814.48 551.16V553.4C809.44 557.133 805.8 559.56 803.56 560.68V620.04ZM859.28 381.48L898.76 394.64V606.88C898.76 611.92 897.827 616.4 895.96 620.32C894.093 624.427 888.773 629.84 880 636.56H878.04C867.027 624.053 855.36 614.907 843.04 609.12V604.64C853.867 603.893 860.68 602.307 863.48 599.88C866.467 597.267 867.96 593.44 867.96 588.4V391.56C867.4 391.56 865.44 391 862.08 389.88C858.72 388.76 857.04 387.827 857.04 387.08C857.787 385.587 858.533 383.72 859.28 381.48ZM849.48 569.64L822.04 573V419.84L849.48 425.44V569.64ZM716.2 442.8V451.48H774.16V413.4H716.2V442.8ZM734.68 600.44H775V554.52H734.68V600.44Z" fill="white"/>
</g>
<defs>
<linearGradient id="paint0_linear_22689_275759" x1="512" y1="0" x2="512" y2="1024" gradientUnits="userSpaceOnUse">
<stop stop-color="#FF6593"/>
<stop offset="1" stop-color="#FA487D"/>
</linearGradient>
<linearGradient id="paint1_linear_22689_275759" x1="643.5" y1="-47.5" x2="512" y2="1024" gradientUnits="userSpaceOnUse">
<stop offset="0.0583092" stop-color="white"/>
<stop offset="1" stop-color="white" stop-opacity="0.01"/>
</linearGradient>
<clipPath id="clip0_22689_275759">
<rect width="1024" height="1024" fill="white"/>
</clipPath>
</defs>
</svg>
