<svg width="115" height="36" viewBox="0 0 115 36" fill="none" xmlns="http://www.w3.org/2000/svg">
<path fill-rule="evenodd" clip-rule="evenodd" d="M1.36935 10.4222C0.883232 15.5738 0.875695 20.7255 1.35427 25.8771L1.35804 25.8808C1.71226 29.721 4.73823 32.7472 8.57816 33.1014C13.7257 33.5763 18.877 33.5725 24.0283 33.0863C27.7589 32.7321 30.7322 29.7587 31.0864 26.0278C31.5763 20.8272 31.5763 15.6266 31.0864 10.426C30.7322 6.69508 27.7589 3.72168 24.0283 3.36744C18.828 2.87752 13.6277 2.87752 8.42742 3.36744C4.69678 3.71791 1.7198 6.69508 1.36935 10.4222ZM12.2141 26.642C12.1981 26.6436 12.1823 26.6452 12.1667 26.6468V26.6393C12.0951 26.643 12.0235 26.6468 11.9519 26.643C11.7522 26.6242 11.5525 26.6053 11.3603 26.5564C11.1754 26.5083 10.9868 26.4203 10.8196 26.3422L10.8101 26.3378C10.7461 26.3076 10.6895 26.2775 10.633 26.2398C10.4672 26.1305 10.3089 26.0137 10.1657 25.8742C10.0551 25.7668 9.95777 25.6328 9.867 25.508C9.84953 25.4839 9.8323 25.4602 9.81527 25.4371C9.77005 25.3768 9.7286 25.3127 9.69469 25.2411C9.69044 25.232 9.68619 25.2229 9.68193 25.2138C9.60675 25.0529 9.52982 24.8883 9.47989 24.7135C9.37214 24.3364 9.37633 23.9272 9.38039 23.531C9.38115 23.456 9.38192 23.3816 9.38192 23.3079V12.5373C9.38192 12.3187 9.41583 12.0926 9.45728 11.8778C9.48948 11.7103 9.56571 11.5429 9.63659 11.3872C9.64865 11.3607 9.66056 11.3345 9.67208 11.3087C9.69845 11.2484 9.7286 11.1919 9.76252 11.1354C9.86803 10.9696 9.99238 10.8075 10.128 10.6643C10.2266 10.5568 10.3536 10.4635 10.4714 10.3769C10.5022 10.3542 10.5325 10.332 10.5614 10.3101C10.7724 10.1518 11.0287 10.0538 11.2736 9.9709C11.43 9.91773 11.6097 9.8983 11.7762 9.88031C11.8103 9.87662 11.8439 9.87299 11.8765 9.86915C11.9406 9.85784 12.0084 9.85784 12.0725 9.85784H12.0725C12.536 9.87291 12.9656 9.98974 13.3688 10.2196C13.5726 10.3353 13.7744 10.453 13.9771 10.5712C14.0517 10.6147 14.1265 10.6584 14.2016 10.702C14.5125 10.881 14.8235 11.061 15.1344 11.241C15.4452 11.4209 15.7561 11.6008 16.0669 11.7798C16.4626 12.0078 16.8573 12.2358 17.2521 12.4638C17.6468 12.6918 18.0415 12.9198 18.4372 13.1478C19.2173 13.6 20.0011 14.0523 20.7849 14.5045C21.3872 14.8509 21.9858 15.1972 22.5844 15.5436L22.5861 15.5446C22.6935 15.6068 22.8 15.668 22.9064 15.7293C23.0129 15.7905 23.1194 15.8517 23.2268 15.9139C23.2569 15.929 23.2833 15.9441 23.3097 15.9629C23.3247 15.9723 23.3389 15.9818 23.353 15.9912C23.3671 16.0006 23.3813 16.01 23.3963 16.0194C23.5138 16.0978 23.6228 16.1874 23.7307 16.2761C23.7474 16.2898 23.764 16.3035 23.7807 16.3172C23.8372 16.3662 23.8862 16.4151 23.9314 16.4717C23.9433 16.4862 23.9552 16.5008 23.9672 16.5154C24.0732 16.6448 24.1822 16.7779 24.2668 16.9201C24.3575 17.0771 24.4224 17.247 24.4853 17.4119C24.4904 17.4252 24.4954 17.4383 24.5005 17.4515C24.5231 17.5118 24.5419 17.5721 24.5532 17.6324C24.5909 17.8246 24.621 18.0206 24.6286 18.2165C24.6323 18.2768 24.6286 18.3409 24.621 18.4012C24.6196 18.4152 24.6182 18.4294 24.6167 18.4438C24.5991 18.6183 24.5793 18.8147 24.5306 18.9853C24.3346 19.6637 23.8824 20.2252 23.272 20.5756L22.9215 20.7791C22.6615 20.928 22.4024 21.0778 22.1434 21.2276C21.8843 21.3774 21.6252 21.5272 21.3652 21.6761L19.1155 22.9762C18.3091 23.4398 17.4989 23.9071 16.6925 24.3744C16.1901 24.6669 15.6858 24.9575 15.1824 25.2475C14.9985 25.3535 14.8147 25.4593 14.6312 25.5652C14.4371 25.6764 14.2431 25.7885 14.049 25.9006C13.8549 26.0127 13.6609 26.1249 13.4668 26.236C13.4517 26.2455 13.4366 26.2539 13.4216 26.2624C13.4065 26.2709 13.3914 26.2794 13.3763 26.2888C13.3575 26.3001 13.3387 26.3114 13.3161 26.3227C13.1389 26.4132 12.9543 26.4961 12.7621 26.5526C12.5896 26.6044 12.3886 26.6245 12.2141 26.642ZM12.3928 22.8971V22.9046V22.9235C12.3928 23.127 12.6114 23.2551 12.7885 23.1533C12.8751 23.1081 12.958 23.0592 13.0409 23.0102L13.041 23.0101C13.2312 22.9009 13.4215 22.7907 13.6118 22.6804C13.8021 22.5702 13.9924 22.4599 14.1828 22.3506C14.4108 22.2187 14.6378 22.0878 14.8648 21.9568C15.0919 21.8259 15.3189 21.6949 15.5469 21.563C15.7899 21.4217 16.033 21.2813 16.276 21.141C16.5191 21.0006 16.7622 20.8602 17.0052 20.7188C17.2464 20.5794 17.4885 20.44 17.7306 20.3005C17.9728 20.1611 18.2149 20.0217 18.456 19.8822C18.7761 19.6946 19.0982 19.509 19.4194 19.3239C19.5368 19.2562 19.6541 19.1886 19.7712 19.121C20.1329 18.9137 20.4908 18.7065 20.8488 18.4992L20.8489 18.4992C20.8546 18.4954 20.8593 18.4926 20.864 18.4897C20.8687 18.4869 20.8734 18.4841 20.8791 18.4803C21.0562 18.3786 21.0562 18.1261 20.8791 18.0243C20.7736 17.9603 20.6681 17.9 20.5626 17.8397L20.5625 17.8397C20.1822 17.6212 19.798 17.399 19.4139 17.1768L19.4132 17.1764C19.1871 17.0464 18.96 16.9154 18.733 16.7844C18.506 16.6535 18.2789 16.5225 18.0528 16.3925L16.5983 15.5521C16.359 15.4146 16.1197 15.2761 15.8804 15.1376C15.6411 14.9991 15.4018 14.8606 15.1625 14.7231C14.944 14.5968 14.7263 14.4715 14.5087 14.3462C14.2911 14.2209 14.0735 14.0956 13.8549 13.9693C13.5007 13.7621 13.1465 13.5586 12.7923 13.3551H12.7885C12.6114 13.2533 12.3928 13.3814 12.3928 13.585V22.8971Z" fill="#FAC33D"/>
<path d="M42.0388 23.2348C42.2152 23.2473 42.2849 23.3466 42.2439 23.5246C42.1741 23.7729 42.0921 24.013 41.9978 24.2489C41.9034 24.4849 41.7927 24.7042 41.6696 24.9112C41.7927 24.965 41.9075 25.0023 42.0183 25.023C42.129 25.0436 42.2521 25.0685 42.3874 25.0933L42.613 22.8996H39.6187C39.4423 22.8996 39.3111 22.8582 39.2291 22.7754C39.147 22.6926 39.1183 22.5477 39.147 22.3408L39.6187 18.9674C39.6474 18.8142 39.6926 18.719 39.7623 18.6777C39.832 18.6363 39.9346 18.6156 40.0699 18.6156H47.3506C47.7485 18.6156 48.0684 18.6445 48.3145 18.6983C48.5606 18.7522 48.7493 18.8432 48.8806 18.9674C49.0118 19.0916 49.0939 19.2571 49.1267 19.4641C49.1595 19.671 49.1636 19.9277 49.139 20.2298L48.8929 22.3408C48.8642 22.5602 48.8067 22.7092 48.7206 22.7878C48.6345 22.8665 48.4786 22.8996 48.2612 22.8996H45.595L45.2669 26.8111C45.2546 27.1546 45.1315 27.3616 44.8977 27.4319C44.6639 27.5147 44.3727 27.5685 44.0158 27.5975C43.659 27.6265 43.2857 27.6306 42.8878 27.6182C42.49 27.6058 42.1003 27.5685 41.7188 27.5023C41.3374 27.4402 41.0133 27.3533 40.7549 27.2457C40.5621 27.1629 40.4883 27.0056 40.5293 26.7697C40.558 26.5751 40.5991 26.3765 40.6524 26.1695C40.3365 26.4468 39.9838 26.6745 39.5859 26.8607C39.188 27.047 38.7573 27.1877 38.2938 27.2871C38.1831 27.316 38.1011 27.2995 38.0395 27.2457C37.978 27.1919 37.9534 27.1008 37.9698 26.9766C37.9821 26.8525 38.0026 26.7076 38.0313 26.542C38.06 26.3765 38.0847 26.2026 38.1134 26.0246C38.1421 25.8466 38.1667 25.6769 38.1954 25.5197C38.2241 25.3624 38.2487 25.2216 38.2774 25.0933C38.2897 24.9278 38.3595 24.8119 38.4825 24.7415C38.823 24.5635 39.0814 24.3772 39.2537 24.1827C39.4259 23.9882 39.5941 23.7274 39.7541 23.3963C39.7951 23.2845 39.8976 23.2307 40.0617 23.2307H42.0511L42.0388 23.2348ZM40.5006 9.69986C40.5293 9.57569 40.5744 9.47221 40.6442 9.38942C40.7139 9.30664 40.8205 9.26525 40.9723 9.26525H48.253C49.0446 9.26525 49.582 9.40184 49.8609 9.67916C50.1398 9.95649 50.2547 10.4656 50.2013 11.2106L49.7296 15.1842C49.7173 15.3498 49.664 15.4698 49.5738 15.5485C49.4835 15.623 49.3646 15.6602 49.2128 15.6602H46.0955C46.1898 15.772 46.2718 15.9086 46.3416 16.0741H49.8896C50.0004 16.0741 50.0783 16.1072 50.1275 16.1776C50.1767 16.248 50.1849 16.3308 50.1603 16.426C50.1316 16.6205 50.0906 16.8606 50.0373 17.1503C49.9839 17.4401 49.9224 17.7091 49.8527 17.9574C49.8117 18.152 49.6804 18.2472 49.463 18.2472H40.2955C39.7623 18.2472 39.3521 18.1065 39.065 17.825C38.7779 17.5435 38.6138 17.0468 38.5728 16.3432C38.5605 16.1652 38.6343 16.0741 38.7984 16.0741H43.0232C43.0929 15.9086 43.175 15.772 43.2693 15.6602H40.2955C39.9551 15.6602 39.8033 15.4864 39.8443 15.1428L40.5006 9.69986ZM42.3464 20.3581L42.2439 21.0618H46.038L46.1201 20.3581H42.3464ZM46.8994 13.3009H43.0232L42.9617 13.8804H46.8584L46.8994 13.3009ZM43.1873 11.8108H47.043L47.1045 11.3348H43.2488L43.1873 11.8108ZM47.2275 23.4418C47.5967 23.4418 47.9248 23.5536 48.212 23.7729C48.4991 23.9923 48.6837 24.2779 48.7657 24.6215C49.2989 24.4145 49.783 24.1993 50.2219 23.9799C50.6607 23.7605 51.0545 23.5039 51.4114 23.2142C51.7682 22.9244 52.0923 22.5767 52.3876 22.1711C52.6829 21.7655 52.9536 21.2646 53.1957 20.6727C53.249 20.5361 53.3679 20.4658 53.5443 20.4658H55.9233C56.0464 20.4658 56.1325 20.4989 56.1777 20.5692C56.2269 20.6396 56.2351 20.7224 56.2105 20.8176C55.7059 22.6678 54.7789 24.1662 53.4295 25.321C52.08 26.4758 50.349 27.2498 48.2325 27.6472C48.0807 27.6761 47.9618 27.6472 47.8715 27.5644C47.7813 27.4816 47.7567 27.3491 47.8018 27.1712L48.0069 26.3226C47.7608 26.4592 47.5024 26.5296 47.2275 26.5296C46.7887 26.5296 46.4195 26.3806 46.1201 26.0826C45.8206 25.7846 45.6689 25.4244 45.6689 24.9981C45.6689 24.5718 45.8206 24.1868 46.1201 23.893C46.4195 23.595 46.7887 23.4459 47.2275 23.4459V23.4418ZM56.272 14.5427C56.354 14.5427 56.4238 14.5716 56.4771 14.6254C56.5304 14.6792 56.5468 14.762 56.5181 14.8738C56.3007 15.743 55.9726 16.5419 55.5337 17.2745C55.0948 18.0071 54.578 18.6611 53.9873 19.2406C53.3925 19.8201 52.7321 20.3126 52.0061 20.7224C51.2801 21.128 50.5295 21.4426 49.7501 21.662C49.6271 21.6909 49.5245 21.6744 49.4425 21.6206C49.3605 21.5668 49.3318 21.4633 49.3605 21.3101C49.4015 20.9914 49.463 20.6396 49.5451 20.2547C49.6271 19.8697 49.7009 19.5096 49.7707 19.1785C49.824 18.9591 49.9265 18.8142 50.0783 18.7439C50.5582 18.4831 50.9684 18.2348 51.3211 17.9988C51.6698 17.7629 51.9815 17.5021 52.2522 17.2124C52.523 16.9227 52.7773 16.5832 53.0029 16.1983C53.2285 15.8134 53.4582 15.3291 53.6879 14.7496C53.7412 14.613 53.8601 14.5427 54.0365 14.5427H56.272ZM56.3335 9.0376C56.5263 9.0376 56.6083 9.1328 56.5796 9.32734C56.4443 10.1427 56.1818 10.9043 55.7921 11.6163C55.4024 12.3282 54.9266 12.9698 54.3688 13.541C53.8068 14.1122 53.1833 14.6089 52.4901 15.0228C51.801 15.4367 51.0873 15.7554 50.349 15.9748C50.226 16.0038 50.1234 15.9872 50.0414 15.9251C49.9593 15.863 49.9306 15.7554 49.9593 15.6064C50.0004 15.2877 50.0496 14.9483 50.1152 14.5799C50.1767 14.2157 50.2424 13.8597 50.308 13.512C50.3613 13.3051 50.4516 13.1685 50.5746 13.0981C51.0258 12.7959 51.4114 12.5186 51.7354 12.2703C52.0554 12.0219 52.3343 11.757 52.564 11.4756C52.7978 11.1941 52.9988 10.8754 53.171 10.5235C53.3433 10.1717 53.4951 9.74125 53.6304 9.23214C53.6715 9.10796 53.7822 9.04588 53.9586 9.04588H56.3376L56.3335 9.0376Z" fill="#FAC33D"/>
<path d="M64.9741 21.3741C64.7874 21.5053 64.6484 21.4815 64.5571 21.2946C64.4777 21.1235 64.3982 20.9446 64.3188 20.7576C64.2394 20.5707 64.148 20.3878 64.0408 20.2008L63.6039 27.3399C63.5642 27.5507 63.4371 27.6581 63.2267 27.6581H60.8835C60.6174 27.6581 60.4982 27.5388 60.526 27.3001L61.0622 21.5133C60.7326 21.74 60.395 21.9389 60.0495 22.1099C59.704 22.2809 59.3545 22.4201 58.997 22.5275C58.8898 22.5553 58.7945 22.5394 58.7111 22.4877C58.6237 22.436 58.588 22.3366 58.5999 22.1894C58.6118 22.0025 58.6396 21.7997 58.6793 21.573C58.719 21.3463 58.7627 21.1235 58.8104 20.8968C58.858 20.6701 58.9017 20.4554 58.9494 20.2525C58.997 20.0457 59.0367 19.8628 59.0804 19.7037C59.1082 19.6361 59.144 19.5764 59.1877 19.5247C59.2353 19.473 59.279 19.4332 59.3187 19.4054C60.2202 18.8605 60.955 18.256 61.5229 17.5838C62.0908 16.9156 62.5078 16.1162 62.7739 15.1856H61.2846C60.7961 15.1856 60.3751 14.9867 60.0256 14.589C59.6762 14.1913 59.4776 13.6265 59.4379 12.8987C59.4379 12.7515 59.4895 12.6799 59.5967 12.6799H64.6802C65.3951 12.6799 65.8439 12.8549 66.0305 13.2089C66.2172 13.5589 66.2211 14.0202 66.0504 14.589C65.7446 15.5554 65.3037 16.5259 64.7199 17.4923C65.0376 17.7827 65.3236 18.081 65.5817 18.3872C65.8399 18.6935 66.0623 18.9758 66.245 19.2423L67.2378 10.3731C67.2656 10.2021 67.3173 10.0947 67.3967 10.055C67.4761 10.0152 67.5953 9.9953 67.7541 9.9953H74.1879C75.0736 9.9953 75.6613 10.1743 75.9433 10.5322C76.2293 10.8902 76.3246 11.5066 76.2332 12.3816L75.5978 20.9525C75.57 21.1514 75.4667 21.2508 75.2801 21.2508H73.0163C72.79 21.2508 72.6907 21.1434 72.7185 20.9326L73.4333 13.1373C73.4731 12.847 73.3658 12.6998 73.1156 12.6998H69.7994L68.747 21.0321C68.7073 21.219 68.5881 21.3105 68.3896 21.3105H66.2847C66.098 21.3105 66.0186 21.1991 66.0464 20.9724L66.0861 20.515C65.8995 20.6741 65.7168 20.8252 65.5301 20.9724C65.3434 21.1196 65.1608 21.2508 64.9741 21.3701V21.3741ZM63.9614 8.6868C64.4658 8.6868 64.8907 8.85782 65.2402 9.20384C65.5897 9.54985 65.7684 9.97144 65.7684 10.4765C65.7684 10.9816 65.5937 11.4072 65.2402 11.7572C64.8907 12.1072 64.4618 12.2862 63.9614 12.2862C63.461 12.2862 63.0321 12.1112 62.6826 11.7572C62.3331 11.4072 62.1544 10.9777 62.1544 10.4765C62.1544 9.97541 62.3291 9.54985 62.6826 9.20384C63.0321 8.85782 63.461 8.6868 63.9614 8.6868ZM70.1569 13.5191C70.1847 13.3322 70.2879 13.2407 70.4746 13.2407H72.6192C72.8456 13.2407 72.9449 13.3401 72.9171 13.539C72.786 15.0623 72.651 16.4225 72.5199 17.6156C72.3888 18.8088 72.1903 19.8826 71.9242 20.8372C71.8845 20.9843 71.8448 21.1196 71.805 21.2468C71.7653 21.3741 71.7177 21.4934 71.666 21.6127H73.3738C73.5723 21.6127 73.6637 21.7122 73.6518 21.911L73.4135 24.3968C73.759 24.4246 74.2118 24.357 74.7717 24.1979C75.3317 24.0388 75.8798 23.8201 76.408 23.5417C76.4755 23.5019 76.543 23.5019 76.6185 23.5417C76.69 23.5815 76.7297 23.653 76.7297 23.7604C76.7297 23.9195 76.7178 24.1025 76.6979 24.3093C76.678 24.5161 76.6502 24.7269 76.6185 24.9456C76.5867 25.1644 76.5549 25.3712 76.5311 25.5621C76.5033 25.753 76.4795 25.9161 76.4517 26.0513C76.4239 26.1587 76.3961 26.2382 76.3603 26.2899C76.3286 26.3416 76.265 26.4013 76.1737 26.4689C75.9473 26.6161 75.6137 26.7394 75.1689 26.8467C74.7241 26.9541 74.2435 27.0297 73.7193 27.0734C73.1951 27.1212 72.6748 27.1331 72.1506 27.1132C71.6263 27.0933 71.1696 27.0297 70.7725 26.9223C70.4945 26.8428 70.3753 26.6638 70.415 26.3854L70.7129 23.661C70.0775 24.6553 69.2752 25.4627 68.2982 26.0871C67.3252 26.7115 66.1616 27.1888 64.8152 27.5189C64.4459 27.6104 64.291 27.4871 64.3585 27.1411C64.426 26.795 64.4936 26.4371 64.569 26.0672C64.6405 25.6973 64.7318 25.2996 64.8351 24.874C64.8748 24.6871 64.9662 24.5638 65.1131 24.4962C65.6294 24.2456 66.0941 24.003 66.5111 23.7684C66.9281 23.5377 67.2974 23.2832 67.6231 23.0048C67.9487 22.7264 68.2307 22.4122 68.465 22.0582C68.7033 21.7082 68.9019 21.2946 69.0608 20.8173C69.3268 20.0338 69.5373 19.0633 69.6962 17.902C69.8551 16.7406 70.006 15.281 70.1529 13.5191H70.1569Z" fill="#FAC33D"/>
<path d="M94.1842 10.0585C94.3587 10.0585 94.4199 10.1508 94.3728 10.3353L93.4063 13.4723C93.3592 13.6568 93.2413 13.7491 93.0527 13.7491H88.7625L87.8196 27.3813C87.7866 27.5658 87.6687 27.6581 87.466 27.6581H83.6472C83.4445 27.6581 83.3549 27.5428 83.388 27.3121L84.4016 13.7491H81.2193C80.8091 13.7491 80.4555 13.6568 80.1491 13.4723C79.8426 13.2878 79.5833 13.0433 79.3712 12.7342C79.159 12.4251 79.0034 12.0699 78.8997 11.6639C78.796 11.258 78.7441 10.8289 78.7441 10.3814C78.7441 10.1646 78.8479 10.0585 79.0506 10.0585H94.1842Z" fill="#FAC33D"/>
<path d="M101.091 27.6535C100.893 27.6535 100.76 27.552 100.7 27.3537L96.426 10.4966C96.3479 10.2061 96.449 10.0585 96.7247 10.0585H100.631C100.939 10.0585 101.123 10.2061 101.183 10.4966L103.802 23.2029H103.848L108.972 10.4275C109.018 10.3029 109.078 10.2107 109.147 10.1507C109.216 10.0908 109.326 10.0585 109.482 10.0585H113.641C113.977 10.0585 114.078 10.2291 113.94 10.5658L107.322 24.9785C107.06 25.532 106.803 25.9839 106.541 26.3391C106.279 26.6942 105.994 26.9663 105.677 27.16C105.365 27.3537 105.011 27.4829 104.62 27.552C104.229 27.6212 103.774 27.6581 103.255 27.6581H101.095L101.091 27.6535Z" fill="#FAC33D"/>
</svg>
