<svg width="57" height="57" viewBox="0 0 57 57" fill="none" xmlns="http://www.w3.org/2000/svg">
<path d="M9.67436 48.0506C5.98821 39.5897 9.85891 29.7426 18.3198 26.0565L37.5647 17.6721C43.4873 15.0918 50.3803 17.8013 52.9606 23.7239C55.5409 29.6465 52.8314 36.5395 46.9088 39.1198L18.472 51.5088C15.0877 52.9833 11.1488 51.435 9.67436 48.0506Z" fill="url(#paint0_linear_13075_74930)"/>
<path d="M9.93273 8.65588C11.4296 5.28136 15.3786 3.75921 18.7531 5.25606L47.1097 17.8343C53.0151 20.4538 55.6788 27.3645 53.0593 33.2699C50.4399 39.1753 43.5291 41.8391 37.6237 39.2196L18.4323 30.7068C9.99598 26.9647 6.19061 17.0922 9.93273 8.65588Z" fill="#FAC33D"/>
<defs>
<linearGradient id="paint0_linear_13075_74930" x1="35.3736" y1="28.1973" x2="6.07595" y2="44.6272" gradientUnits="userSpaceOnUse">
<stop stop-color="#E39600"/>
<stop offset="1" stop-color="#FAC33D"/>
</linearGradient>
</defs>
</svg>
