<svg width="110" height="90" viewBox="0 0 329 90" fill="none" xmlns="http://www.w3.org/2000/svg">
<g clip-path="url(#clip0_22825_297690)">
<path d="M74.8358 32.5089C70.6381 27.4589 63.9596 24.8908 54.9896 24.8809C54.435 24.9406 47.3978 25.707 44.7011 26.7223C38.5872 29.0184 32.6226 32.1406 26.9736 35.9994C19.2025 41.3082 13.5834 46.5605 13.3476 46.7795L10 49.925L13.3476 53.0671C13.5834 53.2861 19.1892 58.5318 26.9736 63.8505C37.7768 71.2264 47.1819 74.9658 54.9331 74.9658C55.4977 74.9658 56.0622 74.9558 56.6102 74.9359L57.5202 74.9027L57.2744 75.7753C56.9124 77.0727 56.68 78.3966 56.577 79.7304L78.7247 59.869C79.5816 56.9724 80 53.7174 80 49.925C80 42.3865 78.3096 36.6895 74.8358 32.5089ZM54.9331 66.339C51.2867 66.339 40.9218 64.7895 23.4534 50.4326L22.8323 49.9217L23.4534 49.4074C40.8952 35.0571 51.2767 33.5076 54.9331 33.5076C66.6031 33.5076 71.3621 38.2623 71.3621 49.9217C71.3621 61.581 66.6031 66.339 54.9331 66.339Z" fill="currentColor"/>
<path d="M58.71 42.5358C58.71 42.5358 44.8814 37.2768 35.5859 50.5487C35.5859 50.5487 51.3341 55.2967 58.71 42.5358Z" fill="currentColor"/>
<path d="M54.7241 31.3175L59.9513 8.83484L57.972 7L28.9199 8.67558L49.9119 13.5364L46.8799 26.5761" fill="currentColor"/>
<path d="M48.3444 33.0131L39.4641 12.4384L36.8372 12.1265L14.8223 29.9307L34.2468 21.8183L39.3977 33.7497" fill="currentColor"/>
</g>
<path d="M102.2 53.5739C100.217 53.5739 98.513 52.8783 97.087 51.487C95.6957 50.0609 95 48.3565 95 46.3739V26.6V24.7739V21.8H102.774V17H108.826V21.8H116.6V24.7739V26.6V48.7739V53.5739H110.6H108.826V56.6H114.67C115.957 58.7217 116.6 61.0174 116.6 63.487V66.2V71H110.6H108.826H102.774H95V66.2H102.774V53.5739H102.2ZM118.426 56.7043L135.226 53.7304V58.5304L118.426 61.5043V56.7043ZM141.174 21.8V34.2696C141.174 36.8435 140.548 39.1391 139.296 41.1565H133.139C134.53 39.1043 135.226 36.8087 135.226 34.2696V21.8H118.426V17H135.226H141.174V21.8ZM143 48.9826V64.113C143 65.1913 142.843 66.3565 142.53 67.6087C142.217 68.8261 141.73 69.9565 141.07 71H134.965C136.322 68.9478 137 66.6522 137 64.113V48.9826H125.626C123.643 48.9826 121.939 48.287 120.513 46.8957C119.122 45.4696 118.426 43.7652 118.426 41.7826V24.7739H124.374V44.1826H143V46.1652V48.9826ZM102.774 26.6H101V48.7739H102.774V26.6ZM108.826 66.2H110.6V63.487C110.6 61.087 110.009 58.913 108.826 56.9652V66.2ZM108.826 48.7739H110.6V26.6H108.826V48.7739ZM192.122 17V24.4609C192.122 27.0348 191.496 29.3304 190.243 31.3478H184.087C185.443 29.2609 186.122 26.9652 186.122 24.4609V17H192.122ZM167.026 17V21.8H174.8V24.7739V26.6V48.7739V53.5739H168.8H167.026V56.6H172.87C174.157 58.6174 174.8 60.913 174.8 63.487V66.2V71H168.8H167.026H160.974H153.2V66.2H160.974V53.5739H160.4C158.417 53.5739 156.713 52.8783 155.287 51.487C153.896 50.0609 153.2 48.3565 153.2 46.3739V26.6V24.7739V21.8H160.974V17H167.026ZM160.974 26.6H159.2V48.7739H160.974V26.6ZM167.026 66.2H168.8V63.487C168.8 61.087 168.209 58.913 167.026 56.9652V66.2ZM167.026 48.7739H168.8V26.6H167.026V48.7739ZM176.626 17H182.574V31.4L188.887 44.8609L195.2 31.4V17H201.2V31.4L191.913 51.1739L201.2 71H195.2L188.887 57.5391L182.574 71H176.626L185.913 51.1739L176.626 31.4V17ZM243.8 65.6783L259.4 58.4261V63.6957L243.8 71V65.6783ZM218.6 55.9739C216.722 55.9739 215.087 55.3478 213.696 54.0957C212.339 52.8087 211.591 51.2435 211.452 49.4H211.4V48.7739V44.6H217.4H236.026H242.026V49.4V51.1739V55.9739H236.026H229.713V64.113C229.713 66.6522 229.087 68.9478 227.835 71H221.678C223.035 68.9478 223.713 66.6522 223.713 64.113V55.9739H218.6ZM217.4 49.4V51.2261H236.026V49.4H217.4ZM218.6 35C216.722 35 215.087 34.3739 213.696 33.1217C212.339 31.8348 211.591 30.2696 211.452 28.4261H211.4V27.8V23.5739V21.8V17H217.4H236.026H242.026V21.8V30.2V35H236.026H229.296L231.017 37.9739H242.026V42.7739H211.4V37.9739H224.13L222.357 35H218.6ZM217.4 21.8V23.5739H235.87L233.104 28.3739H217.4V30.2H236.026V21.8H217.4ZM233.991 59H239.991V64.113C239.991 66.687 240.67 68.9826 242.026 71H235.87C234.617 68.9478 233.991 66.6522 233.991 64.113V59ZM219.435 59V64.113C219.435 66.6522 218.809 68.9478 217.557 71H211.4C212.757 68.9826 213.435 66.687 213.435 64.113V59H219.435ZM243.8 24.3043L259.4 17V22.3217L243.8 29.6261V24.3043ZM243.8 45.0174L259.4 37.713V43.0348L243.8 50.287V45.0174ZM290.887 17.0522H296.887H311.6H317.6V21.8522V42.513C317.6 45.087 316.957 47.3826 315.67 49.4H309.565C310.922 47.3478 311.6 45.0522 311.6 42.513V21.8522H296.887V49.4H290.887V21.8522V17.0522ZM283.113 34.3739V26.6522H269.6V21.8522H277.27L274.504 17.0522H281.443L284.157 21.8522H289.113V26.6522V34.8435V35.4696L282.33 44.1304L289.113 46.7391V52.2696L282.383 49.713V71.1043H276.383V51.9043L269.652 60.5652V51.7478L283.165 34.3739H283.113ZM301.27 26.6522H307.27V41.0522L296.939 71H290.887L301.217 41.0522V26.6522H301.27ZM312.8 71C310.817 71 309.113 70.3043 307.687 68.913C306.296 67.487 305.6 65.7826 305.6 63.8V52.4261H311.6V66.2H317.6V71H312.8Z" fill="currentColor"/>
<defs>
<clipPath id="clip0_22825_297690">
<rect width="70" height="72.7301" fill="white" transform="translate(10 7)"/>
</clipPath>
</defs>
</svg>
