<svg width="1024" height="1024" viewBox="0 0 1024 1024" fill="none" xmlns="http://www.w3.org/2000/svg">
<rect width="1024" height="1024" rx="300" fill="url(#paint0_linear_23882_143920)"/>
<g style="mix-blend-mode:screen" opacity="0.1">
<rect width="1024" height="1024" fill="url(#paint1_linear_23882_143920)"/>
</g>
<g clip-path="url(#clip0_23882_143920)">
<path d="M858.136 545.904C851.072 616.43 833.273 688.896 797.057 751.407C667.662 974.359 593.496 626.491 511.996 626.491C430.496 626.491 356.417 974.359 227.021 751.407C190.815 689.061 173.093 616.702 166 546.33C165.981 546.152 165.962 545.963 165.942 545.786C165.441 540.797 164.988 535.832 164.593 530.867C160.411 478.841 161.741 428.34 165.325 384.175C167.513 358.05 170.481 334.076 173.623 313.318C174.23 309.358 174.837 305.504 175.454 301.863C177.632 288.056 179.81 275.856 181.824 265.796C185.92 245.026 198.313 228.44 214.715 221.69L236.176 212.919L247.259 208.32L271.082 198.568C277.452 195.884 283.648 203.06 281.73 211.087C278.589 224.149 275.707 241.054 273.443 260.748C265.849 324.761 264.191 417.441 279.369 497.933C280.506 503.82 281.73 509.707 283.041 515.488C285.913 528.444 289.411 540.963 293.333 552.95C302.845 581.853 315.498 607.222 331.9 626.479C331.9 626.479 369.504 564.192 409.295 485.308C450.57 403.752 487.21 314.807 511.996 314.807C536.782 314.807 573.509 403.752 614.697 485.308C653.881 562.844 690.896 624.351 692.14 626.42C708.523 607.174 721.157 581.829 730.659 552.95C734.581 540.963 738.069 528.444 740.951 515.488C742.261 509.707 743.485 503.82 744.613 497.933C759.801 417.441 758.143 324.761 750.549 260.748C748.285 241.054 745.403 224.149 742.262 211.087C740.344 203.06 746.54 195.884 752.91 198.568L776.723 208.309L787.806 212.907L809.277 221.679C825.679 228.429 838.072 245.014 842.168 265.784C844.172 275.844 846.36 288.044 848.538 301.851C849.145 305.492 849.762 309.346 850.369 313.306C853.511 334.065 856.479 358.038 858.657 384.164C862.242 428.317 863.581 478.818 859.399 530.844C859.004 535.809 858.551 540.785 858.05 545.774" fill="#FAC33D"/>
</g>
<defs>
<linearGradient id="paint0_linear_23882_143920" x1="512" y1="0" x2="512" y2="1024" gradientUnits="userSpaceOnUse">
<stop stop-color="#17181A"/>
<stop offset="1"/>
</linearGradient>
<linearGradient id="paint1_linear_23882_143920" x1="640.5" y1="-323.5" x2="512" y2="1024" gradientUnits="userSpaceOnUse">
<stop stop-color="white"/>
<stop offset="1" stop-color="white" stop-opacity="0.01"/>
</linearGradient>
<clipPath id="clip0_23882_143920">
<rect width="700" height="628" fill="white" transform="translate(162 198)"/>
</clipPath>
</defs>
</svg>
