<svg width="100%" height="100%" viewBox="0 0 74 74" fill="none" xmlns="http://www.w3.org/2000/svg">
<path fill-rule="evenodd" clip-rule="evenodd" d="M2.84897 19.0601C1.7316 30.9013 1.71428 42.7424 2.81432 54.5836L2.82298 54.5922C3.63718 63.419 10.5926 70.3747 19.4189 71.1889C31.2508 72.2804 43.0914 72.2717 54.932 71.1543C63.5072 70.34 70.3413 63.5056 71.1555 54.9301C72.2815 42.9763 72.2815 31.0225 71.1555 19.0688C70.3413 10.4932 63.5072 3.6588 54.932 2.84456C42.9788 1.71848 31.0256 1.71848 19.0724 2.84456C10.4973 3.65014 3.65451 10.4932 2.84897 19.0601ZM27.7789 56.3419C27.742 56.3456 27.7056 56.3492 27.6698 56.3529V56.3355L27.6696 56.3356C27.5051 56.3442 27.3406 56.3529 27.1761 56.3442C26.7171 56.3009 26.258 56.2576 25.8162 56.145C25.3912 56.0345 24.9578 55.8321 24.5733 55.6527L24.5516 55.6426C24.4044 55.5733 24.2744 55.504 24.1445 55.4174C23.7634 55.1662 23.3996 54.8976 23.0705 54.5771C22.8162 54.3301 22.5924 54.0222 22.3838 53.7352C22.3436 53.6799 22.3041 53.6254 22.2649 53.5723C22.161 53.4337 22.0657 53.2865 21.9877 53.1219C21.978 53.101 21.9682 53.0801 21.9584 53.0591C21.7856 52.6893 21.6088 52.3109 21.494 51.9092C21.2463 51.0423 21.256 50.1019 21.2653 49.191C21.2671 49.0188 21.2688 48.8476 21.2688 48.6782V23.9218C21.2688 23.4194 21.3468 22.8996 21.4421 22.4059C21.5161 22.021 21.6913 21.6361 21.8542 21.2782C21.8819 21.2173 21.9093 21.1571 21.9358 21.0979C21.9964 20.9593 22.0657 20.8294 22.1437 20.6995C22.3862 20.3183 22.672 19.9458 22.9838 19.6167C23.2104 19.3696 23.5022 19.1551 23.773 18.956C23.844 18.9038 23.9134 18.8528 23.9799 18.8024C24.465 18.4386 25.054 18.2134 25.617 18.0229C25.9764 17.9006 26.3895 17.856 26.7721 17.8146C26.8506 17.8062 26.9277 17.7978 27.0029 17.789C27.1501 17.763 27.306 17.763 27.4533 17.763H27.4533C28.5187 17.7976 29.5061 18.0662 30.4329 18.5946C30.9014 18.8604 31.3652 19.1309 31.8312 19.4027C32.0028 19.5028 32.1747 19.6031 32.3472 19.7033C33.0617 20.1147 33.7762 20.5283 34.4907 20.9418C35.2054 21.3555 35.9201 21.7692 36.6348 22.1807C37.5442 22.7047 38.4516 23.2288 39.3589 23.7529C40.2662 24.2769 41.1735 24.801 42.083 25.325C43.876 26.3645 45.6776 27.404 47.4793 28.4434C48.8646 29.24 50.2413 30.0366 51.618 30.8333L51.6196 30.8342C51.8664 30.9771 52.1111 31.1179 52.3558 31.2586C52.6005 31.3994 52.8452 31.5401 53.0921 31.6831C53.1614 31.7177 53.222 31.7524 53.2826 31.7957C53.3173 31.8173 53.3498 31.839 53.3822 31.8606C53.4147 31.8823 53.4472 31.9039 53.4818 31.9256C53.7519 32.1056 54.0025 32.3117 54.2504 32.5155C54.2888 32.5471 54.3271 32.5786 54.3653 32.6099C54.4953 32.7225 54.6079 32.8351 54.7118 32.9651C54.7391 32.9985 54.7665 33.032 54.794 33.0656C55.0376 33.3631 55.2881 33.669 55.4827 33.9959C55.6912 34.3567 55.8403 34.7473 55.985 35.1263C55.9966 35.1567 56.0082 35.187 56.0197 35.2172C56.0717 35.3558 56.115 35.4944 56.141 35.633C56.2276 36.0748 56.2969 36.5252 56.3142 36.9756C56.3229 37.1142 56.3142 37.2615 56.2969 37.4001C56.2936 37.4323 56.2903 37.465 56.287 37.4979C56.2466 37.8991 56.2011 38.3505 56.089 38.7427C55.6386 40.3019 54.5992 41.5926 53.196 42.3981L52.3905 42.8659C51.7929 43.208 51.1976 43.5522 50.6022 43.8965C50.0066 44.2409 49.411 44.5853 48.8132 44.9275L43.6421 47.9159C41.7885 48.9814 39.9262 50.0555 38.0726 51.1296C36.9181 51.802 35.759 52.4698 34.6021 53.1363C34.1792 53.3799 33.7566 53.6234 33.3346 53.8668C32.8886 54.1223 32.4425 54.38 31.9965 54.6377C31.5504 54.8954 31.1043 55.1531 30.6581 55.4087C30.6235 55.4303 30.5889 55.4498 30.5542 55.4693C30.5196 55.4888 30.4849 55.5083 30.4503 55.53C30.407 55.556 30.3636 55.5819 30.3117 55.6079C29.9046 55.8158 29.4802 56.0064 29.0384 56.1363C28.6418 56.2553 28.1799 56.3016 27.7789 56.3419ZM28.1896 47.734V47.7514V47.7947C28.1896 48.2624 28.6919 48.5569 29.099 48.3231C29.2983 48.2191 29.4888 48.1065 29.6794 47.9939C30.1168 47.7427 30.5542 47.4893 30.9916 47.236C31.429 46.9826 31.8665 46.7292 32.3039 46.478C32.8283 46.1746 33.3505 45.8734 33.8727 45.5722C34.3942 45.2714 34.9157 44.9706 35.4394 44.6676C35.998 44.3428 36.5567 44.0202 37.1153 43.6976C37.674 43.3749 38.2328 43.0522 38.7915 42.7273C39.3459 42.4068 39.9024 42.0863 40.4589 41.7658C41.0154 41.4453 41.5719 41.1248 42.1263 40.8043C42.862 40.373 43.6024 39.9464 44.3406 39.5209C44.6105 39.3654 44.8802 39.21 45.1493 39.0546C45.9808 38.5781 46.8036 38.1017 47.6265 37.6253C47.6525 37.608 47.6698 37.5993 47.6958 37.582C48.1029 37.3481 48.1029 36.7677 47.6958 36.5339C47.4533 36.3866 47.2108 36.2481 46.9684 36.1095L46.9682 36.1094C46.0938 35.6072 45.2107 35.0964 44.3276 34.5856L44.3264 34.5849C43.8067 34.286 43.2848 33.985 42.7629 33.684C42.2411 33.383 41.7192 33.082 41.1995 32.7832L37.8561 30.8515C37.306 30.5353 36.7559 30.2169 36.2058 29.8985C35.6558 29.5802 35.1059 29.2619 34.5559 28.9458C34.0536 28.6556 33.5533 28.3676 33.0531 28.0796C32.5529 27.7916 32.0527 27.5036 31.5503 27.2134C30.7362 26.737 29.9221 26.2693 29.108 25.8016L29.1077 25.8015H29.099C28.6919 25.5676 28.1896 25.8621 28.1896 26.3299V47.734Z" fill="#FAC33D"/>
</svg>
