<svg width="1024" height="1024" viewBox="0 0 1024 1024" fill="none" xmlns="http://www.w3.org/2000/svg">
<g clip-path="url(#clip0_22825_297678)">
<rect width="1024" height="1024" fill="white"/>
<g style="mix-blend-mode:screen" opacity="0.1">
<rect width="1024" height="1024" fill="url(#paint0_linear_22825_297678)"/>
</g>
<g clip-path="url(#clip1_22825_297678)">
<path d="M795.014 409.003C755.196 361.094 691.845 336.73 606.758 336.635C601.497 337.202 534.744 344.473 509.165 354.106C451.17 375.888 394.592 405.509 341.007 442.118C267.292 492.483 213.991 542.313 211.754 544.391L180 574.232L211.754 604.042C213.991 606.119 267.166 655.886 341.007 706.346C443.483 776.321 532.697 811.797 606.223 811.797C611.578 811.797 616.933 811.703 622.131 811.514L630.763 811.199L628.432 819.478C624.998 831.786 622.793 844.346 621.816 857L831.903 668.572C840.031 641.091 844 610.211 844 574.232C844 502.714 827.965 448.666 795.014 409.003ZM606.223 729.954C571.633 729.954 473.315 715.254 307.615 579.048L301.724 574.2L307.615 569.321C473.063 433.179 571.539 418.478 606.223 418.478C716.921 418.478 762.063 463.586 762.063 574.2C762.063 684.815 716.921 729.954 606.223 729.954Z" fill="#111111"/>
<path d="M642.04 504.13C642.04 504.13 510.866 454.238 422.691 580.15C422.691 580.15 572.074 625.195 642.04 504.13Z" fill="#111111"/>
<path d="M604.238 397.703L653.822 184.407L635.047 167L359.467 182.896L558.591 229.012L529.83 352.721" fill="#111111"/>
<path d="M543.722 413.788L459.485 218.593L434.567 215.634L225.74 384.545L409.996 307.581L458.855 420.777" fill="#111111"/>
</g>
</g>
<defs>
<linearGradient id="paint0_linear_22825_297678" x1="642" y1="-3.657e-06" x2="512" y2="1024" gradientUnits="userSpaceOnUse">
<stop stop-color="white"/>
<stop offset="1" stop-color="white" stop-opacity="0.01"/>
</linearGradient>
<clipPath id="clip0_22825_297678">
<rect width="1024" height="1024" fill="white"/>
</clipPath>
<clipPath id="clip1_22825_297678">
<rect width="664" height="690" fill="white" transform="translate(180 167)"/>
</clipPath>
</defs>
</svg>
