<svg width="104" height="96" viewBox="0 0 287 96" fill="none" xmlns="http://www.w3.org/2000/svg">
    <g clip-path="url(#clip0_23882_144865)">
        <path fill-rule="evenodd" clip-rule="evenodd"
            d="M45.75 9.79474C24.7632 9.79474 7.75 26.8079 7.75 47.7947C7.75 68.7815 24.7632 85.7947 45.75 85.7947C66.7368 85.7947 83.7499 68.7815 83.7499 47.7947C83.7499 26.8079 66.7368 9.79474 45.75 9.79474ZM66.846 65.84C69.5301 61.2078 70.8492 55.8381 71.3728 50.6121L71.3663 50.6025C71.4035 50.2328 71.437 49.864 71.4663 49.4961C71.7763 45.641 71.677 41.8988 71.4113 38.6271C71.2499 36.6912 71.0299 34.9147 70.7971 33.3765C70.7521 33.083 70.7064 32.7975 70.6614 32.5277C70.5 31.5045 70.3379 30.6005 70.1893 29.8551C69.8858 28.316 68.9673 27.087 67.7517 26.5868L66.1604 25.9369L65.339 25.5961L63.5742 24.8743C63.1021 24.6755 62.6428 25.2072 62.785 25.802C63.0178 26.7699 63.2314 28.0225 63.3992 29.4819C63.962 34.2253 64.0849 41.0929 62.9592 47.0574C62.8757 47.4936 62.785 47.9299 62.6878 48.3582C62.4743 49.3183 62.2157 50.2459 61.9251 51.1342C61.2208 53.2742 60.2845 55.1523 59.0703 56.5783L59.0683 56.5749C58.9437 56.3677 56.2166 51.8312 53.3308 46.1219C52.7048 44.8826 52.0927 43.6202 51.4993 42.3964C49.1991 37.6525 47.1796 33.4877 45.7194 33.4877C44.2645 33.4877 42.2586 37.6218 39.9674 42.3438C39.3657 43.584 38.7442 44.8648 38.1079 46.1219C35.1589 51.9672 32.372 56.5827 32.372 56.5827C31.1564 55.1558 30.2187 53.2759 29.5137 51.1342C29.223 50.2459 28.9638 49.3183 28.7509 48.3582C28.6538 47.9299 28.5631 47.4936 28.4788 47.0574C27.3539 41.0929 27.4768 34.2253 28.0396 29.4819C28.2074 28.0225 28.421 26.7699 28.6538 25.802C28.7959 25.2072 28.3367 24.6755 27.8646 24.8743L26.099 25.597L25.2777 25.9377L23.6871 26.5877C22.4715 27.0879 21.553 28.3169 21.2495 29.856C21.1002 30.6014 20.9388 31.5054 20.7774 32.5285C20.7317 32.7983 20.6867 33.0839 20.6417 33.3774C20.4088 34.9156 20.1889 36.692 20.0267 38.6279C19.761 41.9006 19.6625 45.6427 19.9724 49.4979C20.0017 49.8658 20.0353 50.2337 20.0724 50.6033L20.0767 50.6436C20.6024 55.8583 21.9158 61.2201 24.5992 65.84C30.7981 76.5191 35.284 69.5245 39.3127 63.2428C41.5166 59.8065 43.5836 56.5836 45.7194 56.5836C47.855 56.5836 49.9227 59.806 52.1273 63.242C56.1581 69.5239 60.6469 76.5196 66.846 65.84Z"
            fill="#FAC33D" />
        <path
            d="M240.922 14.0129C240.922 13.0516 241.334 12.3822 242.158 12.0045C242.467 11.7985 242.828 11.6955 243.24 11.6955H261.469C261.915 11.6955 262.31 11.8329 262.653 12.1075C262.997 12.3822 263.254 12.7255 263.426 13.1374C263.494 13.3091 263.546 13.4807 263.58 13.6524C263.615 13.7897 263.632 13.9442 263.632 14.1158V18.4415C263.632 20.673 263.065 22.441 261.932 23.7455C260.834 25.0158 259.117 25.6509 256.783 25.6509H255.753V30.6975H262.087C262.739 30.6975 263.271 30.9206 263.683 31.3669C264.13 31.8132 264.353 32.3625 264.353 33.0148C264.353 33.6671 264.13 34.2163 263.683 34.6626C263.271 35.1089 262.739 35.3321 262.087 35.3321H255.753V40.4816H260.851C261.297 40.4816 261.692 40.619 262.035 40.8936C262.379 41.0653 262.653 41.3227 262.859 41.666C263.065 42.0094 263.168 42.4042 263.168 42.8504V50.7293C263.168 52.8921 262.482 54.5056 261.109 55.5699C259.735 56.6685 258.002 57.2178 255.907 57.2178H252.2C250.071 57.2178 248.32 56.6685 246.947 55.5699C245.608 54.5056 244.939 52.8921 244.939 50.7293V42.8504C244.939 42.4042 245.025 42.0437 245.196 41.769C245.368 41.3914 245.625 41.0824 245.969 40.8421C246.312 40.6018 246.707 40.4816 247.153 40.4816H251.273V35.3321H244.733C244.596 37.7009 244.424 39.8465 244.218 41.769C244.012 43.6572 243.754 45.4424 243.445 47.1246C243.171 48.7725 242.862 50.3517 242.519 51.8622C242.21 53.3384 241.849 54.8146 241.437 56.2908C241.3 56.7371 241.06 57.0976 240.716 57.3722C240.407 57.6812 240.03 57.8529 239.583 57.8872C239 57.9559 238.433 57.7842 237.884 57.3722C237.335 56.9946 237.026 56.4968 236.957 55.8789C236.957 55.5356 236.991 55.2781 237.06 55.1064C237.472 53.5959 237.85 52.1025 238.193 50.6263C238.536 49.1158 238.845 47.5194 239.12 45.8372C239.429 44.1207 239.686 42.2497 239.892 40.2242C240.133 38.1987 240.321 35.9157 240.459 33.3752C240.596 30.8348 240.699 27.9854 240.768 24.827C240.871 21.6342 240.922 18.0295 240.922 14.0129ZM270.172 57.7327C269.554 57.7327 269.022 57.5096 268.575 57.0633C268.129 56.6513 267.906 56.1192 267.906 55.4669C267.906 54.8489 268.129 54.3168 268.575 53.8705C269.022 53.4586 269.554 53.2526 270.172 53.2526C271.064 53.2526 271.768 53.1668 272.283 52.9951C272.832 52.8578 273.244 52.6003 273.519 52.2227C273.828 51.8794 274.034 51.4159 274.137 50.8323C274.24 50.2487 274.291 49.5106 274.291 48.618V12.365C274.291 11.7127 274.497 11.1806 274.909 10.7686C275.356 10.3223 275.888 10.0992 276.506 10.0992C277.158 10.0992 277.69 10.3223 278.102 10.7686C278.548 11.1806 278.772 11.7127 278.772 12.365V48.618C278.772 51.5017 278.051 53.7332 276.609 55.3124C275.201 56.9259 273.056 57.7327 270.172 57.7327ZM266.516 18.4415C266.516 17.8579 266.739 17.3601 267.185 16.9481C267.631 16.5018 268.163 16.2787 268.781 16.2787C269.365 16.2787 269.863 16.5018 270.275 16.9481C270.721 17.3601 270.944 17.8579 270.944 18.4415V44.4983C270.944 45.1163 270.721 45.6484 270.275 46.0947C269.863 46.5066 269.365 46.7126 268.781 46.7126C268.163 46.7126 267.631 46.5066 267.185 46.0947C266.739 45.6484 266.516 45.1163 266.516 44.4983V18.4415ZM255.907 52.6861C257.83 52.6861 258.791 51.7077 258.791 49.7509V45.0133H249.316V49.7509C249.316 51.7077 250.277 52.6861 252.2 52.6861H255.907ZM256.783 21.0163C257.847 21.0163 258.534 20.879 258.843 20.6043C259.186 20.2953 259.358 19.5744 259.358 18.4415V16.3302H245.248C245.248 17.1541 245.248 17.9609 245.248 18.7505C245.248 19.5057 245.231 20.261 245.196 21.0163H256.783ZM244.939 30.6975H251.273V25.6509H245.145L244.939 30.6975Z"
            fill="#FAC33D" />
        <path
            d="M228.391 34.5082C228.837 34.5082 229.232 34.6283 229.575 34.8686C229.918 35.0746 230.176 35.3664 230.348 35.7441C230.348 35.7784 230.365 35.7955 230.399 35.7955C230.399 35.8642 230.416 35.8985 230.451 35.8985C230.519 36.0702 230.571 36.2418 230.605 36.4135C230.639 36.5508 230.657 36.7053 230.657 36.877V43.4169C230.657 45.5797 229.953 47.1933 228.545 48.2575C227.138 49.3218 225.353 49.8539 223.19 49.8539H213.714C211.586 49.8539 209.818 49.3218 208.41 48.2575C207.003 47.1589 206.299 45.5454 206.299 43.4169V18.39C206.299 17.7721 206.505 17.2399 206.917 16.7936C207.363 16.3473 207.895 16.1242 208.513 16.1242C208.582 16.1242 208.651 16.1414 208.719 16.1757C208.822 16.1757 208.908 16.1757 208.977 16.1757H213.663C213.663 16.1757 213.68 16.1585 213.714 16.1242L217.165 11.2836C217.371 10.9403 217.697 10.6828 218.143 10.5112C218.727 10.2365 219.293 10.2365 219.842 10.5112C220.426 10.7515 220.855 11.1634 221.13 11.7471C221.302 12.1247 221.353 12.5195 221.284 12.9315C221.216 13.3091 221.078 13.6352 220.872 13.9099L219.225 16.1757H226.64C227.086 16.1757 227.481 16.2958 227.824 16.5362C228.202 16.7765 228.477 17.0854 228.648 17.4631C228.648 17.4631 228.665 17.4802 228.7 17.5146C228.7 17.5489 228.7 17.5832 228.7 17.6176C228.734 17.6176 228.751 17.6347 228.751 17.6691C228.889 17.9094 228.957 18.2012 228.957 18.5445V24.6725C228.957 28.9638 226.812 31.1094 222.52 31.1094H210.779V34.5082H228.391ZM231.069 52.6861C231.721 52.6861 232.27 52.9093 232.716 53.3556C233.163 53.8019 233.386 54.3512 233.386 55.0034C233.386 55.6557 233.163 56.205 232.716 56.6513C232.27 57.0976 231.721 57.3208 231.069 57.3208H210.11C208.256 57.3208 206.454 56.9946 204.703 56.3423C202.986 55.6901 201.51 54.643 200.274 53.2011C199.828 53.9564 199.313 54.6601 198.729 55.3124C198.146 55.999 197.459 56.6856 196.669 57.3723C196.463 57.5439 196.137 57.6641 195.691 57.7327C195.279 57.8357 194.936 57.8872 194.661 57.8872C194.009 57.8872 193.459 57.6641 193.013 57.2178C192.567 56.7715 192.344 56.2222 192.344 55.5699C192.344 54.849 192.618 54.2482 193.168 53.7676C193.889 53.1839 194.507 52.6003 195.022 52.0167C195.571 51.4674 196.017 50.8666 196.36 50.2143C196.738 49.5621 197.013 48.8583 197.184 48.103C197.356 47.3478 197.442 46.4723 197.442 45.4767V29.5646H194.97C194.318 29.5646 193.768 29.3414 193.322 28.8951C192.876 28.4488 192.653 27.8995 192.653 27.2473C192.653 26.595 192.876 26.0457 193.322 25.5994C193.768 25.1531 194.318 24.93 194.97 24.93H199.656C200.308 24.93 200.875 25.1703 201.355 25.6509C201.561 25.8569 201.733 26.1144 201.87 26.4233C202.008 26.698 202.076 27.0069 202.076 27.3503V45.4767C202.076 45.6827 202.076 45.8887 202.076 46.0947C202.076 46.2663 202.059 46.438 202.025 46.6096C202.574 48.8755 203.535 50.4547 204.909 51.3473C206.316 52.2398 208.05 52.6861 210.11 52.6861H231.069ZM223.19 45.3738C224.185 45.3738 224.923 45.2536 225.404 45.0133C225.919 44.7386 226.176 44.2065 226.176 43.4169V38.9883H210.779V43.4169C210.779 44.2752 211.02 44.8245 211.5 45.0648C211.981 45.2708 212.719 45.3738 213.714 45.3738H223.19ZM222.52 26.6293C223.001 26.6293 223.378 26.6293 223.653 26.6293C223.928 26.595 224.117 26.5263 224.22 26.4233C224.357 26.286 224.426 26.08 224.426 25.8054C224.46 25.5307 224.477 25.1531 224.477 24.6725V20.7073H210.779V26.6293H222.52ZM202.334 19.1624C202.506 19.5057 202.591 19.8662 202.591 20.2438C202.591 20.8961 202.368 21.4454 201.922 21.8917C201.476 22.338 200.926 22.5612 200.274 22.5612C199.828 22.5612 199.416 22.4582 199.038 22.2522C198.695 22.0119 198.42 21.7029 198.214 21.3253L194.919 14.9913C194.747 14.648 194.661 14.2875 194.661 13.9099C194.661 13.2576 194.884 12.7083 195.331 12.262C195.777 11.8157 196.326 11.5926 196.978 11.5926C197.425 11.5926 197.819 11.7127 198.163 11.953C198.54 12.159 198.832 12.4508 199.038 12.8285L202.334 19.1624Z"
            fill="#FAC33D" />
        <path
            d="M149.529 56.5999C149.083 57.1492 148.533 57.4238 147.881 57.4238C147.297 57.4238 146.782 57.2007 146.336 56.7544C145.924 56.3081 145.718 55.7588 145.718 55.1065C145.718 54.5916 145.873 54.0938 146.182 53.6132C148.619 50.4891 150.576 47.468 152.052 44.5499C151.331 43.8976 150.593 43.2625 149.838 42.6446C149.083 41.9923 148.276 41.3228 147.418 40.6362C147.04 40.3616 146.782 40.0355 146.645 39.6578C146.473 39.1429 146.439 38.6451 146.542 38.1644C147.057 35.7613 147.521 33.3582 147.933 30.955C148.379 28.5176 148.791 26.063 149.168 23.5912H147.778C147.194 23.5912 146.679 23.368 146.233 22.9217C145.821 22.4754 145.615 21.9261 145.615 21.2739C145.615 20.6216 145.821 20.0723 146.233 19.626C146.679 19.1797 147.194 18.9565 147.778 18.9565H149.889L150.816 11.8501C150.885 11.2665 151.108 10.7859 151.486 10.4083C151.898 10.0306 152.395 9.84181 152.979 9.84181C153.631 9.84181 154.164 10.1164 154.575 10.6657C155.022 11.1807 155.211 11.7815 155.142 12.4681C155.005 13.5667 154.867 14.6481 154.73 15.7123C154.627 16.7766 154.49 17.858 154.318 18.9565H159.056C159.536 18.9565 159.948 19.111 160.292 19.42C160.669 19.6946 160.944 20.0723 161.115 20.5529C161.218 20.8619 161.27 21.1709 161.27 21.4798C161.064 26.0115 160.652 30.0453 160.034 33.5813C159.45 37.083 158.558 40.3616 157.356 43.417C157.837 43.8976 158.318 44.3954 158.798 44.9104C159.279 45.391 159.777 45.9231 160.292 46.5067C160.703 46.9874 160.909 47.5367 160.909 48.1546C160.909 48.8069 160.703 49.3562 160.292 49.8025C159.88 50.2488 159.382 50.4719 158.798 50.4719C158.146 50.4719 157.631 50.2488 157.253 49.8025L155.348 47.7941C153.803 50.6436 151.863 53.5788 149.529 56.5999ZM171.054 35.7956C171.054 35.1434 171.277 34.5941 171.724 34.1478C172.17 33.7015 172.719 33.4783 173.371 33.4783C174.024 33.4783 174.573 33.7015 175.019 34.1478C175.466 34.5941 175.689 35.1434 175.689 35.7956V39.2459H181.662C182.314 39.2459 182.864 39.469 183.31 39.9153C183.756 40.3616 183.98 40.9109 183.98 41.5632C183.98 42.2154 183.756 42.7647 183.31 43.211C182.864 43.6573 182.314 43.8805 181.662 43.8805H175.689V51.5018H184.083C184.735 51.5018 185.284 51.725 185.73 52.1713C186.177 52.6176 186.4 53.1669 186.4 53.8191C186.4 54.4714 186.177 55.0207 185.73 55.467C185.284 55.9133 184.735 56.1364 184.083 56.1364H162.66C162.008 56.1364 161.459 55.9133 161.012 55.467C160.566 55.0207 160.343 54.4714 160.343 53.8191C160.343 53.1669 160.566 52.6176 161.012 52.1713C161.459 51.725 162.008 51.5018 162.66 51.5018H171.054V43.8805H165.081C164.428 43.8805 163.879 43.6573 163.433 43.211C162.986 42.7647 162.763 42.2154 162.763 41.5632C162.763 40.9109 162.986 40.3616 163.433 39.9153C163.879 39.469 164.428 39.2459 165.081 39.2459H171.054V35.7956ZM171.054 12.0046C171.054 11.3523 171.277 10.8031 171.724 10.3568C172.17 9.91047 172.719 9.68732 173.371 9.68732C174.024 9.68732 174.573 9.91047 175.019 10.3568C175.466 10.8031 175.689 11.3523 175.689 12.0046V16.2273H181.147C181.8 16.2273 182.349 16.4504 182.795 16.8967C183.241 17.343 183.465 17.8923 183.465 18.5446C183.465 19.1969 183.241 19.7461 182.795 20.1924C182.349 20.6387 181.8 20.8619 181.147 20.8619H175.689V27.1959H183.568C184.22 27.1959 184.769 27.419 185.215 27.8653C185.662 28.3116 185.885 28.8609 185.885 29.5132C185.885 30.1654 185.662 30.7147 185.215 31.161C184.769 31.6073 184.22 31.8305 183.568 31.8305H163.175C162.523 31.8305 161.974 31.6073 161.527 31.161C161.081 30.7147 160.858 30.1654 160.858 29.5132C160.858 28.8609 161.081 28.3116 161.527 27.8653C161.974 27.419 162.523 27.1959 163.175 27.1959H171.054V20.8619H165.596C164.943 20.8619 164.394 20.6387 163.948 20.1924C163.501 19.7461 163.278 19.1969 163.278 18.5446C163.278 17.8923 163.501 17.343 163.948 16.8967C164.394 16.4504 164.943 16.2273 165.596 16.2273H171.054V12.0046ZM153.906 40.2243C154.764 37.8555 155.417 35.3493 155.863 32.7059C156.309 30.0625 156.635 27.0242 156.841 23.5912H153.597C153.219 25.9943 152.825 28.3803 152.413 30.7491C152.001 33.0835 151.554 35.4352 151.074 37.804C151.554 38.2159 152.035 38.6279 152.516 39.0399C152.996 39.4175 153.46 39.8123 153.906 40.2243Z"
            fill="#FAC33D" />
        <path
            d="M103.164 56.5999C102.717 57.1492 102.168 57.4238 101.516 57.4238C100.932 57.4238 100.417 57.2007 99.9709 56.7544C99.559 56.3081 99.353 55.7588 99.353 55.1065C99.353 54.5916 99.5075 54.0938 99.8165 53.6132C102.254 50.4891 104.211 47.468 105.687 44.5499C104.966 43.8976 104.228 43.2625 103.473 42.6446C102.717 41.9923 101.911 41.3228 101.052 40.6362C100.675 40.3616 100.417 40.0355 100.28 39.6578C100.108 39.1429 100.074 38.6451 100.177 38.1644C100.692 35.7613 101.155 33.3582 101.567 30.955C102.014 28.5176 102.426 26.063 102.803 23.5912H101.413C100.829 23.5912 100.314 23.368 99.8679 22.9217C99.456 22.4754 99.25 21.9261 99.25 21.2739C99.25 20.6216 99.456 20.0723 99.8679 19.626C100.314 19.1797 100.829 18.9565 101.413 18.9565H103.524L104.451 11.8501C104.52 11.2665 104.743 10.7859 105.121 10.4083C105.532 10.0306 106.03 9.84181 106.614 9.84181C107.266 9.84181 107.798 10.1164 108.21 10.6657C108.657 11.1807 108.845 11.7815 108.777 12.4681C108.639 13.5667 108.502 14.6481 108.365 15.7123C108.262 16.7766 108.124 17.858 107.953 18.9565H112.69C113.171 18.9565 113.583 19.111 113.926 19.42C114.304 19.6946 114.579 20.0723 114.75 20.5529C114.853 20.8619 114.905 21.1709 114.905 21.4798C114.699 26.0115 114.287 30.0453 113.669 33.5813C113.085 37.083 112.193 40.3616 110.991 43.417C111.472 43.8976 111.952 44.3954 112.433 44.9104C112.914 45.391 113.411 45.9231 113.926 46.5067C114.338 46.9874 114.544 47.5367 114.544 48.1546C114.544 48.8069 114.338 49.3562 113.926 49.8025C113.514 50.2488 113.017 50.4719 112.433 50.4719C111.781 50.4719 111.266 50.2488 110.888 49.8025L108.983 47.7941C107.438 50.6436 105.498 53.5788 103.164 56.5999ZM124.689 35.7956C124.689 35.1434 124.912 34.5941 125.358 34.1478C125.805 33.7015 126.354 33.4783 127.006 33.4783C127.658 33.4783 128.208 33.7015 128.654 34.1478C129.1 34.5941 129.323 35.1434 129.323 35.7956V39.2459H135.297C135.949 39.2459 136.499 39.469 136.945 39.9153C137.391 40.3616 137.614 40.9109 137.614 41.5632C137.614 42.2154 137.391 42.7647 136.945 43.211C136.499 43.6573 135.949 43.8805 135.297 43.8805H129.323V51.5018H137.717C138.37 51.5018 138.919 51.725 139.365 52.1713C139.811 52.6176 140.035 53.1669 140.035 53.8191C140.035 54.4714 139.811 55.0207 139.365 55.467C138.919 55.9133 138.37 56.1364 137.717 56.1364H116.295C115.643 56.1364 115.094 55.9133 114.647 55.467C114.201 55.0207 113.978 54.4714 113.978 53.8191C113.978 53.1669 114.201 52.6176 114.647 52.1713C115.094 51.725 115.643 51.5018 116.295 51.5018H124.689V43.8805H118.715C118.063 43.8805 117.514 43.6573 117.068 43.211C116.621 42.7647 116.398 42.2154 116.398 41.5632C116.398 40.9109 116.621 40.3616 117.068 39.9153C117.514 39.469 118.063 39.2459 118.715 39.2459H124.689V35.7956ZM124.689 12.0046C124.689 11.3523 124.912 10.8031 125.358 10.3568C125.805 9.91047 126.354 9.68732 127.006 9.68732C127.658 9.68732 128.208 9.91047 128.654 10.3568C129.1 10.8031 129.323 11.3523 129.323 12.0046V16.2273H134.782C135.434 16.2273 135.984 16.4504 136.43 16.8967C136.876 17.343 137.099 17.8923 137.099 18.5446C137.099 19.1969 136.876 19.7461 136.43 20.1924C135.984 20.6387 135.434 20.8619 134.782 20.8619H129.323V27.1959H137.202C137.855 27.1959 138.404 27.419 138.85 27.8653C139.296 28.3116 139.52 28.8609 139.52 29.5132C139.52 30.1654 139.296 30.7147 138.85 31.161C138.404 31.6073 137.855 31.8305 137.202 31.8305H116.81C116.158 31.8305 115.608 31.6073 115.162 31.161C114.716 30.7147 114.493 30.1654 114.493 29.5132C114.493 28.8609 114.716 28.3116 115.162 27.8653C115.608 27.419 116.158 27.1959 116.81 27.1959H124.689V20.8619H119.23C118.578 20.8619 118.029 20.6387 117.582 20.1924C117.136 19.7461 116.913 19.1969 116.913 18.5446C116.913 17.8923 117.136 17.343 117.582 16.8967C118.029 16.4504 118.578 16.2273 119.23 16.2273H124.689V12.0046ZM107.541 40.2243C108.399 37.8555 109.051 35.3493 109.498 32.7059C109.944 30.0625 110.27 27.0242 110.476 23.5912H107.232C106.854 25.9943 106.459 28.3803 106.047 30.7491C105.635 33.0835 105.189 35.4352 104.709 37.804C105.189 38.2159 105.67 38.6279 106.15 39.0399C106.631 39.4175 107.095 39.8123 107.541 40.2243Z"
            fill="#FAC33D" />
        <path
            d="M112.126 69.528H114.7L117.098 78.13L119.43 69.528H121.586L123.918 78.13L126.316 69.528H128.89L125.04 80.902H122.884L120.508 72.388L118.132 80.902H115.976L112.126 69.528ZM142.12 69.528H144.694L147.092 78.13L149.424 69.528H151.58L153.912 78.13L156.31 69.528H158.884L155.034 80.902H152.878L150.502 72.388L148.126 80.902H145.97L142.12 69.528ZM172.774 69.528H182.146V71.046L175.612 78.988H182.498V80.902H172.554V79.296L179 71.442H172.774V69.528ZM199.083 64.974C199.545 64.974 199.941 65.106 200.249 65.414C200.557 65.7 200.711 66.074 200.711 66.536C200.711 66.998 200.557 67.372 200.249 67.68C199.919 67.966 199.523 68.12 199.083 68.12C198.643 68.12 198.269 67.966 197.961 67.68C197.631 67.372 197.477 66.976 197.477 66.536C197.477 66.074 197.631 65.7 197.961 65.414C198.269 65.106 198.643 64.974 199.083 64.974ZM197.917 69.528H200.249V82.002C200.249 84.158 199.083 85.258 196.795 85.258H195.717V83.344H196.597C197.477 83.344 197.917 82.86 197.917 81.914V69.528ZM218.076 77.756C218.516 77.756 218.912 77.91 219.242 78.218C219.55 78.526 219.726 78.922 219.726 79.406C219.726 79.846 219.55 80.242 219.242 80.572C218.912 80.858 218.516 81.012 218.076 81.012C217.592 81.012 217.218 80.858 216.932 80.572C216.602 80.242 216.448 79.846 216.448 79.406C216.448 78.922 216.602 78.526 216.932 78.218C217.218 77.91 217.592 77.756 218.076 77.756ZM238.853 65.854V69.528H241.449V71.464H238.853V78.064C238.853 78.372 238.919 78.592 239.051 78.746C239.183 78.878 239.381 78.966 239.667 78.966H241.163V80.902H239.293C238.325 80.902 237.599 80.638 237.159 80.132C236.719 79.648 236.521 78.966 236.521 78.064V71.464H234.409V69.528H236.521V66.822L238.853 65.854ZM255.116 69.528H257.646L260.506 77.998L263.366 69.528H265.896L261.672 80.902H259.34L255.116 69.528Z"
            fill="#FAC33D" />
    </g>
    <defs>
        <clipPath id="clip0_23882_144865">
            <rect width="271.022" height="80.0895" fill="white" transform="translate(7.75 7.74988)" />
        </clipPath>
    </defs>
</svg>