<svg width="188" height="67" viewBox="0 0 188 67" fill="none" xmlns="http://www.w3.org/2000/svg">
<path d="M10.6744 53.0506C6.98821 44.5897 10.8589 34.7426 19.3198 31.0565L38.5647 22.6721C44.4873 20.0918 51.3803 22.8013 53.9606 28.7239C56.5409 34.6465 53.8314 41.5395 47.9088 44.1198L19.472 56.5088C16.0877 57.9833 12.1488 56.435 10.6744 53.0506Z" fill="url(#paint0_linear_13071_72082)"/>
<path d="M10.9327 13.6559C12.4296 10.2814 16.3786 8.75921 19.7531 10.2561L48.1097 22.8343C54.0151 25.4538 56.6788 32.3645 54.0593 38.2699C51.4399 44.1753 44.5291 46.8391 38.6237 44.2196L19.4323 35.7068C10.996 31.9647 7.19061 22.0922 10.9327 13.6559Z" fill="#FAC33D"/>
<g clip-path="url(#clip0_13071_72082)">
<path d="M73.5931 33.8367H71.5624C71.3627 33.8367 71.2628 33.8045 71.1962 33.7401C71.1296 33.6757 71.0963 33.5147 71.1296 33.2894L71.8953 26.5285C71.9619 26.0134 72.2282 25.7559 72.6943 25.7559H99.127C100.026 25.7559 100.758 25.8202 101.324 25.9168C101.89 26.0134 102.323 26.2066 102.623 26.4641C102.922 26.7217 103.122 27.108 103.188 27.5587C103.255 28.0095 103.255 28.589 103.188 29.2651L102.756 33.2894C102.756 33.4825 102.689 33.6113 102.623 33.6757C102.556 33.7401 102.456 33.7401 102.256 33.7401H99.926C100.259 34.062 100.492 34.4806 100.592 34.9635C100.692 35.4464 100.692 36.0259 100.658 36.702L100.092 43.0121C100.092 43.0121 100.026 43.3019 100.026 43.4307C100.026 43.5594 99.926 43.656 99.8261 43.7526C100.092 44.2033 100.359 44.654 100.658 45.1692C100.958 45.6843 101.191 46.2316 101.424 46.7789C101.657 47.3262 101.857 47.8735 102.057 48.3886C102.256 48.9037 102.389 49.3866 102.456 49.8052C102.523 49.9983 102.523 50.1593 102.456 50.3203C102.423 50.4813 102.29 50.61 102.123 50.6744C101.291 50.9642 100.525 51.1895 99.7595 51.3827C99.0271 51.5759 98.095 51.7368 97.0297 51.93C96.5636 51.9944 96.2973 51.8656 96.2307 51.4793L95.8978 50.1915C93.9337 50.3847 91.8697 50.5778 89.7724 50.7066C87.6418 50.8354 85.5112 50.9642 83.314 51.093C81.1168 51.2217 78.9529 51.3183 76.7557 51.3827C74.5586 51.4471 72.428 51.5115 70.3639 51.5437C70.0976 51.5437 69.9312 51.5437 69.8313 51.4471C69.7647 51.3505 69.6981 51.2217 69.6315 51.0286C69.565 50.7066 69.4651 50.3203 69.3985 49.8696C69.3319 49.4188 69.2653 49.0003 69.2321 48.5818C69.1655 48.1632 69.1322 47.7447 69.0989 47.3584C69.0656 46.9721 69.0323 46.6179 68.999 46.3282C68.999 45.974 69.1988 45.7809 69.565 45.7809C71.2628 45.8452 73.2602 45.8452 75.5906 45.8452H82.6815L82.8812 43.8814H73.2269C72.894 43.8814 72.6277 43.817 72.4612 43.656C72.2948 43.495 72.2282 43.2375 72.2948 42.8512L73.6264 33.8045L73.5931 33.8367ZM92.4023 15.2282C93.1014 15.2282 93.7672 15.3248 94.3998 15.4858C95.0323 15.679 95.5982 15.9043 96.0643 16.2263C96.5304 16.5482 96.9298 16.9024 97.1962 17.3209C97.4625 17.7394 97.5624 18.1257 97.5291 18.5443V18.8018H104.72C105.119 18.8018 105.319 18.995 105.286 19.4135C105.219 19.993 105.086 20.6047 104.953 21.2808C104.82 21.9569 104.72 22.472 104.62 22.8583C104.553 23.0837 104.487 23.2447 104.354 23.3091C104.22 23.3735 104.054 23.4378 103.888 23.4378H96.7634L96.5969 24.5647C96.5304 24.951 96.2973 25.1442 95.9644 25.1442H91.0374C90.5713 25.1442 90.4049 24.951 90.4715 24.5647L90.6379 23.4378H84.9119L84.7788 24.4681C84.7788 24.9188 84.5124 25.112 84.113 25.112H79.3524C79.0861 25.112 78.8863 25.0476 78.7865 24.8866C78.6533 24.7578 78.62 24.5968 78.6533 24.4037L78.7865 23.4057H74.3588C73.0938 23.4057 72.0618 23.0515 71.2628 22.3754C70.4638 21.6671 70.031 20.6369 69.8979 19.2204C69.8979 18.9306 70.031 18.8018 70.2974 18.8018H79.4523L79.8851 15.8399C79.8851 15.518 80.0848 15.3248 80.4177 15.3248C81.0835 15.3248 81.716 15.4214 82.3486 15.5824C82.9811 15.7755 83.5137 16.0331 84.0131 16.355C84.4792 16.677 84.8786 17.0633 85.1783 17.4819C85.4779 17.9004 85.611 18.3189 85.5777 18.8018H91.3703L91.8364 15.6468C91.8364 15.6468 91.903 15.4214 92.0028 15.3248C92.1027 15.2282 92.2359 15.196 92.4356 15.196L92.4023 15.2282ZM77.3883 32.8708H84.0464L84.2461 31.1645C84.2461 30.907 84.4126 30.7782 84.6789 30.7782H90.2717C90.538 30.7782 90.6712 30.907 90.6379 31.1645L90.4715 32.8708H96.5969L96.9631 30.1021H77.6546L77.3883 32.8708ZM83.3473 39.6639L83.6136 37.1205H79.2858L79.0195 39.6639H83.3473ZM89.3063 45.8452C90.2717 45.8452 91.2039 45.8452 92.0694 45.8452C92.9683 45.8452 93.8338 45.8452 94.6994 45.7809C94.5995 45.4589 94.4996 45.1692 94.3998 44.8472C94.2999 44.5253 94.2333 44.2355 94.1334 43.9136H89.506L89.3063 45.8452ZM90.1053 37.1205L89.8722 39.6639H94.0669L94.2999 37.7644C94.2999 37.4747 94.2999 37.3137 94.2 37.2171C94.1001 37.1527 93.9004 37.0883 93.6341 37.0883H90.1053V37.1205Z" fill="#FAC33D"/>
<path d="M121.232 39.8248C120.866 40.0824 120.566 40.018 120.4 39.6639C120.233 39.3419 120.067 38.9878 119.934 38.6336C119.767 38.2795 119.601 37.9254 119.368 37.539L118.502 51.4149C118.436 51.8334 118.169 52.0266 117.737 52.0266H113.009C112.477 52.0266 112.244 51.8012 112.277 51.3183L113.342 40.0824C112.677 40.5331 112.011 40.9194 111.312 41.2414C110.612 41.5633 109.913 41.8531 109.181 42.0463C108.981 42.1106 108.782 42.0463 108.615 41.9819C108.449 41.8853 108.382 41.6921 108.382 41.4024C108.382 41.0482 108.449 40.6297 108.548 40.2112C108.615 39.7604 108.715 39.3419 108.815 38.8912C108.915 38.4405 109.015 38.0219 109.081 37.6356C109.148 37.2493 109.248 36.8951 109.347 36.5732C109.414 36.4444 109.481 36.3156 109.58 36.219C109.68 36.1225 109.747 36.0259 109.847 35.9937C111.645 34.9313 113.143 33.7723 114.274 32.4523C115.406 31.1645 116.272 29.587 116.805 27.7841H113.808C112.81 27.7841 111.977 27.3977 111.278 26.6251C110.579 25.8524 110.18 24.7578 110.113 23.3412C110.113 23.0515 110.213 22.9227 110.446 22.9227H120.666C122.098 22.9227 122.997 23.2768 123.396 23.9529C123.762 24.629 123.796 25.5305 123.429 26.6251C122.83 28.4924 121.931 30.3918 120.766 32.2591C121.399 32.8386 121.998 33.4181 122.497 33.9976C123.03 34.5771 123.463 35.1566 123.829 35.6717L125.826 18.4477C125.893 18.1257 125.993 17.9004 126.159 17.836C126.326 17.7716 126.559 17.7072 126.892 17.7072H139.842C141.639 17.7072 142.805 18.0613 143.37 18.7374C143.936 19.4135 144.136 20.6369 143.936 22.3432L142.671 38.9878C142.605 39.3741 142.405 39.5673 142.039 39.5673H137.478C137.012 39.5673 136.812 39.3741 136.879 38.9556L138.31 23.8241C138.377 23.2446 138.177 22.9871 137.678 22.9871H131.02L128.889 39.1809C128.822 39.5351 128.556 39.7282 128.157 39.7282H123.929C123.563 39.7282 123.396 39.5029 123.463 39.0844L123.529 38.1829C123.163 38.5049 122.797 38.7946 122.397 39.0844C122.031 39.3741 121.665 39.6317 121.265 39.857L121.232 39.8248ZM119.201 15.1638C120.2 15.1638 121.066 15.4858 121.765 16.1618C122.464 16.8379 122.83 17.6428 122.83 18.6408C122.83 19.6389 122.464 20.4437 121.765 21.1198C121.066 21.7959 120.2 22.15 119.201 22.15C118.203 22.15 117.337 21.7959 116.638 21.1198C115.939 20.4437 115.573 19.6067 115.573 18.6408C115.573 17.675 115.939 16.8379 116.638 16.1618C117.337 15.4858 118.203 15.1638 119.201 15.1638ZM131.652 24.5646C131.719 24.2105 131.918 24.0173 132.285 24.0173H136.612C137.079 24.0173 137.278 24.2105 137.212 24.5968C136.945 27.5587 136.679 30.1987 136.413 32.5167C136.146 34.8347 135.747 36.9273 135.214 38.7624C135.148 39.0522 135.048 39.3097 134.981 39.5673C134.915 39.8248 134.815 40.0502 134.715 40.2756H138.144C138.543 40.2756 138.743 40.4687 138.71 40.8551L138.244 45.6842C138.943 45.7486 139.842 45.6198 140.974 45.2979C142.105 44.976 143.204 44.5574 144.269 44.0101C144.402 43.9457 144.536 43.9457 144.702 44.0101C144.835 44.0745 144.935 44.2355 144.935 44.4287C144.935 44.7506 144.935 45.1047 144.869 45.4911C144.802 45.8774 144.769 46.2959 144.702 46.7145C144.635 47.133 144.569 47.5515 144.536 47.9057C144.469 48.292 144.436 48.5817 144.369 48.8393C144.303 49.0325 144.269 49.1934 144.203 49.29C144.136 49.3866 144.003 49.5154 143.837 49.6442C143.37 49.9339 142.705 50.1593 141.806 50.3846C140.907 50.5778 139.942 50.7388 138.876 50.8354C137.811 50.9319 136.779 50.9641 135.714 50.8998C134.648 50.8354 133.749 50.7388 132.95 50.5456C132.385 50.3846 132.152 50.0305 132.218 49.5154L132.817 44.2355C131.552 46.1672 129.921 47.7447 127.957 48.9359C125.993 50.1593 123.662 51.0607 120.933 51.7046C120.2 51.8978 119.867 51.6402 120 50.9641C120.134 50.2881 120.267 49.612 120.433 48.8715C120.566 48.1632 120.766 47.3905 120.966 46.5535C121.032 46.1994 121.232 45.9418 121.532 45.813C122.564 45.3301 123.496 44.8472 124.362 44.3965C125.194 43.9457 125.959 43.4628 126.592 42.9155C127.258 42.3682 127.824 41.7565 128.29 41.0804C128.756 40.4043 129.155 39.5995 129.488 38.6658C130.021 37.1527 130.454 35.2532 130.753 32.9996C131.086 30.746 131.386 27.9129 131.685 24.468L131.652 24.5646Z" fill="#FAC33D"/>
<path d="M167.673 26.3029C167.673 25.9166 167.739 25.659 167.872 25.498C168.005 25.3371 168.205 25.2727 168.505 25.2727H172.3L172.932 22.9225H170.303C169.304 22.9225 168.438 22.5361 167.772 21.7957C167.107 21.0552 166.74 20.025 166.707 18.7372C166.707 18.4152 166.874 18.2221 167.173 18.2221H184.584C184.784 18.2221 184.95 18.2543 185.05 18.3509C185.15 18.4152 185.15 18.5762 185.117 18.8016C185.05 19.4455 184.95 20.0894 184.817 20.7011C184.684 21.3449 184.551 21.8923 184.384 22.4074C184.318 22.7293 184.052 22.8581 183.619 22.8581H178.891C178.725 23.3088 178.559 23.6951 178.359 24.0815C178.159 24.4678 177.959 24.8542 177.726 25.2083H179.89C180.789 25.2083 181.521 25.2727 182.054 25.3693C182.587 25.4658 182.986 25.659 183.253 25.9166C183.519 26.1741 183.652 26.5283 183.719 26.979C183.785 27.4297 183.785 28.0092 183.752 28.7497L182.886 42.4002C182.886 42.7221 182.82 42.9153 182.72 43.0119C182.587 43.1084 182.42 43.1728 182.154 43.1728H178.492C178.026 43.1728 177.826 42.9797 177.826 42.4646L178.858 29.8443H172.267L170.802 42.2392C170.802 42.6899 170.569 42.8831 170.069 42.8831H166.641C166.174 42.8831 165.941 42.6577 165.975 42.1748L166.541 36.9915C165.975 39.1485 165.142 41.0802 164.044 42.7865C162.945 44.4928 161.614 45.9416 160.082 47.1972C158.551 48.4205 156.82 49.4508 154.856 50.2234C152.925 50.9961 150.828 51.5756 148.597 51.8976C148.297 51.9619 148.064 51.8976 147.931 51.7688C147.798 51.64 147.731 51.4146 147.765 51.1249C147.898 50.5454 148.064 49.8049 148.297 48.9679C148.53 48.1308 148.73 47.3903 148.93 46.7786C149.063 46.4567 149.263 46.2313 149.562 46.1669C151.26 45.7806 152.792 45.2655 154.123 44.6538C155.455 44.0421 156.587 43.2372 157.552 42.2714H155.721C155.721 42.2714 155.422 42.2392 155.322 42.1426C155.222 42.046 155.189 41.9173 155.189 41.6919L156.187 32.9994H152.592C151.56 32.9994 150.728 32.5808 150.062 31.776C149.396 30.9711 149.063 29.9731 149.03 28.7819C149.03 28.4921 149.163 28.3634 149.463 28.3634H152.059L152.991 19.0591C152.991 18.7372 153.191 18.5762 153.557 18.6406C155.022 18.8338 156.021 19.2523 156.587 19.8318C157.153 20.4113 157.386 21.2484 157.319 22.343L156.853 28.3634H157.885L159.117 15.7753C159.117 15.4533 159.317 15.2924 159.749 15.3568C161.181 15.4855 162.313 15.9041 163.112 16.5802C163.911 17.2884 164.277 18.1577 164.177 19.2523L164.011 21.2162H166.607C166.973 21.2162 167.14 21.4093 167.14 21.8279C167.073 22.3752 167.007 22.9547 166.907 23.5342C166.807 24.1459 166.707 24.6932 166.607 25.2083C166.541 25.6268 166.308 25.82 165.975 25.82H163.611L163.378 28.3312H166.541C166.94 28.3312 167.107 28.4921 167.073 28.9107C167.073 29.136 167.007 29.4258 166.94 29.7477C166.874 30.0697 166.84 30.3916 166.774 30.7458C166.707 31.0999 166.674 31.3896 166.607 31.6794C166.541 31.9691 166.507 32.2267 166.474 32.3877C166.408 32.774 166.241 32.9672 165.908 32.9672H161.78L161.148 38.3437C161.614 37.3134 162.08 36.1222 162.479 34.7379C162.479 34.5125 162.679 34.3837 162.945 34.3837H166.707H166.74C166.74 34.3837 166.74 34.3837 166.774 34.3837L167.639 26.1419L167.673 26.3029ZM154.889 34.4481C155.355 34.4481 155.555 34.6735 155.488 35.1564C155.155 37.6676 154.423 39.6958 153.358 41.2412C152.292 42.7865 150.794 43.8811 148.897 44.4928C148.697 44.5572 148.497 44.525 148.331 44.364C148.164 44.2031 148.098 44.0421 148.131 43.8167C148.198 43.2694 148.264 42.5933 148.397 41.7885C148.53 40.9836 148.63 40.2431 148.763 39.5671C148.83 39.3417 148.963 39.1163 149.163 38.9232C149.363 38.73 149.529 38.5368 149.696 38.3115C149.862 38.0861 149.995 37.8285 150.128 37.5388C150.262 37.249 150.395 36.8949 150.495 36.4442C150.594 35.9935 150.728 35.4783 150.861 34.8345C150.961 34.5447 151.16 34.4159 151.427 34.4159H154.856L154.889 34.4481ZM177.527 30.9711C177.726 30.9711 177.893 31.0033 177.959 31.0999C178.026 31.1965 178.059 31.3253 178.026 31.5506C177.926 33.5145 177.76 35.4462 177.593 37.3134C177.393 39.2129 177.094 40.9192 176.628 42.4646C176.195 43.9133 175.562 45.1689 174.763 46.2313C173.931 47.2937 172.966 48.2274 171.834 48.9679C170.702 49.7405 169.437 50.3522 168.005 50.8351C166.607 51.3181 165.109 51.6722 163.545 51.8976C163.278 51.9619 163.078 51.8976 162.912 51.7688C162.746 51.64 162.712 51.4468 162.779 51.1571C162.979 50.3522 163.178 49.5474 163.411 48.6781C163.644 47.841 163.877 47.1328 164.044 46.6177C164.11 46.2957 164.31 46.1347 164.577 46.0703C165.442 45.845 166.208 45.6196 166.94 45.3621C167.673 45.1367 168.338 44.847 168.904 44.525C169.47 44.2031 170.003 43.8167 170.436 43.3982C170.868 42.9475 171.201 42.4324 171.434 41.8207C171.701 41.0802 171.934 40.3397 172.1 39.5671C172.267 38.8266 172.4 38.0217 172.533 37.2169C172.633 36.3798 172.733 35.5105 172.799 34.5769C172.866 33.6433 172.932 32.5808 172.966 31.4218C172.966 31.0999 173.099 30.9067 173.365 30.9067H177.56L177.527 30.9711ZM178.958 43.9455C180.023 43.9455 180.922 44.2996 181.655 45.0401C182.387 45.7484 182.753 46.6498 182.753 47.7123C182.753 48.7747 182.387 49.6117 181.655 50.3522C180.922 51.0605 180.023 51.4468 178.958 51.4468C177.893 51.4468 176.994 51.0927 176.228 50.3522C175.496 49.6439 175.096 48.7425 175.096 47.7123C175.096 46.682 175.463 45.7806 176.228 45.0401C176.961 44.3318 177.893 43.9455 178.958 43.9455Z" fill="#FAC33D"/>
</g>
<defs>
<linearGradient id="paint0_linear_13071_72082" x1="36.3736" y1="33.1973" x2="7.07595" y2="49.6272" gradientUnits="userSpaceOnUse">
<stop stop-color="#E39600"/>
<stop offset="1" stop-color="#FAC33D"/>
</linearGradient>
<clipPath id="clip0_13071_72082">
<rect width="116.118" height="36.8627" fill="white" transform="translate(69.0325 15.1638)"/>
</clipPath>
</defs>
</svg>
