<svg width="512" height="512" viewBox="0 0 512 512" fill="none" xmlns="http://www.w3.org/2000/svg">
<rect width="512" height="512" fill="url(#paint0_linear_21730_65466)"/>
<g style="mix-blend-mode:screen" opacity="0.1">
<rect width="512" height="512" fill="url(#paint1_linear_21730_65466)"/>
</g>
<path d="M142.92 370.385C121.249 320.642 144.005 262.749 193.748 241.077L306.892 191.784C341.712 176.614 382.237 192.544 397.407 227.364C412.577 262.184 396.647 302.709 361.827 317.879L194.643 390.716C174.746 399.384 151.589 390.282 142.92 370.385Z" fill="url(#paint2_linear_21730_65466)"/>
<path d="M144.439 138.776C153.24 118.937 176.456 109.988 196.296 118.788L363.008 192.738C397.727 208.138 413.388 248.768 397.987 283.486C382.587 318.205 341.958 333.866 307.239 318.465L194.409 268.417C144.811 246.417 122.439 188.375 144.439 138.776Z" fill="#18BC52"/>
<defs>
<linearGradient id="paint0_linear_21730_65466" x1="256" y1="0" x2="256" y2="512" gradientUnits="userSpaceOnUse">
<stop stop-color="#17181A"/>
<stop offset="1"/>
</linearGradient>
<linearGradient id="paint1_linear_21730_65466" x1="320.25" y1="-161.75" x2="256" y2="512" gradientUnits="userSpaceOnUse">
<stop stop-color="white"/>
<stop offset="1" stop-color="white" stop-opacity="0.01"/>
</linearGradient>
<linearGradient id="paint2_linear_21730_65466" x1="294.01" y1="253.664" x2="121.765" y2="350.257" gradientUnits="userSpaceOnUse">
<stop stop-color="#179945"/>
<stop offset="1" stop-color="#18BC52"/>
</linearGradient>
</defs>
</svg>
