<svg width="118" height="97" viewBox="0 0 338 97" fill="none" xmlns="http://www.w3.org/2000/svg">
<g clip-path="url(#clip0_23882_144865)">
<path fill-rule="evenodd" clip-rule="evenodd" d="M45.9765 10.4999C24.9897 10.4999 7.97656 27.513 7.97656 48.4998C7.97656 69.4866 24.9897 86.4998 45.9765 86.4998C66.9633 86.4998 83.9765 69.4866 83.9765 48.4998C83.9765 27.513 66.9633 10.4999 45.9765 10.4999ZM67.0726 66.5451C69.7566 61.913 71.0758 56.5433 71.5993 51.3172L71.5929 51.3076C71.63 50.9379 71.6636 50.5692 71.6929 50.2012C72.0029 46.3461 71.9036 42.6039 71.6379 39.3322C71.4765 37.3963 71.2565 35.6198 71.0237 34.0816C70.9787 33.7882 70.933 33.5026 70.888 33.2328C70.7266 32.2097 70.5644 31.3057 70.4159 30.5602C70.1123 29.0211 69.1938 27.7921 67.9782 27.292L66.3869 26.642L65.5656 26.3012L63.8008 25.5794C63.3287 25.3806 62.8694 25.9123 63.0115 26.5071C63.2444 27.475 63.4579 28.7277 63.6258 30.1871C64.1886 34.9304 64.3114 41.7981 63.1858 47.7625C63.1022 48.1988 63.0115 48.635 62.9144 49.0634C62.7009 50.0234 62.4423 50.9511 62.1516 51.8393C61.4474 53.9793 60.5111 55.8574 59.2969 57.2835L59.2948 57.2801C59.1702 57.0728 56.4432 52.5364 53.5574 46.827C52.9314 45.5877 52.3193 44.3254 51.7259 43.1015C49.4257 38.3577 47.4062 34.1929 45.9459 34.1929C44.4911 34.1929 42.4852 38.3269 40.194 43.049C39.5922 44.2892 38.9708 45.5699 38.3345 46.827C35.3855 52.6724 32.5986 57.2879 32.5986 57.2879C31.383 55.8609 30.4452 53.9811 29.7403 51.8393C29.4496 50.9511 29.1903 50.0234 28.9775 49.0634C28.8804 48.635 28.7897 48.1988 28.7054 47.7625C27.5805 41.7981 27.7033 34.9304 28.2661 30.1871C28.434 28.7277 28.6475 27.475 28.8804 26.5071C29.0225 25.9123 28.5632 25.3806 28.0911 25.5794L26.3256 26.3021L25.5042 26.6429L23.9137 27.2928C22.6981 27.793 21.7796 29.022 21.476 30.5611C21.3268 31.3065 21.1653 32.2105 21.0039 33.2337C20.9582 33.5035 20.9132 33.789 20.8682 34.0825C20.6354 35.6207 20.4154 37.3972 20.2533 39.3331C19.9876 42.6057 19.889 46.3478 20.199 50.203C20.2283 50.5709 20.2619 50.9388 20.299 51.3085L20.3033 51.3488C20.8289 56.5634 22.1424 61.9253 24.8257 66.5451C31.0246 77.2242 35.5106 70.2297 39.5393 63.9479C41.7431 60.5117 43.8102 57.2887 45.9459 57.2887C48.0816 57.2887 50.1492 60.5112 52.3539 63.9471C56.3847 70.2291 60.8734 77.2247 67.0726 66.5451Z" fill="#FAC33D"/>
<path d="M281.055 23.1462C281.055 21.9142 281.583 21.0562 282.639 20.5722C283.035 20.3082 283.497 20.1762 284.025 20.1762H307.389C307.961 20.1762 308.467 20.3522 308.907 20.7042C309.347 21.0562 309.677 21.4962 309.897 22.0243C309.985 22.2442 310.051 22.4642 310.095 22.6842C310.139 22.8602 310.161 23.0582 310.161 23.2782V28.8222C310.161 31.6822 309.435 33.9482 307.983 35.6202C306.575 37.2482 304.375 38.0622 301.383 38.0622H300.063V44.5303H308.181C309.017 44.5303 309.699 44.8162 310.227 45.3883C310.799 45.9603 311.085 46.6643 311.085 47.5003C311.085 48.3363 310.799 49.0403 310.227 49.6123C309.699 50.1842 309.017 50.4702 308.181 50.4702H300.063V57.0703H306.597C307.169 57.0703 307.675 57.2463 308.115 57.5983C308.555 57.8183 308.907 58.1483 309.171 58.5882C309.435 59.0282 309.567 59.5343 309.567 60.1063V70.2043C309.567 72.9762 308.687 75.0443 306.927 76.4083C305.167 77.8163 302.945 78.5203 300.261 78.5203H295.509C292.781 78.5203 290.537 77.8163 288.777 76.4083C287.061 75.0443 286.203 72.9762 286.203 70.2043V60.1063C286.203 59.5343 286.313 59.0723 286.533 58.7203C286.753 58.2363 287.083 57.8403 287.523 57.5323C287.963 57.2243 288.469 57.0703 289.041 57.0703H294.321V50.4702H285.939C285.763 53.5062 285.543 56.2563 285.279 58.7203C285.015 61.1403 284.685 63.4283 284.289 65.5843C283.937 67.6963 283.541 69.7202 283.101 71.6562C282.705 73.5482 282.243 75.4403 281.715 77.3323C281.539 77.9043 281.231 78.3663 280.791 78.7183C280.395 79.1143 279.911 79.3343 279.339 79.3783C278.591 79.4663 277.865 79.2463 277.161 78.7183C276.457 78.2343 276.061 77.5963 275.973 76.8043C275.973 76.3643 276.017 76.0343 276.105 75.8143C276.633 73.8783 277.117 71.9642 277.557 70.0723C277.997 68.1362 278.393 66.0902 278.745 63.9342C279.141 61.7342 279.471 59.3363 279.735 56.7402C280.043 54.1442 280.285 51.2183 280.461 47.9622C280.637 44.7062 280.769 41.0543 280.857 37.0063C280.989 32.9143 281.055 28.2942 281.055 23.1462ZM318.543 79.1803C317.751 79.1803 317.069 78.8942 316.497 78.3223C315.925 77.7943 315.639 77.1123 315.639 76.2763C315.639 75.4843 315.925 74.8022 316.497 74.2303C317.069 73.7023 317.751 73.4383 318.543 73.4383C319.687 73.4383 320.589 73.3283 321.249 73.1083C321.953 72.9323 322.481 72.6023 322.833 72.1183C323.229 71.6783 323.493 71.0843 323.625 70.3363C323.757 69.5882 323.823 68.6423 323.823 67.4983V21.0343C323.823 20.1982 324.087 19.5162 324.615 18.9882C325.187 18.4162 325.869 18.1302 326.661 18.1302C327.497 18.1302 328.179 18.4162 328.707 18.9882C329.279 19.5162 329.565 20.1982 329.565 21.0343V67.4983C329.565 71.1943 328.641 74.0543 326.793 76.0783C324.989 78.1463 322.239 79.1803 318.543 79.1803ZM313.857 28.8222C313.857 28.0742 314.143 27.4362 314.715 26.9083C315.287 26.3363 315.969 26.0502 316.761 26.0502C317.509 26.0502 318.147 26.3363 318.675 26.9083C319.247 27.4362 319.533 28.0742 319.533 28.8222V62.2183C319.533 63.0103 319.247 63.6923 318.675 64.2643C318.147 64.7923 317.509 65.0563 316.761 65.0563C315.969 65.0563 315.287 64.7923 314.715 64.2643C314.143 63.6923 313.857 63.0103 313.857 62.2183V28.8222ZM300.261 72.7123C302.725 72.7123 303.957 71.4583 303.957 68.9503V62.8783H291.813V68.9503C291.813 71.4583 293.045 72.7123 295.509 72.7123H300.261ZM301.383 32.1222C302.747 32.1222 303.627 31.9463 304.023 31.5942C304.463 31.1982 304.683 30.2742 304.683 28.8222V26.1162H286.599C286.599 27.1722 286.599 28.2062 286.599 29.2182C286.599 30.1862 286.577 31.1542 286.533 32.1222H301.383ZM286.203 44.5303H294.321V38.0622H286.467L286.203 44.5303Z" fill="#F9C33B"/>
<path d="M264.991 49.4143C265.563 49.4143 266.069 49.5683 266.509 49.8763C266.949 50.1403 267.279 50.5143 267.499 50.9983C267.499 51.0423 267.521 51.0643 267.565 51.0643C267.565 51.1523 267.587 51.1963 267.631 51.1963C267.719 51.4163 267.785 51.6363 267.829 51.8563C267.873 52.0323 267.895 52.2303 267.895 52.4503V60.8323C267.895 63.6043 266.993 65.6723 265.189 67.0363C263.385 68.4003 261.097 69.0823 258.325 69.0823H246.181C243.453 69.0823 241.187 68.4003 239.383 67.0363C237.579 65.6283 236.677 63.5603 236.677 60.8323V28.7563C236.677 27.9643 236.941 27.2823 237.469 26.7103C238.041 26.1383 238.723 25.8523 239.515 25.8523C239.603 25.8523 239.691 25.8743 239.779 25.9183C239.911 25.9183 240.021 25.9183 240.109 25.9183H246.115C246.115 25.9183 246.137 25.8963 246.181 25.8523L250.603 19.6483C250.867 19.2083 251.285 18.8783 251.857 18.6583C252.605 18.3063 253.331 18.3063 254.035 18.6583C254.783 18.9663 255.333 19.4943 255.685 20.2423C255.905 20.7263 255.971 21.2323 255.883 21.7603C255.795 22.2443 255.619 22.6623 255.355 23.0143L253.243 25.9183H262.747C263.319 25.9183 263.825 26.0723 264.265 26.3803C264.749 26.6883 265.101 27.0843 265.321 27.5683C265.321 27.5683 265.343 27.5903 265.387 27.6343C265.387 27.6783 265.387 27.7223 265.387 27.7663C265.431 27.7663 265.453 27.7883 265.453 27.8323C265.629 28.1403 265.717 28.5143 265.717 28.9543V36.8083C265.717 42.3083 262.967 45.0583 257.467 45.0583H242.419V49.4143H264.991ZM268.423 72.7123C269.259 72.7123 269.963 72.9983 270.535 73.5703C271.107 74.1423 271.393 74.8463 271.393 75.6823C271.393 76.5183 271.107 77.2223 270.535 77.7943C269.963 78.3663 269.259 78.6523 268.423 78.6523H241.561C239.185 78.6523 236.875 78.2343 234.631 77.3983C232.431 76.5623 230.539 75.2203 228.955 73.3723C228.383 74.3403 227.723 75.2423 226.975 76.0783C226.227 76.9583 225.347 77.8383 224.335 78.7183C224.071 78.9383 223.653 79.0923 223.081 79.1803C222.553 79.3123 222.113 79.3783 221.761 79.3783C220.925 79.3783 220.221 79.0923 219.649 78.5203C219.077 77.9483 218.791 77.2443 218.791 76.4083C218.791 75.4843 219.143 74.7143 219.847 74.0983C220.771 73.3503 221.563 72.6023 222.223 71.8543C222.927 71.1503 223.499 70.3803 223.939 69.5443C224.423 68.7083 224.775 67.8063 224.995 66.8383C225.215 65.8703 225.325 64.7483 225.325 63.4723V43.0783H222.157C221.321 43.0783 220.617 42.7923 220.045 42.2203C219.473 41.6483 219.187 40.9443 219.187 40.1083C219.187 39.2723 219.473 38.5683 220.045 37.9963C220.617 37.4243 221.321 37.1383 222.157 37.1383H228.163C228.999 37.1383 229.725 37.4463 230.341 38.0623C230.605 38.3263 230.825 38.6563 231.001 39.0523C231.177 39.4043 231.265 39.8003 231.265 40.2403V63.4723C231.265 63.7363 231.265 64.0003 231.265 64.2643C231.265 64.4843 231.243 64.7043 231.199 64.9243C231.903 67.8283 233.135 69.8523 234.895 70.9963C236.699 72.1403 238.921 72.7123 241.561 72.7123H268.423ZM258.325 63.3403C259.601 63.3403 260.547 63.1863 261.163 62.8783C261.823 62.5263 262.153 61.8443 262.153 60.8323V55.1563H242.419V60.8323C242.419 61.9323 242.727 62.6363 243.343 62.9443C243.959 63.2083 244.905 63.3403 246.181 63.3403H258.325ZM257.467 39.3163C258.083 39.3163 258.567 39.3163 258.919 39.3163C259.271 39.2723 259.513 39.1843 259.645 39.0523C259.821 38.8763 259.909 38.6123 259.909 38.2603C259.953 37.9083 259.975 37.4243 259.975 36.8083V31.7263H242.419V39.3163H257.467ZM231.595 29.7463C231.815 30.1863 231.925 30.6483 231.925 31.1323C231.925 31.9683 231.639 32.6723 231.067 33.2443C230.495 33.8163 229.791 34.1023 228.955 34.1023C228.383 34.1023 227.855 33.9703 227.371 33.7063C226.931 33.3983 226.579 33.0023 226.315 32.5183L222.091 24.4003C221.871 23.9603 221.761 23.4983 221.761 23.0143C221.761 22.1783 222.047 21.4743 222.619 20.9023C223.191 20.3303 223.895 20.0443 224.731 20.0443C225.303 20.0443 225.809 20.1983 226.249 20.5063C226.733 20.7703 227.107 21.1443 227.371 21.6283L231.595 29.7463Z" fill="#F9C33B"/>
<path d="M163.918 77.7283C163.346 78.4323 162.642 78.7843 161.806 78.7843C161.058 78.7843 160.398 78.4983 159.826 77.9263C159.298 77.3543 159.034 76.6503 159.034 75.8143C159.034 75.1543 159.232 74.5163 159.628 73.9003C162.752 69.8963 165.26 66.0243 167.152 62.2843C166.228 61.4483 165.282 60.6343 164.314 59.8423C163.346 59.0063 162.312 58.1483 161.212 57.2683C160.728 56.9163 160.398 56.4983 160.222 56.0143C160.002 55.3543 159.958 54.7163 160.09 54.1003C160.75 51.0203 161.344 47.9403 161.872 44.8603C162.444 41.7363 162.972 38.5903 163.456 35.4223H161.674C160.926 35.4223 160.266 35.1363 159.694 34.5643C159.166 33.9923 158.902 33.2883 158.902 32.4523C158.902 31.6163 159.166 30.9123 159.694 30.3403C160.266 29.7683 160.926 29.4823 161.674 29.4823H164.38L165.568 20.3743C165.656 19.6263 165.942 19.0103 166.426 18.5263C166.954 18.0423 167.592 17.8003 168.34 17.8003C169.176 17.8003 169.858 18.1523 170.386 18.8563C170.958 19.5163 171.2 20.2863 171.112 21.1663C170.936 22.5743 170.76 23.9603 170.584 25.3243C170.452 26.6883 170.276 28.0743 170.056 29.4823H176.128C176.744 29.4823 177.272 29.6803 177.712 30.0763C178.196 30.4283 178.548 30.9123 178.768 31.5283C178.9 31.9243 178.966 32.3203 178.966 32.7163C178.702 38.5243 178.174 43.6943 177.382 48.2263C176.634 52.7143 175.49 56.9163 173.95 60.8323C174.566 61.4483 175.182 62.0863 175.798 62.7463C176.414 63.3623 177.052 64.0443 177.712 64.7923C178.24 65.4083 178.504 66.1123 178.504 66.9043C178.504 67.7403 178.24 68.4443 177.712 69.0163C177.184 69.5883 176.546 69.8743 175.798 69.8743C174.962 69.8743 174.302 69.5883 173.818 69.0163L171.376 66.4423C169.396 70.0943 166.91 73.8563 163.918 77.7283ZM191.506 51.0643C191.506 50.2283 191.792 49.5243 192.364 48.9523C192.936 48.3803 193.64 48.0943 194.476 48.0943C195.312 48.0943 196.016 48.3803 196.588 48.9523C197.16 49.5243 197.446 50.2283 197.446 51.0643V55.4863H205.102C205.938 55.4863 206.642 55.7723 207.214 56.3443C207.786 56.9163 208.072 57.6203 208.072 58.4563C208.072 59.2923 207.786 59.9963 207.214 60.5683C206.642 61.1403 205.938 61.4263 205.102 61.4263H197.446V71.1943H208.204C209.04 71.1943 209.744 71.4803 210.316 72.0523C210.888 72.6243 211.174 73.3283 211.174 74.1643C211.174 75.0003 210.888 75.7043 210.316 76.2763C209.744 76.8483 209.04 77.1343 208.204 77.1343H180.748C179.912 77.1343 179.208 76.8483 178.636 76.2763C178.064 75.7043 177.778 75.0003 177.778 74.1643C177.778 73.3283 178.064 72.6243 178.636 72.0523C179.208 71.4803 179.912 71.1943 180.748 71.1943H191.506V61.4263H183.85C183.014 61.4263 182.31 61.1403 181.738 60.5683C181.166 59.9963 180.88 59.2923 180.88 58.4563C180.88 57.6203 181.166 56.9163 181.738 56.3443C182.31 55.7723 183.014 55.4863 183.85 55.4863H191.506V51.0643ZM191.506 20.5723C191.506 19.7363 191.792 19.0323 192.364 18.4603C192.936 17.8883 193.64 17.6023 194.476 17.6023C195.312 17.6023 196.016 17.8883 196.588 18.4603C197.16 19.0323 197.446 19.7363 197.446 20.5723V25.9843H204.442C205.278 25.9843 205.982 26.2703 206.554 26.8423C207.126 27.4143 207.412 28.1183 207.412 28.9543C207.412 29.7903 207.126 30.4943 206.554 31.0663C205.982 31.6383 205.278 31.9243 204.442 31.9243H197.446V40.0423H207.544C208.38 40.0423 209.084 40.3283 209.656 40.9003C210.228 41.4723 210.514 42.1763 210.514 43.0123C210.514 43.8483 210.228 44.5523 209.656 45.1243C209.084 45.6963 208.38 45.9823 207.544 45.9823H181.408C180.572 45.9823 179.868 45.6963 179.296 45.1243C178.724 44.5523 178.438 43.8483 178.438 43.0123C178.438 42.1763 178.724 41.4723 179.296 40.9003C179.868 40.3283 180.572 40.0423 181.408 40.0423H191.506V31.9243H184.51C183.674 31.9243 182.97 31.6383 182.398 31.0663C181.826 30.4943 181.54 29.7903 181.54 28.9543C181.54 28.1183 181.826 27.4143 182.398 26.8423C182.97 26.2703 183.674 25.9843 184.51 25.9843H191.506V20.5723ZM169.528 56.7403C170.628 53.7043 171.464 50.4923 172.036 47.1043C172.608 43.7163 173.026 39.8223 173.29 35.4223H169.132C168.648 38.5023 168.142 41.5603 167.614 44.5963C167.086 47.5883 166.514 50.6023 165.898 53.6383C166.514 54.1663 167.13 54.6943 167.746 55.2223C168.362 55.7063 168.956 56.2123 169.528 56.7403Z" fill="#F9C33B"/>
<path d="M104.493 77.7283C103.921 78.4323 103.217 78.7843 102.381 78.7843C101.633 78.7843 100.973 78.4983 100.401 77.9263C99.8726 77.3543 99.6086 76.6503 99.6086 75.8143C99.6086 75.1543 99.8066 74.5163 100.203 73.9003C103.327 69.8963 105.835 66.0243 107.727 62.2843C106.803 61.4483 105.857 60.6343 104.889 59.8423C103.921 59.0063 102.887 58.1483 101.787 57.2683C101.303 56.9163 100.973 56.4983 100.797 56.0143C100.577 55.3543 100.533 54.7163 100.665 54.1003C101.325 51.0203 101.919 47.9403 102.447 44.8603C103.019 41.7363 103.547 38.5903 104.031 35.4223H102.249C101.501 35.4223 100.841 35.1363 100.269 34.5643C99.7406 33.9923 99.4766 33.2883 99.4766 32.4523C99.4766 31.6163 99.7406 30.9123 100.269 30.3403C100.841 29.7683 101.501 29.4823 102.249 29.4823H104.955L106.143 20.3743C106.231 19.6263 106.517 19.0103 107.001 18.5263C107.529 18.0423 108.167 17.8003 108.915 17.8003C109.751 17.8003 110.433 18.1523 110.961 18.8563C111.533 19.5163 111.775 20.2863 111.687 21.1663C111.511 22.5743 111.335 23.9603 111.159 25.3243C111.027 26.6883 110.851 28.0743 110.631 29.4823H116.703C117.319 29.4823 117.847 29.6803 118.287 30.0763C118.771 30.4283 119.123 30.9123 119.343 31.5283C119.475 31.9243 119.541 32.3203 119.541 32.7163C119.277 38.5243 118.749 43.6943 117.957 48.2263C117.209 52.7143 116.065 56.9163 114.525 60.8323C115.141 61.4483 115.757 62.0863 116.373 62.7463C116.989 63.3623 117.627 64.0443 118.287 64.7923C118.815 65.4083 119.079 66.1123 119.079 66.9043C119.079 67.7403 118.815 68.4443 118.287 69.0163C117.759 69.5883 117.121 69.8743 116.373 69.8743C115.537 69.8743 114.877 69.5883 114.393 69.0163L111.951 66.4423C109.971 70.0943 107.485 73.8563 104.493 77.7283ZM132.081 51.0643C132.081 50.2283 132.367 49.5243 132.939 48.9523C133.511 48.3803 134.215 48.0943 135.051 48.0943C135.887 48.0943 136.591 48.3803 137.163 48.9523C137.735 49.5243 138.021 50.2283 138.021 51.0643V55.4863H145.677C146.513 55.4863 147.217 55.7723 147.789 56.3443C148.361 56.9163 148.647 57.6203 148.647 58.4563C148.647 59.2923 148.361 59.9963 147.789 60.5683C147.217 61.1403 146.513 61.4263 145.677 61.4263H138.021V71.1943H148.779C149.615 71.1943 150.319 71.4803 150.891 72.0523C151.463 72.6243 151.749 73.3283 151.749 74.1643C151.749 75.0003 151.463 75.7043 150.891 76.2763C150.319 76.8483 149.615 77.1343 148.779 77.1343H121.323C120.487 77.1343 119.783 76.8483 119.211 76.2763C118.639 75.7043 118.353 75.0003 118.353 74.1643C118.353 73.3283 118.639 72.6243 119.211 72.0523C119.783 71.4803 120.487 71.1943 121.323 71.1943H132.081V61.4263H124.425C123.589 61.4263 122.885 61.1403 122.313 60.5683C121.741 59.9963 121.455 59.2923 121.455 58.4563C121.455 57.6203 121.741 56.9163 122.313 56.3443C122.885 55.7723 123.589 55.4863 124.425 55.4863H132.081V51.0643ZM132.081 20.5723C132.081 19.7363 132.367 19.0323 132.939 18.4603C133.511 17.8883 134.215 17.6023 135.051 17.6023C135.887 17.6023 136.591 17.8883 137.163 18.4603C137.735 19.0323 138.021 19.7363 138.021 20.5723V25.9843H145.017C145.853 25.9843 146.557 26.2703 147.129 26.8423C147.701 27.4143 147.987 28.1183 147.987 28.9543C147.987 29.7903 147.701 30.4943 147.129 31.0663C146.557 31.6383 145.853 31.9243 145.017 31.9243H138.021V40.0423H148.119C148.955 40.0423 149.659 40.3283 150.231 40.9003C150.803 41.4723 151.089 42.1763 151.089 43.0123C151.089 43.8483 150.803 44.5523 150.231 45.1243C149.659 45.6963 148.955 45.9823 148.119 45.9823H121.983C121.147 45.9823 120.443 45.6963 119.871 45.1243C119.299 44.5523 119.013 43.8483 119.013 43.0123C119.013 42.1763 119.299 41.4723 119.871 40.9003C120.443 40.3283 121.147 40.0423 121.983 40.0423H132.081V31.9243H125.085C124.249 31.9243 123.545 31.6383 122.973 31.0663C122.401 30.4943 122.115 29.7903 122.115 28.9543C122.115 28.1183 122.401 27.4143 122.973 26.8423C123.545 26.2703 124.249 25.9843 125.085 25.9843H132.081V20.5723ZM110.103 56.7403C111.203 53.7043 112.039 50.4923 112.611 47.1043C113.183 43.7163 113.601 39.8223 113.865 35.4223H109.707C109.223 38.5023 108.717 41.5603 108.189 44.5963C107.661 47.5883 107.089 50.6023 106.473 53.6383C107.089 54.1663 107.705 54.6943 108.321 55.2223C108.937 55.7063 109.531 56.2123 110.103 56.7403Z" fill="#F9C33B"/>
</g>
<defs>
<clipPath id="clip0_23882_144865">
<rect width="321.587" height="79.8748" fill="white" transform="translate(7.97656 8.56238)"/>
</clipPath>
</defs>
</svg>
