<svg width="99" height="30" viewBox="0 0 99 30" fill="none" xmlns="http://www.w3.org/2000/svg">
<path d="M4.69765 25.2773C2.73694 20.7768 4.79582 15.5389 9.2963 13.5782L19.5329 9.11842C22.6833 7.74592 26.3498 9.18714 27.7223 12.3375C29.0948 15.4878 27.6535 19.1543 24.5032 20.5268L9.37726 27.1167C7.57707 27.901 5.48194 27.0775 4.69765 25.2773Z" fill="url(#paint0_linear_346_5031)"/>
<path d="M4.83424 4.32269C5.63044 2.52773 7.73098 1.71808 9.52594 2.51427L24.6092 9.20482C27.7504 10.5982 29.1673 14.2741 27.7739 17.4153C26.3806 20.5565 22.7046 21.9734 19.5635 20.58L9.35529 16.052C4.8679 14.0615 2.84375 8.81009 4.83424 4.32269Z" fill="#FAC33D"/>
<g clip-path="url(#clip0_346_5031)">
<path d="M38.1649 15.0571H37.0847C36.9784 15.0571 36.9253 15.04 36.8899 15.0057C36.8545 14.9715 36.8368 14.8859 36.8545 14.766L37.2618 11.1698C37.2972 10.8958 37.4388 10.7588 37.6868 10.7588H51.7467C52.2248 10.7588 52.6144 10.793 52.9154 10.8444C53.2165 10.8958 53.4467 10.9985 53.606 11.1355C53.7654 11.2725 53.8717 11.478 53.9071 11.7178C53.9425 11.9575 53.9425 12.2658 53.9071 12.6254L53.6769 14.766C53.6769 14.8687 53.6415 14.9372 53.606 14.9715C53.5706 15.0057 53.5175 15.0057 53.4113 15.0057H52.1717C52.3488 15.177 52.4727 15.3996 52.5259 15.6565C52.579 15.9133 52.579 16.2216 52.5613 16.5812L52.2602 19.9377C52.2602 19.9377 52.2248 20.0918 52.2248 20.1603C52.2248 20.2288 52.1717 20.2802 52.1186 20.3315C52.2602 20.5713 52.4019 20.811 52.5613 21.085C52.7207 21.359 52.8446 21.6501 52.9686 21.9413C53.0925 22.2324 53.1988 22.5235 53.305 22.7975C53.4113 23.0715 53.4821 23.3284 53.5175 23.551C53.5529 23.6537 53.5529 23.7394 53.5175 23.825C53.4998 23.9106 53.429 23.9791 53.3404 24.0134C52.8977 24.1675 52.4904 24.2874 52.0832 24.3901C51.6936 24.4929 51.1978 24.5785 50.6311 24.6812C50.3832 24.7155 50.2416 24.647 50.2061 24.4415L50.0291 23.7565C48.9843 23.8592 47.8864 23.962 46.7708 24.0305C45.6375 24.099 44.5042 24.1675 43.3355 24.236C42.1668 24.3045 41.0158 24.3559 39.8471 24.3901C38.6784 24.4244 37.5451 24.4586 36.4472 24.4757C36.3055 24.4757 36.217 24.4757 36.1639 24.4244C36.1285 24.373 36.0931 24.3045 36.0576 24.2017C36.0222 24.0305 35.9691 23.825 35.9337 23.5852C35.8983 23.3455 35.8629 23.1229 35.8451 22.9003C35.8097 22.6776 35.792 22.455 35.7743 22.2495C35.7566 22.044 35.7389 21.8556 35.7212 21.7015C35.7212 21.5131 35.8274 21.4104 36.0222 21.4104C36.9253 21.4446 37.9878 21.4446 39.2273 21.4446H42.9991L43.1053 20.4H37.9701C37.793 20.4 37.6513 20.3658 37.5628 20.2802C37.4743 20.1945 37.4388 20.0575 37.4743 19.852L38.1826 15.04L38.1649 15.0571ZM48.1698 5.15897C48.5416 5.15897 48.8958 5.21034 49.2322 5.29597C49.5687 5.39872 49.8697 5.51859 50.1176 5.68984C50.3655 5.86109 50.578 6.04946 50.7197 6.27208C50.8613 6.4947 50.9145 6.7002 50.8968 6.92282V7.05982H54.7216C54.9341 7.05982 55.0404 7.16257 55.0227 7.38519C54.9872 7.69344 54.9164 8.01881 54.8456 8.37843C54.7748 8.73805 54.7216 9.01205 54.6685 9.21755C54.6331 9.33742 54.5977 9.42304 54.5268 9.45729C54.456 9.49154 54.3675 9.52579 54.2789 9.52579H50.4895L50.4009 10.1252C50.3655 10.3307 50.2416 10.4334 50.0645 10.4334H47.4437C47.1958 10.4334 47.1073 10.3307 47.1427 10.1252L47.2312 9.52579H44.1855L44.1147 10.0738C44.1147 10.3135 43.973 10.4163 43.7605 10.4163H41.2283C41.0866 10.4163 40.9804 10.382 40.9273 10.2964C40.8564 10.2279 40.8387 10.1423 40.8564 10.0395L40.9273 9.50867H38.5721C37.8992 9.50867 37.3503 9.32029 36.9253 8.96067C36.5003 8.58393 36.2701 8.03594 36.1993 7.28244C36.1993 7.12832 36.2701 7.05982 36.4118 7.05982H41.2814L41.5116 5.48434C41.5116 5.31309 41.6179 5.21034 41.795 5.21034C42.1491 5.21034 42.4856 5.26172 42.822 5.34734C43.1585 5.45009 43.4418 5.58709 43.7074 5.75834C43.9553 5.92959 44.1678 6.13508 44.3272 6.35771C44.4865 6.58033 44.5574 6.80295 44.5397 7.05982H47.6208L47.8687 5.38159C47.8687 5.38159 47.9041 5.26172 47.9573 5.21034C48.0104 5.15897 48.0812 5.14185 48.1875 5.14185L48.1698 5.15897ZM40.1835 14.5434H43.7251L43.8314 13.6357C43.8314 13.4987 43.9199 13.4302 44.0616 13.4302H47.0365C47.1781 13.4302 47.249 13.4987 47.2312 13.6357L47.1427 14.5434H50.4009L50.5957 13.0706H40.3252L40.1835 14.5434ZM43.3532 18.1567L43.4949 16.8038H41.1929L41.0512 18.1567H43.3532ZM46.5229 21.4446C47.0365 21.4446 47.5323 21.4446 47.9927 21.4446C48.4708 21.4446 48.9312 21.4446 49.3916 21.4104C49.3385 21.2391 49.2853 21.085 49.2322 20.9138C49.1791 20.7425 49.1437 20.5884 49.0906 20.4172H46.6292L46.5229 21.4446ZM46.9479 16.8038L46.824 18.1567H49.0551L49.1791 17.1463C49.1791 16.9922 49.1791 16.9066 49.126 16.8552C49.0729 16.821 48.9666 16.7867 48.8249 16.7867H46.9479V16.8038Z" fill="#FAC33D"/>
<path d="M63.5046 18.2423C63.3098 18.3793 63.1505 18.3451 63.0619 18.1567C62.9734 17.9855 62.8849 17.7971 62.814 17.6087C62.7255 17.4204 62.637 17.232 62.513 17.0265L62.0526 24.4073C62.0172 24.6299 61.8755 24.7326 61.6453 24.7326H59.1308C58.8475 24.7326 58.7235 24.6128 58.7412 24.3559L59.3079 18.3793C58.9537 18.6191 58.5996 18.8246 58.2277 18.9958C57.8559 19.1671 57.484 19.3212 57.0944 19.424C56.9882 19.4582 56.8819 19.424 56.7934 19.3897C56.7049 19.3383 56.6694 19.2356 56.6694 19.0815C56.6694 18.8931 56.7048 18.6705 56.758 18.4478C56.7934 18.2081 56.8465 17.9855 56.8996 17.7457C56.9528 17.506 57.0059 17.2834 57.0413 17.0779C57.0767 16.8724 57.1298 16.684 57.183 16.5127C57.2184 16.4442 57.2538 16.3757 57.3069 16.3244C57.36 16.273 57.3955 16.2216 57.4486 16.2045C58.4048 15.6394 59.2016 15.0229 59.8037 14.3208C60.4058 13.6358 60.8662 12.7967 61.1495 11.8377H59.5558C59.0246 11.8377 58.5819 11.6322 58.21 11.2212C57.8381 10.8102 57.6257 10.2279 57.5902 9.47445C57.5902 9.32033 57.6434 9.25183 57.7673 9.25183H63.2036C63.965 9.25183 64.4431 9.4402 64.6556 9.79982C64.8504 10.1594 64.8681 10.6389 64.6733 11.2212C64.3546 12.2144 63.8765 13.2248 63.2567 14.218C63.5932 14.5263 63.9119 14.8345 64.1775 15.1428C64.4609 15.451 64.6911 15.7592 64.8858 16.0332L65.9483 6.87148C65.9837 6.70024 66.0368 6.58036 66.1254 6.54611C66.2139 6.51186 66.3379 6.47761 66.515 6.47761H73.4033C74.3595 6.47761 74.9793 6.66599 75.2803 7.02561C75.5813 7.38523 75.6876 8.03597 75.5813 8.94358L74.9084 17.7971C74.873 18.0026 74.7668 18.1053 74.572 18.1053H72.146C71.8981 18.1053 71.7919 18.0026 71.8273 17.78L72.5887 9.73132C72.6241 9.42308 72.5179 9.28608 72.2523 9.28608H68.7107L67.5774 17.8998C67.542 18.0882 67.4003 18.191 67.1878 18.191H64.939C64.7442 18.191 64.6556 18.0711 64.6911 17.8485L64.7265 17.369C64.5317 17.5402 64.3369 17.6944 64.1244 17.8485C63.9296 18.0026 63.7348 18.1396 63.5223 18.2595L63.5046 18.2423ZM62.4245 5.12476C62.9557 5.12476 63.4161 5.296 63.788 5.65562C64.1598 6.01524 64.3546 6.44336 64.3546 6.97423C64.3546 7.5051 64.1598 7.93322 63.788 8.29284C63.4161 8.65246 62.9557 8.84084 62.4245 8.84084C61.8932 8.84084 61.4328 8.65246 61.061 8.29284C60.6891 7.93322 60.4943 7.48798 60.4943 6.97423C60.4943 6.46049 60.6891 6.01524 61.061 5.65562C61.4328 5.296 61.8932 5.12476 62.4245 5.12476ZM69.0472 10.1252C69.0826 9.93682 69.1888 9.83407 69.3836 9.83407H71.6856C71.9335 9.83407 72.0398 9.93682 72.0044 10.1423C71.8627 11.7178 71.721 13.122 71.5794 14.355C71.4377 15.588 71.2252 16.7011 70.9419 17.6772C70.9065 17.8313 70.8534 17.9683 70.8179 18.1053C70.7825 18.2423 70.7294 18.3622 70.6763 18.4821H72.5002C72.7127 18.4821 72.8189 18.5848 72.8012 18.7903L72.5533 21.3591C72.9252 21.3933 73.4033 21.3248 74.0053 21.1536C74.6074 20.9823 75.1918 20.7597 75.7584 20.4686C75.8292 20.4343 75.9001 20.4343 75.9886 20.4686C76.0594 20.5028 76.1126 20.5884 76.1126 20.6912C76.1126 20.8624 76.1126 21.0508 76.0772 21.2563C76.0417 21.4618 76.024 21.6844 75.9886 21.907C75.9532 22.1297 75.9178 22.3523 75.9001 22.5407C75.8647 22.7462 75.8469 22.9003 75.8115 23.0373C75.7761 23.14 75.7584 23.2257 75.723 23.277C75.6876 23.3284 75.6167 23.3969 75.5282 23.4654C75.2803 23.6195 74.9261 23.7394 74.448 23.8593C73.9699 23.962 73.4564 24.0476 72.8897 24.099C72.3231 24.1504 71.7742 24.1675 71.2075 24.1333C70.6409 24.099 70.1628 24.0476 69.7378 23.9449C69.4367 23.8593 69.3128 23.6709 69.3482 23.3969L69.6669 20.5884C68.994 21.6159 68.1264 22.455 67.0816 23.0887C66.0368 23.7394 64.7973 24.2189 63.3453 24.5614C62.9557 24.6641 62.7786 24.5271 62.8494 24.1675C62.9203 23.8079 62.9911 23.4483 63.0796 23.0544C63.1505 22.6777 63.2567 22.2667 63.363 21.8214C63.3984 21.6331 63.5046 21.4961 63.664 21.4276C64.2129 21.1707 64.7088 20.9138 65.1692 20.6741C65.6119 20.4343 66.0191 20.1774 66.3556 19.8863C66.7097 19.5952 67.0108 19.2698 67.2587 18.9102C67.5066 18.5506 67.7191 18.1225 67.8962 17.6259C68.1795 16.821 68.4097 15.8106 68.5691 14.6119C68.7461 13.4132 68.9055 11.9062 69.0649 10.0738L69.0472 10.1252Z" fill="#FAC33D"/>
<path d="M88.207 11.0498C88.207 10.8443 88.2425 10.7073 88.3133 10.6217C88.3841 10.5361 88.4904 10.5018 88.6497 10.5018H90.6684L91.0049 9.25174H89.606C89.0747 9.25174 88.6143 9.04624 88.2602 8.65237C87.906 8.2585 87.7112 7.71051 87.6935 7.02552C87.6935 6.85427 87.7821 6.75152 87.9414 6.75152H97.2026C97.3088 6.75152 97.3974 6.76864 97.4505 6.82002C97.5036 6.85427 97.5036 6.93989 97.4859 7.05977C97.4505 7.40226 97.3974 7.74476 97.3265 8.07013C97.2557 8.41262 97.1849 8.70375 97.0963 8.97774C97.0609 9.14899 96.9193 9.21749 96.6891 9.21749H94.1746C94.086 9.45724 93.9975 9.66273 93.8912 9.86823C93.785 10.0737 93.6787 10.2792 93.5548 10.4676H94.7058C95.1839 10.4676 95.5735 10.5018 95.8568 10.5532C96.1401 10.6046 96.3526 10.7073 96.4943 10.8443C96.6359 10.9813 96.7068 11.1697 96.7422 11.4095C96.7776 11.6492 96.7776 11.9575 96.7599 12.3513L96.2995 19.6122C96.2995 19.7835 96.2641 19.8862 96.211 19.9376C96.1401 19.989 96.0516 20.0232 95.9099 20.0232H93.9621C93.7142 20.0232 93.6079 19.9205 93.6079 19.6465L94.1569 12.9336H90.6507L89.8716 19.5266C89.8716 19.7664 89.7476 19.8691 89.482 19.8691H87.6581C87.4102 19.8691 87.2862 19.7492 87.3039 19.4924L87.605 16.7353C87.3039 17.8826 86.8613 18.9101 86.2769 19.8177C85.6925 20.7253 84.9842 21.496 84.1697 22.1638C83.3551 22.8146 82.4343 23.3626 81.3896 23.7736C80.3625 24.1846 79.2469 24.4928 78.0605 24.664C77.9011 24.6983 77.7772 24.664 77.7063 24.5955C77.6355 24.527 77.6001 24.4072 77.6178 24.2531C77.6886 23.9448 77.7772 23.5509 77.9011 23.1057C78.0251 22.6604 78.1313 22.2666 78.2376 21.9412C78.3084 21.77 78.4146 21.6501 78.574 21.6158C79.4771 21.4103 80.2917 21.1363 81 20.811C81.7083 20.4856 82.3104 20.0575 82.8239 19.5437H81.85C81.85 19.5437 81.6906 19.5266 81.6375 19.4752C81.5843 19.4239 81.5666 19.3554 81.5666 19.2355L82.0979 14.6118H80.1854C79.6365 14.6118 79.1938 14.3892 78.8396 13.9611C78.4855 13.5329 78.3084 13.0021 78.2907 12.3685C78.2907 12.2143 78.3615 12.1458 78.5209 12.1458H79.9021L80.3979 7.19676C80.3979 7.02552 80.5042 6.93989 80.6989 6.97414C81.4781 7.07689 82.0093 7.29951 82.3104 7.60776C82.6114 7.916 82.7353 8.36125 82.6999 8.94349L82.452 12.1458H83.001L83.6561 5.45004C83.6561 5.27879 83.7624 5.19316 83.9926 5.22741C84.754 5.29591 85.3561 5.51853 85.7811 5.87815C86.2061 6.2549 86.4008 6.71727 86.3477 7.29951L86.2592 8.34412H87.6404C87.8352 8.34412 87.9237 8.44687 87.9237 8.6695C87.8883 8.96062 87.8529 9.26886 87.7998 9.57711C87.7466 9.90248 87.6935 10.1936 87.6404 10.4676C87.605 10.6902 87.481 10.793 87.3039 10.793H86.0467L85.9227 12.1287H87.605C87.8175 12.1287 87.906 12.2143 87.8883 12.4369C87.8883 12.5568 87.8529 12.7109 87.8175 12.8822C87.7821 13.0534 87.7643 13.2247 87.7289 13.4131C87.6935 13.6014 87.6758 13.7556 87.6404 13.9097C87.605 14.0638 87.5873 14.2008 87.5696 14.2864C87.5341 14.4919 87.4456 14.5947 87.2685 14.5947H85.0728L84.7363 17.4545C84.9842 16.9065 85.2321 16.2729 85.4446 15.5365C85.4446 15.4167 85.5509 15.3482 85.6925 15.3482H87.6935H87.7112C87.7112 15.3482 87.7112 15.3482 87.7289 15.3482L88.1893 10.9642L88.207 11.0498ZM81.4073 15.3824C81.6552 15.3824 81.7614 15.5023 81.726 15.7592C81.5489 17.0949 81.1593 18.1738 80.5927 18.9957C80.0261 19.8177 79.2292 20.4 78.2199 20.7253C78.1136 20.7596 78.0074 20.7425 77.9188 20.6568C77.8303 20.5712 77.7949 20.4856 77.8126 20.3657C77.848 20.0746 77.8834 19.715 77.9542 19.2869C78.0251 18.8587 78.0782 18.4649 78.149 18.1053C78.1844 17.9854 78.2553 17.8655 78.3615 17.7628C78.4678 17.66 78.5563 17.5573 78.6448 17.4374C78.7334 17.3175 78.8042 17.1805 78.875 17.0264C78.9459 16.8723 79.0167 16.6839 79.0698 16.4441C79.123 16.2044 79.1938 15.9304 79.2646 15.5879C79.3177 15.4338 79.424 15.3653 79.5656 15.3653H81.3896L81.4073 15.3824ZM93.4485 13.5329C93.5548 13.5329 93.6433 13.5501 93.6787 13.6014C93.7142 13.6528 93.7319 13.7213 93.7142 13.8412C93.661 14.8858 93.5725 15.9133 93.484 16.9065C93.3777 17.9169 93.2183 18.8245 92.9704 19.6465C92.7402 20.4171 92.4038 21.085 91.9788 21.6501C91.5361 22.2152 91.0226 22.7118 90.4205 23.1057C89.8184 23.5167 89.1456 23.8421 88.3841 24.0989C87.6404 24.3558 86.8435 24.5442 86.0113 24.664C85.8696 24.6983 85.7634 24.664 85.6748 24.5955C85.5863 24.527 85.5686 24.4243 85.604 24.2702C85.7102 23.8421 85.8165 23.4139 85.9404 22.9516C86.0644 22.5063 86.1884 22.1296 86.2769 21.8556C86.3123 21.6843 86.4186 21.5987 86.5602 21.5645C87.0206 21.4446 87.4279 21.3247 87.8175 21.1877C88.207 21.0678 88.5612 20.9137 88.8622 20.7425C89.1633 20.5712 89.4466 20.3657 89.6768 20.1431C89.907 19.9034 90.0841 19.6294 90.208 19.304C90.3497 18.9101 90.4736 18.5162 90.5622 18.1053C90.6507 17.7114 90.7215 17.2833 90.7924 16.8551C90.8455 16.4099 90.8986 15.9475 90.934 15.4509C90.9695 14.9543 91.0049 14.3892 91.0226 13.7727C91.0226 13.6014 91.0934 13.4987 91.2351 13.4987H93.4662L93.4485 13.5329ZM94.21 20.4342C94.7766 20.4342 95.2547 20.6226 95.6443 21.0165C96.0339 21.3932 96.2287 21.8727 96.2287 22.4378C96.2287 23.0029 96.0339 23.4482 95.6443 23.8421C95.2547 24.2188 94.7766 24.4243 94.21 24.4243C93.6433 24.4243 93.1652 24.2359 92.7579 23.8421C92.3684 23.4653 92.1559 22.9858 92.1559 22.4378C92.1559 21.8898 92.3507 21.4103 92.7579 21.0165C93.1475 20.6397 93.6433 20.4342 94.21 20.4342Z" fill="#FAC33D"/>
</g>
<defs>
<linearGradient id="paint0_linear_346_5031" x1="18.3675" y1="14.717" x2="2.78359" y2="23.4562" gradientUnits="userSpaceOnUse">
<stop stop-color="#E39600"/>
<stop offset="1" stop-color="#FAC33D"/>
</linearGradient>
<clipPath id="clip0_346_5031">
<rect width="61.7647" height="19.6079" fill="white" transform="translate(35.7393 5.12476)"/>
</clipPath>
</defs>
</svg>
