<svg width="100" height="36" viewBox="0 0 100 36" fill="none" xmlns="http://www.w3.org/2000/svg">
<g clip-path="url(#clip0_17840_98003)">
<g clip-path="url(#clip1_17840_98003)">
<path d="M44.6292 9.73792C44.8152 9.73792 44.9021 9.82586 44.891 9.99972C44.8687 10.491 44.8364 11.0379 44.7929 11.6383C44.7494 12.2387 44.6949 12.8513 44.6292 13.474H49.6267C49.7137 13.474 49.7824 13.5043 49.8319 13.5639C49.8815 13.6236 49.8946 13.7085 49.8734 13.8177C49.8188 14.1017 49.7501 14.413 49.6682 14.7517C49.5863 15.0903 49.5014 15.3905 49.4145 15.6533C49.3922 15.7625 49.3538 15.8363 49.3002 15.8747C49.2457 15.9131 49.1476 15.9323 49.0051 15.9323H44.2531C44.0014 17.0908 43.6082 18.1552 43.0735 19.1276C42.5377 20.1 41.8908 20.9714 41.1317 21.7416C40.3725 22.5119 39.5143 23.175 38.5591 23.733C37.6028 24.2899 36.5849 24.7216 35.5033 25.0279C35.383 25.0713 35.287 25.0632 35.2162 25.0036C35.1455 24.9429 35.1151 24.853 35.1263 24.7337C35.1586 24.3951 35.2081 24.0231 35.2738 23.6198C35.3395 23.2154 35.4053 22.8717 35.471 22.5877C35.5144 22.4351 35.6125 22.3198 35.7661 22.244C36.5091 21.873 37.1803 21.4737 37.7817 21.0482C38.3822 20.6226 38.9098 20.1526 39.3627 19.6391C39.8155 19.1256 40.1987 18.5656 40.51 17.9591C40.8213 17.3526 41.07 16.6783 41.256 15.9354H38.274C37.6625 15.9354 37.1783 15.7635 36.8235 15.4188C36.4687 15.0751 36.2635 14.4929 36.2089 13.6741C36.1978 13.5427 36.2523 13.477 36.3726 13.477H41.6654C41.7311 12.92 41.7857 12.3489 41.8291 11.7646C41.8726 11.1804 41.911 10.588 41.9434 9.98658C41.9434 9.82283 42.0414 9.74095 42.2385 9.74095H44.6312L44.6292 9.73792ZM46.2677 20.0131C46.5629 20.0131 46.8388 20.0677 47.0956 20.1768C47.3524 20.286 47.5758 20.4387 47.7678 20.6358C47.9589 20.8329 48.1115 21.0593 48.2267 21.3161C48.341 21.5728 48.3986 21.8488 48.3986 22.1439C48.3986 22.4391 48.341 22.7151 48.2267 22.9718C48.1125 23.2286 47.9589 23.452 47.7678 23.644C47.5768 23.8351 47.3524 23.9877 47.0956 24.1029C46.8388 24.2172 46.5629 24.2748 46.2677 24.2748C45.9726 24.2748 45.6946 24.2172 45.4318 24.1029C45.1689 23.9887 44.9425 23.8351 44.7515 23.644C44.5604 23.453 44.4078 23.2286 44.2925 22.9718C44.1773 22.7151 44.1207 22.4391 44.1207 22.1439C44.1207 21.8488 44.1783 21.5728 44.2925 21.3161C44.4068 21.0593 44.5604 20.8329 44.7515 20.6358C44.9425 20.4387 45.1689 20.286 45.4318 20.1768C45.6936 20.0677 45.9726 20.0131 46.2677 20.0131Z" fill="#F9C33B"/>
<path d="M65.8832 22.5523C66.0035 22.5523 66.0823 22.5766 66.1207 22.6261C66.1591 22.6756 66.1672 22.7545 66.145 22.8637C66.1015 23.1154 66.0409 23.3933 65.965 23.6996C65.8882 24.0049 65.8225 24.2515 65.7679 24.4365C65.7245 24.6114 65.6092 24.6983 65.4242 24.6983H53.462C52.8717 24.6983 52.4077 24.5538 52.069 24.2637C51.7304 23.9736 51.5222 23.4793 51.4464 22.7808C51.4241 22.6281 51.4848 22.5513 51.6263 22.5513H65.8832V22.5523ZM55.7889 9.67221C56.0841 9.67221 56.3732 9.71063 56.6572 9.78644C56.9413 9.86326 57.192 9.96637 57.4113 10.0978C57.6297 10.2292 57.8076 10.3768 57.944 10.5405C58.0805 10.7043 58.1543 10.868 58.1654 11.0318H62.1966C62.8517 11.0318 63.2701 11.1571 63.4501 11.4088C63.63 11.6605 63.6442 12.081 63.4915 12.6704C63.4258 12.8675 63.3601 13.0585 63.2944 13.2435C63.2287 13.4295 63.1579 13.6094 63.0811 13.7843H63.4743C64.1951 13.7843 64.6924 13.9481 64.9653 14.2756C65.2382 14.6031 65.3312 15.1277 65.2443 15.8484L64.6873 21.1745C64.6651 21.3717 64.6075 21.5162 64.5155 21.6092C64.4225 21.7022 64.2668 21.7487 64.0485 21.7487H53.3973C53.1567 21.7487 53.001 21.7052 52.9303 21.6173C52.8595 21.5304 52.8403 21.3767 52.8727 21.1584L53.6753 15.2915C53.6864 15.1499 53.7733 15.0944 53.9371 15.1277C54.1989 15.1823 54.4617 15.2611 54.7235 15.3653C54.9853 15.4694 55.2178 15.5917 55.42 15.7342C55.6221 15.8767 55.7808 16.0375 55.8951 16.2174C56.0093 16.3973 56.0558 16.5864 56.0346 16.7825L56.0184 16.832H58.0178L58.1321 15.718H56.2964C56.0235 15.718 55.7718 15.6746 55.5423 15.5866C55.3128 15.4997 55.1107 15.3814 54.9358 15.2338C54.7609 15.0863 54.6214 14.9094 54.5183 14.7011C54.4142 14.4939 54.3566 14.2645 54.3465 14.0128C54.3353 13.8601 54.396 13.7833 54.5264 13.7833H60.2124C60.2781 13.6519 60.3377 13.5185 60.3923 13.382C60.4469 13.2455 60.4903 13.1172 60.5237 12.9969H55.051C54.865 12.9969 54.7478 12.9534 54.6982 12.8655C54.6487 12.7785 54.6568 12.6138 54.7225 12.3742L55.4766 9.85113C55.4988 9.7642 55.5342 9.71164 55.5827 9.69546C55.6312 9.67929 55.7 9.6712 55.7879 9.6712L55.7889 9.67221ZM55.7394 19.7836H57.7055L57.8369 18.5383H55.8536L55.7394 19.7836ZM62.2452 19.7836L62.3766 18.5383H60.2629L60.1315 19.7836H62.2452ZM60.5571 15.7191L60.4428 16.833H62.5727L62.6384 16.2922C62.6606 16.0739 62.6515 15.9232 62.6141 15.8414C62.5757 15.7595 62.4473 15.718 62.229 15.718H60.5571V15.7191Z" fill="#F9C33B"/>
<path d="M71.0775 21.6021C71.2191 21.6132 71.2746 21.6901 71.2413 21.8316C71.1867 22.0287 71.121 22.2198 71.0442 22.4047C70.9674 22.5907 70.8804 22.7656 70.7824 22.9294C70.8804 22.9728 70.9734 23.0032 71.0614 23.0193C71.1483 23.0355 71.2474 23.0547 71.3565 23.0769L71.5365 21.3403H69.1438C69.0013 21.3403 68.8982 21.308 68.8325 21.2423C68.7668 21.1766 68.7445 21.0623 68.7668 20.8986L69.1438 18.228C69.166 18.1077 69.2034 18.0308 69.258 17.9985C69.3126 17.9661 69.3945 17.949 69.5037 17.949H75.321C75.6374 17.949 75.8942 17.9712 76.0913 18.0147C76.2884 18.0581 76.438 18.1289 76.5421 18.228C76.6462 18.326 76.7109 18.4574 76.7392 18.6212C76.7665 18.7849 76.7696 18.9871 76.7473 19.2277L76.5502 20.8996C76.528 21.0745 76.4815 21.1917 76.4107 21.2524C76.34 21.313 76.2166 21.3423 76.0418 21.3423H73.9119L73.6501 24.4396C73.639 24.7125 73.5409 24.8762 73.355 24.9308C73.169 24.9965 72.9344 25.04 72.6504 25.0622C72.3664 25.0835 72.0661 25.0895 71.7487 25.0784C71.4313 25.0673 71.12 25.037 70.8147 24.9884C70.5084 24.9389 70.2517 24.8712 70.0445 24.7832C69.8918 24.7175 69.8312 24.5922 69.8645 24.4062C69.8868 24.2536 69.9191 24.0949 69.9626 23.9311C69.7109 24.1494 69.4268 24.3324 69.1104 24.48C68.793 24.6276 68.4494 24.7398 68.0784 24.8156C67.9904 24.8368 67.9227 24.8267 67.8732 24.7832C67.8236 24.7398 67.8044 24.669 67.8156 24.57C67.8267 24.4719 67.8428 24.3567 67.8651 24.2263C67.8873 24.0949 67.9086 23.9584 67.9308 23.8169C67.953 23.6743 67.9743 23.5409 67.9965 23.4156C68.0187 23.2902 68.04 23.178 68.0622 23.08C68.0733 22.9486 68.1279 22.8566 68.226 22.801C68.4989 22.6595 68.7041 22.5119 68.8405 22.3582C68.977 22.2056 69.1104 21.9974 69.2418 21.7356C69.2742 21.6486 69.3561 21.6042 69.4875 21.6042H71.0765L71.0775 21.6021ZM69.8484 10.8852C69.8706 10.7872 69.908 10.7053 69.9626 10.6396C70.0172 10.5739 70.1041 10.5415 70.2244 10.5415H76.0418C76.6756 10.5415 77.1042 10.6507 77.3286 10.869C77.552 11.0874 77.6429 11.4917 77.5985 12.0821L77.2214 15.2278C77.2103 15.3592 77.1699 15.4542 77.0981 15.5149C77.0273 15.5745 76.9313 15.6048 76.811 15.6048H74.3203C74.3961 15.6928 74.4618 15.8019 74.5174 15.9323H77.3518C77.4387 15.9323 77.5014 15.9596 77.5398 16.0142C77.5782 16.0688 77.5863 16.1345 77.5641 16.2113C77.5418 16.364 77.5095 16.555 77.466 16.7845C77.4226 17.0139 77.373 17.2272 77.3185 17.4233C77.2861 17.576 77.182 17.6528 77.0071 17.6528H69.6826C69.257 17.6528 68.9285 17.5406 68.699 17.3172C68.4696 17.0938 68.3382 16.7026 68.3058 16.1456C68.2947 16.0041 68.3553 15.9323 68.4857 15.9323H71.8609C71.9155 15.8009 71.9812 15.6918 72.0581 15.6048H69.6816C69.4086 15.6048 69.2884 15.4684 69.3207 15.1954L69.8453 10.8862L69.8484 10.8852ZM71.3232 19.3247L71.2413 19.8817H74.2728L74.3385 19.3247H71.3232ZM74.9612 13.7368H71.864L71.8144 14.1957H74.9278L74.9602 13.7368H74.9612ZM71.9954 12.5571H75.0764L75.1259 12.1801H72.0449L71.9954 12.5571ZM75.223 21.7659C75.5182 21.7659 75.78 21.8538 76.0094 22.0277C76.2389 22.2026 76.3865 22.427 76.4522 22.6999C76.8777 22.5361 77.2659 22.3673 77.6156 22.1914C77.9654 22.0166 78.2818 21.8144 78.5658 21.5849C78.8499 21.3555 79.1097 21.0795 79.3442 20.7571C79.5787 20.4346 79.795 20.0394 79.9911 19.5693C80.0346 19.4602 80.1276 19.4056 80.2701 19.4056H82.1705C82.2685 19.4056 82.3373 19.4329 82.3757 19.4875C82.4141 19.542 82.4222 19.6077 82.3999 19.6846C81.9956 21.1483 81.2557 22.337 80.1791 23.2488C79.1026 24.1606 77.7187 24.7752 76.0256 25.0926C75.9053 25.1138 75.8093 25.0926 75.7385 25.0269C75.6678 24.9611 75.6485 24.857 75.6809 24.7155L75.8446 24.0433C75.6475 24.1525 75.4403 24.2071 75.222 24.2071C74.8722 24.2071 74.5771 24.0898 74.3375 23.8543C74.0969 23.6188 73.9766 23.3327 73.9766 22.9941C73.9766 22.6554 74.0969 22.3522 74.3375 22.1177C74.5781 21.8831 74.8722 21.7649 75.222 21.7649L75.223 21.7659ZM82.4495 14.7193C82.5152 14.7193 82.5698 14.7416 82.6132 14.785C82.6567 14.8285 82.6678 14.8942 82.6456 14.9821C82.4707 15.6705 82.2089 16.3043 81.8591 16.8825C81.5094 17.4617 81.097 17.9803 80.6219 18.4392C80.1468 18.8981 79.6191 19.2883 79.0409 19.6108C78.4617 19.9332 77.8613 20.1819 77.2386 20.3568C77.1405 20.379 77.0587 20.3679 76.993 20.3244C76.9273 20.281 76.905 20.1991 76.9273 20.0788C76.9596 19.8281 77.0091 19.5491 77.0748 19.2428C77.1405 18.9376 77.2002 18.6525 77.2548 18.3907C77.2982 18.2158 77.3801 18.1016 77.5004 18.047C77.8825 17.8398 78.213 17.6427 78.492 17.4567C78.771 17.2707 79.0187 17.0635 79.238 16.834C79.4564 16.6045 79.6555 16.3367 79.8365 16.0314C80.0164 15.7261 80.1993 15.343 80.3853 14.8841C80.4288 14.7749 80.5218 14.7203 80.6643 14.7203H82.4505L82.4495 14.7193ZM82.499 10.3606C82.6516 10.3606 82.7173 10.4374 82.6961 10.5901C82.5869 11.235 82.3767 11.8384 82.0654 12.4005C81.754 12.9635 81.3739 13.4709 80.9261 13.9248C80.4783 14.3787 79.978 14.7689 79.4271 15.0964C78.8751 15.4239 78.305 15.6756 77.7147 15.8505C77.6166 15.8727 77.5348 15.8585 77.4691 15.809C77.4034 15.7595 77.3811 15.6756 77.4034 15.5553C77.4357 15.3036 77.4772 15.0337 77.5267 14.7446C77.5762 14.4555 77.6278 14.1735 77.6824 13.9006C77.7258 13.7368 77.7966 13.6276 77.8956 13.573C78.2565 13.3325 78.5648 13.1141 78.8216 12.918C79.0783 12.7209 79.2997 12.5106 79.4857 12.2873C79.6717 12.0639 79.8324 11.8122 79.9689 11.5332C80.1053 11.2542 80.2287 10.9135 80.3378 10.5092C80.3702 10.4111 80.4581 10.3616 80.5996 10.3616H82.5L82.499 10.3606Z" fill="#F9C33B"/>
<path d="M89.4799 19.9797C89.3273 20.0889 89.2121 20.0677 89.1362 19.914C89.0705 19.7725 89.0048 19.6249 88.9391 19.4713C88.8734 19.3186 88.7966 19.166 88.7097 19.0124L88.3488 24.8954C88.3165 25.0703 88.2123 25.1572 88.0375 25.1572H86.1037C85.8854 25.1572 85.7863 25.0592 85.8086 24.8621L86.2513 20.094C85.9784 20.2799 85.6994 20.4437 85.4153 20.5852C85.1313 20.7277 84.8422 20.842 84.547 20.9289C84.4591 20.9511 84.3802 20.94 84.3095 20.8966C84.2387 20.8531 84.2084 20.7712 84.2195 20.6509C84.2306 20.4983 84.2519 20.3285 84.2852 20.1425C84.3176 19.9565 84.353 19.7715 84.3914 19.5855C84.4298 19.3995 84.4672 19.2226 84.5056 19.0528C84.544 18.884 84.5794 18.7334 84.6117 18.602C84.634 18.5474 84.6633 18.4978 84.7017 18.4544C84.7401 18.4109 84.7755 18.3786 84.8078 18.3563C85.5508 17.9085 86.1573 17.4092 86.6263 16.8572C87.0964 16.3053 87.4401 15.6473 87.6584 14.8831H86.4292C86.0249 14.8831 85.6782 14.7193 85.3891 14.3918C85.1 14.0643 84.9382 13.6003 84.9059 12.9989C84.9059 12.8786 84.9493 12.8189 85.0373 12.8189H89.2323C89.8226 12.8189 90.1936 12.9635 90.3462 13.2536C90.4989 13.5427 90.5049 13.9228 90.3624 14.3928C90.1107 15.1904 89.7448 15.9879 89.2646 16.7855C89.5264 17.0261 89.764 17.2717 89.9773 17.5224C90.1905 17.7741 90.3735 18.0086 90.5261 18.2269L91.3459 10.9186C91.3682 10.7771 91.4116 10.6891 91.4773 10.6568C91.543 10.6244 91.6411 10.6072 91.7725 10.6072H97.0814C97.8133 10.6072 98.2965 10.7548 98.532 11.05C98.7665 11.3451 98.8464 11.8526 98.7695 12.5743L98.2449 19.6371C98.2227 19.8008 98.1357 19.8827 97.9831 19.8827H96.1151C95.9291 19.8827 95.8472 19.7958 95.8694 19.6209L96.4598 13.197C96.4921 12.9564 96.4052 12.8361 96.198 12.8361H93.4616L92.5933 19.7017C92.561 19.8544 92.4619 19.9312 92.2981 19.9312H90.5615C90.4089 19.9312 90.3432 19.8382 90.3644 19.6522L90.3968 19.2752C90.2441 19.4066 90.0905 19.5319 89.9378 19.6522C89.7852 19.7725 89.6316 19.8817 89.4789 19.9797H89.4799ZM88.644 9.52563C89.0594 9.52563 89.4112 9.66816 89.7013 9.9512C89.9904 10.2352 90.136 10.585 90.136 11.0004C90.136 11.4159 89.9914 11.7677 89.7013 12.0578C89.4122 12.3469 89.0594 12.4924 88.644 12.4924C88.2285 12.4924 87.8767 12.3479 87.5866 12.0578C87.2975 11.7687 87.152 11.4159 87.152 11.0004C87.152 10.585 87.2965 10.2363 87.5866 9.9512C87.8757 9.66715 88.2285 9.52563 88.644 9.52563ZM93.7568 13.5073C93.779 13.3547 93.866 13.2779 94.0186 13.2779H95.7886C95.9746 13.2779 96.0564 13.3597 96.0342 13.5235C95.925 14.78 95.8159 15.9 95.7067 16.8825C95.5975 17.8661 95.4338 18.7505 95.2154 19.537C95.1831 19.6573 95.1497 19.7695 95.1174 19.8726C95.085 19.9767 95.0466 20.0778 95.0031 20.1758H96.4123C96.576 20.1758 96.6528 20.2577 96.6417 20.4215L96.4446 22.4694C96.7287 22.4917 97.1027 22.4371 97.5666 22.3057C98.0306 22.1743 98.4814 21.9943 98.9181 21.7649C98.9727 21.7325 99.0303 21.7325 99.09 21.7649C99.1496 21.7972 99.1799 21.8579 99.1799 21.9448C99.1799 22.0762 99.1719 22.2258 99.1557 22.3956C99.1395 22.5655 99.1173 22.7393 99.09 22.9203C99.0627 23.1002 99.0384 23.27 99.0162 23.4287C98.9939 23.5874 98.9727 23.7208 98.9505 23.83C98.9282 23.9169 98.904 23.9826 98.8767 24.0271C98.8494 24.0706 98.7968 24.1201 98.721 24.1747C98.535 24.295 98.2591 24.3981 97.8931 24.486C97.5272 24.573 97.1279 24.6356 96.6973 24.6741C96.2657 24.7125 95.8341 24.7236 95.4024 24.7064C94.9708 24.6902 94.5917 24.6377 94.2632 24.5507C94.0338 24.485 93.9357 24.3375 93.9681 24.108L94.2137 21.8629C93.6891 22.6827 93.0259 23.3489 92.2223 23.8624C91.4197 24.3759 90.4604 24.7691 89.3465 25.042C89.0402 25.1178 88.9149 25.0147 88.9695 24.7307C89.024 24.4466 89.0817 24.1515 89.1413 23.8462C89.2009 23.5399 89.2747 23.2124 89.3627 22.8626C89.395 22.71 89.4718 22.6059 89.5921 22.5513C90.0177 22.3441 90.4028 22.1449 90.7475 21.9529C91.0912 21.7618 91.3975 21.5516 91.6654 21.3221C91.9332 21.0927 92.1647 20.8339 92.3618 20.5438C92.5589 20.2547 92.7227 19.913 92.8531 19.5198C93.0714 18.8749 93.2463 18.0753 93.3777 17.1191C93.5091 16.1628 93.6345 14.9589 93.7548 13.5053L93.7568 13.5073Z" fill="#F9C33B"/>
</g>
<g clip-path="url(#clip2_17840_98003)">
<path d="M28.4736 15.2859L19.8126 10.2858L11.1515 5.28488C9.11633 4.1099 6.57158 5.579 6.57158 7.92895V9.54931C6.56012 9.6853 6.55477 9.8251 6.5563 9.96873C6.56546 10.7327 6.56928 11.4959 6.57158 12.2599V14.8153C6.57158 15.444 6.57005 16.072 6.57158 16.7008C6.57158 16.9888 6.57158 17.2783 6.57158 17.6435L4.04897 16.1874L1.5004 14.716C1.27808 14.5876 1 14.7481 1 15.0048V20.8911C1 21.1478 1.27808 21.3082 1.5004 21.1799L4.19795 19.7085L6.57234 18.2531V25.1593C6.56852 25.4435 6.5647 25.727 6.55935 26.0112C6.5563 26.1754 6.56088 26.3343 6.57234 26.4894V27.9325C6.57234 30.2832 9.11633 31.7516 11.1523 30.5766L19.8133 25.5765L28.4744 20.5763C30.5096 19.4014 30.5096 16.4632 28.4744 15.2882L28.4736 15.2859ZM20.3374 18.7329C17.4366 21.105 13.0339 21.5267 9.63277 19.7092L6.77479 17.7665C8.74352 16.9895 10.6557 15.9658 12.6955 15.496C15.4809 14.8543 18.0791 15.7114 20.3611 17.4494C20.9555 17.9025 20.9203 18.257 20.3382 18.7329H20.3374Z" fill="#F9C33B"/>
<path d="M17.9799 17.4968C17.9799 17.4854 17.9776 17.4747 17.9768 17.4632C17.976 17.4548 17.9753 17.4464 17.9745 17.4373C17.9745 17.4342 17.973 17.4311 17.9722 17.4281C17.9684 17.4098 17.9638 17.3914 17.9585 17.3731C17.9539 17.3578 17.9485 17.3425 17.9424 17.3272C17.9371 17.3143 17.9325 17.302 17.9264 17.2898C17.921 17.2784 17.9149 17.2677 17.9088 17.257C17.9027 17.2455 17.8958 17.2348 17.8882 17.2241C17.8813 17.2142 17.8752 17.2042 17.8676 17.1951C17.8576 17.1821 17.8469 17.1706 17.8362 17.1592C17.8255 17.1477 17.8148 17.137 17.8034 17.1263C17.7919 17.1156 17.7797 17.1049 17.7675 17.095C17.7583 17.0874 17.7484 17.0812 17.7385 17.0744C17.7278 17.0675 17.7171 17.0606 17.7056 17.0537C17.6949 17.0476 17.6842 17.0415 17.6728 17.0362C17.6605 17.0301 17.6475 17.0255 17.6346 17.0201C17.6193 17.014 17.6048 17.0087 17.5887 17.0041C17.5704 16.9987 17.5528 16.9942 17.5337 16.9903C17.5307 16.9903 17.5276 16.9888 17.5245 16.988C17.5161 16.9865 17.5077 16.9865 17.4993 16.9858C17.4879 16.9842 17.4772 16.9827 17.4657 16.9819C17.4543 16.9819 17.4428 16.9819 17.4313 16.9819C17.4199 16.9819 17.4084 16.9819 17.397 16.9819C17.3855 16.9819 17.3748 16.9842 17.3633 16.9858C17.3549 16.9865 17.3465 16.9873 17.3381 16.988C17.3351 16.988 17.332 16.9896 17.329 16.9903C17.3106 16.9942 17.2923 16.9987 17.274 17.0041C17.2587 17.0087 17.2434 17.014 17.2281 17.0201C17.2151 17.0255 17.2029 17.0301 17.1899 17.0362C17.1785 17.0415 17.1678 17.0476 17.1571 17.0537C17.1456 17.0599 17.1349 17.0667 17.1242 17.0744C17.1143 17.0812 17.1044 17.0874 17.0952 17.095C17.083 17.1049 17.0707 17.1156 17.0593 17.1263C17.0478 17.137 17.0371 17.1477 17.0264 17.1592C17.0157 17.1706 17.005 17.1829 16.9951 17.1951C16.9875 17.2042 16.9814 17.2142 16.9745 17.2241C16.9676 17.2348 16.9607 17.2455 16.9539 17.257C16.9477 17.2677 16.9416 17.2784 16.9363 17.2898C16.9302 17.302 16.9256 17.315 16.9202 17.3272C16.9141 17.3425 16.9088 17.357 16.9042 17.3731C16.8989 17.3907 16.8943 17.409 16.8905 17.4281C16.8905 17.4311 16.8889 17.4342 16.8882 17.4373C16.8866 17.4457 16.8866 17.4541 16.8859 17.4632C16.8843 17.4747 16.8828 17.4854 16.8828 17.4968C16.8828 17.5083 16.8828 17.5198 16.8828 17.5312C16.8828 17.5427 16.8828 17.5541 16.8828 17.5656C16.8828 17.5771 16.8851 17.5878 16.8866 17.5992C16.8874 17.6076 16.8882 17.616 16.8889 17.6244C16.8889 17.6275 16.8905 17.6305 16.8912 17.6336C16.895 17.6519 16.8996 17.6703 16.905 17.6886C16.9096 17.7039 16.9149 17.7192 16.921 17.7344C16.9264 17.7474 16.9309 17.7596 16.9371 17.7726C16.9424 17.7841 16.9485 17.7948 16.9546 17.8055C16.9607 17.8169 16.9676 17.8276 16.9753 17.8383C16.9821 17.8483 16.9882 17.8582 16.9959 17.8681C17.0058 17.8804 17.0157 17.8926 17.0264 17.904C17.0371 17.9155 17.0478 17.9262 17.0593 17.9369C17.0707 17.9476 17.083 17.9583 17.0952 17.9682C17.1044 17.9758 17.1143 17.982 17.125 17.9888C17.1357 17.9957 17.1464 18.0026 17.1571 18.0095C17.1678 18.0156 17.1785 18.0217 17.1899 18.027C17.2021 18.0331 17.2151 18.0377 17.2274 18.0431C17.2426 18.0492 17.2579 18.0545 17.2732 18.0591C17.2908 18.0645 17.3091 18.0691 17.3282 18.0729C17.3313 18.0729 17.3343 18.0744 17.3374 18.0752C17.3458 18.0767 17.3542 18.0767 17.3626 18.0775C17.374 18.079 17.3847 18.0805 17.3962 18.0813C17.4077 18.0813 17.4191 18.0813 17.4306 18.0813C17.442 18.0813 17.4535 18.0813 17.465 18.0813C17.4764 18.0813 17.4871 18.079 17.4986 18.0775C17.507 18.0767 17.5154 18.0759 17.5238 18.0752C17.5268 18.0752 17.5299 18.0736 17.5329 18.0729C17.5513 18.0691 17.5696 18.0645 17.588 18.0591C17.6032 18.0545 17.6185 18.0492 17.6338 18.0431C17.6468 18.0377 17.659 18.0331 17.6712 18.027C17.6827 18.0217 17.6934 18.0156 17.7041 18.0095C17.7155 18.0034 17.7262 17.9965 17.7362 17.9888C17.7461 17.982 17.756 17.9758 17.766 17.9682C17.7782 17.9583 17.7904 17.9483 17.8019 17.9376C17.8133 17.927 17.8248 17.9163 17.8347 17.9048C17.8454 17.8933 17.8561 17.8811 17.8653 17.8689C17.8729 17.8597 17.879 17.8498 17.8859 17.8391C17.8928 17.8284 17.8996 17.8177 17.9065 17.8062C17.9126 17.7956 17.9187 17.7849 17.9241 17.7734C17.9302 17.7612 17.9348 17.7482 17.9401 17.7352C17.9462 17.7199 17.9516 17.7054 17.9562 17.6894C17.9615 17.671 17.9661 17.6535 17.9699 17.6344C17.9699 17.6313 17.9715 17.6282 17.9722 17.6252C17.9738 17.6168 17.9738 17.6084 17.9745 17.6C17.976 17.5885 17.9776 17.5778 17.9783 17.5664C17.9783 17.5549 17.9783 17.5434 17.9783 17.532C17.9783 17.5205 17.9783 17.5091 17.9783 17.4976L17.9799 17.4968Z" fill="#F9C33B"/>
</g>
</g>
<defs>
<clipPath id="clip0_17840_98003">
<rect width="100" height="36" fill="white"/>
</clipPath>
<clipPath id="clip1_17840_98003">
<rect width="98.117" height="27.6596" fill="white" transform="translate(1.06396 3.72345)"/>
</clipPath>
<clipPath id="clip2_17840_98003">
<rect width="29" height="26.1168" fill="white" transform="translate(1 4.87158)"/>
</clipPath>
</defs>
</svg>
