<svg width="1024" height="1024" viewBox="0 0 1024 1024" fill="none" xmlns="http://www.w3.org/2000/svg">
<g clip-path="url(#clip0_22825_297678)">
<rect width="1024" height="1024" fill="#111111"/>
<g style="mix-blend-mode:screen" opacity="0.1">
<rect width="1024" height="1024" fill="url(#paint0_linear_22825_297678)"/>
</g>
<g clip-path="url(#clip1_22825_297678)">
<path d="M509.869 627.332V635.732L395.588 749.036L144.658 450.538L395.002 514.516L509.869 627.332Z" fill="white" stroke="white" stroke-width="29.3028" stroke-linecap="round" stroke-linejoin="round"/>
<path d="M879.384 448.683L627.086 745.325L509.875 631.533L629.626 513.833L879.384 448.683Z" fill="white" stroke="white" stroke-width="29.3028" stroke-linecap="round" stroke-linejoin="round"/>
<path d="M483.887 320.435L225.046 321.119L144.658 450.54L395.002 514.518L509.869 627.334V635.734L395.588 749.038L510.358 801.783L627.08 745.326L509.869 631.534L629.62 513.834L879.378 448.684L798.307 319.654L539.856 320.338" stroke="white" stroke-width="29.3028" stroke-linecap="round" stroke-linejoin="round"/>
<path d="M509.875 631.534V635.734" stroke="white" stroke-width="29.3028" stroke-linecap="round" stroke-linejoin="round"/>
<path d="M629.616 513.832L511.916 357.648L483.883 320.434" stroke="white" stroke-width="29.3028" stroke-linecap="round" stroke-linejoin="round"/>
<path d="M539.86 320.332L511.924 357.644L395.006 514.512" stroke="white" stroke-width="29.3028" stroke-linecap="round" stroke-linejoin="round"/>
<path d="M509.875 631.534V627.333" stroke="white" stroke-width="29.3028" stroke-linecap="round" stroke-linejoin="round"/>
<path d="M417.76 842.999L402.816 687.011L349.387 702.053L417.76 842.999Z" fill="white"/>
<path d="M605.678 842.609L619.743 686.523L673.367 701.174L605.678 842.609Z" fill="white"/>
</g>
<g clip-path="url(#clip2_22825_297678)">
<path d="M542.78 324.92L545.99 326.37L549.91 327.59L549.89 327.63L547.78 326.97L547.04 326.73L547.01 326.83L546.27 326.5L542.78 324.92Z" fill="white"/>
<path d="M753.83 274.7H753.82C747.84 282.43 732.83 281.54 707.96 271.98C701.72 269.59 694.93 267.12 687.73 264.49L685.69 263.75C650.42 250.9 610.52 236.37 589.19 217.93L588.95 217.72C588.28 217.14 587.62 216.56 586.96 216C584.88 224.32 581.88 234.18 578.3 245.98L577.7 247.94C576.38 252.27 575.03 256.73 573.66 261.34C571.02 270.24 568.4 279.39 565.73 288.77L565.69 288.95C562.05 301.7 558.63 313.7 555.61 323.18L553.77 328.91L547.78 326.97L549.89 327.63L549.91 327.59L545.99 326.37L542.78 324.92L539.71 323.53L539.68 323.51L537.67 322.61L531 321.26L533.24 310.11C536.53 293.62 539.65 278.04 544.67 259.42C547.55 248.73 550.12 238.12 552.19 229.6L552.48 228.39C560.46 195.45 563.42 184.94 571.21 182.15C572.65 181.63 573.71 181.56 574.63 181.65C576.29 181.82 577.79 182.68 578.86 183.96C579.67 184.92 580.32 185.88 580.76 185.98C582.43 183.65 584.86 180.39 587.25 180.08C593.55 179.26 597.06 184.93 600.26 189.03C601.07 190.07 601.99 191.1 603.07 192.17L607.21 196.29C609.31 198.38 612.41 200.77 614.93 202.25C650.82 223.29 690.95 234.74 714.92 241.58C724.05 244.2 731.21 246.25 735.56 248.05C745.64 252.25 751.62 256.55 753.82 261.19C758.19 268.04 754.94 273.25 753.83 274.7Z" fill="white"/>
<path d="M546.269 326.5L547.039 326.74L547.779 326.97L549.889 327.63L549.909 327.59L545.989 326.37L542.779 324.92L546.269 326.5Z" fill="white"/>
</g>
<g clip-path="url(#clip3_22825_297678)">
<path d="M481.259 324.92L478.049 326.37L474.129 327.59L474.149 327.63L476.259 326.97L476.999 326.73L477.029 326.83L477.769 326.5L481.259 324.92Z" fill="white"/>
<path d="M270.209 274.7H270.219C276.199 282.43 291.209 281.54 316.079 271.98C322.319 269.59 329.109 267.12 336.309 264.49L338.349 263.75C373.619 250.9 413.519 236.37 434.849 217.93L435.089 217.72C435.759 217.14 436.419 216.56 437.079 216C439.159 224.32 442.159 234.18 445.739 245.98L446.339 247.94C447.659 252.27 449.009 256.73 450.379 261.34C453.019 270.24 455.639 279.39 458.309 288.77L458.349 288.95C461.989 301.7 465.409 313.7 468.429 323.18L470.269 328.91L476.259 326.97L474.149 327.63L474.129 327.59L478.049 326.37L481.259 324.92L484.329 323.53L484.359 323.51L486.369 322.61L493.039 321.26L490.799 310.11C487.509 293.62 484.389 278.04 479.369 259.42C476.489 248.73 473.919 238.12 471.849 229.6L471.559 228.39C463.579 195.45 460.619 184.94 452.829 182.15C451.389 181.63 450.329 181.56 449.409 181.65C447.749 181.82 446.249 182.68 445.179 183.96C444.369 184.92 443.719 185.88 443.279 185.98C441.609 183.65 439.179 180.39 436.789 180.08C430.489 179.26 426.979 184.93 423.779 189.03C422.969 190.07 422.049 191.1 420.969 192.17L416.829 196.29C414.729 198.38 411.629 200.77 409.109 202.25C373.219 223.29 333.089 234.74 309.119 241.58C299.989 244.2 292.829 246.25 288.479 248.05C278.399 252.25 272.419 256.55 270.219 261.19C265.849 268.04 269.099 273.25 270.209 274.7Z" fill="white"/>
<path d="M477.77 326.5L477 326.74L476.26 326.97L474.15 327.63L474.13 327.59L478.05 326.37L481.26 324.92L477.77 326.5Z" fill="white"/>
</g>
</g>
<defs>
<linearGradient id="paint0_linear_22825_297678" x1="642" y1="-3.657e-06" x2="512" y2="1024" gradientUnits="userSpaceOnUse">
<stop stop-color="white"/>
<stop offset="1" stop-color="white" stop-opacity="0.01"/>
</linearGradient>
<clipPath id="clip0_22825_297678">
<rect width="1024" height="1024" fill="white"/>
</clipPath>
<clipPath id="clip1_22825_297678">
<rect width="764.023" height="538" fill="white" transform="translate(130 305)"/>
</clipPath>
<clipPath id="clip2_22825_297678">
<rect width="225.04" height="148.91" fill="white" transform="translate(531 180)"/>
</clipPath>
<clipPath id="clip3_22825_297678">
<rect width="225.04" height="148.91" fill="white" transform="matrix(-1 0 0 1 493.039 180)"/>
</clipPath>
</defs>
</svg>
