<svg width="74" height="74" viewBox="0 0 74 74" fill="none" xmlns="http://www.w3.org/2000/svg">
<g clip-path="url(#clip0_22752_196259)">
<rect width="74" height="74" rx="12" fill="url(#paint0_linear_22752_196259)"/>
<g style="mix-blend-mode:screen" opacity="0.2">
<rect width="74" height="74" fill="url(#paint1_linear_22752_196259)"/>
</g>
<path d="M13.8394 34.2249C13.8933 34.2249 14.2238 34.2924 14.8309 34.4273C15.4379 34.5622 16.1933 34.6566 17.0971 34.7105C17.0971 34.8589 17.0701 34.9871 17.0162 35.095L16.3687 35.0141C16.3147 35.3918 16.2405 35.7358 16.1461 36.046H16.1259C16.1124 36.127 16.0989 36.2079 16.0854 36.2888H20.7798C21.3868 36.1135 21.8185 35.6413 22.0748 34.8724H22.2973C22.3648 35.0343 22.4457 35.1962 22.5402 35.358C22.6076 35.2232 22.7088 34.9938 22.8437 34.6701C22.9651 34.3868 23.0528 34.1642 23.1067 34.0023H11.472V34.2249C11.472 35.0748 11.1549 35.9988 10.5209 36.997H10.2984C9.86669 36.1472 9.36083 35.5671 8.78078 35.2569C8.78078 35.2029 8.7538 35.149 8.69984 35.095C10.0218 34.3666 10.7368 33.4695 10.8447 32.4038H11.0875C11.2494 32.8085 11.3573 33.2065 11.4113 33.5977H13.03C12.8681 32.5994 12.3758 32.0194 11.5529 31.8575V31.6956C12.4027 31.5472 12.9018 31.0211 13.0502 30.1173H13.2121C13.32 30.9672 13.8191 31.4933 14.7095 31.6956V31.8575C13.9945 31.9654 13.5021 32.5455 13.2323 33.5977H19.7276C20.2807 31.9384 20.5842 30.6772 20.6381 29.8138C20.6921 29.8138 21.0091 29.9487 21.5891 30.2185C22.1692 30.4748 22.8841 30.7311 23.734 30.9874C23.734 31.0953 23.707 31.2033 23.653 31.3112C23.5991 31.3112 23.4777 31.2842 23.2888 31.2302L23.0258 31.1493C22.3918 31.9182 21.4745 32.7343 20.2739 33.5977H23.1674C23.5451 33.193 23.8352 32.795 24.0375 32.4038H24.1994C24.7255 33.0378 25.4607 33.6988 26.4049 34.3868C26.3645 34.4408 26.3442 34.5217 26.3442 34.6296C25.8586 34.6836 25.3527 34.7375 24.8266 34.7915H24.8064C24.1184 35.1152 23.4372 35.3918 22.7627 35.6211C23.0865 35.9718 23.5384 36.2753 24.1184 36.5316C24.0645 36.6261 24.0375 36.7003 24.0375 36.7542H15.9438C15.7819 37.3747 15.5998 37.9548 15.3974 38.4944H20.4155C20.7393 38.1571 21.0023 37.8401 21.2047 37.5434H21.3463C21.9803 38.1774 22.7492 38.7035 23.653 39.1216V39.4454C23.3293 39.5533 22.9988 39.6545 22.6616 39.7489C22.041 40.7336 21.3801 41.5633 20.6786 42.2377C22.068 42.6559 23.7407 42.8852 25.6967 42.9257C25.6967 43.0876 25.6697 43.2427 25.6158 43.3911C25.1436 43.553 24.7727 43.789 24.5029 44.0993C24.2466 44.423 24.0173 44.9289 23.8149 45.6169C21.5352 45.1852 19.8085 44.5782 18.6349 43.7958C17.92 44.214 17.1241 44.5647 16.2473 44.848C15.0197 45.2527 13.4549 45.5359 11.5529 45.6978C11.4989 45.5899 11.472 45.482 11.472 45.3741C13.1042 44.794 14.4194 44.214 15.4177 43.6339C16.0786 43.2562 16.6722 42.8785 17.1983 42.5008C16.4294 41.5835 15.8089 40.4099 15.3367 38.98H15.2153C14.7836 40.0727 14.2778 40.9899 13.6977 41.7319C12.6321 43.2157 11.047 44.4028 8.94266 45.2931C8.8887 45.2392 8.83474 45.1582 8.78078 45.0503C10.2107 43.7418 11.2898 42.4198 12.0183 41.0844C12.6928 39.8568 13.2189 38.4134 13.5966 36.7542H11.1684V36.2888H13.6977C13.7922 35.6009 13.8394 34.9129 13.8394 34.2249ZM23.0865 29.3282C23.0595 29.3282 23.0393 29.3349 23.0258 29.3484C22.9179 29.3619 22.8099 29.3822 22.702 29.4091V29.3889C22.0006 29.4698 21.1845 29.544 20.2537 29.6115C19.1475 29.6924 18.0953 29.7329 17.0971 29.7329C15.1411 29.8273 12.8479 29.8745 10.2174 29.8745C10.1635 29.7801 10.1365 29.652 10.1365 29.4901C12.9288 29.1259 15.4042 28.7549 17.5625 28.3772C19.6669 28.013 21.2991 27.6218 22.4592 27.2036L23.0865 27.8713C23.5182 28.3165 24.0712 28.8021 24.7457 29.3282C24.6513 29.3822 24.5771 29.4361 24.5231 29.4901C24.4692 29.4901 24.3613 29.4361 24.1994 29.3282L23.9566 29.1663C23.6868 29.2068 23.3967 29.2608 23.0865 29.3282ZM15.7009 38.98C16.4833 39.9243 17.4276 40.7067 18.5338 41.3272C19.1273 40.6662 19.6871 39.8838 20.2132 38.98H15.7009ZM17.3197 29.8138C17.3736 30.6502 17.8525 31.2033 18.7563 31.473V31.5337C18.0684 31.6956 17.5895 32.3027 17.3197 33.3548H17.1578C17.0094 32.3027 16.5103 31.6956 15.6605 31.5337V31.473C16.5103 31.2572 17.0094 30.7041 17.1578 29.8138H17.3197ZM20.4965 38.98H20.4358C20.4763 38.9935 20.5235 39.0137 20.5774 39.0407C20.5504 39.0137 20.5235 38.9935 20.4965 38.98ZM33.4262 45.455L31.4635 45.6169V41.3474H28.1248V40.8618H31.4635V38.1909H30.897V39.2835L28.9342 39.5263V32.5657L28.3677 32.3431L28.4486 32.1003L30.897 32.5657H31.4635V30.3602H28.2867V29.8745H31.4635V27.7499L30.816 27.588L30.9779 27.3452L33.4262 27.7499V29.8745H34.3975C34.8292 29.6857 35.1664 29.3215 35.4092 28.7819H35.652C35.8004 29.254 36.2726 29.6992 37.0684 30.1173L36.9875 30.3602H33.4262V32.5657H34.2154C34.3773 32.3903 34.6133 32.0733 34.9236 31.6147H35.0045C35.5846 32.0464 36.1646 32.3903 36.7447 32.6466V32.8085C36.3805 33.0783 36.1174 33.2537 35.9555 33.3346V38.8991L33.9928 39.1216V38.1909H33.4262V40.8618H34.3773C34.9438 40.6999 35.389 40.2817 35.7127 39.6073H35.9555C36.1174 40.1334 36.6165 40.6325 37.4529 41.1046L37.3922 41.3474H33.4262V45.455ZM36.1174 37.5434V37.1589H38.5658V34.2249H36.5221V33.8405H38.5658V30.9874H36.0365V30.603H38.5658V28.4581C38.5658 28.1074 38.6737 27.8511 38.8895 27.6892C39.1054 27.5139 39.3684 27.4262 39.6787 27.4262C39.8271 27.4262 39.9485 27.4734 40.0429 27.5678L40.3059 27.8309C40.4813 28.0872 40.6364 28.2153 40.7713 28.2153C40.8658 28.2153 40.9399 28.1816 40.9939 28.1141C41.0479 28.0467 41.0816 27.9658 41.0951 27.8713C41.1221 27.7634 41.1221 27.6487 41.0951 27.5273C41.0816 27.4059 41.0546 27.298 41.0141 27.2036L41.257 27.1227C41.3784 27.271 41.4728 27.4599 41.5402 27.6892C41.6077 27.9051 41.6414 28.1074 41.6414 28.2962C41.6414 28.647 41.547 28.964 41.3581 29.2473C41.1828 29.5171 40.9399 29.652 40.6297 29.652C40.279 29.652 40.0429 29.544 39.9215 29.3282C39.8405 29.2473 39.7596 29.1663 39.6787 29.0854C39.5977 28.991 39.5168 28.9437 39.4359 28.9437C39.274 28.9437 39.1661 28.9977 39.1121 29.1056C39.0716 29.2135 39.1256 29.3687 39.274 29.571C39.3954 29.7599 39.537 29.9217 39.6989 30.0566C39.8743 30.178 40.0429 30.2792 40.2048 30.3602C40.3801 30.4546 40.569 30.5355 40.7713 30.603H41.8033C42.4778 30.4411 43.0039 29.9622 43.3816 29.1663H43.6244C43.8402 29.8003 44.3933 30.3264 45.2836 30.7446L45.2027 30.9874H40.7713V33.8405H41.6414C42.208 33.6651 42.6329 33.1862 42.9162 32.4038H43.159C43.3074 33.0378 43.8335 33.5707 44.7373 34.0023L44.6563 34.2249H40.7713V37.1589H42.7543C42.9162 37.1589 43.2602 36.7879 43.7862 36.046H43.9481C44.5282 36.5182 45.1554 36.8891 45.8299 37.1589V37.3208C45.3038 37.685 44.9936 37.8941 44.8991 37.948H44.8789C44.8789 38.1909 44.8722 38.5348 44.8587 38.98C44.8317 39.9243 44.7373 40.8146 44.5754 41.6509C44.4675 42.3389 43.9414 42.9729 42.9971 43.553H42.8352C42.471 42.8245 41.81 42.2715 40.8523 41.8937V41.6509C42.0663 41.7049 42.6734 41.3407 42.6734 40.5583C42.7273 39.9243 42.7678 39.2498 42.7948 38.5348C42.8083 38.0357 42.815 37.7052 42.815 37.5434H40.7713V44.0386L41.5807 44.5849L40.3059 45.1313L39.6787 46.7095L38.9705 45.1313L37.6957 44.5849L38.5658 44.1195V37.5434H36.1174ZM30.897 37.6243H33.9928V35.5806H30.897V37.6243ZM30.897 35.095H33.9928V33.1323H30.897V35.095ZM58.0717 44.5849L56.0078 44.8277V43.7148H53.0941V45.1313L51.1111 45.2931V38.8991L52.7905 39.3645H53.5595V36.8352H51.3944C51.2865 37.6041 51.1381 38.319 50.9492 38.98C50.4231 40.9225 49.4789 42.7099 48.1164 44.3421L47.8736 44.1802C48.5076 42.2377 48.9528 40.3559 49.2091 38.5348C49.4789 36.7137 49.6137 34.6229 49.6137 32.2622V29.2473L48.9055 28.8628L49.1484 28.4581L51.7586 29.2473H56.0685C56.2304 29.0449 56.5002 28.674 56.8779 28.1344H56.9588C57.4849 28.62 58.1189 29.0449 58.8609 29.4091V29.4901C58.3887 29.8543 58.0987 30.0364 57.9908 30.0364V33.3548L55.9471 33.6786V32.9704H51.7384C51.6979 34.1979 51.6102 35.3311 51.4753 36.3698H53.5595V34.144L52.7703 34.0023L52.9322 33.5167L55.5424 34.0023V36.3698H56.4934L57.0398 36.046L57.667 35.095L58.3145 35.9651L59.2655 36.6733L58.3145 37.2398L57.667 38.2516L57.0398 37.3208L56.2506 36.8352H55.5424V39.3645H56.2304C56.4058 39.1351 56.6486 38.7642 56.9588 38.2516H57.1207C57.5928 38.7911 58.1729 39.243 58.8609 39.6073V39.7691C58.4966 40.0389 58.2336 40.2143 58.0717 40.2952V44.5849ZM62.0984 27.3452L64.9514 28.2962V43.6339C64.9514 43.9981 64.884 44.3219 64.7491 44.6052C64.6142 44.9019 64.2297 45.2931 63.5957 45.7788H63.4541C62.6582 44.8749 61.8151 44.214 60.9248 43.7958V43.472C61.7072 43.4181 62.1995 43.3034 62.4019 43.128C62.6177 42.9392 62.7256 42.6627 62.7256 42.2984V28.0737C62.6852 28.0737 62.5435 28.0332 62.3007 27.9523C62.0579 27.8713 61.9365 27.8039 61.9365 27.7499C61.9904 27.642 62.0444 27.5071 62.0984 27.3452ZM61.3902 40.9427L59.4072 41.1855V30.1173L61.3902 30.522V40.9427ZM51.7586 31.7766V32.4038H55.9471V29.652H51.7586V31.7766ZM53.0941 43.1685H56.0078V39.8501H53.0941V43.1685Z" fill="white"/>
</g>
<defs>
<linearGradient id="paint0_linear_22752_196259" x1="37" y1="0" x2="37" y2="74" gradientUnits="userSpaceOnUse">
<stop stop-color="#FF6593"/>
<stop offset="1" stop-color="#FA487D"/>
</linearGradient>
<linearGradient id="paint1_linear_22752_196259" x1="46.5029" y1="-3.43262" x2="37" y2="74" gradientUnits="userSpaceOnUse">
<stop offset="0.0583092" stop-color="white"/>
<stop offset="1" stop-color="white" stop-opacity="0.01"/>
</linearGradient>
<clipPath id="clip0_22752_196259">
<rect width="74" height="74" rx="12" fill="white"/>
</clipPath>
</defs>
</svg>
