<svg width="103" height="93" viewBox="0 0 263 93" fill="none" xmlns="http://www.w3.org/2000/svg">
<path d="M23.012 37.267C23.164 37.267 24.095 37.457 25.805 37.837C27.515 38.217 29.643 38.483 32.189 38.635C32.189 39.053 32.113 39.414 31.961 39.718L30.137 39.49C29.985 40.554 29.776 41.523 29.51 42.397H29.453C29.415 42.625 29.377 42.853 29.339 43.081H42.563C44.273 42.587 45.489 41.257 46.211 39.091H46.838C47.028 39.547 47.256 40.003 47.522 40.459C47.712 40.079 47.997 39.433 48.377 38.521C48.719 37.723 48.966 37.096 49.118 36.64H16.343V37.267C16.343 39.661 15.45 42.264 13.664 45.076H13.037C11.821 42.682 10.396 41.048 8.762 40.174C8.762 40.022 8.686 39.87 8.534 39.718C12.258 37.666 14.272 35.139 14.576 32.137H15.26C15.716 33.277 16.02 34.398 16.172 35.5H20.732C20.276 32.688 18.889 31.054 16.571 30.598V30.142C18.965 29.724 20.371 28.242 20.789 25.696H21.245C21.549 28.09 22.955 29.572 25.463 30.142V30.598C23.449 30.902 22.062 32.536 21.302 35.5H39.599C41.157 30.826 42.012 27.273 42.164 24.841C42.316 24.841 43.209 25.221 44.843 25.981C46.477 26.703 48.491 27.425 50.885 28.147C50.885 28.451 50.809 28.755 50.657 29.059C50.505 29.059 50.163 28.983 49.631 28.831L48.89 28.603C47.104 30.769 44.52 33.068 41.138 35.5H49.289C50.353 34.36 51.17 33.239 51.74 32.137H52.196C53.678 33.923 55.749 35.785 58.409 37.723C58.295 37.875 58.238 38.103 58.238 38.407C56.87 38.559 55.445 38.711 53.963 38.863H53.906C51.968 39.775 50.049 40.554 48.149 41.2C49.061 42.188 50.334 43.043 51.968 43.765C51.816 44.031 51.74 44.24 51.74 44.392H28.94C28.484 46.14 27.971 47.774 27.401 49.294H41.537C42.449 48.344 43.19 47.451 43.76 46.615H44.159C45.945 48.401 48.111 49.883 50.657 51.061V51.973C49.745 52.277 48.814 52.562 47.864 52.828C46.116 55.602 44.254 57.939 42.278 59.839C46.192 61.017 50.904 61.663 56.414 61.777C56.414 62.233 56.338 62.67 56.186 63.088C54.856 63.544 53.811 64.209 53.051 65.083C52.329 65.995 51.683 67.42 51.113 69.358C44.691 68.142 39.827 66.432 36.521 64.228C34.507 65.406 32.265 66.394 29.795 67.192C26.337 68.332 21.929 69.13 16.571 69.586C16.419 69.282 16.343 68.978 16.343 68.674C20.941 67.04 24.646 65.406 27.458 63.772C29.32 62.708 30.992 61.644 32.474 60.58C30.308 57.996 28.56 54.69 27.23 50.662H26.888C25.672 53.74 24.247 56.324 22.613 58.414C19.611 62.594 15.146 65.938 9.218 68.446C9.066 68.294 8.914 68.066 8.762 67.762C12.79 64.076 15.83 60.352 17.882 56.59C19.782 53.132 21.264 49.066 22.328 44.392H15.488V43.081H22.613C22.879 41.143 23.012 39.205 23.012 37.267ZM49.061 23.473C48.985 23.473 48.928 23.492 48.89 23.53C48.586 23.568 48.282 23.625 47.978 23.701V23.644C46.002 23.872 43.703 24.081 41.081 24.271C37.965 24.499 35.001 24.613 32.189 24.613C26.679 24.879 20.219 25.012 12.809 25.012C12.657 24.746 12.581 24.385 12.581 23.929C20.447 22.903 27.42 21.858 33.5 20.794C39.428 19.768 44.026 18.666 47.294 17.488L49.061 19.369C50.277 20.623 51.835 21.991 53.735 23.473C53.469 23.625 53.26 23.777 53.108 23.929C52.956 23.929 52.652 23.777 52.196 23.473L51.512 23.017C50.752 23.131 49.935 23.283 49.061 23.473ZM28.256 50.662C30.46 53.322 33.12 55.526 36.236 57.274C37.908 55.412 39.485 53.208 40.967 50.662H28.256ZM32.816 24.841C32.968 27.197 34.317 28.755 36.863 29.515V29.686C34.925 30.142 33.576 31.852 32.816 34.816H32.36C31.942 31.852 30.536 30.142 28.142 29.686V29.515C30.536 28.907 31.942 27.349 32.36 24.841H32.816ZM41.765 50.662H41.594C41.708 50.7 41.841 50.757 41.993 50.833C41.917 50.757 41.841 50.7 41.765 50.662ZM78.188 68.902L72.659 69.358V57.331H63.254V55.963H72.659V48.439H71.063V51.517L65.534 52.201V32.593L63.938 31.966L64.166 31.282L71.063 32.593H72.659V26.38H63.71V25.012H72.659V19.027L70.835 18.571L71.291 17.887L78.188 19.027V25.012H80.924C82.14 24.48 83.09 23.454 83.774 21.934H84.458C84.876 23.264 86.206 24.518 88.448 25.696L88.22 26.38H78.188V32.593H80.411C80.867 32.099 81.532 31.206 82.406 29.914H82.634C84.268 31.13 85.902 32.099 87.536 32.821V33.277C86.51 34.037 85.769 34.531 85.313 34.759V50.434L79.784 51.061V48.439H78.188V55.963H80.867C82.463 55.507 83.717 54.329 84.629 52.429H85.313C85.769 53.911 87.175 55.317 89.531 56.647L89.36 57.331H78.188V68.902ZM85.769 46.615V45.532H92.666V37.267H86.909V36.184H92.666V28.147H85.541V27.064H92.666V21.022C92.666 20.034 92.97 19.312 93.578 18.856C94.186 18.362 94.927 18.115 95.801 18.115C96.219 18.115 96.561 18.248 96.827 18.514L97.568 19.255C98.062 19.977 98.499 20.338 98.879 20.338C99.145 20.338 99.354 20.243 99.506 20.053C99.658 19.863 99.753 19.635 99.791 19.369C99.867 19.065 99.867 18.742 99.791 18.4C99.753 18.058 99.677 17.754 99.563 17.488L100.247 17.26C100.589 17.678 100.855 18.21 101.045 18.856C101.235 19.464 101.33 20.034 101.33 20.566C101.33 21.554 101.064 22.447 100.532 23.245C100.038 24.005 99.354 24.385 98.48 24.385C97.492 24.385 96.827 24.081 96.485 23.473C96.257 23.245 96.029 23.017 95.801 22.789C95.573 22.523 95.345 22.39 95.117 22.39C94.661 22.39 94.357 22.542 94.205 22.846C94.091 23.15 94.243 23.587 94.661 24.157C95.003 24.689 95.402 25.145 95.858 25.525C96.352 25.867 96.827 26.152 97.283 26.38C97.777 26.646 98.309 26.874 98.879 27.064H101.786C103.686 26.608 105.168 25.259 106.232 23.017H106.916C107.524 24.803 109.082 26.285 111.59 27.463L111.362 28.147H98.879V36.184H101.33C102.926 35.69 104.123 34.341 104.921 32.137H105.605C106.023 33.923 107.505 35.424 110.051 36.64L109.823 37.267H98.879V45.532H104.465C104.921 45.532 105.89 44.487 107.372 42.397H107.828C109.462 43.727 111.229 44.772 113.129 45.532V45.988C111.647 47.014 110.773 47.603 110.507 47.755H110.45C110.45 48.439 110.431 49.408 110.393 50.662C110.317 53.322 110.051 55.83 109.595 58.186C109.291 60.124 107.809 61.91 105.149 63.544H104.693C103.667 61.492 101.805 59.934 99.107 58.87V58.186C102.527 58.338 104.237 57.312 104.237 55.108C104.389 53.322 104.503 51.422 104.579 49.408C104.617 48.002 104.636 47.071 104.636 46.615H98.879V64.912L101.159 66.451L97.568 67.99L95.801 72.436L93.806 67.99L90.215 66.451L92.666 65.14V46.615H85.769ZM71.063 46.843H79.784V41.086H71.063V46.843ZM71.063 39.718H79.784V34.189H71.063V39.718ZM147.614 66.451L141.8 67.135V64H133.592V67.99L128.006 68.446V50.434L132.737 51.745H134.903V44.62H128.804C128.5 46.786 128.082 48.8 127.55 50.662C126.068 56.134 123.408 61.169 119.57 65.767L118.886 65.311C120.672 59.839 121.926 54.538 122.648 49.408C123.408 44.278 123.788 38.388 123.788 31.738V23.245L121.793 22.162L122.477 21.022L129.83 23.245H141.971C142.427 22.675 143.187 21.63 144.251 20.11H144.479C145.961 21.478 147.747 22.675 149.837 23.701V23.929C148.507 24.955 147.69 25.468 147.386 25.468V34.816L141.629 35.728V33.733H129.773C129.659 37.191 129.412 40.383 129.032 43.309H134.903V37.039L132.68 36.64L133.136 35.272L140.489 36.64V43.309H143.168L144.707 42.397L146.474 39.718L148.298 42.169L150.977 44.164L148.298 45.76L146.474 48.61L144.707 45.988L142.484 44.62H140.489V51.745H142.427C142.921 51.099 143.605 50.054 144.479 48.61H144.935C146.265 50.13 147.899 51.403 149.837 52.429V52.885C148.811 53.645 148.07 54.139 147.614 54.367V66.451ZM158.957 17.887L166.994 20.566V63.772C166.994 64.798 166.804 65.71 166.424 66.508C166.044 67.344 164.961 68.446 163.175 69.814H162.776C160.534 67.268 158.159 65.406 155.651 64.228V63.316C157.855 63.164 159.242 62.841 159.812 62.347C160.42 61.815 160.724 61.036 160.724 60.01V19.939C160.61 19.939 160.211 19.825 159.527 19.597C158.843 19.369 158.501 19.179 158.501 19.027C158.653 18.723 158.805 18.343 158.957 17.887ZM156.962 56.191L151.376 56.875V25.696L156.962 26.836V56.191ZM129.83 30.37V32.137H141.629V24.385H129.83V30.37ZM133.592 62.461H141.8V53.113H133.592V62.461ZM205.143 64H182.585V62.1543H189.079V24.8301H187.917C186.367 24.8301 185.046 25.1263 183.952 25.7188C182.357 26.6302 181.058 28.5443 180.055 31.4609L177.936 37.6133H175.885L176.159 22.9844H211.569L211.842 37.6133H209.792L207.673 31.4609C207.353 30.5951 207.057 29.8431 206.784 29.2051C205.417 26.2884 203.092 24.8301 199.811 24.8301H198.649V62.1543H203.298C204.255 62.2454 204.87 62.8607 205.143 64ZM239.9 64.3418H238.464C237.416 64.3418 236.619 64.1595 236.072 63.7949C235.434 63.3392 234.545 61.653 233.406 58.7363L219.871 24.8301H216.384V22.9844H234.841V24.8301H229.441L241.13 53.7461L251.453 24.8301H245.984V22.9844H257.605V24.8301H254.187L239.9 64.3418Z" fill="url(#paint0_linear_22689_275772)"/>
<defs>
<linearGradient id="paint0_linear_22689_275772" x1="131.5" y1="18" x2="131.5" y2="69" gradientUnits="userSpaceOnUse">
<stop stop-color="#F57299"/>
<stop offset="1" stop-color="#FA4C80"/>
</linearGradient>
</defs>
</svg>
