<svg width="145" height="42" viewBox="0 0 145 42" fill="none" xmlns="http://www.w3.org/2000/svg">
<path fill-rule="evenodd" clip-rule="evenodd" d="M2.46087 11.2613C1.8543 17.6895 1.84489 24.1176 2.44206 30.5458L2.44676 30.5505C2.88876 35.3422 6.66456 39.1182 11.456 39.5602C17.8791 40.1527 24.3069 40.148 30.7347 39.5414C35.3898 39.0994 39.0997 35.3892 39.5417 30.7339C40.153 24.2446 40.153 17.7553 39.5417 11.266C39.0997 6.61068 35.3898 2.9005 30.7347 2.45848C24.2458 1.84717 17.7568 1.84717 11.2679 2.45848C6.61283 2.8958 2.89817 6.61068 2.46087 11.2613ZM15.9923 31.5002C15.9722 31.5022 15.9525 31.5042 15.9331 31.5062V31.4968C15.8437 31.5015 15.7544 31.5062 15.6651 31.5015C15.4158 31.4779 15.1666 31.4544 14.9268 31.3933C14.6961 31.3333 14.4608 31.2235 14.2522 31.1261L14.2403 31.1206C14.1604 31.0829 14.0899 31.0453 14.0193 30.9983C13.8124 30.8619 13.6149 30.7162 13.4363 30.5422C13.2982 30.4081 13.1768 30.2409 13.0635 30.0851C13.0417 30.0551 13.0202 30.0255 12.999 29.9967C12.9425 29.9215 12.8908 29.8415 12.8485 29.7522C12.8432 29.7408 12.8379 29.7295 12.8326 29.7181C12.7388 29.5173 12.6428 29.3119 12.5805 29.0938C12.446 28.6232 12.4512 28.1127 12.4563 27.6182C12.4573 27.5247 12.4582 27.4318 12.4582 27.3399V13.9005C12.4582 13.6277 12.5005 13.3456 12.5523 13.0775C12.5924 12.8686 12.6876 12.6596 12.776 12.4654C12.7911 12.4323 12.8059 12.3996 12.8203 12.3675C12.8532 12.2923 12.8908 12.2217 12.9331 12.1512C13.0648 11.9443 13.22 11.7421 13.3892 11.5634C13.5122 11.4292 13.6706 11.3128 13.8177 11.2047C13.8562 11.1764 13.8939 11.1487 13.93 11.1214C14.1933 10.9239 14.513 10.8016 14.8187 10.6981C15.0138 10.6318 15.238 10.6076 15.4457 10.5851C15.4883 10.5805 15.5302 10.576 15.571 10.5712C15.6509 10.5571 15.7356 10.5571 15.8155 10.5571H15.8155C16.3939 10.5759 16.9299 10.7217 17.4331 11.0085C17.6874 11.1529 17.9392 11.2997 18.1921 11.4472C18.2853 11.5016 18.3786 11.556 18.4722 11.6104C18.8602 11.8338 19.2481 12.0583 19.636 12.2829C20.0239 12.5074 20.4118 12.7319 20.7998 12.9553C21.2935 13.2398 21.786 13.5243 22.2786 13.8088C22.7711 14.0933 23.2637 14.3778 23.7574 14.6622C24.7303 15.2263 25.708 15.7904 26.6856 16.3544L26.6868 16.3551C27.4386 16.7874 28.1857 17.2197 28.9327 17.652L28.9344 17.653C29.0685 17.7306 29.2013 17.807 29.3342 17.8834C29.467 17.9598 29.5998 18.0362 29.7338 18.1138C29.7714 18.1326 29.8043 18.1514 29.8372 18.1749C29.856 18.1867 29.8737 18.1984 29.8913 18.2102C29.9089 18.2219 29.9266 18.2337 29.9454 18.2455C30.092 18.3432 30.228 18.4551 30.3626 18.5658C30.3834 18.5829 30.4042 18.5999 30.425 18.6169C30.4955 18.6781 30.5567 18.7392 30.6131 18.8097C30.6279 18.8279 30.6428 18.8461 30.6577 18.8643C30.7899 19.0258 30.9259 19.1919 31.0316 19.3693C31.1448 19.5652 31.2257 19.7773 31.3043 19.983C31.3105 19.9995 31.3168 20.016 31.3231 20.0324C31.3513 20.1076 31.3748 20.1828 31.3889 20.2581C31.4359 20.4979 31.4736 20.7424 31.483 20.9869C31.4877 21.0622 31.483 21.1421 31.4736 21.2174C31.4718 21.2349 31.47 21.2526 31.4682 21.2705C31.4462 21.4883 31.4215 21.7333 31.3607 21.9462C31.1162 22.7927 30.552 23.4933 29.7902 23.9306L29.3529 24.1846C29.0285 24.3703 28.7053 24.5572 28.382 24.7441C28.0587 24.931 27.7354 25.118 27.4109 25.3037L24.6038 26.926C23.5975 27.5044 22.5866 28.0875 21.5803 28.6706C20.9536 29.0357 20.3244 29.3982 19.6963 29.76C19.4668 29.8922 19.2373 30.0244 19.0083 30.1566C18.7661 30.2953 18.5239 30.4352 18.2818 30.5751C18.0396 30.715 17.7975 30.8549 17.5553 30.9936C17.5365 31.0054 17.5177 31.0159 17.4989 31.0265C17.4801 31.0371 17.4613 31.0477 17.4425 31.0594C17.4189 31.0735 17.3954 31.0876 17.3672 31.1018C17.1462 31.2146 16.9158 31.3181 16.676 31.3886C16.4607 31.4532 16.2099 31.4783 15.9923 31.5002ZM16.2152 26.8273V26.8367V26.8602C16.2152 27.1141 16.4879 27.274 16.7089 27.1471C16.8171 27.0906 16.9205 27.0295 17.0239 26.9684L17.024 26.9684C17.2614 26.832 17.4989 26.6944 17.7364 26.5569C17.9738 26.4193 18.2113 26.2818 18.4487 26.1455C18.7332 25.9809 19.0165 25.8175 19.2998 25.6541C19.5831 25.4906 19.8664 25.3272 20.1509 25.1627C20.4542 24.9863 20.7574 24.8112 21.0607 24.636C21.364 24.4608 21.6673 24.2857 21.9706 24.1093C22.2715 23.9353 22.5736 23.7613 22.8757 23.5874C23.1779 23.4134 23.48 23.2394 23.7809 23.0654C24.1804 22.8312 24.5825 22.5995 24.9834 22.3684C25.1298 22.2841 25.276 22.1998 25.4219 22.1155C25.8733 21.8569 26.32 21.5983 26.7667 21.3396C26.7738 21.3349 26.7797 21.3314 26.7856 21.3279C26.7914 21.3243 26.7973 21.3208 26.8044 21.3161C27.0254 21.1891 27.0254 20.8741 26.8044 20.7471C26.6727 20.6672 26.541 20.5919 26.4094 20.5167C25.9345 20.244 25.4549 19.9665 24.9752 19.6891C24.6931 19.5269 24.4098 19.3634 24.1265 19.2C23.8432 19.0366 23.5599 18.8732 23.2778 18.711L21.4628 17.6624C21.1642 17.4907 20.8655 17.3179 20.5669 17.1451C20.2684 16.9723 19.9698 16.7995 19.6713 16.6278C19.3985 16.4703 19.127 16.314 18.8554 16.1576C18.5839 16.0013 18.3123 15.8449 18.0396 15.6874C17.5977 15.4288 17.1558 15.1749 16.7139 14.921L16.7136 14.9209H16.7089C16.4879 14.7939 16.2152 14.9538 16.2152 15.2077V26.8273Z" fill="#FAC33D"/>
<path d="M53.2074 27.2489C53.4275 27.2644 53.5145 27.3883 53.4633 27.6104C53.3763 27.9203 53.2739 28.2198 53.1562 28.5142C53.0385 28.8086 52.9003 29.0824 52.7468 29.3406C52.9003 29.4077 53.0436 29.4542 53.1818 29.48C53.32 29.5059 53.4736 29.5369 53.6425 29.5678L53.924 26.8305H50.1877C49.9676 26.8305 49.8038 26.7789 49.7014 26.6756C49.5991 26.5723 49.5632 26.3915 49.5991 26.1333L50.1877 21.924C50.2235 21.7329 50.2798 21.6141 50.3668 21.5624C50.4538 21.5108 50.5818 21.485 50.7507 21.485H59.8355C60.332 21.485 60.7312 21.5211 61.0383 21.5883C61.3454 21.6554 61.5808 21.769 61.7446 21.924C61.9084 22.0789 62.0107 22.2855 62.0517 22.5438C62.0926 22.802 62.0977 23.1222 62.067 23.4992L61.7599 26.1333C61.7241 26.407 61.6524 26.5929 61.545 26.6911C61.4375 26.7892 61.243 26.8305 60.9717 26.8305H57.6449L57.2354 31.7112C57.2201 32.1399 57.0665 32.3981 56.7748 32.4859C56.4831 32.5892 56.1197 32.6564 55.6744 32.6925C55.2291 32.7287 54.7633 32.7339 54.2669 32.7184C53.7704 32.7029 53.2842 32.6564 52.8082 32.5737C52.3322 32.4963 51.9279 32.3878 51.6054 32.2535C51.3649 32.1502 51.2727 31.954 51.3239 31.6596C51.3597 31.4168 51.4109 31.1689 51.4775 30.9107C51.0834 31.2567 50.6432 31.5408 50.1467 31.7732C49.6503 32.0056 49.1128 32.1812 48.5345 32.3052C48.3963 32.3413 48.2939 32.3207 48.2172 32.2535C48.1404 32.1864 48.1097 32.0728 48.1301 31.9178C48.1455 31.7629 48.1711 31.5821 48.2069 31.3755C48.2427 31.1689 48.2735 30.952 48.3093 30.7299C48.3451 30.5078 48.3758 30.2961 48.4116 30.0998C48.4475 29.9036 48.4782 29.728 48.514 29.5678C48.5294 29.3613 48.6164 29.2166 48.7699 29.1288C49.1947 28.9068 49.5172 28.6743 49.7321 28.4316C49.9471 28.1889 50.157 27.8635 50.3566 27.4503C50.4077 27.3108 50.5357 27.2437 50.7404 27.2437H53.2228L53.2074 27.2489ZM51.2881 10.3601C51.3239 10.2051 51.3802 10.076 51.4672 9.9727C51.5542 9.8694 51.6873 9.81775 51.8767 9.81775H60.9615C61.9493 9.81775 62.6198 9.98819 62.9678 10.3342C63.3159 10.6803 63.4592 11.3155 63.3926 12.2452L62.804 17.2034C62.7887 17.41 62.7222 17.5597 62.6096 17.6579C62.497 17.7508 62.3485 17.7973 62.1591 17.7973H58.2693C58.387 17.9368 58.4894 18.1072 58.5764 18.3138H63.0037C63.1418 18.3138 63.2391 18.3551 63.3005 18.4429C63.3619 18.5307 63.3722 18.634 63.3415 18.7528C63.3056 18.9956 63.2545 19.2951 63.1879 19.6566C63.1214 20.0182 63.0446 20.3539 62.9576 20.6638C62.9064 20.9065 62.7426 21.0253 62.4714 21.0253H51.0322C50.3668 21.0253 49.855 20.8497 49.4967 20.4985C49.1384 20.1473 48.9337 19.5275 48.8825 18.6495C48.8672 18.4274 48.9593 18.3138 49.164 18.3138H54.4358C54.5228 18.1072 54.6252 17.9368 54.7429 17.7973H51.0322C50.6074 17.7973 50.418 17.5804 50.4692 17.1517L51.2881 10.3601ZM53.5913 23.6593L53.4633 24.5374H58.1977L58.3 23.6593H53.5913ZM59.2725 14.8534H54.4358L54.359 15.5765H59.2213L59.2725 14.8534ZM54.6405 12.9941H59.4516L59.5284 12.4001H54.7173L54.6405 12.9941ZM59.6819 27.5071C60.1426 27.5071 60.552 27.6465 60.9103 27.9203C61.2686 28.194 61.4989 28.5504 61.6013 28.9791C62.2666 28.7208 62.8706 28.4523 63.4182 28.1785C63.9659 27.9048 64.4572 27.5846 64.9025 27.223C65.3478 26.8615 65.7521 26.4277 66.1206 25.9215C66.4892 25.4154 66.827 24.7904 67.1289 24.0519C67.1955 23.8814 67.3439 23.7936 67.564 23.7936H70.5325C70.6861 23.7936 70.7936 23.8349 70.8499 23.9227C70.9113 24.0106 70.9215 24.1138 70.8908 24.2326C70.2613 26.5413 69.1046 28.4109 67.4207 29.8519C65.7368 31.2929 63.5769 32.2587 60.9359 32.7545C60.7465 32.7907 60.5981 32.7545 60.4855 32.6512C60.3729 32.5479 60.3422 32.3826 60.3985 32.1606L60.6544 31.1018C60.3473 31.2722 60.0249 31.36 59.6819 31.36C59.1343 31.36 58.6737 31.1741 58.3 30.8022C57.9264 30.4304 57.737 29.981 57.737 29.4491C57.737 28.9171 57.9264 28.4368 58.3 28.0701C58.6737 27.6982 59.1343 27.5123 59.6819 27.5123V27.5071ZM70.9676 16.4028C71.07 16.4028 71.157 16.439 71.2235 16.5061C71.29 16.5733 71.3105 16.6766 71.2747 16.816C71.0034 17.9006 70.594 18.8974 70.0463 19.8116C69.4987 20.7258 68.8538 21.5418 68.1167 22.2649C67.3746 22.9879 66.5506 23.6025 65.6446 24.1138C64.7387 24.62 63.8021 25.0125 62.8296 25.2862C62.6761 25.3224 62.5481 25.3017 62.4458 25.2346C62.3434 25.1675 62.3076 25.0383 62.3434 24.8472C62.3946 24.4496 62.4714 24.0105 62.5737 23.5302C62.6761 23.0499 62.7682 22.6006 62.8552 22.1874C62.9218 21.9137 63.0497 21.7329 63.2391 21.6451C63.8379 21.3197 64.3497 21.0098 64.7899 20.7154C65.225 20.421 65.6139 20.0957 65.9517 19.7341C66.2895 19.3726 66.6069 18.9491 66.8884 18.4687C67.1699 17.9884 67.4565 17.3841 67.7431 16.6611C67.8097 16.4906 67.9581 16.4028 68.1782 16.4028H70.9676ZM71.0444 9.53369C71.2849 9.53369 71.3873 9.65248 71.3515 9.89522C71.1826 10.9127 70.855 11.863 70.3688 12.7513C69.8825 13.6397 69.2888 14.4402 68.5927 15.153C67.8915 15.8657 67.1136 16.4855 66.2486 17.002C65.3887 17.5184 64.4982 17.9161 63.5769 18.1898C63.4233 18.226 63.2954 18.2053 63.193 18.1279C63.0907 18.0504 63.0548 17.9161 63.0907 17.7302C63.1418 17.3325 63.2033 16.909 63.2852 16.4493C63.3619 15.9948 63.4438 15.5507 63.5257 15.1168C63.5922 14.8586 63.7049 14.6881 63.8584 14.6003C64.4214 14.2233 64.9025 13.8773 65.3069 13.5674C65.7061 13.2575 66.0541 12.9269 66.3407 12.5757C66.6325 12.2245 66.8833 11.8268 67.0982 11.3878C67.3132 10.9488 67.5026 10.4117 67.6715 9.77644C67.7226 9.62149 67.8608 9.54402 68.0809 9.54402H71.0495L71.0444 9.53369Z" fill="#FAC33D"/>
<path d="M81.8268 24.927C81.5939 25.0908 81.4204 25.061 81.3064 24.8278C81.2073 24.6144 81.1082 24.391 81.0091 24.1578C80.91 23.9246 80.796 23.6963 80.6622 23.463L80.1171 32.3711C80.0675 32.6341 79.909 32.7681 79.6463 32.7681H76.7225C76.3905 32.7681 76.2418 32.6192 76.2765 32.3215L76.9455 25.1007C76.5342 25.3836 76.113 25.6317 75.6818 25.8451C75.2507 26.0585 74.8146 26.2322 74.3686 26.3662C74.2348 26.401 74.1159 26.3811 74.0118 26.3166C73.9028 26.2521 73.8582 26.128 73.873 25.9444C73.8879 25.7111 73.9226 25.458 73.9721 25.1752C74.0217 24.8923 74.0762 24.6144 74.1357 24.3315C74.1951 24.0486 74.2497 23.7806 74.3091 23.5275C74.3686 23.2695 74.4182 23.0412 74.4727 22.8427C74.5074 22.7583 74.552 22.6839 74.6065 22.6194C74.6659 22.5548 74.7204 22.5052 74.77 22.4705C75.8949 21.7906 76.8117 21.0363 77.5204 20.1976C78.229 19.3638 78.7493 18.3663 79.0814 17.205H77.223C76.6135 17.205 76.0882 16.9569 75.6521 16.4606C75.216 15.9644 74.9682 15.2596 74.9187 14.3515C74.9187 14.1678 74.9831 14.0785 75.1169 14.0785H81.4601C82.3521 14.0785 82.9121 14.2969 83.145 14.7386C83.3779 15.1753 83.3828 15.751 83.1697 16.4606C82.7882 17.6666 82.2381 18.8775 81.5096 20.0834C81.9061 20.4457 82.2629 20.8179 82.585 21.2C82.9071 21.5822 83.1846 21.9345 83.4126 22.267L84.6515 11.2001C84.6862 10.9867 84.7506 10.8528 84.8497 10.8031C84.9488 10.7535 85.0975 10.7287 85.2957 10.7287H93.3238C94.4289 10.7287 95.1623 10.952 95.5141 11.3986C95.8709 11.8453 95.9899 12.6145 95.8759 13.7063L95.083 24.401C95.0483 24.6491 94.9195 24.7732 94.6866 24.7732H91.8619C91.5794 24.7732 91.4555 24.6392 91.4902 24.3762L92.3822 14.6492C92.4318 14.287 92.298 14.1033 91.9858 14.1033H87.8478L86.5346 24.5002C86.485 24.7335 86.3364 24.8476 86.0886 24.8476H83.4621C83.2292 24.8476 83.1301 24.7087 83.1648 24.4258L83.2143 23.8551C82.9814 24.0536 82.7535 24.2422 82.5206 24.4258C82.2876 24.6094 82.0597 24.7732 81.8268 24.9221V24.927ZM80.5631 9.09595C81.1925 9.09595 81.7227 9.30934 82.1588 9.7411C82.5949 10.1729 82.8179 10.6989 82.8179 11.3292C82.8179 11.9594 82.5999 12.4904 82.1588 12.9272C81.7227 13.3639 81.1875 13.5872 80.5631 13.5872C79.9387 13.5872 79.4035 13.3688 78.9674 12.9272C78.5313 12.4904 78.3083 11.9545 78.3083 11.3292C78.3083 10.7039 78.5264 10.1729 78.9674 9.7411C79.4035 9.30934 79.9387 9.09595 80.5631 9.09595ZM88.2938 15.1257C88.3285 14.8924 88.4574 14.7783 88.6903 14.7783H91.3663C91.6488 14.7783 91.7727 14.9023 91.738 15.1505C91.5744 17.0512 91.406 18.7484 91.2424 20.2373C91.0789 21.7261 90.8311 23.066 90.4991 24.2571C90.4495 24.4407 90.4 24.6094 90.3504 24.7682C90.3009 24.927 90.2414 25.0759 90.177 25.2248H92.3079C92.5556 25.2248 92.6696 25.3489 92.6548 25.597L92.3574 28.6987C92.7886 28.7334 93.3535 28.6491 94.0522 28.4506C94.751 28.252 95.4349 27.9791 96.094 27.6317C96.1782 27.5821 96.2624 27.5821 96.3566 27.6317C96.4458 27.6813 96.4954 27.7707 96.4954 27.9047C96.4954 28.1032 96.4805 28.3314 96.4557 28.5895C96.4309 28.8476 96.3962 29.1106 96.3566 29.3835C96.317 29.6565 96.2773 29.9146 96.2476 30.1528C96.2129 30.391 96.1831 30.5944 96.1485 30.7632C96.1138 30.8972 96.0791 30.9964 96.0345 31.0609C95.9948 31.1255 95.9156 31.1999 95.8016 31.2843C95.5191 31.4679 95.1028 31.6217 94.5478 31.7557C93.9928 31.8897 93.3931 31.984 92.739 32.0386C92.0849 32.0982 91.4357 32.113 90.7815 32.0882C90.1274 32.0634 89.5575 31.984 89.062 31.85C88.7151 31.7508 88.5664 31.5274 88.616 31.18L88.9876 27.7806C88.1947 29.0213 87.1937 30.0287 85.9746 30.8078C84.7605 31.587 83.3085 32.1825 81.6286 32.5944C81.1677 32.7086 80.9744 32.5547 81.0587 32.123C81.1429 31.6912 81.2272 31.2446 81.3213 30.783C81.4105 30.3215 81.5245 29.8252 81.6533 29.2942C81.7029 29.061 81.8169 28.9071 82.0002 28.8228C82.6445 28.5101 83.2243 28.2074 83.7446 27.9146C84.2649 27.6267 84.7258 27.3091 85.1322 26.9617C85.5385 26.6143 85.8904 26.2223 86.1828 25.7806C86.4801 25.3439 86.7279 24.8278 86.9261 24.2322C87.2581 23.2546 87.5208 22.0437 87.719 20.5946C87.9172 19.1455 88.1055 17.3241 88.2889 15.1257H88.2938Z" fill="#FAC33D"/>
<path d="M118.274 10.8075C118.491 10.8075 118.568 10.9226 118.509 11.1529L117.303 15.0672C117.244 15.2975 117.097 15.4126 116.862 15.4126H111.508L110.332 32.4227C110.291 32.653 110.144 32.7681 109.891 32.7681H105.126C104.873 32.7681 104.761 32.6242 104.802 32.3364L106.067 15.4126H102.096C101.584 15.4126 101.143 15.2975 100.76 15.0672C100.378 14.837 100.055 14.5319 99.7898 14.1462C99.5251 13.7605 99.331 13.3173 99.2016 12.8107C99.0721 12.3042 99.0074 11.7688 99.0074 11.2104C99.0074 10.9399 99.1368 10.8075 99.3898 10.8075H118.274Z" fill="#FAC33D"/>
<path d="M126.892 32.7624C126.645 32.7624 126.479 32.6358 126.405 32.3883L121.071 11.3543C120.974 10.9917 121.1 10.8076 121.444 10.8076H126.318C126.703 10.8076 126.932 10.9917 127.007 11.3543L130.275 27.2089H130.333L136.727 11.2679C136.784 11.1126 136.858 10.9975 136.944 10.9227C137.031 10.8478 137.168 10.8076 137.363 10.8076H142.553C142.971 10.8076 143.098 11.0205 142.926 11.4406L134.668 29.4246C134.341 30.1152 134.02 30.6791 133.693 31.1223C133.366 31.5654 133.011 31.9049 132.615 32.1466C132.225 32.3883 131.783 32.5495 131.296 32.6358C130.809 32.7221 130.241 32.7682 129.593 32.7682H126.898L126.892 32.7624Z" fill="#FAC33D"/>
</svg>
