<svg width="147" height="46" viewBox="0 0 147 46" fill="none" xmlns="http://www.w3.org/2000/svg">
<path d="M7.51681 38.3287C4.57574 31.578 7.66407 23.7212 14.4148 20.7802L29.7698 14.0905C34.4953 12.0317 39.995 14.1935 42.0537 18.9191V18.9191C44.1125 23.6446 41.9507 29.1443 37.2252 31.2031L14.5362 41.0879C11.8359 42.2644 8.69324 41.029 7.51681 38.3287V38.3287Z" fill="url(#paint0_linear_21824_9435)"/>
<path d="M7.72231 6.8956C8.9166 4.20316 12.0674 2.98868 14.7599 4.18297L37.3848 14.2188C42.0965 16.3088 44.2219 21.8228 42.1318 26.5345V26.5345C40.0418 31.2463 34.5279 33.3716 29.8161 31.2816L14.5039 24.4895C7.77278 21.5037 4.73658 13.6267 7.72231 6.8956V6.8956Z" fill="#CCCCCC"/>
<g clip-path="url(#clip0_21824_9435)">
<path d="M57.7175 22.9979H56.0972C55.9379 22.9979 55.8582 22.9722 55.8051 22.9208C55.7519 22.8694 55.7254 22.741 55.7519 22.5612L56.3629 17.1669C56.416 16.7559 56.6285 16.5504 57.0003 16.5504H78.0903C78.8075 16.5504 79.3918 16.6018 79.8434 16.6788C80.2949 16.7559 80.6402 16.91 80.8793 17.1155C81.1183 17.321 81.2777 17.6293 81.3308 17.9889C81.384 18.3485 81.384 18.8109 81.3308 19.3503L80.9855 22.5612C80.9855 22.7153 80.9324 22.8181 80.8793 22.8694C80.8262 22.9208 80.7465 22.9208 80.5871 22.9208H78.7278C78.9934 23.1777 79.1793 23.5116 79.259 23.8969C79.3387 24.2822 79.3387 24.7446 79.3121 25.284L78.8606 30.3187C78.8606 30.3187 78.8075 30.5499 78.8075 30.6527C78.8075 30.7554 78.7278 30.8325 78.6481 30.9095C78.8606 31.2692 79.0731 31.6288 79.3121 32.0398C79.5512 32.4508 79.7371 32.8875 79.9231 33.3241C80.109 33.7608 80.2684 34.1975 80.4277 34.6085C80.5871 35.0195 80.6934 35.4048 80.7465 35.7387C80.7996 35.8929 80.7996 36.0213 80.7465 36.1497C80.7199 36.2782 80.6137 36.3809 80.4809 36.4323C79.8168 36.6635 79.2059 36.8433 78.595 36.9974C78.0106 37.1515 77.2669 37.28 76.4169 37.4341C76.0451 37.4855 75.8326 37.3827 75.7794 37.0745L75.5138 36.047C73.9467 36.2011 72.2999 36.3552 70.6265 36.458C68.9265 36.5607 67.2266 36.6635 65.4735 36.7662C63.7204 36.869 61.9939 36.946 60.2409 36.9974C58.4878 37.0488 56.7879 37.1002 55.141 37.1258C54.9285 37.1258 54.7957 37.1258 54.716 37.0488C54.6629 36.9717 54.6098 36.869 54.5567 36.7148C54.5036 36.458 54.4239 36.1497 54.3707 35.7901C54.3176 35.4305 54.2645 35.0966 54.2379 34.7626C54.1848 34.4287 54.1582 34.0948 54.1317 33.7865C54.1051 33.4783 54.0786 33.1957 54.052 32.9645C54.052 32.682 54.2114 32.5278 54.5036 32.5278C55.8582 32.5792 57.4519 32.5792 59.3112 32.5792H64.9688L65.1282 31.0123H57.4253C57.1597 31.0123 56.9472 30.9609 56.8144 30.8325C56.6816 30.704 56.6285 30.4985 56.6816 30.1903L57.7441 22.9722L57.7175 22.9979ZM72.7249 8.15069C73.2826 8.15069 73.8139 8.22775 74.3186 8.35618C74.8232 8.51031 75.2748 8.69012 75.6466 8.94699C76.0185 9.20386 76.3372 9.48642 76.5497 9.82035C76.7622 10.1543 76.8419 10.4625 76.8153 10.7965V11.002H82.5527C82.8714 11.002 83.0308 11.1561 83.0042 11.49C82.9511 11.9524 82.8448 12.4404 82.7386 12.9799C82.6324 13.5193 82.5527 13.9303 82.473 14.2386C82.4199 14.4184 82.3667 14.5468 82.2605 14.5982C82.1542 14.6495 82.0214 14.7009 81.8886 14.7009H76.2044L76.0716 15.6C76.0185 15.9082 75.8326 16.0623 75.567 16.0623H71.6358C71.264 16.0623 71.1312 15.9082 71.1843 15.6L71.3171 14.7009H66.7485L66.6422 15.5229C66.6422 15.8825 66.4297 16.0367 66.111 16.0367H62.3127C62.1002 16.0367 61.9408 15.9853 61.8611 15.8568C61.7549 15.7541 61.7283 15.6257 61.7549 15.4715L61.8611 14.6752H58.3284C57.3191 14.6752 56.4957 14.3927 55.8582 13.8532C55.2207 13.2881 54.8754 12.4661 54.7692 11.3359C54.7692 11.1047 54.8754 11.002 55.0879 11.002H62.3924L62.7377 8.63874C62.7377 8.38187 62.897 8.22775 63.1627 8.22775C63.6939 8.22775 64.1986 8.30481 64.7032 8.43325C65.2079 8.58737 65.6329 8.79287 66.0313 9.04974C66.4032 9.30661 66.7219 9.61486 66.961 9.94879C67.2 10.2827 67.3063 10.6167 67.2797 11.002H71.9014L72.2733 8.48462C72.2733 8.48462 72.3264 8.30481 72.4061 8.22775C72.4858 8.15069 72.592 8.125 72.7514 8.125L72.7249 8.15069ZM60.7455 22.2273H66.0579L66.2172 20.8658C66.2172 20.6603 66.3501 20.5576 66.5625 20.5576H71.0249C71.2374 20.5576 71.3436 20.6603 71.3171 20.8658L71.1843 22.2273H76.0716L76.3638 20.0182H60.958L60.7455 22.2273ZM65.5001 27.6473L65.7126 25.618H62.2596L62.0471 27.6473H65.5001ZM70.2546 32.5792C71.0249 32.5792 71.7686 32.5792 72.4592 32.5792C73.1764 32.5792 73.867 32.5792 74.5576 32.5278C74.4779 32.271 74.3982 32.0398 74.3186 31.7829C74.2389 31.526 74.1857 31.2948 74.1061 31.038H70.414L70.2546 32.5792ZM70.8921 25.618L70.7062 27.6473H74.0529L74.2389 26.1317C74.2389 25.9005 74.2389 25.7721 74.1592 25.695C74.0795 25.6437 73.9201 25.5923 73.7076 25.5923H70.8921V25.618Z" fill="#CCCCCC"/>
<path d="M95.7273 27.775C95.4351 27.9805 95.1961 27.9291 95.0632 27.6466C94.9304 27.3897 94.7976 27.1072 94.6914 26.8246C94.5586 26.542 94.4258 26.2595 94.2398 25.9512L93.5492 37.0224C93.4961 37.3563 93.2836 37.5105 92.9383 37.5105H89.1666C88.7416 37.5105 88.5556 37.3307 88.5822 36.9453L89.4322 27.9805C88.9009 28.3401 88.3697 28.6484 87.8119 28.9053C87.2541 29.1621 86.6963 29.3933 86.112 29.5474C85.9526 29.5988 85.7932 29.5474 85.6604 29.4961C85.5276 29.419 85.4745 29.2649 85.4745 29.0337C85.4745 28.7511 85.5276 28.4172 85.6073 28.0833C85.6604 27.7236 85.7401 27.3897 85.8198 27.0301C85.8995 26.6705 85.9792 26.3365 86.0323 26.0283C86.0854 25.72 86.1651 25.4375 86.2448 25.1806C86.2979 25.0779 86.351 24.9751 86.4307 24.8981C86.5104 24.821 86.5635 24.7439 86.6432 24.7182C88.0775 23.8706 89.2728 22.9458 90.1759 21.8927C91.079 20.8652 91.7696 19.6065 92.1946 18.168H89.804C89.0072 18.168 88.3431 17.8598 87.7854 17.2433C87.2276 16.6268 86.9088 15.7534 86.8557 14.6232C86.8557 14.392 86.9354 14.2892 87.1213 14.2892H95.2757C96.4179 14.2892 97.1351 14.5718 97.4538 15.1112C97.746 15.6507 97.7725 16.3699 97.4804 17.2433C97.0022 18.7331 96.2851 20.2487 95.3554 21.7385C95.8601 22.2009 96.3382 22.6633 96.7366 23.1256C97.1616 23.588 97.5069 24.0504 97.7991 24.4614L99.3928 10.7187C99.4459 10.4619 99.5256 10.282 99.6584 10.2307C99.7912 10.1793 99.9772 10.1279 100.243 10.1279H110.575C112.01 10.1279 112.939 10.4105 113.391 10.9499C113.842 11.4893 114.002 12.4655 113.842 13.8269L112.833 27.1072C112.78 27.4154 112.621 27.5695 112.328 27.5695H108.689C108.318 27.5695 108.158 27.4154 108.211 27.0815L109.353 15.0085C109.407 14.5461 109.247 14.3406 108.849 14.3406H103.536L101.836 27.2613C101.783 27.5438 101.571 27.698 101.252 27.698H97.8788C97.5866 27.698 97.4538 27.5181 97.5069 27.1842L97.56 26.465C97.2679 26.7218 96.9757 26.953 96.6569 27.1842C96.3648 27.4154 96.0726 27.6209 95.7538 27.8007L95.7273 27.775ZM94.107 8.09863C94.9039 8.09863 95.5945 8.3555 96.1523 8.89494C96.7101 9.43437 97.0022 10.0765 97.0022 10.8728C97.0022 11.6692 96.7101 12.3113 96.1523 12.8508C95.5945 13.3902 94.9039 13.6728 94.107 13.6728C93.3102 13.6728 92.6196 13.3902 92.0618 12.8508C91.504 12.3113 91.2118 11.6435 91.2118 10.8728C91.2118 10.1022 91.504 9.43437 92.0618 8.89494C92.6196 8.3555 93.3102 8.09863 94.107 8.09863ZM104.041 15.5993C104.094 15.3167 104.254 15.1626 104.546 15.1626H107.999C108.371 15.1626 108.53 15.3167 108.477 15.625C108.264 17.9882 108.052 20.0946 107.839 21.944C107.627 23.7935 107.308 25.4632 106.883 26.9273C106.83 27.1585 106.75 27.364 106.697 27.5695C106.644 27.775 106.564 27.9548 106.485 28.1346H109.221C109.539 28.1346 109.699 28.2888 109.672 28.597L109.3 32.4501C109.858 32.5015 110.575 32.3987 111.478 32.1418C112.381 31.885 113.258 31.551 114.108 31.1144C114.214 31.063 114.32 31.063 114.453 31.1144C114.56 31.1657 114.639 31.2942 114.639 31.4483C114.639 31.7052 114.639 31.9877 114.586 32.296C114.533 32.6042 114.506 32.9381 114.453 33.2721C114.4 33.606 114.347 33.9399 114.32 34.2225C114.267 34.5308 114.241 34.7619 114.188 34.9674C114.135 35.1216 114.108 35.25 114.055 35.3271C114.002 35.4041 113.895 35.5069 113.763 35.6096C113.391 35.8408 112.86 36.0206 112.142 36.2004C111.425 36.3545 110.655 36.483 109.805 36.56C108.955 36.6371 108.132 36.6628 107.282 36.6114C106.432 36.56 105.714 36.483 105.077 36.3289C104.625 36.2004 104.44 35.9179 104.493 35.5069L104.971 31.2942C103.961 32.8354 102.66 34.0941 101.093 35.0445C99.5256 36.0206 97.6663 36.7399 95.4882 37.2536C94.9039 37.4077 94.6383 37.2022 94.7445 36.6628C94.8508 36.1234 94.957 35.5839 95.0898 34.9931C95.1961 34.428 95.3554 33.8115 95.5148 33.1436C95.5679 32.8611 95.7273 32.6556 95.9663 32.5528C96.7898 32.1675 97.5335 31.7822 98.2241 31.4226C98.8881 31.063 99.499 30.6777 100.004 30.241C100.535 29.8043 100.986 29.3163 101.358 28.7768C101.73 28.2374 102.049 27.5952 102.315 26.8503C102.74 25.643 103.085 24.1274 103.324 22.3293C103.59 20.5312 103.829 18.2708 104.068 15.5222L104.041 15.5993Z" fill="#CCCCCC"/>
<path d="M132.781 16.986C132.781 16.6778 132.834 16.4723 132.94 16.3438C133.046 16.2154 133.206 16.164 133.445 16.164H136.473L136.978 14.2889H134.879C134.082 14.2889 133.392 13.9806 132.86 13.3898C132.329 12.799 132.037 11.977 132.01 10.9495C132.01 10.6927 132.143 10.5385 132.382 10.5385H146.274C146.433 10.5385 146.566 10.5642 146.646 10.6413C146.726 10.6927 146.726 10.8211 146.699 11.0009C146.646 11.5146 146.566 12.0284 146.46 12.5164C146.354 13.0302 146.248 13.4669 146.115 13.8779C146.062 14.1347 145.849 14.2375 145.504 14.2375H141.732C141.599 14.5971 141.466 14.9054 141.307 15.2136C141.148 15.5218 140.988 15.8301 140.802 16.1127H142.529C143.246 16.1127 143.83 16.164 144.255 16.2411C144.68 16.3182 144.999 16.4723 145.212 16.6778C145.424 16.8833 145.53 17.1658 145.584 17.5255C145.637 17.8851 145.637 18.3474 145.61 18.9382L144.919 29.8296C144.919 30.0865 144.866 30.2406 144.787 30.3177C144.68 30.3947 144.548 30.4461 144.335 30.4461H141.413C141.041 30.4461 140.882 30.292 140.882 29.881L141.706 19.8116H136.446L135.278 29.7012C135.278 30.0608 135.092 30.2149 134.693 30.2149H131.957C131.586 30.2149 131.4 30.0351 131.426 29.6498L131.878 25.5142C131.426 27.2352 130.762 28.7764 129.886 30.1379C129.009 31.4993 127.947 32.6552 126.725 33.657C125.503 34.6331 124.122 35.4551 122.555 36.0716C121.014 36.6881 119.341 37.1505 117.561 37.4073C117.322 37.4587 117.136 37.4073 117.03 37.3046C116.923 37.2018 116.87 37.022 116.897 36.7908C117.003 36.3285 117.136 35.7377 117.322 35.0698C117.508 34.4019 117.667 33.8111 117.827 33.3231C117.933 33.0662 118.092 32.8864 118.331 32.835C119.686 32.5268 120.908 32.1158 121.97 31.6277C123.033 31.1397 123.936 30.4975 124.706 29.7269H123.245C123.245 29.7269 123.006 29.7012 122.926 29.6241C122.847 29.5471 122.82 29.4443 122.82 29.2645L123.617 22.329H120.748C119.925 22.329 119.261 21.995 118.73 21.3528C118.198 20.7107 117.933 19.9144 117.906 18.9639C117.906 18.7327 118.012 18.63 118.252 18.63H120.323L121.067 11.2064C121.067 10.9495 121.226 10.8211 121.519 10.8725C122.687 11.0266 123.484 11.3605 123.936 11.8229C124.387 12.2853 124.573 12.9531 124.52 13.8265L124.148 18.63H124.972L125.954 8.58631C125.954 8.32944 126.114 8.201 126.459 8.25237C127.601 8.35512 128.504 8.68906 129.142 9.22849C129.779 9.79361 130.071 10.4872 129.992 11.3605L129.859 12.9274H131.931C132.223 12.9274 132.356 13.0816 132.356 13.4155C132.303 13.8522 132.25 14.3146 132.17 14.7769C132.09 15.265 132.01 15.7017 131.931 16.1127C131.878 16.4466 131.692 16.6007 131.426 16.6007H129.54L129.354 18.6043H131.878C132.196 18.6043 132.329 18.7327 132.303 19.0667C132.303 19.2465 132.25 19.4777 132.196 19.7345C132.143 19.9914 132.117 20.2483 132.064 20.5309C132.01 20.8134 131.984 21.0446 131.931 21.2758C131.878 21.507 131.851 21.7125 131.825 21.8409C131.771 22.1491 131.639 22.3033 131.373 22.3033H128.079L127.575 26.593C127.947 25.771 128.318 24.8206 128.637 23.7161C128.637 23.5363 128.797 23.4335 129.009 23.4335H132.01H132.037C132.037 23.4335 132.037 23.4335 132.064 23.4335L132.754 16.8576L132.781 16.986ZM122.581 23.4849C122.953 23.4849 123.112 23.6647 123.059 24.05C122.794 26.0536 122.209 27.6719 121.359 28.9049C120.509 30.1379 119.314 31.0112 117.8 31.4993C117.641 31.5507 117.481 31.525 117.348 31.3965C117.216 31.2681 117.163 31.1397 117.189 30.9598C117.242 30.5232 117.295 29.9837 117.402 29.3416C117.508 28.6994 117.588 28.1086 117.694 27.5691C117.747 27.3893 117.853 27.2095 118.012 27.0554C118.172 26.9013 118.305 26.7472 118.437 26.5673C118.57 26.3875 118.677 26.182 118.783 25.9508C118.889 25.7197 118.995 25.4371 119.075 25.0775C119.155 24.7179 119.261 24.3069 119.367 23.7931C119.447 23.5619 119.606 23.4592 119.819 23.4592H122.555L122.581 23.4849ZM140.643 20.7107C140.802 20.7107 140.935 20.7363 140.988 20.8134C141.041 20.8905 141.068 20.9932 141.041 21.173C140.962 22.74 140.829 24.2812 140.696 25.771C140.537 27.2866 140.298 28.648 139.926 29.881C139.581 31.0369 139.076 32.0387 138.438 32.8864C137.774 33.7341 137.004 34.479 136.101 35.0698C135.198 35.6863 134.189 36.1744 133.046 36.5597C131.931 36.945 130.736 37.2275 129.487 37.4073C129.275 37.4587 129.115 37.4073 128.982 37.3046C128.85 37.2018 128.823 37.0477 128.876 36.8165C129.036 36.1744 129.195 35.5322 129.381 34.8386C129.567 34.1707 129.753 33.6056 129.886 33.1946C129.939 32.9378 130.098 32.8093 130.311 32.758C131.001 32.5781 131.612 32.3983 132.196 32.1928C132.781 32.013 133.312 31.7818 133.764 31.525C134.215 31.2681 134.64 30.9599 134.985 30.6259C135.331 30.2663 135.596 29.8553 135.782 29.3672C135.995 28.7764 136.181 28.1856 136.313 27.5691C136.446 26.9783 136.553 26.3362 136.659 25.694C136.738 25.0261 136.818 24.3326 136.871 23.5876C136.924 22.8427 136.978 21.995 137.004 21.0703C137.004 20.8134 137.11 20.6593 137.323 20.6593H140.67L140.643 20.7107ZM141.785 31.0626C142.635 31.0626 143.352 31.3452 143.937 31.936C144.521 32.5011 144.813 33.2203 144.813 34.068C144.813 34.9157 144.521 35.5835 143.937 36.1744C143.352 36.7395 142.635 37.0477 141.785 37.0477C140.935 37.0477 140.218 36.7652 139.607 36.1744C139.023 35.6092 138.704 34.89 138.704 34.068C138.704 33.246 138.996 32.5268 139.607 31.936C140.191 31.3708 140.935 31.0626 141.785 31.0626Z" fill="#CCCCCC"/>
</g>
<defs>
<linearGradient id="paint0_linear_21824_9435" x1="28.0216" y1="22.4883" x2="4.64572" y2="35.5972" gradientUnits="userSpaceOnUse">
<stop stop-color="#A7A7A7"/>
<stop offset="1" stop-color="#CCCCCC"/>
</linearGradient>
<clipPath id="clip0_21824_9435">
<rect width="92.6471" height="29.4118" fill="white" transform="translate(54.0791 8.09863)"/>
</clipPath>
</defs>
</svg>
