<svg width="110" height="90" viewBox="0 0 322 90" fill="none" xmlns="http://www.w3.org/2000/svg">
<path d="M44.7809 56.6682V57.5258L33.1138 69.0932L7.49609 38.6191L33.054 45.1507L44.7809 56.6682Z" fill="white" stroke="white" stroke-width="4" stroke-linecap="round" stroke-linejoin="round"/>
<path d="M82.5048 38.4302L56.7475 68.7148L44.7812 57.0975L57.0068 45.0814L82.5048 38.4302Z" fill="white" stroke="white" stroke-width="4" stroke-linecap="round" stroke-linejoin="round"/>
<path d="M40.1284 25.3371L15.7029 25.4069L7.49609 38.6196L33.054 45.1512L44.7809 56.6687V57.5263L33.1138 69.0937L44.8308 74.4785L56.7472 68.7147L44.7809 57.0975L57.0064 45.0814L82.5045 38.4302L74.2279 25.2573L49.8423 25.3271" stroke="white" stroke-width="4" stroke-linecap="round" stroke-linejoin="round"/>
<path d="M44.7812 57.0972V57.526" stroke="white" stroke-width="2.99156" stroke-linecap="round" stroke-linejoin="round"/>
<path d="M56.005 45.0812L43.9889 29.1362L41.127 25.3369" stroke="white" stroke-width="4" stroke-linecap="round" stroke-linejoin="round"/>
<path d="M48.843 25.3267L45.991 29.1359L34.0547 45.1507" stroke="white" stroke-width="4" stroke-linecap="round" stroke-linejoin="round"/>
<path d="M44.7812 57.0972V56.6685" stroke="white" stroke-width="2.99156" stroke-linecap="round" stroke-linejoin="round"/>
<path d="M35.3768 78.6863L33.8511 62.7612L28.3965 64.2969L35.3768 78.6863Z" fill="white"/>
<path d="M54.5625 78.6465L55.9984 62.7114L61.473 64.2072L54.5625 78.6465Z" fill="white"/>
<g clip-path="url(#clip0_22825_297690)">
<path d="M48.1407 25.7953L48.4684 25.9433L48.8686 26.0679L48.8666 26.072L48.6512 26.0046L48.5756 25.9801L48.5725 25.9903L48.497 25.9566L48.1407 25.7953Z" fill="white"/>
<path d="M69.6865 20.668H69.6855C69.075 21.4572 67.5426 21.3663 65.0036 20.3903C64.3665 20.1463 63.6733 19.8942 62.9383 19.6257L62.73 19.5501C59.1292 18.2383 55.0558 16.7549 52.8782 14.8723L52.8537 14.8509C52.7853 14.7917 52.7179 14.7324 52.6505 14.6753C52.4382 15.5247 52.1319 16.5313 51.7664 17.736L51.7052 17.9361C51.5704 18.3781 51.4326 18.8334 51.2927 19.3041C51.0232 20.2127 50.7557 21.1468 50.4831 22.1044L50.479 22.1228C50.1074 23.4245 49.7583 24.6496 49.45 25.6174L49.2621 26.2024L48.6506 26.0043L48.866 26.0717L48.868 26.0676L48.4678 25.9431L48.1401 25.795L47.8267 25.6531L47.8237 25.6511L47.6184 25.5592L46.9375 25.4214L47.1662 24.2831C47.5021 22.5996 47.8206 21.009 48.3331 19.1081C48.6271 18.0167 48.8895 16.9335 49.1008 16.0637L49.1304 15.9402C49.9451 12.5773 50.2473 11.5043 51.0426 11.2195C51.1896 11.1664 51.2978 11.1592 51.3917 11.1684C51.5612 11.1858 51.7143 11.2736 51.8236 11.4043C51.9063 11.5023 51.9726 11.6003 52.0176 11.6105C52.1881 11.3726 52.4361 11.0398 52.6801 11.0082C53.3233 10.9244 53.6816 11.5033 54.0083 11.9219C54.091 12.028 54.185 12.1332 54.2952 12.2424L54.7179 12.6631C54.9323 12.8764 55.2487 13.1204 55.506 13.2715C59.1701 15.4195 63.267 16.5885 65.7141 17.2868C66.6462 17.5542 67.3772 17.7635 67.8213 17.9473C68.8504 18.3761 69.4609 18.8151 69.6855 19.2888C70.1316 19.9881 69.7998 20.52 69.6865 20.668Z" fill="white"/>
<path d="M48.4969 25.9562L48.5755 25.9807L48.6511 26.0042L48.8665 26.0716L48.8685 26.0675L48.4683 25.943L48.1406 25.7949L48.4969 25.9562Z" fill="white"/>
</g>
<g clip-path="url(#clip1_22825_297690)">
<path d="M41.8593 25.7948L41.5316 25.9429L41.1314 26.0674L41.1334 26.0715L41.3488 26.0041L41.4244 25.9796L41.4275 25.9898L41.503 25.9561L41.8593 25.7948Z" fill="white"/>
<path d="M20.3135 20.668H20.3145C20.925 21.4572 22.4574 21.3663 24.9964 20.3903C25.6335 20.1463 26.3267 19.8942 27.0617 19.6257L27.27 19.5501C30.8708 18.2383 34.9442 16.7549 37.1218 14.8723L37.1463 14.8509C37.2147 14.7917 37.2821 14.7324 37.3495 14.6753C37.5618 15.5247 37.8681 16.5313 38.2336 17.736L38.2948 17.9361C38.4296 18.3781 38.5674 18.8334 38.7073 19.3041C38.9768 20.2127 39.2443 21.1468 39.5169 22.1044L39.521 22.1228C39.8926 23.4245 40.2417 24.6496 40.55 25.6174L40.7379 26.2024L41.3494 26.0043L41.134 26.0717L41.132 26.0676L41.5322 25.9431L41.8599 25.795L42.1733 25.6531L42.1763 25.6511L42.3816 25.5592L43.0625 25.4214L42.8338 24.2831C42.4979 22.5996 42.1794 21.009 41.6669 19.1081C41.3729 18.0167 41.1105 16.9335 40.8992 16.0637L40.8696 15.9402C40.0549 12.5773 39.7527 11.5043 38.9574 11.2195C38.8104 11.1664 38.7022 11.1592 38.6083 11.1684C38.4388 11.1858 38.2857 11.2736 38.1764 11.4043C38.0937 11.5023 38.0274 11.6003 37.9824 11.6105C37.8119 11.3726 37.5639 11.0398 37.3199 11.0082C36.6767 10.9244 36.3184 11.5033 35.9917 11.9219C35.909 12.028 35.815 12.1332 35.7048 12.2424L35.2821 12.6631C35.0677 12.8764 34.7513 13.1204 34.494 13.2715C30.8299 15.4195 26.733 16.5885 24.2859 17.2868C23.3538 17.5542 22.6228 17.7635 22.1787 17.9473C21.1496 18.3761 20.5391 18.8151 20.3145 19.2888C19.8684 19.9881 20.2002 20.52 20.3135 20.668Z" fill="white"/>
<path d="M41.5031 25.9562L41.4245 25.9807L41.3489 26.0042L41.1335 26.0716L41.1315 26.0675L41.5317 25.943L41.8594 25.7949L41.5031 25.9562Z" fill="white"/>
</g>
<path d="M107.54 52.4452C105.657 52.4452 104.037 51.7843 102.683 50.4626C101.361 49.1078 100.7 47.4887 100.7 45.6052V26.82V25.0852V22.26H108.085V17.7H113.835V22.26H121.22V25.0852V26.82V47.8852V52.4452H115.52H113.835V55.32H119.386C120.609 57.3357 121.22 59.5165 121.22 61.8626V64.44V69H115.52H113.835H108.085H100.7V64.44H108.085V52.4452H107.54ZM122.955 55.4191L138.915 52.5939V57.1539L122.955 59.9791V55.4191ZM144.565 22.26V34.1061C144.565 36.5513 143.97 38.7322 142.781 40.6487H136.932C138.254 38.6991 138.915 36.5183 138.915 34.1061V22.26H122.955V17.7H138.915H144.565V22.26ZM146.3 48.0835V62.4574C146.3 63.4817 146.151 64.5887 145.854 65.7783C145.557 66.9348 145.094 68.0087 144.466 69H138.667C139.956 67.0504 140.6 64.8696 140.6 62.4574V48.0835H129.795C127.911 48.0835 126.292 47.4226 124.937 46.1009C123.616 44.7461 122.955 43.127 122.955 41.2435V25.0852H128.605V43.5235H146.3V45.407V48.0835ZM108.085 26.82H106.4V47.8852H108.085V26.82ZM113.835 64.44H115.52V61.8626C115.52 59.5826 114.958 57.5174 113.835 55.667V64.44ZM113.835 47.8852H115.52V26.82H113.835V47.8852ZM192.396 17.7V24.7878C192.396 27.233 191.801 29.4139 190.611 31.3304H184.763C186.051 29.3478 186.696 27.167 186.696 24.7878V17.7H192.396ZM168.555 17.7V22.26H175.94V25.0852V26.82V47.8852V52.4452H170.24H168.555V55.32H174.106C175.329 57.2365 175.94 59.4174 175.94 61.8626V64.44V69H170.24H168.555H162.805H155.42V64.44H162.805V52.4452H162.26C160.377 52.4452 158.757 51.7843 157.403 50.4626C156.081 49.1078 155.42 47.4887 155.42 45.6052V26.82V25.0852V22.26H162.805V17.7H168.555ZM162.805 26.82H161.12V47.8852H162.805V26.82ZM168.555 64.44H170.24V61.8626C170.24 59.5826 169.678 57.5174 168.555 55.667V64.44ZM168.555 47.8852H170.24V26.82H168.555V47.8852ZM177.675 17.7H183.325V31.38L189.323 44.1678L195.32 31.38V17.7H201.02V31.38L192.197 50.1652L201.02 69H195.32L189.323 56.2122L183.325 69H177.675L186.497 50.1652L177.675 31.38V17.7ZM240.92 63.9443L255.74 57.0548V62.0609L240.92 69V63.9443ZM216.98 54.7252C215.196 54.7252 213.643 54.1304 212.321 52.9409C211.032 51.7183 210.322 50.2313 210.19 48.48H210.14V47.8852V43.92H215.84H233.535H239.235V48.48V50.1652V54.7252H233.535H227.537V62.4574C227.537 64.8696 226.943 67.0504 225.753 69H219.904C221.193 67.0504 221.837 64.8696 221.837 62.4574V54.7252H216.98ZM215.84 48.48V50.2148H233.535V48.48H215.84ZM216.98 34.8C215.196 34.8 213.643 34.2052 212.321 33.0157C211.032 31.793 210.322 30.3061 210.19 28.5548H210.14V27.96V23.9452V22.26V17.7H215.84H233.535H239.235V22.26V30.24V34.8H233.535H227.141L228.777 37.6252H239.235V42.1852H210.14V37.6252H222.234L220.549 34.8H216.98ZM215.84 22.26V23.9452H233.386L230.759 28.5052H215.84V30.24H233.535V22.26H215.84ZM231.602 57.6H237.302V62.4574C237.302 64.9026 237.946 67.0835 239.235 69H233.386C232.197 67.0504 231.602 64.8696 231.602 62.4574V57.6ZM217.773 57.6V62.4574C217.773 64.8696 217.178 67.0504 215.989 69H210.14C211.429 67.0835 212.073 64.9026 212.073 62.4574V57.6H217.773ZM240.92 24.6391L255.74 17.7V22.7556L240.92 29.6948V24.6391ZM240.92 44.3165L255.74 37.3774V42.433L240.92 49.3226V44.3165ZM285.083 17.7496H290.783H304.76H310.46V22.3096V41.9374C310.46 44.3826 309.849 46.5635 308.626 48.48H302.827C304.116 46.5304 304.76 44.3496 304.76 41.9374V22.3096H290.783V48.48H285.083V22.3096V17.7496ZM277.697 34.2052V26.8696H264.86V22.3096H272.146L269.519 17.7496H276.111L278.689 22.3096H283.397V26.8696V34.6513V35.2461L276.954 43.4739L283.397 45.9522V51.2061L277.003 48.7774V69.0991H271.303V50.8591L264.91 59.087V50.7104L277.747 34.2052H277.697ZM294.946 26.8696H300.646V40.5496L290.832 69H285.083L294.897 40.5496V26.8696H294.946ZM305.9 69C304.017 69 302.397 68.3391 301.043 67.0174C299.721 65.6626 299.06 64.0435 299.06 62.16V51.3548H304.76V64.44H310.46V69H305.9Z" fill="white"/>
<defs>
<clipPath id="clip0_22825_297690">
<rect width="22.9746" height="15.2024" fill="white" transform="translate(46.9375 11)"/>
</clipPath>
<clipPath id="clip1_22825_297690">
<rect width="22.9746" height="15.2024" fill="white" transform="matrix(-1 0 0 1 43.0625 11)"/>
</clipPath>
</defs>
</svg>
