<svg width="180" height="44" viewBox="0 0 180 44" fill="none" xmlns="http://www.w3.org/2000/svg">
<g clip-path="url(#clip0_22093_72491)">
<path d="M13.9088 16.4487L26.7061 38.4611L36.649 21.4042L40.161 26.6994C41.4707 28.6758 43.6838 29.8632 46.0519 29.8632H50.1359C51.0179 29.8632 51.5632 28.9031 51.1168 28.1436L37.9854 5.93587C37.5443 5.18973 36.4645 5.18973 36.0235 5.93587L27.059 21.1876L18.3296 5.70855C17.9073 4.96241 16.8435 4.93032 16.3811 5.65239L14.0665 9.2574C12.6686 11.4343 12.6071 14.2129 13.9088 16.4487Z" fill="#F9C33B"/>
<path d="M8.26919 29.9404C10.7122 29.9404 12.6927 27.9588 12.6927 25.5144C12.6927 23.07 10.7122 21.0884 8.26919 21.0884C5.82616 21.0884 3.8457 23.07 3.8457 25.5144C3.8457 27.9588 5.82616 29.9404 8.26919 29.9404Z" fill="#F9C33B"/>
</g>
<path d="M156.886 8.20068C156.886 8.94762 156.886 9.68474 156.886 10.412C156.886 11.1196 156.866 11.8273 156.827 12.5349C157.259 12.6332 157.672 12.7806 158.065 12.9772C158.458 13.1737 158.802 13.4194 159.097 13.7143C159.392 14.0091 159.628 14.3531 159.805 14.7462C159.982 15.1197 160.07 15.5423 160.07 16.0141C160.07 16.2893 160.031 16.5448 159.952 16.7807C159.893 17.0165 159.864 17.2622 159.864 17.5178C159.588 18.2451 159.264 18.9527 158.891 19.6407C158.517 20.309 158.104 20.9675 157.652 21.6161C158.242 21.852 158.812 22.1075 159.362 22.3827C159.932 22.6382 160.502 22.9331 161.072 23.2672C160.896 20.9478 160.738 18.6284 160.601 16.3089C160.483 13.9698 160.404 11.6209 160.365 9.26212L165.466 9.40955C165.426 9.66508 165.397 9.92061 165.377 10.1761C165.377 10.412 165.367 10.6577 165.348 10.9133C166.272 10.4808 167.235 10.0975 168.237 9.76336C169.24 9.40955 170.154 9.23264 170.979 9.23264C171.667 9.23264 172.296 9.34075 172.866 9.55697C173.436 9.75353 173.947 10.1073 174.399 10.6184C174.655 10.9133 174.861 11.326 175.019 11.8568C175.195 12.3678 175.343 12.9575 175.461 13.6258C175.579 14.2745 175.667 14.9723 175.726 15.7192C175.785 16.4465 175.824 17.164 175.844 17.8716C175.883 18.5792 175.903 19.2574 175.903 19.906C175.903 20.535 175.903 21.0756 175.903 21.5277C175.903 22.5891 175.893 23.6505 175.874 24.712C175.854 25.7538 175.815 26.8054 175.756 27.8668L172.365 27.572V27.9553C172.365 28.3484 172.365 28.771 172.365 29.2231C172.385 29.6752 172.434 30.1273 172.512 30.5794L172.866 30.4614C173.259 30.3632 173.613 30.2256 173.928 30.0487C174.262 29.8718 174.596 29.6949 174.93 29.5179L177.436 34.3534C176.709 34.6482 175.942 34.8841 175.137 35.061C174.331 35.2379 173.544 35.3264 172.778 35.3264C172.168 35.3264 171.569 35.2674 170.979 35.1495C170.409 35.0512 169.878 34.8153 169.387 34.4418C169.367 34.4222 169.348 34.3927 169.328 34.3534C169.308 34.3337 169.279 34.3141 169.24 34.2944L169.151 34.206C168.915 34.0684 168.729 33.862 168.591 33.5868C168.473 33.3313 168.375 33.0463 168.296 32.7318C168.218 32.4369 168.168 32.1421 168.149 31.8472C168.129 31.5524 168.119 31.287 168.119 31.0511C168.119 30.5794 168.149 30.1076 168.208 29.6359C168.267 29.1445 168.345 28.6531 168.444 28.1617C167.874 29.5573 167.166 30.8841 166.321 32.1421C165.475 33.4197 164.463 34.7072 163.284 36.0045L159.51 32.7612C160.512 31.8177 161.367 30.8841 162.075 29.9602C162.802 29.0167 163.421 28.0535 163.932 27.0707L161.367 27.1002L161.072 23.6211L158.448 26.9823C158.036 26.5302 157.603 26.0977 157.151 25.685C157.348 27.2378 157.524 28.8103 157.682 30.4025C157.839 31.975 157.996 33.5082 158.153 35.0021L151.991 34.8841C152.148 33.5868 152.296 32.26 152.433 30.9037C152.591 29.5474 152.728 28.1911 152.846 26.8349C152.591 27.0511 152.335 27.2673 152.08 27.4835C151.844 27.6801 151.598 27.8865 151.343 28.1027L149.072 25.626C149.603 25.0953 150.144 24.5154 150.694 23.8864C151.264 23.2574 151.814 22.6088 152.345 21.9404C152.876 21.2525 153.367 20.5547 153.819 19.847C154.271 19.1198 154.645 18.4023 154.94 17.6947L155.117 17.3998C154.468 17.5178 153.79 17.6947 153.082 17.9306C152.375 18.1664 151.765 18.3728 151.254 18.5497L149.632 13.331C150.085 13.213 150.537 13.1049 150.989 13.0067C151.46 12.9084 151.922 12.8199 152.375 12.7413C152.276 12.0533 152.168 11.385 152.05 10.7363C151.932 10.068 151.814 9.38989 151.696 8.70192L156.886 8.20068ZM165.112 14.6578C165.014 16.4662 164.925 18.2647 164.846 20.0534C164.787 21.8422 164.729 23.6407 164.67 25.4491C165.24 23.9749 165.643 22.4318 165.878 20.82C166.134 19.2082 166.33 17.4588 166.468 15.5718L170.183 15.6897C170.163 16.5546 170.154 17.4195 170.154 18.2844C170.154 19.1492 170.124 20.0043 170.065 20.8495C169.987 21.8716 169.859 22.8446 169.682 23.7685C169.525 24.6923 169.308 25.5965 169.033 26.481L170.714 26.7169C170.93 24.9872 171.087 23.2672 171.186 21.5571C171.304 19.8274 171.363 18.0976 171.363 16.3679C171.363 15.9748 171.353 15.5915 171.333 15.218C171.333 14.8249 171.313 14.4416 171.274 14.0681C171.254 13.6946 171.176 13.4194 171.038 13.2425C170.92 13.0656 170.704 12.9968 170.39 13.0361C170.075 13.0361 169.692 13.0951 169.24 13.213C168.788 13.3113 168.316 13.4489 167.824 13.6258C167.333 13.7831 166.842 13.96 166.35 14.1565C165.878 14.3335 165.466 14.5005 165.112 14.6578ZM155.529 24.2697C155.51 24.2697 155.5 24.2599 155.5 24.2402L155.47 24.2697H155.529Z" fill="#FAC33D"/>
<path d="M124.696 8.02381C124.618 8.71178 124.539 9.40958 124.46 10.1172C124.382 10.8052 124.323 11.503 124.283 12.2106C125.286 12.1123 126.249 12.0337 127.173 11.9747C128.116 11.9158 129.188 11.8666 130.387 11.8273L130.357 14.4514C129.748 14.4318 129.178 14.4023 128.647 14.363C128.136 14.3237 127.635 14.2942 127.143 14.2745C126.672 14.2352 126.2 14.2057 125.728 14.1861C125.256 14.1467 124.765 14.1173 124.254 14.0976C124.293 14.2942 124.313 14.4219 124.313 14.4809L124.991 14.5988C125.522 14.6971 125.974 14.7757 126.347 14.8347C126.721 14.8937 127.084 14.9428 127.438 14.9821C127.792 15.0018 128.156 15.0215 128.529 15.0411C128.922 15.0411 129.384 15.0411 129.915 15.0411H131.183C131.34 14.53 131.468 13.9993 131.566 13.4489C131.664 12.8986 131.713 12.3384 131.713 11.7683C131.713 11.5914 131.684 11.4735 131.625 11.4145C131.566 11.3556 131.507 11.2769 131.448 11.1786C131.114 11.0411 130.839 10.9723 130.623 10.9723C130.426 10.9526 130.161 10.9526 129.826 10.9723C129.433 10.9919 129.06 11.0214 128.706 11.0607C128.372 11.0804 128.018 11.1197 127.645 11.1786C127.291 11.218 126.908 11.2671 126.495 11.3261C126.082 11.3654 125.61 11.4145 125.079 11.4735L124.844 8.79041C125.512 8.57419 126.121 8.40711 126.672 8.28917C127.242 8.15158 127.792 8.04347 128.323 7.96484C128.853 7.88622 129.394 7.83707 129.944 7.81742C130.514 7.79776 131.143 7.78793 131.831 7.78793C132.952 7.78793 133.836 8.2302 134.485 9.11473C135.153 9.99927 135.487 11.1885 135.487 12.6824C135.487 13.5079 135.429 14.3335 135.311 15.159C135.193 15.9846 135.045 16.7905 134.868 17.5768C134.043 17.6947 133.227 17.8028 132.421 17.9011C131.635 17.9797 130.829 18.0387 130.003 18.078V18.8741V18.9625H130.18C131.261 19.0019 132.284 19.0313 133.247 19.051C134.21 19.051 135.232 19.051 136.313 19.051L136.46 21.4392C133.532 21.7144 130.632 21.9208 127.763 22.0584C124.893 22.1763 121.984 22.255 119.035 22.2943L119.124 18.3139C120.264 18.4122 121.414 18.5006 122.573 18.5792C123.733 18.6579 124.903 18.7267 126.082 18.7856C126.023 18.5301 125.954 18.3041 125.876 18.1075C125.522 18.1075 125.148 18.0977 124.755 18.078C124.362 18.0584 123.989 18.0289 123.635 17.9896C123.301 17.9502 122.986 17.9011 122.691 17.8421C122.416 17.7832 122.21 17.7045 122.072 17.6063C121.856 17.449 121.679 17.3212 121.541 17.223C121.423 17.1247 121.296 16.9969 121.158 16.8397C120.922 16.5252 120.735 16.1222 120.598 15.6308C120.46 15.1197 120.352 14.5792 120.274 14.0092C120.215 13.4391 120.175 12.8789 120.156 12.3285C120.156 11.7585 120.156 11.2671 120.156 10.8543C120.156 10.3236 120.156 9.78305 120.156 9.23267C120.156 8.66264 120.165 8.11226 120.185 7.58154L124.696 8.02381ZM136.077 31.9062L134.603 35.0316C133.797 34.4812 133.06 34.0291 132.392 33.6753C131.743 33.3215 131.094 33.0365 130.446 32.8202C130.446 33.3313 130.426 33.8129 130.387 34.265C130.347 34.7171 130.308 35.1397 130.269 35.5328L125.227 34.3534C125.404 33.7048 125.571 32.9578 125.728 32.1126C125.905 31.2674 126.013 30.4418 126.052 29.6359H125.699C125.561 29.6359 125.335 29.6359 125.021 29.6359C124.706 29.6163 124.372 29.5966 124.018 29.5769C123.684 29.5573 123.369 29.5278 123.075 29.4885C122.78 29.4492 122.593 29.3902 122.514 29.3116C122.436 29.3116 122.328 29.2624 122.19 29.1642C122.052 29.0659 121.944 28.9971 121.866 28.9578C121.532 28.7022 121.286 28.3681 121.129 27.9553C120.971 27.5229 120.853 27.0708 120.775 26.599C120.716 26.1076 120.686 25.626 120.686 25.1543C120.686 24.6825 120.686 24.2501 120.686 23.857V22.766L125.168 22.9135C125.148 23.0314 125.119 23.2869 125.079 23.6801C125.04 24.0535 125.001 24.4565 124.962 24.8889C124.942 25.3017 124.922 25.6948 124.903 26.0683C124.883 26.4418 124.893 26.6776 124.932 26.7759H128.529C129.08 26.7759 129.522 26.7759 129.856 26.7759C130.21 26.7759 130.652 26.7661 131.183 26.7464C131.222 26.5106 131.252 26.2747 131.271 26.0388C131.291 25.7833 131.301 25.5179 131.301 25.2427H129.944C129.473 25.2427 129.07 25.2526 128.736 25.2722C128.401 25.2919 128.077 25.3214 127.763 25.3607C127.448 25.3803 127.124 25.4196 126.79 25.4786C126.475 25.5179 126.092 25.5671 125.64 25.626L125.256 23.4147C125.866 23.2771 126.436 23.1493 126.966 23.0314C127.497 22.8938 128.018 22.7759 128.529 22.6776C129.06 22.5596 129.591 22.4712 130.121 22.4122C130.672 22.3533 131.252 22.3238 131.861 22.3238C133.237 22.3238 134.19 22.6579 134.721 23.3262C135.252 23.9946 135.517 24.9675 135.517 26.2452C135.517 26.658 135.497 27.0904 135.458 27.5425C135.438 27.975 135.419 28.4172 135.399 28.8693C134.554 28.9676 133.699 29.0659 132.834 29.1642C131.969 29.2624 131.094 29.3509 130.21 29.4295C130.229 29.5081 130.239 29.5868 130.239 29.6654C130.259 29.7244 130.269 29.803 130.269 29.9013C132.647 30.0585 134.691 30.5106 136.402 31.2576L136.372 31.287C137.571 30.4811 138.711 29.5376 139.792 28.4565C140.893 27.3754 141.866 26.255 142.711 25.0953L147.193 28.7514C145.895 30.0487 144.431 31.2674 142.8 32.4075C141.188 33.5672 139.517 34.491 137.787 35.179L136.077 31.9062ZM135.664 15.6308C136.824 14.5694 137.925 13.4195 138.967 12.1811C140.008 10.9428 140.873 9.60614 141.561 8.17123L146.544 11.0312C145.365 12.6037 144.067 14.0485 142.652 15.3654C141.257 16.6824 139.773 17.852 138.2 18.8741L135.664 15.6308ZM136.696 23.0904C137.856 22.1272 138.908 21.0953 139.851 19.9945C140.795 18.8937 141.699 17.7242 142.564 16.4858L147.075 20.0535C145.895 21.3508 144.618 22.5498 143.242 23.6506C141.886 24.7317 140.461 25.685 138.967 26.5106L136.696 23.0904ZM119.536 32.2305C119.536 31.5819 119.762 31.0315 120.215 30.5794C120.686 30.1273 121.256 29.9013 121.925 29.9013C122.593 29.9013 123.153 30.1273 123.605 30.5794C124.077 31.0315 124.313 31.5819 124.313 32.2305C124.313 32.8989 124.077 33.4591 123.605 33.9112C123.153 34.3633 122.593 34.5893 121.925 34.5893C121.256 34.5893 120.686 34.3534 120.215 33.8817C119.762 33.4296 119.536 32.8792 119.536 32.2305Z" fill="#FAC33D"/>
<path d="M114.621 34.2357C113.088 34.9237 111.427 35.2676 109.638 35.2676C109.245 35.2676 108.793 35.2283 108.282 35.1497C107.77 35.0907 107.269 34.9728 106.778 34.7959C106.306 34.6386 105.874 34.4322 105.481 34.1767C105.087 33.9212 104.802 33.6067 104.625 33.2332V33.2037L104.331 32.5846V32.5551C104.272 32.4764 104.232 32.2897 104.213 31.9949C104.193 31.7 104.173 31.3855 104.154 31.0514C104.134 30.7172 104.124 30.4027 104.124 30.1079C104.124 29.7934 104.124 29.5968 104.124 29.5182C104.124 28.7319 104.124 28.0636 104.124 27.5132C104.124 26.9629 104.134 26.442 104.154 25.9506C104.173 25.4395 104.193 24.9088 104.213 24.3584C104.252 23.808 104.291 23.1397 104.331 22.3534L106.719 22.3829L105.038 18.4025C106.021 18.147 106.945 17.921 107.81 17.7244C108.675 17.5082 109.618 17.4001 110.64 17.4001C111.092 17.4001 111.545 17.4689 111.997 17.6065C112.468 17.744 112.881 17.921 113.235 18.1372C113.805 18.491 114.237 18.9234 114.532 19.4345C114.827 19.9456 115.033 20.4861 115.151 21.0561C115.269 21.6262 115.328 22.2159 115.328 22.8252C115.348 23.4149 115.358 23.9849 115.358 24.5353C115.358 25.7147 115.309 27.071 115.21 28.6042C115.132 30.1373 114.935 32.0145 114.621 34.2357ZM98.5812 17.2232L98.3158 19.1102C98.8269 19.1298 99.3281 19.2281 99.8195 19.405C100.311 19.5623 100.763 19.7883 101.176 20.0831C101.608 20.378 101.982 20.7416 102.296 21.1741C102.611 21.5869 102.856 22.0586 103.033 22.5893C103.21 23.1004 103.318 23.6409 103.358 24.211C103.417 24.7613 103.456 25.2921 103.476 25.8031C103.476 26.6877 103.417 27.7294 103.299 28.9285C103.181 30.1079 103.014 31.3462 102.797 32.6435C102.719 33.1546 102.621 33.6263 102.503 34.0588C102.385 34.5109 102.247 35.0416 102.09 35.6509L96.6942 34.1767L97.6672 31.0514C97.9423 30.1668 98.1782 29.2233 98.3748 28.2209C98.591 27.2184 98.7188 26.2749 98.7581 25.3903C98.7777 25.1348 98.7876 24.8989 98.7876 24.6827C98.7876 24.4468 98.7483 24.2011 98.6696 23.9456C98.6696 23.926 98.6696 23.9161 98.6696 23.9161C98.5517 23.8572 98.3944 23.8178 98.1979 23.7982C98.021 23.7785 97.8735 23.7589 97.7556 23.7392H97.4608C96.9694 25.8228 96.3698 27.7884 95.6622 29.6361C94.9742 31.4838 94.1585 33.361 93.215 35.2676L89.7064 33.8229C90.3157 32.2111 90.8366 30.6091 91.269 29.0169C91.7211 27.4051 92.0946 25.7442 92.3894 24.0341C91.6228 24.152 90.925 24.2994 90.296 24.4763L89.3525 20.6139C89.8636 20.4566 90.4238 20.2994 91.0332 20.1421C91.6425 19.9849 92.2813 19.8374 92.9496 19.6998C92.989 19.2084 93.0184 18.7269 93.0381 18.2551C93.0774 17.7637 93.1167 17.2625 93.156 16.7514L98.5812 17.2232ZM90.0307 10.3828L95.8686 10.6481L95.5738 9.08545L101.5 8.84957L101.323 10.825L104.861 10.9135L104.596 8.7906L110.552 8.70215C110.513 9.09527 110.463 9.47857 110.404 9.85204C110.365 10.2255 110.316 10.6088 110.257 11.0019C112.085 11.0412 113.903 11.0412 115.712 11.0019L115.889 14.2747C114.847 14.373 113.805 14.4713 112.763 14.5696C111.741 14.6482 110.699 14.7366 109.638 14.8349C109.54 15.2477 109.441 15.6605 109.343 16.0733C109.264 16.486 109.176 16.889 109.078 17.2821L105.304 16.7809C105.304 16.5057 105.294 16.2305 105.274 15.9553C105.274 15.6801 105.264 15.4049 105.245 15.1298C104.498 15.1691 103.741 15.2084 102.974 15.2477C102.227 15.287 101.471 15.3263 100.704 15.3656C100.645 15.6801 100.586 15.9848 100.527 16.2797C100.468 16.5745 100.399 16.8693 100.321 17.1642L96.5762 16.7809L96.4878 15.572C95.387 15.6113 94.2961 15.6507 93.215 15.69C92.1536 15.7096 91.0823 15.7391 90.0012 15.7784L90.0307 10.3828ZM108.901 30.4617C109.176 30.442 109.54 30.4027 109.992 30.3437C110.444 30.2651 110.807 30.1767 111.083 30.0784C111.083 29.6852 111.083 29.2135 111.083 28.6631C111.102 28.1127 111.102 27.5427 111.083 26.953C111.083 26.3633 111.063 25.7638 111.024 25.1545C111.004 24.5451 110.974 23.9849 110.935 23.4739L110.817 22.324L108.665 22.7957C108.665 24.2699 108.675 25.5476 108.694 26.6287C108.714 27.6901 108.763 28.7123 108.842 29.6951L108.901 30.4617Z" fill="#FAC33D"/>
<path d="M68.1903 17.105C68.1707 17.3801 68.1412 17.7831 68.1019 18.3138C68.0822 18.8445 68.0527 19.4539 68.0134 20.1419C67.9741 20.8102 67.9348 21.5375 67.8955 22.3237C67.8562 23.11 67.807 23.8962 67.7481 24.6825C67.7087 25.4491 67.6596 26.1862 67.6006 26.8938C67.5613 27.6014 67.5122 28.2206 67.4532 28.7513L71.1388 28.9282C71.0995 27.9061 71.0503 26.7267 70.9913 25.3901C70.9324 24.0535 70.8734 22.707 70.8144 21.3507C70.7555 19.9944 70.6965 18.6873 70.6375 17.4293C70.5786 16.1516 70.5098 15.0607 70.4311 14.1565C68.839 14.2351 67.2468 14.2941 65.6547 14.3334C64.0822 14.3727 62.4998 14.412 60.9077 14.4514L60.9961 8.81982C63.9446 8.97707 66.8734 9.10484 69.7825 9.20312C72.7113 9.3014 75.6499 9.35054 78.5983 9.35054C79.5812 9.35054 80.5541 9.35054 81.5173 9.35054C82.5001 9.35054 83.4928 9.33089 84.4952 9.29157L84.6427 13.154C83.306 13.2916 81.9694 13.4096 80.6328 13.5079C79.3158 13.6061 77.989 13.7044 76.6524 13.8027L76.4755 18.933C77.6548 18.874 78.8342 18.7954 80.0136 18.6971C81.193 18.5988 82.3822 18.4809 83.5812 18.3433L83.7581 23.9159C82.5001 23.8962 81.2519 23.8667 80.0136 23.8274C78.7752 23.7881 77.5369 23.7095 76.2986 23.5915L76.0332 29.1051C77.6647 29.1641 79.2863 29.2034 80.8981 29.2231C82.5296 29.2427 84.1709 29.2624 85.822 29.282L85.881 33.4688C82.8343 33.6457 79.7974 33.7538 76.7703 33.7932C73.7629 33.8325 70.7358 33.8521 67.6891 33.8521C66.3328 33.8521 64.9863 33.8423 63.6497 33.8226C62.3131 33.8226 60.9666 33.8226 59.6104 33.8226L59.7873 28.2501C60.318 28.2894 60.8487 28.3287 61.3794 28.368C61.9101 28.4073 62.4409 28.4466 62.9716 28.486C62.9126 27.7194 62.8438 26.8053 62.7652 25.7439C62.6866 24.6825 62.6079 23.621 62.5293 22.5596C62.4703 21.4981 62.4114 20.5252 62.3524 19.6406C62.2934 18.7364 62.2443 18.0878 62.205 17.6946L68.1903 17.105Z" fill="#FAC33D"/>
<defs>
<clipPath id="clip0_22093_72491">
<rect width="47.4315" height="33.3302" fill="white" transform="translate(3.8457 5.12793)"/>
</clipPath>
</defs>
</svg>
