<svg width="1024" height="1024" viewBox="0 0 1024 1024" fill="none" xmlns="http://www.w3.org/2000/svg">
<g clip-path="url(#clip0_23882_143920)">
<rect width="1024" height="1024" rx="300" fill="url(#paint0_linear_23882_143920)"/>
<g style="mix-blend-mode:screen" opacity="0.1">
<rect width="1024" height="1024" fill="url(#paint1_linear_23882_143920)"/>
</g>
<g clip-path="url(#clip1_23882_143920)">
<path d="M843.302 460.946C836.541 528.44 819.504 597.79 784.84 657.614C660.99 870.98 590.003 538.068 511.996 538.068C433.989 538.068 363.085 870.98 239.235 657.614C204.58 597.948 187.617 528.701 180.828 461.353C180.81 461.184 180.792 461.003 180.773 460.833C180.293 456.059 179.86 451.307 179.482 446.556C175.479 396.767 176.751 348.437 180.183 306.171C182.277 281.169 185.118 258.226 188.125 238.36C188.706 234.57 189.287 230.882 189.877 227.397C191.962 214.184 194.046 202.508 195.974 192.881C199.894 173.004 211.756 157.131 227.456 150.672L247.997 142.277L258.605 137.876L281.406 128.543C287.503 125.975 293.434 132.842 291.599 140.524C288.592 153.025 285.834 169.203 283.666 188.05C276.398 249.311 274.811 338.006 289.339 415.037C290.427 420.671 291.599 426.305 292.853 431.837C295.602 444.237 298.95 456.217 302.705 467.689C311.809 495.349 323.92 519.627 339.619 538.057C339.619 538.057 375.611 478.448 413.696 402.955C453.202 324.905 488.272 239.785 511.996 239.785C535.72 239.785 570.872 324.905 610.296 402.955C647.8 477.158 683.229 536.02 684.419 538C700.1 519.582 712.193 495.327 721.287 467.689C725.042 456.217 728.381 444.237 731.139 431.837C732.393 426.305 733.564 420.671 734.644 415.037C749.181 338.006 747.594 249.311 740.326 188.05C738.158 169.203 735.4 153.025 732.393 140.524C730.557 132.842 736.488 125.975 742.585 128.543L765.378 137.865L775.985 142.266L796.536 150.66C812.235 157.12 824.097 172.992 828.018 192.87C829.936 202.497 832.03 214.172 834.115 227.386C834.696 230.871 835.286 234.559 835.867 238.349C838.874 258.214 841.715 281.158 843.8 306.16C847.231 348.414 848.513 396.744 844.51 446.533C844.132 451.285 843.698 456.048 843.219 460.822" fill="#FAC33D"/>
</g>
<path d="M231.979 869L211.943 798.091H228.978L241.442 847.949H242.089L254.83 798.091H271.68L284.422 847.672H285.114L297.394 798.091H314.475L294.393 869H276.989L263.694 821.081H262.724L249.429 869H231.979ZM360.778 869L340.742 798.091H357.777L370.241 847.949H370.888L383.629 798.091H400.479L413.221 847.672H413.913L426.193 798.091H443.274L423.192 869H405.788L392.493 821.081H391.523L378.228 869H360.778ZM474.019 869V858.382L510.581 812.54V811.94H475.219V798.091H531.032V809.494L496.224 854.55V855.151H532.233V869H474.019ZM567.94 798.091H584.652V873.062C584.652 878.171 583.682 882.388 581.743 885.712C579.805 889.036 577.004 891.513 573.341 893.144C569.679 894.775 565.232 895.591 560 895.591C559.384 895.591 558.815 895.576 558.292 895.545C557.769 895.545 557.199 895.529 556.584 895.499V881.88C557.045 881.911 557.461 881.926 557.83 881.926C558.199 881.957 558.584 881.972 558.984 881.972C562.185 881.972 564.478 881.188 565.863 879.618C567.248 878.079 567.94 875.817 567.94 872.832V798.091ZM576.25 788.027C573.572 788.027 571.279 787.15 569.371 785.396C567.494 783.611 566.555 781.472 566.555 778.979C566.555 776.455 567.494 774.316 569.371 772.562C571.279 770.777 573.572 769.884 576.25 769.884C578.897 769.884 581.159 770.777 583.036 772.562C584.944 774.316 585.898 776.455 585.898 778.979C585.898 781.472 584.944 783.611 583.036 785.396C581.159 787.15 578.897 788.027 576.25 788.027ZM632.131 870.016C629.331 870.016 626.93 869.031 624.93 867.061C622.929 865.091 621.944 862.691 621.975 859.859C621.944 857.089 622.929 854.72 624.93 852.75C626.93 850.78 629.331 849.795 632.131 849.795C634.84 849.795 637.194 850.78 639.195 852.75C641.226 854.72 642.257 857.089 642.288 859.859C642.257 861.737 641.764 863.445 640.81 864.984C639.887 866.522 638.656 867.754 637.117 868.677C635.609 869.569 633.947 870.016 632.131 870.016ZM714.95 798.091V811.017H674.187V798.091H714.95ZM684.251 781.102H700.962V847.672C700.962 849.919 701.301 851.642 701.978 852.842C702.686 854.012 703.609 854.812 704.748 855.243C705.886 855.674 707.148 855.889 708.533 855.889C709.58 855.889 710.534 855.812 711.395 855.658C712.288 855.504 712.965 855.366 713.427 855.243L716.243 868.308C715.35 868.615 714.073 868.954 712.411 869.323C710.78 869.692 708.779 869.908 706.41 869.969C702.224 870.093 698.454 869.462 695.099 868.077C691.745 866.661 689.082 864.476 687.113 861.521C685.174 858.567 684.22 854.874 684.251 850.442V781.102ZM812.265 798.091L787.012 869H768.547L743.294 798.091H761.114L777.41 850.765H778.149L794.491 798.091H812.265Z" fill="#FAC33D"/>
</g>
<defs>
<linearGradient id="paint0_linear_23882_143920" x1="512" y1="0" x2="512" y2="1024" gradientUnits="userSpaceOnUse">
<stop stop-color="#17181A"/>
<stop offset="1"/>
</linearGradient>
<linearGradient id="paint1_linear_23882_143920" x1="640.5" y1="-323.5" x2="512" y2="1024" gradientUnits="userSpaceOnUse">
<stop stop-color="white"/>
<stop offset="1" stop-color="white" stop-opacity="0.01"/>
</linearGradient>
<clipPath id="clip0_23882_143920">
<rect width="1024" height="1024" rx="300" fill="white"/>
</clipPath>
<clipPath id="clip1_23882_143920">
<rect width="670" height="601" fill="white" transform="translate(177 128)"/>
</clipPath>
</defs>
</svg>
