<svg width="26" height="26" viewBox="0 0 26 26" fill="none" xmlns="http://www.w3.org/2000/svg">
<path d="M18.4545 3H7.54545C5.03909 3 3 5.03909 3 7.54545V14.8182C3 17.0127 4.56455 18.8491 6.63636 19.2718V22.0909C6.63636 22.4264 6.82091 22.7345 7.11636 22.8927C7.25091 22.9645 7.39818 23 7.54545 23C7.72182 23 7.89727 22.9482 8.05 22.8473L13.2755 19.3636H18.4545C20.9609 19.3636 23 17.3245 23 14.8182V7.54545C23 5.03909 20.9609 3 18.4545 3ZM12.4955 17.6982L8.45455 20.3918V18.4545C8.45455 17.9527 8.04727 17.5455 7.54545 17.5455C6.04182 17.5455 4.81818 16.3218 4.81818 14.8182V7.54545C4.81818 6.04182 6.04182 4.81818 7.54545 4.81818H18.4545C19.9582 4.81818 21.1818 6.04182 21.1818 7.54545V14.8182C21.1818 16.3218 19.9582 17.5455 18.4545 17.5455H13C12.9364 17.5445 12.8455 17.5509 12.7418 17.5818C12.6327 17.6136 12.55 17.6609 12.4955 17.6982Z" fill="#FAC33D"/>
<path fill-rule="evenodd" clip-rule="evenodd" d="M6.83636 19.1085V22.0909C6.83636 22.3526 6.98028 22.5929 7.21054 22.7163M6.83636 19.1085L8.25455 20.7655L6.83636 19.1085ZM13.2149 19.1636H18.4545C20.8505 19.1636 22.8 17.2141 22.8 14.8182V7.54545C22.8 5.14955 20.8505 3.2 18.4545 3.2H7.54545C5.14955 3.2 3.2 5.14955 3.2 7.54545V14.8182C3.2 16.9156 6.63636 18.2492 8.25455 20.7655M13.2149 19.1636L13.1645 19.1972L13.2149 19.1636ZM12.6064 17.8646L8.25455 20.7655V18.4545C8.25455 18.0632 7.93682 17.7455 7.54545 17.7455C5.93136 17.7455 4.61818 16.4323 4.61818 14.8182V7.54545C4.61818 5.93136 5.93136 4.61818 7.54545 4.61818H18.4545C20.0686 4.61818 21.3818 5.93136 21.3818 7.54545V14.8182C21.3818 16.4323 20.0686 17.7455 18.4545 17.7455H12.9971C12.9493 17.7448 12.8792 17.7495 12.799 17.7735L12.7978 17.7738C12.7138 17.7983 12.6501 17.8347 12.6083 17.8633L12.6064 17.8646ZM7.21054 22.7163C7.31547 22.7723 7.43045 22.8 7.54545 22.8C7.68245 22.8 7.81948 22.7598 7.93949 22.6806L13.1645 19.1972M12.4955 17.6982L8.45455 20.3918V18.4545C8.45455 17.9527 8.04727 17.5455 7.54545 17.5455C6.04182 17.5455 4.81818 16.3218 4.81818 14.8182V7.54545C4.81818 6.04182 6.04182 4.81818 7.54545 4.81818H18.4545C19.9582 4.81818 21.1818 6.04182 21.1818 7.54545V14.8182C21.1818 16.3218 19.9582 17.5455 18.4545 17.5455H13C12.9364 17.5445 12.8455 17.5509 12.7418 17.5818C12.6327 17.6136 12.55 17.6609 12.4955 17.6982ZM7.54545 3H18.4545C20.9609 3 23 5.03909 23 7.54545V14.8182C23 17.3245 20.9609 19.3636 18.4545 19.3636H13.2755L8.05 22.8473C7.89727 22.9482 7.72182 23 7.54545 23C7.39818 23 7.25091 22.9645 7.11636 22.8927C6.82091 22.7345 6.63636 22.4264 6.63636 22.0909V19.2718C4.56455 18.8491 3 17.0127 3 14.8182V7.54545C3 5.03909 5.03909 3 7.54545 3Z" fill="#FAC33D"/>
<path d="M18.4547 8.45453H7.54557C7.04375 8.45453 6.63647 8.8618 6.63647 9.36362C6.63647 9.86544 7.04375 10.2727 7.54557 10.2727H18.4547C18.9565 10.2727 19.3637 9.86544 19.3637 9.36362C19.3637 8.8618 18.9565 8.45453 18.4547 8.45453Z" fill="#FAC33D"/>
<path fill-rule="evenodd" clip-rule="evenodd" d="M18.4547 8.65453H7.54557C7.1542 8.65453 6.83647 8.97226 6.83647 9.36362C6.83647 9.75498 7.1542 10.0727 7.54557 10.0727H18.4547C18.846 10.0727 19.1637 9.75498 19.1637 9.36362C19.1637 8.97226 18.846 8.65453 18.4547 8.65453ZM7.54557 8.45453H18.4547C18.9565 8.45453 19.3637 8.8618 19.3637 9.36362C19.3637 9.86544 18.9565 10.2727 18.4547 10.2727H7.54557C7.04375 10.2727 6.63647 9.86544 6.63647 9.36362C6.63647 8.8618 7.04375 8.45453 7.54557 8.45453Z" fill="#FAC33D"/>
<path d="M16.6364 12.0909H9.36368C8.86186 12.0909 8.45459 12.4982 8.45459 13C8.45459 13.5019 8.86186 13.9091 9.36368 13.9091H16.6364C17.1382 13.9091 17.5455 13.5019 17.5455 13C17.5455 12.4982 17.1382 12.0909 16.6364 12.0909Z" fill="#FAC33D"/>
<path fill-rule="evenodd" clip-rule="evenodd" d="M16.6364 12.2909H9.36368C8.97232 12.2909 8.65459 12.6087 8.65459 13C8.65459 13.3914 8.97232 13.7091 9.36368 13.7091H16.6364C17.0278 13.7091 17.3455 13.3914 17.3455 13C17.3455 12.6087 17.0278 12.2909 16.6364 12.2909ZM9.36368 12.0909H16.6364C17.1382 12.0909 17.5455 12.4982 17.5455 13C17.5455 13.5019 17.1382 13.9091 16.6364 13.9091H9.36368C8.86186 13.9091 8.45459 13.5019 8.45459 13C8.45459 12.4982 8.86186 12.0909 9.36368 12.0909Z" fill="#FAC33D"/>
</svg>
