<svg width="1024" height="1024" viewBox="0 0 1024 1024" fill="none" xmlns="http://www.w3.org/2000/svg">
<rect width="1024" height="1024" rx="512" fill="url(#paint0_linear_23248_209307)"/>
<g style="mix-blend-mode:screen" opacity="0.1">
<rect width="1024" height="1024" rx="512" fill="url(#paint1_linear_23248_209307)"/>
</g>
<g clip-path="url(#clip0_23248_209307)">
<path d="M802.788 452.425L608.661 340.353L414.534 228.264C368.918 201.928 311.88 234.856 311.88 287.527V323.846C311.623 326.894 311.503 330.027 311.538 333.247C311.743 350.37 311.829 367.476 311.88 384.599V441.877C311.88 455.969 311.846 470.045 311.88 484.137C311.88 490.592 311.88 497.082 311.88 505.267L255.339 472.63L198.216 439.651C193.233 436.774 187 440.37 187 446.123V578.058C187 583.812 193.233 587.408 198.216 584.531L258.678 551.551L311.897 518.932V673.726C311.812 680.096 311.726 686.449 311.606 692.818C311.538 696.5 311.64 700.062 311.897 703.538V735.884C311.897 788.572 368.918 821.483 414.551 795.147L608.678 683.075L802.805 571.003C848.421 544.668 848.421 478.812 802.805 452.476L802.788 452.425ZM620.425 529.685C555.408 582.853 456.726 592.305 380.493 551.568L316.435 508.024C360.562 490.61 403.421 467.664 449.14 457.134C511.572 442.75 569.808 461.962 620.955 500.918C634.277 511.072 633.49 519.017 620.442 529.685H620.425Z" fill="#F9C33B"/>
<path d="M567.582 501.979C567.582 501.723 567.531 501.483 567.514 501.226C567.497 501.038 567.479 500.849 567.462 500.644C567.462 500.575 567.428 500.507 567.411 500.438C567.325 500.027 567.223 499.616 567.103 499.205C567 498.863 566.88 498.521 566.743 498.178C566.623 497.887 566.521 497.613 566.384 497.339C566.264 497.082 566.127 496.842 565.99 496.603C565.853 496.346 565.699 496.106 565.527 495.866C565.373 495.644 565.236 495.421 565.065 495.216C564.842 494.925 564.603 494.668 564.363 494.411C564.123 494.154 563.884 493.914 563.627 493.675C563.37 493.435 563.096 493.195 562.822 492.973C562.616 492.801 562.394 492.664 562.171 492.51C561.932 492.356 561.692 492.202 561.435 492.048C561.195 491.911 560.956 491.774 560.699 491.654C560.425 491.517 560.134 491.414 559.842 491.295C559.5 491.158 559.175 491.038 558.815 490.935C558.404 490.815 558.01 490.712 557.582 490.627C557.514 490.627 557.445 490.592 557.377 490.575C557.188 490.541 557 490.541 556.812 490.524C556.555 490.49 556.315 490.455 556.058 490.438C555.801 490.438 555.545 490.438 555.288 490.438C555.031 490.438 554.774 490.438 554.517 490.438C554.26 490.438 554.021 490.49 553.764 490.524C553.575 490.541 553.387 490.558 553.199 490.575C553.13 490.575 553.062 490.61 552.993 490.627C552.582 490.712 552.171 490.815 551.76 490.935C551.418 491.038 551.075 491.158 550.733 491.295C550.442 491.414 550.168 491.517 549.877 491.654C549.62 491.774 549.38 491.911 549.14 492.048C548.884 492.185 548.644 492.339 548.404 492.51C548.182 492.664 547.959 492.801 547.753 492.973C547.479 493.195 547.206 493.435 546.949 493.675C546.692 493.914 546.452 494.154 546.212 494.411C545.973 494.668 545.733 494.942 545.51 495.216C545.339 495.421 545.202 495.644 545.048 495.866C544.894 496.106 544.74 496.346 544.586 496.603C544.449 496.842 544.312 497.082 544.192 497.339C544.055 497.613 543.952 497.904 543.832 498.178C543.695 498.521 543.575 498.846 543.473 499.205C543.353 499.599 543.25 500.01 543.164 500.438C543.164 500.507 543.13 500.575 543.113 500.644C543.079 500.832 543.079 501.021 543.062 501.226C543.027 501.483 542.993 501.723 542.993 501.979C542.993 502.236 542.993 502.493 542.993 502.75C542.993 503.007 542.993 503.264 542.993 503.521C542.993 503.777 543.045 504.017 543.079 504.274C543.096 504.462 543.113 504.651 543.13 504.839C543.13 504.908 543.164 504.976 543.182 505.045C543.267 505.455 543.37 505.866 543.49 506.277C543.592 506.62 543.712 506.962 543.849 507.305C543.969 507.596 544.072 507.87 544.209 508.161C544.329 508.418 544.466 508.658 544.603 508.897C544.74 509.154 544.894 509.394 545.065 509.634C545.219 509.856 545.356 510.079 545.527 510.301C545.75 510.575 545.973 510.849 546.212 511.106C546.452 511.363 546.692 511.603 546.949 511.842C547.206 512.082 547.479 512.322 547.753 512.544C547.959 512.716 548.182 512.853 548.421 513.007C548.661 513.161 548.901 513.315 549.14 513.469C549.38 513.606 549.62 513.743 549.877 513.863C550.151 514 550.442 514.103 550.716 514.223C551.058 514.36 551.401 514.479 551.743 514.582C552.137 514.702 552.548 514.805 552.976 514.89C553.045 514.89 553.113 514.925 553.182 514.942C553.37 514.976 553.558 514.976 553.747 514.993C554.003 515.027 554.243 515.062 554.5 515.079C554.757 515.079 555.014 515.079 555.271 515.079C555.527 515.079 555.784 515.079 556.041 515.079C556.298 515.079 556.538 515.027 556.795 514.993C556.983 514.976 557.171 514.959 557.36 514.942C557.428 514.942 557.497 514.908 557.565 514.89C557.976 514.805 558.387 514.702 558.798 514.582C559.14 514.479 559.483 514.36 559.825 514.223C560.116 514.103 560.39 514 560.664 513.863C560.921 513.743 561.161 513.606 561.401 513.469C561.658 513.332 561.897 513.178 562.12 513.007C562.343 512.853 562.565 512.716 562.788 512.544C563.062 512.322 563.336 512.099 563.592 511.86C563.849 511.62 564.106 511.38 564.329 511.123C564.569 510.866 564.808 510.592 565.014 510.318C565.185 510.113 565.322 509.89 565.476 509.651C565.63 509.411 565.784 509.171 565.938 508.914C566.075 508.675 566.212 508.435 566.332 508.178C566.469 507.904 566.572 507.613 566.692 507.322C566.829 506.979 566.949 506.654 567.051 506.295C567.171 505.884 567.274 505.49 567.36 505.062C567.36 504.993 567.394 504.925 567.411 504.856C567.445 504.668 567.445 504.479 567.462 504.291C567.497 504.034 567.531 503.795 567.548 503.538C567.548 503.281 567.548 503.024 567.548 502.767C567.548 502.51 567.548 502.253 567.548 501.997L567.582 501.979Z" fill="#F9C33B"/>
</g>
<defs>
<linearGradient id="paint0_linear_23248_209307" x1="512" y1="0" x2="512" y2="1024" gradientUnits="userSpaceOnUse">
<stop stop-color="#17181A"/>
<stop offset="1"/>
</linearGradient>
<linearGradient id="paint1_linear_23248_209307" x1="640.5" y1="-323.5" x2="512" y2="1024" gradientUnits="userSpaceOnUse">
<stop stop-color="white"/>
<stop offset="1" stop-color="white" stop-opacity="0.01"/>
</linearGradient>
<clipPath id="clip0_23248_209307">
<rect width="650" height="585.377" fill="white" transform="translate(187 219)"/>
</clipPath>
</defs>
</svg>
