<svg width="31" height="30" viewBox="0 0 31 30" fill="none" xmlns="http://www.w3.org/2000/svg">
<rect x="0.5" width="30" height="30" rx="15" fill="url(#paint0_linear_23194_3836)"/>
<g style="mix-blend-mode:screen" opacity="0.1">
<rect x="0.5" width="30" height="30" rx="15" fill="url(#paint1_linear_23194_3836)"/>
</g>
<g filter="url(#filter0_d_23194_3836)">
<path d="M11.6467 23.2768C11.8286 23.2582 12.0476 23.2397 12.2333 23.184C12.4226 23.1283 12.6045 23.0466 12.7789 22.9575C12.8012 22.9464 12.8198 22.9353 12.8383 22.9241C12.868 22.9056 12.8977 22.8907 12.9274 22.8722C13.3098 22.6531 13.6921 22.4304 14.0745 22.2114C14.7501 21.8216 15.4294 21.4318 16.1051 21.0383C16.8995 20.5779 17.6976 20.1176 18.492 19.661C19.2307 19.2341 19.9694 18.8071 20.7082 18.3802C21.2204 18.0869 21.729 17.7899 22.2413 17.4967C22.3564 17.4299 22.4714 17.363 22.5865 17.2962C23.1879 16.951 23.6334 16.3978 23.8264 15.7296C23.8784 15.5477 23.8969 15.3361 23.9155 15.1542C23.9229 15.0948 23.9266 15.0317 23.9229 14.9723C23.9155 14.7792 23.8858 14.5862 23.8487 14.3969C23.8375 14.3375 23.819 14.2781 23.7967 14.2187C23.7299 14.0442 23.663 13.8623 23.5665 13.6952C23.4737 13.5393 23.3512 13.3945 23.2361 13.2535C23.1916 13.1978 23.1433 13.1495 23.0877 13.1013C22.9652 13.001 22.8427 12.8971 22.709 12.808C22.6793 12.7894 22.6533 12.7709 22.6236 12.7523C22.5977 12.7337 22.5717 12.7189 22.542 12.704C22.3304 12.5815 22.1225 12.4627 21.9109 12.3402C21.3207 11.9987 20.7304 11.6571 20.1365 11.3156C19.3643 10.8701 18.5922 10.4246 17.8238 9.97916C17.0442 9.52997 16.2684 9.08077 15.4888 8.63158C14.8763 8.27891 14.2638 7.92252 13.6513 7.56985C13.3766 7.41022 13.1056 7.25059 12.8309 7.09467C12.4337 6.86821 12.0105 6.75313 11.5539 6.73828C11.4908 6.73828 11.424 6.73828 11.3609 6.74942C11.1716 6.77169 10.9526 6.78654 10.7669 6.84965C10.5257 6.93132 10.2732 7.02784 10.0653 7.18376C9.92799 7.28771 9.76094 7.39908 9.63844 7.53272C9.5048 7.67379 9.3823 7.83342 9.27836 7.99677C9.24495 8.05245 9.21525 8.10814 9.18927 8.16754C9.11131 8.34202 9.0148 8.53506 8.97768 8.7281C8.93684 8.9397 8.90343 9.16245 8.90343 9.37776V19.9877C8.90343 20.4443 8.87373 20.9306 8.99995 21.3724C9.05192 21.5543 9.13359 21.725 9.21154 21.8921C9.24495 21.9626 9.28579 22.0257 9.33033 22.0851C9.43427 22.2262 9.54564 22.3896 9.67556 22.5158C9.81663 22.6531 9.97254 22.7682 10.1359 22.8759C10.1916 22.913 10.2472 22.9427 10.3103 22.9724C10.4774 23.0504 10.6667 23.1394 10.8523 23.1877C11.0416 23.236 11.2384 23.2545 11.4351 23.2731C11.5057 23.2768 11.5762 23.2731 11.6467 23.2694V23.2768ZM11.8695 19.5904V10.4098C11.8695 10.2093 12.0848 10.0831 12.2592 10.1833C12.2592 10.1833 12.2592 10.1833 12.263 10.1833C12.6119 10.3838 12.9608 10.5843 13.3098 10.7885C13.7404 11.0372 14.1673 11.2822 14.5979 11.5309C15.0694 11.8019 15.5408 12.0766 16.0123 12.3476L17.4452 13.1755C17.8906 13.4316 18.3398 13.6915 18.7852 13.9477C19.1639 14.1667 19.5425 14.3857 19.9175 14.601C20.0214 14.6604 20.1253 14.7198 20.2293 14.7829C20.4038 14.8832 20.4038 15.1319 20.2293 15.2321C20.2181 15.2396 20.2107 15.2433 20.1996 15.2507C19.8469 15.4549 19.4943 15.6591 19.1379 15.8632C18.7073 16.112 18.273 16.3607 17.8424 16.6131C17.3672 16.8878 16.8883 17.1626 16.4132 17.4373C15.9343 17.7157 15.4554 17.9904 14.9766 18.2688C14.5274 18.5287 14.0819 18.7849 13.6327 19.0447C13.2578 19.26 12.8829 19.4791 12.508 19.6944C12.4263 19.7426 12.3446 19.7909 12.2592 19.8355C12.0848 19.9357 11.8695 19.8095 11.8695 19.609V19.583V19.5904Z" fill="#FAC33D"/>
</g>
<defs>
<filter id="filter0_d_23194_3836" x="8.60742" y="6.50391" width="15.7266" height="17.2417" filterUnits="userSpaceOnUse" color-interpolation-filters="sRGB">
<feFlood flood-opacity="0" result="BackgroundImageFix"/>
<feColorMatrix in="SourceAlpha" type="matrix" values="0 0 0 0 0 0 0 0 0 0 0 0 0 0 0 0 0 0 127 0" result="hardAlpha"/>
<feOffset dx="0.0585938" dy="0.117188"/>
<feGaussianBlur stdDeviation="0.175781"/>
<feComposite in2="hardAlpha" operator="out"/>
<feColorMatrix type="matrix" values="0 0 0 0 0 0 0 0 0 0 0 0 0 0 0 0 0 0 0.2 0"/>
<feBlend mode="normal" in2="BackgroundImageFix" result="effect1_dropShadow_23194_3836"/>
<feBlend mode="normal" in="SourceGraphic" in2="effect1_dropShadow_23194_3836" result="shape"/>
</filter>
<linearGradient id="paint0_linear_23194_3836" x1="15.5" y1="0" x2="15.5" y2="30" gradientUnits="userSpaceOnUse">
<stop stop-color="#17181A"/>
<stop offset="1"/>
</linearGradient>
<linearGradient id="paint1_linear_23194_3836" x1="19.2647" y1="-9.47754" x2="15.5" y2="30" gradientUnits="userSpaceOnUse">
<stop stop-color="white"/>
<stop offset="1" stop-color="white" stop-opacity="0.01"/>
</linearGradient>
</defs>
</svg>
