<svg width="40" height="40" viewBox="0 0 40 40" fill="none" xmlns="http://www.w3.org/2000/svg">
<g clip-path="url(#clip0_2492_44537)">
<path fill-rule="evenodd" clip-rule="evenodd" d="M16.3 8.2V13.2C16.3 14.9 14.9 16.4 13.1 16.4H8.2C7.6 16.4 7 15.9 7 15.2C7 14.5 7.5 14 8.2 14H13.2C13.6 14 14 13.6 14 13.2V8.2C14 7.6 14.5 7 15.2 7C15.9 7 16.4 7.5 16.4 8.2H16.3Z" fill="white"/>
<path fill-rule="evenodd" clip-rule="evenodd" d="M32.9996 24.9C32.9996 25.6 32.4996 26.1 31.7996 26.1H26.7996C26.3996 26.1 25.9996 26.4999 25.9996 26.9V31.9C25.9996 32.5 25.4996 33.1 24.7996 33.1C24.0996 33.1 23.5996 32.5999 23.5996 31.9V26.9C23.5996 25.1999 24.9996 23.7 26.7996 23.7H31.7996C32.3996 23.7 32.9996 24.2 32.9996 24.9Z" fill="white"/>
<path fill-rule="evenodd" clip-rule="evenodd" d="M16.3 26.8001V31.8001C16.3 32.4001 15.8 33.0001 15.1 33.0001C14.4 33.0001 13.9 32.5001 13.9 31.8001V26.8001C13.9 26.4001 13.5 26.0001 13.1 26.0001H8.2C7.6 26.0001 7 25.5001 7 24.8001C7 24.1001 7.5 23.6001 8.2 23.6001H13.2C15 23.6001 16.4 25.0001 16.4 26.8001H16.3Z" fill="white"/>
<path fill-rule="evenodd" clip-rule="evenodd" d="M32.9996 15.1C32.9996 15.8 32.4996 16.3 31.7996 16.3H26.7996C25.0996 16.3 23.5996 14.9 23.5996 13.1V8.2C23.5996 7.6 24.0996 7 24.7996 7C25.4996 7 25.9996 7.5 25.9996 8.2V13.2C25.9996 13.6 26.3996 14 26.7996 14H31.7996C32.3996 14 32.9996 14.5 32.9996 15.2V15.1Z" fill="white"/>
</g>
<defs>
<clipPath id="clip0_2492_44537">
<rect width="26" height="26" fill="white" transform="translate(7 7)"/>
</clipPath>
</defs>
</svg>
