<svg width="19" height="20" viewBox="0 0 19 20" fill="none" xmlns="http://www.w3.org/2000/svg">
<path d="M11.0402 4.50409C11.1674 4.50409 11.2492 4.4131 11.2673 4.29481C11.5218 2.79345 11.5218 2.76615 13.0756 2.48408C13.2119 2.45678 13.2936 2.37489 13.2936 2.2475C13.2936 2.12011 13.2119 2.04732 13.0846 2.02002C11.5127 1.70155 11.549 1.68335 11.2673 0.209281C11.2492 0.0818926 11.1674 0 11.0402 0C10.913 0 10.8312 0.0818926 10.813 0.209281C10.5313 1.70155 10.5677 1.72884 8.9957 2.02002C8.87757 2.03822 8.7867 2.12011 8.7867 2.2475C8.7867 2.37489 8.86848 2.45678 8.9957 2.48408C10.5677 2.79345 10.5495 2.81165 10.813 4.29481C10.8312 4.4131 10.913 4.50409 11.0402 4.50409ZM8.45959 20C11.9397 20 14.8565 18.1529 16.1923 15.1046C16.4376 14.5405 16.3558 14.1037 16.1014 13.8581C15.856 13.6215 15.4381 13.576 14.9837 13.7671C14.3022 14.0582 13.4481 14.222 12.4577 14.222C8.43233 14.222 5.86992 11.747 5.86992 7.8071C5.86992 6.72429 6.088 5.65059 6.38785 5.00455C6.6241 4.495 6.59684 4.08553 6.36059 3.82166C6.10617 3.53048 5.66093 3.46679 5.10665 3.69427C2.06265 4.92266 0 8.05278 0 11.6106C0 16.3876 3.50741 20 8.45959 20ZM15.4199 10.8644C15.6198 10.8644 15.7652 10.7188 15.7924 10.5096C16.0832 8.10737 16.1832 8.03458 18.6275 7.65241C18.8637 7.61601 19 7.48863 19 7.27935C19 7.07916 18.8637 6.95177 18.6729 6.90628C16.1923 6.42402 16.0832 6.45132 15.7924 4.05823C15.7652 3.83985 15.6198 3.70337 15.4199 3.70337C15.22 3.70337 15.0746 3.83985 15.0473 4.04004C14.7384 6.49682 14.6657 6.56961 12.1669 6.90628C11.9761 6.93358 11.8307 7.07916 11.8307 7.27935C11.8307 7.47953 11.9761 7.61601 12.1578 7.65241C14.6657 8.15287 14.7293 8.13467 15.0473 10.5278C15.0746 10.7188 15.22 10.8644 15.4199 10.8644ZM8.46867 18.0346C4.66141 18.0346 1.9627 15.2411 1.9627 11.5287C1.9627 9.50864 2.84409 7.62511 4.29794 6.38763C4.14347 6.87898 4.04352 7.57962 4.04352 8.26206C4.04352 12.9481 7.20564 16.0328 11.9943 16.0328C12.5849 16.0328 13.1301 15.96 13.4209 15.869C12.3123 17.2248 10.4768 18.0346 8.46867 18.0346Z" fill="white"/>
</svg>
