<svg width="100%" height="100%" viewBox="0 0 40 40" fill="none" xmlns="http://www.w3.org/2000/svg">
<rect x="7.75" y="6.75" width="24.5" height="11.5" rx="1.25" stroke="white" stroke-width="1.5"/>
<path d="M16.1 11.9804C16.5 12.2113 16.5 12.7887 16.1 13.0196L12.65 15.0115C12.25 15.2424 11.75 14.9537 11.75 14.4919L11.75 10.5081C11.75 10.0463 12.25 9.75759 12.65 9.98853L16.1 11.9804Z" fill="white"/>
<path d="M27.5033 14H19" stroke="white" stroke-width="1.5" stroke-miterlimit="10" stroke-linecap="round" stroke-linejoin="round"/>
<path d="M29 11H19" stroke="white" stroke-width="1.5" stroke-miterlimit="10" stroke-linecap="round" stroke-linejoin="round"/>
<rect x="7.75" y="21.75" width="24.5" height="11.5" rx="1.25" stroke="white" stroke-width="1.5"/>
<path d="M16.1 26.9804C16.5 27.2113 16.5 27.7887 16.1 28.0196L12.65 30.0115C12.25 30.2424 11.75 29.9537 11.75 29.4919L11.75 25.5081C11.75 25.0463 12.25 24.7576 12.65 24.9885L16.1 26.9804Z" fill="white"/>
<path d="M27.5033 29H19" stroke="white" stroke-width="1.5" stroke-miterlimit="10" stroke-linecap="round" stroke-linejoin="round"/>
<path d="M29 26H19" stroke="white" stroke-width="1.5" stroke-miterlimit="10" stroke-linecap="round" stroke-linejoin="round"/>
</svg>
