<svg width="10" height="17" viewBox="0 0 10 17" fill="none" xmlns="http://www.w3.org/2000/svg">
<path d="M8 8.50278C8 8.27462 7.91404 8.08542 7.72493 7.90735L3.31232 3.71703C3.16905 3.57234 2.98567 3.5 2.77364 3.5C2.34384 3.5 2 3.83389 2 4.25125C2 4.46272 2.08596 4.64636 2.24069 4.79661L6.16046 8.50835L2.24069 12.209C2.08596 12.3592 2 12.5484 2 12.7543C2 13.1717 2.34384 13.5 2.77364 13.5C2.9914 13.5 3.16905 13.4332 3.31232 13.2885L7.72493 9.09822C7.91404 8.92015 7.99427 8.73094 8 8.50278Z" fill="#FAC33D"/>
</svg>
