<svg width="24" height="24" viewBox="0 0 24 24" fill="none" xmlns="http://www.w3.org/2000/svg">
    <path
        d="M4.80182 20.4H14.6846C17.0014 20.4 18.886 18.4985 18.886 16.1611V15.7034L20.6033 17.3264C20.9205 17.6265 21.3209 17.7829 21.7308 17.7825C21.9547 17.7825 22.1813 17.736 22.3996 17.6409C23.0167 17.3709 23.4 16.7816 23.4 16.1029V7.89705C23.4 7.21831 23.0167 6.62903 22.3996 6.35906C21.7813 6.08949 21.0931 6.20943 20.6033 6.67356L18.886 8.29659V7.83889C18.886 5.50141 17.0014 3.59998 14.6846 3.59998H7.58701C6.60533 3.59998 5.6495 3.94937 4.89605 4.58318L2.11046 6.92668C1.15065 7.73459 0.599976 8.92118 0.599976 10.1824V16.1611C0.599976 18.4985 2.485 20.4 4.80182 20.4ZM21.7714 7.89705L21.7165 16.127L18.886 13.4517V10.5546L21.7714 7.89705ZM2.22855 10.1824C2.22855 9.41018 2.56571 8.6833 3.15376 8.18869L5.93935 5.84519C6.40057 5.45688 6.98584 5.24307 7.58701 5.24307H14.6846C16.1032 5.24307 17.2574 6.4076 17.2574 7.83889V16.1611C17.2574 17.5924 16.1032 18.7569 14.6846 18.7569H4.80182C3.38278 18.7569 2.22855 17.5924 2.22855 16.1611V10.1824Z"
        fill="currentColor" />
    <path
        d="M6.90805 15.9331C7.19243 16.111 7.50445 16.2 7.81647 16.2C8.12812 16.2 8.44014 16.111 8.72452 15.9335L12.2916 13.7034C12.8603 13.3479 13.2 12.7112 13.2 11.9998C13.2 11.2884 12.8603 10.6517 12.2916 10.2962L8.72452 8.06609C8.15576 7.71101 7.47681 7.71142 6.90805 8.0665C6.33967 8.42198 6 9.05874 6 9.76971V14.2299C6 14.9408 6.33967 15.5776 6.90805 15.9331ZM7.55103 9.76971C7.55103 9.62538 7.63433 9.55158 7.68394 9.52083C7.7131 9.50237 7.76005 9.48064 7.81723 9.48064C7.85699 9.48064 7.90167 9.49089 7.94901 9.52083L11.5161 11.7509C11.6316 11.8231 11.649 11.9379 11.649 11.9998C11.649 12.0617 11.6316 12.1765 11.5161 12.2487L7.94901 14.4787C7.83389 14.5509 7.73317 14.5099 7.68394 14.4787C7.63433 14.448 7.55103 14.3742 7.55103 14.2299V9.76971Z"
        fill="currentColor" />
</svg>