<svg width="65" height="50" viewBox="0 0 65 50" fill="none" xmlns="http://www.w3.org/2000/svg">
    <path
        d="M32.5 18.8594C26.8594 18.8594 21.3125 20.9219 16 25.0156C15.2969 25.5625 14.6407 26.0938 14.0469 26.625C12.8125 27.7188 10.9375 27.6406 9.78129 26.4844C8.50004 25.2031 8.56254 23.125 9.92191 21.9219C14.7657 17.6562 22.5782 12.6094 32.5157 12.6094C37.9219 12.6094 42.6875 14.0938 46.7032 16.1406L43.3438 21.4531C39.7813 19.7344 36.1563 18.8594 32.5 18.8594ZM32.5 36.7188C29.0469 36.7188 26.25 39.5156 26.25 42.9688C26.25 46.4219 29.0469 49.2188 32.5 49.2188C35.9532 49.2188 38.75 46.4219 38.75 42.9688C38.75 39.5156 35.9532 36.7188 32.5 36.7188ZM53.9375 14.0156C56.0625 15.5156 57.7813 17.0312 59.0469 18.2812C60.2813 19.4844 62.2344 19.4844 63.4532 18.2656C64.6719 17.0469 64.6719 15.0469 63.4375 13.8281C62 12.4219 60.0938 10.7344 57.75 9.04687C50.1719 3.625 41.4375 0.765625 32.5 0.765625C23.5625 0.765625 14.8282 3.625 7.25004 9.04687C4.90629 10.7344 3.00004 12.4062 1.56254 13.8281C0.328165 15.0469 0.328165 17.0312 1.54691 18.2656C2.76567 19.4844 4.71879 19.4844 5.93754 18.2812C10.1563 14.1562 19.3282 7.03125 32.5 7.03125C40.1563 7.03125 47.375 9.375 53.9375 14.0156ZM37.0469 31.7188C37.1719 31.2813 37.3594 30.8594 37.6094 30.4375L40.25 26.2813C38 25.2656 35.4063 24.5469 32.5 24.5469C26.1875 24.5469 21.2969 27.8906 18.4219 30.5312C17.1094 31.7344 17.0782 33.7812 18.3282 35.0469C19.5157 36.2344 21.4219 36.2656 22.6563 35.125C24.7188 33.2344 28.2188 30.7969 32.4844 30.7969C34.1407 30.7969 35.6719 31.1719 37.0469 31.7188Z"
        fill="#C1C1C1" />
    <path
        d="M63.3751 31.2656L53.7969 16.1719C53.2188 15.25 52.2501 14.7188 51.1563 14.7188C50.0626 14.7188 49.1094 15.25 48.5157 16.1719L38.9376 31.2656C38.3126 32.2344 38.2813 33.4375 38.8438 34.4375C39.4063 35.4531 40.4219 36.0625 41.5782 36.0625H60.7188C61.8751 36.0625 62.9063 35.4531 63.4532 34.4375C64.0313 33.4375 63.9845 32.25 63.3751 31.2656ZM51.1563 17.7813C52.3126 17.7813 53.2188 18.75 53.1407 19.9062L52.6719 26.7969C52.6094 27.5938 51.9532 28.2031 51.1563 28.2031C50.3594 28.2031 49.7032 27.5781 49.6407 26.7969L49.172 19.9062C49.0938 18.75 50.0157 17.7813 51.1563 17.7813ZM51.1563 33.9531C50.0469 33.9531 49.1407 33.0469 49.1407 31.9375C49.1407 30.8281 50.0469 29.9219 51.1563 29.9219C52.2657 29.9219 53.1719 30.8281 53.1719 31.9375C53.1719 33.0469 52.2657 33.9531 51.1563 33.9531Z"
        fill="#E0E0E0" />
</svg>