<svg width="80" height="80" viewBox="0 0 80 80" fill="none" xmlns="http://www.w3.org/2000/svg">
<g clip-path="url(#clip0_7621_71319)">
<path opacity="0.5" d="M2.66602 40.0001C2.66602 19.5765 19.5758 2.66675 39.9631 2.66675C60.3505 2.66675 77.3327 19.5765 77.3327 40.0001C77.3327 60.4237 60.4229 77.3334 39.9994 77.3334C19.5758 77.3334 2.66602 60.3874 2.66602 40.0001Z" fill="black"/>
<path d="M25 53.7198V26.214C25 24.6059 25.9716 23.4668 28.0488 23.4668H32.1948C34.3139 23.4668 35.2855 24.6059 35.2855 26.214V53.7198C35.2855 55.3698 34.3139 56.5089 32.1948 56.5089H28.0488C25.9716 56.5089 25 55.3698 25 53.7198Z" fill="white"/>
<path d="M44.7559 53.7198V26.214C44.7559 24.6059 45.7275 23.4668 47.8465 23.4668H51.9926C54.0279 23.4668 54.9995 24.6059 54.9995 26.214V53.7198C54.9995 55.3698 54.0279 56.5089 51.9926 56.5089H47.8465C45.7275 56.5089 44.7559 55.3698 44.7559 53.7198Z" fill="white"/>
</g>
<defs>
<clipPath id="clip0_7621_71319">
<rect width="74.6739" height="74.6667" fill="white" transform="translate(2.66602 2.66675)"/>
</clipPath>
</defs>
</svg>
