<svg width="24" height="24" viewBox="0 0 24 24" fill="none" xmlns="http://www.w3.org/2000/svg">
<g clip-path="url(#clip0_25413_127941)">
<path d="M18.3438 7.84277H5.6562C3.36445 7.84277 1.5 9.70739 1.5 11.9991C1.5 14.2909 3.36445 16.1555 5.6562 16.1555H18.3438C20.6356 16.1555 22.5 14.2909 22.5 11.9991C22.5 9.70739 20.6355 7.84277 18.3438 7.84277ZM18.3438 14.843H5.6562C4.08813 14.843 2.8125 13.5672 2.8125 11.9991C2.8125 10.4311 4.08813 9.15528 5.6562 9.15528H18.3438C19.9119 9.15528 21.1875 10.4311 21.1875 11.9991C21.1875 13.5672 19.9119 14.843 18.3438 14.843Z" fill="currentColor"/>
<path d="M8.37994 11.0762C8.2441 10.8408 7.9435 10.7601 7.70766 10.8961L7.27379 11.1466V10.6455C7.27379 10.3738 7.0535 10.1533 6.7816 10.1533C6.50971 10.1533 6.28942 10.3738 6.28942 10.6455V11.1465L5.85555 10.896C5.6202 10.76 5.31927 10.8407 5.18326 11.0761C5.04725 11.3114 5.12797 11.6125 5.36332 11.7484L5.79723 11.999L5.36336 12.2496C5.12801 12.3855 5.04725 12.6866 5.1833 12.9219C5.27448 13.0799 5.43982 13.168 5.60995 13.168C5.69342 13.168 5.77803 13.1469 5.85555 13.102L6.28942 12.8516V13.3525C6.28942 13.6243 6.50971 13.8447 6.7816 13.8447C7.0535 13.8447 7.27379 13.6243 7.27379 13.3525V12.8516L7.70766 13.102C7.78522 13.1469 7.86979 13.168 7.95326 13.168C8.12339 13.168 8.28873 13.0799 8.3799 12.9219C8.51591 12.6866 8.43519 12.3855 8.19984 12.2496L7.76594 11.999L8.1998 11.7484C8.43519 11.6126 8.51595 11.3115 8.37994 11.0762Z" fill="currentColor"/>
<path d="M18.8174 11.0762C18.6816 10.8408 18.381 10.7601 18.1452 10.8961L17.7113 11.1466V10.6455C17.7113 10.3738 17.491 10.1533 17.2191 10.1533C16.9472 10.1533 16.7269 10.3738 16.7269 10.6455V11.1465L16.2931 10.896C16.0575 10.76 15.7566 10.8407 15.6208 11.0761C15.4848 11.3114 15.5655 11.6125 15.8008 11.7484L16.2347 11.999L15.8009 12.2496C15.5655 12.3855 15.4848 12.6866 15.6208 12.9219C15.712 13.0799 15.8773 13.168 16.0474 13.168C16.131 13.168 16.2155 13.1469 16.2931 13.102L16.7269 12.8516V13.3525C16.7269 13.6243 16.9472 13.8447 17.2191 13.8447C17.491 13.8447 17.7113 13.6243 17.7113 13.3525V12.8516L18.1452 13.102C18.2227 13.1469 18.3073 13.168 18.3908 13.168C18.5609 13.168 18.7262 13.0799 18.8174 12.9219C18.9534 12.6866 18.8727 12.3855 18.6373 12.2496L18.2034 11.999L18.6373 11.7484C18.8727 11.6126 18.9535 11.3115 18.8174 11.0762Z" fill="currentColor"/>
<path d="M13.5987 11.0762C13.4628 10.8408 13.1622 10.7601 12.9264 10.8961L12.4925 11.1465V10.6455C12.4925 10.3738 12.2722 10.1533 12.0004 10.1533C11.7285 10.1533 11.5082 10.3738 11.5082 10.6455V11.1465L11.0743 10.896C10.8388 10.76 10.538 10.8407 10.402 11.0761C10.266 11.3114 10.3467 11.6125 10.5821 11.7484L11.016 11.999L10.5821 12.2496C10.3468 12.3855 10.266 12.6866 10.4021 12.9219C10.4932 13.0799 10.6586 13.168 10.8287 13.168C10.9122 13.168 10.9968 13.1469 11.0743 13.102L11.5082 12.8516V13.3525C11.5082 13.6243 11.7285 13.8447 12.0004 13.8447C12.2722 13.8447 12.4925 13.6243 12.4925 13.3525V12.8516L12.9264 13.102C13.004 13.1469 13.0885 13.168 13.172 13.168C13.3422 13.168 13.5075 13.0799 13.5987 12.9219C13.7347 12.6866 13.6539 12.3855 13.4186 12.2496L12.9847 11.999L13.4186 11.7484C13.654 11.6126 13.7347 11.3115 13.5987 11.0762Z" fill="currentColor"/>
</g>
<defs>
<clipPath id="clip0_25413_127941">
<rect width="21" height="21" fill="white" transform="translate(1.5 1.49902)"/>
</clipPath>
</defs>
</svg>
