<svg width="23" height="24" viewBox="0 0 23 24" fill="none" xmlns="http://www.w3.org/2000/svg">
<g clip-path="url(#clip0_10259_25591)">
<path fill-rule="evenodd" clip-rule="evenodd" d="M22 6.98775C22 6.18448 21.3735 5.5332 20.6 5.5332H2.4C1.6265 5.5332 1 6.18448 1 6.98775V20.0787C1 20.8819 1.6265 21.5332 2.4 21.5332H20.6C21.3735 21.5332 22 20.8819 22 20.0787V6.98775Z" fill="#FAC33D"/>
</g>
<path d="M15.4824 12.636C16.149 13.0208 16.149 13.9831 15.4824 14.368L10.2324 17.399C9.56572 17.7838 8.73242 17.3027 8.73242 16.5329L8.73242 10.471C8.73242 9.70123 9.56572 9.22011 10.2324 9.60499L15.4824 12.636Z" fill="#1D2023"/>
<path d="M19 4C19 3.60218 18.8025 3.22064 18.4508 2.93934C18.0992 2.65804 17.6223 2.5 17.125 2.5H5.875C5.37772 2.5 4.90081 2.65804 4.54917 2.93934C4.19754 3.22064 4 3.60218 4 4V4.5H19V4Z" fill="#FAC33D"/>
<defs>
<clipPath id="clip0_10259_25591">
<rect x="1" y="5.5332" width="21" height="16" rx="4" fill="white"/>
</clipPath>
</defs>
</svg>
