<svg width="27" height="27" viewBox="0 0 27 27" fill="none" xmlns="http://www.w3.org/2000/svg">
<path d="M15.5931 10.6187C15.8177 10.5262 16.0423 10.7508 15.9498 10.9755L14.7448 13.902C14.6061 14.2389 14.3385 14.5065 14.0015 14.6453L11.075 15.8503C10.8504 15.9428 10.6257 15.7182 10.7182 15.4935L11.9233 12.567C12.062 12.2301 12.3296 11.9625 12.6666 11.8237L15.5931 10.6187Z" fill="currentColor"/>
<path fill-rule="evenodd" clip-rule="evenodd" d="M16.6867 2.07858C15.8071 1.99999 14.7323 1.99999 13.3725 2H13.2955C11.9357 1.99999 10.8609 1.99999 9.98127 2.07858C9.07775 2.15932 8.32204 2.32663 7.6078 2.69303C7.42279 2.78794 7.2426 2.89197 7.0679 3.00474C6.39347 3.44008 5.87072 4.01089 5.34904 4.753C4.84118 5.47545 4.30377 6.40628 3.62388 7.5839L3.58538 7.65058C2.90548 8.8282 2.36806 9.75902 1.99633 10.5601C1.61448 11.3829 1.38152 12.121 1.34172 12.9228C1.33141 13.1305 1.33141 13.3385 1.34172 13.5462C1.38152 14.3479 1.61448 15.0861 1.99633 15.9089C2.36805 16.7099 2.90545 17.6407 3.58532 18.8183L3.62386 18.885C4.30375 20.0627 4.84118 20.9935 5.34904 21.716C5.87072 22.4581 6.39347 23.0289 7.0679 23.4642C7.2426 23.577 7.42279 23.681 7.6078 23.776C8.32203 24.1424 9.07775 24.3097 9.98127 24.3904C10.8608 24.469 11.9357 24.469 13.2954 24.469H13.3725C14.7322 24.469 15.8071 24.469 16.6867 24.3904C17.5902 24.3097 18.3459 24.1424 19.0602 23.776C19.2452 23.681 19.4254 23.577 19.6001 23.4642C20.2745 23.0289 20.7972 22.4581 21.3189 21.716C21.8268 20.9935 22.3642 20.0627 23.0441 18.8851L23.0826 18.8184C23.7625 17.6408 24.2999 16.71 24.6716 15.9089C25.0535 15.0861 25.2864 14.3479 25.3263 13.5462C25.3366 13.3385 25.3366 13.1305 25.3263 12.9228C25.2864 12.121 25.0535 11.3829 24.6716 10.5601C24.2999 9.75902 23.7625 8.82819 23.0826 7.65057L23.044 7.58384C22.3642 6.40625 21.8268 5.47544 21.3189 4.753C20.7972 4.01089 20.2745 3.44008 19.6001 3.00474C19.4254 2.89197 19.2452 2.78794 19.0602 2.69303C18.3459 2.32663 17.5902 2.15932 16.6867 2.07858ZM17.4662 11.5999C18.1137 10.0274 16.5412 8.45484 14.9687 9.10234L12.0422 10.3074C11.3009 10.6126 10.7122 11.2013 10.4069 11.9426L9.2019 14.8691C8.55439 16.4416 10.1269 18.0141 11.6994 17.3666L14.6259 16.1616C15.3672 15.8564 15.9559 15.2677 16.2612 14.5263L17.4662 11.5999Z" fill="currentColor"/>
</svg>
