
<svg width="100%" height="100%" viewBox="0 0 20 19" fill="none" xmlns="http://www.w3.org/2000/svg">
<path d="M19.1818 8.55732C19.5597 8.19691 19.6931 7.66797 19.5301 7.17626C19.3667 6.68456 18.9411 6.33356 18.4182 6.25907L13.7694 5.59808C13.5714 5.56986 13.4003 5.44835 13.3119 5.27266L11.2335 1.15093C11.0001 0.687823 10.5265 0.400024 9.99863 0.400024C9.47116 0.400024 8.99751 0.687823 8.76414 1.15093L6.68538 5.27303C6.59696 5.44872 6.42549 5.57024 6.22749 5.59845L1.57864 6.25945C1.05616 6.33356 0.630185 6.68494 0.466791 7.17664C0.303781 7.66834 0.437188 8.19729 0.815109 8.5577L4.17872 11.766C4.32212 11.9029 4.38787 12.1001 4.35403 12.2927L3.56052 16.823C3.49016 17.2217 3.59704 17.6096 3.86078 17.9155C4.27061 18.3921 4.98608 18.5373 5.55815 18.2431L9.71567 16.104C9.88944 16.0149 10.1082 16.0156 10.2816 16.104L14.4395 18.2431C14.6417 18.3474 14.8574 18.4 15.08 18.4C15.4864 18.4 15.8716 18.2232 16.1365 17.9155C16.4006 17.6096 16.5071 17.221 16.4367 16.823L15.6428 12.2927C15.609 12.0997 15.6748 11.9029 15.8182 11.766L19.1818 8.55732Z" fill="currentColor"/>
</svg>
