<svg width="60" height="64" viewBox="0 0 60 64" fill="none" xmlns="http://www.w3.org/2000/svg">
<path d="M30.0897 2.00854C13.5164 2.00854 0.017077 15.4225 0 31.9189C0 39.9707 3.09947 47.5273 8.75196 53.1968C14.4044 58.8749 21.9354 62 29.9616 62H29.9786C38.0134 62 45.5614 58.8834 51.2224 53.2224C56.8835 47.5614 60 40.0219 60 31.9872C60 15.4737 46.6031 2.02562 30.0897 2V2.00854ZM30.0128 19.2392H30.2177C35.2042 19.3588 39.1746 23.5085 39.0636 28.4949C38.9526 33.4814 34.9822 37.3835 30.0213 37.3835H29.8762C27.4342 37.3408 25.1629 36.3589 23.4809 34.6085C21.7902 32.8496 20.8852 30.5186 20.9449 28.0509C21.0559 23.1925 25.1288 19.2392 30.0213 19.2392H30.0128ZM46.9532 52.1124C46.8678 52.4283 46.0993 52.9663 45.2113 53.5981C40.703 56.7659 35.4262 58.448 29.9445 58.448C24.1639 58.448 18.6566 56.6037 14.0287 53.1114C13.098 52.4113 12.97 51.9843 13.3884 50.9512C15.7535 45.0511 21.4572 41.1319 27.9209 40.9612C28.1685 40.9612 28.4161 40.9612 28.6552 40.9612H29.8847C30.2092 40.9612 30.5336 40.9526 30.8496 40.9526C38.0219 40.9526 43.0169 43.9069 46.1164 49.9863C46.5519 50.8316 47.0386 51.7965 46.9532 52.1295V52.1124Z" fill="white" fill-opacity="0.87"/>
</svg>
