<svg width="226" height="119" viewBox="0 0 226 119" fill="none" xmlns="http://www.w3.org/2000/svg">
<path d="M80.15 108.05C79.574 108.626 78.944 109.184 78.278 109.76L77.684 107.78C79.916 105.908 81.428 104.072 82.238 102.29H78.098V100.49H80.546C80.276 99.824 79.988 99.176 79.664 98.564L81.446 98.06C81.806 98.942 82.112 99.752 82.328 100.49H84.128V102.074C83.678 103.334 82.994 104.594 82.076 105.836C82.994 106.412 83.84 107.042 84.632 107.762L83.57 109.382C83.03 108.788 82.508 108.284 82.004 107.852V114.872H80.15V108.05ZM93.11 98.78V108.986H91.202V100.58H86.864V108.986H84.992V98.78H93.11ZM92.498 114.584H90.698C89.564 114.584 89.006 113.972 89.006 112.748V110.3C88.826 110.75 88.646 111.164 88.448 111.542C87.566 113.054 86.162 114.206 84.218 115.034L83.192 113.378C85.082 112.55 86.36 111.506 87.026 110.264C87.674 108.914 88.034 107.168 88.106 105.044V101.66H89.906V105.044C89.852 106.502 89.69 107.798 89.42 108.932H90.842V112.352C90.842 112.694 90.968 112.874 91.256 112.874H92.156C92.318 112.874 92.444 112.784 92.534 112.604C92.624 112.388 92.696 111.812 92.732 110.84L94.478 111.398C94.352 112.946 94.136 113.882 93.848 114.17C93.542 114.44 93.092 114.584 92.498 114.584ZM99.248 98.258H101.084V100.166H103.208V101.93H101.084V103.406H103.442V105.242H95.702V103.406H96.566V99.752H98.366V103.406H99.248V98.258ZM102.2 106.448L103.838 106.826C103.046 110.894 100.724 113.558 96.854 114.836L95.774 113.126C97.682 112.55 99.176 111.668 100.256 110.462H99.14V105.692H100.94V109.58C101.534 108.68 101.948 107.636 102.2 106.448ZM97.016 106.502L98.636 107.15C98.24 108.842 97.7 110.156 97.034 111.074L95.648 109.868C96.26 109.004 96.728 107.888 97.016 106.502ZM103.604 98.78H112.208V100.544H108.788C108.752 101.048 108.698 101.516 108.644 101.984H111.776V110.804H109.94V103.712H105.854V110.804H104.036V101.984H106.7C106.754 101.516 106.808 101.03 106.844 100.544H103.604V98.78ZM109.454 110.66C110.624 111.632 111.614 112.604 112.442 113.558L111.038 114.962C110.372 113.99 109.418 112.964 108.194 111.866L109.454 110.66ZM106.934 104.54H108.77V107.69C108.698 109.67 108.266 111.236 107.492 112.424C106.736 113.504 105.53 114.35 103.838 114.944L102.812 113.306C104.396 112.73 105.458 112.046 106.016 111.218C106.556 110.318 106.862 109.13 106.934 107.69V104.54ZM115.52 98.366C116.708 99.302 117.716 100.238 118.544 101.174L117.194 102.506C116.51 101.606 115.52 100.634 114.224 99.59L115.52 98.366ZM125.762 114.584C124.79 114.584 123.728 114.566 122.594 114.548C121.442 114.53 120.506 114.422 119.75 114.242C119.03 114.026 118.418 113.612 117.896 113C117.662 112.694 117.446 112.55 117.23 112.55C116.888 112.55 116.276 113.342 115.376 114.962L113.99 113.684C114.89 112.244 115.682 111.326 116.402 110.93V105.998H114.026V104.27H118.148V111.128L118.328 111.308C118.724 111.776 119.138 112.136 119.552 112.37C120.074 112.64 120.848 112.784 121.892 112.82C122.918 112.838 124.124 112.856 125.492 112.856C126.392 112.856 127.292 112.838 128.228 112.838C129.146 112.802 129.848 112.766 130.334 112.73L129.884 114.584H125.762ZM119.534 100.868H121.442V98.186H123.26V100.868H125.528V98.222H127.364V100.868H129.434V102.614H127.364V105.656H130.01V107.42H127.364V112.208H125.528V107.42H122.828C122.324 109.454 121.424 110.966 120.11 111.956L118.976 110.462C119.912 109.778 120.578 108.77 120.974 107.42H118.904V105.656H121.334C121.406 105.08 121.442 104.486 121.442 103.838V102.614H119.534V100.868ZM123.26 102.614V103.406C123.26 104.198 123.206 104.954 123.134 105.656H125.528V102.614H123.26ZM135.608 108.086H146.336V109.472C145.454 110.516 144.41 111.416 143.186 112.19C144.662 112.73 146.372 113.108 148.298 113.36L147.488 115.016C145.112 114.62 143.06 114.008 141.368 113.18C139.568 114.008 137.48 114.62 135.122 115.016L134.312 113.342C136.238 113.09 137.966 112.676 139.496 112.118C138.452 111.398 137.57 110.588 136.85 109.688H135.608V108.086ZM138.902 109.688C139.568 110.318 140.342 110.876 141.242 111.344C142.178 110.858 143.024 110.3 143.78 109.688H138.902ZM134.942 104.432V105.278C134.87 109.238 134.24 112.424 133.016 114.836L131.594 113.558C132.53 111.578 133.034 108.806 133.07 105.278V99.428H139.838C139.658 99.068 139.46 98.726 139.244 98.402L141.242 98.078C141.422 98.474 141.62 98.924 141.8 99.428H147.812V101.192H134.942V102.704H137.498V101.588H139.334V102.704H143.33V101.57H145.148V102.704H147.812V104.432H145.148V107.204H137.498V104.432H134.942ZM139.334 104.432V105.656H143.33V104.432H139.334Z" fill="white"/>
<path d="M80.15 108.05C79.574 108.626 78.944 109.184 78.278 109.76L77.684 107.78C79.916 105.908 81.428 104.072 82.238 102.29H78.098V100.49H80.546C80.276 99.824 79.988 99.176 79.664 98.564L81.446 98.06C81.806 98.942 82.112 99.752 82.328 100.49H84.128V102.074C83.678 103.334 82.994 104.594 82.076 105.836C82.994 106.412 83.84 107.042 84.632 107.762L83.57 109.382C83.03 108.788 82.508 108.284 82.004 107.852V114.872H80.15V108.05ZM93.11 98.78V108.986H91.202V100.58H86.864V108.986H84.992V98.78H93.11ZM92.498 114.584H90.698C89.564 114.584 89.006 113.972 89.006 112.748V110.3C88.826 110.75 88.646 111.164 88.448 111.542C87.566 113.054 86.162 114.206 84.218 115.034L83.192 113.378C85.082 112.55 86.36 111.506 87.026 110.264C87.674 108.914 88.034 107.168 88.106 105.044V101.66H89.906V105.044C89.852 106.502 89.69 107.798 89.42 108.932H90.842V112.352C90.842 112.694 90.968 112.874 91.256 112.874H92.156C92.318 112.874 92.444 112.784 92.534 112.604C92.624 112.388 92.696 111.812 92.732 110.84L94.478 111.398C94.352 112.946 94.136 113.882 93.848 114.17C93.542 114.44 93.092 114.584 92.498 114.584ZM99.248 98.258H101.084V100.166H103.208V101.93H101.084V103.406H103.442V105.242H95.702V103.406H96.566V99.752H98.366V103.406H99.248V98.258ZM102.2 106.448L103.838 106.826C103.046 110.894 100.724 113.558 96.854 114.836L95.774 113.126C97.682 112.55 99.176 111.668 100.256 110.462H99.14V105.692H100.94V109.58C101.534 108.68 101.948 107.636 102.2 106.448ZM97.016 106.502L98.636 107.15C98.24 108.842 97.7 110.156 97.034 111.074L95.648 109.868C96.26 109.004 96.728 107.888 97.016 106.502ZM103.604 98.78H112.208V100.544H108.788C108.752 101.048 108.698 101.516 108.644 101.984H111.776V110.804H109.94V103.712H105.854V110.804H104.036V101.984H106.7C106.754 101.516 106.808 101.03 106.844 100.544H103.604V98.78ZM109.454 110.66C110.624 111.632 111.614 112.604 112.442 113.558L111.038 114.962C110.372 113.99 109.418 112.964 108.194 111.866L109.454 110.66ZM106.934 104.54H108.77V107.69C108.698 109.67 108.266 111.236 107.492 112.424C106.736 113.504 105.53 114.35 103.838 114.944L102.812 113.306C104.396 112.73 105.458 112.046 106.016 111.218C106.556 110.318 106.862 109.13 106.934 107.69V104.54ZM115.52 98.366C116.708 99.302 117.716 100.238 118.544 101.174L117.194 102.506C116.51 101.606 115.52 100.634 114.224 99.59L115.52 98.366ZM125.762 114.584C124.79 114.584 123.728 114.566 122.594 114.548C121.442 114.53 120.506 114.422 119.75 114.242C119.03 114.026 118.418 113.612 117.896 113C117.662 112.694 117.446 112.55 117.23 112.55C116.888 112.55 116.276 113.342 115.376 114.962L113.99 113.684C114.89 112.244 115.682 111.326 116.402 110.93V105.998H114.026V104.27H118.148V111.128L118.328 111.308C118.724 111.776 119.138 112.136 119.552 112.37C120.074 112.64 120.848 112.784 121.892 112.82C122.918 112.838 124.124 112.856 125.492 112.856C126.392 112.856 127.292 112.838 128.228 112.838C129.146 112.802 129.848 112.766 130.334 112.73L129.884 114.584H125.762ZM119.534 100.868H121.442V98.186H123.26V100.868H125.528V98.222H127.364V100.868H129.434V102.614H127.364V105.656H130.01V107.42H127.364V112.208H125.528V107.42H122.828C122.324 109.454 121.424 110.966 120.11 111.956L118.976 110.462C119.912 109.778 120.578 108.77 120.974 107.42H118.904V105.656H121.334C121.406 105.08 121.442 104.486 121.442 103.838V102.614H119.534V100.868ZM123.26 102.614V103.406C123.26 104.198 123.206 104.954 123.134 105.656H125.528V102.614H123.26ZM135.608 108.086H146.336V109.472C145.454 110.516 144.41 111.416 143.186 112.19C144.662 112.73 146.372 113.108 148.298 113.36L147.488 115.016C145.112 114.62 143.06 114.008 141.368 113.18C139.568 114.008 137.48 114.62 135.122 115.016L134.312 113.342C136.238 113.09 137.966 112.676 139.496 112.118C138.452 111.398 137.57 110.588 136.85 109.688H135.608V108.086ZM138.902 109.688C139.568 110.318 140.342 110.876 141.242 111.344C142.178 110.858 143.024 110.3 143.78 109.688H138.902ZM134.942 104.432V105.278C134.87 109.238 134.24 112.424 133.016 114.836L131.594 113.558C132.53 111.578 133.034 108.806 133.07 105.278V99.428H139.838C139.658 99.068 139.46 98.726 139.244 98.402L141.242 98.078C141.422 98.474 141.62 98.924 141.8 99.428H147.812V101.192H134.942V102.704H137.498V101.588H139.334V102.704H143.33V101.57H145.148V102.704H147.812V104.432H145.148V107.204H137.498V104.432H134.942ZM139.334 104.432V105.656H143.33V104.432H139.334Z" fill="#EAEAEA"/>
<path d="M147.042 39.5266L203.392 45.0958L198.472 52.5859C196.979 54.8672 200.202 57.2549 202.451 55.5409L225.074 38.2795C226.295 37.3457 226.295 35.6606 225.074 34.7268L202.451 17.4653C200.201 15.7422 196.979 18.1391 198.472 20.4112L203.382 27.9104L147.042 33.4721C143.001 33.8614 142.997 39.1357 147.042 39.5266Z" fill="url(#paint0_linear_11185_21100)"/>
<g clip-path="url(#clip0_11185_21100)">
<path d="M78.9575 33.4734L22.6081 27.9042L27.5281 20.4141C29.0212 18.1328 25.7976 15.7451 23.5494 17.4591L0.92597 34.7205C-0.295488 35.6543 -0.295488 37.3394 0.92597 38.2732L23.5494 55.5347C25.7993 57.2578 29.0212 54.8609 27.5281 52.5888L22.6184 45.0896L78.9575 39.5279C82.9994 39.1386 83.0028 33.8643 78.9575 33.4734Z" fill="url(#paint1_linear_11185_21100)"/>
</g>
<g clip-path="url(#clip1_11185_21100)">
<path d="M101.174 51.7378C101.843 51.6978 102.482 51.8404 103.041 52.1224L103.012 51.628C102.891 49.6007 104.441 47.8535 106.468 47.7324C107.224 47.6873 107.942 47.875 108.549 48.2316C108.968 46.7716 110.272 45.6607 111.873 45.5651C112.542 45.5251 113.181 45.6677 113.74 45.9498L113.272 38.1031C113.151 36.0758 114.701 34.3286 116.728 34.2075C118.756 34.0864 120.503 35.6368 120.624 37.6641L121.986 60.4744C122.001 60.7189 122.229 60.9211 122.473 60.9065C122.602 60.8988 122.708 60.8537 122.7 60.8727L125.989 55.539C127.026 53.8446 129.378 53.2578 131.09 54.303C131.942 54.8239 132.539 55.6478 132.772 56.6245C133.004 57.5956 132.845 58.5902 132.332 59.4194L123.56 74.0102C121.337 77.7842 117.151 80.2975 112.635 80.5672C105.257 81.0077 98.8952 75.3631 98.4546 67.9852L97.7171 55.6334C97.5961 53.606 99.1463 51.8588 101.174 51.7378Z" fill="white"/>
</g>
<g clip-path="url(#clip2_11185_21100)">
<path d="M88.9049 56.5586C89.5043 56.2588 90.1483 56.1385 90.7733 56.1779L90.5517 55.7349C89.6432 53.9185 90.3817 51.7024 92.1981 50.7939C92.8749 50.4554 93.6086 50.3458 94.3078 50.4346C94.1183 48.9277 94.8806 47.3935 96.315 46.6761C96.9144 46.3763 97.5584 46.256 98.1834 46.2955L94.6672 39.2651C93.7587 37.4487 94.4971 35.2326 96.3136 34.3241C98.13 33.4156 100.346 34.154 101.255 35.9705L111.476 56.4078C111.586 56.6268 111.875 56.7232 112.094 56.6136C112.209 56.5559 112.289 56.4728 112.289 56.4934L113.216 50.2958C113.503 48.3301 115.435 46.8658 117.42 47.1538C118.408 47.2978 119.281 47.8206 119.88 48.6267C120.474 49.4287 120.72 50.4054 120.574 51.3696L118.246 68.2344C117.686 72.5783 114.825 76.5354 110.779 78.5592C104.168 81.8653 96.0996 79.1768 92.7935 72.5664L87.2585 61.4996C86.35 59.6831 87.0884 57.4671 88.9049 56.5586Z" fill="white" fill-opacity="0.12"/>
</g>
<g clip-path="url(#clip3_11185_21100)">
<path d="M115.795 47.9494C116.389 48.2596 116.864 48.7111 117.198 49.2408L117.427 48.8017C118.367 47.0015 120.596 46.302 122.396 47.2421C123.067 47.5924 123.585 48.1229 123.923 48.7416C125.033 47.7054 126.723 47.4246 128.145 48.167C128.739 48.4773 129.214 48.9287 129.548 49.4584L133.187 42.4907C134.127 40.6904 136.355 39.9909 138.156 40.931C139.956 41.8712 140.655 44.0998 139.715 45.9001L129.137 66.1554C129.024 66.3725 129.115 66.6631 129.332 66.7765C129.447 66.8362 129.561 66.8522 129.544 66.8643L135.111 63.9859C136.872 63.0673 139.19 63.7753 140.119 65.5525C140.581 66.4378 140.669 67.4515 140.366 68.409C140.064 69.3606 139.417 70.1317 138.55 70.5784L123.517 78.5692C119.668 80.66 114.785 80.6588 110.775 78.5645C104.223 75.1432 101.677 67.0287 105.098 60.4772L110.826 49.509C111.766 47.7087 113.994 47.0092 115.795 47.9494Z" fill="white" fill-opacity="0.12"/>
</g>
<defs>
<linearGradient id="paint0_linear_11185_21100" x1="226" y1="37.0001" x2="120.5" y2="37.0001" gradientUnits="userSpaceOnUse">
<stop offset="0.238123" stop-color="white"/>
<stop offset="1" stop-color="white" stop-opacity="0"/>
</linearGradient>
<linearGradient id="paint1_linear_11185_21100" x1="5.56861e-05" y1="35.9999" x2="105.5" y2="35.9999" gradientUnits="userSpaceOnUse">
<stop offset="0.238123" stop-color="white"/>
<stop offset="1" stop-color="white" stop-opacity="0"/>
</linearGradient>
<clipPath id="clip0_11185_21100">
<rect width="82" height="73" fill="white" transform="translate(82 73) rotate(180)"/>
</clipPath>
<clipPath id="clip1_11185_21100">
<rect width="46.0333" height="46.0333" fill="white" transform="matrix(-0.998222 0.0596044 0.0596044 0.998222 136.951 33)"/>
</clipPath>
<clipPath id="clip2_11185_21100">
<rect width="46.0333" height="46.0333" fill="white" transform="matrix(-0.894376 0.447315 0.447315 0.894376 114.432 25.2622)"/>
</clipPath>
<clipPath id="clip3_11185_21100">
<rect width="46.0333" height="46.0333" fill="white" transform="matrix(-0.886409 -0.462903 -0.462903 0.886409 156.113 50.3086)"/>
</clipPath>
</defs>
</svg>
