<svg width="34" height="34" viewBox="0 0 34 34" fill="none" xmlns="http://www.w3.org/2000/svg">
<rect width="34" height="34" rx="17" fill="black" fill-opacity="0.6"/>
<g clip-path="url(#clip0_3111_76369)" filter="url(#filter0_d_3111_76369)">
<path d="M6.47126 20.1677C6.1377 19.053 5.99655 18.003 6.00006 16.9346C6.00498 15.5657 6.23952 14.2368 6.74934 12.9606C6.81535 12.7955 6.88416 12.6944 7.09553 12.6951C9.28296 12.7035 11.4697 12.7 13.6571 12.7014C13.7105 12.7014 13.7646 12.7168 13.886 12.7358C11.403 15.2243 8.96135 17.6714 6.47055 20.1677H6.47126Z" fill="#F7CA49"/>
<path d="M16.2391 22.2026H26.632C26.5807 22.303 26.5358 22.4063 26.4782 22.5018C25.257 24.5366 23.5724 26.0601 21.4187 27.0568C21.2993 27.1116 21.0697 27.1235 20.9952 27.0504C19.3934 25.475 17.8071 23.8841 16.2173 22.296C16.2243 22.2644 16.2313 22.2335 16.2384 22.2019L16.2391 22.2026Z" fill="#50B1F8"/>
<path d="M27.5514 13.8562C27.6806 14.5157 27.8519 15.1704 27.9306 15.8355C28.1427 17.6378 27.8646 19.3811 27.1736 21.0556C27.1293 21.1624 26.9664 21.2895 26.8583 21.2902C24.6589 21.3029 22.4589 21.2979 20.2588 21.2951C20.2391 21.2951 20.2188 21.2804 20.145 21.2509C22.5853 18.7764 25.0093 16.318 27.4334 13.8604C27.4727 13.859 27.5121 13.8576 27.5514 13.8562Z" fill="#5F82E9"/>
<path d="M21.189 13.8618C18.7685 11.3866 16.3479 8.91073 13.9175 6.4243C14.2314 6.35406 14.6176 6.25292 15.0094 6.18268C17.0361 5.82096 19.0163 5.99515 20.9496 6.71017C21.2017 6.80359 21.3049 6.92159 21.3021 7.21167C21.2866 9.29494 21.2937 11.3782 21.2937 13.4615C21.2937 13.5753 21.2937 13.6897 21.2937 13.8035C21.2585 13.8225 21.2234 13.8415 21.1883 13.8604L21.189 13.8618Z" fill="#E56157"/>
<path d="M22.199 7.3501C23.4258 7.93799 24.4103 8.78787 25.274 9.78947C26.0121 10.6457 26.6082 11.5925 27.0822 12.618C27.1461 12.757 27.2129 12.8687 27.0612 13.0176C25.4826 14.5657 23.9124 16.1214 22.3387 17.6744C22.3177 17.6955 22.2818 17.7011 22.1997 17.7376V7.3501H22.199Z" fill="#6467E8"/>
<path d="M12.8179 20.134C15.2202 22.5903 17.6225 25.0465 20.0628 27.5421C19.5438 27.6565 18.9912 27.8167 18.4266 27.8968C16.5566 28.163 14.7448 27.9101 12.9949 27.2056C12.8284 27.1382 12.6978 27.0827 12.6992 26.8446C12.7105 24.67 12.7063 22.4947 12.707 20.3195C12.707 20.2766 12.7182 20.2338 12.7238 20.1902C12.7554 20.172 12.787 20.153 12.8186 20.1347L12.8179 20.134Z" fill="#81CD45"/>
<path d="M11.7612 26.676C11.422 26.4603 11.1116 26.2791 10.8188 26.0726C9.10183 24.8638 7.73951 23.3565 6.91299 21.4011C6.83926 21.2276 6.81257 21.1033 6.97549 20.9424C8.52109 19.4126 10.0561 17.8716 11.594 16.3348C11.6348 16.2941 11.679 16.2568 11.7612 16.1824V26.676Z" fill="#A6D049"/>
<path d="M17.7208 11.7639H7.34546C7.41147 11.6276 7.4543 11.5229 7.51048 11.4267C8.7148 9.3554 10.4254 7.85511 12.6255 6.91532C12.7329 6.86967 12.9408 6.88442 13.0145 6.95887C14.5777 8.52167 16.1282 10.0971 17.6808 11.6704C17.6948 11.6845 17.6977 11.7091 17.7208 11.7639Z" fill="#EE7D35"/>
</g>
<defs>
<filter id="filter0_d_3111_76369" x="2" y="4" width="30" height="30" filterUnits="userSpaceOnUse" color-interpolation-filters="sRGB">
<feFlood flood-opacity="0" result="BackgroundImageFix"/>
<feColorMatrix in="SourceAlpha" type="matrix" values="0 0 0 0 0 0 0 0 0 0 0 0 0 0 0 0 0 0 127 0" result="hardAlpha"/>
<feOffset dy="2"/>
<feGaussianBlur stdDeviation="2"/>
<feColorMatrix type="matrix" values="0 0 0 0 0 0 0 0 0 0 0 0 0 0 0 0 0 0 0.05 0"/>
<feBlend mode="normal" in2="BackgroundImageFix" result="effect1_dropShadow_3111_76369"/>
<feBlend mode="normal" in="SourceGraphic" in2="effect1_dropShadow_3111_76369" result="shape"/>
</filter>
<clipPath id="clip0_3111_76369">
<rect width="22" height="22" fill="white" transform="translate(6 6)"/>
</clipPath>
</defs>
</svg>
