<svg width="14" height="13" viewBox="0 0 14 13" fill="none" xmlns="http://www.w3.org/2000/svg">
<g clip-path="url(#clip0_2833_54518)">
<path d="M13.2212 4.15674L13.2218 1.54278C13.2218 1.21021 12.8195 1.04345 12.5843 1.27865L11.5791 2.28416L11.3949 2.09998C10.2204 0.924916 8.65861 0.277805 6.99723 0.277805C3.56746 0.277805 0.777344 3.06909 0.777344 6.50003C0.777344 9.93096 3.56746 12.7222 6.99723 12.7222C10.2014 12.7222 12.8472 10.2859 13.1813 7.16798C13.2196 6.81145 12.9415 6.50003 12.5828 6.50003C12.2763 6.50003 12.0171 6.73025 11.9848 7.03514C11.7169 9.5514 9.58232 11.5182 6.99723 11.5182C4.23139 11.5182 1.98137 9.26736 1.98137 6.50034C1.98137 3.73332 4.24974 1.46376 7.03114 1.48212C8.36336 1.49083 9.6349 2.04212 10.577 2.98447L10.7285 3.13598L9.72295 4.14181C9.48774 4.37701 9.6545 4.77896 9.98709 4.77896H12.5996C12.943 4.77865 13.2215 4.50021 13.2218 4.15674H13.2212Z" fill="#1D2023"/>
</g>
<defs>
<clipPath id="clip0_2833_54518">
<rect width="12.4444" height="12.4444" fill="white" transform="translate(0.777344 0.277805)"/>
</clipPath>
</defs>
</svg>
