<svg width="31" height="31" viewBox="0 0 31 31" fill="none" xmlns="http://www.w3.org/2000/svg">
<path d="M24.8019 11.0453L13.8071 5.56578C6.40415 1.89458 3.37895 4.90245 7.08045 12.2539L8.71642 15.498L7.08041 18.7421C3.37891 26.0936 6.41323 29.1105 13.8071 25.4302L24.8019 19.9688C29.7281 17.5062 29.7373 13.4988 24.8019 11.0453ZM20.1773 16.2249L13.213 16.2431C12.9388 16.2431 12.7012 16.1341 12.5276 15.9614C12.3539 15.7888 12.2442 15.5525 12.2442 15.2799C12.2442 14.7529 12.6829 14.3167 13.213 14.3167L20.1773 14.2985C20.7074 14.2985 21.1461 14.7347 21.1461 15.2617C21.1461 15.7888 20.7074 16.2249 20.1773 16.2249Z" fill="#3A3A3A"/>
</svg>
