<svg width="22" height="22" viewBox="0 0 22 22" fill="none" xmlns="http://www.w3.org/2000/svg">
<path d="M13.7703 9.68252C13.7703 9.34083 13.4932 9.06377 13.1516 9.06377H6.34531C6.00362 9.06377 5.72656 9.34083 5.72656 9.68252C5.72656 10.0242 6.00362 10.3013 6.34531 10.3013H13.1516C13.4932 10.3013 13.7703 10.0242 13.7703 9.68252Z" fill="#9C9C9C" stroke="#9C9C9C" stroke-width="0.3"/>
<path d="M6.34043 12.1884C5.99874 12.1884 5.72168 12.4655 5.72168 12.8072C5.72168 13.1488 5.99874 13.4259 6.34043 13.4259H9.94912C10.2908 13.4259 10.5679 13.1488 10.5679 12.8072C10.5679 12.4655 10.2908 12.1884 9.94912 12.1884H6.34043Z" fill="#9C9C9C" stroke="#9C9C9C" stroke-width="0.3"/>
<path d="M17.8461 9.71687C17.5044 9.71687 17.2274 9.99394 17.2274 10.3356V15.3399C17.2274 16.2763 16.4656 17.0381 15.5293 17.0381H11.3905C11.2564 17.0381 11.1258 17.0814 11.0186 17.1625L7.44495 19.8499C7.3542 19.918 7.26894 19.8898 7.22632 19.8664C7.18301 19.8444 7.11151 19.7901 7.11426 19.6794L7.18301 17.6788C7.18851 17.5111 7.12595 17.3481 7.00976 17.2278C6.89357 17.1068 6.73269 17.0387 6.56494 17.0387H3.69051C2.75413 17.0387 1.99238 16.2777 1.99238 15.3406V7.15937C1.99238 6.21956 2.75413 5.45506 3.69051 5.45506H11.3149C11.6566 5.45506 11.9336 5.178 11.9336 4.83631C11.9336 4.49462 11.6566 4.21756 11.3149 4.21756H3.69051C2.07213 4.21756 0.754883 5.53756 0.754883 7.16006V15.3406C0.754883 16.959 2.07213 18.2769 3.69051 18.2769H5.9242L5.87745 19.6396C5.86095 20.1992 6.15863 20.7079 6.65569 20.9657C6.86813 21.0764 7.09707 21.1307 7.32395 21.1307C7.62851 21.1307 7.93032 21.0324 8.18745 20.8406L11.5968 18.2769H15.5286C17.1469 18.2769 18.4642 16.9597 18.4642 15.3406V10.3363C18.4649 9.99393 18.1878 9.71687 17.8461 9.71687Z" fill="#9C9C9C" stroke="#9C9C9C" stroke-width="0.3"/>
<path d="M21.191 3.82294C21.0789 3.47919 20.8032 3.22206 20.4533 3.13544L18.872 2.7415L18.0085 1.35962C17.6256 0.744998 16.626 0.746373 16.2437 1.35962L15.3802 2.7415L13.799 3.13544C13.449 3.22206 13.1727 3.47919 13.0613 3.82294C12.9499 4.16669 13.0214 4.53725 13.2538 4.81431L14.3015 6.06144L14.1874 7.68669C14.162 8.04694 14.3215 8.38862 14.6137 8.60106C14.7952 8.73306 15.0083 8.80112 15.2242 8.80112C15.3555 8.80112 15.4882 8.77569 15.6153 8.72412L17.1265 8.11362L18.6369 8.72412C18.9717 8.86025 19.3457 8.8135 19.6386 8.60175C19.9308 8.38931 20.0903 8.04762 20.0655 7.68669L19.9514 6.06144L20.9992 4.81362C21.2308 4.53725 21.303 4.16669 21.191 3.82294ZM18.8425 5.45712C18.7393 5.58019 18.6878 5.73831 18.6995 5.89919L18.8095 7.45981L17.3588 6.87337C17.2846 6.84312 17.2055 6.828 17.1272 6.828C17.0488 6.828 16.9697 6.84312 16.8955 6.87337L15.4455 7.45981L15.5548 5.89919C15.5658 5.739 15.5143 5.58019 15.4118 5.45712L14.406 4.2595L15.924 3.88069C16.0794 3.8415 16.2142 3.74456 16.2987 3.60844L17.1278 2.28225L17.957 3.60844C18.0422 3.74456 18.1763 3.84219 18.3317 3.88069L19.8497 4.2595L18.8425 5.45712Z" fill="#9C9C9C" stroke="#9C9C9C" stroke-width="0.3"/>
</svg>
