<svg width="50" height="50" viewBox="0 0 50 50" fill="none" xmlns="http://www.w3.org/2000/svg">
<path opacity="0.5" d="M7 25C7 15.1529 15.1529 7 24.9825 7C34.8121 7 43 15.1529 43 25C43 34.8471 34.8471 43 25 43C15.1529 43 7 34.8296 7 25Z" fill="black"/>
<path d="M17 25.5047C17 29.8881 20.6244 33.5047 25 33.5047C29.3756 33.5047 33 29.8881 33 25.5047C33 21.6712 30.2275 18.4186 26.5876 17.6751V16.5831C26.5876 15.9946 26.1617 15.8397 25.6815 16.1727L23.0794 17.9694C22.6844 18.2405 22.6767 18.6741 23.0794 18.9529L25.6738 20.7496C26.1539 21.0904 26.5876 20.9355 26.5876 20.3392V19.2937C29.3756 19.9829 31.4201 22.4921 31.4201 25.5047C31.4201 29.0672 28.5624 31.9326 25 31.9326C21.4376 31.9326 18.5721 29.0672 18.5721 25.5047C18.5799 23.4292 19.5634 21.6093 21.0891 20.4399C21.453 20.1301 21.5692 19.6809 21.2982 19.3014C21.0503 18.9452 20.547 18.8755 20.1365 19.2163C18.2469 20.6257 17 22.9955 17 25.5047ZM26.9051 28.8039C28.1752 28.8039 29.0503 27.6035 29.0503 25.6983C29.0503 23.7932 28.1752 22.5773 26.9051 22.5773C25.6428 22.5773 24.7754 23.7545 24.7754 25.6983C24.7754 27.6345 25.6428 28.8039 26.9051 28.8039ZM22.9322 28.7342C23.273 28.7342 23.4976 28.5096 23.4976 28.1378V23.344C23.4976 22.8949 23.2498 22.6315 22.847 22.6315C22.607 22.6315 22.4288 22.709 22.1268 22.9336L21.1123 23.6461C20.9109 23.801 20.818 23.9558 20.818 24.1727C20.818 24.4515 21.0426 24.6838 21.3136 24.6838C21.4763 24.6838 21.5692 24.6374 21.7318 24.5057L22.3824 23.9868V28.1378C22.3824 28.5018 22.5992 28.7342 22.9322 28.7342ZM26.9129 27.7584C26.2933 27.7584 25.9061 26.9994 25.9061 25.6983C25.9061 24.3895 26.2856 23.6228 26.9129 23.6228C27.5402 23.6228 27.9119 24.3818 27.9119 25.6983C27.9119 26.9994 27.5324 27.7584 26.9129 27.7584Z" fill="white"/>
</svg>
