<svg width="110" height="90" viewBox="0 -5 375 90" fill="none" xmlns="http://www.w3.org/2000/svg">
<g clip-path="url(#clip0_24616_110513)">
<path d="M65.0625 5H6.9375C5.86752 5 5 5.86752 5 6.9375V65.0625C5 66.1325 5.86752 67 6.9375 67H65.0625C66.1325 67 67 66.1325 67 65.0625V6.9375C67 5.86752 66.1325 5 65.0625 5ZM55.375 53.4375H11.2969C10.6281 53.4375 10.0859 52.8953 10.0859 52.2266V19.7129C10.0859 19.0441 10.6281 18.502 11.2969 18.502H60.7031C61.3719 18.502 61.9141 19.0441 61.9141 19.7129V52.2266C61.9141 52.8953 61.3719 53.4375 60.7031 53.4375H55.375ZM58.8867 14.6875H53.0742V8.875H58.8867V14.6875ZM45.5664 14.6875H39.7539V8.875H45.5664V14.6875ZM32.2461 14.6875H26.4336V8.875H32.2461V14.6875ZM18.9258 14.6875H13.1133V8.875H18.9258V14.6875ZM13.1133 57.3125H18.9258V63.125H13.1133V57.3125ZM26.4336 57.3125H32.2461V63.125H26.4336V57.3125ZM39.7539 57.3125H45.5664V63.125H39.7539V57.3125ZM53.0742 57.3125H58.8867V63.125H53.0742V57.3125Z" fill="#FAC33D"/>
</g>
<g clip-path="url(#clip1_24616_110513)">
<path d="M115.074 60.3895C113.734 59.0497 113.125 57.4055 113.125 55.5176V50.7676H87V13.5588H113.064V9.53955H122.991V13.5588H148.264V43.8861C148.264 45.7739 147.594 47.4182 146.254 48.7579C144.914 50.0977 143.27 50.7676 141.382 50.7676H122.991V53.2035C122.991 53.8734 123.234 54.4215 123.661 54.9086C124.087 55.3958 124.635 55.5785 125.366 55.5785H149.786L146.01 62.46H120.007C118.058 62.46 116.414 61.7901 115.135 60.4504L115.074 60.3895ZM113.064 28.418V20.7448H96.0738V28.418H113.125H113.064ZM113.064 43.6425V35.543H96.0738V43.6425H113.125H113.064ZM138.154 28.418V20.7448H123.052V28.418H138.154ZM135.901 43.6425C136.51 43.6425 137.058 43.3989 137.485 42.9726C137.911 42.5463 138.154 41.9982 138.154 41.2675V35.4822H123.052V43.5816H135.901V43.6425Z" fill="#FAC33D"/>
<path d="M158.924 31.8892H173.053V30.3058H159.959V9.53955H196.194V23.4243C196.194 24.216 196.011 25.1295 195.585 26.1038C195.219 26.9564 194.732 27.6872 194.123 28.2962C193.514 28.9052 192.723 29.3923 191.87 29.6968C191.017 30.0622 190.104 30.3058 189.251 30.3058H182.979V31.8892H197.168V37.2482H158.924V31.8892ZM161.299 53.4471H168.546L166.049 62.3382H158.863L161.299 53.4471ZM159.838 40.1713H159.899V38.4662H196.133V44.7996C196.133 45.4694 195.95 46.3829 195.524 47.4182C195.159 48.2708 194.671 49.0015 194.062 49.6105C193.332 50.2195 192.601 50.7067 191.809 51.0721C190.957 51.4375 190.043 51.6811 189.191 51.6811H182.918V54.2997C182.918 55.5176 182.735 56.6138 182.309 57.5273C181.944 58.5625 181.335 59.3542 180.543 60.0241C179.873 60.694 179.021 61.303 177.985 61.7901C176.95 62.1555 175.915 62.3991 174.819 62.3991H168.12L169.825 56.9792C170.373 56.9792 170.86 56.9792 171.408 56.8574C171.895 56.7965 172.322 56.6747 172.626 56.6138C172.87 56.2484 172.992 55.883 172.992 55.5785V51.6811H159.838V40.1104V40.1713ZM185.171 46.931C185.171 46.931 185.658 46.8092 185.902 46.5656C186.146 46.322 186.267 46.0784 186.267 45.8348V43.947H169.825V46.931H185.171ZM186.267 17.4563V15.6903H169.886V17.4563H186.267ZM185.171 24.8859C185.171 24.8859 185.658 24.7641 185.902 24.5205C186.146 24.3987 186.267 24.0942 186.267 23.7288V22.7544H169.886V24.8859H185.171ZM193.697 53.4471L196.194 62.3382H188.886L186.572 53.4471H193.758H193.697ZM212.027 9.53955H224.085L210.139 27.0782H198.325L212.088 9.53955H212.027ZM212.027 27.1391H224.085L210.139 44.7387H198.325L212.088 27.1391H212.027ZM212.027 44.7387H224.085L210.139 62.2164H198.325L212.088 44.7387H212.027Z" fill="#FAC33D"/>
<path d="M257.274 36.944H232.549V29.3926H259.588V17.213H235.046V9.66162H293.995V17.213H269.393V29.3926H296.492V36.944H269.149L265.191 40.9633H275.543L296.31 62.2167H284.008L264.642 41.5113L244.485 62.2167H232.488L257.213 36.944H257.274Z" fill="#FAC33D"/>
<path d="M305.566 15.5077H312.448C311.534 13.6808 310.925 12.4019 310.682 11.7929L310.073 10.6359H320.426C320.791 11.4275 321.278 12.341 321.887 13.4981L322.861 15.5686H332.483V9.60059H342.653V15.5686H352.397L353.371 13.4981L354.772 10.6359H365.247L364.638 11.7929C364.211 12.7673 363.602 13.9853 362.811 15.5077H363.663C365.368 15.5077 366.83 16.1167 367.987 17.2737C369.144 18.4308 369.753 19.8315 369.753 21.5366V25.3123H359.583V23.729C359.583 23.729 359.461 23.2418 359.279 23.0591C359.096 22.8155 358.852 22.7546 358.548 22.7546H315.675V25.3732H305.566V15.5077ZM305.566 56.005H332.605V52.6556H306.663V46.444H332.605V45.1042H342.714V46.444H367.926V52.6556H342.714V56.005H369.753V62.4602H305.566V56.005ZM308.185 26.9566H367.074V36.7003C367.074 38.5881 366.404 40.2323 365.064 41.5721C363.724 42.9119 362.08 43.5817 360.192 43.5817H308.185V27.0175V26.9566ZM355.32 36.8829C355.746 36.8829 356.112 36.7003 356.477 36.3958C356.782 36.0913 356.964 35.7259 356.964 35.2387V33.7771H318.294V36.822H355.32V36.8829Z" fill="#FAC33D"/>
</g>
<defs>
<clipPath id="clip0_24616_110513">
<rect x="5" y="5" width="62" height="62" rx="7.87109" fill="white"/>
</clipPath>
</defs>
</svg>
