<svg width="132" height="26" viewBox="0 0 132 26" fill="none" xmlns="http://www.w3.org/2000/svg">
<g clip-path="url(#clip0_24897_168246)">
<path d="M22.8175 2.12842H2.43338C2.05814 2.12842 1.75391 2.43265 1.75391 2.80789V23.192C1.75391 23.5672 2.05814 23.8715 2.43338 23.8715H22.8175C23.1927 23.8715 23.497 23.5672 23.497 23.192V2.80789C23.497 2.43265 23.1927 2.12842 22.8175 2.12842ZM19.4201 19.1152H3.96219C3.72765 19.1152 3.53752 18.925 3.53752 18.6905V7.28815C3.53752 7.05361 3.72765 6.86348 3.96219 6.86348H21.2887C21.5232 6.86348 21.7134 7.05361 21.7134 7.28815V18.6905C21.7134 18.925 21.5232 19.1152 21.2887 19.1152H19.4201ZM20.6517 5.52577H18.6133V3.48736H20.6517V5.52577ZM15.9803 5.52577H13.9419V3.48736H15.9803V5.52577ZM11.309 5.52577H9.27055V3.48736H11.309V5.52577ZM6.6376 5.52577H4.59919V3.48736H6.6376V5.52577ZM4.59919 20.4741H6.6376V22.5125H4.59919V20.4741ZM9.27055 20.4741H11.309V22.5125H9.27055V20.4741ZM13.9419 20.4741H15.9803V22.5125H13.9419V20.4741ZM18.6133 20.4741H20.6517V22.5125H18.6133V20.4741Z" fill="#FAC33D"/>
</g>
<g clip-path="url(#clip1_24897_168246)">
<path d="M35.7602 12.8109H54.1771V19.3436C54.1771 19.7295 54.0963 20.0927 53.9347 20.4282C53.7732 20.7636 53.5578 21.0588 53.2885 21.311C53.0193 21.5632 52.7043 21.7599 52.3462 21.9037C51.9881 22.0475 51.6111 22.1181 51.2153 22.1181H45.8572L47.0419 19.6211H49.2767C49.5271 19.6211 49.7344 19.5454 49.896 19.394C50.0575 19.2427 50.1383 19.0586 50.1383 18.8391V15.3079H30.5098L32.233 11.5245H31.0213V3.90723H53.6924V8.64912C53.6924 9.05268 53.6116 9.42598 53.4501 9.77154C53.2885 10.1171 53.0731 10.4198 52.8039 10.6796C52.5346 10.9394 52.2196 11.1462 51.8615 11.2975C51.5034 11.4489 51.1264 11.5245 50.7306 11.5245H36.3256L35.7602 12.8109ZM34.7101 22.1181H30.6444L33.7139 16.3169H37.8065L34.7101 22.1181ZM34.764 5.92505V6.8583H49.9498V5.92505H34.764ZM49.1151 9.5067C49.3494 9.5067 49.5459 9.43103 49.7075 9.27969C49.869 9.12835 49.9498 8.93414 49.9498 8.69957V8.57345H34.764V9.5067H49.1151ZM41.4414 16.3169H45.5341L42.4377 22.1181H38.3719L41.4414 16.3169Z" fill="#FAC33D"/>
<path d="M57.383 14.3745V7.89227H55.2828V5.42043H57.383V3.88184H60.7217V5.42043H62.041V7.89227H60.7217V10.8686H62.6603L60.7217 14.7024V19.7218C60.7217 20.0572 60.6598 20.37 60.5332 20.655C60.4067 20.94 60.2424 21.1897 60.0351 21.3991C59.8278 21.6084 59.5854 21.7774 59.3081 21.9036C59.0308 22.0297 58.7292 22.0927 58.4061 22.0927H55.4982L56.1175 20.3271H56.6021C56.8175 20.3271 57.0006 20.2515 57.1541 20.1001C57.3076 19.9488 57.383 19.7647 57.383 19.5452V18.5363H55.2559L57.383 14.3745ZM78.977 8.42195H75.5306V7.84182C75.5306 7.62238 75.4498 7.43826 75.2883 7.28692C75.1267 7.13558 74.9302 7.05991 74.6959 7.05991H66.5645V8.42195H63.118V5.11775H68.907L68.3685 4.00795H72.4342L72.9727 5.11775H76.3114C77.138 5.11775 77.7869 5.29431 78.2635 5.64743C78.7401 6.00055 78.977 6.56302 78.977 7.33736V8.42195ZM69.0416 19.6209V15.7113H63.8989V13.2143H77.9269V15.7113H72.7573V19.6209H78.6539V22.1179H63.1988V19.6209H69.0416ZM67.7223 12.5333H63.6565L65.7567 8.9264H69.8224L67.7223 12.5333ZM78.0885 12.5333H74.0228L71.9226 8.9264H75.9883L78.0885 12.5333Z" fill="#FAC33D"/>
<path d="M93.5964 3.88184V5.26909H102.913V15.7366C102.913 16.072 102.845 16.3848 102.711 16.6698C102.576 16.9548 102.396 17.2045 102.172 17.4139C101.949 17.6232 101.679 17.7922 101.364 17.9183C101.049 18.0445 100.724 18.1075 100.382 18.1075H93.5964V18.9399C93.5964 19.1744 93.6772 19.3687 93.8387 19.52C94.0003 19.6713 94.2076 19.747 94.458 19.747H103.451L102.051 22.1179H92.4656C92.1075 22.1179 91.7736 22.0549 91.4693 21.9288C91.1651 21.8027 90.8985 21.6311 90.675 21.4117C90.4515 21.1923 90.2712 20.94 90.1365 20.655C90.0019 20.37 89.9346 20.0673 89.9346 19.747V18.1075H80.3223V5.26909H89.9346V3.88184H93.5964ZM83.661 7.74093V10.3893H89.9346V7.74093H83.661ZM89.9346 15.6609V12.8612H83.661V15.6609H89.9346ZM93.5964 7.74093V10.3893H99.17V7.74093H93.5964ZM98.3353 15.6609C98.5695 15.6609 98.7661 15.5852 98.9276 15.4339C99.0892 15.2826 99.17 15.0883 99.17 14.8538V12.8612H93.5964V15.6609H98.3353Z" fill="#FAC33D"/>
<path d="M114.599 11.0451V11.6H119.822V13.4413H105.74V11.6H110.937V11.0451H106.117V3.88184H119.472V8.67417C119.472 8.97685 119.399 9.28709 119.257 9.60742C119.114 9.91009 118.934 10.1623 118.718 10.3641C118.484 10.5835 118.207 10.7424 117.884 10.8433C117.595 10.977 117.272 11.0451 116.914 11.0451H114.599ZM108.379 22.1179H105.74L106.629 19.0408H109.294L108.379 22.1179ZM109.779 20.2515C109.814 20.2515 109.881 20.2464 109.981 20.2388C110.081 20.2313 110.188 20.2212 110.304 20.2136C110.42 20.2061 110.525 20.1934 110.614 20.1758C110.703 20.1581 110.767 20.143 110.802 20.1253C110.891 19.9917 110.937 19.8731 110.937 19.7722V18.4354H106.09V14.4502H106.117V13.8701H119.472V16.0645C119.472 16.2158 119.451 16.3722 119.405 16.5311C119.359 16.69 119.311 16.8388 119.257 16.9725C119.184 17.1238 119.103 17.2625 119.014 17.3887C118.926 17.5148 118.826 17.6283 118.718 17.7292C118.484 17.931 118.207 18.0999 117.884 18.2336C117.595 18.3673 117.272 18.4354 116.914 18.4354H114.599V19.3434C114.599 19.7798 114.526 20.1506 114.383 20.4532C114.241 20.7887 114.025 21.0762 113.737 21.3108C113.503 21.5303 113.19 21.732 112.795 21.9162C112.437 22.0498 112.049 22.1179 111.637 22.1179H109.16L109.779 20.2515ZM109.752 16.7959H115.406C115.514 16.7959 115.603 16.753 115.676 16.6698C115.765 16.6017 115.81 16.5185 115.81 16.4176V15.7618H109.752V16.7959ZM109.779 6.6059H115.81V6.00055H109.779V6.6059ZM109.779 9.17863H115.406C115.495 9.17863 115.587 9.13575 115.676 9.05252C115.765 9.00207 115.81 8.90875 115.81 8.77507V8.44717H109.779V9.17863ZM119.472 22.1179H116.78L115.918 19.0408H118.557L119.472 22.1179ZM125.315 3.88184H129.758L124.615 9.93532H120.253L125.315 3.88184ZM125.315 9.96054H129.758L124.615 16.0392H120.253L125.315 9.96054ZM125.315 16.0392H129.758L124.615 22.0675H120.253L125.315 16.0392Z" fill="#FAC33D"/>
</g>
<defs>
<clipPath id="clip0_24897_168246">
<rect x="1.75391" y="2.12842" width="21.7431" height="21.7431" rx="2.76035" fill="white"/>
</clipPath>
<clipPath id="clip1_24897_168246">
<rect width="99.2465" height="18.2361" fill="white" transform="translate(30.5098 3.88184)"/>
</clipPath>
</defs>
</svg>
