<svg width="50" height="50" viewBox="0 0 50 50" fill="none" xmlns="http://www.w3.org/2000/svg">
<g clip-path="url(#clip0_1893_31268)">
<path opacity="0.5" d="M7 24.9983C7 15.1521 15.1521 7 24.9808 7C34.8095 7 42.9965 15.1521 42.9965 24.9983C42.9965 34.8444 34.8444 42.9965 24.9983 42.9965C15.1521 42.9965 7 34.8269 7 24.9983Z" fill="black"/>
<path d="M17 25.5561C17 29.9395 20.6244 33.5561 25 33.5561C29.3756 33.5561 33 29.9395 33 25.5561C33 23.0469 31.7531 20.6772 29.8635 19.2677C29.453 18.9269 28.9497 18.9966 28.7018 19.3529C28.4308 19.7323 28.547 20.1815 28.9109 20.4913C30.4366 21.6607 31.4201 23.4806 31.4279 25.5561C31.4279 29.1186 28.5624 31.984 25 31.984C21.4376 31.984 18.5799 29.1186 18.5799 25.5561C18.5799 22.5436 20.6244 20.0344 23.4124 19.3451V20.4448C23.4124 21.0334 23.8461 21.2038 24.3262 20.863L26.9284 19.0121C27.3156 18.741 27.3156 18.3074 26.9284 18.0286L24.334 16.1776C23.8538 15.8369 23.4124 15.9918 23.4124 16.5958V17.7265C19.7803 18.4622 17 21.7149 17 25.5561ZM26.8742 28.8553C28.1365 28.8553 29.0116 27.6549 29.0116 25.7498C29.0116 23.8446 28.1365 22.6287 26.8742 22.6287C25.6041 22.6287 24.7444 23.8059 24.7444 25.7498C24.7444 27.6859 25.6041 28.8553 26.8742 28.8553ZM22.8935 28.7856C23.242 28.7856 23.4589 28.561 23.4589 28.1893V23.3954C23.4589 22.9463 23.211 22.683 22.8083 22.683C22.5682 22.683 22.3901 22.7604 22.0881 22.985L21.0813 23.6975C20.88 23.8524 20.787 24.0073 20.787 24.2241C20.787 24.5029 21.0039 24.7352 21.2749 24.7352C21.4453 24.7352 21.5382 24.6888 21.7009 24.5571L22.3514 24.0382V28.1893C22.3514 28.5532 22.5605 28.7856 22.8935 28.7856ZM26.8819 27.8098C26.2546 27.8098 25.8751 27.0508 25.8751 25.7498C25.8751 24.4409 26.2546 23.6742 26.8819 23.6742C27.5092 23.6742 27.8809 24.4332 27.8809 25.7498C27.8809 27.0508 27.5015 27.8098 26.8819 27.8098Z" fill="white"/>
</g>
<defs>
<clipPath id="clip0_1893_31268">
<rect width="36" height="35.9965" fill="white" transform="translate(7 7)"/>
</clipPath>
</defs>
</svg>
