<svg width="30" height="31" viewBox="0 0 30 31" fill="none" xmlns="http://www.w3.org/2000/svg">
<path fill-rule="evenodd" clip-rule="evenodd" d="M18.4097 10.2937C21.0651 12.9491 21.0651 17.2543 18.4097 19.9097C15.7543 22.5651 11.4491 22.5651 8.7937 19.9097C6.13832 17.2543 6.13832 12.9491 8.7937 10.2937C11.4491 7.63832 15.7543 7.63832 18.4097 10.2937ZM20.5925 20.1157C23.0095 16.7544 22.7066 12.042 19.684 9.01938C16.3248 5.66021 10.8785 5.66021 7.51938 9.01938C4.16021 12.3785 4.16021 17.8248 7.51938 21.184C10.6308 24.2955 15.533 24.5249 18.9085 21.8723L21.9234 24.8872C22.3984 25.3622 23.1687 25.3622 23.6437 24.8872C24.1188 24.4121 24.1188 23.6419 23.6437 23.1668L20.5925 20.1157Z" fill="currentColor"/>
</svg>
