<svg width="28" height="28" viewBox="0 0 28 28" fill="none" xmlns="http://www.w3.org/2000/svg">
<path fill-rule="evenodd" clip-rule="evenodd" d="M12.8333 5.83333C8.96734 5.83333 5.83333 8.96734 5.83333 12.8333C5.83333 16.6993 8.96734 19.8333 12.8333 19.8333C16.6993 19.8333 19.8333 16.6993 19.8333 12.8333C19.8333 8.96734 16.6993 5.83333 12.8333 5.83333ZM3.5 12.8333C3.5 7.67868 7.67868 3.5 12.8333 3.5C17.988 3.5 22.1667 7.67868 22.1667 12.8333C22.1667 17.988 17.988 22.1667 12.8333 22.1667C7.67868 22.1667 3.5 17.988 3.5 12.8333Z" fill="white"/>
<path fill-rule="evenodd" clip-rule="evenodd" d="M19.0082 19.0085C19.4638 18.5528 20.2025 18.5528 20.6581 19.0085L24.1581 22.5085C24.6137 22.9641 24.6137 23.7028 24.1581 24.1584C23.7025 24.614 22.9638 24.614 22.5082 24.1584L19.0082 20.6584C18.5526 20.2028 18.5526 19.4641 19.0082 19.0085Z" fill="white"/>
</svg>
