<svg width="512" height="512" viewBox="0 0 512 512" fill="none" xmlns="http://www.w3.org/2000/svg">
<g clip-path="url(#clip0_24616_110504)">
<rect width="512" height="512" rx="65" fill="url(#paint0_linear_24616_110504)"/>
<g clip-path="url(#clip1_24616_110504)">
<path d="M172.264 237.616C169.546 234.829 168.187 231.498 168.187 227.623V217.835H114.5V141.293H168.187V133H188.642V141.293H240.697V203.695C240.697 207.638 239.338 210.969 236.552 213.688C233.766 216.407 230.436 217.835 226.562 217.835H188.642V222.797C188.642 224.224 189.118 225.38 190.001 226.264C190.884 227.147 192.04 227.623 193.467 227.623H243.688L235.872 241.762H182.322C178.312 241.762 174.982 240.403 172.264 237.616ZM168.187 171.815V156.044H133.12V171.815H168.187ZM168.187 203.288V186.565H133.12V203.288H168.187ZM219.766 171.815V156.044H188.642V171.815H219.766ZM215.145 203.288C216.436 203.288 217.524 202.812 218.475 201.928C219.427 201.044 219.834 199.889 219.834 198.461V186.565H188.71V203.288H215.213H215.145Z" fill="#FAC33D"/>
<path d="M262.84 179.02H291.858V175.689H264.947V133H339.564V161.618C339.564 163.249 339.156 165.085 338.341 167.192C337.661 168.892 336.642 170.387 335.351 171.679C334.059 172.97 332.496 173.922 330.662 174.534C328.827 175.349 327.06 175.757 325.225 175.757H312.313V179.088H341.467V190.1H262.84V179.088V179.02ZM267.801 223.409H282.683L277.587 241.762H262.84L267.801 223.409ZM264.743 196.014H264.879V192.547H339.496V205.667C339.496 207.094 339.088 208.862 338.273 211.105C337.593 212.804 336.574 214.3 335.283 215.591C333.788 216.883 332.225 217.903 330.594 218.582C328.759 219.398 326.992 219.806 325.157 219.806H312.245V225.244C312.245 227.759 311.837 229.934 311.022 231.838C310.206 233.945 308.983 235.644 307.42 236.936C305.993 238.363 304.294 239.519 302.187 240.539C300.081 241.354 297.906 241.762 295.731 241.762H281.868L285.334 230.614C286.421 230.614 287.508 230.546 288.596 230.41C289.615 230.274 290.499 230.07 291.042 229.866C291.518 229.051 291.79 228.371 291.79 227.759V219.806H264.743V196.014ZM316.798 210.017C317.274 210.017 317.818 209.745 318.293 209.27C318.769 208.794 319.041 208.25 319.041 207.774V203.831H285.198V210.017H316.798ZM319.041 149.246V145.644H285.334V149.246H319.041ZM316.798 164.609C317.274 164.609 317.818 164.337 318.293 163.861C318.769 163.589 319.041 162.978 319.041 162.23V160.259H285.334V164.609H316.73H316.798ZM334.399 223.409L339.496 241.762H324.477L319.652 223.409H334.399ZM372.184 133H396.988L368.242 169.095H343.913L372.184 133ZM372.184 169.231H396.988L368.242 205.463H343.913L372.184 169.231ZM372.184 205.531H396.988L368.242 241.49H343.913L372.184 205.531Z" fill="#FAC33D"/>
<path d="M165.332 326.734H114.5V311.236H170.157V286.085H119.597V270.586H240.969V286.085H190.273V311.236H246.066V326.734H189.797L181.71 335.028H203.049L245.794 378.804H220.514L180.691 336.251L139.169 378.804H114.5L165.332 326.734Z" fill="#FAC33D"/>
<path d="M264.961 282.684H279.096C277.193 278.877 275.97 276.294 275.494 275.002L274.271 272.623H295.61C296.425 274.255 297.445 276.158 298.6 278.469L300.571 282.684H320.414V270.38H341.345V282.684H361.325L363.296 278.469L366.15 272.623H387.624L386.401 275.002C385.518 277.042 384.227 279.557 382.664 282.684H384.498C388.032 282.684 390.954 283.907 393.401 286.286C395.847 288.666 397.003 291.589 397.003 294.987V302.805H376.072V299.474C376.072 298.998 375.868 298.522 375.46 298.046C375.052 297.57 374.577 297.367 373.965 297.367H285.688V302.805H264.961V282.616V282.684ZM264.961 366.023H320.618V359.089H267.204V346.31H320.618V343.59H341.345V346.31H393.197V359.089H341.345V366.023H397.003V379.278H264.961V366.023ZM270.33 306.135H391.566V326.121C391.566 330.063 390.207 333.394 387.421 336.113C384.634 338.9 381.304 340.26 377.431 340.26H270.33V306.135ZM367.373 326.596C368.257 326.596 369.072 326.256 369.684 325.645C370.363 324.965 370.635 324.217 370.635 323.333V320.343H291.057V326.664H367.305L367.373 326.596Z" fill="#FAC33D"/>
</g>
<path d="M496 0H16C7.16406 0 0 7.16406 0 16V496C0 504.836 7.16406 512 16 512H496C504.836 512 512 504.836 512 496V16C512 7.16406 504.836 0 496 0ZM416 400H52C46.4772 400 42 395.523 42 390V121.5C42 115.977 46.4772 111.5 52 111.5H460C465.523 111.5 470 115.977 470 121.5V390C470 395.523 465.523 400 460 400H416ZM445 80H397V32H445V80ZM335 80H287V32H335V80ZM225 80H177V32H225V80ZM115 80H67V32H115V80ZM67 432H115V480H67V432ZM177 432H225V480H177V432ZM287 432H335V480H287V432ZM397 432H445V480H397V432Z" fill="#FAC33D"/>
</g>
<defs>
<linearGradient id="paint0_linear_24616_110504" x1="256" y1="0" x2="256" y2="512" gradientUnits="userSpaceOnUse">
<stop stop-color="#17181A"/>
<stop offset="1"/>
</linearGradient>
<clipPath id="clip0_24616_110504">
<rect width="512" height="512" rx="65" fill="white"/>
</clipPath>
<clipPath id="clip1_24616_110504">
<rect width="282.5" height="246.21" fill="white" transform="translate(114.5 133)"/>
</clipPath>
</defs>
</svg>
