<svg width="512" height="512" viewBox="0 0 512 512" fill="none" xmlns="http://www.w3.org/2000/svg">
<g clip-path="url(#clip0_24897_97657)">
<rect width="512" height="512" rx="65" fill="url(#paint0_linear_24897_97657)"/>
<path d="M144.327 187.001H250.705V224.734C250.705 226.963 250.238 229.061 249.305 230.999C248.372 232.936 247.128 234.641 245.572 236.098C244.017 237.555 242.197 238.691 240.129 239.522C238.061 240.352 235.883 240.76 233.597 240.76H202.648L209.491 226.337H222.399C223.846 226.337 225.043 225.9 225.976 225.026C226.91 224.151 227.376 223.088 227.376 221.82V201.424H114L123.953 179.57H116.955V135.572H247.905V162.962C247.905 165.293 247.439 167.449 246.505 169.445C245.572 171.441 244.328 173.189 242.773 174.69C241.218 176.19 239.398 177.385 237.33 178.259C235.261 179.133 233.084 179.57 230.798 179.57H147.593L144.327 187.001ZM138.262 240.76H114.778L132.507 207.251H156.147L138.262 240.76ZM138.573 147.227V152.618H226.287V147.227H138.573ZM221.466 167.915C222.819 167.915 223.955 167.478 224.888 166.604C225.821 165.73 226.287 164.608 226.287 163.253V162.525H138.573V167.915H221.466ZM177.142 207.251H200.782L182.897 240.76H159.413L177.142 207.251Z" fill="#FAC33D"/>
<path d="M273.271 196.107V158.665H261.14V144.387H273.271V135.5H292.555V144.387H300.176V158.665H292.555V175.856H303.753L292.555 198.001V226.993C292.555 228.931 292.198 230.737 291.467 232.383C290.736 234.03 289.787 235.472 288.59 236.681C287.392 237.891 285.992 238.867 284.391 239.595C282.789 240.324 281.047 240.688 279.181 240.688H262.384L265.961 230.489H268.761C270.005 230.489 271.062 230.052 271.949 229.178C272.835 228.304 273.271 227.241 273.271 225.973V220.146H260.984L273.271 196.107ZM398 161.724H378.093V158.373C378.093 157.106 377.626 156.042 376.693 155.168C375.76 154.294 374.625 153.857 373.272 153.857H326.304V161.724H306.397V142.639H339.834L336.724 136.228H360.208L363.318 142.639H382.603C387.378 142.639 391.126 143.659 393.879 145.698C396.631 147.738 398 150.987 398 155.459V161.724ZM340.612 226.41V203.828H310.907V189.405H391.935V203.828H362.074V226.41H396.134V240.833H306.864V226.41H340.612ZM332.991 185.471H309.507L321.638 164.638H345.122L332.991 185.471ZM392.868 185.471H369.384L357.253 164.638H380.737L392.868 185.471Z" fill="#FAC33D"/>
<path d="M190.673 271.666V279.679H244.484V340.14C244.484 342.078 244.095 343.884 243.317 345.531C242.54 347.177 241.498 348.619 240.207 349.828C238.916 351.038 237.361 352.014 235.541 352.742C233.721 353.471 231.84 353.835 229.864 353.835H190.673V358.643C190.673 359.997 191.139 361.119 192.072 361.993C193.006 362.868 194.203 363.305 195.649 363.305H247.594L239.507 376.999H184.141C182.072 376.999 180.144 376.635 178.386 375.907C176.629 375.178 175.089 374.188 173.798 372.92C172.508 371.653 171.466 370.196 170.688 368.549C169.91 366.903 169.522 365.155 169.522 363.305V353.835H114V279.679H169.522V271.666H190.673ZM133.285 293.956V309.254H169.522V293.956H133.285ZM169.522 339.703V323.531H133.285V339.703H169.522ZM190.673 293.956V309.254H222.866V293.956H190.673ZM218.045 339.703C219.398 339.703 220.533 339.266 221.466 338.392C222.399 337.518 222.866 336.396 222.866 335.041V323.531H190.673V339.703H218.045Z" fill="#FAC33D"/>
<path d="M310.44 313.042V316.247H340.612V326.882H259.273V316.247H289.289V313.042H261.451V271.666H338.59V299.347C338.59 301.095 338.17 302.887 337.346 304.738C336.522 306.486 335.48 307.943 334.235 309.108C332.882 310.376 331.28 311.294 329.414 311.876C327.75 312.648 325.884 313.042 323.815 313.042H310.44ZM274.515 376.999H259.273L264.406 359.225H279.802L274.515 376.999ZM282.602 366.218C282.804 366.218 283.193 366.189 283.768 366.146C284.344 366.102 284.966 366.044 285.635 366C286.303 365.956 286.91 365.883 287.423 365.781C287.936 365.679 288.31 365.592 288.512 365.49C289.025 364.718 289.289 364.033 289.289 363.45V355.729H261.295V332.71H261.451V329.359H338.59V342.034C338.59 342.908 338.466 343.811 338.201 344.729C337.937 345.647 337.657 346.507 337.346 347.279C336.926 348.153 336.459 348.954 335.946 349.683C335.433 350.411 334.858 351.067 334.235 351.649C332.882 352.815 331.28 353.791 329.414 354.563C327.75 355.335 325.884 355.729 323.815 355.729H310.44V360.974C310.44 363.494 310.021 365.636 309.196 367.384C308.372 369.322 307.128 370.982 305.464 372.337C304.111 373.605 302.307 374.77 300.02 375.834C297.952 376.606 295.712 376.999 293.333 376.999H279.025L282.602 366.218ZM282.446 346.259H315.106C315.728 346.259 316.241 346.011 316.661 345.531C317.175 345.137 317.439 344.656 317.439 344.074V340.286H282.446V346.259ZM282.602 287.4H317.439V283.904H282.602V287.4ZM282.602 302.261H315.106C315.619 302.261 316.148 302.013 316.661 301.532C317.175 301.241 317.439 300.702 317.439 299.93V298.036H282.602V302.261ZM338.59 376.999H323.038L318.061 359.225H333.302L338.59 376.999ZM372.339 271.666H398L368.295 306.631H343.1L372.339 271.666ZM372.339 306.777H398L368.295 341.888H343.1L372.339 306.777ZM372.339 341.888H398L368.295 376.708H343.1L372.339 341.888Z" fill="#FAC33D"/>
<path d="M496 0H16C7.16406 0 0 7.16406 0 16V496C0 504.836 7.16406 512 16 512H496C504.836 512 512 504.836 512 496V16C512 7.16406 504.836 0 496 0ZM416 400H52C46.4772 400 42 395.523 42 390V121.5C42 115.977 46.4772 111.5 52 111.5H460C465.523 111.5 470 115.977 470 121.5V390C470 395.523 465.523 400 460 400H416ZM445 80H397V32H445V80ZM335 80H287V32H335V80ZM225 80H177V32H225V80ZM115 80H67V32H115V80ZM67 432H115V480H67V432ZM177 432H225V480H177V432ZM287 432H335V480H287V432ZM397 432H445V480H397V432Z" fill="#FAC33D"/>
</g>
<defs>
<linearGradient id="paint0_linear_24897_97657" x1="256" y1="0" x2="256" y2="512" gradientUnits="userSpaceOnUse">
<stop stop-color="#17181A"/>
<stop offset="1"/>
</linearGradient>
<clipPath id="clip0_24897_97657">
<rect width="512" height="512" rx="65" fill="white"/>
</clipPath>
</defs>
</svg>
