<svg width="26" height="26" viewBox="0 0 26 26" fill="none" xmlns="http://www.w3.org/2000/svg">
    <path
        d="M3.9698 16.2408C3.08862 14.6567 2.64803 13.8647 2.64803 12.9999C2.64803 12.1352 3.08862 11.3431 3.9698 9.75908L4.80051 8.26575L5.67842 6.79967C6.60967 5.24451 7.07529 4.46693 7.82418 4.03456C8.57306 3.60219 9.47928 3.58774 11.2917 3.55883L13.0003 3.53158L14.7089 3.55883C16.5214 3.58774 17.4276 3.60219 18.1765 4.03456C18.9254 4.46693 19.391 5.24451 20.3222 6.79967L21.2001 8.26575L22.0309 9.75908C22.912 11.3431 23.3526 12.1352 23.3526 12.9999C23.3526 13.8647 22.912 14.6567 22.0309 16.2408L21.2001 17.7341L20.3222 19.2002C19.391 20.7553 18.9254 21.5329 18.1765 21.9653C17.4276 22.3976 16.5214 22.4121 14.7089 22.441L13.0003 22.4683L11.2917 22.441C9.47928 22.4121 8.57306 22.3976 7.82418 21.9653C7.07529 21.5329 6.60967 20.7553 5.67842 19.2002L4.80051 17.7341L3.9698 16.2408Z"
        stroke="#848484" stroke-width="1.5" />
    <ellipse cx="13" cy="13" rx="3.25" ry="3.25" stroke="#848484" stroke-width="1.5" />
</svg>