<svg width="100%" height="100%" viewBox="0 0 24 24" fill="none" xmlns="http://www.w3.org/2000/svg">
<g clip-path="url(#clip0_2505_42729)">
<path d="M20.78 9.45L19.92 9.3C19.86 9.13 19.79 8.96 19.71 8.79L20.22 8.08C20.77 7.3 20.69 6.25 20.01 5.57L18.83 4.4C18.18 3.74 17.07 3.65 16.33 4.19L15.62 4.7C15.44 4.62 15.25 4.54 15.06 4.47L14.92 3.63C14.76 2.68 13.95 2 12.99 2H11.34C10.38 2 9.57 2.68 9.41 3.63L9.26 4.51C9.09 4.57 8.92 4.64 8.76 4.72L8.06 4.22C7.31 3.68 6.2 3.77 5.54 4.43L4.37 5.6C3.69 6.27 3.61 7.33 4.16 8.11L4.68 8.83C4.6 9 4.53 9.17 4.47 9.35L3.63 9.49C2.68 9.65 2 10.45 2 11.41V13.07C2 14.02 2.68 14.83 3.63 14.99L4.51 15.14C4.57 15.31 4.64 15.48 4.72 15.65L4.22 16.34C3.66 17.13 3.75 18.18 4.43 18.85L5.6 20.03C6.26 20.69 7.36 20.77 8.11 20.24L8.83 19.72C8.99 19.79 9.14 19.85 9.3 19.91L9.44 20.77C9.6 21.72 10.41 22.4 11.37 22.4H13.03C13.98 22.4 14.79 21.72 14.95 20.77L15.1 19.91C15.27 19.85 15.44 19.78 15.61 19.7L16.31 20.21C17.06 20.75 18.16 20.66 18.83 20L20 18.83C20.67 18.15 20.76 17.09 20.21 16.32L19.7 15.6C19.78 15.44 19.85 15.27 19.91 15.09L20.77 14.95C21.72 14.79 22.4 13.98 22.4 13.03V11.38C22.41 10.42 21.73 9.61 20.78 9.45ZM20.83 13.03C20.83 13.21 20.7 13.37 20.51 13.4L19.22 13.62C18.91 13.67 18.66 13.89 18.56 14.19C18.45 14.56 18.3 14.92 18.11 15.29C17.96 15.57 17.98 15.9 18.17 16.16L18.93 17.23C19.04 17.38 19.02 17.58 18.89 17.71L17.71 18.89C17.58 19.02 17.37 19.03 17.23 18.93L16.16 18.17C15.91 17.98 15.57 17.96 15.29 18.11C14.94 18.29 14.57 18.44 14.19 18.56C13.89 18.66 13.67 18.91 13.62 19.22L13.4 20.51C13.37 20.7 13.21 20.83 13.03 20.83H11.37C11.18 20.83 11.03 20.7 10.99 20.51L10.78 19.22C10.73 18.91 10.51 18.66 10.21 18.56C9.83 18.44 9.47 18.3 9.14 18.13C9.03 18.06 8.89 18.03 8.76 18.03C8.59 18.03 8.42 18.08 8.28 18.19L7.19 18.96C7.05 19.06 6.84 19.05 6.71 18.91L5.54 17.74C5.41 17.61 5.39 17.41 5.5 17.26L6.25 16.21C6.44 15.95 6.46 15.61 6.31 15.33C6.13 14.98 5.97 14.61 5.85 14.23C5.76 13.94 5.51 13.72 5.2 13.66L3.89 13.44C3.7 13.41 3.57 13.25 3.57 13.07V11.41C3.57 11.23 3.7 11.07 3.89 11.04L5.16 10.82C5.48 10.77 5.73 10.55 5.82 10.24C5.94 9.86 6.09 9.49 6.27 9.14C6.42 8.87 6.39 8.53 6.21 8.28L5.44 7.2C5.33 7.04 5.35 6.84 5.48 6.71L6.66 5.53C6.78 5.41 7 5.39 7.14 5.49L8.2 6.25C8.46 6.44 8.8 6.46 9.08 6.31C9.43 6.13 9.79 5.97 10.17 5.85C10.47 5.76 10.69 5.51 10.74 5.2L10.96 3.89C10.99 3.7 11.15 3.57 11.34 3.57H12.99C13.18 3.57 13.34 3.7 13.37 3.89L13.58 5.16C13.63 5.48 13.86 5.73 14.16 5.82C14.55 5.94 14.93 6.1 15.3 6.29C15.58 6.44 15.91 6.42 16.17 6.23L17.24 5.47C17.39 5.36 17.59 5.38 17.72 5.51L18.9 6.69C19.03 6.82 19.04 7.02 18.94 7.17L18.18 8.24C17.99 8.49 17.97 8.83 18.12 9.11C18.3 9.45 18.45 9.82 18.57 10.21C18.66 10.51 18.92 10.73 19.23 10.78L20.52 11C20.7 11.03 20.83 11.18 20.83 11.36V13.03Z" fill="#9C9C9C"/>
<path d="M12.2 8C9.88 8 8 9.88 8 12.2C8 14.52 9.88 16.4 12.2 16.4C14.52 16.4 16.4 14.52 16.4 12.2C16.4 9.88 14.52 8 12.2 8ZM12.2 14.79C10.77 14.79 9.61 13.63 9.61 12.2C9.61 10.77 10.77 9.61 12.2 9.61C13.63 9.61 14.79 10.77 14.79 12.2C14.79 13.63 13.63 14.79 12.2 14.79Z" fill="#9C9C9C"/>
</g>
<defs>
<clipPath id="clip0_2505_42729">
<rect width="20.4" height="20.4" fill="white" transform="translate(2 2)"/>
</clipPath>
</defs>
</svg>
