<svg width="100%" height="100%" viewBox="0 0 21 21" fill="none" xmlns="http://www.w3.org/2000/svg">
<g clip-path="url(#clip0_7042_2544)">
<path d="M18.78 7.45L17.92 7.3C17.86 7.13 17.79 6.96 17.71 6.79L18.22 6.08C18.77 5.3 18.69 4.25 18.01 3.57L16.83 2.4C16.18 1.74 15.07 1.65 14.33 2.19L13.62 2.7C13.44 2.62 13.25 2.54 13.06 2.47L12.92 1.63C12.76 0.68 11.95 0 10.99 0H9.34C8.38 0 7.57 0.68 7.41 1.63L7.26 2.51C7.09 2.57 6.92 2.64 6.76 2.72L6.06 2.22C5.31 1.68 4.2 1.77 3.54 2.43L2.37 3.6C1.69 4.27 1.61 5.33 2.16 6.11L2.68 6.83C2.6 7 2.53 7.17 2.47 7.35L1.63 7.49C0.68 7.65 0 8.45 0 9.41V11.07C0 12.02 0.68 12.83 1.63 12.99L2.51 13.14C2.57 13.31 2.64 13.48 2.72 13.65L2.22 14.34C1.66 15.13 1.75 16.18 2.43 16.85L3.6 18.03C4.26 18.69 5.36 18.77 6.11 18.24L6.83 17.72C6.99 17.79 7.14 17.85 7.3 17.91L7.44 18.77C7.6 19.72 8.41 20.4 9.37 20.4H11.03C11.98 20.4 12.79 19.72 12.95 18.77L13.1 17.91C13.27 17.85 13.44 17.78 13.61 17.7L14.31 18.21C15.06 18.75 16.16 18.66 16.83 18L18 16.83C18.67 16.15 18.76 15.09 18.21 14.32L17.7 13.6C17.78 13.44 17.85 13.27 17.91 13.09L18.77 12.95C19.72 12.79 20.4 11.98 20.4 11.03V9.38C20.41 8.42 19.73 7.61 18.78 7.45ZM18.83 11.03C18.83 11.21 18.7 11.37 18.51 11.4L17.22 11.62C16.91 11.67 16.66 11.89 16.56 12.19C16.45 12.56 16.3 12.92 16.11 13.29C15.96 13.57 15.98 13.9 16.17 14.16L16.93 15.23C17.04 15.38 17.02 15.58 16.89 15.71L15.71 16.89C15.58 17.02 15.37 17.03 15.23 16.93L14.16 16.17C13.91 15.98 13.57 15.96 13.29 16.11C12.94 16.29 12.57 16.44 12.19 16.56C11.89 16.66 11.67 16.91 11.62 17.22L11.4 18.51C11.37 18.7 11.21 18.83 11.03 18.83H9.37C9.18 18.83 9.03 18.7 8.99 18.51L8.78 17.22C8.73 16.91 8.51 16.66 8.21 16.56C7.83 16.44 7.47 16.3 7.14 16.13C7.03 16.06 6.89 16.03 6.76 16.03C6.59 16.03 6.42 16.08 6.28 16.19L5.19 16.96C5.05 17.06 4.84 17.05 4.71 16.91L3.54 15.74C3.41 15.61 3.39 15.41 3.5 15.26L4.25 14.21C4.44 13.95 4.46 13.61 4.31 13.33C4.13 12.98 3.97 12.61 3.85 12.23C3.76 11.94 3.51 11.72 3.2 11.66L1.89 11.44C1.7 11.41 1.57 11.25 1.57 11.07V9.41C1.57 9.23 1.7 9.07 1.89 9.04L3.16 8.82C3.48 8.77 3.73 8.55 3.82 8.24C3.94 7.86 4.09 7.49 4.27 7.14C4.42 6.87 4.39 6.53 4.21 6.28L3.44 5.2C3.33 5.04 3.35 4.84 3.48 4.71L4.66 3.53C4.78 3.41 5 3.39 5.14 3.49L6.2 4.25C6.46 4.44 6.8 4.46 7.08 4.31C7.43 4.13 7.79 3.97 8.17 3.85C8.47 3.76 8.69 3.51 8.74 3.2L8.96 1.89C8.99 1.7 9.15 1.57 9.34 1.57H10.99C11.18 1.57 11.34 1.7 11.37 1.89L11.58 3.16C11.63 3.48 11.86 3.73 12.16 3.82C12.55 3.94 12.93 4.1 13.3 4.29C13.58 4.44 13.91 4.42 14.17 4.23L15.24 3.47C15.39 3.36 15.59 3.38 15.72 3.51L16.9 4.69C17.03 4.82 17.04 5.02 16.94 5.17L16.18 6.24C15.99 6.49 15.97 6.83 16.12 7.11C16.3 7.45 16.45 7.82 16.57 8.21C16.66 8.51 16.92 8.73 17.23 8.78L18.52 9C18.7 9.03 18.83 9.18 18.83 9.36V11.03Z" fill="currentColor"/>
<path d="M10.2 6C7.88 6 6 7.88 6 10.2C6 12.52 7.88 14.4 10.2 14.4C12.52 14.4 14.4 12.52 14.4 10.2C14.4 7.88 12.52 6 10.2 6ZM10.2 12.79C8.77 12.79 7.61 11.63 7.61 10.2C7.61 8.77 8.77 7.61 10.2 7.61C11.63 7.61 12.79 8.77 12.79 10.2C12.79 11.63 11.63 12.79 10.2 12.79Z" fill="currentColor"/>
</g>
<defs>
<clipPath id="clip0_7042_2544">
<rect width="20.4" height="20.4" fill="white"/>
</clipPath>
</defs>
</svg>
