<svg width="100%" height="100%" viewBox="0 0 18 20" fill="none" xmlns="http://www.w3.org/2000/svg">
<path d="M14.4045 12.7274C13.839 12.7288 13.2819 12.8654 12.7786 13.126C12.2752 13.3867 11.84 13.7641 11.5084 14.2274L7.0006 11.1884C7.28467 10.4223 7.28467 9.57812 7.0006 8.81207L11.5084 5.77305C12.0144 6.46679 12.7484 6.95532 13.5785 7.15086C14.4087 7.34641 15.2806 7.23615 16.0375 6.8399C16.7945 6.44365 17.387 5.78738 17.7085 4.989C18.0299 4.19062 18.0594 3.30246 17.7915 2.4841C17.5236 1.66573 16.9759 0.970805 16.2469 0.524166C15.5179 0.0775265 14.6552 -0.0915469 13.814 0.0473223C12.9728 0.186191 12.2081 0.6239 11.6573 1.28181C11.1065 1.93972 10.8058 2.7747 10.8091 3.63674C10.8149 3.7692 10.8281 3.90122 10.8486 4.03218L6.00286 7.29938C5.48645 6.82857 4.84614 6.51928 4.15948 6.40897C3.47282 6.29866 2.76926 6.39207 2.13402 6.67789C1.49878 6.9637 0.959098 7.42965 0.580342 8.01932C0.201585 8.60898 0 9.29706 0 10.0002C0 10.7034 0.201585 11.3915 0.580342 11.9811C0.959098 12.5708 1.49878 13.0368 2.13402 13.3226C2.76926 13.6084 3.47282 13.7018 4.15948 13.5915C4.84614 13.4812 5.48645 13.1719 6.00286 12.7011L10.8486 15.9683C10.8281 16.0992 10.8149 16.2313 10.8091 16.3637C10.8091 17.0829 11.02 17.7859 11.415 18.3839C11.8101 18.9819 12.3716 19.448 13.0286 19.7232C13.6856 19.9984 14.4085 20.0704 15.106 19.9301C15.8034 19.7898 16.4441 19.4435 16.9469 18.935C17.4497 18.4264 17.7922 17.7785 17.9309 17.0731C18.0696 16.3678 17.9984 15.6366 17.7263 14.9722C17.4542 14.3077 16.9933 13.7398 16.4021 13.3403C15.8108 12.9407 15.1157 12.7274 14.4045 12.7274ZM14.4045 1.8186C14.7601 1.8186 15.1077 1.92523 15.4033 2.12501C15.6989 2.32479 15.9294 2.60874 16.0654 2.94097C16.2015 3.27319 16.2371 3.63876 16.1677 3.99144C16.0984 4.34412 15.9271 4.66809 15.6757 4.92236C15.4243 5.17663 15.104 5.34979 14.7553 5.41994C14.4065 5.4901 14.0451 5.45409 13.7166 5.31648C13.3881 5.17887 13.1073 4.94583 12.9098 4.64684C12.7122 4.34785 12.6068 3.99633 12.6068 3.63674C12.6068 3.15454 12.7962 2.69209 13.1334 2.35112C13.4705 2.01015 13.9278 1.8186 14.4045 1.8186ZM3.61817 11.8184C3.26262 11.8184 2.91505 11.7117 2.61941 11.512C2.32378 11.3122 2.09336 11.0282 1.95729 10.696C1.82122 10.3638 1.78562 9.99821 1.85499 9.64553C1.92436 9.29284 2.09557 8.96888 2.34699 8.71461C2.59841 8.46034 2.91873 8.28718 3.26746 8.21702C3.61618 8.14687 3.97764 8.18287 4.30614 8.32049C4.63463 8.4581 4.91539 8.69113 5.11293 8.99012C5.31047 9.28912 5.4159 9.64063 5.4159 10.0002C5.4159 10.4824 5.2265 10.9449 4.88936 11.2858C4.55222 11.6268 4.09496 11.8184 3.61817 11.8184ZM14.4045 18.1819C14.049 18.1819 13.7014 18.0752 13.4058 17.8754C13.1101 17.6757 12.8797 17.3917 12.7437 17.0595C12.6076 16.7273 12.572 16.3617 12.6414 16.009C12.7107 15.6563 12.8819 15.3324 13.1334 15.0781C13.3848 14.8238 13.7051 14.6507 14.0538 14.5805C14.4025 14.5104 14.764 14.5464 15.0925 14.684C15.421 14.8216 15.7018 15.0546 15.8993 15.3536C16.0968 15.6526 16.2023 16.0041 16.2023 16.3637C16.2023 16.8459 16.0129 17.3084 15.6757 17.6493C15.3386 17.9903 14.8813 18.1819 14.4045 18.1819Z" fill="currentColor"/>
</svg>
