<svg width="28" height="28" viewBox="0 0 28 28" fill="none" xmlns="http://www.w3.org/2000/svg">
<path fill-rule="evenodd" clip-rule="evenodd" d="M15.9833 4.6667C15.9833 4.0868 16.4534 3.6167 17.0333 3.6167H23.3333C23.9132 3.6167 24.3833 4.0868 24.3833 4.6667V10.9667C24.3833 11.5466 23.9132 12.0167 23.3333 12.0167C22.7534 12.0167 22.2833 11.5466 22.2833 10.9667V7.20162L14.7424 14.7425C14.3324 15.1525 13.6675 15.1525 13.2575 14.7425C12.8474 14.3324 12.8474 13.6676 13.2575 13.2576L20.7984 5.7167H17.0333C16.4534 5.7167 15.9833 5.2466 15.9833 4.6667Z" fill="white"/>
<path fill-rule="evenodd" clip-rule="evenodd" d="M8.16678 6.88345C7.45802 6.88345 6.88345 7.45802 6.88345 8.16678V19.8334C6.88345 20.5422 7.45802 21.1168 8.16678 21.1168H19.8334C20.5422 21.1168 21.1168 20.5422 21.1168 19.8334V15.1668C21.1168 14.5869 21.5869 14.1168 22.1668 14.1168C22.7467 14.1168 23.2168 14.5869 23.2168 15.1668V19.8334C23.2168 21.702 21.702 23.2168 19.8334 23.2168H8.16678C6.29822 23.2168 4.78345 21.702 4.78345 19.8334V8.16678C4.78345 6.29822 6.29822 4.78345 8.16678 4.78345H12.8334C13.4133 4.78345 13.8834 5.25355 13.8834 5.83345C13.8834 6.41335 13.4133 6.88345 12.8334 6.88345H8.16678Z" fill="white"/>
</svg>
