<svg width="100%" height="100%" viewBox="0 0 24 24" fill="none" xmlns="http://www.w3.org/2000/svg">
<path d="M17.4045 14.7274C16.839 14.7288 16.2819 14.8654 15.7786 15.126C15.2752 15.3867 14.84 15.7641 14.5084 16.2274L10.0006 13.1884C10.2847 12.4223 10.2847 11.5781 10.0006 10.8121L14.5084 7.77305C15.0144 8.46679 15.7484 8.95532 16.5785 9.15086C17.4087 9.34641 18.2806 9.23615 19.0375 8.8399C19.7945 8.44365 20.387 7.78738 20.7085 6.989C21.0299 6.19062 21.0594 5.30246 20.7915 4.4841C20.5236 3.66573 19.9759 2.97081 19.2469 2.52417C18.5179 2.07753 17.6552 1.90845 16.814 2.04732C15.9728 2.18619 15.2081 2.6239 14.6573 3.28181C14.1065 3.93972 13.8058 4.7747 13.8091 5.63674C13.8149 5.7692 13.8281 5.90122 13.8486 6.03218L9.00286 9.29938C8.48645 8.82857 7.84614 8.51928 7.15948 8.40897C6.47282 8.29866 5.76926 8.39207 5.13402 8.67789C4.49878 8.9637 3.9591 9.42965 3.58034 10.0193C3.20159 10.609 3 11.2971 3 12.0002C3 12.7034 3.20159 13.3915 3.58034 13.9811C3.9591 14.5708 4.49878 15.0368 5.13402 15.3226C5.76926 15.6084 6.47282 15.7018 7.15948 15.5915C7.84614 15.4812 8.48645 15.1719 9.00286 14.7011L13.8486 17.9683C13.8281 18.0992 13.8149 18.2313 13.8091 18.3637C13.8091 19.0829 14.02 19.7859 14.415 20.3839C14.8101 20.9819 15.3716 21.448 16.0286 21.7232C16.6856 21.9984 17.4085 22.0704 18.106 21.9301C18.8034 21.7898 19.4441 21.4435 19.9469 20.935C20.4497 20.4264 20.7922 19.7785 20.9309 19.0731C21.0696 18.3678 20.9984 17.6366 20.7263 16.9722C20.4542 16.3077 19.9933 15.7398 19.4021 15.3403C18.8108 14.9407 18.1157 14.7274 17.4045 14.7274ZM17.4045 3.8186C17.7601 3.8186 18.1077 3.92523 18.4033 4.12501C18.6989 4.32479 18.9294 4.60874 19.0654 4.94097C19.2015 5.27319 19.2371 5.63876 19.1677 5.99144C19.0984 6.34412 18.9271 6.66809 18.6757 6.92236C18.4243 7.17663 18.104 7.34979 17.7553 7.41994C17.4065 7.4901 17.0451 7.45409 16.7166 7.31648C16.3881 7.17887 16.1073 6.94583 15.9098 6.64684C15.7122 6.34785 15.6068 5.99633 15.6068 5.63674C15.6068 5.15454 15.7962 4.69209 16.1334 4.35112C16.4705 4.01015 16.9278 3.8186 17.4045 3.8186ZM6.61817 13.8184C6.26262 13.8184 5.91505 13.7117 5.61941 13.512C5.32378 13.3122 5.09336 13.0282 4.95729 12.696C4.82122 12.3638 4.78562 11.9982 4.85499 11.6455C4.92436 11.2928 5.09557 10.9689 5.34699 10.7146C5.59841 10.4603 5.91873 10.2872 6.26746 10.217C6.61618 10.1469 6.97764 10.1829 7.30614 10.3205C7.63463 10.4581 7.91539 10.6911 8.11293 10.9901C8.31047 11.2891 8.4159 11.6406 8.4159 12.0002C8.4159 12.4824 8.2265 12.9449 7.88936 13.2858C7.55222 13.6268 7.09496 13.8184 6.61817 13.8184ZM17.4045 20.1819C17.049 20.1819 16.7014 20.0752 16.4058 19.8754C16.1101 19.6757 15.8797 19.3917 15.7437 19.0595C15.6076 18.7273 15.572 18.3617 15.6414 18.009C15.7107 17.6563 15.8819 17.3324 16.1334 17.0781C16.3848 16.8238 16.7051 16.6507 17.0538 16.5805C17.4025 16.5104 17.764 16.5464 18.0925 16.684C18.421 16.8216 18.7018 17.0546 18.8993 17.3536C19.0968 17.6526 19.2023 18.0041 19.2023 18.3637C19.2023 18.8459 19.0129 19.3084 18.6757 19.6493C18.3386 19.9903 17.8813 20.1819 17.4045 20.1819Z" fill="currentColor"/>
</svg>
