<svg width="100%" height="100%" viewBox="0 0 34 34" fill="none" xmlns="http://www.w3.org/2000/svg">
<rect width="100%" height="100%" rx="17" fill="black" fill-opacity="0.4"/>
<path fill-rule="evenodd" clip-rule="evenodd" d="M8 17C8 13.2503 8 11.3754 8.95491 10.0611C9.26331 9.6366 9.6366 9.26331 10.0611 8.95491C11.3754 8 13.2503 8 17 8C20.7497 8 22.6246 8 23.9389 8.95491C24.3634 9.26331 24.7367 9.6366 25.0451 10.0611C26 11.3754 26 13.2503 26 17C26 20.7497 26 22.6246 25.0451 23.9389C24.7367 24.3634 24.3634 24.7367 23.9389 25.0451C22.6246 26 20.7497 26 17 26C13.2503 26 11.3754 26 10.0611 25.0451C9.6366 24.7367 9.26331 24.3634 8.95491 23.9389C8 22.6246 8 20.7497 8 17ZM17 11.25C17.4142 11.25 17.75 11.5858 17.75 12V18C17.75 18.4142 17.4142 18.75 17 18.75C16.5858 18.75 16.25 18.4142 16.25 18V12C16.25 11.5858 16.5858 11.25 17 11.25ZM17 22C17.5523 22 18 21.5523 18 21C18 20.4477 17.5523 20 17 20C16.4477 20 16 20.4477 16 21C16 21.5523 16.4477 22 17 22Z" fill="currentColor"/>
</svg>
