<svg width="25" height="24" viewBox="0 0 25 24" fill="none" xmlns="http://www.w3.org/2000/svg">
    <mask id="path-1-inside-1_526_461" fill="white">
        <path
            d="M21.8499 12C21.8499 17.3018 17.5518 21.5999 12.25 21.5999C6.94806 21.5999 2.65002 17.3018 2.65002 12C2.65002 6.69806 6.94806 2.40002 12.25 2.40002C17.5518 2.40002 21.8499 6.69806 21.8499 12Z" />
    </mask>
    <path
        d="M20.3499 12C20.3499 16.4734 16.7234 20.0999 12.25 20.0999V23.0999C18.3803 23.0999 23.3499 18.1303 23.3499 12H20.3499ZM12.25 20.0999C7.77649 20.0999 4.15002 16.4734 4.15002 12H1.15002C1.15002 18.1303 6.11963 23.0999 12.25 23.0999V20.0999ZM4.15002 12C4.15002 7.52649 7.77649 3.90002 12.25 3.90002V0.900024C6.11963 0.900024 1.15002 5.86963 1.15002 12H4.15002ZM12.25 3.90002C16.7234 3.90002 20.3499 7.52649 20.3499 12H23.3499C23.3499 5.86963 18.3803 0.900024 12.25 0.900024V3.90002Z"
        fill="currentColor" mask="url(#path-1-inside-1_526_461)" />
    <path
        d="M15.604 10.5678L12.073 8.46601C10.7399 7.67247 9.05008 8.63314 9.05008 10.1846V13.8152C9.05008 15.3667 10.7399 16.3274 12.073 15.5338L15.604 13.4321C16.6896 12.7859 16.6896 11.2139 15.604 10.5678Z"
        stroke="currentColor" stroke-width="1.5" stroke-linecap="round" stroke-linejoin="round" />
</svg>