<svg width="28" height="28" viewBox="0 0 28 28" fill="none" xmlns="http://www.w3.org/2000/svg">
<path d="M27.6798 11.0167C26.8404 7.3175 24.8157 4.38539 21.6731 2.29285C19.3827 0.771385 16.8012 0 14.0004 0C13.8358 0 13.6671 0 13.5026 0.00852359C12.3215 0.0468798 11.1658 0.230137 10.069 0.558295C7.14588 1.4277 4.7331 3.08128 2.89821 5.47215C0.898815 8.0761 -0.0755748 11.0849 0.00456987 14.4134C0.0256606 15.2359 0.11846 16.0542 0.287185 16.8426C0.843979 19.4679 2.04615 21.7607 3.86838 23.6444C6.47941 26.3549 9.72738 27.8125 13.5195 27.983C13.7093 27.9915 13.8991 27.9957 14.0889 27.9957C15.0127 27.9957 15.9576 27.8935 16.8982 27.6889C19.8931 27.0411 22.4324 25.5665 24.4445 23.3078C26.7265 20.7422 27.9582 17.6779 28.0046 14.439C28.0046 13.007 27.9076 12.014 27.684 11.0167H27.6798ZM22.8838 5.48919L22.9259 5.53181C22.9934 5.60426 23.0609 5.67245 23.1242 5.7449C23.8033 6.49498 24.3938 7.33455 24.9296 8.31476C25.1025 8.62587 25.1911 8.93699 25.2037 9.26514C25.2543 10.6247 25.1405 11.8052 24.8578 12.8706C24.4571 14.4006 23.7147 15.824 22.6518 17.1026C21.6605 18.2959 20.4457 19.3443 18.9356 20.3032C18.906 20.3202 18.8807 20.3373 18.847 20.3543C18.7795 19.9623 18.7668 19.5659 18.809 19.1099C18.8596 18.5814 18.9145 18.0487 18.9651 17.5202C19.0452 16.7489 19.1212 15.9775 19.1887 15.2018C19.2646 14.3239 19.3152 13.4033 19.349 12.4658C19.37 11.754 19.3827 11.0466 19.3911 10.3349C19.3954 9.91294 19.4038 9.48676 19.408 9.06484C19.408 9.00944 19.4333 8.94125 19.4671 8.90715C20.4119 7.95677 21.361 7.00639 22.3059 6.05601L22.7994 5.56164C22.8247 5.53607 22.85 5.51476 22.8795 5.48919H22.8838ZM17.1302 3.57138C16.9657 3.5032 16.8856 3.4137 16.8392 3.25175C16.7464 2.8895 16.6367 2.53151 16.527 2.15647L16.43 1.82831L16.6789 1.89224C16.9404 1.96043 17.1935 2.02009 17.4381 2.0968C18.6867 2.47184 19.7328 2.95342 20.6271 3.56712C20.7958 3.68645 20.8675 3.81005 20.8548 3.98904C20.838 4.25327 20.8295 4.52177 20.8211 4.79452L20.8126 5.06301L20.0323 4.74764L19.1549 4.38965C18.48 4.11689 17.8051 3.83988 17.1302 3.57138ZM16.8265 4.58569C17.5773 4.8968 18.3282 5.20791 19.079 5.51476L20.5005 6.09863C20.5469 6.11568 20.5891 6.14125 20.6313 6.17108L19.9775 6.83166C19.9775 6.83166 15.3502 11.4557 14.4433 12.3677C14.3547 12.4572 14.2872 12.4956 14.2155 12.4956C14.1902 12.4956 14.1691 12.4956 14.1438 12.4828C14.0383 12.4487 13.9835 12.3635 13.9666 12.2143C13.878 11.4301 13.7852 10.646 13.6882 9.85753L13.6123 9.20122C13.5364 8.56195 13.4646 7.92268 13.3761 7.28341C13.3381 6.99361 13.4056 6.8274 13.6249 6.66545C14.4939 6.03044 15.3248 5.40396 16.3203 4.65388C16.4258 4.57717 16.5186 4.53881 16.6198 4.53881C16.6831 4.53881 16.7548 4.55586 16.8307 4.58569H16.8265ZM18.4547 10.6502L18.4336 11.2895C18.4083 12.031 18.3788 12.7939 18.3282 13.544C18.2565 14.5583 18.1721 15.5769 18.0835 16.5912L17.9907 17.6737C17.9738 17.874 17.9527 18.0743 17.9317 18.2746C17.8726 18.8329 17.8136 19.4125 17.8515 20.0219C17.8684 20.3075 17.8853 20.593 17.8937 20.8785C17.8937 20.8956 17.8726 20.9339 17.8642 20.9425C17.0585 21.3218 16.2486 21.6968 15.4134 22.0718L15.2869 21.8161C15.1772 21.5988 15.0675 21.3857 14.9621 21.1641C14.1564 19.5105 13.4604 17.695 12.8319 15.6152C12.8151 15.5598 12.8193 15.547 12.8572 15.5087C13.6587 14.7075 14.4601 13.9062 15.2616 13.105L16.3414 12.0225C17.0459 11.3151 17.7503 10.6119 18.4674 9.90015V10.0152C18.4674 10.2283 18.4716 10.4329 18.4674 10.6417L18.4547 10.6502ZM8.21307 20.1285C9.24229 21.2195 10.0353 22.1059 10.7566 22.9711C10.4993 22.9839 10.2462 22.9924 10.0016 22.9924C8.56739 22.9924 7.28929 22.775 6.09978 22.3318L8.21307 20.1327V20.1285ZM7.98529 15.7516C9.314 15.2359 10.6469 14.7117 11.9756 14.1918L13.0133 13.7869L7.4074 19.3954V19.3869C7.42427 19.2377 7.43693 19.0971 7.4538 18.9607L7.79547 16.0073C7.81234 15.8752 7.86718 15.7985 7.98951 15.7516H7.98529ZM8.90906 19.4636L12.0305 16.3397C12.6505 18.4195 13.549 20.3927 14.4981 22.3957C14.4981 22.3957 13.954 22.5065 13.7726 22.5406L13.1356 22.66C12.7602 22.7324 12.3848 22.8006 12.0094 22.8773C11.9883 22.8773 11.9672 22.8858 11.9503 22.8858C11.8913 22.8858 11.8575 22.8645 11.8238 22.8134C11.364 22.0463 10.7524 21.407 10.1534 20.7848C9.8497 20.4694 9.55022 20.1498 9.24651 19.8259L8.90906 19.4679V19.4636ZM7.1965 6.05601C7.23868 6.05601 7.2893 6.06454 7.361 6.07732L11.9841 7.04475C12.195 7.08737 12.2203 7.1172 12.2414 7.32603C12.3004 7.92268 12.5282 10.1942 12.5282 10.1942L12.7433 12.291C12.7433 12.3209 12.7476 12.3422 12.7518 12.3507C12.7518 12.4998 12.6927 12.5808 12.5493 12.6405C11.9799 12.8706 11.4104 13.1008 10.841 13.3309C10.1872 13.5994 7.94732 14.5327 7.94732 14.5327C7.91358 14.5455 7.87562 14.5626 7.84187 14.5711C7.75751 14.6009 7.69424 14.6222 7.65205 14.6222C7.60566 14.6222 7.57191 14.5924 7.46224 14.4603C7.22602 14.1662 6.98559 13.8764 6.74515 13.5823L6.37396 13.1349C5.75389 12.3848 5.13804 11.639 4.51376 10.8889C4.44205 10.8037 4.44205 10.7269 4.51798 10.5948C4.72888 10.2198 4.93979 9.84901 5.14648 9.47397L6.94763 6.25205C7.04464 6.07732 7.09526 6.04749 7.18384 6.04749L7.1965 6.05601ZM3.21036 11.4344H3.25675C3.39595 11.4344 3.50141 11.4813 3.58577 11.5878C4.37878 12.568 6.56799 15.2572 6.56799 15.2572C6.66923 15.3808 6.70719 15.5257 6.6861 15.7005L6.65657 15.9647C6.62283 16.2801 6.58908 16.5912 6.55534 16.9065L6.24741 19.6426L6.1968 20.0475H4.58125C4.30707 20.039 4.03711 20.039 3.76293 20.039C3.60686 20.039 3.45079 20.039 3.28628 20.039C3.13021 20.039 3.02898 19.9836 2.93196 19.8429C2.39204 19.0417 2.0124 18.151 1.77619 17.1154C1.51466 15.9817 1.41343 14.8012 1.46826 13.6037C1.48935 13.1434 1.53997 12.6703 1.58637 12.2143L1.63277 11.7839C1.64964 11.5963 1.70448 11.5452 1.90273 11.5324C1.90273 11.5324 2.94039 11.4472 3.20192 11.4301L3.21036 11.4344ZM6.34443 23.4271C7.33991 23.7382 8.32696 23.9129 9.28447 23.947C9.4996 23.9556 9.71894 23.9556 9.93407 23.9556C10.2589 23.9556 10.5837 23.947 10.9085 23.9428H11.1953C11.2586 23.9385 11.267 23.9428 11.2839 24.0024C11.4737 24.7184 11.2079 25.3534 10.5288 25.7966C10.4192 25.8691 10.3221 25.8989 10.2209 25.8989C10.1534 25.8989 10.0859 25.8861 10.0058 25.8563C8.39445 25.281 6.93497 24.386 5.65688 23.1884C5.88887 23.2694 6.11665 23.3504 6.34443 23.4228V23.4271ZM18.3029 21.8247L18.3957 21.9525C18.4758 22.0591 18.5517 22.1656 18.6319 22.2679C19.138 22.9285 19.8003 23.2737 20.5975 23.295H20.6608C21.1585 23.295 21.6352 23.1416 22.0781 22.9753C22.3438 22.8731 22.6138 22.7665 22.888 22.6557H22.9006L22.6686 22.8816C22.4155 23.1288 22.1667 23.3802 21.9178 23.6317C21.2387 24.3221 20.4119 24.7994 19.7666 25.1361C19.37 25.3449 18.9524 25.5239 18.5475 25.6986L18.3914 25.7668C18.3029 25.8052 18.2354 25.8222 18.1805 25.8222C18.0919 25.8222 18.016 25.7753 17.8979 25.6475C17.2061 24.9017 16.5734 24.0408 15.9112 22.9412L18.3071 21.8332L18.3029 21.8247ZM15.1055 1.60244C15.2869 1.61948 15.3333 1.6621 15.3839 1.84536C15.5231 2.37382 15.6581 2.90228 15.7931 3.43075C15.8268 3.57139 15.8099 3.63105 15.6918 3.71629L15.0971 4.15951C14.5614 4.56012 14.0257 4.96073 13.4942 5.3656L13.3592 5.47215C13.1567 5.63409 12.9711 5.78326 12.7307 5.85145C12.6295 5.88128 12.5198 5.89833 12.4017 5.91963L12.2414 5.95373L11.1911 5.73212L10.107 5.49772C9.25495 5.31446 8.40288 5.12694 7.55082 4.94368C7.36944 4.90533 7.24711 4.81583 7.17541 4.67519C7.05308 4.43653 6.93497 4.18082 6.81264 3.88676C6.7789 3.80578 6.76625 3.73333 6.93919 3.63957C7.10792 3.55008 7.27242 3.46058 7.44115 3.36682C7.92623 3.10259 8.43241 2.82557 8.93859 2.59117C10.0606 2.07549 11.2965 1.74307 12.621 1.60244C13.0302 1.55982 13.4478 1.53425 13.8696 1.53425C14.2914 1.53425 14.6921 1.55556 15.1097 1.59817L15.1055 1.60244ZM6.17992 5.20791C6.22632 5.30594 6.1968 5.39117 6.13352 5.50624L3.91478 9.47397C3.78824 9.69985 3.6617 9.92146 3.53937 10.1473C3.47188 10.2709 3.3833 10.3306 3.23988 10.3434C2.90665 10.3775 2.57763 10.4158 2.24018 10.4584L1.92804 10.4968C2.4764 8.25936 3.71231 6.32024 5.80451 4.41948L6.18414 5.21218L6.17992 5.20791ZM5.37004 21.3388L5.44175 21.3473L4.78372 22.0207C4.74998 22.0548 4.71623 22.0932 4.67827 22.1187C4.64874 22.14 4.61921 22.1528 4.59812 22.1528C4.58547 22.1528 4.56438 22.1528 4.53485 22.1187C4.27333 21.8033 4.01602 21.488 3.75871 21.1854C4.29863 21.2365 4.83856 21.2919 5.37426 21.3431L5.37004 21.3388ZM12.2498 23.8746C12.2498 23.8746 12.8193 23.7339 12.9964 23.6913L13.5532 23.5592C13.9497 23.4654 14.3462 23.3759 14.7427 23.2737C14.7765 23.2651 14.8102 23.2609 14.8398 23.2609C14.9283 23.2609 14.9916 23.2992 15.0591 23.4015L15.1393 23.5166C15.6412 24.2368 16.139 24.9613 16.6493 25.6773C16.7548 25.8222 16.8687 25.9586 16.991 26.095C17.0163 26.1248 17.0416 26.1504 17.0627 26.1802C16.0588 26.4274 15.0507 26.551 14.0552 26.551C13.2031 26.551 12.3384 26.4615 11.4779 26.2782C12.1908 25.5836 12.4439 24.7951 12.2456 23.8746H12.2498ZM21.0278 22.2892C20.9097 22.3062 20.7958 22.3148 20.6861 22.3148C20.142 22.3148 19.7159 22.0974 19.3785 21.6499L19.138 21.3303C19.138 21.3303 19.5894 21.0362 19.7412 20.9382C21.5846 19.7193 22.9976 18.3811 24.0648 16.8426C25.0477 15.4277 25.693 13.8849 25.9883 12.2654C26.0136 12.1376 26.0305 12.0055 26.0516 11.8776C26.0642 11.7881 26.0811 11.6986 26.0938 11.6091C26.1191 11.737 26.1486 11.8691 26.1697 11.997C26.3511 13.0283 26.4017 14.0938 26.3131 15.172C26.1612 17.0046 25.6424 18.7093 24.765 20.2393C24.7355 20.2904 24.6933 20.3586 24.6427 20.3927L24.2251 20.6868C23.8117 20.9808 23.3815 21.2877 22.947 21.5604C22.3354 21.9482 21.69 22.1954 21.0278 22.2977V22.2892ZM22.0148 4.6965C22.019 4.79452 21.96 4.84992 21.8545 4.94368V4.53455C21.96 4.58995 22.0106 4.62405 22.0148 4.6965Z" fill="white"/>
</svg>
