<svg width="30" height="30" viewBox="0 0 30 30" fill="none" xmlns="http://www.w3.org/2000/svg">
<path d="M15.5269 24.9235C13.0873 24.935 10.7371 24.0058 8.96506 22.329C7.19298 20.6522 6.13536 18.3569 6.01212 15.9204C5.88887 13.4839 6.70948 11.0936 8.30331 9.24655C9.89714 7.39952 12.1416 6.23785 14.5699 6.00311C14.6897 5.99149 14.8104 6.01259 14.9191 6.06416C15.0278 6.11573 15.1205 6.19584 15.1873 6.29595C15.2542 6.39618 15.2923 6.51285 15.2975 6.63324C15.3026 6.75363 15.2746 6.87312 15.2164 6.97868C14.6874 7.95097 14.4148 9.04199 14.4243 10.1488C14.3697 11.7854 14.9655 13.3769 16.0813 14.5754C17.1971 15.7738 18.7421 16.4816 20.3783 16.5439C21.6709 16.5412 22.9232 16.0939 23.9251 15.2772C24.0242 15.198 24.1439 15.1489 24.27 15.1357C24.3962 15.1226 24.5234 15.146 24.6366 15.2032C24.7498 15.2604 24.8442 15.3489 24.9086 15.4582C24.9729 15.5675 25.0045 15.693 24.9995 15.8197C24.9098 18.2694 23.8716 20.5885 22.1042 22.2871C20.3367 23.9858 17.9783 24.9311 15.5269 24.9235ZM13.5326 7.52556C12.1199 7.88166 10.8284 8.60941 9.79196 9.63326C8.75557 10.6571 8.01214 11.9397 7.63887 13.3479C7.26559 14.7561 7.27608 16.2386 7.66924 17.6413C8.06239 19.0441 8.82389 20.3161 9.87466 21.3252C10.9254 22.3342 12.2272 23.0437 13.6447 23.3797C15.0622 23.7158 16.5439 23.6663 17.9358 23.2364C19.3278 22.8064 20.5793 22.0117 21.5603 20.9347C22.5414 19.8578 23.2163 18.5378 23.515 17.1119C22.5444 17.6096 21.469 17.8684 20.3783 17.867C18.3912 17.8045 16.5098 16.9572 15.1459 15.5107C13.782 14.0642 13.0468 12.1362 13.1012 10.1488C13.0973 9.25645 13.2431 8.36971 13.5326 7.52556Z" fill="white" stroke="white" stroke-width="0.5"/>
</svg>
