<svg width="100%" height="100%" viewBox="0 0 64 64" fill="none" xmlns="http://www.w3.org/2000/svg">
<g opacity="0.5">
<rect x="2" y="2" width="60" height="60.0004" rx="30" fill="black"/>
</g>
<path d="M32.1025 34.1729C30.5896 34.1729 29.3633 35.3992 29.3633 36.912C29.3633 37.878 29.8637 38.7266 30.6191 39.2143V42.4645C30.6191 43.2821 31.282 43.9451 32.0997 43.9451C32.9174 43.9451 33.5804 43.2821 33.5804 42.4645V39.2178C34.3388 38.7306 34.8417 37.8804 34.8417 36.912C34.8417 35.3992 33.6153 34.1729 32.1025 34.1729Z" fill="white"/>
<path d="M42.5882 26.9531H39.9385V20.8501C39.9385 16.5215 36.376 13 31.9973 13C27.6185 13 24.0561 16.5215 24.0561 20.8501V26.9531H21.4118C18.9791 26.9531 17 28.9508 17 31.4062V46.5469C17 49.0023 18.9791 51 21.4118 51H42.5882C45.0209 51 47 49.0023 47 46.5469V31.4062C47 28.9508 45.0209 26.9531 42.5882 26.9531ZM26.9973 20.8501C26.9973 18.1585 29.2403 15.9688 31.9973 15.9688C34.7543 15.9688 36.9973 18.1585 36.9973 20.8501V26.9531H26.9973V20.8501ZM44.0588 46.5469C44.0588 47.3654 43.3991 48.0312 42.5882 48.0312H21.4118C20.6009 48.0312 19.9412 47.3654 19.9412 46.5469V31.4062C19.9412 30.5878 20.6009 29.9219 21.4118 29.9219H42.5882C43.3991 29.9219 44.0588 30.5878 44.0588 31.4062V46.5469Z" fill="white"/>
</svg>
