<svg xmlns="http://www.w3.org/2000/svg" width="30" height="30" fill="none"><path fill="#fff" fill-rule="evenodd" d="M6.783 8.632a5.972 5.972 0 0 0-.934 3.217v6.302a6 6 0 0 0 6 6h6.302a5.972 5.972 0 0 0 3.217-.934A5.996 5.996 0 0 1 16.302 26H10a6 6 0 0 1-6-6v-6.303c0-2.13 1.11-4 2.783-5.065Z" clip-rule="evenodd"/><path fill="#fff" fill-rule="evenodd" d="M13.38 4a5.5 5.5 0 0 0-5.5 5.5v7.302a5.5 5.5 0 0 0 5.5 5.5h7.303a5.5 5.5 0 0 0 5.5-5.5V9.5a5.5 5.5 0 0 0-5.5-5.5h-7.302Zm6.911 10.017a1 1 0 0 0 0-1.732L15.604 9.58a1 1 0 0 0-1.5.866v5.412a1 1 0 0 0 1.5.866l4.688-2.706Z" clip-rule="evenodd"/></svg>