<svg width="100%" height="100%" viewBox="0 0 40 40" fill="none" xmlns="http://www.w3.org/2000/svg">
<path fill-rule="evenodd" clip-rule="evenodd" d="M20 6C20.2808 6 20.5481 6.11544 20.7344 6.31712L24.8664 10.7913C25.2259 11.1805 25.1885 11.7758 24.7829 12.1208C24.3773 12.4659 23.7571 12.43 23.3976 12.0408L20.9813 9.42442V21.4828C20.9813 22.003 20.542 22.4247 20 22.4247C19.458 22.4247 19.0187 22.003 19.0187 21.4828V15.4536V9.42442L16.6024 12.0408C16.2429 12.43 15.6227 12.4659 15.2171 12.1208C14.8115 11.7758 14.7741 11.1805 15.1336 10.7913L19.2656 6.31712C19.4519 6.11544 19.7192 6 20 6ZM8 21.2185C8 17.9241 10.7826 15.2534 14.2152 15.2534H14.7661C15.3081 15.2534 15.7475 15.6751 15.7475 16.1952C15.7475 16.7154 15.3081 17.1371 14.7661 17.1371H14.2152C11.8666 17.1371 9.96269 18.9644 9.96269 21.2185V27.0349C9.96269 29.289 11.8666 31.1163 14.2152 31.1163H25.7848C28.1333 31.1163 30.0373 29.2889 30.0373 27.0349V21.2185C30.0373 18.9644 28.1333 17.1371 25.7848 17.1371H25.2339C24.6919 17.1371 24.2525 16.7154 24.2525 16.1952C24.2525 15.6751 24.6919 15.2534 25.2339 15.2534H25.7848C29.2173 15.2534 32 17.924 32 21.2185V27.0349C32 30.3293 29.2173 33 25.7848 33H14.2152C10.7826 33 8 30.3293 8 27.0349V21.2185Z" fill="white" stroke="white" stroke-width="0.4"/>
</svg>
