<svg width="32" height="32" viewBox="0 0 32 32" fill="none" xmlns="http://www.w3.org/2000/svg">
<g id="fi_646094" clip-path="url(#clip0_16978_17114)">
<g id="Group">
<g id="Group_2">
<path id="Vector" d="M28.7167 5.1543H3.28955C1.79146 5.1543 0.578125 6.37516 0.578125 7.86572V24.1343C0.578125 25.6337 1.80038 26.8457 3.28955 26.8457H28.7167C30.2023 26.8457 31.4281 25.6388 31.4281 24.1343V7.86572C31.4281 6.37781 30.2196 5.1543 28.7167 5.1543ZM28.337 6.96191C27.783 7.51294 18.2496 16.9962 17.9204 17.3236C17.4082 17.8358 16.7274 18.1177 16.0031 18.1177C15.2789 18.1177 14.598 17.8357 14.0842 17.3219C13.8628 17.1017 4.43456 7.72316 3.66927 6.96191H28.337ZM2.38574 23.7664V8.23478L10.1969 16.0048L2.38574 23.7664ZM3.67042 25.0381L11.4785 17.2796L12.8077 18.6018C13.6612 19.4553 14.7961 19.9254 16.0031 19.9254C17.2102 19.9254 18.345 19.4553 19.1969 18.6035L20.5277 17.2796L28.3358 25.0381H3.67042ZM29.6205 23.7664L21.8093 16.0048L29.6205 8.23478V23.7664Z" fill="white"/>
</g>
</g>
</g>
<defs>
<clipPath id="clip0_16978_17114">
<rect width="30.85" height="30.85" fill="white" transform="translate(0.578125 0.574951)"/>
</clipPath>
</defs>
</svg>
