<svg width="30" height="30" viewBox="0 0 30 30" fill="none" xmlns="http://www.w3.org/2000/svg">
<path d="M9.81393 8.51825L8.51776 7.22208C8.16026 6.86412 7.57909 6.86412 7.22159 7.22208C6.86364 7.58004 6.86364 8.16029 7.22159 8.51825L8.51776 9.81442C8.69651 9.99362 8.93118 10.083 9.16584 10.083C9.40051 10.083 9.63518 9.99362 9.81393 9.81442C10.1719 9.45646 10.1719 8.87621 9.81393 8.51825Z" fill="white"/>
<path d="M6.75 14.0835H4.91667C4.41067 14.0835 4 14.4942 4 15.0002C4 15.5062 4.41067 15.9168 4.91667 15.9168H6.75C7.256 15.9168 7.66667 15.5062 7.66667 15.0002C7.66667 14.4942 7.256 14.0835 6.75 14.0835Z" fill="white"/>
<path d="M9.81393 20.1855C9.45643 19.8275 8.87526 19.8275 8.51776 20.1855L7.22159 21.4816C6.86364 21.8396 6.86364 22.4198 7.22159 22.7778C7.40034 22.957 7.63501 23.0464 7.86968 23.0464C8.10434 23.0464 8.33901 22.957 8.51776 22.7778L9.81393 21.4816C10.1719 21.1237 10.1719 20.5434 9.81393 20.1855Z" fill="white"/>
<path d="M15.0007 22.3335C14.4947 22.3335 14.084 22.7442 14.084 23.2502V25.0835C14.084 25.5895 14.4947 26.0002 15.0007 26.0002C15.5067 26.0002 15.9173 25.5895 15.9173 25.0835V23.2502C15.9173 22.7442 15.5067 22.3335 15.0007 22.3335Z" fill="white"/>
<path d="M22.7788 21.4816L21.4826 20.1855C21.1251 19.8275 20.5439 19.8275 20.1864 20.1855C19.8285 20.5434 19.8285 21.1237 20.1864 21.4816L21.4826 22.7778C21.6614 22.957 21.896 23.0464 22.1307 23.0464C22.3654 23.0464 22.6 22.957 22.7788 22.7778C23.1367 22.4198 23.1367 21.8396 22.7788 21.4816Z" fill="white"/>
<path d="M25.084 14.0835H23.2507C22.7447 14.0835 22.334 14.4942 22.334 15.0002C22.334 15.5062 22.7447 15.9168 23.2507 15.9168H25.084C25.59 15.9168 26.0007 15.5062 26.0007 15.0002C26.0007 14.4942 25.59 14.0835 25.084 14.0835Z" fill="white"/>
<path d="M22.7788 7.22208C22.4213 6.86412 21.8401 6.86412 21.4826 7.22208L20.1864 8.51825C19.8285 8.87621 19.8285 9.45646 20.1864 9.81442C20.3652 9.99362 20.5999 10.083 20.8345 10.083C21.0692 10.083 21.3039 9.99362 21.4826 9.81442L22.7788 8.51825C23.1367 8.16029 23.1367 7.58004 22.7788 7.22208Z" fill="white"/>
<path d="M15.0007 4C14.4947 4 14.084 4.41067 14.084 4.91667V6.75C14.084 7.256 14.4947 7.66667 15.0007 7.66667C15.5067 7.66667 15.9173 7.256 15.9173 6.75V4.91667C15.9173 4.41067 15.5067 4 15.0007 4Z" fill="white"/>
<path d="M14.9993 9.0415C11.714 9.0415 9.04102 11.7145 9.04102 14.9998C9.04102 18.2852 11.714 20.9582 14.9993 20.9582C18.2847 20.9582 20.9577 18.2852 20.9577 14.9998C20.9577 11.7145 18.2847 9.0415 14.9993 9.0415ZM14.9993 19.1248C12.7251 19.1248 10.8743 17.2741 10.8743 14.9998C10.8743 12.7256 12.7251 10.8748 14.9993 10.8748C17.2736 10.8748 19.1243 12.7256 19.1243 14.9998C19.1243 17.2741 17.2736 19.1248 14.9993 19.1248Z" fill="white"/>
</svg>
