<svg width="24" height="24" viewBox="0 0 24 24" fill="none" xmlns="http://www.w3.org/2000/svg">
<path fill-rule="evenodd" clip-rule="evenodd" d="M8.40156 2.3999C5.7506 2.3999 3.60156 4.54893 3.60156 7.1999V16.7999C3.60156 19.4509 5.75059 21.5999 8.40156 21.5999H15.8682C18.5192 21.5999 20.6682 19.4509 20.6682 16.7999V7.1999C20.6682 4.54894 18.5192 2.3999 15.8682 2.3999H8.40156ZM7.76585 6.97152C7.2609 6.97152 6.85156 7.38086 6.85156 7.8858C6.85156 8.39075 7.2609 8.80009 7.76585 8.80009H16.5024C17.0073 8.80009 17.4166 8.39075 17.4166 7.8858C17.4166 7.38086 17.0073 6.97152 16.5024 6.97152H7.76585ZM6.85156 11.5428C6.85156 11.0379 7.2609 10.6285 7.76585 10.6285H16.5024C17.0073 10.6285 17.4166 11.0379 17.4166 11.5428C17.4166 12.0478 17.0073 12.4571 16.5024 12.4571H7.76585C7.2609 12.4571 6.85156 12.0478 6.85156 11.5428ZM7.76585 15.1999C7.2609 15.1999 6.85156 15.6092 6.85156 16.1142C6.85156 16.6191 7.2609 17.0285 7.76585 17.0285H13.2516C13.7565 17.0285 14.1658 16.6191 14.1658 16.1142C14.1658 15.6092 13.7565 15.1999 13.2516 15.1999H7.76585Z" fill="#9C9C9C"/>
</svg>
