<svg width="30" height="30" viewBox="0 0 30 30" fill="none" xmlns="http://www.w3.org/2000/svg">
<path d="M14.475 23.6058C14.175 23.6058 13.875 23.5308 13.65 23.3058L7.725 18.6558H4.5C4.05 18.6558 3.75 18.3558 3.75 17.9058V12.9558C3.75 12.2058 4.35 11.6808 5.025 11.6808H7.725L13.65 7.03083C14.025 6.73082 14.55 6.65582 15 6.88082C15.45 7.10583 15.75 7.55582 15.75 8.08082V22.3308C15.75 22.8558 15.45 23.3058 15 23.5308C14.85 23.6058 14.625 23.6808 14.4 23.6808L14.475 23.6058ZM5.25 17.1558H8.025C8.175 17.1558 8.325 17.1558 8.475 17.3058L14.25 21.8808V8.45583L8.475 13.0308C8.325 13.1058 8.175 13.1808 8.025 13.1808H5.25V17.1558Z" fill="white"/>
<path d="M25.275 17.6808C25.575 17.9808 25.575 18.4308 25.275 18.7308C25.125 18.8808 24.975 18.9558 24.75 18.9558C24.525 18.9558 24.375 18.9558 24.225 18.7308L21.75 16.2558L19.275 18.7308C19.125 18.8808 18.975 18.9558 18.75 18.9558C18.525 18.9558 18.375 18.9558 18.225 18.7308C17.925 18.4308 17.925 17.9808 18.225 17.6808L20.7 15.2058L18.225 12.7308C17.925 12.4308 17.925 11.9808 18.225 11.6808C18.525 11.3808 18.975 11.3808 19.275 11.6808L21.75 14.1558L24.225 11.6808C24.525 11.3808 24.975 11.3808 25.275 11.6808C25.575 11.9808 25.575 12.4308 25.275 12.7308L22.8 15.2058L25.275 17.6808Z" fill="white"/>
</svg>
