<svg width="34" height="34" viewBox="0 0 34 34" fill="none" xmlns="http://www.w3.org/2000/svg">
<rect width="34" height="34" rx="17" fill="black" fill-opacity="0.4"/>
<g filter="url(#filter0_d_6684_55273)">
<g clip-path="url(#clip0_6684_55273)">
<ellipse cx="15.6468" cy="19.8617" rx="7.23471" ry="5.627" fill="white"/>
<path d="M24.6549 16.5997C24.2604 16.3507 23.8185 16.1492 23.3292 15.9945C23.2259 15.9602 23.1529 15.9345 23.11 15.9174C23.0672 15.9002 23.0153 15.8682 22.9558 15.8209C22.8958 15.7735 22.876 15.7199 22.8981 15.6599C22.9197 15.5999 22.9387 15.5142 22.9558 15.4024C23.3418 14.4153 23.3418 13.6514 22.9558 13.1107C22.5608 12.5872 21.9042 12.3252 20.9856 12.3252C20.0671 12.3252 19.0114 12.5786 17.8187 13.085L17.7411 13.1107C17.6897 13.1279 17.632 13.1427 17.5675 13.1558C17.503 13.1689 17.4408 13.1707 17.3808 13.1621C17.3209 13.1536 17.278 13.1238 17.2523 13.0719C17.2266 13.0205 17.2311 12.9344 17.2654 12.8145C17.6514 11.5699 17.5657 10.6729 17.0079 10.1237C16.373 9.48878 15.3151 9.45856 13.8342 10.0335C12.3537 10.6089 10.8882 11.6213 9.43752 13.0719C8.33903 14.1704 7.49126 15.2779 6.89467 16.3936C6.29807 17.5101 6 18.5612 6 19.5483C6 20.475 6.27913 21.3314 6.83695 22.1169C7.39521 22.9024 8.13069 23.5504 9.0452 24.0609C9.95926 24.5714 10.9915 24.9709 12.1414 25.2582C13.2917 25.5454 14.4718 25.6893 15.6817 25.6893C16.8916 25.6893 18.0527 25.5562 19.1643 25.2902C20.2759 25.0241 21.2458 24.6679 22.0738 24.2214C22.9021 23.7755 23.6255 23.2709 24.2432 22.7085C24.8615 22.1462 25.3291 21.5586 25.6466 20.9449C25.964 20.3312 26.1232 19.7323 26.1232 19.1493C26.1232 18.6 25.9776 18.0999 25.6853 17.6494C25.3936 17.1985 25.0504 16.8486 24.6549 16.5997ZM20.4517 22.5034C19.1945 23.5202 17.6086 24.1276 15.6948 24.3252C14.4416 24.4456 13.2637 24.3554 12.1607 24.055C11.0577 23.7543 10.1631 23.2866 9.4763 22.6517C8.78952 22.0163 8.40757 21.2867 8.33046 20.4629C8.21006 19.2097 8.77869 18.0747 10.0364 17.0578C11.2936 16.0405 12.8795 15.4335 14.7933 15.236C16.0465 15.1156 17.2244 15.2058 18.3269 15.5066C19.4295 15.8069 20.3246 16.2745 21.0114 16.9099C21.6981 17.5453 22.0801 18.2749 22.1572 19.0988C22.2771 20.3519 21.709 21.4869 20.4513 22.5043L20.4517 22.5034Z" fill="#D33437"/>
<path d="M16.0677 17.1669C15.1582 16.9351 14.2545 17.0167 13.3576 17.4118C12.4607 17.8063 11.8104 18.4029 11.4073 19.2011C11.0037 20.0164 10.9757 20.8209 11.3234 21.615C11.6711 22.4091 12.3042 22.9516 13.2223 23.2438C14.1751 23.5527 15.1365 23.5013 16.1061 23.0891C17.076 22.6769 17.7538 22.0334 18.1402 21.1582C18.5262 20.2996 18.5154 19.482 18.1078 18.7055C17.6997 17.929 17.0197 17.4163 16.0673 17.1673L16.0677 17.1669ZM14.6901 21.3381C14.5012 21.6298 14.2333 21.8337 13.8852 21.9496C13.5375 22.0655 13.2178 22.0546 12.926 21.9175C12.6343 21.78 12.4498 21.5636 12.3727 21.2673C12.2956 20.9715 12.3511 20.6775 12.54 20.3857C12.7199 20.1021 12.9779 19.905 13.3125 19.7936C13.6475 19.6818 13.9605 19.6863 14.2522 19.8062C14.5526 19.9348 14.746 20.1494 14.8317 20.4497C14.9174 20.7501 14.8705 21.0459 14.6901 21.3381ZM15.9004 19.7801C15.8404 19.8919 15.7457 19.9713 15.6172 20.0186C15.4887 20.066 15.3638 20.0678 15.2439 20.025C14.9864 19.9046 14.9304 19.7115 15.0766 19.4455C15.1365 19.3337 15.229 19.2543 15.3534 19.2069C15.4779 19.1596 15.6001 19.1578 15.7205 19.2006C15.8319 19.2435 15.9072 19.3228 15.946 19.4387C15.9847 19.5542 15.9694 19.6683 15.9009 19.7796L15.9004 19.7801Z" fill="black"/>
<path d="M24.3968 14.1343C24.4915 14.3187 24.6372 14.4454 24.8347 14.514C25.0322 14.5739 25.2229 14.5568 25.4074 14.4626C25.5918 14.3683 25.7185 14.2222 25.7875 14.0247C25.9503 13.544 25.9787 13.0398 25.8709 12.5122C25.7636 11.9846 25.53 11.5188 25.1697 11.1152C24.8094 10.7116 24.3756 10.4307 23.8692 10.272C23.3628 10.1132 22.8519 10.0898 22.3374 10.2012C22.1308 10.244 21.9726 10.3536 21.8607 10.5295C21.7493 10.7053 21.7151 10.8965 21.7584 11.1022C21.7926 11.3082 21.9 11.467 22.0799 11.5784C22.2603 11.6897 22.4533 11.7245 22.6593 11.6816C23.2 11.5698 23.6591 11.7204 24.037 12.1321C24.4149 12.5438 24.5177 13.0205 24.3459 13.5611C24.2854 13.7586 24.3026 13.9494 24.3968 14.1343Z" fill="#F19F4B"/>
<path d="M28.9501 11.8814C28.731 10.796 28.2485 9.84092 27.5017 9.01705C26.755 8.18462 25.8621 7.60741 24.8236 7.28544C23.7851 6.96347 22.7384 6.91432 21.6823 7.13754C21.442 7.18894 21.2553 7.31566 21.1223 7.51723C20.9892 7.71925 20.9486 7.94021 21.0001 8.18056C21.0515 8.42091 21.18 8.6076 21.3865 8.74063C21.5921 8.87365 21.8154 8.91469 22.0557 8.86283C22.8025 8.70861 23.5452 8.74514 24.2833 8.97241C25.0215 9.19968 25.6569 9.60959 26.189 10.2017C26.7211 10.7852 27.0647 11.4634 27.219 12.2359C27.3736 13.0083 27.3308 13.7465 27.0905 14.45C27.0219 14.6818 27.0431 14.905 27.1549 15.1196C27.2663 15.3343 27.4381 15.4799 27.6699 15.5575C27.9017 15.6346 28.1249 15.6175 28.3396 15.5061C28.5542 15.3947 28.7003 15.2229 28.7774 14.9911C29.112 14.004 29.1697 12.9677 28.951 11.8819L28.9501 11.8814Z" fill="#F19F4B"/>
</g>
</g>
<defs>
<filter id="filter0_d_6684_55273" x="2" y="5" width="31.0781" height="26.6897" filterUnits="userSpaceOnUse" color-interpolation-filters="sRGB">
<feFlood flood-opacity="0" result="BackgroundImageFix"/>
<feColorMatrix in="SourceAlpha" type="matrix" values="0 0 0 0 0 0 0 0 0 0 0 0 0 0 0 0 0 0 127 0" result="hardAlpha"/>
<feOffset dy="2"/>
<feGaussianBlur stdDeviation="2"/>
<feColorMatrix type="matrix" values="0 0 0 0 0 0 0 0 0 0 0 0 0 0 0 0 0 0 0.05 0"/>
<feBlend mode="normal" in2="BackgroundImageFix" result="effect1_dropShadow_6684_55273"/>
<feBlend mode="normal" in="SourceGraphic" in2="effect1_dropShadow_6684_55273" result="shape"/>
</filter>
<clipPath id="clip0_6684_55273">
<rect width="23.0787" height="18.6897" fill="white" transform="translate(6 7)"/>
</clipPath>
</defs>
</svg>
