<svg width="183" height="288" viewBox="0 0 183 288" fill="none" xmlns="http://www.w3.org/2000/svg">
<path d="M55.3 279.474C54.9 279.474 54.5 279.374 54.2 279.074L46.3 272.874H42C41.4 272.874 41 272.474 41 271.874V265.274C41 264.274 41.8 263.574 42.7 263.574H46.3L54.2 257.374C54.7 256.974 55.4 256.874 56 257.174C56.6 257.474 57 258.074 57 258.774V277.774C57 278.474 56.6 279.074 56 279.374C55.8 279.474 55.5 279.574 55.2 279.574L55.3 279.474ZM43 270.874H46.7C46.9 270.874 47.1 270.874 47.3 271.074L55 277.174V259.274L47.3 265.374C47.1 265.474 46.9 265.574 46.7 265.574H43V270.874Z" fill="white"/>
<path d="M69.7 271.574C70.1 271.974 70.1 272.574 69.7 272.974C69.5 273.174 69.3 273.274 69 273.274C68.7 273.274 68.5 273.274 68.3 272.974L65 269.674L61.7 272.974C61.5 273.174 61.3 273.274 61 273.274C60.7 273.274 60.5 273.274 60.3 272.974C59.9 272.574 59.9 271.974 60.3 271.574L63.6 268.274L60.3 264.974C59.9 264.574 59.9 263.974 60.3 263.574C60.7 263.174 61.3 263.174 61.7 263.574L65 266.874L68.3 263.574C68.7 263.174 69.3 263.174 69.7 263.574C70.1 263.974 70.1 264.574 69.7 264.974L66.4 268.274L69.7 271.574Z" fill="white"/>
<g clip-path="url(#clip0_9859_68908)">
<path d="M58.5256 140.958L64.0949 84.6081L71.585 89.5281C73.8662 91.0212 76.2539 87.7976 74.5399 85.5494L57.2785 62.926C56.3447 61.7045 54.6596 61.7045 53.7258 62.926L36.4644 85.5494C34.7413 87.7993 37.1381 91.0212 39.4102 89.5281L46.9094 84.6184L52.4711 140.958C52.8605 144.999 58.1347 145.003 58.5256 140.958Z" fill="url(#paint0_linear_9859_68908)"/>
</g>
<g opacity="0.6" clip-path="url(#clip1_9859_68908)">
<path d="M53.4744 161.042L47.9051 217.392L40.415 212.472C38.1338 210.979 35.7461 214.202 37.46 216.451L54.7215 239.074C55.6553 240.295 57.3404 240.295 58.2742 239.074L75.5356 216.451C77.2587 214.201 74.8619 210.979 72.5898 212.472L65.0906 217.382L59.5289 161.042C59.1395 157.001 53.8653 156.997 53.4744 161.042Z" fill="url(#paint1_linear_9859_68908)"/>
</g>
<path d="M56.7993 31.3753C56.3994 31.3753 55.9993 31.242 55.5993 30.9753L48.1327 25.1087H43.7327C43.1993 25.1087 42.7993 24.7087 42.666 24.1753V17.7753C42.666 16.7087 43.466 15.7753 44.666 15.7753H47.9993L55.466 9.77532C55.9993 9.24199 56.7993 9.24199 57.5993 9.50866C58.266 9.77532 58.666 10.5753 58.666 11.242V29.242C58.666 30.042 58.266 30.7087 57.5993 30.9753C57.3327 31.1087 57.066 31.242 56.666 31.242L56.7993 31.3753ZM48.3993 23.1087C48.666 23.1087 48.7993 23.1087 49.066 23.3753L56.7993 29.3753V11.3753L48.9327 17.5087C48.7993 17.642 48.5327 17.7753 48.266 17.7753H44.666V23.1087H48.3993Z" fill="white"/>
<path d="M60.8018 27.2418C60.4018 27.2418 60.0018 26.9752 59.8685 26.5752C59.7351 26.0418 59.8685 25.5085 60.5351 25.2418C60.5351 25.2418 63.2018 24.1752 63.2018 20.4418C63.2018 16.7085 60.5351 15.7752 60.4018 15.7752C59.8685 15.6418 59.6018 14.9752 59.7351 14.5752C59.8685 14.0418 60.4018 13.7752 60.9351 13.9085C61.0685 13.9085 65.0685 15.3752 65.0685 20.5752C65.0685 25.7752 61.2018 27.1085 60.9351 27.2418H60.6685H60.8018Z" fill="white"/>
<path d="M64.135 30.5747C63.735 30.5747 63.4684 30.308 63.2017 30.0414C62.935 29.508 63.2017 28.9747 63.6017 28.708C63.735 28.708 67.6017 26.5747 67.6017 20.5747C67.6017 14.4414 63.735 12.4414 63.6017 12.4414C63.0684 12.1747 62.935 11.6414 63.2017 11.108C63.4684 10.5747 64.0017 10.4414 64.535 10.708C64.8017 10.708 69.6017 13.2414 69.735 20.708C69.735 28.1747 64.935 30.5747 64.6684 30.708C64.535 30.708 64.4017 30.708 64.2684 30.708L64.135 30.5747Z" fill="white"/>
<path d="M125.904 145.61H114.168V153.89H116.058V153.206H124.014V153.89H125.904V145.61ZM116.058 151.586V150.218H124.014V151.586H116.058ZM116.058 148.634V147.23H124.014V148.634H116.058ZM112.836 138.788V140.516H115.572C115.86 141.236 116.112 142.01 116.364 142.838H111.99V144.584H128.01V142.838H123.564C123.924 142.1 124.23 141.326 124.464 140.516H127.182V138.788H121.008C120.792 138.14 120.558 137.564 120.324 137.024L118.308 137.348C118.578 137.78 118.83 138.266 119.064 138.788H112.836ZM117.534 140.516H122.592C122.376 141.326 122.088 142.1 121.71 142.838H118.2C117.984 142.01 117.768 141.236 117.534 140.516ZM131.556 144.782V149.498H137.046V150.2H131.214V151.406H137.046V152.162H129.882V153.566H146.118V152.162H138.918V151.406H144.822V150.2H138.918V149.498H144.48V144.782H131.556ZM142.698 148.418H138.918V147.644H142.698V148.418ZM137.046 148.418H133.338V147.644H137.046V148.418ZM133.338 146.636V145.88H137.046V146.636H133.338ZM138.918 145.88H142.698V146.636H138.918V145.88ZM131.952 137.474V142.1H144.102V137.474H131.952ZM142.302 141.056H133.752V140.318H142.302V141.056ZM133.752 139.274V138.536H142.302V139.274H133.752ZM129.882 142.784V144.116H146.118V142.784H129.882ZM148.026 141.74V143.576H154.524C153.552 147.698 151.248 150.65 147.612 152.414L148.818 153.998C152.418 152.108 154.83 149.156 156.054 145.142C157.422 148.85 159.816 151.748 163.2 153.836L164.388 152.288C160.878 150.236 158.484 147.338 157.188 143.576H163.974V141.74H156.756C156.882 140.696 156.954 139.58 156.954 138.41V137.222H155.046V138.842C155.028 139.85 154.956 140.804 154.848 141.74H148.026ZM172.956 153.674C174.486 153.674 175.26 152.864 175.26 151.28V137.492H173.298V150.776C173.298 151.496 172.938 151.856 172.236 151.856C171.516 151.856 170.742 151.802 169.914 151.712L170.364 153.674H172.956ZM168.438 141.668C167.808 144.746 166.818 147.212 165.468 149.066L167.124 150.524C168.456 148.652 169.518 145.934 170.328 142.406L168.438 141.668ZM179.544 141.2L177.816 142.28C179.04 145.34 180.012 148.13 180.732 150.632L182.442 149.444C181.758 147.104 180.786 144.35 179.544 141.2Z" fill="white"/>
<path d="M125.904 145.61H114.168V153.89H116.058V153.206H124.014V153.89H125.904V145.61ZM116.058 151.586V150.218H124.014V151.586H116.058ZM116.058 148.634V147.23H124.014V148.634H116.058ZM112.836 138.788V140.516H115.572C115.86 141.236 116.112 142.01 116.364 142.838H111.99V144.584H128.01V142.838H123.564C123.924 142.1 124.23 141.326 124.464 140.516H127.182V138.788H121.008C120.792 138.14 120.558 137.564 120.324 137.024L118.308 137.348C118.578 137.78 118.83 138.266 119.064 138.788H112.836ZM117.534 140.516H122.592C122.376 141.326 122.088 142.1 121.71 142.838H118.2C117.984 142.01 117.768 141.236 117.534 140.516ZM131.556 144.782V149.498H137.046V150.2H131.214V151.406H137.046V152.162H129.882V153.566H146.118V152.162H138.918V151.406H144.822V150.2H138.918V149.498H144.48V144.782H131.556ZM142.698 148.418H138.918V147.644H142.698V148.418ZM137.046 148.418H133.338V147.644H137.046V148.418ZM133.338 146.636V145.88H137.046V146.636H133.338ZM138.918 145.88H142.698V146.636H138.918V145.88ZM131.952 137.474V142.1H144.102V137.474H131.952ZM142.302 141.056H133.752V140.318H142.302V141.056ZM133.752 139.274V138.536H142.302V139.274H133.752ZM129.882 142.784V144.116H146.118V142.784H129.882ZM148.026 141.74V143.576H154.524C153.552 147.698 151.248 150.65 147.612 152.414L148.818 153.998C152.418 152.108 154.83 149.156 156.054 145.142C157.422 148.85 159.816 151.748 163.2 153.836L164.388 152.288C160.878 150.236 158.484 147.338 157.188 143.576H163.974V141.74H156.756C156.882 140.696 156.954 139.58 156.954 138.41V137.222H155.046V138.842C155.028 139.85 154.956 140.804 154.848 141.74H148.026ZM172.956 153.674C174.486 153.674 175.26 152.864 175.26 151.28V137.492H173.298V150.776C173.298 151.496 172.938 151.856 172.236 151.856C171.516 151.856 170.742 151.802 169.914 151.712L170.364 153.674H172.956ZM168.438 141.668C167.808 144.746 166.818 147.212 165.468 149.066L167.124 150.524C168.456 148.652 169.518 145.934 170.328 142.406L168.438 141.668ZM179.544 141.2L177.816 142.28C179.04 145.34 180.012 148.13 180.732 150.632L182.442 149.444C181.758 147.104 180.786 144.35 179.544 141.2Z" fill="white"/>
<g clip-path="url(#clip2_9859_68908)">
<path d="M47.6474 158.964C47.1839 158.48 46.6182 158.15 46.0164 157.977L46.3743 157.634C47.8415 156.23 47.8928 153.895 46.4886 152.427C45.9654 151.881 45.3115 151.53 44.6233 151.378C45.3094 150.023 45.1085 148.322 43.9996 147.163C43.5362 146.679 42.9704 146.349 42.3687 146.176L48.0477 140.741C49.515 139.336 49.5663 137.001 48.1621 135.534C46.7578 134.067 44.4225 134.015 42.9552 135.419L26.4462 151.219C26.2693 151.388 25.9647 151.381 25.7954 151.204C25.7063 151.111 25.6591 151.006 25.6521 151.025L26.8668 144.878C27.2586 142.93 25.9331 140.901 23.9675 140.503C22.9886 140.306 21.9906 140.504 21.1552 141.062C20.3252 141.616 19.7651 142.453 19.5774 143.41L16.0883 160.074C15.1518 164.352 16.5126 169.042 19.6406 172.31C24.7509 177.65 33.2536 177.837 38.5934 172.727L47.533 164.171C49.0003 162.767 49.0516 160.432 47.6474 158.964Z" fill="white"/>
</g>
<defs>
<linearGradient id="paint0_linear_9859_68908" x1="55.9991" y1="62.0001" x2="55.9991" y2="167.5" gradientUnits="userSpaceOnUse">
<stop offset="0.238123" stop-color="white"/>
<stop offset="1" stop-color="white" stop-opacity="0"/>
</linearGradient>
<linearGradient id="paint1_linear_9859_68908" x1="56.0009" y1="240" x2="56.0009" y2="158" gradientUnits="userSpaceOnUse">
<stop stop-color="#CACACA"/>
<stop offset="1" stop-color="white" stop-opacity="0"/>
</linearGradient>
<clipPath id="clip0_9859_68908">
<rect width="82" height="73" fill="white" transform="translate(19 144) rotate(-90)"/>
</clipPath>
<clipPath id="clip1_9859_68908">
<rect width="82" height="73" fill="white" transform="translate(93 158) rotate(90)"/>
</clipPath>
<clipPath id="clip2_9859_68908">
<rect width="46.0333" height="46.0333" fill="white" transform="translate(34.1562 120.898) rotate(46.2584)"/>
</clipPath>
</defs>
</svg>
