<svg width="24" height="25" viewBox="0 0 24 25" fill="none" xmlns="http://www.w3.org/2000/svg">
<path d="M12.711 13.5435C12.3205 13.934 11.6873 13.934 11.2968 13.5435C10.9063 13.153 10.9063 12.5198 11.2968 12.1293C11.6873 11.7388 12.3205 11.7388 12.711 12.1293C13.1015 12.5198 13.1015 13.153 12.711 13.5435Z" fill="currentColor"/>
<path fill-rule="evenodd" clip-rule="evenodd" d="M0 12.8369C0 6.20949 5.37258 0.836914 12 0.836914C18.6274 0.836914 24 6.20949 24 12.8369C24 19.4643 18.6274 24.8369 12 24.8369C5.37258 24.8369 0 19.4643 0 12.8369ZM17.1005 8.91839C17.1688 8.58862 17.0666 8.24662 16.8284 8.00848C16.5903 7.77035 16.2483 7.66807 15.9185 7.73637L9.09009 9.15058C8.69964 9.23145 8.39454 9.53655 8.31368 9.927L6.89946 16.7554C6.83116 17.0852 6.93344 17.4272 7.17158 17.6653C7.40971 17.9035 7.75171 18.0057 8.08148 17.9374L14.9099 16.5232C15.3004 16.4424 15.6055 16.1373 15.6863 15.7468L17.1005 8.91839Z" fill="currentColor"/>
</svg>
