<svg width="15" height="14" viewBox="0 0 15 14" fill="none" xmlns="http://www.w3.org/2000/svg">
<path d="M7.88788 13.5993H7.11457C7.08107 13.592 7.04831 13.5804 7.01481 13.5782C5.98227 13.5054 5.01599 13.2098 4.13491 12.6703C2.42517 11.6227 1.37224 10.112 1.00306 8.13612C0.957188 7.88858 0.933886 7.63741 0.900391 7.38769C0.900391 7.12997 0.900391 6.87224 0.900391 6.61452C0.9084 6.56865 0.917867 6.52352 0.92442 6.47765C0.965926 6.19372 0.989227 5.90541 1.05039 5.62585C1.39482 4.04091 2.20891 2.74283 3.49995 1.76507C5.10628 0.547797 6.91505 0.144465 8.88693 0.555805C10.4656 0.884877 11.7494 1.71193 12.7309 2.98817C13.7911 4.36562 14.2324 5.93453 14.0664 7.66144C13.9317 9.06072 13.3885 10.2955 12.4564 11.3504C11.4341 12.5065 10.1605 13.2265 8.63862 13.4974C8.39032 13.5418 8.13837 13.5665 7.88788 13.6V13.5993Z" fill="currentColor"/>
<path d="M6.39621 8.32328C6.43407 8.28761 6.4683 8.2563 6.50107 8.22354C7.70764 7.01791 8.91348 5.81228 10.1201 4.60666C10.3837 4.34311 10.688 4.28923 10.9713 4.45231C11.3317 4.6598 11.4177 5.13084 11.1519 5.45045C11.1191 5.48976 11.0827 5.52689 11.0463 5.5633C9.68024 6.9189 8.3142 8.2745 6.94816 9.6301C6.6183 9.95699 6.27169 9.96282 5.92654 9.64831C5.21804 9.00327 4.51026 8.3575 3.80102 7.71391C3.61825 7.54792 3.51631 7.35062 3.54616 7.09872C3.60587 6.6022 4.17676 6.35467 4.56851 6.66845C4.83939 6.88541 5.08769 7.13076 5.34474 7.36518C5.67168 7.66295 5.99717 7.9629 6.32339 8.2614C6.34524 8.28105 6.36854 8.29998 6.39548 8.32328H6.39621Z" />
</svg>
