<svg width="110" height="85" viewBox="0 0 301 85" fill="none" xmlns="http://www.w3.org/2000/svg">
<g clip-path="url(#clip0_22825_299246)">
<path d="M42.2961 53.0911V53.8933L31.3827 64.7134L7.41992 36.208L31.3267 42.3176L42.2961 53.0911Z" fill="#111111" stroke="#111111" stroke-width="3.74159" stroke-linecap="round" stroke-linejoin="round"/>
<path d="M77.5835 36.0312L53.4901 64.3594L42.2969 53.4926L53.7326 42.2528L77.5835 36.0312Z" fill="#111111" stroke="#111111" stroke-width="3.74159" stroke-linecap="round" stroke-linejoin="round"/>
<path d="M37.9441 23.7836L15.0966 23.8489L7.41992 36.2081L31.3267 42.3177L42.2961 53.0911V53.8933L31.3827 64.7134L42.3427 69.7504L53.4893 64.359L42.2961 53.4922L53.7318 42.2524L77.5827 36.0308L69.8407 23.709L47.0305 23.7743" stroke="#111111" stroke-width="3.74159" stroke-linecap="round" stroke-linejoin="round"/>
<path d="M42.2969 53.4922V53.8933" stroke="#111111" stroke-width="2.7983" stroke-linecap="round" stroke-linejoin="round"/>
<path d="M52.7958 42.2525L41.5559 27.3375L38.8789 23.7837" stroke="#111111" stroke-width="3.74159" stroke-linecap="round" stroke-linejoin="round"/>
<path d="M46.0966 23.7739L43.4289 27.3371L32.2637 42.3173" stroke="#111111" stroke-width="3.74159" stroke-linecap="round" stroke-linejoin="round"/>
<path d="M42.2969 53.4919V53.0908" stroke="#111111" stroke-width="2.7983" stroke-linecap="round" stroke-linejoin="round"/>
<path d="M33.5001 73.6863L32.0729 58.79L26.9707 60.2265L33.5001 73.6863Z" fill="#111111"/>
<path d="M51.4453 73.6493L52.7885 58.7437L57.9094 60.1428L51.4453 73.6493Z" fill="#111111"/>
<g clip-path="url(#clip1_22825_299246)">
<path d="M45.4386 24.2123L45.7452 24.3508L46.1195 24.4673L46.1176 24.4711L45.9161 24.4081L45.8454 24.3851L45.8426 24.3947L45.7719 24.3632L45.4386 24.2123Z" fill="#111111"/>
<path d="M65.5919 19.4165H65.5909C65.0198 20.1547 63.5864 20.0697 61.2115 19.1568C60.6156 18.9285 59.9671 18.6926 59.2796 18.4415L59.0848 18.3708C55.7166 17.1437 51.9063 15.7561 49.8694 13.9952L49.8465 13.9751C49.7825 13.9198 49.7195 13.8644 49.6565 13.8109C49.4578 14.6054 49.1713 15.547 48.8295 16.6739L48.7722 16.861C48.6461 17.2745 48.5172 17.7004 48.3864 18.1407C48.1342 18.9906 47.884 19.8644 47.6291 20.7601L47.6253 20.7773C47.2776 21.9949 46.9511 23.1408 46.6627 24.0461L46.4869 24.5933L45.9149 24.4081L46.1164 24.4711L46.1183 24.4673L45.744 24.3508L45.4374 24.2123L45.1443 24.0796L45.1414 24.0777L44.9495 23.9917L44.3125 23.8628L44.5264 22.798C44.8406 21.2233 45.1385 19.7355 45.6179 17.9573C45.893 16.9365 46.1384 15.9233 46.3361 15.1096L46.3638 14.9941C47.1258 11.8484 47.4085 10.8448 48.1524 10.5784C48.2899 10.5287 48.3911 10.522 48.479 10.5306C48.6375 10.5468 48.7808 10.629 48.8829 10.7512C48.9603 10.8429 49.0224 10.9346 49.0644 10.9441C49.2239 10.7216 49.4559 10.4103 49.6841 10.3807C50.2858 10.3024 50.621 10.8438 50.9265 11.2354C51.0039 11.3347 51.0918 11.433 51.1949 11.5352L51.5902 11.9287C51.7908 12.1282 52.0868 12.3565 52.3275 12.4978C55.7548 14.5071 59.5871 15.6005 61.8761 16.2537C62.748 16.5039 63.4317 16.6996 63.8471 16.8715C64.8097 17.2726 65.3808 17.6832 65.5909 18.1263C66.0082 18.7805 65.6979 19.278 65.5919 19.4165Z" fill="#111111"/>
<path d="M45.7727 24.3628L45.8463 24.3857L45.9169 24.4077L46.1184 24.4707L46.1203 24.4669L45.746 24.3504L45.4395 24.2119L45.7727 24.3628Z" fill="#111111"/>
</g>
<g clip-path="url(#clip2_22825_299246)">
<path d="M39.5633 24.2118L39.2568 24.3503L38.8825 24.4668L38.8844 24.4706L39.0859 24.4076L39.1565 24.3846L39.1594 24.3942L39.2301 24.3627L39.5633 24.2118Z" fill="#111111"/>
<path d="M19.4101 19.4165H19.411C19.9821 20.1547 21.4155 20.0697 23.7905 19.1568C24.3864 18.9285 25.0348 18.6926 25.7224 18.4415L25.9172 18.3708C29.2853 17.1437 33.0956 15.7561 35.1325 13.9952L35.1555 13.9751C35.2194 13.9198 35.2825 13.8644 35.3455 13.8109C35.5441 14.6054 35.8306 15.547 36.1725 16.6739L36.2298 16.861C36.3558 17.2745 36.4848 17.7004 36.6156 18.1407C36.8677 18.9906 37.1179 19.8644 37.3729 20.7601L37.3767 20.7773C37.7243 21.9949 38.0509 23.1408 38.3393 24.0461L38.515 24.5933L39.087 24.4081L38.8855 24.4711L38.8836 24.4673L39.258 24.3508L39.5645 24.2123L39.8577 24.0796L39.8605 24.0777L40.0525 23.9917L40.6895 23.8628L40.4755 22.798C40.1614 21.2233 39.8634 19.7355 39.384 17.9573C39.109 16.9365 38.8636 15.9233 38.6659 15.1096L38.6382 14.9941C37.8761 11.8484 37.5935 10.8448 36.8496 10.5784C36.712 10.5287 36.6108 10.522 36.523 10.5306C36.3644 10.5468 36.2212 10.629 36.119 10.7512C36.0417 10.8429 35.9796 10.9346 35.9376 10.9441C35.7781 10.7216 35.546 10.4103 35.3178 10.3807C34.7162 10.3024 34.381 10.8438 34.0754 11.2354C33.9981 11.3347 33.9102 11.433 33.8071 11.5352L33.4117 11.9287C33.2112 12.1282 32.9151 12.3565 32.6745 12.4978C29.2471 14.5071 25.4149 15.6005 23.1258 16.2537C22.254 16.5039 21.5702 16.6996 21.1548 16.8715C20.1922 17.2726 19.6211 17.6832 19.411 18.1263C18.9937 18.7805 19.3041 19.278 19.4101 19.4165Z" fill="#111111"/>
<path d="M39.2292 24.3628L39.1557 24.3857L39.085 24.4077L38.8835 24.4707L38.8816 24.4669L39.256 24.3504L39.5625 24.2119L39.2292 24.3628Z" fill="#111111"/>
</g>
</g>
<path d="M101.001 49.191C99.2396 49.191 97.725 48.5728 96.4578 47.3364C95.2214 46.0692 94.6033 44.5546 94.6033 42.7928V25.2212V23.5985V20.9558H101.511V16.6903H106.89V20.9558H113.798V23.5985V25.2212V44.9255V49.191H108.466H106.89V51.88H112.082C113.226 53.7655 113.798 55.8054 113.798 58V60.4109V64.6763H108.466H106.89H101.511H94.6033V60.4109H101.511V49.191H101.001ZM115.42 51.9727L130.349 49.33V53.5955L115.42 56.2382V51.9727ZM135.635 20.9558V32.0366C135.635 34.3238 135.078 36.3638 133.966 38.1565H128.495C129.731 36.3329 130.349 34.2929 130.349 32.0366V20.9558H115.42V16.6903H130.349H135.635V20.9558ZM137.257 45.111V58.5563C137.257 59.5145 137.118 60.5499 136.84 61.6627C136.562 62.7445 136.129 63.749 135.542 64.6763H130.117C131.323 62.8526 131.926 60.8127 131.926 58.5563V45.111H121.818C120.057 45.111 118.542 44.4928 117.275 43.2565C116.039 41.9892 115.42 40.4747 115.42 38.7129V23.5985H120.706V40.8456H137.257V42.6074V45.111ZM101.511 25.2212H99.935V44.9255H101.511V25.2212ZM106.89 60.4109H108.466V58C108.466 55.8673 107.94 53.9355 106.89 52.2046V60.4109ZM106.89 44.9255H108.466V25.2212H106.89V44.9255ZM180.375 16.6903V23.3203C180.375 25.6075 179.819 27.6475 178.706 29.4402H173.235C174.441 27.5857 175.043 25.5457 175.043 23.3203V16.6903H180.375ZM158.074 16.6903V20.9558H164.983V23.5985V25.2212V44.9255V49.191H159.651H158.074V51.88H163.267C164.411 53.6727 164.983 55.7127 164.983 58V60.4109V64.6763H159.651H158.074H152.696H145.788V60.4109H152.696V49.191H152.186C150.425 49.191 148.91 48.5728 147.643 47.3364C146.406 46.0692 145.788 44.5546 145.788 42.7928V25.2212V23.5985V20.9558H152.696V16.6903H158.074ZM152.696 25.2212H151.12V44.9255H152.696V25.2212ZM158.074 60.4109H159.651V58C159.651 55.8673 159.125 53.9355 158.074 52.2046V60.4109ZM158.074 44.9255H159.651V25.2212H158.074V44.9255ZM166.605 16.6903H171.891V29.4866L177.501 41.4483L183.111 29.4866V16.6903H188.442V29.4866L180.19 47.0582L188.442 64.6763H183.111L177.501 52.7146L171.891 64.6763H166.605L174.858 47.0582L166.605 29.4866V16.6903ZM225.765 59.9472L239.627 53.5027V58.1854L225.765 64.6763V59.9472ZM203.371 51.3237C201.702 51.3237 200.25 50.7673 199.013 49.6546C197.808 48.511 197.143 47.1201 197.02 45.4819H196.973V44.9255V41.2165H202.305H218.857H224.188V45.4819V47.0582V51.3237H218.857H213.247V58.5563C213.247 60.8127 212.69 62.8526 211.578 64.6763H206.107C207.312 62.8526 207.915 60.8127 207.915 58.5563V51.3237H203.371ZM202.305 45.4819V47.1046H218.857V45.4819H202.305ZM203.371 32.6857C201.702 32.6857 200.25 32.1293 199.013 31.0166C197.808 29.873 197.143 28.4821 197.02 26.8439H196.973V26.2875V22.5321V20.9558V16.6903H202.305H218.857H224.188V20.9558V28.4202V32.6857H218.857H212.876L214.406 35.3284H224.188V39.5938H196.973V35.3284H208.286L206.709 32.6857H203.371ZM202.305 20.9558V22.5321H218.718L216.26 26.7975H202.305V28.4202H218.857V20.9558H202.305ZM217.048 54.0127H222.38V58.5563C222.38 60.8436 222.983 62.8836 224.188 64.6763H218.718C217.605 62.8526 217.048 60.8127 217.048 58.5563V54.0127ZM204.113 54.0127V58.5563C204.113 60.8127 203.557 62.8526 202.444 64.6763H196.973C198.179 62.8836 198.781 60.8436 198.781 58.5563V54.0127H204.113ZM225.765 23.1812L239.627 16.6903V21.4194L225.765 27.9102V23.1812ZM225.765 41.5874L239.627 35.0965V39.8256L225.765 46.2701V41.5874ZM267.074 16.7367H272.406H285.481H290.812V21.0021V39.362C290.812 41.6492 290.241 43.6892 289.097 45.4819H283.672C284.878 43.6583 285.481 41.6183 285.481 39.362V21.0021H272.406V45.4819H267.074V21.0021V16.7367ZM260.166 32.1293V25.2675H248.158V21.0021H254.974L252.516 16.7367H258.683L261.094 21.0021H265.498V25.2675V32.5466V33.1029L259.471 40.7992L265.498 43.1174V48.0319L259.517 45.7601V64.769H254.185V47.7073L248.205 55.4036V47.5682L260.213 32.1293H260.166ZM276.301 25.2675H281.632V38.0638L272.453 64.6763H267.074L276.254 38.0638V25.2675H276.301ZM286.547 64.6763C284.785 64.6763 283.271 64.0581 282.003 62.8217C280.767 61.5545 280.149 60.0399 280.149 58.2781V48.171H285.481V60.4109H290.812V64.6763H286.547Z" fill="#111111"/>
<defs>
<clipPath id="clip0_22825_299246">
<rect width="74.8318" height="74.8318" fill="white" transform="translate(5.08594 4.76025)"/>
</clipPath>
<clipPath id="clip1_22825_299246">
<rect width="21.4904" height="14.2203" fill="white" transform="translate(44.3125 10.373)"/>
</clipPath>
<clipPath id="clip2_22825_299246">
<rect width="21.4904" height="14.2203" fill="white" transform="matrix(-1 0 0 1 40.6895 10.373)"/>
</clipPath>
</defs>
</svg>
