<svg width="55" height="55" viewBox="0 0 55 55" fill="none" xmlns="http://www.w3.org/2000/svg">
<path d="M30.3633 47.4626C30.3633 49.0942 29.0408 50.4167 27.4092 50.4167C25.7775 50.4167 24.455 49.0942 24.455 47.4626C24.455 45.8309 25.7775 44.5085 27.4092 44.5085C29.0408 44.5085 30.3633 45.8309 30.3633 47.4626ZM16.1158 16.7735C15.6696 15.8913 14.5926 15.5378 13.71 15.9843C10.4999 17.6086 7.59023 19.8074 5.06273 22.5195C4.38854 23.243 4.42841 24.3759 5.15155 25.0501C5.49669 25.3715 5.93484 25.5306 6.37194 25.5306C6.85135 25.5306 7.32937 25.3393 7.6822 24.961C9.92156 22.558 12.4938 20.6127 15.3266 19.1793C16.2092 18.7328 16.5624 17.6558 16.1158 16.7735ZM49.935 22.5195C47.3312 19.7262 44.3257 17.4792 41.0016 15.8416C40.1145 15.4049 39.0413 15.7696 38.6042 16.6567C38.1675 17.5435 38.5322 18.6171 39.4193 19.0538C42.3525 20.499 45.009 22.4863 47.3155 24.961C47.668 25.3393 48.1463 25.5306 48.6258 25.5306C49.0629 25.5306 49.501 25.3715 49.8458 25.0501C50.5689 24.3759 50.6088 23.243 49.935 22.5195ZM27.4983 23.1178C21.6174 23.1178 15.984 25.5313 11.6361 29.9135C10.9395 30.6153 10.944 31.749 11.6458 32.4452C11.9948 32.7917 12.4508 32.9648 12.9068 32.9648C13.3673 32.9648 13.8279 32.7882 14.1775 32.4354C17.8485 28.7361 22.5793 26.6985 27.4983 26.6985C32.4162 26.6985 37.1471 28.7358 40.8191 32.4357C41.5157 33.1372 42.6493 33.1417 43.3512 32.4452C44.053 31.7486 44.0572 30.6149 43.3606 29.9131C39.0113 25.5309 33.3779 23.1178 27.4983 23.1178ZM27.4819 33.5872C27.4815 33.5872 27.4808 33.5872 27.4805 33.5872H27.3515C27.3508 33.5872 27.3508 33.5872 27.3501 33.5872C24.3043 33.5872 20.9652 35.0209 18.6363 37.3285C17.9338 38.0243 17.9286 39.158 18.6244 39.8605C18.9745 40.2137 19.4354 40.3906 19.8962 40.3906C20.3519 40.3906 20.8072 40.2179 21.1565 39.872C22.8147 38.2292 25.2457 37.168 27.3504 37.168H27.3511H27.4808H27.4815C29.5859 37.168 32.0173 38.2292 33.6755 39.872C34.3776 40.5679 35.5113 40.563 36.2072 39.8605C36.903 39.158 36.8978 38.0243 36.1956 37.3285C33.8664 35.0206 30.5276 33.5872 27.4819 33.5872ZM20.4141 19.0979C20.7634 19.4475 21.2219 19.6224 21.68 19.6224C22.1384 19.6224 22.5965 19.4475 22.9458 19.0979L27.4092 14.6349L31.8725 19.0979C32.2218 19.4475 32.6803 19.6224 33.1383 19.6224C33.5968 19.6224 34.0549 19.4475 34.4042 19.0979C35.1036 18.3989 35.1036 17.2652 34.4042 16.5662L29.9412 12.1029L34.4042 7.63954C35.1036 6.94052 35.1036 5.80686 34.4042 5.10785C33.7052 4.40849 32.5715 4.40849 31.8725 5.10785L27.4092 9.57082L22.9458 5.10785C22.2468 4.40849 21.1131 4.40849 20.4141 5.10785C19.7148 5.80686 19.7148 6.94052 20.4141 7.63954L24.8771 12.1029L20.4141 16.5662C19.7148 17.2652 19.7148 18.3989 20.4141 19.0979Z" fill="url(#paint0_linear_2833_54523)"/>
<defs>
<linearGradient id="paint0_linear_2833_54523" x1="4.58195" y1="27.5" x2="50.4154" y2="27.5" gradientUnits="userSpaceOnUse">
<stop stop-color="white"/>
<stop offset="1" stop-color="#454545"/>
</linearGradient>
</defs>
</svg>
