<svg width="25" height="24" viewBox="0 0 25 24" fill="none" xmlns="http://www.w3.org/2000/svg">
    <path fill-rule="evenodd" clip-rule="evenodd"
        d="M9.10672 3.24982H16.3933C17.4815 3.2498 18.3589 3.24979 19.0604 3.3258C19.7853 3.40433 20.4107 3.57116 20.9542 3.966C21.2726 4.1973 21.5525 4.47727 21.7838 4.79562C22.1787 5.33908 22.3455 5.96454 22.424 6.68939C22.5 7.39092 22.5 8.26835 22.5 9.35651V10.6431C22.5 11.7313 22.5 12.6087 22.424 13.3102C22.3455 14.0351 22.1787 14.6606 21.7838 15.204C21.5525 15.5224 21.2726 15.8023 20.9542 16.0336C20.4107 16.4285 19.7853 16.5953 19.0604 16.6738C18.3589 16.7498 17.4815 16.7498 16.3933 16.7498H15.5607L16.7733 17.9624C17.0356 18.2247 17.2775 18.4666 17.4438 18.6764C17.5979 18.871 17.8509 19.2317 17.7775 19.6954C17.7466 19.8902 17.6701 20.075 17.5542 20.2346C17.2783 20.6143 16.8443 20.6905 16.5977 20.7191C16.3318 20.7499 15.9896 20.7499 15.6187 20.7498H9.88127C9.51036 20.7499 9.16825 20.7499 8.90233 20.7191C8.65573 20.6905 8.22175 20.6143 7.94584 20.2346C7.82989 20.075 7.75336 19.8902 7.7225 19.6954C7.64907 19.2317 7.90209 18.871 8.05624 18.6764C8.22246 18.4666 8.46439 18.2247 8.72669 17.9625L9.93934 16.7498H9.10669C8.01854 16.7498 7.1411 16.7498 6.43957 16.6738C5.71472 16.5953 5.08926 16.4285 4.54581 16.0336C4.22745 15.8023 3.94749 15.5224 3.71619 15.204C3.32134 14.6606 3.15452 14.0351 3.07598 13.3102C2.99998 12.6087 2.99999 11.7313 3 10.6431V9.35653C2.99999 8.26836 2.99998 7.39092 3.07598 6.68939C3.15452 5.96454 3.32134 5.33908 3.71619 4.79562C3.94749 4.47727 4.22745 4.1973 4.54581 3.966C5.08926 3.57116 5.71472 3.40433 6.43957 3.3258C7.1411 3.24979 8.01855 3.2498 9.10672 3.24982ZM12.0607 16.7498L9.81673 18.9938C9.71993 19.0906 9.6359 19.1748 9.56294 19.2489C9.66694 19.2497 9.7859 19.2498 9.92279 19.2498H15.5772C15.7141 19.2498 15.8331 19.2497 15.9371 19.2489C15.8641 19.1748 15.7801 19.0906 15.6833 18.9938L13.4393 16.7498H12.0607ZM6.60114 4.81707C6.00392 4.88178 5.67262 5.00143 5.42748 5.17953C5.23647 5.31831 5.06849 5.48629 4.92971 5.6773C4.75161 5.92244 4.63196 6.25374 4.56726 6.85096C4.50103 7.46222 4.5 8.25819 4.5 9.39982V10.5998C4.5 11.7414 4.50103 12.5374 4.56726 13.1487C4.63196 13.7459 4.75161 14.0772 4.92971 14.3223C5.06849 14.5133 5.23647 14.6813 5.42748 14.8201C5.67262 14.9982 6.00392 15.1179 6.60114 15.1826C7.2124 15.2488 8.00837 15.2498 9.15 15.2498H16.35C17.4916 15.2498 18.2876 15.2488 18.8989 15.1826C19.4961 15.1179 19.8274 14.9982 20.0725 14.8201C20.2635 14.6813 20.4315 14.5133 20.5703 14.3223C20.7484 14.0772 20.868 13.7459 20.9327 13.1487C20.999 12.5374 21 11.7414 21 10.5998V9.39982C21 8.25819 20.999 7.46222 20.9327 6.85096C20.868 6.25374 20.7484 5.92244 20.5703 5.6773C20.4315 5.48629 20.2635 5.31831 20.0725 5.17953C19.8274 5.00143 19.4961 4.88178 18.8989 4.81707C18.2876 4.75085 17.4916 4.74982 16.35 4.74982H9.15C8.00838 4.74982 7.2124 4.75085 6.60114 4.81707Z"
        fill="currentColor" />
</svg>