<svg width="40" height="40" viewBox="0 0 40 40" fill="none" xmlns="http://www.w3.org/2000/svg">
<path d="M27.7647 16.1373H16.3313V11.7033C16.3313 9.74776 17.9762 8.15686 19.998 8.15686C22.0198 8.15686 23.6647 9.74776 23.6647 11.7033V13.7647H25.8215V11.7033C25.8215 8.55847 23.2091 6 19.998 6C16.7869 6 14.1745 8.55847 14.1745 11.7033V16.1373H12.2353C10.4514 16.1373 9 17.5886 9 19.3725V30.3725C9 32.1565 10.4514 33.6078 12.2353 33.6078H27.7647C29.5486 33.6078 31 32.1565 31 30.3725V19.3725C31 17.5886 29.5486 16.1373 27.7647 16.1373ZM28.8431 30.3725C28.8431 30.9672 28.3594 31.451 27.7647 31.451H12.2353C11.6406 31.451 11.1569 30.9672 11.1569 30.3725V19.3725C11.1569 18.7779 11.6406 18.2941 12.2353 18.2941H27.7647C28.3594 18.2941 28.8431 18.7779 28.8431 19.3725V30.3725Z" fill="white"/>
<path d="M19.999 21.4219C18.8971 21.4219 18.0039 22.3151 18.0039 23.417C18.0039 24.1205 18.3684 24.7386 18.9186 25.0938V27.4611C18.9186 28.0567 19.4014 28.5395 19.997 28.5395C20.5926 28.5395 21.0754 28.0567 21.0754 27.4611V25.0964C21.6278 24.7416 21.9941 24.1223 21.9941 23.417C21.9941 22.3151 21.1009 21.4219 19.999 21.4219Z" fill="white"/>
</svg>
