<svg width="24" height="24" viewBox="0 0 24 24" fill="none" xmlns="http://www.w3.org/2000/svg">
<path fill-rule="evenodd" clip-rule="evenodd" d="M8.0994 19.65C5.8224 19.65 4.35 18.0903 4.35 15.6756V8.3244C4.35 5.9097 5.8224 4.35 8.0994 4.35H15.9015C18.1785 4.35 19.65 5.9097 19.65 8.3244V15.6756C19.65 18.0903 18.1785 19.65 15.9015 19.65H8.0994ZM15.9015 3H8.0994C5.0493 3 3 5.1402 3 8.3244V15.6756C3 18.8598 5.0493 21 8.0994 21H15.9015C18.9516 21 21 18.8598 21 15.6756V8.3244C21 5.1402 18.9516 3 15.9015 3V3Z" fill="#FAC33D"/>
<path d="M8.0994 19.785C6.92888 19.785 5.95419 19.3833 5.27264 18.661C4.59183 17.9394 4.215 16.9103 4.215 15.6756H4.485C4.485 16.8556 4.84437 17.8137 5.46901 18.4757C6.09291 19.1369 6.99292 19.515 8.0994 19.515V19.785ZM4.215 15.6756V8.3244H4.485V15.6756H4.215ZM4.215 8.3244C4.215 7.08967 4.59183 6.06056 5.27264 5.33904C5.95419 4.61672 6.92888 4.215 8.0994 4.215V4.485C6.99292 4.485 6.09291 4.86313 5.46901 5.52434C4.84437 6.18634 4.485 7.14443 4.485 8.3244H4.215ZM8.0994 4.215H15.9015V4.485H8.0994V4.215ZM15.9015 4.215C17.072 4.215 18.0465 4.61672 18.7278 5.33906C19.4084 6.06059 19.785 7.08969 19.785 8.3244H19.515C19.515 7.14441 19.1558 6.18631 18.5314 5.52432C17.9078 4.86313 17.008 4.485 15.9015 4.485V4.215ZM19.785 8.3244V15.6756H19.515V8.3244H19.785ZM19.785 15.6756C19.785 16.9103 19.4084 17.9394 18.7278 18.6609C18.0465 19.3833 17.072 19.785 15.9015 19.785V19.515C17.008 19.515 17.9078 19.1369 18.5314 18.4757C19.1558 17.8137 19.515 16.8556 19.515 15.6756H19.785ZM15.9015 19.785H8.0994V19.515H15.9015V19.785ZM15.9015 3.135H8.0994V2.865H15.9015V3.135ZM8.0994 3.135C6.60711 3.135 5.36886 3.65781 4.50341 4.5615C3.63748 5.4657 3.135 6.76154 3.135 8.3244H2.865C2.865 6.70306 3.38717 5.3367 4.30841 4.37475C5.23014 3.41229 6.54159 2.865 8.0994 2.865V3.135ZM3.135 8.3244V15.6756H2.865V8.3244H3.135ZM3.135 15.6756C3.135 17.2385 3.63748 18.5343 4.50341 19.4385C5.36886 20.3422 6.60711 20.865 8.0994 20.865V21.135C6.54159 21.135 5.23014 20.5877 4.30841 19.6252C3.38717 18.6633 2.865 17.2969 2.865 15.6756H3.135ZM8.0994 20.865H15.9015V21.135H8.0994V20.865ZM15.9015 20.865C17.3938 20.865 18.6318 20.3422 19.497 19.4385C20.3627 18.5343 20.865 17.2385 20.865 15.6756H21.135C21.135 17.2969 20.6131 18.6633 19.692 19.6252C18.7705 20.5877 17.4593 21.135 15.9015 21.135V20.865ZM20.865 15.6756V8.3244H21.135V15.6756H20.865ZM20.865 8.3244C20.865 6.76152 20.3627 5.46568 19.497 4.56149C18.6318 3.65781 17.3938 3.135 15.9015 3.135V2.865C17.4593 2.865 18.7705 3.41229 19.692 4.37476C20.6131 5.33672 21.135 6.70308 21.135 8.3244H20.865Z" fill="#FAC33D"/>
<path fill-rule="evenodd" clip-rule="evenodd" d="M12 7.64774C11.6274 7.64774 11.325 7.95014 11.325 8.32274V15.6775C11.325 16.0501 11.6274 16.3525 12 16.3525C12.3726 16.3525 12.675 16.0501 12.675 15.6775V8.32274C12.675 7.95014 12.3726 7.64774 12 7.64774" fill="#FAC33D"/>
<path d="M12 7.64774C11.6274 7.64774 11.325 7.95014 11.325 8.32274V15.6775C11.325 16.0501 11.6274 16.3525 12 16.3525C12.3726 16.3525 12.675 16.0501 12.675 15.6775V8.32274C12.675 7.95014 12.3726 7.64774 12 7.64774" stroke="#FAC33D" stroke-width="0.27"/>
<path fill-rule="evenodd" clip-rule="evenodd" d="M11.9997 7.64673C11.8206 7.64673 11.6478 7.71783 11.5218 7.84563L8.14864 11.2332C7.88494 11.4978 7.88674 11.9253 8.15044 12.1881C8.41504 12.45 8.84164 12.4518 9.10444 12.1863L11.9997 9.27843L14.895 12.1863C15.1587 12.4518 15.5853 12.45 15.849 12.1881C16.1127 11.9253 16.1145 11.4978 15.8508 11.2332L12.4776 7.84563C12.3516 7.71783 12.1788 7.64673 11.9997 7.64673" fill="#FAC33D"/>
<path d="M11.9997 7.64673C11.8206 7.64673 11.6478 7.71783 11.5218 7.84563L8.14864 11.2332C7.88494 11.4978 7.88674 11.9253 8.15044 12.1881C8.41504 12.45 8.84164 12.4518 9.10444 12.1863L11.9997 9.27843L14.895 12.1863C15.1587 12.4518 15.5853 12.45 15.849 12.1881C16.1127 11.9253 16.1145 11.4978 15.8508 11.2332L12.4776 7.84563C12.3516 7.71783 12.1788 7.64673 11.9997 7.64673" stroke="#FAC33D" stroke-width="0.27"/>
</svg>
