<svg width="27" height="27" viewBox="0 0 27 27" fill="none" xmlns="http://www.w3.org/2000/svg">
<g clip-path="url(#clip0_3707_11501)">
<path fill-rule="evenodd" clip-rule="evenodd" d="M9.84361 4.83667H9.91501H9.91563C11.3746 4.83667 12.5185 4.83667 13.4379 4.9093C14.3742 4.98326 15.1477 5.13638 15.8478 5.48129C16.9989 6.04831 17.9346 6.95308 18.5211 8.06592C18.5743 8.16692 18.6231 8.26951 18.6679 8.37402C19.9091 7.84975 20.9255 7.42415 21.7506 7.20775C22.6281 6.97758 23.4829 6.93016 24.2471 7.41362C25.0113 7.89708 25.3087 8.67344 25.4419 9.54307C25.5708 10.3845 25.5708 11.4941 25.5708 12.856V12.8593V14.814V14.8173C25.5708 16.1792 25.5708 17.2888 25.4419 18.1302C25.3087 18.9999 25.0113 19.7763 24.2471 20.2597C23.4829 20.7432 22.6281 20.6958 21.7506 20.4656C20.9255 20.2492 19.9091 19.8236 18.6679 19.2993C18.6231 19.4038 18.5743 19.5065 18.5211 19.6074C17.9346 20.7203 16.9989 21.625 15.8478 22.1921C15.1477 22.5369 14.3742 22.6901 13.4379 22.7641C12.5185 22.8367 11.3741 22.8367 9.91503 22.8367H9.84323C8.38414 22.8367 7.24017 22.8367 6.32074 22.7641C5.38441 22.6901 4.6109 22.5369 3.91075 22.1921C2.75976 21.625 1.82397 20.7203 1.23752 19.6074C0.880779 18.9305 0.72242 18.1826 0.64592 17.2773C0.570793 16.3883 0.570797 15.2822 0.570801 13.8713V13.8712V13.8021V13.8021C0.570797 12.3912 0.570793 11.2851 0.64592 10.396C0.72242 9.49075 0.880779 8.74287 1.23752 8.06592C1.82397 6.95308 2.75976 6.04831 3.91075 5.48129C4.6109 5.13638 5.38442 4.98326 6.32074 4.9093C7.24012 4.83667 8.38402 4.83667 9.84299 4.83667H9.84361ZM5.73096 9.83667C5.17867 9.83667 4.73096 10.2844 4.73096 10.8367C4.73096 11.389 5.17867 11.8367 5.73096 11.8367H9.73096C10.2832 11.8367 10.731 11.389 10.731 10.8367C10.731 10.2844 10.2832 9.83667 9.73096 9.83667H5.73096Z" fill="#6A6A6A"/>
</g>
<defs>
<clipPath id="clip0_3707_11501">
<rect width="26" height="26" fill="white" transform="translate(0.0708008 0.83667)"/>
</clipPath>
</defs>
</svg>
