<svg xmlns="http://www.w3.org/2000/svg" width="30" height="30" fill="none"><path fill="#fff" d="M23.3 16.3v3.9c0 2.3-2 4.2-4.3 4.2h-7.7c-2.4 0-4.3-1.9-4.3-4.2v-3.9c0-2.3 2-4.2 4.3-4.2h.4c.5 0 .9.4.9.8s-.4.8-.9.8h-.4c-1.5 0-2.6 1.1-2.6 2.5v3.9c0 1.4 1.2 2.5 2.6 2.5H19c1.5 0 2.6-1.1 2.6-2.5v-3.9c0-1.4-1.2-2.5-2.6-2.5h-.4c-.5 0-.9-.4-.9-.8s.4-.8.9-.8h.4c2.4 0 4.3 1.9 4.3 4.2Z"/><path fill="#fff" d="M18.7 9.8c0 .2-.1.4-.3.6-.4.3-.9.3-1.2 0L15.9 9v7.5c0 .5-.4.8-.8.8s-.8-.4-.8-.8V9L13 10.4c-.3.3-.8.4-1.2 0-.2-.1-.3-.3-.3-.6 0-.2 0-.4.2-.6l2.8-2.9c.3-.4 1-.4 1.3 0l2.8 3c.1.2.2.4.2.6l-.1-.1Z"/></svg>