<svg xmlns="http://www.w3.org/2000/svg" width="26" height="26" viewBox="0 0 26 26" fill="none"><path fill="currentColor" fill-rule="evenodd" d="M1.822 5.875a1 1 0 0 0-1.506.99l1.863 13.97a4 4 0 0 0 3.965 3.472h13.795a4 4 0 0 0 3.965-3.472l1.863-13.97a1 1 0 0 0-1.506-.99l-4.72 2.832-5.731-6.878a1 1 0 0 0-1.537 0L6.541 8.707l-4.72-2.832Zm9.183 7.238c-.524-.873-1.864-.502-1.864.516 0 .182.05.36.143.516l2.483 4.138a1.486 1.486 0 0 0 2.549 0l2.482-4.138c.094-.156.144-.334.144-.516 0-1.018-1.34-1.389-1.864-.516l-1.897 3.16a.163.163 0 0 1-.28 0l-1.896-3.16Z" clip-rule="evenodd"/></svg>