<svg width="26" height="27" viewBox="0 0 26 27" fill="none" xmlns="http://www.w3.org/2000/svg">
    <g clip-path="url(#clip0_17509_13901)">
        <path fill-rule="evenodd" clip-rule="evenodd" d="M2.60733 6.83038C1.92676 6.42204 1.07581 6.98134 1.1807 7.76805L2.94565 21.0051C3.19669 22.888 4.80279 24.2941 6.70229 24.2941H19.7735C21.673 24.2941 23.2791 22.888 23.5301 21.0051L25.2951 7.76805C25.4 6.98133 24.549 6.42204 23.8684 6.83038L19.3964 9.51357L13.9657 2.99674C13.587 2.54218 12.8888 2.54218 12.51 2.99674L7.07932 9.51357L2.60733 6.83038ZM11.3077 13.6891C10.8117 12.8624 9.54204 13.2141 9.54204 14.1782C9.54204 14.3505 9.58887 14.5195 9.67751 14.6672L12.0299 18.5879C12.5768 19.4993 13.8976 19.4993 14.4444 18.5879L16.7969 14.6672C16.8855 14.5195 16.9323 14.3505 16.9323 14.1782C16.9323 13.2141 15.6627 12.8624 15.1666 13.6891L13.3698 16.6838C13.3097 16.784 13.1646 16.784 13.1046 16.6838L11.3077 13.6891Z" fill="currentColor" />
    </g>
    <defs>
        <clipPath id="clip0_17509_13901">
            <rect width="25" height="24.6342" fill="white" transform="translate(0.515625 1.26453)" />
        </clipPath>
    </defs>
</svg>