<svg width="30" height="30" viewBox="0 0 30 30" fill="none" xmlns="http://www.w3.org/2000/svg">
<path d="M15.6 23.5314C15.3 23.5314 15 23.4314 14.7 23.2314L9.1 18.8314H5.8C5.4 18.8314 5.1 18.5314 5 18.1314V13.3314C5 12.5314 5.6 11.8314 6.5 11.8314H9L14.6 7.33137C15 6.93137 15.6 6.93137 16.2 7.13137C16.7 7.33137 17 7.93137 17 8.43137V21.9314C17 22.5314 16.7 23.0314 16.2 23.2314C16 23.3314 15.8 23.4314 15.5 23.4314L15.6 23.5314ZM9.3 17.3314C9.5 17.3314 9.6 17.3314 9.8 17.5314L15.6 22.0314V8.53137L9.7 13.1314C9.6 13.2314 9.4 13.3314 9.2 13.3314H6.5V17.3314H9.3Z" fill="white"/>
<path d="M18.6009 20.4312C18.3009 20.4312 18.0009 20.2312 17.9009 19.9312C17.8009 19.5312 17.9009 19.1312 18.4009 18.9312C18.4009 18.9312 20.4009 18.1312 20.4009 15.3312C20.4009 12.5312 18.4009 11.8312 18.3009 11.8312C17.9009 11.7312 17.7009 11.2312 17.8009 10.9312C17.9009 10.5312 18.3009 10.3312 18.7009 10.4312C18.8009 10.4312 21.8009 11.5312 21.8009 15.4312C21.8009 19.3312 18.9009 20.3312 18.7009 20.4312H18.5009H18.6009Z" fill="white"/>
<path d="M21.1008 22.9312C20.8008 22.9312 20.6008 22.7312 20.4008 22.5312C20.2008 22.1312 20.4008 21.7312 20.7008 21.5312C20.8008 21.5312 23.7008 19.9312 23.7008 15.4312C23.7008 10.8312 20.8008 9.33115 20.7008 9.33115C20.3008 9.13115 20.2008 8.73115 20.4008 8.33115C20.6008 7.93115 21.0008 7.83115 21.4008 8.03115C21.6008 8.03115 25.2008 9.93115 25.3008 15.5312C25.3008 21.1312 21.7008 22.9312 21.5008 23.0312C21.4008 23.0312 21.3008 23.0312 21.2008 23.0312L21.1008 22.9312Z" fill="white"/>
</svg>
