<svg width="34" height="34" viewBox="0 0 34 34" fill="none" xmlns="http://www.w3.org/2000/svg">
<rect width="34" height="34" rx="17" fill="black" fill-opacity="0.6"/>
<path fill-rule="evenodd" clip-rule="evenodd" d="M26.5 23.866C28.02 22.7893 29 21.1839 29 19.4122C29 16.1525 25.76 13.5193 21.77 13.5193C17.78 13.5193 14.54 16.1623 14.54 19.4122C14.54 22.662 17.78 25.305 21.77 25.305C22.6 25.305 23.39 25.1875 24.13 24.982L24.34 24.9526C24.48 24.9526 24.6 24.9918 24.72 25.0603L26.3 25.9511L26.44 26C26.57 26 26.68 25.8923 26.68 25.7651L26.64 25.5889L26.31 24.3946L26.29 24.2478C26.29 24.0912 26.37 23.9444 26.49 23.866H26.5ZM13.68 7C8.88 7 5 10.1716 5 14.0773C5 16.2112 6.17 18.1298 8 19.4219C8.15 19.5198 8.24 19.696 8.24 19.882L8.21 20.0582L7.82 21.4874L7.77 21.6929C7.77 21.8496 7.9 21.9768 8.06 21.9768L8.23 21.9279L10.13 20.8511C10.27 20.7728 10.42 20.7239 10.59 20.7239L10.85 20.763C11.74 21.0077 12.69 21.1546 13.68 21.1546H14.16C13.97 20.5868 13.87 20.0093 13.87 19.4122C13.87 15.849 17.41 12.9614 21.78 12.9614H22.25C21.59 9.58423 18 7 13.68 7ZM19.37 18.4626C18.84 18.4626 18.41 18.0417 18.41 17.5229C18.41 17.0041 18.84 16.5832 19.37 16.5832C19.9 16.5832 20.33 17.0041 20.33 17.5229C20.33 18.0417 19.9 18.4626 19.37 18.4626ZM24.19 18.4626C23.66 18.4626 23.23 18.0417 23.23 17.5229C23.23 17.0041 23.66 16.5832 24.19 16.5832C24.72 16.5832 25.15 17.0041 25.15 17.5229C25.15 18.0417 24.72 18.4626 24.19 18.4626ZM10.78 12.9418C10.14 12.9418 9.62 12.4328 9.62 11.8063C9.62 11.1798 10.14 10.6708 10.78 10.6708C11.42 10.6708 11.94 11.1798 11.94 11.8063C11.94 12.4328 11.42 12.9418 10.78 12.9418ZM16.56 12.9418C15.92 12.9418 15.4 12.4328 15.4 11.8063C15.4 11.1798 15.92 10.6708 16.56 10.6708C17.2 10.6708 17.72 11.1798 17.72 11.8063C17.72 12.4328 17.2 12.9418 16.56 12.9418Z" fill="#1AD866"/>
</svg>
