<svg width="40" height="40" viewBox="0 0 40 40" fill="none" xmlns="http://www.w3.org/2000/svg">
<rect width="40" height="40" rx="20" fill="url(#paint0_linear_1182_8962)"/>
<path d="M7.86877 31.6357L9.58366 25.4084C8.52345 23.5806 7.96726 21.5106 7.97306 19.3945C7.97306 12.7635 13.3958 7.37231 20.0526 7.37231C23.2854 7.37231 26.3212 8.62354 28.5981 10.8953C30.8807 13.1672 32.1379 16.1886 32.1321 19.4002C32.1321 26.0311 26.7094 31.4224 20.0468 31.4224H20.041C18.0191 31.4224 16.0319 30.915 14.2648 29.9578L7.86877 31.6357ZM14.5719 27.784L14.9369 28.0031C16.478 28.9141 18.245 29.3927 20.0468 29.3985H20.0526C25.5854 29.3985 30.0928 24.9183 30.0928 19.406C30.0928 16.7363 29.05 14.2281 27.1555 12.3369C25.261 10.4456 22.735 9.40772 20.0526 9.40772C14.5198 9.40195 10.0124 13.8821 10.0124 19.3945C10.0124 21.2799 10.5396 23.1193 11.5477 24.7107L11.7852 25.0913L10.7713 28.7758L14.5719 27.784Z" fill="white"/>
<path d="M8.2916 31.215L9.94855 25.2011C8.92309 23.4424 8.38429 21.4416 8.38429 19.4004C8.39009 13.0002 13.6217 7.79346 20.0525 7.79346C23.1752 7.79346 26.101 9.00432 28.3025 11.1954C30.504 13.3865 31.7149 16.3041 31.7149 19.4062C31.7149 25.8065 26.4775 31.0132 20.0525 31.0132H20.0467C18.0943 31.0132 16.1766 30.5231 14.4733 29.6005L8.2916 31.215Z" fill="url(#paint1_linear_1182_8962)"/>
<path d="M7.86877 31.6357L9.58366 25.4084C8.52345 23.5806 7.96726 21.5106 7.97306 19.3945C7.97306 12.7635 13.3958 7.37231 20.0526 7.37231C23.2854 7.37231 26.3212 8.62354 28.5981 10.8953C30.8807 13.1672 32.1379 16.1886 32.1321 19.4002C32.1321 26.0311 26.7094 31.4224 20.0468 31.4224H20.041C18.0191 31.4224 16.0319 30.915 14.2648 29.9578L7.86877 31.6357ZM14.5719 27.784L14.9369 28.0031C16.478 28.9141 18.245 29.3927 20.0468 29.3985H20.0526C25.5854 29.3985 30.0928 24.9183 30.0928 19.406C30.0928 16.7363 29.05 14.2281 27.1555 12.3369C25.261 10.4456 22.735 9.40772 20.0526 9.40772C14.5198 9.40195 10.0124 13.8821 10.0124 19.3945C10.0124 21.2799 10.5396 23.1193 11.5477 24.7107L11.7852 25.0913L10.7713 28.7758L14.5719 27.784Z" fill="url(#paint2_linear_1182_8962)"/>
<path fill-rule="evenodd" clip-rule="evenodd" d="M17.034 14.3667C16.808 13.8651 16.5705 13.8536 16.3561 13.8478C16.1823 13.842 15.9796 13.842 15.7768 13.842C15.574 13.842 15.2496 13.917 14.9715 14.2168C14.6934 14.5167 13.9171 15.2432 13.9171 16.725C13.9171 18.2011 15.0004 19.6311 15.1511 19.8329C15.3017 20.0347 17.2425 23.1657 20.3073 24.3708C22.8565 25.3741 23.3779 25.1723 23.9283 25.1204C24.4787 25.0685 25.7127 24.3938 25.9676 23.6904C26.2167 22.9869 26.2167 22.3873 26.1414 22.2604C26.0661 22.1336 25.8633 22.0586 25.5621 21.9087C25.2608 21.7588 23.7777 21.0323 23.4996 20.9285C23.2215 20.8305 23.0187 20.7786 22.8217 21.0784C22.619 21.3782 22.0396 22.0528 21.8658 22.2547C21.692 22.4565 21.5124 22.4795 21.2111 22.3296C20.9099 22.1797 19.9365 21.8626 18.7836 20.8362C17.8856 20.0405 17.2773 19.0545 17.1035 18.7547C16.9297 18.4549 17.0861 18.2934 17.2368 18.1435C17.37 18.0109 17.538 17.7918 17.6887 17.6188C17.8393 17.4458 17.8914 17.3189 17.9899 17.1171C18.0884 16.9153 18.0421 16.7423 17.9667 16.5924C17.8914 16.4483 17.3005 14.9606 17.034 14.3667Z" fill="white"/>
<defs>
<linearGradient id="paint0_linear_1182_8962" x1="19.999" y1="39.998" x2="19.999" y2="-0.0013995" gradientUnits="userSpaceOnUse">
<stop stop-color="#20B038"/>
<stop offset="1" stop-color="#60D66A"/>
</linearGradient>
<linearGradient id="paint1_linear_1182_8962" x1="20.0026" y1="31.2138" x2="20.0026" y2="7.79264" gradientUnits="userSpaceOnUse">
<stop stop-color="#20B038"/>
<stop offset="1" stop-color="#60D66A"/>
</linearGradient>
<linearGradient id="paint2_linear_1182_8962" x1="20.0028" y1="31.6334" x2="20.0028" y2="7.37231" gradientUnits="userSpaceOnUse">
<stop stop-color="#F9F9F9"/>
<stop offset="1" stop-color="white"/>
</linearGradient>
</defs>
</svg>
