<svg width="40" height="40" viewBox="0 0 40 40" fill="none" xmlns="http://www.w3.org/2000/svg">
<g clip-path="url(#clip0_1182_8968)">
<path d="M19.9984 0.00219727C8.9531 0.00219727 -0.00158691 8.95688 -0.00158691 20.0022C-0.00158691 31.0475 8.9531 40.0022 19.9984 40.0022C31.0437 40.0022 39.9984 31.0475 39.9984 20.0022C39.9984 8.95688 31.0437 0.00219727 19.9984 0.00219727Z" fill="#FFFEFE"/>
<path d="M22.186 18.1953L30.7478 8.24292H28.7189L21.2847 16.8844L15.3471 8.24292H8.49872L17.4776 21.3104L8.49872 31.7469H10.5277L18.3784 22.6212L24.649 31.7469H31.4974L22.1855 18.1953H22.186ZM11.2588 9.77032H14.3751L28.7198 30.289H25.6035L11.2588 9.77032Z" fill="black"/>
</g>
<defs>
<clipPath id="clip0_1182_8968">
<rect width="40" height="40" fill="white"/>
</clipPath>
</defs>
</svg>
