<svg width="31" height="30" viewBox="0 0 31 30" fill="none" xmlns="http://www.w3.org/2000/svg">
<rect x="0.851562" width="30" height="30" rx="8" fill="#EC54AB"/>
<g clip-path="url(#clip0_18204_4891)">
<path d="M7.92256 7.92084L8.09425 8.17073C8.33192 8.51654 8.57753 8.87396 8.83169 9.21855C8.94228 9.36824 9.08953 9.45867 9.25266 9.47944C9.26427 9.48066 9.27648 9.48066 9.28809 9.48188C9.2997 9.48249 9.31131 9.48433 9.32292 9.48433C9.4555 9.48433 9.58442 9.43789 9.69622 9.35052C9.95894 9.14462 10.0054 8.79392 9.80926 8.49699C9.7897 8.46766 9.76954 8.44017 9.74938 8.41451C9.73777 8.39923 9.72555 8.38396 9.71455 8.37052C9.69684 8.34852 9.67912 8.32653 9.66262 8.30331C9.53615 8.12979 9.41029 7.95628 9.2771 7.77237C9.77565 7.69906 10.2345 7.66301 10.6707 7.66301C11.1332 7.66301 11.567 7.70272 11.9959 7.78398C12.7053 7.91901 13.3474 8.22266 13.959 8.71389C14.0897 8.81897 14.2382 8.87457 14.3885 8.87457C14.5785 8.87457 14.7527 8.78415 14.8675 8.62591C14.9653 8.49088 15.0038 8.32103 14.9732 8.15912C14.9414 7.99049 14.84 7.84325 14.6879 7.74488C14.5828 7.67706 14.4789 7.6068 14.3745 7.53654C14.16 7.39235 13.9407 7.24449 13.7109 7.11496C13.5729 7.03676 13.4311 6.96528 13.2839 6.90479C12.4969 6.58097 11.6581 6.42334 10.7196 6.42334C9.97666 6.42334 9.16101 6.52232 8.1529 6.73494C7.97144 6.77282 7.82236 6.88646 7.74294 7.04653C7.6574 7.21883 7.65862 7.42473 7.7466 7.6123C7.79915 7.72472 7.85841 7.82858 7.92256 7.92145V7.92084Z" fill="white"/>
<path d="M25.2244 13.8235C24.7667 12.285 23.9609 11.1706 22.7597 10.4167C21.7125 9.75864 20.6097 9.42505 19.4824 9.42505C18.6985 9.42505 17.892 9.58757 17.0862 9.90711C16.7269 10.0501 16.4 10.1191 16.0878 10.1191C15.7756 10.1191 15.4646 10.0482 15.1506 9.90222C14.3154 9.51364 13.4527 9.44521 13.0073 9.4391C11.5458 9.45071 10.3832 9.78675 9.34939 10.4967C8.92537 10.7881 8.49097 11.1223 8.18548 11.5952C7.54518 12.5856 7.10345 13.6848 6.8725 14.8627C6.73869 15.5446 6.63299 16.1623 6.70081 16.8142C6.87433 18.4876 7.5293 20.0805 8.64738 21.5486C10.3172 23.7414 12.5136 25.2542 15.1757 26.0454C15.5172 26.1468 15.8966 26.2024 16.273 26.2061H16.2913C16.5778 26.2061 16.8564 26.1438 17.1253 26.0833L17.2401 26.0576C19.3547 25.5921 21.1504 24.6616 22.5776 23.2917C25.3973 20.5845 26.2875 17.3989 25.2244 13.8235ZM16.1123 24.9958C16.0316 24.9958 15.9436 24.9835 15.8587 24.9609C13.0281 24.2052 10.7821 22.5952 9.18382 20.1764C8.42804 19.0326 8.00463 17.8302 7.92521 16.6022C7.89405 16.1165 7.98997 15.5983 8.08284 15.0973L8.0975 15.0173C8.28629 13.9982 8.67182 13.0616 9.2443 12.2337C9.40682 11.9991 9.66343 11.7639 10.0074 11.536C10.8927 10.9488 11.8214 10.6507 12.7678 10.6507C13.4246 10.6507 14.104 10.7942 14.7871 11.0777C15.2551 11.272 15.6962 11.3667 16.1361 11.3667C16.576 11.3667 16.9762 11.2757 17.3831 11.0967C18.0442 10.8059 18.7193 10.658 19.3895 10.658C19.7109 10.658 20.0372 10.6922 20.3598 10.7588C22.0149 11.1016 23.1275 11.9704 23.7592 13.4147C24.2083 14.4399 24.4325 15.5 24.446 16.6517C24.4319 18.2567 23.8772 19.8226 22.841 21.1814C21.2292 23.2936 18.9997 24.5748 16.2143 24.9884C16.1819 24.9933 16.1477 24.9958 16.1111 24.9958H16.1123Z" fill="white"/>
<path d="M17.9575 9.01869C18.0211 9.04252 18.0895 9.05474 18.1591 9.05474C18.2899 9.05474 18.4219 9.01197 18.5422 8.93193C18.5978 8.89466 18.6473 8.85495 18.6956 8.81707C18.7151 8.80118 18.7353 8.7853 18.7554 8.77002C19.2241 8.41077 19.7507 8.15782 20.3202 8.01852C20.7973 7.90183 21.3014 7.845 21.8598 7.845C22.2142 7.845 22.5918 7.86761 23.0146 7.91466C23.097 7.92382 23.1801 7.93543 23.2657 7.94826C23.2143 8.01852 23.1624 8.08817 23.1105 8.15843C22.9669 8.35273 22.8233 8.54763 22.6822 8.74375C22.5527 8.92338 22.5117 9.13661 22.5704 9.32845C22.6241 9.50441 22.7573 9.6431 22.9364 9.70909C23.0103 9.73658 23.0842 9.75003 23.1569 9.75003C23.2895 9.75003 23.4783 9.7042 23.6439 9.49525C23.6549 9.4812 23.6659 9.46653 23.6769 9.45126L23.7905 9.28874C24.1021 8.84395 24.4241 8.38388 24.7277 7.92077C24.8811 7.68676 24.9159 7.44909 24.8255 7.25114C24.7363 7.05562 24.5377 6.92732 24.2664 6.89005C24.1381 6.87233 24.0098 6.85461 23.8815 6.83628C23.7221 6.81368 23.562 6.79168 23.4001 6.76969C22.9156 6.70431 22.4219 6.64688 21.9301 6.62428C21.8177 6.61939 21.7046 6.61633 21.594 6.61633C20.5798 6.61633 19.6572 6.8369 18.8514 7.2713C18.5129 7.45398 18.2001 7.67943 17.897 7.89755L17.8268 7.94826C17.6862 8.04968 17.5946 8.19387 17.5695 8.35456C17.5634 8.39427 17.561 8.4346 17.5634 8.47431C17.5695 8.59345 17.6117 8.71015 17.6869 8.81157C17.7577 8.90749 17.8518 8.97836 17.9581 9.01747L17.9575 9.01869Z" fill="white"/>
<path d="M14.6554 5.44951C14.9175 5.78616 15.0977 6.12219 15.2046 6.47106C15.3042 6.79488 15.3812 7.13641 15.4557 7.46695C15.4808 7.57754 15.5058 7.68812 15.5315 7.7981C15.6097 8.13108 15.8407 8.3382 16.1351 8.3382C16.1535 8.3382 16.1724 8.33759 16.1914 8.33576C16.4205 8.3156 16.5964 8.18301 16.6832 7.98261C16.6911 7.96429 16.6985 7.94535 16.7046 7.9264C16.7174 7.88791 16.7272 7.84698 16.7333 7.80421C16.7394 7.76144 16.7431 7.71684 16.7425 7.67102V7.65574L16.74 7.64047C16.6404 6.90424 16.4693 6.26944 16.2164 5.70062C15.9903 5.19168 15.7166 4.77377 15.38 4.42307C15.3488 4.39069 15.317 4.36259 15.2841 4.33692C15.281 4.33448 15.2779 4.33204 15.2749 4.32959C15.1887 4.26483 15.0971 4.22573 15.0048 4.21229C14.9822 4.20923 14.9596 4.20679 14.9364 4.20679C14.8448 4.20679 14.758 4.23245 14.678 4.28316C14.5368 4.37236 14.3615 4.5526 14.3322 4.76522C14.3004 4.99556 14.4647 5.21917 14.5368 5.30471C14.5778 5.35298 14.6169 5.40124 14.6541 5.44951H14.6554Z" fill="white"/>
<path d="M16.9033 12.0743C16.7688 11.9375 16.6008 11.8623 16.4298 11.8623C16.2862 11.8623 16.1518 11.9142 16.0412 12.012C15.7705 12.2509 15.7675 12.6205 16.0326 12.9315C16.0797 12.9865 16.1267 13.0409 16.1744 13.0959C16.3399 13.2865 16.4957 13.4667 16.6344 13.661C17.3786 14.7058 17.7537 15.9797 17.7812 17.5548C17.8008 18.6887 17.6267 19.9082 17.2472 21.2835C17.1403 21.6727 17.3077 22.0124 17.6548 22.1102C17.7104 22.1261 17.7666 22.134 17.8216 22.134C18.0989 22.134 18.3268 21.9379 18.416 21.622C18.8003 20.265 18.9934 18.9979 19.0068 17.746C19.0044 16.4813 18.8089 15.3791 18.4105 14.3765C18.0702 13.5205 17.5631 12.7464 16.9039 12.0755L16.9033 12.0743Z" fill="white"/>
</g>
<defs>
<clipPath id="clip0_18204_4891">
<rect width="18.9787" height="22" fill="white" transform="translate(6.67969 4.20667)"/>
</clipPath>
</defs>
</svg>
