<svg width="28" height="26" viewBox="0 0 28 26" fill="none" xmlns="http://www.w3.org/2000/svg">
<path d="M25.8778 3.04693C23.0497 0.218809 18.4489 0.21755 15.619 3.04244L14.3623 4.2617L12.959 2.85841C11.5252 1.4246 9.61891 0.634966 7.5912 0.635021C5.56349 0.635021 3.65715 1.42465 2.22339 2.85841C0.789633 4.29218 0 6.19851 0 8.22622C0 10.2539 0.789633 12.1603 2.22345 13.594L2.36561 13.7362L2.08774 14.0141C1.57204 14.5298 1.28804 15.2154 1.28804 15.9447C1.28804 16.6739 1.57193 17.3594 2.08741 17.875L2.11193 17.8996C2.63681 18.4244 3.32395 18.69 4.01339 18.6973C4.02056 19.416 4.30325 20.0906 4.81211 20.5997L4.83662 20.6243C5.36151 21.1491 6.04871 21.4147 6.73814 21.422C6.74531 22.1407 7.02795 22.8154 7.53686 23.3245L7.56137 23.349C8.09371 23.8813 8.79283 24.1474 9.49201 24.1474C10.1912 24.1474 10.8904 23.8813 11.4226 23.349L11.8297 22.942L13.4641 24.5763C13.9898 25.102 14.6804 25.3649 15.371 25.3649C16.0616 25.3649 16.7521 25.102 17.2778 24.5763C17.7932 24.0611 18.0552 23.3874 18.0655 22.7106C18.7421 22.7004 19.4159 22.4382 19.9312 21.923C20.4178 21.4364 20.6949 20.7965 20.7187 20.1122C21.3891 20.1017 22.0178 19.8363 22.493 19.3611C23.3567 18.4975 23.4754 17.1667 22.8491 16.1748L25.8614 13.3261C25.867 13.3209 25.8724 13.3155 25.8778 13.3101C28.7074 10.4805 28.7074 5.87648 25.8778 3.04693ZM3.24882 16.7149C3.24871 16.7148 3.2486 16.7147 3.24849 16.7146C3.04285 16.509 2.92963 16.2356 2.92963 15.9448C2.92963 15.654 3.04285 15.3806 3.24849 15.1749L5.71222 12.7112C5.91787 12.5056 6.19126 12.3923 6.48199 12.3923C6.77278 12.3923 7.04623 12.5056 7.25214 12.7115L7.27611 12.7354C7.70059 13.1599 7.70059 13.8506 7.27611 14.2751L4.81238 16.7388C4.38785 17.1634 3.69721 17.1633 3.27301 16.7392L3.24882 16.7149ZM5.97352 19.4396C5.97341 19.4395 5.9733 19.4394 5.97319 19.4393C5.76755 19.2337 5.65433 18.9603 5.65433 18.6695C5.65433 18.3787 5.76755 18.1053 5.97319 17.8996L8.43692 15.4359C8.64256 15.2303 8.91595 15.117 9.20669 15.117C9.49748 15.117 9.77092 15.2303 9.97684 15.4362L10.0008 15.4601C10.4253 15.8846 10.4253 16.5753 10.0008 16.9998L7.53708 19.4635C7.11255 19.8881 6.42191 19.888 5.9977 19.4639L5.97352 19.4396ZM8.72246 22.1886L8.69827 22.1644C8.69816 22.1642 8.69805 22.1641 8.69794 22.164C8.4923 21.9584 8.37908 21.6851 8.37908 21.3942C8.37908 21.1034 8.4923 20.83 8.69794 20.6244L11.1617 18.1607C11.3673 17.955 11.6407 17.8418 11.9314 17.8418C12.2222 17.8418 12.4957 17.955 12.7016 18.161L12.7256 18.1849C13.15 18.6094 13.15 19.3001 12.7256 19.7245L10.2618 22.1883C9.83735 22.6128 9.14666 22.6127 8.72246 22.1886ZM16.117 23.4156C15.7056 23.827 15.0363 23.8271 14.6248 23.4156L12.9905 21.7813L13.8864 20.8854C14.0944 20.6773 14.2612 20.4435 14.3879 20.1944L16.117 21.9235C16.5284 22.3349 16.5284 23.0042 16.117 23.4156ZM21.3322 18.2004C20.971 18.5616 20.3834 18.5615 20.0223 18.2004L19.0428 17.221L18.3938 16.572C18.3938 16.572 18.3937 16.5719 18.3936 16.5719L17.7023 15.8805C17.3818 15.56 16.862 15.56 16.5415 15.8805C16.2209 16.2011 16.2209 16.7208 16.5415 17.0413L17.882 18.3819L18.7703 19.2702C18.9696 19.4695 19.0793 19.7344 19.0793 20.0163C19.0793 20.2981 18.9696 20.563 18.7703 20.7623C18.3589 21.1737 17.6896 21.1737 17.2782 20.7623L15.749 19.2331C15.7462 19.2304 15.7433 19.2282 15.7406 19.2255L15.0795 18.5644C14.9483 18.4332 14.7836 18.3567 14.613 18.3329C14.5014 17.8529 14.2595 17.3973 13.886 17.0239L13.8621 17C13.353 16.4909 12.6782 16.2081 11.9593 16.2009C11.952 15.5114 11.6863 14.8242 11.1613 14.2991L11.1373 14.2752C10.6282 13.7661 9.95342 13.4833 9.2346 13.4762C9.22726 12.7867 8.96165 12.0995 8.43659 11.5744L8.41262 11.5505C7.89693 11.0348 7.21132 10.7508 6.48199 10.7508C5.75272 10.7508 5.06711 11.0348 4.55141 11.5505L3.52637 12.5755L3.3842 12.4334C2.26055 11.3095 1.64165 9.81544 1.64165 8.22622C1.64165 6.637 2.26055 5.14293 3.38426 4.01922C4.50796 2.89552 6.00208 2.27661 7.59125 2.27661C9.18042 2.27661 10.6745 2.89552 11.7982 4.01922L13.184 5.40494L10.7862 7.73121C10.2141 8.28483 9.89542 9.02817 9.88885 9.82431C9.88228 10.6205 10.1887 11.3689 10.7517 11.9319C11.3082 12.4884 12.0481 12.7949 12.8351 12.7949C13.6221 12.7949 14.3619 12.4884 14.9184 11.9319L15.6459 11.2044L21.135 16.6935C21.1366 16.6951 21.1382 16.6967 21.1399 16.6983L21.3322 16.8906C21.5071 17.0656 21.6035 17.2981 21.6035 17.5455C21.6035 17.7929 21.5071 18.0255 21.3322 18.2004ZM24.7247 12.1415L21.7335 14.9703L16.2263 9.46315C16.066 9.30287 15.856 9.2227 15.6459 9.2227C15.4359 9.2227 15.2258 9.30287 15.0656 9.46309L13.7576 10.771C13.5112 11.0175 13.1836 11.1532 12.8351 11.1532C12.4866 11.1532 12.159 11.0175 11.9126 10.771C11.6633 10.5217 11.5276 10.1903 11.5306 9.83777C11.5335 9.4852 11.6746 9.15605 11.9287 8.91013L16.7666 4.21633C16.7696 4.21343 16.7725 4.21059 16.7754 4.20763C17.8361 3.14702 19.2463 2.56286 20.7462 2.56286C22.2462 2.56286 23.6564 3.14702 24.717 4.20763C25.7776 5.26824 26.3618 6.67842 26.3618 8.17839C26.3617 9.67481 25.7805 11.0818 24.7247 12.1415Z" fill="white"/>
</svg>
