<svg width="1024" height="1024" viewBox="0 0 1024 1024" fill="none" xmlns="http://www.w3.org/2000/svg">
<g clip-path="url(#clip0_17911_27040)">
<rect width="1024" height="1024" rx="512" fill="url(#paint0_linear_17911_27040)"/>
<g style="mix-blend-mode:screen" opacity="0.1">
<rect x="2.5" y="2.5" width="1019" height="1019" rx="509.5" fill="url(#paint1_linear_17911_27040)"/>
<rect x="2.5" y="2.5" width="1019" height="1019" rx="509.5" stroke="#5E5858" stroke-width="5"/>
</g>
<g clip-path="url(#clip1_17911_27040)">
<path d="M780.419 457.225L601.225 353.774L422.031 250.307C379.924 225.997 327.273 256.393 327.273 305.012V338.537C327.036 341.35 326.926 344.243 326.957 347.214C327.147 363.021 327.226 378.811 327.273 394.617V447.488C327.273 460.497 327.242 473.489 327.273 486.498C327.273 492.457 327.273 498.447 327.273 506.003L275.082 475.876L222.353 445.434C217.753 442.778 212 446.097 212 451.408V573.194C212 578.505 217.753 581.825 222.353 579.169L278.164 548.727L327.289 518.616V661.503C327.21 667.383 327.131 673.247 327.021 679.127C326.957 682.525 327.052 685.813 327.289 689.022V718.879C327.289 767.515 379.924 797.894 422.047 773.584L601.241 670.133L780.435 566.682C822.542 542.373 822.542 481.582 780.435 457.272L780.419 457.225ZM612.084 528.542C552.068 577.62 460.977 586.345 390.609 548.742L331.478 508.547C372.21 492.473 411.773 471.292 453.975 461.572C511.604 448.295 565.361 466.029 612.574 501.988C624.871 511.361 624.144 518.695 612.1 528.542H612.084Z" fill="#F9C33B"/>
<path d="M563.306 502.968C563.306 502.731 563.259 502.509 563.243 502.272C563.227 502.098 563.211 501.925 563.195 501.735C563.195 501.672 563.164 501.608 563.148 501.545C563.069 501.166 562.974 500.787 562.863 500.407C562.769 500.091 562.658 499.775 562.531 499.459C562.421 499.19 562.326 498.937 562.2 498.684C562.089 498.447 561.962 498.226 561.836 498.005C561.71 497.768 561.567 497.546 561.409 497.325C561.267 497.12 561.141 496.914 560.982 496.724C560.777 496.456 560.556 496.219 560.334 495.981C560.113 495.744 559.892 495.523 559.655 495.302C559.418 495.081 559.165 494.859 558.912 494.654C558.722 494.496 558.517 494.369 558.311 494.227C558.09 494.085 557.869 493.942 557.632 493.8C557.41 493.674 557.189 493.547 556.952 493.437C556.699 493.31 556.43 493.215 556.162 493.105C555.846 492.978 555.545 492.868 555.213 492.773C554.834 492.662 554.47 492.567 554.075 492.488C554.012 492.488 553.949 492.457 553.886 492.441C553.712 492.409 553.538 492.409 553.364 492.393C553.127 492.362 552.906 492.33 552.668 492.314C552.431 492.314 552.194 492.314 551.957 492.314C551.72 492.314 551.483 492.314 551.246 492.314C551.009 492.314 550.788 492.362 550.55 492.393C550.377 492.409 550.203 492.425 550.029 492.441C549.966 492.441 549.902 492.473 549.839 492.488C549.46 492.567 549.08 492.662 548.701 492.773C548.385 492.868 548.069 492.978 547.753 493.105C547.484 493.215 547.231 493.31 546.962 493.437C546.725 493.547 546.504 493.674 546.283 493.8C546.046 493.927 545.824 494.069 545.603 494.227C545.398 494.369 545.192 494.496 545.002 494.654C544.75 494.859 544.497 495.081 544.26 495.302C544.023 495.523 543.801 495.744 543.58 495.981C543.359 496.219 543.137 496.471 542.932 496.724C542.774 496.914 542.647 497.12 542.505 497.325C542.363 497.546 542.221 497.768 542.078 498.005C541.952 498.226 541.825 498.447 541.715 498.684C541.588 498.937 541.494 499.206 541.383 499.459C541.256 499.775 541.146 500.075 541.051 500.407C540.94 500.771 540.845 501.15 540.766 501.545C540.766 501.608 540.735 501.672 540.719 501.735C540.687 501.909 540.687 502.083 540.672 502.272C540.64 502.509 540.608 502.731 540.608 502.968C540.608 503.205 540.608 503.442 540.608 503.679C540.608 503.916 540.608 504.153 540.608 504.39C540.608 504.627 540.656 504.849 540.687 505.086C540.703 505.26 540.719 505.434 540.735 505.607C540.735 505.671 540.766 505.734 540.782 505.797C540.861 506.176 540.956 506.556 541.067 506.935C541.162 507.251 541.272 507.567 541.399 507.883C541.509 508.152 541.604 508.405 541.731 508.674C541.841 508.911 541.968 509.132 542.094 509.353C542.221 509.591 542.363 509.812 542.521 510.033C542.663 510.239 542.79 510.444 542.948 510.65C543.153 510.902 543.359 511.155 543.58 511.392C543.801 511.63 544.023 511.851 544.26 512.072C544.497 512.293 544.75 512.515 545.002 512.72C545.192 512.878 545.398 513.005 545.619 513.147C545.84 513.289 546.062 513.431 546.283 513.574C546.504 513.7 546.725 513.827 546.962 513.937C547.215 514.064 547.484 514.158 547.737 514.269C548.053 514.396 548.369 514.506 548.685 514.601C549.049 514.712 549.428 514.807 549.823 514.886C549.887 514.886 549.95 514.917 550.013 514.933C550.187 514.965 550.361 514.965 550.535 514.98C550.772 515.012 550.993 515.044 551.23 515.059C551.467 515.059 551.704 515.059 551.941 515.059C552.178 515.059 552.416 515.059 552.653 515.059C552.89 515.059 553.111 515.012 553.348 514.98C553.522 514.965 553.696 514.949 553.87 514.933C553.933 514.933 553.996 514.901 554.059 514.886C554.439 514.807 554.818 514.712 555.197 514.601C555.514 514.506 555.83 514.396 556.146 514.269C556.415 514.158 556.667 514.064 556.92 513.937C557.157 513.827 557.379 513.7 557.6 513.574C557.837 513.447 558.058 513.305 558.264 513.147C558.469 513.005 558.675 512.878 558.88 512.72C559.133 512.515 559.386 512.309 559.623 512.088C559.86 511.867 560.097 511.645 560.303 511.408C560.524 511.171 560.745 510.918 560.935 510.665C561.093 510.476 561.22 510.27 561.362 510.049C561.504 509.828 561.646 509.606 561.789 509.369C561.915 509.148 562.041 508.927 562.152 508.69C562.279 508.437 562.373 508.168 562.484 507.899C562.611 507.583 562.721 507.283 562.816 506.951C562.927 506.572 563.021 506.208 563.101 505.813C563.101 505.75 563.132 505.686 563.148 505.623C563.18 505.449 563.18 505.275 563.195 505.102C563.227 504.864 563.259 504.643 563.274 504.406C563.274 504.169 563.274 503.932 563.274 503.695C563.274 503.458 563.274 503.221 563.274 502.984L563.306 502.968Z" fill="#F9C33B"/>
</g>
</g>
<rect x="0.5" y="0.5" width="1023" height="1023" rx="511.5" stroke="black"/>
<defs>
<linearGradient id="paint0_linear_17911_27040" x1="512" y1="0" x2="512" y2="1024" gradientUnits="userSpaceOnUse">
<stop stop-color="#17181A"/>
<stop offset="1"/>
</linearGradient>
<linearGradient id="paint1_linear_17911_27040" x1="640.5" y1="-323.5" x2="512" y2="1024" gradientUnits="userSpaceOnUse">
<stop stop-color="white"/>
<stop offset="1" stop-color="white" stop-opacity="0.01"/>
</linearGradient>
<clipPath id="clip0_17911_27040">
<rect width="1024" height="1024" rx="512" fill="white"/>
</clipPath>
<clipPath id="clip1_17911_27040">
<rect width="600" height="540.348" fill="white" transform="translate(212 241.756)"/>
</clipPath>
</defs>
</svg>
