<svg width="113" height="32" viewBox="0 0 113 32" fill="none" xmlns="http://www.w3.org/2000/svg">
<g clip-path="url(#clip0_18248_32481)">
<path d="M10.211 12.076L19.6066 28.2373L26.9065 15.7143L29.485 19.602C30.4465 21.053 32.0714 21.9247 33.81 21.9247H36.8084C37.456 21.9247 37.8563 21.2199 37.5286 20.6622L27.8877 4.35767C27.5639 3.80986 26.7711 3.80986 26.4473 4.35767L19.8657 15.5553L13.4567 4.19077C13.1466 3.64297 12.3656 3.61941 12.0261 4.14954L10.3268 6.79628C9.30046 8.39454 9.25533 10.4346 10.211 12.076Z" fill="#F9C33B"/>
<path d="M6.0709 21.9817C7.86453 21.9817 9.31856 20.5269 9.31856 18.7322C9.31856 16.9375 7.86453 15.4827 6.0709 15.4827C4.27727 15.4827 2.82324 16.9375 2.82324 18.7322C2.82324 20.5269 4.27727 21.9817 6.0709 21.9817Z" fill="#F9C33B"/>
</g>
<g clip-path="url(#clip1_18248_32481)">
<path d="M53.2563 17.1302C53.1841 17.3231 53.0636 17.516 52.9432 17.733C53.449 17.6607 53.9789 17.5883 54.5328 17.516C55.0868 17.4436 55.6407 17.3472 56.1947 17.2749C56.7487 17.2025 57.2545 17.1543 57.7121 17.1061C58.1697 17.0578 58.5551 17.0337 58.8682 17.0337C59.663 17.0096 60.241 17.1302 60.6023 17.4436C60.9636 17.7571 61.0599 18.2876 60.8913 18.9869C60.8191 19.2521 60.7227 19.5656 60.6023 19.879C60.4819 20.1925 60.3133 20.4818 60.1206 20.6988C59.9279 20.94 59.7111 21.157 59.4944 21.3499C59.2776 21.5669 59.0608 21.7357 58.8441 21.9045V22.0009C58.8682 22.025 59.109 22.1456 59.5185 22.3144C59.9279 22.4832 60.4578 22.7002 61.084 22.9654C61.3971 23.086 61.7343 23.2066 62.0715 23.3271C62.3846 23.4477 62.6977 23.5682 62.9627 23.6406C63.2276 23.737 63.4444 23.8094 63.613 23.8817C63.7816 23.954 63.8538 24.0023 63.8538 24.0264C63.8538 24.0746 63.7334 24.2193 63.5166 24.4363C63.2998 24.6533 63.0349 24.9185 62.77 25.1838C62.505 25.4731 62.2401 25.7384 61.9752 25.9795C61.7102 26.2447 61.5416 26.4135 61.4694 26.4859C61.4212 26.5582 61.3249 26.6064 61.1803 26.6064C61.0358 26.6064 60.8672 26.5582 60.6505 26.4617C60.53 26.4135 60.2169 26.2688 59.7111 26.0277C59.2054 25.7866 58.6755 25.5214 58.1215 25.2561C57.4712 24.9427 56.7487 24.6051 55.9539 24.1952H55.7371C55.2795 24.4363 54.8941 24.6533 54.5328 24.8221C54.1715 25.015 53.8103 25.1838 53.449 25.3526C53.0877 25.5214 52.7023 25.666 52.317 25.7866C51.9075 25.9313 51.474 26.0759 50.9682 26.2447H50.8237C50.6551 26.2447 50.4865 26.1724 50.3179 26.0518C50.2938 26.0277 50.1734 25.9313 50.0048 25.7625C49.8121 25.5937 49.6194 25.4249 49.4027 25.232C49.1859 25.0632 48.9691 24.8944 48.8005 24.7256C48.6319 24.581 48.5356 24.4845 48.5115 24.4604L48.4393 24.4122L48.1743 24.7015L47.7167 25.2079C47.5963 25.3043 47.524 25.3526 47.524 25.3526L47.235 25.1356C47.235 25.1356 47.1146 25.0391 46.8737 24.8703C46.6088 24.7015 46.3438 24.5086 46.0307 24.2916C45.7176 24.0746 45.4527 23.8817 45.1878 23.6888C44.9228 23.4959 44.7542 23.3512 44.7061 23.2789V23.1824L44.8024 22.9895C45.8862 22.0009 46.8496 21.0123 47.7408 20.0237C48.6319 19.0351 49.4268 17.95 50.1734 16.7926C49.764 16.8649 49.3786 16.9373 49.0173 17.0096C48.7042 17.082 48.367 17.1302 48.0539 17.1543C47.7408 17.2025 47.4759 17.2507 47.3073 17.2749C47.1387 17.0096 46.9701 16.7926 46.8496 16.5756C46.7292 16.4068 46.6329 16.2139 46.5606 16.0451C46.4643 15.8763 46.4161 15.7558 46.4161 15.6834C46.4402 15.5629 46.5124 15.4664 46.657 15.4423C46.8015 15.4182 46.946 15.3941 47.0664 15.37H46.657C46.4402 15.3941 46.2475 15.3941 46.0789 15.3459C45.9103 15.2976 45.7899 15.1771 45.7176 15.0083C45.6213 14.8636 45.5731 14.5984 45.5731 14.2367V11.3191H48.1021C48.1984 11.3191 48.2948 11.3673 48.3911 11.4637C48.4874 11.5843 48.5597 11.7049 48.6319 11.8254C48.656 11.8495 48.656 11.8978 48.656 11.9701V12.1871C48.6319 12.2594 48.6319 12.3318 48.6319 12.4041V12.5247H48.7283C48.7524 12.5247 48.8487 12.5006 49.0173 12.4523C49.1859 12.4282 49.3063 12.38 49.3786 12.3559C49.4268 12.3318 49.4749 12.3318 49.5231 12.3318H49.6194L49.4508 12.0424L48.7524 11.4155L48.0298 10.7886C47.9816 10.7404 47.9335 10.6439 47.8612 10.5233C47.789 10.4028 47.7167 10.3063 47.6685 10.2099C48.0298 9.94464 48.4152 9.70351 48.8246 9.53473C49.21 9.36594 49.6194 9.2936 50.053 9.2936C50.1493 9.2936 50.2938 9.34183 50.4624 9.41416C50.631 9.51061 50.8237 9.60706 50.9923 9.70351C51.1609 9.82408 51.3295 9.92053 51.4981 10.017C51.6426 10.1375 51.7389 10.2099 51.763 10.2581L52.1725 10.6921C52.1243 10.8127 52.028 10.9574 51.8594 11.102C51.6908 11.2467 51.5222 11.3914 51.3536 11.512C51.185 11.6325 50.9923 11.7531 50.8237 11.8254C50.631 11.9219 50.4865 11.9942 50.3902 12.0424L50.4865 12.1389L50.7514 12.0424L51.3295 11.946C51.5944 11.9219 51.9075 11.8736 52.2206 11.8254C52.5338 11.8013 52.7987 11.7531 53.0395 11.7049C53.2804 11.6807 53.4008 11.6566 53.4008 11.6084L53.3045 11.4155C53.2804 11.3914 53.2322 11.2949 53.1118 11.102C52.9914 10.9333 52.8469 10.7404 52.7264 10.5233C52.5819 10.3063 52.4615 10.1134 52.3411 9.92053C52.2206 9.75174 52.1725 9.63118 52.1725 9.58295C52.1725 9.4865 52.1966 9.43828 52.2206 9.43828C52.2688 9.46239 52.4856 9.39005 52.8709 9.26949L54.027 8.85957C54.0752 8.85957 54.1234 8.83546 54.1956 8.81135C54.2197 8.78724 54.2438 8.78724 54.2679 8.76312C53.7621 8.76312 53.2804 8.78724 52.7987 8.81135C52.2929 8.85957 51.8112 8.93191 51.3295 9.00425C50.8237 9.07659 50.3179 9.14892 49.8362 9.19715C49.3545 9.26949 48.8728 9.2936 48.3911 9.2936C48.0298 9.2936 47.7167 9.26949 47.4999 9.22126C47.2832 9.19715 47.0905 9.02836 46.9701 8.73901C46.946 8.7149 46.9219 8.66667 46.8978 8.54611C46.8737 8.42555 46.8256 8.30498 46.8015 8.18442C46.7774 8.01563 46.7292 7.84685 46.7051 7.67806C49.0896 7.26814 51.2813 6.93057 53.2563 6.61711C54.0993 6.49654 54.9423 6.35187 55.7853 6.2313C56.6282 6.11074 57.399 5.99018 58.0974 5.89373C58.7959 5.79728 59.398 5.72494 59.9038 5.6526C60.4096 5.58026 60.7709 5.55615 60.9636 5.55615H61.3249C61.3489 5.60438 61.3971 5.70083 61.5175 5.82139C61.6139 5.94195 61.7343 6.08663 61.8547 6.2313C61.9752 6.37598 62.0715 6.52066 62.1919 6.66533C62.2883 6.81001 62.3605 6.93057 62.4087 7.02702C62.505 7.24403 62.5532 7.46105 62.5532 7.65395C62.5532 7.72628 62.5532 7.79862 62.5773 7.84685C62.5773 7.96741 62.5291 8.01563 62.4569 8.01563L60.7468 8.08797L59.8797 8.16031C59.5907 8.18442 59.3017 8.23265 59.0127 8.28087C59.4221 8.3291 59.8075 8.42555 60.1688 8.59434C60.3374 8.66667 60.53 8.73901 60.6986 8.81135C60.8672 8.88369 61.0599 8.95602 61.2285 9.02836C61.3008 9.02836 61.373 9.07659 61.4935 9.19715C61.4694 9.26949 61.3971 9.36594 61.2767 9.51061C61.1563 9.6794 61.0118 9.82408 60.8913 9.99286C60.7709 10.1617 60.6505 10.3304 60.5541 10.4992C60.4337 10.668 60.3855 10.7886 60.3855 10.8609V10.9574C60.7468 10.9815 61.1803 11.0056 61.638 11.0779C62.0956 11.1503 62.4809 11.2708 62.7941 11.4637C63.0831 11.6566 63.3239 11.8736 63.4925 12.1389C63.6611 12.4041 63.7334 12.7899 63.7334 13.2481V14.092C63.7334 14.1885 63.7334 14.2608 63.7093 14.3331C63.6852 14.4055 63.6852 14.5019 63.6611 14.6225C63.6611 14.743 63.637 14.8395 63.5648 14.9118C63.5166 14.9842 63.4444 15.0565 63.3239 15.1047C63.2035 15.1771 63.0349 15.1771 62.8181 15.153C62.7218 15.153 62.6014 15.153 62.4328 15.1288C62.2642 15.1047 62.0715 15.0806 61.8788 15.0565C61.9029 15.2012 61.927 15.3459 61.927 15.4664C61.9029 15.6111 61.9029 15.7317 61.9029 15.8281V16.0451C61.8788 16.1175 61.8547 16.1657 61.8066 16.2139H61.3489C61.2044 16.1898 61.0358 16.1416 60.8191 16.1175C60.6023 16.0933 60.3855 16.0933 60.1688 16.0692C59.952 16.0692 59.7352 16.0692 59.5666 16.0451H59.1572C58.6996 16.0451 58.2901 16.0451 57.8807 16.0692C57.4712 16.0933 57.1099 16.1175 56.7968 16.1416C56.4356 16.1657 56.0984 16.2139 55.7853 16.2621C55.4721 16.2621 55.2313 16.2621 55.0627 16.2862C54.8941 16.3104 54.6773 16.3586 54.3642 16.4068C54.1956 16.4309 54.0511 16.4791 53.9066 16.5033C53.7621 16.5515 53.6176 16.5997 53.4972 16.6479C53.4249 16.7926 53.3286 16.9614 53.2563 17.1302ZM48.7765 15.1288C49.1377 15.0806 49.4749 15.0324 49.788 14.9842C50.1011 14.9359 50.3179 14.8877 50.4624 14.8636C50.6069 14.8395 50.7274 14.8395 50.8478 14.8395C50.9682 14.8395 51.0646 14.8395 51.1368 14.8154C51.2091 14.7913 51.2813 14.7672 51.3536 14.6948C51.4258 14.6466 51.474 14.5501 51.5222 14.4296C51.5944 14.3331 51.6908 14.1402 51.8594 13.875C52.0039 13.6097 52.1725 13.3686 52.3892 13.1998C51.8835 13.2722 51.4258 13.3445 51.0164 13.4168C50.5828 13.4892 50.1975 13.5374 49.8844 13.5856C49.499 13.658 49.1377 13.7062 48.8246 13.7303L48.7283 13.8268C48.7524 13.8991 48.7524 13.9473 48.7765 13.9714C48.8005 13.9956 48.8005 14.0197 48.8246 14.0438C48.8487 14.092 48.8487 14.1643 48.8728 14.2608V14.743C48.8728 14.9118 48.8487 15.0565 48.7765 15.1288ZM49.9325 22.4591C49.6676 22.8208 49.4027 23.1824 49.1618 23.4959C49.788 23.3753 50.3661 23.2307 50.896 23.086C51.4258 22.9413 52.028 22.7484 52.6783 22.5073L52.7505 22.4349V22.3626L52.6783 22.2662L50.7274 21.3017C50.4624 21.7116 50.1975 22.0974 49.9325 22.4591ZM54.5087 20.0237C54.8218 20.1925 55.1109 20.3613 55.3758 20.5301C55.6407 20.6988 55.7853 20.7712 55.8093 20.7953C55.8816 20.8676 55.9539 20.8917 56.002 20.8917H56.1706L56.3392 20.7471C56.7005 20.4818 57.0618 20.1684 57.4231 19.8067C57.7843 19.445 58.0974 19.0592 58.3865 18.6252L58.0011 18.6011C57.688 18.6011 57.399 18.6011 57.1099 18.6252C56.7968 18.6493 56.4837 18.6975 56.1706 18.7698L54.9664 19.011C54.6533 19.0833 54.3883 19.1315 54.1475 19.1798C53.8825 19.228 53.738 19.2521 53.7139 19.2521L53.3045 19.3244C53.7621 19.5897 54.1475 19.8067 54.5087 20.0237ZM58.2179 12.4765C57.8807 12.5006 57.4953 12.5488 57.0859 12.597C56.6523 12.6452 56.1947 12.6935 55.6889 12.7658C55.1831 12.8381 54.6773 12.8864 54.1715 12.9587C54.3642 12.9828 54.5328 13.0552 54.6773 13.1275C54.7978 13.1998 54.87 13.3204 54.8459 13.441C54.7978 13.8027 54.7255 14.0679 54.6292 14.2608C54.5569 14.3814 54.5087 14.4778 54.4606 14.5743H54.8218C55.713 14.5019 56.6282 14.4296 57.5676 14.3572C58.5069 14.2849 59.3017 14.2608 60.0002 14.2608C60.0002 14.1643 60.0243 14.0438 60.0724 13.9232C60.0965 13.9232 60.1206 13.875 60.1688 13.7785C60.1929 13.6821 60.241 13.5856 60.2651 13.4651C60.2892 13.3686 60.3374 13.2722 60.3615 13.1757C60.3855 13.0793 60.3855 13.0069 60.3855 12.9828C60.3855 12.9105 60.3374 12.7899 60.241 12.6452C60.1206 12.5006 60.0002 12.4282 59.8797 12.4282H58.9886C58.82 12.4282 58.5551 12.4523 58.2179 12.4765ZM56.6282 8.49789C56.3633 8.522 56.0984 8.57022 55.8334 8.59434C55.5685 8.61845 55.3517 8.66667 55.159 8.69079C54.9423 8.7149 54.8218 8.73901 54.7978 8.76312C55.0145 9.05247 55.3036 9.31771 55.6407 9.53473C55.8093 9.65529 55.9779 9.75174 56.1465 9.8723C56.291 9.99286 56.4356 10.1375 56.556 10.3063V10.4028C56.556 10.4751 56.4837 10.5716 56.3633 10.6921C56.2429 10.8127 56.0984 10.9091 55.9298 11.0297C55.7612 11.1503 55.6167 11.2467 55.4721 11.3191C55.3276 11.4155 55.2313 11.4637 55.2072 11.4878C55.159 11.512 55.1109 11.5361 55.0868 11.5602C55.0627 11.5843 55.0145 11.5843 54.9904 11.6084H55.2313C55.2554 11.6084 55.3517 11.6084 55.5203 11.5843C55.6648 11.5602 55.8334 11.5361 56.002 11.512C56.1706 11.4878 56.3392 11.4637 56.4837 11.4396C56.6282 11.4155 56.7246 11.4155 56.7487 11.4155L56.845 11.3191C57.0618 10.8127 57.2785 10.3063 57.5435 9.79996C57.8084 9.31771 58.0493 8.83546 58.3142 8.37732L57.2304 8.47377C57.0859 8.47377 56.8932 8.47377 56.6282 8.49789Z" fill="#F9C33B"/>
<path d="M78.5792 7.46104C78.6515 7.36459 78.7719 7.1958 78.9164 6.95468C79.0368 6.71355 79.1814 6.47242 79.35 6.20719C79.5186 5.91784 79.7112 5.60437 79.928 5.2668L80.0243 5.19446C80.1207 5.19446 80.3375 5.24268 80.6746 5.36325C81.0118 5.48381 81.3731 5.60437 81.7344 5.74905C82.0475 5.86961 82.3847 6.01429 82.6978 6.18307C82.9627 6.32775 83.1073 6.4242 83.1073 6.49654V6.59299C83.0832 6.6171 83.035 6.71355 82.9387 6.83411C82.8423 6.95468 82.746 7.09935 82.6255 7.26814C82.5051 7.43693 82.4088 7.5816 82.3124 7.70217C82.2161 7.82273 82.1679 7.89507 82.1679 7.91918C82.1438 7.99152 82.1198 8.01563 82.1198 8.01563C82.746 7.99152 83.324 7.94329 83.8298 7.91918C84.2393 7.89507 84.6487 7.89507 85.01 7.89507C85.3713 7.89507 85.5399 7.94329 85.5399 8.01563C85.6121 8.30498 85.6603 8.57022 85.6844 8.78723C85.7085 8.98013 85.7325 9.14892 85.7085 9.31771C85.6844 9.4865 85.6362 9.58295 85.5399 9.60706C85.4917 9.63117 85.3713 9.63117 85.1545 9.65528C84.9377 9.6794 84.6487 9.6794 84.3356 9.70351C83.9984 9.72762 83.6371 9.77585 83.2518 9.79996C82.8423 9.82407 82.457 9.84818 82.0475 9.8723C81.1082 9.94463 80.0484 9.99286 78.8683 10.0652V10.668C78.8442 10.8609 78.8683 11.1262 78.9164 11.4396C78.9164 11.4637 78.9887 11.4637 79.1573 11.4396C79.3259 11.4396 79.5426 11.4396 79.8076 11.4155C80.0725 11.4155 80.3856 11.3914 80.7228 11.3673C81.06 11.3432 81.4213 11.3432 81.7826 11.3191C82.6255 11.2708 83.589 11.2226 84.6728 11.1503C84.8896 11.1985 85.01 11.3191 85.0341 11.5361C85.0582 11.7531 85.0582 11.9701 85.01 12.2112C84.9618 12.4523 84.8896 12.6694 84.7932 12.8864C84.6969 13.1034 84.6487 13.1998 84.6246 13.2239C84.2152 13.2239 83.6853 13.2481 83.035 13.2722C82.3847 13.2963 81.7826 13.3445 81.1804 13.3686C80.5783 13.4168 80.0484 13.4651 79.6149 13.4892C79.1573 13.5374 78.9405 13.5615 78.9164 13.5615L78.9646 14.6466C78.9646 14.6707 79.0609 14.6948 79.2777 14.6948C79.4945 14.6948 79.7594 14.6948 80.1207 14.6707C80.4579 14.6707 80.8432 14.6466 81.3009 14.6225C81.7344 14.5984 82.192 14.5742 82.6496 14.5501C83.7335 14.4778 84.9859 14.4055 86.3588 14.309C86.5996 14.3813 86.7682 14.526 86.8405 14.6948C86.9127 14.8877 86.9127 15.0806 86.8886 15.2976C86.8645 15.5146 86.7923 15.7317 86.6959 15.9246C86.5755 16.1175 86.4792 16.238 86.3588 16.3104H85.588C85.1786 16.3104 84.721 16.3104 84.2152 16.3345C83.6853 16.3586 83.1313 16.3586 82.5533 16.3827C81.9752 16.4068 81.4454 16.4068 80.9396 16.4309C80.4338 16.455 80.0003 16.4791 79.639 16.5033C79.2777 16.5274 79.0368 16.5515 78.9646 16.5756C78.9164 16.8649 78.9164 17.1061 78.9405 17.2749C78.9646 17.4436 78.9646 17.6607 78.9646 17.9018L86.0938 17.7089C86.3106 17.8053 86.4551 17.95 86.4792 18.167C86.5033 18.384 86.4792 18.601 86.4069 18.8181C86.3347 19.0351 86.2383 19.2521 86.142 19.4209C86.0457 19.5897 85.9975 19.7102 85.9975 19.7584C84.745 19.7102 83.5167 19.6861 82.2884 19.6861C81.06 19.7102 79.8317 19.7826 78.6033 19.9272C78.2661 20.3854 77.8808 20.8435 77.4472 21.2534C77.0137 21.6875 76.5802 22.0974 76.1466 22.4832C75.7131 22.869 75.3036 23.2307 74.8942 23.5441C74.4847 23.8576 74.1475 24.1469 73.8344 24.4122C73.5213 24.6533 73.2323 24.8944 72.9433 25.1114C72.6302 25.3526 72.3412 25.5696 72.028 25.7866C71.8595 25.9313 71.6186 26.1001 71.3055 26.3171C70.9924 26.5341 70.6552 26.6305 70.3421 26.6305C70.1735 26.6305 70.029 26.6064 69.9567 26.5341C69.8363 26.4859 69.7159 26.4135 69.5954 26.3171C69.4509 26.2447 69.2823 26.1242 69.1137 25.9795L68.054 25.1114L67.6927 24.8462C67.6205 24.6774 67.5 24.5327 67.3555 24.3881C67.2351 24.2193 67.1387 24.0264 67.0906 23.8335C67.0665 23.7611 67.0665 23.7129 67.1387 23.6647C67.1869 23.6406 67.2592 23.5923 67.3314 23.5682C67.3796 23.5441 67.4519 23.5441 67.5723 23.5441H67.6927C67.9576 23.4477 68.2467 23.3271 68.5839 23.1583C68.897 23.0136 69.2582 22.8449 69.6195 22.652C69.9808 22.4832 70.3421 22.2903 70.7034 22.0733C71.0646 21.8562 71.4259 21.6633 71.7631 21.4704C72.5579 21.0123 73.4009 20.5059 74.2439 19.9755C74.0512 19.9755 73.714 19.9755 73.2323 19.9996C72.7265 20.0237 72.2207 20.0478 71.6909 20.0719C71.1369 20.096 70.6311 20.1201 70.1494 20.1442C69.6677 20.1684 69.3305 20.1925 69.1378 20.1925C69.0174 20.1925 68.9451 20.1201 68.8729 19.9996C68.8006 19.879 68.7525 19.7102 68.7284 19.5414C68.6802 19.3726 68.6561 19.2039 68.632 19.0351C68.6079 18.8663 68.6079 18.7457 68.6079 18.6493V18.3117C68.632 18.3117 68.8247 18.3117 69.186 18.2876C69.5232 18.2635 69.9326 18.2635 70.4384 18.2394C70.9442 18.2152 71.4741 18.2152 72.0521 18.1911C72.6061 18.167 73.136 18.1429 73.6418 18.1188C74.1235 18.0947 74.5329 18.0947 74.846 18.0706C75.1591 18.0465 75.3277 18.0465 75.3518 18.0223C75.4 17.7812 75.4241 17.6124 75.4482 17.516V16.7926C75.4482 16.7685 75.3036 16.7685 75.0387 16.7685C74.7738 16.7926 74.4125 16.7926 74.003 16.8167C73.5936 16.8408 73.1119 16.8408 72.6061 16.8649C72.1003 16.8891 71.5945 16.8891 71.1128 16.9132C70.6311 16.9373 70.1976 16.9614 69.7881 16.9855C69.3787 17.0096 69.0897 17.0096 68.897 17.0096C68.8247 17.0096 68.7525 16.9614 68.7043 16.8408C68.632 16.7203 68.5839 16.5997 68.5598 16.4309C68.5357 16.2862 68.5116 16.1416 68.5116 15.9969C68.4875 15.8522 68.4875 15.7317 68.4875 15.6593V15.2494C68.5357 15.2253 68.7284 15.2012 69.0897 15.1771C69.4509 15.1529 69.8845 15.1288 70.3903 15.1047C70.896 15.0806 71.4259 15.0565 72.028 15.0324C72.6061 15.0083 73.136 14.9842 73.6418 14.96C74.1235 14.9359 74.5329 14.9359 74.8701 14.9118C75.1832 14.8877 75.3518 14.8877 75.3518 14.8636V13.5615C74.6052 13.6097 73.9308 13.658 73.3046 13.6821C72.7506 13.7062 72.2448 13.7303 71.739 13.7544C71.2332 13.7785 70.872 13.7785 70.7034 13.7785C70.5588 13.7785 70.4143 13.7303 70.2939 13.6097C70.1735 13.4892 70.0531 13.3445 69.9567 13.1757C69.8604 13.0069 69.7881 12.8381 69.74 12.6452C69.6677 12.4523 69.6436 12.2836 69.6436 12.1148C69.6436 12.0665 69.764 12.0183 70.0049 11.9701C70.0771 11.946 70.2457 11.9219 70.5348 11.8978C70.8238 11.8736 71.161 11.8495 71.5704 11.8254C71.9558 11.8013 72.3652 11.7772 72.8229 11.7531C73.2564 11.729 73.6658 11.7049 74.0271 11.6807C74.3884 11.6566 74.7015 11.6566 74.9664 11.6325C75.2073 11.6084 75.3277 11.6084 75.3518 11.6084V10.3545C75.111 10.3545 74.7978 10.3545 74.4125 10.3787C74.0271 10.4028 73.6177 10.451 73.1841 10.4751C72.7265 10.5233 72.293 10.5716 71.8354 10.5957C71.3777 10.6439 70.9442 10.6921 70.5588 10.7162C70.1735 10.7645 69.8604 10.7886 69.5954 10.8127C69.3305 10.8368 69.1619 10.8609 69.1137 10.8609C69.0415 10.8609 68.9692 10.8127 68.9451 10.7162C68.897 10.6198 68.8729 10.4992 68.8488 10.3545C68.8247 10.2581 68.8247 10.1616 68.8488 10.0652V9.10069L72.7506 8.66667C72.4616 8.40143 72.1966 8.13619 71.9799 7.89507C71.7872 7.67805 71.6186 7.48515 71.45 7.29225C71.2814 7.09935 71.2092 6.95468 71.2092 6.88234L71.3055 6.78589C71.5223 6.66532 71.739 6.54476 71.9317 6.4242C72.1244 6.30364 72.3171 6.20719 72.5098 6.13485C72.9192 5.96606 73.3768 5.77316 73.8585 5.55615H73.9308C73.9549 5.60437 74.003 5.62848 74.0512 5.6526C74.0994 5.67671 74.1475 5.72493 74.1716 5.74905L74.2921 5.8455C74.7497 6.20719 75.1591 6.59299 75.5204 6.97879C75.8817 7.36459 76.2189 7.7745 76.5802 8.20853C76.8451 8.23264 77.0859 8.23264 77.3027 8.20853C77.4954 8.18442 77.6881 8.1603 77.8808 8.11208C78.0494 8.08797 78.1939 8.01563 78.2661 7.91918C78.3143 7.82273 78.4106 7.67805 78.5792 7.46104ZM78.0734 21.8804C78.242 21.6392 78.4588 21.3981 78.6756 21.1329C78.8923 20.8917 79.1332 20.6747 79.35 20.4577C79.5426 20.2648 79.6871 20.1684 79.8076 20.1684C79.8798 20.1684 80.0003 20.1925 80.1689 20.2166C80.2893 20.2889 80.3856 20.313 80.506 20.3372C80.5301 20.3613 80.6265 20.4095 80.8432 20.5059C81.0359 20.6265 81.2768 20.7471 81.5899 20.8917C81.8789 21.0364 82.192 21.2052 82.5533 21.374C82.8905 21.5428 83.2277 21.7116 83.5408 21.8562C83.8539 22.025 84.1188 22.1456 84.3356 22.2662C84.5524 22.3867 84.6969 22.4591 84.745 22.4832C85.0582 22.652 85.3231 22.7725 85.588 22.8931C85.8289 23.0136 86.0938 23.1342 86.3588 23.2548C86.6237 23.3994 86.9127 23.5923 87.1777 23.8335L87.274 23.9299L87.1777 24.1228C87.1054 24.1952 87.0091 24.3157 86.8645 24.5086C86.6959 24.7015 86.5274 24.9185 86.3588 25.1356C86.2865 25.2561 86.142 25.4249 85.9734 25.5937C85.7807 25.7866 85.588 25.9795 85.3953 26.1483C85.1786 26.3653 84.9377 26.5823 84.6728 26.8234C84.5524 26.7752 84.456 26.727 84.3597 26.6546C84.2874 26.6064 84.1911 26.5582 84.0947 26.4859C83.9984 26.4376 83.9261 26.3894 83.8539 26.3412L77.8567 22.5073L77.7844 22.4108V22.3385C77.7844 22.2662 77.8808 22.1215 78.0734 21.8804Z" fill="#F9C33B"/>
<path d="M90.4164 24.4123C90.4405 24.1952 90.4887 23.93 90.5368 23.6407C90.5609 23.3513 90.6091 23.062 90.6573 22.7485C90.6814 22.4591 90.7295 22.1698 90.7777 21.9045C90.9463 20.7954 91.1149 19.5415 91.2835 18.143C91.428 16.7686 91.5725 15.1771 91.717 13.3928C91.7652 12.7418 91.8134 12.0666 91.8856 11.3191C91.9338 10.5958 91.982 9.9206 92.0301 9.31779C92.1024 8.59441 92.1505 7.89514 92.1987 7.19588C92.2228 7.14766 92.2228 7.07532 92.2228 6.97887C92.1987 6.90653 92.1987 6.83419 92.2228 6.81008C92.2951 6.64129 92.3914 6.54484 92.56 6.4725C92.7045 6.42428 92.9213 6.37605 93.1862 6.32783C93.2826 6.30372 93.4512 6.30372 93.6679 6.2796H94.3423C94.5832 6.2796 94.7999 6.2796 95.0167 6.30372C95.2094 6.32783 95.3539 6.35194 95.4261 6.40017C95.5466 6.4725 95.6188 6.61718 95.6188 6.81008V7.17177C95.7392 7.17177 95.8838 7.14766 96.0524 7.07532C96.221 7.00298 96.3895 6.93064 96.5822 6.8583C96.7027 6.81008 96.9435 6.76185 97.3048 6.68952C97.642 6.61718 98.0033 6.56895 98.3645 6.49662C98.774 6.42428 99.2316 6.35194 99.7374 6.2796C100.34 6.2796 100.845 6.35194 101.303 6.4725C101.736 6.59307 102.05 6.88242 102.266 7.29233C102.387 7.55757 102.459 7.91926 102.483 8.35328C102.507 8.78731 102.459 9.22134 102.387 9.63125C102.363 9.80004 102.315 9.96883 102.266 10.1376C102.194 10.3305 102.122 10.4993 102.025 10.6681C101.929 10.8369 101.809 10.9574 101.664 11.078C101.52 11.1986 101.351 11.2468 101.183 11.2468C100.58 11.2709 100.123 11.295 99.7615 11.295C99.4002 11.3191 99.1353 11.3432 99.0148 11.3674C98.8944 11.3915 98.6536 11.4397 98.2441 11.512C97.8347 11.5844 97.4011 11.6567 96.9435 11.7532C96.4859 11.8496 96.0524 11.9461 95.6911 12.0425C95.3298 12.139 95.1371 12.2113 95.1371 12.2836C95.113 12.4042 95.0889 12.6212 95.0649 12.9106C95.0408 13.1999 94.9926 13.5134 94.9685 13.8268C94.9444 14.1885 94.9204 14.5984 94.8963 15.0084C95.2335 14.9842 95.5466 14.9601 95.8115 14.936C96.0283 14.9119 96.245 14.8637 96.4618 14.8155C96.6545 14.7913 96.7508 14.719 96.7508 14.6467V12.3319C96.7267 12.2354 96.8472 12.139 97.1121 12.0666C97.377 11.9943 97.6661 11.9219 98.0033 11.8737C98.3405 11.8255 98.6776 11.8014 98.9908 11.8014C99.3039 11.8255 99.5206 11.8496 99.6411 11.9219C99.7133 11.9702 99.7856 12.1148 99.8096 12.356C99.8337 12.6212 99.8337 12.8864 99.8578 13.1517C99.8819 13.4651 99.8819 13.8268 99.8578 14.2368H100.099C100.195 14.2368 100.388 14.2126 100.653 14.1644C100.918 14.1403 101.207 14.0921 101.496 14.068C101.785 14.0438 102.05 14.0197 102.266 14.0438C102.483 14.068 102.604 14.1162 102.604 14.2368C102.628 14.3573 102.628 14.4779 102.628 14.5502V15.37L102.387 15.4665C102.266 15.4906 102.17 15.4906 102.074 15.4906C101.977 15.4906 101.881 15.5147 101.785 15.5388C101.712 15.5388 101.568 15.5388 101.375 15.5629C101.183 15.5871 100.99 15.6353 100.773 15.6594C100.556 15.6835 100.388 15.7076 100.219 15.7317C100.051 15.7558 99.9301 15.78 99.8819 15.78V17.926C99.9301 17.926 100.051 17.926 100.267 17.9019C100.46 17.8777 100.701 17.8777 100.99 17.8777C101.544 17.9019 101.953 18.0224 102.218 18.2877C102.459 18.5529 102.579 18.9869 102.604 19.5415C102.628 19.9514 102.604 20.4096 102.555 20.9159C102.483 21.4464 102.411 21.9769 102.339 22.4832C102.242 22.9896 102.146 23.4719 102.05 23.8818C101.929 24.3158 101.833 24.6293 101.761 24.8463C101.664 25.0633 101.544 25.208 101.399 25.2803C101.255 25.3526 101.086 25.3768 100.918 25.3526C100.749 25.3285 100.556 25.3044 100.388 25.2321C100.195 25.1839 100.026 25.1356 99.8578 25.0874C99.6651 25.0392 99.4484 25.0151 99.2316 25.0392C99.0148 25.0633 98.7981 25.0874 98.5813 25.1115C98.3645 25.1356 98.1478 25.1839 97.9792 25.2321C97.7865 25.3044 97.642 25.3285 97.5456 25.3526C97.2325 25.425 96.8953 25.5214 96.5822 25.642C96.2691 25.7626 96.0042 25.7867 95.8115 25.7626C95.6429 25.7384 95.4984 25.6902 95.378 25.6179C95.2575 25.5455 95.1371 25.3768 95.0649 25.1115C94.9926 24.8463 94.9204 24.5087 94.8481 24.0988C94.7758 23.713 94.7036 23.2549 94.6554 22.7485C94.6072 22.1457 94.5591 21.567 94.535 21.0365C94.5109 20.5301 94.4868 20.0961 94.4868 19.7826C94.4146 20.4337 94.3182 21.1329 94.2219 21.8322C94.1255 22.5315 94.0292 23.1825 93.9569 23.7853C93.8606 24.3881 93.7883 24.8704 93.7161 25.2803C93.6438 25.6902 93.5716 25.9072 93.5234 25.9313C93.4511 26.0037 93.3548 26.0278 93.2585 26.0278C93.138 26.0278 93.0417 26.0278 92.9454 26.0037C92.8249 25.9796 92.7045 25.9555 92.5841 25.9313L91.428 25.6179C91.3557 25.5697 91.2353 25.5214 91.1149 25.4973C90.9945 25.4732 90.874 25.4491 90.7536 25.4009C90.6332 25.3768 90.5128 25.3044 90.4405 25.2321C90.3682 25.1597 90.3201 25.0633 90.3442 24.9427C90.3682 24.8222 90.3923 24.6534 90.4164 24.4123ZM94.7518 17.4437C94.7036 17.9019 94.6313 18.4806 94.5591 19.1316C94.6554 19.0352 94.824 18.9387 95.0649 18.8423C95.3057 18.7699 95.5466 18.6976 95.8115 18.6252C96.1005 18.5529 96.4136 18.5047 96.7508 18.4323V17.2749C96.7267 16.9856 96.7267 16.7203 96.7027 16.4792C96.6786 16.2381 96.6545 16.1175 96.6063 16.1416C96.51 16.1658 96.3655 16.1899 96.1728 16.214C95.956 16.2381 95.7633 16.2863 95.5706 16.3104C95.378 16.3345 95.2094 16.3828 95.0649 16.4551C94.9204 16.5274 94.8481 16.5998 94.8481 16.7203C94.824 16.7445 94.7999 16.9856 94.7518 17.4437ZM95.6188 8.93199C95.5947 9.149 95.5947 9.36601 95.5706 9.58302C95.5466 9.82415 95.5466 10.0412 95.5225 10.2582C95.4984 10.4752 95.4984 10.6199 95.4984 10.7404C95.4984 10.861 95.5466 10.9333 95.6188 10.9333C95.6429 10.9333 95.7152 10.9092 95.8115 10.8851C95.9078 10.861 95.9801 10.8369 96.0042 10.8369C96.0283 10.8369 96.0764 10.8128 96.1728 10.7887C96.245 10.7645 96.3414 10.7404 96.4618 10.6922C96.5581 10.6681 96.6545 10.6199 96.7508 10.5958C96.8231 10.5716 96.8713 10.5716 96.8953 10.5716C96.9676 10.5475 97.088 10.5234 97.2807 10.4993C97.4734 10.4752 97.6902 10.4511 97.9069 10.4029C98.1237 10.3787 98.3164 10.3305 98.5331 10.2582C98.7258 10.1858 98.8462 10.1135 98.9185 10.0171C98.9426 9.99294 98.9667 9.9206 98.9908 9.84826C99.0148 9.77593 99.0389 9.67948 99.063 9.60714C99.0871 9.5348 99.1112 9.43835 99.1353 9.3419V8.83554C99.1353 8.71497 99.1353 8.5703 99.1593 8.42562C99.1593 7.91926 99.0148 7.65402 98.7017 7.65402C98.6054 7.65402 98.4127 7.67813 98.1478 7.72636C97.8587 7.77458 97.5697 7.82281 97.2566 7.89515C96.9435 7.96748 96.6786 8.03982 96.4136 8.11216C96.1487 8.1845 96.0042 8.20861 95.956 8.23272C95.8356 8.32917 95.7392 8.3774 95.7152 8.3774L95.6429 8.47385C95.6429 8.5703 95.6429 8.71497 95.6188 8.93199ZM97.5216 20.8436C97.5456 21.1812 97.5697 21.5429 97.5938 21.9528C97.6179 22.3627 97.6661 22.7485 97.6902 23.1102C97.7142 23.496 97.7383 23.7371 97.7624 23.8577C97.7865 23.9782 97.8347 24.0747 97.931 24.0988C98.0273 24.147 98.1237 24.1711 98.2441 24.147C98.3405 24.147 98.4368 24.1229 98.5572 24.0988C98.6776 24.0747 98.7499 24.0747 98.7981 24.0506C98.9185 24.0265 98.9908 23.9782 99.0148 23.93C99.1353 23.7612 99.2075 23.5201 99.2798 23.1825C99.352 22.8691 99.4002 22.5074 99.4484 22.1457C99.4965 21.784 99.5447 21.4223 99.5688 21.0606C99.5929 20.723 99.5929 20.4337 99.5929 20.1684C99.5929 20.0238 99.5688 19.855 99.5447 19.6862C99.5206 19.5174 99.4002 19.421 99.2316 19.421C99.1593 19.421 99.063 19.4451 98.9185 19.4692C98.7499 19.4933 98.5813 19.5415 98.4127 19.5656C98.2441 19.6139 98.0755 19.6621 97.931 19.6862C97.7624 19.7344 97.6661 19.7585 97.6179 19.7826C97.5456 19.8309 97.5216 19.855 97.5216 19.8791C97.4975 19.9032 97.4975 19.9755 97.4975 20.072V20.2649C97.4975 20.3131 97.4975 20.506 97.5216 20.8436ZM103.23 20.3372C103.206 20.0238 103.206 19.6139 103.206 19.1557C103.182 18.6976 103.182 18.2153 103.182 17.6607C103.182 17.1061 103.182 16.5998 103.206 16.0934C103.206 15.5871 103.206 15.1289 103.23 14.6949C103.23 14.285 103.23 13.9474 103.254 13.6822L103.278 9.24545V8.71497C103.278 8.44973 103.302 8.23272 103.374 8.01571C103.398 7.91926 103.543 7.84692 103.784 7.77458C104 7.72636 104.265 7.70224 104.554 7.67813C104.819 7.67813 105.084 7.70224 105.349 7.72636C105.614 7.77458 105.783 7.84692 105.855 7.91926C105.927 7.9916 106 8.11216 106.024 8.25683C106.048 8.40151 106.072 8.54618 106.096 8.69086C106.12 8.85965 106.12 9.05255 106.096 9.22134C106.072 9.65536 106.072 10.0412 106.072 10.4029C106.048 10.7645 106.048 11.1262 106.048 11.4879V13.851C106.048 14.4055 106.048 14.936 106.072 15.4906C106.096 16.0452 106.12 16.5998 106.144 17.1544C106.168 17.709 106.192 18.2153 106.216 18.6494V20.1202C106.216 20.2649 106.192 20.4337 106.168 20.6025C106.144 20.7954 106 20.9642 105.759 21.0847C105.686 21.1088 105.542 21.1571 105.301 21.2053C105.036 21.2535 104.771 21.2776 104.506 21.3017C104.217 21.3258 103.952 21.3017 103.736 21.2535C103.495 21.2294 103.35 21.1329 103.302 20.9883C103.278 20.8918 103.254 20.6748 103.23 20.3372ZM106.987 5.53211C107.204 5.43566 107.445 5.36333 107.71 5.29099C107.975 5.24276 108.239 5.21865 108.504 5.19454C108.769 5.17042 108.938 5.17042 109.01 5.19454C109.155 5.24276 109.275 5.33921 109.347 5.45978C109.42 5.60445 109.492 5.77324 109.54 5.94203C109.612 6.30372 109.685 6.6654 109.709 7.0512C109.733 7.43701 109.781 7.91926 109.805 8.47385C109.853 9.02844 109.901 9.55891 109.925 10.0653C109.95 10.5716 109.974 11.0298 109.998 11.3915C110.022 11.5603 110.022 11.7049 110.022 11.8255V12.1148C110.022 12.139 110.022 12.2113 110.046 12.356C110.046 12.5248 110.046 12.6935 110.07 12.8623C110.07 13.0552 110.07 13.224 110.094 13.3928C110.118 13.5616 110.118 13.6822 110.118 13.7304V16.8409C110.118 18.0707 110.094 19.2522 110.07 20.4337C110.046 21.6152 109.974 22.7967 109.901 23.9782C109.901 24.0506 109.877 24.2194 109.829 24.4846C109.757 24.7498 109.685 25.0392 109.564 25.3044C109.444 25.5938 109.275 25.8349 109.082 26.0278C108.89 26.2448 108.649 26.293 108.384 26.2207C107.83 26.0519 107.204 25.7384 106.529 25.2321C105.855 24.7498 105.132 24.1952 104.386 23.5924L104.338 23.4236C104.314 23.3272 104.29 23.2549 104.29 23.2307C104.29 22.9414 104.314 22.7485 104.362 22.6762C104.41 22.6038 104.579 22.5797 104.843 22.5797H105.108C105.205 22.6038 105.301 22.6038 105.397 22.6279C105.494 22.652 105.59 22.652 105.711 22.652C105.807 22.6762 105.903 22.6762 105.975 22.6762H106.409C106.505 22.6279 106.578 22.4109 106.626 22.0492C106.698 21.6875 106.746 21.2776 106.77 20.8436C106.794 20.4337 106.818 20.0238 106.843 19.6621C106.867 19.4933 106.867 19.3245 106.867 19.2039V18.9869L106.915 18.3359C106.939 18.2153 106.939 18.0707 106.963 17.9501V14.1885C106.963 13.4893 106.963 12.6694 106.939 11.7773C106.915 10.8851 106.891 10.0412 106.867 9.19722C106.843 8.3774 106.794 7.65402 106.77 7.02709C106.722 6.42428 106.698 6.03848 106.674 5.86969C106.65 5.74913 106.77 5.62856 106.987 5.53211Z" fill="#F9C33B"/>
</g>
<defs>
<clipPath id="clip0_18248_32481">
<rect width="34.8235" height="24.4706" fill="white" transform="translate(2.82324 3.76471)"/>
</clipPath>
<clipPath id="clip1_18248_32481">
<rect width="67.2941" height="21.6471" fill="white" transform="translate(43.7646 5.17645)"/>
</clipPath>
</defs>
</svg>
