<svg width="153" height="54" viewBox="0 0 153 54" fill="none" xmlns="http://www.w3.org/2000/svg">
<path d="M8.51669 42.3276C5.57562 35.5769 8.66395 27.7201 15.4147 24.7791L30.7696 18.0894C35.4951 16.0306 40.9949 18.1924 43.0536 22.918C45.1124 27.6435 42.9505 33.1432 38.225 35.202L15.5361 45.0868C12.8358 46.2633 9.69312 45.0279 8.51669 42.3276Z" fill="url(#paint0_linear_1_60451)"/>
<path d="M8.72231 10.8958C9.9166 8.2034 13.0674 6.98892 15.7599 8.18322L38.3848 18.2191C43.0965 20.3091 45.2219 25.823 43.1318 30.5348C41.0418 35.2465 35.5279 37.3719 30.8161 35.2819L15.5039 28.4897C8.77278 25.504 5.73658 17.6269 8.72231 10.8958Z" fill="#CCCCCC"/>
<g clip-path="url(#clip0_1_60451)">
<path d="M58.7202 26.9973H57.0999C56.9406 26.9973 56.8609 26.9716 56.8078 26.9202C56.7546 26.8688 56.7281 26.7404 56.7546 26.5606L57.3656 21.1663C57.4187 20.7553 57.6312 20.5498 58.003 20.5498H79.093C79.8102 20.5498 80.3945 20.6012 80.8461 20.6782C81.2976 20.7553 81.6429 20.9094 81.882 21.1149C82.121 21.3204 82.2804 21.6287 82.3335 21.9883C82.3866 22.3479 82.3866 22.8103 82.3335 23.3497L81.9882 26.5606C81.9882 26.7147 81.9351 26.8175 81.882 26.8688C81.8288 26.9202 81.7492 26.9202 81.5898 26.9202H79.7305C79.9961 27.1771 80.182 27.511 80.2617 27.8963C80.3414 28.2816 80.3414 28.744 80.3148 29.2834L79.8633 34.3181C79.8633 34.3181 79.8102 34.5493 79.8102 34.6521C79.8102 34.7548 79.7305 34.8319 79.6508 34.9089C79.8633 35.2686 80.0758 35.6282 80.3148 36.0392C80.5539 36.4502 80.7398 36.8868 80.9257 37.3235C81.1117 37.7602 81.271 38.1969 81.4304 38.6079C81.5898 39.0189 81.696 39.4042 81.7492 39.7381C81.8023 39.8922 81.8023 40.0207 81.7492 40.1491C81.7226 40.2776 81.6164 40.3803 81.4835 40.4317C80.8195 40.6629 80.2086 40.8427 79.5977 40.9968C79.0133 41.1509 78.2696 41.2794 77.4196 41.4335C77.0477 41.4849 76.8353 41.3821 76.7821 41.0739L76.5165 40.0464C74.9494 40.2005 73.3026 40.3546 71.6292 40.4574C69.9292 40.5601 68.2293 40.6629 66.4762 40.7656C64.7231 40.8684 62.9966 40.9454 61.2436 40.9968C59.4905 41.0482 57.7905 41.0995 56.1437 41.1252C55.9312 41.1252 55.7984 41.1252 55.7187 41.0482C55.6656 40.9711 55.6125 40.8684 55.5594 40.7142C55.5062 40.4574 55.4266 40.1491 55.3734 39.7895C55.3203 39.4299 55.2672 39.0959 55.2406 38.762C55.1875 38.4281 55.1609 38.0941 55.1344 37.7859C55.1078 37.4776 55.0812 37.1951 55.0547 36.9639C55.0547 36.6813 55.2141 36.5272 55.5062 36.5272C56.8609 36.5786 58.4546 36.5786 60.3139 36.5786H65.9715L66.1309 35.0117H58.428C58.1624 35.0117 57.9499 34.9603 57.8171 34.8319C57.6843 34.7034 57.6312 34.4979 57.6843 34.1897L58.7468 26.9716L58.7202 26.9973ZM73.7275 12.1501C74.2853 12.1501 74.8166 12.2271 75.3212 12.3556C75.8259 12.5097 76.2775 12.6895 76.6493 12.9464C77.0212 13.2033 77.3399 13.4858 77.5524 13.8197C77.7649 14.1537 77.8446 14.4619 77.818 14.7959V15.0014H83.5554C83.8741 15.0014 84.0335 15.1555 84.0069 15.4894C83.9538 15.9518 83.8475 16.4398 83.7413 16.9793C83.635 17.5187 83.5554 17.9297 83.4757 18.2379C83.4225 18.4178 83.3694 18.5462 83.2632 18.5976C83.1569 18.6489 83.0241 18.7003 82.8913 18.7003H77.2071L77.0743 19.5994C77.0212 19.9076 76.8353 20.0617 76.5696 20.0617H72.6385C72.2666 20.0617 72.1338 19.9076 72.187 19.5994L72.3198 18.7003H67.7512L67.6449 19.5223C67.6449 19.8819 67.4324 20.036 67.1137 20.036H63.3154C63.1029 20.036 62.9435 19.9847 62.8638 19.8562C62.7576 19.7535 62.731 19.6251 62.7576 19.4709L62.8638 18.6746H59.3311C58.3218 18.6746 57.4984 18.3921 56.8609 17.8526C56.2234 17.2875 55.8781 16.4655 55.7719 15.3353C55.7719 15.1041 55.8781 15.0014 56.0906 15.0014H63.3951L63.7404 12.6381C63.7404 12.3813 63.8997 12.2271 64.1653 12.2271C64.6966 12.2271 65.2012 12.3042 65.7059 12.4326C66.2106 12.5868 66.6356 12.7923 67.034 13.0491C67.4059 13.306 67.7246 13.6142 67.9637 13.9482C68.2027 14.2821 68.309 14.616 68.2824 15.0014H72.9041L73.276 12.484C73.276 12.484 73.3291 12.3042 73.4088 12.2271C73.4885 12.1501 73.5947 12.1244 73.7541 12.1244L73.7275 12.1501ZM61.7482 26.2267H67.0606L67.2199 24.8652C67.2199 24.6597 67.3527 24.557 67.5652 24.557H72.0276C72.2401 24.557 72.3463 24.6597 72.3198 24.8652L72.187 26.2267H77.0743L77.3665 24.0176H61.9607L61.7482 26.2267ZM66.5028 31.6467L66.7153 29.6174H63.2622L63.0497 31.6467H66.5028ZM71.2573 36.5786C72.0276 36.5786 72.7713 36.5786 73.4619 36.5786C74.1791 36.5786 74.8697 36.5786 75.5603 36.5272C75.4806 36.2704 75.4009 36.0392 75.3212 35.7823C75.2416 35.5254 75.1884 35.2942 75.1087 35.0374H71.4167L71.2573 36.5786ZM71.8948 29.6174L71.7089 31.6467H75.0556L75.2416 30.1311C75.2416 29.8999 75.2416 29.7715 75.1619 29.6944C75.0822 29.6431 74.9228 29.5917 74.7103 29.5917H71.8948V29.6174Z" fill="#CCCCCC"/>
<path d="M96.7274 31.7751C96.4352 31.9806 96.1962 31.9293 96.0634 31.6467C95.9306 31.3898 95.7978 31.1073 95.6915 30.8247C95.5587 30.5422 95.4259 30.2596 95.24 29.9514L94.5494 41.0225C94.4962 41.3565 94.2837 41.5106 93.9384 41.5106H90.1667C89.7417 41.5106 89.5558 41.3308 89.5823 40.9455L90.4323 31.9806C89.9011 32.3403 89.3698 32.6485 88.812 32.9054C88.2542 33.1623 87.6964 33.3934 87.1121 33.5476C86.9527 33.5989 86.7934 33.5476 86.6605 33.4962C86.5277 33.4191 86.4746 33.265 86.4746 33.0338C86.4746 32.7513 86.5277 32.4173 86.6074 32.0834C86.6605 31.7238 86.7402 31.3898 86.8199 31.0302C86.8996 30.6706 86.9793 30.3367 87.0324 30.0284C87.0855 29.7202 87.1652 29.4376 87.2449 29.1807C87.298 29.078 87.3511 28.9752 87.4308 28.8982C87.5105 28.8211 87.5636 28.7441 87.6433 28.7184C89.0777 27.8707 90.2729 26.946 91.176 25.8928C92.0791 24.8653 92.7697 23.6066 93.1947 22.1681H90.8042C90.0073 22.1681 89.3433 21.8599 88.7855 21.2434C88.2277 20.6269 87.9089 19.7535 87.8558 18.6233C87.8558 18.3921 87.9355 18.2894 88.1214 18.2894H96.2759C97.418 18.2894 98.1352 18.5719 98.4539 19.1114C98.7461 19.6508 98.7727 20.37 98.4805 21.2434C98.0024 22.7333 97.2852 24.2488 96.3555 25.7387C96.8602 26.201 97.3383 26.6634 97.7368 27.1258C98.1617 27.5881 98.507 28.0505 98.7992 28.4615L100.393 14.7188C100.446 14.462 100.526 14.2822 100.659 14.2308C100.791 14.1794 100.977 14.128 101.243 14.128H111.575C113.01 14.128 113.939 14.4106 114.391 14.95C114.842 15.4895 115.002 16.4656 114.842 17.827L113.833 31.1073C113.78 31.4155 113.621 31.5696 113.328 31.5696H109.69C109.318 31.5696 109.158 31.4155 109.211 31.0816L110.354 19.0086C110.407 18.5462 110.247 18.3407 109.849 18.3407H104.537L102.837 31.2614C102.783 31.544 102.571 31.6981 102.252 31.6981H98.8789C98.5867 31.6981 98.4539 31.5183 98.507 31.1843L98.5602 30.4651C98.268 30.722 97.9758 30.9532 97.6571 31.1843C97.3649 31.4155 97.0727 31.621 96.754 31.8008L96.7274 31.7751ZM95.1071 12.0988C95.904 12.0988 96.5946 12.3556 97.1524 12.8951C97.7102 13.4345 98.0024 14.0767 98.0024 14.873C98.0024 15.6693 97.7102 16.3115 97.1524 16.8509C96.5946 17.3903 95.904 17.6729 95.1071 17.6729C94.3103 17.6729 93.6197 17.3903 93.0619 16.8509C92.5041 16.3115 92.2119 15.6436 92.2119 14.873C92.2119 14.1024 92.5041 13.4345 93.0619 12.8951C93.6197 12.3556 94.3103 12.0988 95.1071 12.0988ZM105.041 19.5994C105.094 19.3169 105.254 19.1627 105.546 19.1627H108.999C109.371 19.1627 109.53 19.3169 109.477 19.6251C109.265 21.9883 109.052 24.0947 108.84 25.9442C108.627 27.7936 108.308 29.4633 107.883 30.9275C107.83 31.1587 107.75 31.3641 107.697 31.5696C107.644 31.7751 107.565 31.955 107.485 32.1348H110.221C110.539 32.1348 110.699 32.2889 110.672 32.5971L110.3 36.4502C110.858 36.5016 111.575 36.3988 112.478 36.142C113.382 35.8851 114.258 35.5512 115.108 35.1145C115.214 35.0631 115.321 35.0631 115.453 35.1145C115.56 35.1659 115.639 35.2943 115.639 35.4484C115.639 35.7053 115.639 35.9878 115.586 36.2961C115.533 36.6043 115.507 36.9383 115.453 37.2722C115.4 37.6061 115.347 37.9401 115.321 38.2226C115.267 38.5309 115.241 38.7621 115.188 38.9676C115.135 39.1217 115.108 39.2501 115.055 39.3272C115.002 39.4042 114.896 39.507 114.763 39.6097C114.391 39.8409 113.86 40.0207 113.143 40.2005C112.425 40.3547 111.655 40.4831 110.805 40.5602C109.955 40.6372 109.132 40.6629 108.282 40.6115C107.432 40.5602 106.715 40.4831 106.077 40.329C105.626 40.2005 105.44 39.918 105.493 39.507L105.971 35.2943C104.962 36.8355 103.66 38.0942 102.093 39.0446C100.526 40.0207 98.6664 40.74 96.4884 41.2537C95.904 41.4078 95.6384 41.2023 95.7446 40.6629C95.8509 40.1235 95.9571 39.5841 96.0899 38.9932C96.1962 38.4281 96.3555 37.8116 96.5149 37.1438C96.568 36.8612 96.7274 36.6557 96.9665 36.553C97.7899 36.1677 98.5336 35.7823 99.2242 35.4227C99.8883 35.0631 100.499 34.6778 101.004 34.2411C101.535 33.8044 101.987 33.3164 102.358 32.7769C102.73 32.2375 103.049 31.5953 103.315 30.8504C103.74 29.6431 104.085 28.1276 104.324 26.3295C104.59 24.5314 104.829 22.2709 105.068 19.5224L105.041 19.5994Z" fill="#CCCCCC"/>
<path d="M133.783 20.9864C133.783 20.6781 133.836 20.4726 133.943 20.3442C134.049 20.2158 134.208 20.1644 134.447 20.1644H137.475L137.98 18.2892H135.882C135.085 18.2892 134.394 17.981 133.863 17.3902C133.332 16.7994 133.039 15.9774 133.013 14.9499C133.013 14.693 133.146 14.5389 133.385 14.5389H147.277C147.436 14.5389 147.569 14.5646 147.648 14.6416C147.728 14.693 147.728 14.8215 147.702 15.0013C147.648 15.515 147.569 16.0288 147.462 16.5168C147.356 17.0306 147.25 17.4672 147.117 17.8782C147.064 18.1351 146.852 18.2379 146.506 18.2379H142.735C142.602 18.5975 142.469 18.9057 142.31 19.214C142.15 19.5222 141.991 19.8305 141.805 20.113H143.531C144.249 20.113 144.833 20.1644 145.258 20.2415C145.683 20.3185 146.002 20.4726 146.214 20.6781C146.427 20.8836 146.533 21.1662 146.586 21.5258C146.639 21.8854 146.639 22.3478 146.613 22.9386L145.922 33.83C145.922 34.0869 145.869 34.241 145.789 34.318C145.683 34.3951 145.55 34.4465 145.338 34.4465H142.416C142.044 34.4465 141.885 34.2923 141.885 33.8814L142.708 23.812H137.449L136.28 33.7015C136.28 34.0612 136.094 34.2153 135.696 34.2153H132.96C132.588 34.2153 132.402 34.0355 132.429 33.6502L132.88 29.5145C132.429 31.2356 131.765 32.7768 130.888 34.1382C130.011 35.4996 128.949 36.6556 127.727 37.6574C126.505 38.6335 125.124 39.4555 123.557 40.072C122.016 40.6885 120.343 41.1508 118.563 41.4077C118.324 41.4591 118.138 41.4077 118.032 41.305C117.926 41.2022 117.873 41.0224 117.899 40.7912C118.006 40.3288 118.138 39.738 118.324 39.0702C118.51 38.4023 118.67 37.8115 118.829 37.3234C118.935 37.0666 119.095 36.8868 119.334 36.8354C120.688 36.5271 121.91 36.1161 122.973 35.6281C124.035 35.14 124.938 34.4978 125.708 33.7272H124.248C124.248 33.7272 124.009 33.7015 123.929 33.6245C123.849 33.5474 123.823 33.4447 123.823 33.2649L124.619 26.3293H121.751C120.927 26.3293 120.263 25.9954 119.732 25.3532C119.201 24.711 118.935 23.9147 118.909 22.9643C118.909 22.7331 119.015 22.6304 119.254 22.6304H121.326L122.07 15.2068C122.07 14.9499 122.229 14.8215 122.521 14.8728C123.69 15.027 124.487 15.3609 124.938 15.8233C125.39 16.2856 125.576 16.9535 125.523 17.8269L125.151 22.6304H125.974L126.957 12.5867C126.957 12.3298 127.116 12.2014 127.462 12.2527C128.604 12.3555 129.507 12.6894 130.144 13.2289C130.782 13.794 131.074 14.4875 130.994 15.3609L130.861 16.9278H132.933C133.225 16.9278 133.358 17.0819 133.358 17.4159C133.305 17.8525 133.252 18.3149 133.172 18.7773C133.093 19.2653 133.013 19.702 132.933 20.113C132.88 20.447 132.694 20.6011 132.429 20.6011H130.543L130.357 22.6047H132.88C133.199 22.6047 133.332 22.7331 133.305 23.067C133.305 23.2469 133.252 23.478 133.199 23.7349C133.146 23.9918 133.119 24.2487 133.066 24.5312C133.013 24.8138 132.986 25.045 132.933 25.2761C132.88 25.5073 132.854 25.7128 132.827 25.8413C132.774 26.1495 132.641 26.3036 132.375 26.3036H129.082L128.577 30.5934C128.949 29.7714 129.321 28.821 129.64 27.7164C129.64 27.5366 129.799 27.4339 130.011 27.4339H133.013H133.039C133.039 27.4339 133.039 27.4339 133.066 27.4339L133.757 20.858L133.783 20.9864ZM123.584 27.4852C123.955 27.4852 124.115 27.6651 124.062 28.0504C123.796 30.054 123.212 31.6723 122.362 32.9052C121.512 34.1382 120.316 35.0116 118.802 35.4996C118.643 35.551 118.484 35.5253 118.351 35.3969C118.218 35.2685 118.165 35.14 118.192 34.9602C118.245 34.5235 118.298 33.9841 118.404 33.3419C118.51 32.6997 118.59 32.1089 118.696 31.5695C118.749 31.3897 118.856 31.2099 119.015 31.0558C119.174 30.9016 119.307 30.7475 119.44 30.5677C119.573 30.3879 119.679 30.1824 119.785 29.9512C119.891 29.72 119.998 29.4375 120.077 29.0779C120.157 28.7182 120.263 28.3072 120.37 27.7935C120.449 27.5623 120.609 27.4596 120.821 27.4596H123.557L123.584 27.4852ZM141.645 24.711C141.805 24.711 141.938 24.7367 141.991 24.8138C142.044 24.8908 142.07 24.9936 142.044 25.1734C141.964 26.7403 141.831 28.2815 141.699 29.7714C141.539 31.2869 141.3 32.6484 140.928 33.8814C140.583 35.0373 140.078 36.0391 139.441 36.8868C138.777 37.7344 138.007 38.4794 137.103 39.0702C136.2 39.6867 135.191 40.1747 134.049 40.56C132.933 40.9453 131.738 41.2279 130.49 41.4077C130.277 41.4591 130.118 41.4077 129.985 41.305C129.852 41.2022 129.826 41.0481 129.879 40.8169C130.038 40.1747 130.197 39.5325 130.383 38.839C130.569 38.1711 130.755 37.606 130.888 37.195C130.941 36.9381 131.1 36.8097 131.313 36.7583C132.004 36.5785 132.615 36.3987 133.199 36.1932C133.783 36.0134 134.314 35.7822 134.766 35.5253C135.218 35.2685 135.643 34.9602 135.988 34.6263C136.333 34.2667 136.599 33.8557 136.785 33.3676C136.997 32.7768 137.183 32.186 137.316 31.5695C137.449 30.9787 137.555 30.3365 137.661 29.6943C137.741 29.0265 137.821 28.3329 137.874 27.588C137.927 26.8431 137.98 25.9954 138.007 25.0707C138.007 24.8138 138.113 24.6597 138.325 24.6597H141.672L141.645 24.711ZM142.788 35.063C143.638 35.063 144.355 35.3455 144.939 35.9363C145.523 36.5014 145.816 37.2207 145.816 38.0684C145.816 38.916 145.523 39.5839 144.939 40.1747C144.355 40.7398 143.638 41.0481 142.788 41.0481C141.938 41.0481 141.22 40.7655 140.61 40.1747C140.025 39.6096 139.706 38.8904 139.706 38.0684C139.706 37.2464 139.999 36.5271 140.61 35.9363C141.194 35.3712 141.938 35.063 142.788 35.063Z" fill="#CCCCCC"/>
</g>
<defs>
<linearGradient id="paint0_linear_1_60451" x1="29.0214" y1="26.4872" x2="5.6456" y2="39.5961" gradientUnits="userSpaceOnUse">
<stop stop-color="#A7A7A7"/>
<stop offset="1" stop-color="#CCCCCC"/>
</linearGradient>
<clipPath id="clip0_1_60451">
<rect width="92.6471" height="29.4118" fill="white" transform="translate(55.0801 12.0988)"/>
</clipPath>
</defs>
</svg>
