<svg width="153" height="54" viewBox="0 0 153 54" fill="none" xmlns="http://www.w3.org/2000/svg">
<path d="M8.51767 42.3278C5.57659 35.577 8.66493 27.7203 15.4157 24.7792L30.7706 18.0895C35.4961 16.0307 40.9958 18.1926 43.0546 22.9181C45.1134 27.6436 42.9515 33.1433 38.226 35.2021L15.5371 45.087C12.8368 46.2634 9.6941 45.0281 8.51767 42.3278Z" fill="url(#paint0_linear_14_79615)"/>
<path d="M8.72328 10.8956C9.91758 8.20316 13.0684 6.98868 15.7608 8.18297L38.3857 18.2188C43.0975 20.3088 45.2228 25.8228 43.1328 30.5345C41.0428 35.2463 35.5289 37.3716 30.8171 35.2816L15.5048 28.4895C8.77376 25.5037 5.73755 17.6267 8.72328 10.8956Z" fill="#CCCCCC"/>
<g clip-path="url(#clip0_14_79615)">
<path d="M58.7163 26.9974H57.096C56.9367 26.9974 56.857 26.9717 56.8039 26.9203C56.7507 26.869 56.7242 26.7405 56.7507 26.5607L57.3616 21.1664C57.4148 20.7554 57.6273 20.5499 57.9991 20.5499H79.0891C79.8063 20.5499 80.3906 20.6013 80.8422 20.6783C81.2937 20.7554 81.639 20.9095 81.8781 21.115C82.1171 21.3205 82.2765 21.6288 82.3296 21.9884C82.3827 22.348 82.3827 22.8104 82.3296 23.3498L81.9843 26.5607C81.9843 26.7148 81.9312 26.8176 81.8781 26.869C81.8249 26.9203 81.7453 26.9203 81.5859 26.9203H79.7266C79.9922 27.1772 80.1781 27.5111 80.2578 27.8964C80.3375 28.2818 80.3375 28.7441 80.3109 29.2836L79.8594 34.3182C79.8594 34.3182 79.8063 34.5494 79.8063 34.6522C79.8063 34.7549 79.7266 34.832 79.6469 34.9091C79.8594 35.2687 80.0719 35.6283 80.3109 36.0393C80.55 36.4503 80.7359 36.887 80.9218 37.3236C81.1078 37.7603 81.2671 38.197 81.4265 38.608C81.5859 39.019 81.6921 39.4043 81.7453 39.7382C81.7984 39.8924 81.7984 40.0208 81.7453 40.1492C81.7187 40.2777 81.6124 40.3804 81.4796 40.4318C80.8156 40.663 80.2047 40.8428 79.5938 40.9969C79.0094 41.151 78.2657 41.2795 77.4157 41.4336C77.0438 41.485 76.8313 41.3822 76.7782 41.074L76.5126 40.0465C74.9455 40.2006 73.2986 40.3547 71.6253 40.4575C69.9253 40.5602 68.2254 40.663 66.4723 40.7657C64.7192 40.8685 62.9927 40.9455 61.2396 40.9969C59.4866 41.0483 57.7866 41.0997 56.1398 41.1254C55.9273 41.1254 55.7945 41.1254 55.7148 41.0483C55.6617 40.9712 55.6086 40.8685 55.5555 40.7144C55.5023 40.4575 55.4226 40.1492 55.3695 39.7896C55.3164 39.43 55.2633 39.0961 55.2367 38.7621C55.1836 38.4282 55.157 38.0943 55.1305 37.786C55.1039 37.4778 55.0773 37.1952 55.0508 36.964C55.0508 36.6815 55.2102 36.5273 55.5023 36.5273C56.857 36.5787 58.4507 36.5787 60.31 36.5787H65.9676L66.127 35.0118H58.4241C58.1585 35.0118 57.946 34.9604 57.8132 34.832C57.6804 34.7036 57.6273 34.4981 57.6804 34.1898L58.7429 26.9717L58.7163 26.9974ZM73.7236 12.1502C74.2814 12.1502 74.8127 12.2273 75.3173 12.3557C75.822 12.5098 76.2736 12.6896 76.6454 12.9465C77.0173 13.2034 77.336 13.4859 77.5485 13.8199C77.761 14.1538 77.8407 14.462 77.8141 14.796V15.0015H83.5514C83.8702 15.0015 84.0296 15.1556 84.003 15.4895C83.9499 15.9519 83.8436 16.44 83.7374 16.9794C83.6311 17.5188 83.5514 17.9298 83.4718 18.2381C83.4186 18.4179 83.3655 18.5463 83.2593 18.5977C83.153 18.6491 83.0202 18.7004 82.8874 18.7004H77.2032L77.0704 19.5995C77.0173 19.9077 76.8313 20.0619 76.5657 20.0619H72.6346C72.2627 20.0619 72.1299 19.9077 72.1831 19.5995L72.3159 18.7004H67.7473L67.641 19.5224C67.641 19.882 67.4285 20.0362 67.1098 20.0362H63.3115C63.099 20.0362 62.9396 19.9848 62.8599 19.8564C62.7537 19.7536 62.7271 19.6252 62.7537 19.471L62.8599 18.6747H59.3272C58.3179 18.6747 57.4945 18.3922 56.857 17.8528C56.2195 17.2876 55.8742 16.4656 55.7679 15.3354C55.7679 15.1042 55.8742 15.0015 56.0867 15.0015H63.3911L63.7364 12.6383C63.7364 12.3814 63.8958 12.2273 64.1614 12.2273C64.6927 12.2273 65.1973 12.3043 65.702 12.4328C66.2067 12.5869 66.6317 12.7924 67.0301 13.0493C67.402 13.3061 67.7207 13.6144 67.9598 13.9483C68.1988 14.2822 68.3051 14.6162 68.2785 15.0015H72.9002L73.2721 12.4841C73.2721 12.4841 73.3252 12.3043 73.4049 12.2273C73.4846 12.1502 73.5908 12.1245 73.7502 12.1245L73.7236 12.1502ZM61.7443 26.2268H67.0567L67.216 24.8654C67.216 24.6599 67.3488 24.5571 67.5613 24.5571H72.0237C72.2362 24.5571 72.3424 24.6599 72.3159 24.8654L72.1831 26.2268H77.0704L77.3626 24.0177H61.9568L61.7443 26.2268ZM66.4989 31.6468L66.7114 29.6175H63.2583L63.0458 31.6468H66.4989ZM71.2534 36.5787C72.0237 36.5787 72.7674 36.5787 73.458 36.5787C74.1752 36.5787 74.8658 36.5787 75.5564 36.5273C75.4767 36.2705 75.397 36.0393 75.3173 35.7824C75.2376 35.5255 75.1845 35.2944 75.1048 35.0375H71.4128L71.2534 36.5787ZM71.8909 29.6175L71.7049 31.6468H75.0517L75.2376 30.1312C75.2376 29.9 75.2376 29.7716 75.158 29.6946C75.0783 29.6432 74.9189 29.5918 74.7064 29.5918H71.8909V29.6175Z" fill="#CCCCCC"/>
<path d="M96.7274 31.7753C96.4352 31.9808 96.1962 31.9294 96.0634 31.6468C95.9306 31.39 95.7978 31.1074 95.6915 30.8248C95.5587 30.5423 95.4259 30.2597 95.24 29.9515L94.5494 41.0227C94.4962 41.3566 94.2837 41.5107 93.9384 41.5107H90.1667C89.7417 41.5107 89.5558 41.3309 89.5823 40.9456L90.4323 31.9808C89.9011 32.3404 89.3698 32.6486 88.812 32.9055C88.2542 33.1624 87.6964 33.3936 87.1121 33.5477C86.9527 33.5991 86.7934 33.5477 86.6605 33.4963C86.5277 33.4192 86.4746 33.2651 86.4746 33.0339C86.4746 32.7514 86.5277 32.4174 86.6074 32.0835C86.6605 31.7239 86.7402 31.39 86.8199 31.0303C86.8996 30.6707 86.9793 30.3368 87.0324 30.0285C87.0855 29.7203 87.1652 29.4377 87.2449 29.1809C87.298 29.0781 87.3511 28.9754 87.4308 28.8983C87.5105 28.8212 87.5636 28.7442 87.6433 28.7185C89.0777 27.8708 90.2729 26.9461 91.176 25.8929C92.0791 24.8654 92.7697 23.6067 93.1947 22.1683H90.8042C90.0073 22.1683 89.3433 21.86 88.7855 21.2435C88.2277 20.627 87.9089 19.7537 87.8558 18.6234C87.8558 18.3922 87.9355 18.2895 88.1214 18.2895H96.2759C97.418 18.2895 98.1352 18.572 98.4539 19.1115C98.7461 19.6509 98.7727 20.3702 98.4805 21.2435C98.0024 22.7334 97.2852 24.2489 96.3555 25.7388C96.8602 26.2011 97.3383 26.6635 97.7368 27.1259C98.1617 27.5883 98.507 28.0506 98.7992 28.4616L100.393 14.719C100.446 14.4621 100.526 14.2823 100.659 14.2309C100.791 14.1795 100.977 14.1282 101.243 14.1282H111.575C113.01 14.1282 113.939 14.4107 114.391 14.9502C114.842 15.4896 115.002 16.4657 114.842 17.8271L113.833 31.1074C113.78 31.4156 113.621 31.5698 113.328 31.5698H109.69C109.318 31.5698 109.158 31.4156 109.211 31.0817L110.354 19.0087C110.407 18.5464 110.247 18.3409 109.849 18.3409H104.537L102.837 31.2615C102.783 31.5441 102.571 31.6982 102.252 31.6982H98.8789C98.5867 31.6982 98.4539 31.5184 98.507 31.1845L98.5602 30.4652C98.268 30.7221 97.9758 30.9533 97.6571 31.1845C97.3649 31.4156 97.0727 31.6211 96.754 31.801L96.7274 31.7753ZM95.1071 12.0989C95.904 12.0989 96.5946 12.3557 97.1524 12.8952C97.7102 13.4346 98.0024 14.0768 98.0024 14.8731C98.0024 15.6694 97.7102 16.3116 97.1524 16.851C96.5946 17.3904 95.904 17.673 95.1071 17.673C94.3103 17.673 93.6197 17.3904 93.0619 16.851C92.5041 16.3116 92.2119 15.6437 92.2119 14.8731C92.2119 14.1025 92.5041 13.4346 93.0619 12.8952C93.6197 12.3557 94.3103 12.0989 95.1071 12.0989ZM105.041 19.5995C105.094 19.317 105.254 19.1629 105.546 19.1629H108.999C109.371 19.1629 109.53 19.317 109.477 19.6252C109.265 21.9884 109.052 24.0948 108.84 25.9443C108.627 27.7938 108.308 29.4634 107.883 30.9276C107.83 31.1588 107.75 31.3643 107.697 31.5698C107.644 31.7753 107.565 31.9551 107.485 32.1349H110.221C110.539 32.1349 110.699 32.289 110.672 32.5973L110.3 36.4503C110.858 36.5017 111.575 36.399 112.478 36.1421C113.382 35.8852 114.258 35.5513 115.108 35.1146C115.214 35.0632 115.321 35.0632 115.453 35.1146C115.56 35.166 115.639 35.2944 115.639 35.4485C115.639 35.7054 115.639 35.988 115.586 36.2962C115.533 36.6045 115.507 36.9384 115.453 37.2723C115.4 37.6063 115.347 37.9402 115.321 38.2228C115.267 38.531 115.241 38.7622 115.188 38.9677C115.135 39.1218 115.108 39.2502 115.055 39.3273C115.002 39.4044 114.896 39.5071 114.763 39.6099C114.391 39.841 113.86 40.0209 113.143 40.2007C112.425 40.3548 111.655 40.4832 110.805 40.5603C109.955 40.6373 109.132 40.663 108.282 40.6117C107.432 40.5603 106.715 40.4832 106.077 40.3291C105.626 40.2007 105.44 39.9181 105.493 39.5071L105.971 35.2944C104.962 36.8356 103.66 38.0943 102.093 39.0447C100.526 40.0209 98.6664 40.7401 96.4884 41.2538C95.904 41.408 95.6384 41.2025 95.7446 40.663C95.8509 40.1236 95.9571 39.5842 96.0899 38.9934C96.1962 38.4282 96.3555 37.8118 96.5149 37.1439C96.568 36.8613 96.7274 36.6558 96.9665 36.5531C97.7899 36.1678 98.5336 35.7825 99.2242 35.4228C99.8883 35.0632 100.499 34.6779 101.004 34.2412C101.535 33.8046 101.987 33.3165 102.358 32.7771C102.73 32.2376 103.049 31.5955 103.315 30.8505C103.74 29.6432 104.085 28.1277 104.324 26.3296C104.59 24.5315 104.829 22.271 105.068 19.5225L105.041 19.5995Z" fill="#CCCCCC"/>
<path d="M133.78 20.9865C133.78 20.6783 133.833 20.4728 133.94 20.3443C134.046 20.2159 134.205 20.1645 134.444 20.1645H137.472L137.977 18.2894H135.879C135.082 18.2894 134.391 17.9811 133.86 17.3903C133.329 16.7995 133.037 15.9775 133.01 14.95C133.01 14.6931 133.143 14.539 133.382 14.539H147.274C147.433 14.539 147.566 14.5647 147.645 14.6418C147.725 14.6931 147.725 14.8216 147.699 15.0014C147.645 15.5151 147.566 16.0289 147.46 16.5169C147.353 17.0307 147.247 17.4674 147.114 17.8784C147.061 18.1352 146.849 18.238 146.503 18.238H142.732C142.599 18.5976 142.466 18.9058 142.307 19.2141C142.147 19.5223 141.988 19.8306 141.802 20.1131H143.528C144.246 20.1131 144.83 20.1645 145.255 20.2416C145.68 20.3186 145.999 20.4728 146.211 20.6783C146.424 20.8838 146.53 21.1663 146.583 21.5259C146.636 21.8856 146.636 22.3479 146.61 22.9387L145.919 33.8301C145.919 34.087 145.866 34.2411 145.786 34.3182C145.68 34.3952 145.547 34.4466 145.335 34.4466H142.413C142.041 34.4466 141.882 34.2925 141.882 33.8815L142.705 23.8121H137.446L136.277 33.7017C136.277 34.0613 136.091 34.2154 135.693 34.2154H132.957C132.585 34.2154 132.399 34.0356 132.426 33.6503L132.877 29.5147C132.426 31.2357 131.762 32.7769 130.885 34.1383C130.009 35.4998 128.946 36.6557 127.724 37.6575C126.502 38.6336 125.121 39.4556 123.554 40.0721C122.013 40.6886 120.34 41.151 118.56 41.4078C118.321 41.4592 118.135 41.4078 118.029 41.3051C117.923 41.2023 117.87 41.0225 117.896 40.7913C118.003 40.329 118.135 39.7382 118.321 39.0703C118.507 38.4024 118.667 37.8116 118.826 37.3236C118.932 37.0667 119.092 36.8869 119.331 36.8355C120.685 36.5273 121.907 36.1163 122.97 35.6282C124.032 35.1401 124.935 34.498 125.706 33.7274H124.245C124.245 33.7274 124.006 33.7017 123.926 33.6246C123.846 33.5475 123.82 33.4448 123.82 33.265L124.617 26.3294H121.748C120.924 26.3294 120.26 25.9955 119.729 25.3533C119.198 24.7112 118.932 23.9148 118.906 22.9644C118.906 22.7332 119.012 22.6305 119.251 22.6305H121.323L122.067 15.2069C122.067 14.95 122.226 14.8216 122.518 14.873C123.687 15.0271 124.484 15.361 124.935 15.8234C125.387 16.2858 125.573 16.9536 125.52 17.827L125.148 22.6305H125.971L126.954 12.5868C126.954 12.3299 127.113 12.2015 127.459 12.2529C128.601 12.3556 129.504 12.6895 130.141 13.229C130.779 13.7941 131.071 14.4876 130.991 15.361L130.859 16.9279H132.93C133.222 16.9279 133.355 17.0821 133.355 17.416C133.302 17.8527 133.249 18.315 133.169 18.7774C133.09 19.2655 133.01 19.7021 132.93 20.1131C132.877 20.4471 132.691 20.6012 132.426 20.6012H130.54L130.354 22.6048H132.877C133.196 22.6048 133.329 22.7332 133.302 23.0672C133.302 23.247 133.249 23.4782 133.196 23.735C133.143 23.9919 133.116 24.2488 133.063 24.5313C133.01 24.8139 132.983 25.0451 132.93 25.2763C132.877 25.5075 132.851 25.713 132.824 25.8414C132.771 26.1496 132.638 26.3038 132.373 26.3038H129.079L128.574 30.5935C128.946 29.7715 129.318 28.8211 129.637 27.7166C129.637 27.5367 129.796 27.434 130.009 27.434H133.01H133.037C133.037 27.434 133.037 27.434 133.063 27.434L133.754 20.8581L133.78 20.9865ZM123.581 27.4854C123.952 27.4854 124.112 27.6652 124.059 28.0505C123.793 30.0541 123.209 31.6724 122.359 32.9054C121.509 34.1383 120.314 35.0117 118.8 35.4998C118.64 35.5511 118.481 35.5255 118.348 35.397C118.215 35.2686 118.162 35.1401 118.189 34.9603C118.242 34.5237 118.295 33.9842 118.401 33.342C118.507 32.6999 118.587 32.1091 118.693 31.5696C118.746 31.3898 118.853 31.21 119.012 31.0559C119.171 30.9018 119.304 30.7476 119.437 30.5678C119.57 30.388 119.676 30.1825 119.782 29.9513C119.889 29.7202 119.995 29.4376 120.074 29.078C120.154 28.7184 120.26 28.3074 120.367 27.7936C120.446 27.5624 120.606 27.4597 120.818 27.4597H123.554L123.581 27.4854ZM141.643 24.7112C141.802 24.7112 141.935 24.7368 141.988 24.8139C142.041 24.891 142.068 24.9937 142.041 25.1735C141.961 26.7404 141.828 28.2817 141.696 29.7715C141.536 31.2871 141.297 32.6485 140.925 33.8815C140.58 35.0374 140.075 36.0392 139.438 36.8869C138.774 37.7346 138.004 38.4795 137.1 39.0703C136.197 39.6868 135.188 40.1748 134.046 40.5601C132.93 40.9455 131.735 41.228 130.487 41.4078C130.274 41.4592 130.115 41.4078 129.982 41.3051C129.849 41.2023 129.823 41.0482 129.876 40.817C130.035 40.1748 130.194 39.5327 130.38 38.8391C130.566 38.1712 130.752 37.6061 130.885 37.1951C130.938 36.9383 131.098 36.8098 131.31 36.7584C132.001 36.5786 132.612 36.3988 133.196 36.1933C133.78 36.0135 134.312 35.7823 134.763 35.5255C135.215 35.2686 135.64 34.9603 135.985 34.6264C136.33 34.2668 136.596 33.8558 136.782 33.3677C136.994 32.7769 137.18 32.1861 137.313 31.5696C137.446 30.9788 137.552 30.3366 137.658 29.6945C137.738 29.0266 137.818 28.333 137.871 27.5881C137.924 26.8432 137.977 25.9955 138.004 25.0708C138.004 24.8139 138.11 24.6598 138.322 24.6598H141.669L141.643 24.7112ZM142.785 35.0631C143.635 35.0631 144.352 35.3456 144.936 35.9365C145.521 36.5016 145.813 37.2208 145.813 38.0685C145.813 38.9162 145.521 39.584 144.936 40.1748C144.352 40.74 143.635 41.0482 142.785 41.0482C141.935 41.0482 141.218 40.7656 140.607 40.1748C140.022 39.6097 139.704 38.8905 139.704 38.0685C139.704 37.2465 139.996 36.5273 140.607 35.9365C141.191 35.3713 141.935 35.0631 142.785 35.0631Z" fill="#CCCCCC"/>
</g>
<defs>
<linearGradient id="paint0_linear_14_79615" x1="29.0224" y1="26.4873" x2="5.64658" y2="39.5962" gradientUnits="userSpaceOnUse">
<stop stop-color="#A7A7A7"/>
<stop offset="1" stop-color="#CCCCCC"/>
</linearGradient>
<clipPath id="clip0_14_79615">
<rect width="92.6471" height="29.4118" fill="white" transform="translate(55.0791 12.0989)"/>
</clipPath>
</defs>
</svg>
