<svg width="30" height="31" viewBox="0 0 30 31" fill="none" xmlns="http://www.w3.org/2000/svg">
<rect y="0.5" width="30" height="30" rx="15" fill="url(#paint0_linear_16322_2996)"/>
<g style="mix-blend-mode:screen" opacity="0.1">
<rect y="0.5" width="30" height="30" rx="15" fill="url(#paint1_linear_16322_2996)"/>
</g>
<g filter="url(#filter0_d_16322_2996)">
<path d="M11.147 23.7768C11.3289 23.7582 11.5479 23.7397 11.7335 23.684C11.9228 23.6283 12.1047 23.5466 12.2792 23.4575C12.3015 23.4464 12.32 23.4353 12.3386 23.4241C12.3683 23.4056 12.398 23.3907 12.4277 23.3722C12.81 23.1531 13.1924 22.9304 13.5747 22.7114C14.2504 22.3216 14.9297 21.9318 15.6053 21.5383C16.3997 21.0779 17.1978 20.6176 17.9922 20.161C18.731 19.7341 19.4697 19.3071 20.2084 18.8802C20.7207 18.5869 21.2292 18.2899 21.7415 17.9967C21.8566 17.9299 21.9717 17.863 22.0868 17.7962C22.6881 17.451 23.1336 16.8978 23.3266 16.2296C23.3786 16.0477 23.3972 15.8361 23.4157 15.6542C23.4231 15.5948 23.4269 15.5317 23.4231 15.4723C23.4157 15.2792 23.386 15.0862 23.3489 14.8969C23.3378 14.8375 23.3192 14.7781 23.2969 14.7187C23.2301 14.5442 23.1633 14.3623 23.0668 14.1952C22.974 14.0393 22.8515 13.8945 22.7364 13.7535C22.6918 13.6978 22.6436 13.6495 22.5879 13.6013C22.4654 13.501 22.3429 13.3971 22.2093 13.308C22.1796 13.2894 22.1536 13.2709 22.1239 13.2523C22.0979 13.2337 22.0719 13.2189 22.0422 13.204C21.8306 13.0815 21.6227 12.9627 21.4111 12.8402C20.8209 12.4987 20.2307 12.1571 19.6367 11.8156C18.8646 11.3701 18.0925 10.9246 17.324 10.4792C16.5445 10.03 15.7686 9.58077 14.9891 9.13158C14.3766 8.77891 13.7641 8.42252 13.1516 8.06985C12.8768 7.91022 12.6059 7.75059 12.3312 7.59467C11.934 7.36821 11.5108 7.25313 11.0542 7.23828C10.9911 7.23828 10.9242 7.23828 10.8611 7.24942C10.6718 7.27169 10.4528 7.28654 10.2672 7.34965C10.0259 7.43132 9.77347 7.52784 9.56559 7.68376C9.42824 7.78771 9.26119 7.89908 9.13869 8.03272C9.00505 8.17379 8.88255 8.33342 8.77861 8.49677C8.7452 8.55245 8.7155 8.60814 8.68951 8.66754C8.61156 8.84202 8.51504 9.03506 8.47792 9.2281C8.43709 9.4397 8.40368 9.66245 8.40368 9.87776V20.4877C8.40368 20.9443 8.37398 21.4306 8.50019 21.8724C8.55216 22.0543 8.63383 22.225 8.71179 22.3921C8.7452 22.4626 8.78603 22.5257 8.83058 22.5851C8.93452 22.7262 9.04588 22.8896 9.17581 23.0158C9.31687 23.1531 9.47278 23.2682 9.63612 23.3759C9.6918 23.413 9.74748 23.4427 9.81059 23.4724C9.97764 23.5504 10.167 23.6394 10.3526 23.6877C10.5419 23.736 10.7386 23.7545 10.9354 23.7731C11.0059 23.7768 11.0764 23.7731 11.147 23.7694V23.7768ZM11.3697 20.0904V10.9098C11.3697 10.7093 11.585 10.5831 11.7595 10.6833C11.7595 10.6833 11.7595 10.6833 11.7632 10.6833C12.1121 10.8838 12.4611 11.0843 12.81 11.2885C13.2406 11.5372 13.6675 11.7822 14.0982 12.0309C14.5696 12.3019 15.041 12.5766 15.5125 12.8476L16.9454 13.6755C17.3909 13.9316 17.84 14.1915 18.2855 14.4477C18.6641 14.6667 19.0428 14.8857 19.4177 15.101C19.5216 15.1604 19.6256 15.2198 19.7295 15.2829C19.904 15.3832 19.904 15.6319 19.7295 15.7321C19.7184 15.7396 19.711 15.7433 19.6998 15.7507C19.3472 15.9549 18.9945 16.1591 18.6381 16.3632C18.2075 16.612 17.7732 16.8607 17.3426 17.1131C16.8674 17.3878 16.3886 17.6626 15.9134 17.9373C15.4345 18.2157 14.9557 18.4904 14.4768 18.7688C14.0276 19.0287 13.5822 19.2849 13.133 19.5447C12.7581 19.76 12.3831 19.9791 12.0082 20.1944C11.9265 20.2426 11.8449 20.2909 11.7595 20.3355C11.585 20.4357 11.3697 20.3095 11.3697 20.109V20.083V20.0904Z" fill="#FAC33D"/>
</g>
<defs>
<filter id="filter0_d_16322_2996" x="8.10767" y="7.00391" width="15.7271" height="17.2417" filterUnits="userSpaceOnUse" color-interpolation-filters="sRGB">
<feFlood flood-opacity="0" result="BackgroundImageFix"/>
<feColorMatrix in="SourceAlpha" type="matrix" values="0 0 0 0 0 0 0 0 0 0 0 0 0 0 0 0 0 0 127 0" result="hardAlpha"/>
<feOffset dx="0.0585938" dy="0.117188"/>
<feGaussianBlur stdDeviation="0.175781"/>
<feComposite in2="hardAlpha" operator="out"/>
<feColorMatrix type="matrix" values="0 0 0 0 0 0 0 0 0 0 0 0 0 0 0 0 0 0 0.2 0"/>
<feBlend mode="normal" in2="BackgroundImageFix" result="effect1_dropShadow_16322_2996"/>
<feBlend mode="normal" in="SourceGraphic" in2="effect1_dropShadow_16322_2996" result="shape"/>
</filter>
<linearGradient id="paint0_linear_16322_2996" x1="15" y1="0.5" x2="15" y2="30.5" gradientUnits="userSpaceOnUse">
<stop stop-color="#17181A"/>
<stop offset="1"/>
</linearGradient>
<linearGradient id="paint1_linear_16322_2996" x1="18.7647" y1="-8.97754" x2="15" y2="30.5" gradientUnits="userSpaceOnUse">
<stop stop-color="white"/>
<stop offset="1" stop-color="white" stop-opacity="0.01"/>
</linearGradient>
</defs>
</svg>
