<svg width="1024" height="1024" viewBox="0 0 1024 1024" fill="none" xmlns="http://www.w3.org/2000/svg">
<g clip-path="url(#clip0_17911_27040)">
<rect width="1024" height="1024" rx="512" fill="url(#paint0_linear_17911_27040)"/>
<g style="mix-blend-mode:screen" opacity="0.1">
<rect width="1024" height="1024" fill="url(#paint1_linear_17911_27040)"/>
</g>
<g clip-path="url(#clip1_17911_27040)">
<path d="M212 512.365V451.583C212 446.285 217.753 442.963 222.344 445.626L275.08 476.01L327.817 506.394C332.422 509.043 332.422 515.672 327.817 518.321L278.15 548.705L222.344 579.089C217.738 581.738 212 578.43 212 573.132V512.35V512.365Z" fill="#F9C33B"/>
<path d="M327.28 394.91V447.674C327.295 430.091 327.323 412.493 327.28 394.91Z" fill="#F9C33B"/>
<path d="M327.28 517.563V661.263C327.854 614.829 327.28 567.978 327.28 517.563Z" fill="#F9C33B"/>
<path d="M780.418 457.397L601.235 354.146L422.037 250.881C379.916 226.611 327.28 256.952 327.28 305.477V338.94C329.461 313.281 342.961 294.395 365.986 282.181C391.723 268.536 417.833 270.569 442.179 287.379C505.101 330.835 568.425 373.719 630.802 417.949C698.789 466.16 697.785 565.501 629.425 613.397C568.439 656.123 507.224 698.52 445.966 740.846C420.918 758.142 394.004 763.14 366.216 748.148C341.928 735.032 329.289 715.244 327.28 688.726V718.523C327.28 767.063 379.916 797.39 422.037 773.12L601.22 669.869L780.404 566.618C822.524 542.348 822.524 481.681 780.404 457.411L780.418 457.397Z" fill="#F9C33B"/>
<path d="M550.016 492.549C557.806 491.274 564.448 497.904 563.171 505.679C562.397 510.39 558.595 514.184 553.875 514.957C546.085 516.232 539.443 509.602 540.72 501.827C541.494 497.116 545.296 493.322 550.016 492.549Z" fill="#F9C33B"/>
<path d="M327.271 517.577L327.286 517.562L327.271 512.794V517.577Z" fill="#F9C33B"/>
<path d="M327.005 678.847C326.933 682.24 327.034 685.519 327.278 688.712V661.263C327.206 667.134 327.12 672.99 327.005 678.847Z" fill="#F9C33B"/>
<path d="M326.97 347.602C327.157 363.366 327.243 379.145 327.286 394.91V338.939C327.042 341.745 326.941 344.623 326.97 347.602Z" fill="#F9C33B"/>
<path d="M327.28 447.689C327.265 460.662 327.251 473.649 327.265 486.621C327.265 494.239 327.265 501.856 327.265 512.81V517.578V512.022V447.704L327.28 447.689Z" fill="#F9C33B"/>
<path d="M366.216 748.148C393.99 763.139 420.918 758.142 445.966 740.845C507.239 698.534 568.454 656.137 629.425 613.396C697.785 565.501 698.789 466.159 630.802 417.949C568.439 373.719 505.101 330.835 442.179 287.378C417.833 270.568 391.723 268.549 365.986 282.181C342.961 294.38 329.447 313.28 327.28 338.939V394.91C327.323 412.493 327.295 430.091 327.28 447.674V517.548C327.28 567.964 327.854 614.828 327.28 661.249V688.697C329.289 715.229 341.928 735.018 366.216 748.119V748.148ZM453.957 461.749C511.586 448.504 565.341 466.188 612.554 502.084C624.863 511.434 624.131 518.751 612.08 528.588C552.056 577.571 460.972 586.277 390.604 548.748L331.469 508.628C372.198 492.591 411.765 471.443 453.957 461.749Z" fill="#F9C33B"/>
<path d="M550.016 514.972C557.806 516.246 564.448 509.617 563.171 501.842C562.397 497.131 558.595 493.337 553.875 492.563C546.085 491.289 539.443 497.919 540.72 505.694C541.494 510.404 545.296 514.199 550.016 514.972Z" fill="#F9C33B"/>
</g>
</g>
<defs>
<linearGradient id="paint0_linear_17911_27040" x1="512" y1="0" x2="512" y2="1024" gradientUnits="userSpaceOnUse">
<stop stop-color="#17181A"/>
<stop offset="1"/>
</linearGradient>
<linearGradient id="paint1_linear_17911_27040" x1="640.5" y1="-323.5" x2="512" y2="1024" gradientUnits="userSpaceOnUse">
<stop stop-color="white"/>
<stop offset="1" stop-color="white" stop-opacity="0.01"/>
</linearGradient>
<clipPath id="clip0_17911_27040">
<rect width="1024" height="1024" rx="512" fill="white"/>
</clipPath>
<clipPath id="clip1_17911_27040">
<rect width="600" height="539.306" fill="white" transform="translate(212 242.347)"/>
</clipPath>
</defs>
</svg>
