<svg width="150" height="48" viewBox="0 0 150 48" fill="none" xmlns="http://www.w3.org/2000/svg">
<g style="mix-blend-mode:luminosity">
<path fill-rule="evenodd" clip-rule="evenodd" d="M1.78644 14.1158C1.15238 20.8353 1.14255 27.5548 1.76678 34.2744L1.7717 34.2793C2.23373 39.2882 6.18064 43.2354 11.1892 43.6974C17.9034 44.3168 24.6225 44.3119 31.3416 43.6778C36.2077 43.2157 40.0858 39.3374 40.5478 34.471C41.1868 27.6876 41.1868 20.9041 40.5478 14.1207C40.0858 9.25436 36.2077 5.37601 31.3416 4.91396C24.5586 4.27494 17.7756 4.27494 10.9926 4.91396C6.12657 5.3711 2.24356 9.25436 1.78644 14.1158ZM15.9319 35.272C15.911 35.2741 15.8904 35.2762 15.8701 35.2783V35.2684C15.7767 35.2734 15.6833 35.2783 15.5899 35.2734C15.3294 35.2488 15.0689 35.2242 14.8182 35.1603C14.577 35.0976 14.3311 34.9828 14.1129 34.881L14.1006 34.8752C14.017 34.8359 13.9433 34.7966 13.8696 34.7474C13.6533 34.6049 13.4469 34.4525 13.2601 34.2706C13.1158 34.1304 12.9888 33.9557 12.8704 33.7928C12.8476 33.7615 12.8252 33.7305 12.803 33.7004C12.744 33.6218 12.6899 33.5382 12.6457 33.4448C12.6402 33.4329 12.6346 33.4211 12.6291 33.4092C12.531 33.1993 12.4306 32.9846 12.3655 32.7566C12.225 32.2647 12.2304 31.731 12.2357 31.2141C12.2367 31.1164 12.2377 31.0193 12.2377 30.9231V16.8746C12.2377 16.5895 12.282 16.2945 12.336 16.0144C12.378 15.7959 12.4775 15.5775 12.5699 15.3744C12.5856 15.3398 12.6012 15.3057 12.6162 15.2721C12.6506 15.1935 12.6899 15.1197 12.7342 15.046C12.8718 14.8297 13.034 14.6183 13.2109 14.4316C13.3395 14.2913 13.5051 14.1696 13.6588 14.0566C13.699 14.027 13.7384 13.9981 13.7762 13.9695C14.0514 13.763 14.3857 13.6352 14.7052 13.5271C14.9091 13.4578 15.1435 13.4324 15.3606 13.4089C15.4052 13.4041 15.4489 13.3994 15.4916 13.3944C15.5751 13.3796 15.6636 13.3796 15.7472 13.3796H15.7472C16.3518 13.3993 16.9121 13.5517 17.438 13.8515C17.7038 14.0024 17.967 14.1559 18.2313 14.3101C18.3288 14.3669 18.4263 14.4238 18.5243 14.4807C18.9298 14.7142 19.3353 14.9489 19.7408 15.1836C20.1463 15.4183 20.5518 15.6531 20.9573 15.8865C21.4733 16.1839 21.9881 16.4812 22.5028 16.7785C23.0178 17.076 23.5328 17.3734 24.049 17.6709C25.0664 18.2607 26.0888 18.8506 27.1112 19.4405C27.897 19.8924 28.678 20.3443 29.4589 20.7962L29.4606 20.7972C29.6008 20.8783 29.7397 20.9582 29.8786 21.0381C30.0174 21.118 30.1562 21.1978 30.2962 21.2789C30.3355 21.2985 30.3699 21.3182 30.4043 21.3428C30.424 21.3551 30.4424 21.3674 30.4609 21.3796C30.4793 21.3919 30.4977 21.4042 30.5174 21.4165C30.6707 21.5187 30.8128 21.6356 30.9536 21.7513C30.9753 21.7692 30.997 21.7871 31.0187 21.8048C31.0925 21.8687 31.1564 21.9326 31.2154 22.0064C31.2308 22.0253 31.2464 22.0443 31.262 22.0634C31.4002 22.2322 31.5424 22.4058 31.6528 22.5913C31.7711 22.7961 31.8557 23.0177 31.9378 23.2328C31.9444 23.2501 31.951 23.2673 31.9576 23.2844C31.987 23.3631 32.0116 23.4417 32.0264 23.5204C32.0755 23.771 32.1148 24.0267 32.1247 24.2823C32.1296 24.3609 32.1247 24.4445 32.1148 24.5231C32.113 24.5414 32.1111 24.5599 32.1092 24.5787C32.0863 24.8063 32.0605 25.0625 31.9969 25.285C31.7413 26.1698 31.1515 26.9022 30.3552 27.3594L29.8981 27.6248C29.5589 27.819 29.221 28.0144 28.8831 28.2098C28.5452 28.4052 28.2072 28.6005 27.8681 28.7947L24.9337 30.4906C23.8819 31.0952 22.8251 31.7047 21.7732 32.3142C21.1181 32.6958 20.4603 33.0748 19.8037 33.453C19.5638 33.5913 19.324 33.7294 19.0846 33.8675C18.8314 34.0126 18.5783 34.1588 18.3251 34.3051C18.072 34.4513 17.8189 34.5975 17.5658 34.7425C17.5462 34.7548 17.5265 34.7658 17.5068 34.7769C17.4872 34.788 17.4675 34.799 17.4478 34.8113C17.4233 34.8261 17.3987 34.8408 17.3692 34.8555C17.1382 34.9735 16.8973 35.0817 16.6467 35.1554C16.4216 35.2229 16.1595 35.2492 15.9319 35.272ZM16.165 30.3873V30.3972V30.4217C16.165 30.6872 16.4501 30.8543 16.6811 30.7216C16.7941 30.6626 16.9023 30.5987 17.0104 30.5348C17.2586 30.3923 17.5067 30.2485 17.7549 30.1048C18.0032 29.961 18.2514 29.8172 18.4997 29.6746C18.7972 29.5025 19.0934 29.3316 19.3896 29.1608C19.6857 28.99 19.9817 28.8192 20.279 28.6472C20.596 28.4629 20.9131 28.2798 21.2301 28.0967C21.5471 27.9136 21.8642 27.7305 22.1812 27.5462C22.4959 27.3642 22.8118 27.1823 23.1277 27.0004C23.4434 26.8185 23.7591 26.6367 24.0736 26.4549C24.491 26.2102 24.9111 25.9681 25.33 25.7267C25.4832 25.6384 25.6363 25.5502 25.789 25.462C26.2608 25.1916 26.7278 24.9213 27.1947 24.6509C27.2021 24.646 27.2082 24.6423 27.2144 24.6386C27.2205 24.635 27.2267 24.6313 27.234 24.6263C27.465 24.4936 27.465 24.1643 27.234 24.0316C27.0964 23.948 26.9588 23.8694 26.8212 23.7908L26.8212 23.7907C26.325 23.5058 25.8239 23.2159 25.3228 22.926L25.322 22.9256C25.0271 22.756 24.731 22.5852 24.4348 22.4144C24.1387 22.2435 23.8425 22.0727 23.5476 21.9031L21.6504 20.807C21.3382 20.6275 21.026 20.4469 20.7138 20.2662C20.4018 20.0856 20.0897 19.905 19.7777 19.7256C19.4926 19.5609 19.2087 19.3975 18.9249 19.234C18.641 19.0706 18.3572 18.9071 18.0721 18.7425C17.61 18.4721 17.148 18.2067 16.686 17.9412H16.6811C16.4501 17.8085 16.165 17.9756 16.165 18.2411V30.3873Z" fill="#FAC33D"/>
<path d="M54.8334 30.3497C55.0634 30.3659 55.1544 30.4955 55.1009 30.7276C55.0099 31.0516 54.9029 31.3647 54.7799 31.6724C54.6568 31.9802 54.5123 32.2663 54.3518 32.5363C54.5123 32.6065 54.6622 32.655 54.8066 32.682C54.9511 32.709 55.1116 32.7414 55.2881 32.7738L55.5824 29.9124H51.6768C51.4467 29.9124 51.2755 29.8584 51.1685 29.7504C51.0615 29.6425 51.024 29.4535 51.0615 29.1836L51.6768 24.7835C51.7142 24.5837 51.7731 24.4595 51.864 24.4056C51.955 24.3516 52.0887 24.3246 52.2653 24.3246H61.7618C62.2808 24.3246 62.6981 24.3624 63.0191 24.4326C63.3401 24.5027 63.5862 24.6215 63.7574 24.7835C63.9286 24.9454 64.0356 25.1614 64.0784 25.4313C64.1212 25.7013 64.1266 26.036 64.0945 26.4301L63.7735 29.1836C63.736 29.4697 63.6611 29.6641 63.5488 29.7666C63.4364 29.8692 63.2331 29.9124 62.9496 29.9124H59.472L59.0439 35.0144C59.0279 35.4625 58.8674 35.7324 58.5624 35.8242C58.2575 35.9322 57.8776 36.0023 57.4121 36.0401C56.9467 36.0779 56.4598 36.0833 55.9408 36.0671C55.4219 36.0509 54.9136 36.0023 54.416 35.916C53.9185 35.835 53.4958 35.7216 53.1588 35.5812C52.9073 35.4733 52.811 35.2681 52.8645 34.9604C52.9019 34.7066 52.9555 34.4475 53.025 34.1775C52.613 34.5393 52.1529 34.8362 51.634 35.0791C51.115 35.3221 50.5532 35.5057 49.9487 35.6352C49.8042 35.673 49.6972 35.6514 49.617 35.5812C49.5367 35.5111 49.5046 35.3923 49.526 35.2303C49.542 35.0683 49.5688 34.8794 49.6063 34.6634C49.6437 34.4475 49.6758 34.2207 49.7133 33.9886C49.7507 33.7564 49.7828 33.5351 49.8203 33.3299C49.8577 33.1247 49.8898 32.9412 49.9273 32.7738C49.9433 32.5579 50.0343 32.4067 50.1948 32.3149C50.6388 32.0828 50.9759 31.8398 51.2006 31.5861C51.4253 31.3323 51.6447 30.9922 51.8533 30.5603C51.9068 30.4145 52.0406 30.3443 52.2546 30.3443H54.8494L54.8334 30.3497ZM52.8271 12.6954C52.8645 12.5334 52.9233 12.3985 53.0143 12.2905C53.1053 12.1825 53.2444 12.1285 53.4423 12.1285H62.9389C63.9714 12.1285 64.6723 12.3067 65.0361 12.6684C65.3999 13.0301 65.5497 13.6942 65.4802 14.666L64.8649 19.8489C64.8489 20.0649 64.7793 20.2214 64.6616 20.324C64.5439 20.4212 64.3887 20.4698 64.1908 20.4698H60.1247C60.2477 20.6155 60.3547 20.7937 60.4457 21.0097H65.0736C65.218 21.0097 65.3197 21.0529 65.3839 21.1446C65.4481 21.2364 65.4588 21.3444 65.4267 21.4686C65.3892 21.7223 65.3357 22.0355 65.2662 22.4134C65.1966 22.7913 65.1164 23.1422 65.0254 23.4662C64.9719 23.7199 64.8007 23.8441 64.5171 23.8441H52.5595C51.864 23.8441 51.329 23.6605 50.9545 23.2934C50.58 22.9263 50.366 22.2784 50.3125 21.3606C50.2964 21.1284 50.3927 21.0097 50.6067 21.0097H56.1174C56.2084 20.7937 56.3154 20.6155 56.4384 20.4698H52.5595C52.1155 20.4698 51.9175 20.243 51.971 19.7949L52.8271 12.6954ZM55.2346 26.5975L55.1009 27.5153H60.0498L60.1568 26.5975H55.2346ZM61.1733 17.3924H56.1174L56.0371 18.1483H61.1198L61.1733 17.3924ZM56.3314 15.4488H61.3606L61.4408 14.828H56.4117L56.3314 15.4488ZM61.6013 30.6197C62.0828 30.6197 62.5108 30.7654 62.8853 31.0516C63.2599 31.3377 63.5006 31.7102 63.6076 32.1583C64.3031 31.8884 64.9345 31.6077 65.5069 31.3215C66.0794 31.0354 66.593 30.7007 67.0585 30.3227C67.5239 29.9448 67.9466 29.4913 68.3318 28.9622C68.717 28.4331 69.0701 27.7799 69.3858 27.0078C69.4554 26.8297 69.6105 26.7379 69.8406 26.7379H72.9437C73.1042 26.7379 73.2165 26.7811 73.2754 26.8728C73.3396 26.9646 73.3503 27.0726 73.3182 27.1968C72.6601 29.6101 71.451 31.5645 69.6908 33.0708C67.9306 34.577 65.6728 35.5866 62.9121 36.1049C62.7141 36.1427 62.559 36.1049 62.4413 35.997C62.3236 35.889 62.2915 35.7162 62.3503 35.4841L62.6178 34.3773C62.2968 34.5555 61.9598 34.6472 61.6013 34.6472C61.0288 34.6472 60.5473 34.4529 60.1568 34.0642C59.7662 33.6754 59.5682 33.2057 59.5682 32.6496C59.5682 32.0936 59.7662 31.5915 60.1568 31.2081C60.5473 30.8194 61.0288 30.6251 61.6013 30.6251V30.6197ZM73.3984 19.0121C73.5054 19.0121 73.5964 19.0499 73.6659 19.1201C73.7355 19.1902 73.7569 19.2982 73.7194 19.444C73.4359 20.5778 73.0079 21.6197 72.4354 22.5753C71.8629 23.5309 71.1888 24.384 70.4184 25.1398C69.6426 25.8956 68.7812 26.5381 67.8342 27.0726C66.8873 27.6017 65.9082 28.012 64.8917 28.2982C64.7312 28.3359 64.5974 28.3143 64.4904 28.2442C64.3834 28.174 64.3459 28.039 64.3834 27.8392C64.4369 27.4235 64.5171 26.9646 64.6242 26.4625C64.7312 25.9604 64.8275 25.4907 64.9184 25.0588C64.988 24.7727 65.1217 24.5837 65.3197 24.4919C65.9456 24.1518 66.4807 23.8279 66.9408 23.5201C67.3955 23.2124 67.8022 22.8723 68.1553 22.4944C68.5084 22.1164 68.8401 21.6737 69.1343 21.1716C69.4286 20.6695 69.7282 20.0379 70.0278 19.282C70.0974 19.1039 70.2525 19.0121 70.4826 19.0121H73.3984ZM73.4787 11.8316C73.7301 11.8316 73.8371 11.9557 73.7997 12.2095C73.6231 13.2731 73.2807 14.2665 72.7725 15.1951C72.2642 16.1237 71.6436 16.9605 70.9159 17.7056C70.183 18.4506 69.3697 19.0985 68.4656 19.6384C67.5667 20.1782 66.6358 20.594 65.6728 20.8801C65.5123 20.9179 65.3785 20.8963 65.2715 20.8153C65.1645 20.7343 65.1271 20.594 65.1645 20.3996C65.218 19.9839 65.2822 19.5412 65.3678 19.0607C65.4481 18.5856 65.5337 18.1213 65.6193 17.6678C65.6888 17.3978 65.8065 17.2197 65.967 17.1279C66.5556 16.7338 67.0585 16.372 67.4811 16.0481C67.8985 15.7242 68.2623 15.3786 68.5619 15.0115C68.8668 14.6444 69.129 14.2287 69.3537 13.7698C69.5784 13.3109 69.7764 12.7494 69.9529 12.0853C70.0064 11.9234 70.1509 11.8424 70.3809 11.8424H73.484L73.4787 11.8316Z" fill="#FAC33D"/>
<path d="M84.7507 27.9228C84.5072 28.094 84.3259 28.0628 84.2068 27.819C84.1032 27.5959 83.9996 27.3625 83.896 27.1187C83.7924 26.8749 83.6732 26.6362 83.5333 26.3924L82.9635 35.7043C82.9117 35.9792 82.746 36.1193 82.4714 36.1193H79.4151C79.068 36.1193 78.9126 35.9637 78.9489 35.6524L79.6482 28.1043C79.2183 28.4 78.7779 28.6594 78.3273 28.8825C77.8766 29.1056 77.4207 29.2871 76.9545 29.4272C76.8147 29.4635 76.6903 29.4428 76.5815 29.3753C76.4676 29.3079 76.421 29.1782 76.4365 28.9862C76.452 28.7424 76.4883 28.4779 76.5401 28.1822C76.5919 27.8865 76.6489 27.5959 76.711 27.3003C76.7732 27.0046 76.8302 26.7244 76.8924 26.4598C76.9545 26.1901 77.0063 25.9515 77.0633 25.744C77.0996 25.6558 77.1462 25.5779 77.2032 25.5105C77.2653 25.4431 77.3223 25.3912 77.3741 25.3549C78.55 24.6442 79.5083 23.8556 80.2491 22.9789C80.9899 22.1074 81.5338 21.0647 81.8809 19.8508H79.9383C79.3011 19.8508 78.752 19.5914 78.2962 19.0726C77.8403 18.5538 77.5813 17.8172 77.5295 16.8679C77.5295 16.6759 77.5969 16.5825 77.7367 16.5825H84.3674C85.2998 16.5825 85.8852 16.8108 86.1286 17.2725C86.3721 17.729 86.3773 18.3308 86.1545 19.0726C85.7556 20.3332 85.1806 21.599 84.4192 22.8596C84.8336 23.2383 85.2066 23.6274 85.5433 24.0268C85.88 24.4263 86.1701 24.7946 86.4084 25.1422L87.7034 13.5737C87.7397 13.3506 87.807 13.2105 87.9106 13.1587C88.0142 13.1068 88.1696 13.0809 88.3768 13.0809H96.7687C97.9239 13.0809 98.6906 13.3143 99.0584 13.7812C99.4313 14.2481 99.5557 15.0522 99.4365 16.1935L98.6077 27.3729C98.5714 27.6323 98.4368 27.762 98.1933 27.762H95.2406C94.9453 27.762 94.8158 27.6219 94.8521 27.3469L95.7845 17.1791C95.8363 16.8004 95.6964 16.6085 95.3701 16.6085H91.0446L89.6719 27.4766C89.6201 27.7205 89.4647 27.8398 89.2057 27.8398H86.4602C86.2167 27.8398 86.1131 27.6945 86.1494 27.3988L86.2011 26.8022C85.9577 27.0097 85.7194 27.2069 85.4759 27.3988C85.2325 27.5908 84.9942 27.762 84.7507 27.9176V27.9228ZM83.4298 11.3741C84.0876 11.3741 84.6419 11.5972 85.0978 12.0485C85.5536 12.4998 85.7867 13.0497 85.7867 13.7086C85.7867 14.3674 85.5588 14.9225 85.0978 15.379C84.6419 15.8355 84.0825 16.069 83.4298 16.069C82.7771 16.069 82.2176 15.8407 81.7617 15.379C81.3059 14.9225 81.0728 14.3622 81.0728 13.7086C81.0728 13.0549 81.3007 12.4998 81.7617 12.0485C82.2176 11.5972 82.7771 11.3741 83.4298 11.3741ZM91.5108 17.6771C91.5471 17.4333 91.6818 17.314 91.9253 17.314H94.7226C95.0178 17.314 95.1473 17.4437 95.1111 17.7031C94.9401 19.6899 94.764 21.4641 94.593 23.0204C94.4221 24.5767 94.1631 25.9774 93.816 27.2224C93.7642 27.4144 93.7124 27.5908 93.6606 27.7568C93.6088 27.9228 93.5467 28.0784 93.4793 28.234H95.7068C95.9658 28.234 96.0849 28.3637 96.0694 28.6231L95.7586 31.8654C96.2093 31.9017 96.7998 31.8135 97.5302 31.606C98.2606 31.3985 98.9755 31.1132 99.6645 30.75C99.7525 30.6982 99.8406 30.6982 99.939 30.75C100.032 30.8019 100.084 30.8953 100.084 31.0354C100.084 31.2429 100.068 31.4815 100.043 31.7513C100.017 32.021 99.9804 32.296 99.939 32.5813C99.8976 32.8666 99.8561 33.1364 99.825 33.3854C99.7888 33.6344 99.7577 33.8471 99.7214 34.0235C99.6852 34.1635 99.6489 34.2673 99.6023 34.3347C99.5609 34.4022 99.478 34.48 99.3588 34.5682C99.0636 34.7601 98.6284 34.9209 98.0482 35.061C97.4681 35.2011 96.8412 35.2996 96.1575 35.3567C95.4737 35.419 94.7951 35.4345 94.1113 35.4086C93.4275 35.3826 92.8318 35.2996 92.3138 35.1596C91.9512 35.0558 91.7958 34.8224 91.8476 34.4592L92.2361 30.9057C91.4072 32.2026 90.3608 33.2557 89.0865 34.0702C87.8174 34.8846 86.2996 35.5071 84.5435 35.9377C84.0617 36.057 83.8597 35.8962 83.9478 35.4449C84.0358 34.9936 84.1239 34.5267 84.2223 34.0442C84.3156 33.5618 84.4347 33.043 84.5694 32.4879C84.6212 32.2441 84.7403 32.0833 84.932 31.9951C85.6054 31.6683 86.2115 31.3518 86.7554 31.0457C87.2993 30.7449 87.7811 30.4129 88.2059 30.0497C88.6307 29.6866 88.9985 29.2768 89.3041 28.8151C89.6149 28.3585 89.8739 27.819 90.0811 27.1965C90.4282 26.1745 90.7027 24.9087 90.9099 23.3939C91.1172 21.8791 91.314 19.9753 91.5057 17.6771H91.5108Z" fill="#FAC33D"/>
<path d="M122.846 13.1633C123.074 13.1633 123.154 13.2836 123.092 13.5243L121.832 17.6161C121.77 17.8568 121.616 17.9771 121.37 17.9771H115.774L114.545 35.7582C114.502 35.9989 114.348 36.1193 114.083 36.1193H109.102C108.838 36.1193 108.721 35.9688 108.764 35.668L110.086 17.9771H105.935C105.4 17.9771 104.939 17.8568 104.54 17.6161C104.14 17.3754 103.802 17.0565 103.525 16.6533C103.248 16.2501 103.045 15.7868 102.91 15.2573C102.775 14.7278 102.707 14.1682 102.707 13.5845C102.707 13.3017 102.842 13.1633 103.107 13.1633H122.846Z" fill="#FAC33D"/>
<path d="M131.856 36.1133C131.598 36.1133 131.424 35.9809 131.346 35.7222L125.772 13.7348C125.67 13.3558 125.802 13.1633 126.161 13.1633H131.257C131.658 13.1633 131.898 13.3558 131.976 13.7348L135.393 30.3081H135.453L142.136 13.6445C142.196 13.4821 142.274 13.3618 142.364 13.2836C142.454 13.2054 142.598 13.1633 142.802 13.1633H148.227C148.664 13.1633 148.796 13.3859 148.616 13.825L139.984 32.6241C139.643 33.346 139.307 33.9356 138.965 34.3988C138.624 34.862 138.252 35.2169 137.838 35.4696C137.431 35.7222 136.969 35.8907 136.46 35.9809C135.95 36.0712 135.357 36.1193 134.679 36.1193H131.862L131.856 36.1133Z" fill="#FAC33D"/>
</g>
</svg>
