<svg width="345" height="73" viewBox="0 0 345 73" fill="none" xmlns="http://www.w3.org/2000/svg">
<rect x="5" y="7.5" width="58" height="58" rx="20.7143" fill="#E33723"/>
<g style="mix-blend-mode:screen" opacity="0.2">
<rect x="5" y="7.5" width="58" height="58" fill="url(#paint0_radial_22659_167863)"/>
</g>
<path d="M27.9452 35.3347L29.7283 34.0532C29.7346 34.0488 29.7391 34.0431 29.7423 34.0374C29.7442 34.0335 29.7454 34.0266 29.7454 34.0158C29.7454 34.0056 29.7442 33.998 29.7423 33.9942C29.7391 33.9885 29.7346 33.9827 29.7283 33.9783L27.9083 32.6702C27.695 32.5165 27.5578 32.2942 27.5076 32.0548C27.4575 31.8148 27.4949 31.5564 27.6302 31.3297C27.7375 31.1499 27.895 31.0121 28.0785 30.9283C28.262 30.8445 28.469 30.814 28.6742 30.8502C28.683 30.8521 28.6932 30.8534 28.7021 30.8559L31.7622 31.3893C31.7953 31.3951 31.827 31.3957 31.8562 31.3919C31.8848 31.3881 31.9146 31.3792 31.9432 31.3652C31.9775 31.3493 32.008 31.3265 32.0328 31.2998V31.2985C32.0391 31.2915 32.0461 31.2846 32.0531 31.2776C32.0683 31.256 32.0817 31.2312 32.0931 31.202C32.2563 30.7727 32.5566 29.986 32.7694 29.4278L32.831 29.2652C32.9243 29.0207 33.0888 28.8175 33.2958 28.6746C33.5041 28.5311 33.753 28.4492 34.0134 28.4492C34.2801 28.4492 34.5328 28.5337 34.7417 28.681C34.9507 28.8283 35.1151 29.0391 35.2047 29.2919L35.8873 31.2096C35.9 31.2452 35.9178 31.2757 35.9406 31.3004C35.9635 31.3258 35.9927 31.3468 36.0264 31.3633L36.0276 31.3627C36.0327 31.3652 36.0384 31.3678 36.0435 31.3703L36.053 31.3754C36.0746 31.3843 36.0962 31.39 36.1172 31.3925C36.1439 31.3963 36.1731 31.3951 36.2042 31.39C36.2137 31.3881 36.2232 31.3862 36.2328 31.3849L39.2986 30.8502V30.8489C39.3081 30.847 39.3177 30.8458 39.3272 30.8445C39.5234 30.8159 39.7196 30.847 39.8943 30.9271C40.06 31.0033 40.2048 31.1226 40.3102 31.2782C40.335 31.3106 40.3565 31.3468 40.3737 31.3849C40.4829 31.5976 40.5109 31.8339 40.4651 32.0542C40.4156 32.2936 40.2784 32.5159 40.0644 32.6695L39.2243 33.2734L38.1943 34.0139L40.0689 35.3557C40.2822 35.5081 40.4194 35.7297 40.4696 35.9691C40.5197 36.2072 40.4829 36.465 40.3483 36.6898L40.3496 36.6905C40.3464 36.6955 40.3432 36.7006 40.3407 36.7051C40.3337 36.7165 40.3267 36.7273 40.3191 36.7374C40.2118 36.9006 40.0632 37.0251 39.8943 37.1032C39.7088 37.1883 39.4999 37.2182 39.2929 37.182C38.4248 37.0276 36.1546 36.632 35.9648 36.5984L35.0808 38.7549L35.0827 38.7555C35.0738 38.7771 35.0637 38.7981 35.0523 38.8184C34.9589 39.0127 34.8173 39.1734 34.6458 39.2889C34.4534 39.4178 34.2255 39.4909 33.9873 39.4909C33.7492 39.4909 33.5212 39.4178 33.3288 39.2889C33.139 39.1613 32.9859 38.9784 32.8945 38.7555L32.8932 38.7549L32.8913 38.7555C32.8856 38.7422 32.8811 38.7289 32.8767 38.7155L32.0093 36.599C32.0042 36.5996 31.9997 36.6003 31.9947 36.6009L28.6748 37.1794V37.1807C28.6653 37.1826 28.6557 37.1839 28.6462 37.1851C28.4506 37.2137 28.2538 37.1826 28.0791 37.1026C27.8963 37.0188 27.7381 36.881 27.6308 36.7012L27.6289 36.7019C27.6207 36.6885 27.6137 36.6752 27.6073 36.6612C27.4911 36.4453 27.4613 36.2028 27.5083 35.9754C27.5584 35.7341 27.6956 35.5112 27.9083 35.3582C27.9198 35.3506 27.9325 35.3423 27.9452 35.3347Z" fill="white"/>
<path d="M98.0954 18.2379V26.6075H114.75V30.4964H98.0954V37.0906H93.192V30.4964H75.8611V26.6075H93.192V18.4915L75.8611 19.5906V15.7017L114.75 13.2923V17.1812L97.6304 18.2379H98.0531H98.0954ZM97.715 42.4589V45.8406H109.889V42.4589H97.715ZM97.715 49.7295V53.1534H109.889V45.8406L107.649 49.7295H97.715ZM92.8539 53.1534V49.7295H80.7222V53.1534H92.8539ZM92.8539 45.8406V42.4589H80.7222V45.8406H92.8539ZM114.75 42.4589V53.1534V57.0423H81.6944C80.0882 57.0423 78.7073 56.4787 77.5519 55.3514C76.4247 54.1961 75.8611 52.8152 75.8611 51.2089V42.4589V40.5145V38.57H114.75V40.5145V42.4589ZM113.017 20.0556C113.017 22.1127 112.51 23.9726 111.495 25.6353H106.507C107.606 24.0008 108.156 22.1409 108.156 20.0556H113.017ZM108.24 31.5109H113.101C113.101 33.5962 113.651 35.4561 114.75 37.0906H109.762C108.748 35.4279 108.24 33.568 108.24 31.5109ZM77.3406 20.0556H82.2017C82.2017 22.1409 82.7512 24.0008 83.8502 25.6353H78.8623C77.8478 23.9726 77.3406 22.1127 77.3406 20.0556ZM82.3708 31.5109C82.3708 33.568 81.8494 35.4279 80.8068 37.0906H75.8611C76.9601 35.4561 77.5097 33.5962 77.5097 31.5109H82.3708ZM122.528 26.8611H126.924L127.178 24.4517H131.996L131.743 26.8611H142.691V29.3128V30.75V51.4203C142.691 53.4775 142.184 55.3374 141.169 57H136.181C137.28 55.3655 137.83 53.5056 137.83 51.4203V30.75H131.32L128.488 57H123.669L126.501 30.75H122.528V26.8611ZM154.104 13.25H159.007V15.6594H161.417V19.5483H159.007V22H154.104V19.5483H129.841V22H124.937V19.5483H122.528V15.6594H124.937V13.25H129.841V15.6594H154.104V13.25ZM150.004 54.5906C148.397 54.5906 147.017 54.0129 145.861 52.8575C144.734 51.7021 144.17 50.3353 144.17 48.7572V30.75V28.3406V26.8611H161.417V28.3406V30.75V50.6594V54.5483H156.556H150.004V54.5906ZM149.031 30.75V50.6594H156.556V30.75H149.031ZM195.444 52.6884L208.083 46.8128V51.0821L195.444 57V52.6884ZM175.028 44.8261C173.506 44.8261 172.182 44.3188 171.054 43.3043C169.955 42.2617 169.349 40.9936 169.237 39.5H169.194V38.9928V35.6111H174.056H189.146H194.007V39.5V40.9372V44.8261H189.146H184.031V51.4203C184.031 53.4775 183.524 55.3374 182.51 57H177.522C178.621 55.3374 179.17 53.4775 179.17 51.4203V44.8261H175.028ZM174.056 39.5V40.9795H189.146V39.5H174.056ZM175.028 27.8333C173.506 27.8333 172.182 27.3261 171.054 26.3116C169.955 25.2689 169.349 24.0008 169.237 22.5072H169.194V22V18.5761V17.1389V13.25H174.056H189.146H194.007V17.1389V23.9444V27.8333H189.146H183.693L185.088 30.2428H194.007V34.1316H169.194V30.2428H179.508L178.071 27.8333H175.028ZM174.056 17.1389V18.5761H189.019L186.779 22.465H174.056V23.9444H189.146V17.1389H174.056ZM187.498 47.2778H192.359V51.4203C192.359 53.5056 192.908 55.3655 194.007 57H189.019C188.005 55.3374 187.498 53.4775 187.498 51.4203V47.2778ZM175.704 47.2778V51.4203C175.704 53.4775 175.197 55.3374 174.182 57H169.194C170.293 55.3655 170.843 53.5056 170.843 51.4203V47.2778H175.704ZM195.444 19.1679L208.083 13.25V17.5616L195.444 23.4795V19.1679ZM195.444 35.9493L208.083 30.0314V34.343L195.444 40.2186V35.9493ZM233.107 13.2923H237.969H249.889H254.75V17.1812V33.9203C254.75 36.0056 254.229 37.8655 253.186 39.5H248.24C249.339 37.8374 249.889 35.9775 249.889 33.9203V17.1812H237.969V39.5H233.107V17.1812V13.2923ZM226.809 27.3261V21.07H215.861V17.1812H222.075L219.835 13.2923H225.457L227.655 17.1812H231.67V21.07V27.7065V28.2138L226.175 35.2307L231.67 37.3442V41.8249L226.217 39.7536V57.0845H221.356V41.529L215.903 48.5459V41.4022L226.851 27.3261H226.809ZM241.519 21.07H246.38V32.7367L238.011 57H233.107L241.477 32.7367V21.07H241.519ZM250.861 57C249.255 57 247.874 56.4364 246.719 55.3092C245.591 54.1538 245.028 52.7729 245.028 51.1667V41.9517H249.889V53.1111H254.75V57H250.861ZM261.507 20.2V15.6H295.987L293.307 20.2H281.027V57H276.427V20.2H261.507ZM314.928 57L299.088 15.6H303.688L317.488 51.68L331.288 15.6H335.888L320.048 57H314.928Z" fill="white"/>
<defs>
<radialGradient id="paint0_radial_22659_167863" cx="0" cy="0" r="1" gradientUnits="userSpaceOnUse" gradientTransform="translate(34 36.5) rotate(90) scale(29 30.2669)">
<stop offset="0.205" stop-color="white"/>
<stop offset="1" stop-color="white" stop-opacity="0.01"/>
</radialGradient>
</defs>
</svg>
