<svg width="1024" height="1024" viewBox="0 0 1024 1024" fill="none" xmlns="http://www.w3.org/2000/svg">
<g clip-path="url(#clip0_22689_195988)">
<rect width="1024" height="1024" fill="#E33723"/>
<g style="mix-blend-mode:screen" opacity="0.2">
<rect width="1024" height="1024" fill="url(#paint0_radial_22689_195988)"/>
</g>
<path d="M405.101 307.564L436.582 284.94C436.694 284.861 436.773 284.76 436.829 284.66C436.862 284.592 436.885 284.469 436.885 284.278C436.885 284.099 436.862 283.964 436.829 283.897C436.773 283.796 436.694 283.695 436.582 283.617L404.451 260.522C400.684 257.808 398.262 253.885 397.376 249.658C396.49 245.42 397.152 240.857 399.54 236.855C401.435 233.682 404.215 231.249 407.455 229.769C410.695 228.289 414.35 227.751 417.971 228.39V228.401H417.983V228.39C418.14 228.424 418.308 228.446 418.465 228.491L472.492 237.908C473.075 238.009 473.636 238.02 474.151 237.953C474.656 237.886 475.183 237.729 475.687 237.482C476.293 237.202 476.831 236.798 477.268 236.328V236.305C477.38 236.182 477.503 236.059 477.627 235.935C477.896 235.554 478.131 235.117 478.333 234.601C481.214 227.022 486.517 213.131 490.273 203.277L491.361 200.407C493.009 196.09 495.912 192.503 499.567 189.98C503.245 187.446 507.639 186 512.236 186C516.945 186 521.407 187.491 525.095 190.092C528.784 192.693 531.688 196.415 533.269 200.877L545.321 234.736C545.545 235.363 545.859 235.902 546.262 236.339C546.666 236.787 547.182 237.157 547.776 237.449L547.798 237.438C547.888 237.482 547.989 237.527 548.079 237.572L548.247 237.662C548.628 237.819 549.009 237.92 549.379 237.964C549.85 238.032 550.366 238.009 550.915 237.92V237.908C551.083 237.875 551.251 237.852 551.42 237.83L605.548 228.39V228.379V228.368C605.716 228.334 605.884 228.311 606.052 228.289C609.517 227.785 612.981 228.334 616.064 229.747C618.99 231.092 621.546 233.2 623.407 235.946C623.845 236.518 624.226 237.157 624.529 237.83C626.457 241.586 626.95 245.756 626.143 249.647C625.269 253.873 622.847 257.797 619.069 260.51L604.236 271.172L586.051 284.245L619.147 307.934C622.914 310.625 625.336 314.538 626.221 318.764C627.107 322.969 626.457 327.52 624.08 331.489L624.103 331.5C624.047 331.59 623.99 331.68 623.946 331.758C623.822 331.96 623.699 332.151 623.564 332.33C621.67 335.211 619.046 337.409 616.064 338.788C612.79 340.29 609.102 340.817 605.447 340.178C590.121 337.454 550.041 330.469 546.688 329.875L531.082 367.948L531.116 367.96C530.959 368.341 530.78 368.711 530.578 369.07C528.93 372.5 526.43 375.337 523.403 377.377C520.006 379.653 515.981 380.942 511.776 380.942C507.572 380.942 503.547 379.653 500.15 377.377C496.798 375.124 494.096 371.895 492.482 367.96H492.471L492.459 367.948L492.426 367.96C492.325 367.724 492.246 367.489 492.168 367.253L476.853 329.886C476.763 329.897 476.685 329.908 476.595 329.92L417.983 340.133V340.144V340.156C417.814 340.189 417.646 340.212 417.478 340.234C414.025 340.739 410.549 340.189 407.466 338.777C404.237 337.297 401.446 334.864 399.551 331.691L399.518 331.702C399.372 331.467 399.248 331.231 399.136 330.985C397.085 327.173 396.558 322.89 397.387 318.876C398.273 314.616 400.695 310.681 404.451 307.979C404.652 307.845 404.877 307.699 405.101 307.564Z" fill="white"/>
<ellipse cx="511.5" cy="900" rx="699.5" ry="407" fill="white"/>
<path d="M376.365 636.835V691.93H486V717.53H376.365V760.939H344.087V717.53H230V691.93H344.087V638.504L230 645.739V620.139L486 604.278V629.878L373.304 636.835H376.087H376.365ZM373.861 796.278V818.539H454V796.278H373.861ZM373.861 844.139V866.678H454V818.539L439.252 844.139H373.861ZM341.861 866.678V844.139H262V866.678H341.861ZM341.861 818.539V796.278H262V818.539H341.861ZM486 796.278V866.678V892.278H268.4C257.826 892.278 248.736 888.568 241.13 881.148C233.71 873.542 230 864.452 230 853.878V796.278V783.478V770.678H486V783.478V796.278ZM474.591 648.8C474.591 662.342 471.252 674.586 464.574 685.53H431.739C438.974 674.771 442.591 662.528 442.591 648.8H474.591ZM443.148 724.209H475.148C475.148 737.936 478.765 750.18 486 760.939H453.165C446.487 749.994 443.148 737.751 443.148 724.209ZM239.739 648.8H271.739C271.739 662.528 275.357 674.771 282.591 685.53H249.757C243.078 674.586 239.739 662.342 239.739 648.8ZM272.852 724.209C272.852 737.751 269.42 749.994 262.557 760.939H230C237.235 750.18 240.852 737.936 240.852 724.209H272.852ZM537.2 693.6H566.139L567.809 677.739H599.53L597.861 693.6H669.93V709.739V719.2V855.27C669.93 868.812 666.591 881.055 659.913 892H627.078C634.313 881.241 637.93 868.997 637.93 855.27V719.2H595.078L576.435 892H544.713L563.357 719.2H537.2V693.6ZM745.061 604H777.339V619.861H793.2V645.461H777.339V661.6H745.061V645.461H585.339V661.6H553.061V645.461H537.2V619.861H553.061V604H585.339V619.861H745.061V604ZM718.07 876.139C707.496 876.139 698.406 872.336 690.8 864.73C683.38 857.125 679.67 848.128 679.67 837.739V719.2V703.339V693.6H793.2V703.339V719.2V850.261V875.861H761.2H718.07V876.139ZM711.67 719.2V850.261H761.2V719.2H711.67Z" fill="#E33724"/>
</g>
<defs>
<radialGradient id="paint0_radial_22689_195988" cx="0" cy="0" r="1" gradientUnits="userSpaceOnUse" gradientTransform="translate(512 512) rotate(90) scale(512 534.367)">
<stop offset="0.0583092" stop-color="white"/>
<stop offset="1" stop-color="white" stop-opacity="0.01"/>
</radialGradient>
<clipPath id="clip0_22689_195988">
<rect width="1024" height="1024" fill="white"/>
</clipPath>
</defs>
</svg>
