<svg width="18" height="19" viewBox="0 0 18 19" fill="none" xmlns="http://www.w3.org/2000/svg">
<path d="M8.79948 0.933228C4.03281 0.933228 0.132812 4.83323 0.132812 9.59989C0.132812 14.3666 4.03281 18.2666 8.79948 18.2666C13.5661 18.2666 17.4661 14.3666 17.4661 9.59989C17.4661 4.83323 13.5661 0.933228 8.79948 0.933228ZM12.5261 7.51989L8.53948 12.7199C8.36615 12.8932 8.10615 13.0666 7.84615 13.0666C7.58615 13.0666 7.32615 12.9799 7.15281 12.7199L5.07281 10.0332C4.81281 9.68656 4.81281 9.0799 5.24615 8.81989C5.67948 8.55989 6.19948 8.55989 6.45948 8.99323L7.84615 10.8132L11.1395 6.47989C11.3995 6.13323 12.0061 6.04656 12.3528 6.30656C12.7861 6.56656 12.7861 7.08656 12.5261 7.51989Z" fill="#FCF6F2"/>
</svg>
