<svg width="71" height="30" viewBox="0 0 71 30" fill="none" xmlns="http://www.w3.org/2000/svg">
<path fill-rule="evenodd" clip-rule="evenodd" d="M4.0094 10.5467C3.56046 10.2773 2.99913 10.6463 3.06832 11.1652L4.23257 19.8971C4.39817 21.1391 5.45763 22.0667 6.71064 22.0667H15.3331C16.5861 22.0667 17.6455 21.1391 17.8111 19.8971L18.9754 11.1652C19.0446 10.6463 18.4832 10.2773 18.0343 10.5467L15.0843 12.3167L11.502 8.01782C11.2521 7.71797 10.7916 7.71797 10.5417 8.01782L6.95935 12.3167L4.0094 10.5467ZM9.74907 15.0705C9.42188 14.5252 8.58435 14.7571 8.58435 15.3931C8.58435 15.5067 8.61524 15.6183 8.67371 15.7157L10.2255 18.302C10.5862 18.9032 11.4575 18.9032 11.8182 18.302L13.37 15.7157C13.4285 15.6183 13.4593 15.5067 13.4593 15.3931C13.4593 14.7571 12.6218 14.5252 12.2946 15.0705L11.1093 17.046C11.0697 17.112 10.974 17.112 10.9344 17.046L9.74907 15.0705Z" fill="url(#paint0_linear_20085_45462)"/>
<path d="M23.2104 10.932H24.6264L27.0624 18.036H27.0984L29.5224 10.932H30.9384L27.8664 19.5H26.2824L23.2104 10.932ZM31.866 10.932H33.162V19.5H31.866V10.932ZM34.8654 10.932H38.4174C40.4574 10.932 41.4774 11.796 41.4774 13.536C41.4774 15.288 40.4454 16.164 38.3934 16.164H36.1734V19.5H34.8654V10.932ZM36.1734 12.048V15.048H38.3094C38.9574 15.048 39.4254 14.928 39.7254 14.688C40.0134 14.448 40.1694 14.064 40.1694 13.536C40.1694 13.008 40.0134 12.624 39.7134 12.408C39.4134 12.168 38.9454 12.048 38.3094 12.048H36.1734ZM51.4296 9.636H52.2696C53.7816 11.292 55.5096 12.6 57.4776 13.56L56.8536 14.664C56.1336 14.292 55.4736 13.884 54.8496 13.428V14.328H48.8856V13.38C48.2376 13.836 47.5416 14.268 46.7976 14.676L46.1856 13.572C48.2856 12.516 50.0376 11.208 51.4296 9.636ZM49.0656 13.248H54.6096C53.5776 12.48 52.6536 11.616 51.8496 10.656C51.0696 11.604 50.1456 12.468 49.0656 13.248ZM47.0016 15.66H56.7216V16.764H51.1296C50.5896 17.76 49.9656 18.624 49.2576 19.368C50.9856 19.272 52.6416 19.128 54.2496 18.936C53.8896 18.468 53.4936 18 53.0616 17.52L53.9496 16.956C55.0416 18.144 55.8816 19.176 56.4816 20.052L55.5336 20.724C55.3296 20.412 55.1136 20.088 54.8856 19.764C53.0256 20.052 50.6856 20.28 47.8776 20.448L47.5656 19.464C47.8416 19.392 48.0336 19.284 48.1536 19.152C48.8016 18.396 49.3536 17.604 49.8096 16.764H47.0016V15.66ZM67.9896 13.956V18.504H66.8616V15H60.8496V18.684H59.7216V13.956H67.9896ZM60.4296 10.02H67.2816V13.224H60.4296V10.02ZM66.1776 12.24V11.028H61.5336V12.24H66.1776ZM63.3816 15.624L64.5336 15.732C64.3656 17.532 63.9936 18.732 63.4176 19.332C62.8176 20.076 61.3536 20.568 59.0376 20.784L58.5936 19.74C60.5256 19.644 61.8096 19.284 62.4336 18.66C62.9736 18.072 63.2856 17.064 63.3816 15.624ZM64.7976 18.336C66.3576 18.756 67.7736 19.26 69.0696 19.848L68.4456 20.796C67.0776 20.112 65.6736 19.572 64.2336 19.188L64.7976 18.336Z" fill="#F4DBBA"/>
<defs>
<linearGradient id="paint0_linear_20085_45462" x1="4.50965" y1="7.79293" x2="20.1531" y2="20.6397" gradientUnits="userSpaceOnUse">
<stop stop-color="#D3AE7F"/>
<stop offset="1" stop-color="#AB8159"/>
</linearGradient>
</defs>
</svg>
