<svg width="20" height="20" viewBox="0 0 20 20" fill="none" xmlns="http://www.w3.org/2000/svg">
<path d="M10.0026 0.833313C4.96094 0.833313 0.835938 4.95831 0.835938 9.99998C0.835938 15.0416 4.96094 19.1666 10.0026 19.1666C15.0443 19.1666 19.1693 15.0416 19.1693 9.99998C19.1693 4.95831 15.0443 0.833313 10.0026 0.833313ZM13.9443 7.79998L9.7276 13.3C9.54427 13.4833 9.26927 13.6666 8.99427 13.6666C8.71927 13.6666 8.44427 13.575 8.26094 13.3L6.06094 10.4583C5.78594 10.0916 5.78594 9.44998 6.24427 9.17498C6.7026 8.89998 7.2526 8.89998 7.5276 9.35831L8.99427 11.2833L12.4776 6.69998C12.7526 6.33331 13.3943 6.24165 13.7609 6.51665C14.2193 6.79165 14.2193 7.34165 13.9443 7.79998Z" fill="#D4AE7F"/>
</svg>
