<svg width="19" height="19" viewBox="0 0 19 19" fill="none" xmlns="http://www.w3.org/2000/svg">
<path d="M9.59635 0.933228C4.82969 0.933228 0.929688 4.83323 0.929688 9.59989C0.929688 14.3666 4.82969 18.2666 9.59635 18.2666C14.363 18.2666 18.263 14.3666 18.263 9.59989C18.263 4.83323 14.363 0.933228 9.59635 0.933228ZM13.323 7.51989L9.33635 12.7199C9.16302 12.8932 8.90302 13.0666 8.64302 13.0666C8.38302 13.0666 8.12302 12.9799 7.94969 12.7199L5.86969 10.0332C5.60969 9.68656 5.60969 9.0799 6.04302 8.81989C6.47635 8.55989 6.99635 8.55989 7.25635 8.99323L8.64302 10.8132L11.9364 6.47989C12.1964 6.13323 12.803 6.04656 13.1497 6.30656C13.583 6.56656 13.583 7.08656 13.323 7.51989Z" fill="#AE845B"/>
</svg>
