<svg width="132" height="32" viewBox="0 0 132 32" fill="none" xmlns="http://www.w3.org/2000/svg">
<g clip-path="url(#clip0_22558_88547)">
<path d="M10.2298 12.069L19.6422 28.259L26.9551 15.7137L29.5382 19.6083C30.5015 21.0619 32.1292 21.9352 33.8709 21.9352H36.8747C37.5234 21.9352 37.9245 21.2291 37.5962 20.6705L27.938 4.33681C27.6137 3.78803 26.8195 3.78803 26.4951 4.33681L19.9017 15.5544L13.4813 4.16962C13.1707 3.62084 12.3883 3.59723 12.0482 4.12831L10.3458 6.77978C9.31764 8.38089 9.27243 10.4246 10.2298 12.069Z" fill="#F9C33B"/>
<path d="M6.08158 21.9921C7.87842 21.9921 9.33504 20.5346 9.33504 18.7368C9.33504 16.9389 7.87842 15.4814 6.08158 15.4814C4.28475 15.4814 2.82812 16.9389 2.82812 18.7368C2.82812 20.5346 4.28475 21.9921 6.08158 21.9921Z" fill="#F9C33B"/>
</g>
<path d="M129.741 8.64146V18.2007C129.741 18.5342 129.586 18.8232 129.119 18.8232H127.363C127.007 18.8232 126.763 18.5564 126.763 18.2007V9.01938C126.763 8.68592 126.54 8.5303 126.251 8.5303H122.383C122.116 8.5303 121.894 8.73038 121.894 9.04162V18.2674C121.894 18.6231 121.694 18.8232 121.294 18.8232H119.493C119.093 18.8232 118.893 18.6454 118.893 18.2674V8.68592C118.893 7.97453 119.093 7.39653 119.515 7.0186C119.938 6.59622 120.582 6.39614 121.427 6.39614H127.407C128.141 6.39614 128.719 6.59621 129.119 6.97414C129.541 7.35207 129.741 7.93007 129.741 8.64146ZM125.962 10.042V19.2456C125.962 19.4012 125.962 19.5346 125.94 19.6902H127.096C127.518 19.6902 127.674 19.9125 127.674 20.2682V23.2027C127.674 23.5362 127.874 23.6696 128.185 23.6696H129.764C130.119 23.6696 130.164 23.8696 130.075 24.1142L129.519 25.5147C129.43 25.6926 129.252 25.8037 129.008 25.8037H127.007C126.051 25.8037 125.406 25.6703 124.984 25.2702C124.606 24.9145 124.428 24.3587 124.428 23.4917V21.9578L121.116 25.4258C120.849 25.7148 120.649 25.8037 120.249 25.8037H117.359C117.025 25.8037 116.959 25.5592 117.159 25.3591L122.161 20.0681C122.45 19.7569 122.694 19.2901 122.694 18.8677V10.0642C122.694 9.73077 122.894 9.50847 123.272 9.50847H125.362C125.718 9.50847 125.962 9.73077 125.962 10.042ZM117.692 9.5307C118.048 10.1976 117.915 11.198 117.337 12.0206L115.336 14.9328V25.3591C115.336 25.5592 115.18 25.8037 114.891 25.8037H112.601C112.246 25.8037 112.09 25.5592 112.09 25.3591V17.7117H110.49C110.223 17.7117 110.089 17.4894 110.245 17.2448L114.402 11.198C114.536 10.9757 114.469 10.7312 114.18 10.7312H111.001C110.645 10.7312 110.445 10.62 110.445 10.3088V9.01938C110.445 8.77484 110.667 8.61923 111.001 8.61923H112.335V6.59622C112.335 6.39614 112.468 6.17383 112.779 6.17383H115.047C115.38 6.17383 115.514 6.39614 115.514 6.59622V8.61923H115.847C116.803 8.61923 117.403 8.97492 117.692 9.5307ZM118.048 14.8217L118.493 19.9125C118.515 20.1793 118.337 20.4016 118.048 20.4016H116.647C116.381 20.4016 116.203 20.2682 116.181 20.0015L115.758 14.8883C115.736 14.5771 115.936 14.4215 116.247 14.4215H117.559C117.826 14.4215 118.026 14.5549 118.048 14.8217Z" fill="#FAC33D"/>
<path d="M88.6063 13.8213H92.6745V13.1988H91.1183C90.2736 13.1988 89.5844 12.9765 89.1398 12.4874C88.8063 12.0873 88.6285 11.6204 88.6285 10.9979V8.5303C88.6285 7.86338 88.9175 7.35207 89.3843 6.97414C89.8512 6.59621 90.4736 6.41837 91.1183 6.41837H97.5208C98.0766 6.41837 98.6546 6.57398 99.0992 6.86299C99.6328 7.21868 99.9885 7.77445 99.9885 8.5303V10.9979C99.9885 11.6871 99.7662 12.2206 99.3882 12.5763C98.9436 13.0209 98.2989 13.1988 97.5208 13.1988H95.9202V13.8213H100.011C100.255 13.8213 100.5 13.9991 100.5 14.2881V15.333C100.5 15.6887 100.255 15.8443 100.011 15.8443H88.584C88.3395 15.8443 88.0949 15.6442 88.0949 15.3774V14.3548C88.0949 14.1325 88.2506 13.8213 88.6063 13.8213ZM92.1632 22.4469L91.6519 23.8919C91.6963 23.8696 91.7186 23.8696 91.763 23.8696H92.2966C92.5856 23.8696 92.6745 23.6918 92.6745 23.4917V21.4465H91.1183C90.1402 21.4465 89.4733 21.2686 89.1398 20.7128C88.9619 20.4238 88.873 20.0681 88.873 19.5791V18.3341C88.873 17.645 89.1176 17.1781 89.5177 16.8891C89.9401 16.5779 90.4959 16.4445 91.1183 16.4445H97.5208C98.0988 16.4445 98.6324 16.5557 99.0325 16.8002C99.4772 17.0892 99.7662 17.5783 99.7662 18.3341V19.5791C99.7662 20.2682 99.5883 20.7351 99.2104 21.0241C98.8325 21.3131 98.2767 21.4465 97.5208 21.4465H95.9202V23.5139C95.9202 24.3587 95.8091 24.9145 95.4756 25.2702C95.1421 25.6481 94.5864 25.8037 93.7194 25.8037H92.5189C92.3633 25.8037 92.0965 25.7148 92.0298 25.5369L91.4963 24.3365L91.274 24.9812C91.2073 25.2257 90.9405 25.3369 90.7182 25.3369H88.3172C88.0505 25.3369 87.8949 25.1368 88.006 24.8256L88.8953 22.3579C88.9619 22.1356 89.1843 22.0022 89.4066 22.0022H91.8297C92.1187 22.0022 92.2521 22.2468 92.1632 22.4469ZM99.6995 22.3579L100.433 24.3809L104.368 19.2234C104.479 19.0678 104.701 18.9566 104.924 18.9566H107.792C108.081 18.9566 108.103 19.2234 107.947 19.4235L103.368 25.4925C103.212 25.6926 102.923 25.826 102.723 25.826H100.033C99.7662 25.826 99.5216 25.5592 99.7217 25.3369L99.8106 25.2035H97.8543C97.632 25.2035 97.3875 25.0701 97.2985 24.87L96.4315 22.4469C96.3426 22.2468 96.476 22.0022 96.765 22.0022H99.1882C99.4105 22.0022 99.6328 22.1356 99.6995 22.3579ZM107.703 12.932L103.946 18.2674C103.812 18.4675 103.523 18.6009 103.301 18.6009H100.611C100.344 18.6009 100.122 18.3564 100.3 18.1118L104.101 12.7097C104.212 12.5541 104.435 12.4652 104.657 12.4652H107.525C107.792 12.4652 107.858 12.7097 107.703 12.932ZM107.547 6.61845L103.857 11.8427C103.745 12.0428 103.456 12.1762 103.234 12.1762H100.544C100.255 12.1762 100.055 11.9316 100.233 11.6871L103.946 6.4406C104.057 6.26275 104.279 6.17383 104.501 6.17383H107.369C107.636 6.17383 107.703 6.41837 107.547 6.61845ZM92.5856 19.4457H96.0536C96.2981 19.4457 96.4538 19.4012 96.4538 19.1344V18.7788C96.4538 18.512 96.2981 18.4231 96.0536 18.4231H92.5856C92.341 18.4231 92.1854 18.512 92.1854 18.7788V19.1344C92.1854 19.4012 92.341 19.4457 92.5856 19.4457ZM96.765 10.9979V10.4866H91.852V10.9535C91.852 11.1091 91.9853 11.198 92.1187 11.198H96.476C96.5871 11.198 96.765 11.1313 96.765 10.9979ZM91.852 8.64146V9.10831H96.765V8.70815C96.765 8.48584 96.6316 8.44138 96.476 8.44138H92.1187C92.0076 8.44138 91.852 8.48584 91.852 8.64146Z" fill="#FAC33D"/>
<path d="M85.5518 13.5545V24.1809C85.5518 24.6255 85.4628 24.9812 85.2405 25.2479C84.9515 25.6036 84.4402 25.8037 83.6621 25.8037H80.861C80.5943 25.8037 80.4164 25.7148 80.3275 25.448L79.8162 24.1364C79.7273 23.8919 79.8162 23.6918 80.0607 23.6918H81.9948C82.1949 23.6918 82.3728 23.5139 82.3728 23.3139V21.5354H78.7269V21.8022C78.7269 22.1134 78.638 22.5802 78.5268 22.9137L77.6598 25.4036C77.5486 25.737 77.2819 25.8037 76.9929 25.8037H74.503C74.214 25.8037 74.1251 25.5369 74.214 25.2702L75.2811 22.2023C75.4145 21.8022 75.5479 21.5132 75.5479 21.1352V13.5545C75.5479 12.8876 75.7035 12.3985 76.0369 12.065C76.3482 11.7538 76.7928 11.5759 77.4153 11.5759H83.6621C84.3068 11.5759 84.7959 11.776 85.1072 12.1539C85.3962 12.4874 85.5518 12.9765 85.5518 13.5545ZM74.1695 14.1547V22.7136C74.1695 23.4695 73.9695 24.003 73.5915 24.4032C73.2136 24.7366 72.6801 24.9145 71.9465 24.9145H68.8119C68.0116 24.9145 67.4558 24.6699 67.0779 24.292C66.7667 23.8919 66.611 23.3583 66.611 22.7136V14.1547C66.611 13.5767 66.7889 13.0876 67.1223 12.7097C67.5003 12.3096 68.1227 12.065 68.8119 12.065H71.9465C72.6578 12.065 73.2136 12.2429 73.5915 12.5763C73.9695 12.9543 74.1695 13.4878 74.1695 14.1547ZM73.2581 10.9757H70.8571C70.5237 10.9757 70.3903 10.6645 70.3903 10.4199V9.79747H66.7444C66.5443 9.79747 66.2998 9.64185 66.2998 9.37508V8.08569C66.2998 7.81892 66.5221 7.6633 66.7444 7.6633H70.3903V6.68514C70.3903 6.41837 70.5904 6.17383 70.8794 6.17383H73.2581C73.5471 6.17383 73.7249 6.39614 73.7249 6.68514V7.6633H78.1266V6.68514C78.1266 6.41837 78.3267 6.17383 78.6157 6.17383H80.9944C81.2612 6.17383 81.4613 6.39614 81.4613 6.68514V7.6633H85.0182C85.3295 7.6633 85.5518 7.81891 85.5518 8.13015V9.28616C85.5518 9.59739 85.3295 9.79747 85.0182 9.79747H81.4613V10.3532C81.4613 10.6645 81.3057 10.9757 80.9944 10.9757H78.5935C78.26 10.9757 78.1266 10.6645 78.1266 10.4199V9.79747H73.7249V10.3532C73.7249 10.6645 73.5693 10.9757 73.2581 10.9757ZM78.7269 14.1325V15.533H82.3728V14.1325C82.3728 13.888 82.2616 13.6656 82.0393 13.6656H79.1048C78.838 13.6656 78.7269 13.9102 78.7269 14.1325ZM78.7269 17.6005V19.4457H82.3728V17.6005H78.7269ZM71.0572 22.4246V19.379H69.7234V22.4246C69.7234 22.6247 69.8123 22.8248 70.0568 22.8248H70.7904C70.9238 22.8248 71.0572 22.6025 71.0572 22.4246ZM69.7234 14.5104V17.2448H71.0572V14.5104C71.0572 14.2436 70.9461 14.1547 70.7904 14.1547H70.0568C69.8567 14.1547 69.7234 14.2659 69.7234 14.5104Z" fill="#FAC33D"/>
<path d="M55.4648 6.68514V10.9979H63.0455C63.3568 10.9979 63.6013 11.1536 63.6013 11.4648V12.6875C63.6013 12.9987 63.3568 13.1321 63.1122 13.1321H55.198C55.0869 13.3989 54.9757 13.6212 54.8646 13.8213L54.1309 14.9995H56.5097C56.9098 14.9995 57.0654 15.0662 57.1988 15.2885L63.6458 25.2479C63.8014 25.4925 63.7569 25.8037 63.4457 25.8037H60.6224C60.3111 25.8037 60.0666 25.7593 59.8665 25.4925L53.6196 15.8443L47.684 25.448C47.5061 25.737 47.1504 25.7593 46.9281 25.7593H44.0381C43.7936 25.7593 43.8158 25.4036 43.9047 25.2479L51.3743 13.1321H44.5494C44.2827 13.1321 44.0603 12.9543 44.0603 12.6653V11.4648C44.0603 11.1536 44.2827 10.9979 44.6161 10.9979H52.1302V6.68514C52.1302 6.41837 52.3747 6.17383 52.6637 6.17383H54.9313C55.2203 6.17383 55.4648 6.39614 55.4648 6.68514Z" fill="#FAC33D"/>
<defs>
<clipPath id="clip0_22558_88547">
<rect width="34.8857" height="24.5143" fill="white" transform="translate(2.82812 3.74268)"/>
</clipPath>
</defs>
</svg>
