<svg width="102" height="36" viewBox="0 0 102 36" fill="none" xmlns="http://www.w3.org/2000/svg">
<path d="M5.72056 28.3986C3.75043 23.8766 5.81919 18.6136 10.3413 16.6435L20.6271 12.1623C23.7925 10.7832 27.4766 12.2313 28.8557 15.3968C30.2348 18.5622 28.7867 22.2463 25.6212 23.6254L10.4226 30.2469C8.6138 31.035 6.50861 30.2075 5.72056 28.3986Z" fill="url(#paint0_linear_21730_66366)"/>
<path d="M5.85808 7.34329C6.6581 5.53972 8.76872 4.72618 10.5723 5.5262L25.728 12.2489C28.8842 13.6489 30.3079 17.3425 28.9079 20.4987C27.5079 23.655 23.8143 25.0787 20.658 23.6787L10.4008 19.1288C5.89189 17.1288 3.85804 11.8522 5.85808 7.34329Z" fill="#18BC52"/>
<g clip-path="url(#clip0_21730_66366)">
<path d="M39.3079 18.1286H38.2278C38.1215 18.1286 38.0684 18.1115 38.033 18.0773C37.9976 18.043 37.9798 17.9574 37.9976 17.8375L38.4048 14.2413C38.4402 13.9673 38.5819 13.8303 38.8298 13.8303H52.8898C53.3679 13.8303 53.7575 13.8646 54.0585 13.9159C54.3595 13.9673 54.5897 14.0701 54.7491 14.2071C54.9085 14.3441 55.0147 14.5496 55.0501 14.7893C55.0856 15.029 55.0856 15.3373 55.0501 15.6969L54.8199 17.8375C54.8199 17.9403 54.7845 18.0088 54.7491 18.043C54.7137 18.0773 54.6606 18.0773 54.5543 18.0773H53.3148C53.4919 18.2485 53.6158 18.4711 53.6689 18.728C53.7221 18.9849 53.7221 19.2931 53.7043 19.6527L53.4033 23.0092C53.4033 23.0092 53.3679 23.1633 53.3679 23.2318C53.3679 23.3003 53.3148 23.3517 53.2617 23.4031C53.4033 23.6428 53.545 23.8826 53.7043 24.1566C53.8637 24.4306 53.9877 24.7217 54.1116 25.0128C54.2356 25.3039 54.3418 25.595 54.4481 25.869C54.5543 26.143 54.6252 26.3999 54.6606 26.6225C54.696 26.7253 54.696 26.8109 54.6606 26.8965C54.6429 26.9821 54.572 27.0506 54.4835 27.0849C54.0408 27.239 53.6335 27.3589 53.2262 27.4616C52.8367 27.5644 52.3408 27.65 51.7742 27.7528C51.5263 27.787 51.3846 27.7185 51.3492 27.513L51.1721 26.828C50.1274 26.9308 49.0295 27.0335 47.9139 27.102C46.7806 27.1705 45.6473 27.239 44.4786 27.3075C43.3099 27.376 42.1589 27.4274 40.9902 27.4616C39.8215 27.4959 38.6882 27.5301 37.5903 27.5473C37.4486 27.5473 37.3601 27.5473 37.307 27.4959C37.2715 27.4445 37.2361 27.376 37.2007 27.2733C37.1653 27.102 37.1122 26.8965 37.0768 26.6568C37.0413 26.417 37.0059 26.1944 36.9882 25.9718C36.9528 25.7492 36.9351 25.5265 36.9174 25.321C36.8997 25.1155 36.882 24.9272 36.8643 24.7731C36.8643 24.5847 36.9705 24.4819 37.1653 24.4819C38.0684 24.5162 39.1309 24.5162 40.3704 24.5162H44.1422L44.2484 23.4716H39.1131C38.9361 23.4716 38.7944 23.4373 38.7059 23.3517C38.6173 23.2661 38.5819 23.1291 38.6173 22.9236L39.3256 18.1115L39.3079 18.1286ZM49.3128 8.2305C49.6847 8.2305 50.0388 8.28188 50.3753 8.3675C50.7117 8.47025 51.0128 8.59012 51.2607 8.76137C51.5086 8.93262 51.7211 9.12099 51.8627 9.34362C52.0044 9.56624 52.0575 9.77173 52.0398 9.99436V10.1314H55.8647C56.0772 10.1314 56.1834 10.2341 56.1657 10.4567C56.1303 10.765 56.0595 11.0903 55.9886 11.45C55.9178 11.8096 55.8647 12.0836 55.8116 12.2891C55.7762 12.409 55.7407 12.4946 55.6699 12.5288C55.5991 12.5631 55.5105 12.5973 55.422 12.5973H51.6325L51.544 13.1967C51.5086 13.4022 51.3846 13.5049 51.2076 13.5049H48.5868C48.3389 13.5049 48.2504 13.4022 48.2858 13.1967L48.3743 12.5973H45.3286L45.2577 13.1453C45.2577 13.3851 45.1161 13.4878 44.9036 13.4878H42.3714C42.2297 13.4878 42.1235 13.4536 42.0703 13.3679C41.9995 13.2994 41.9818 13.2138 41.9995 13.1111L42.0703 12.5802H39.7152C39.0423 12.5802 38.4934 12.3918 38.0684 12.0322C37.6434 11.6555 37.4132 11.1075 37.3424 10.354C37.3424 10.1999 37.4132 10.1314 37.5549 10.1314H42.4245L42.6547 8.55587C42.6547 8.38463 42.7609 8.28188 42.938 8.28188C43.2922 8.28188 43.6286 8.33325 43.9651 8.41888C44.3015 8.52163 44.5848 8.65862 44.8505 8.82987C45.0984 9.00112 45.3109 9.20662 45.4702 9.42924C45.6296 9.65186 45.7004 9.87448 45.6827 10.1314H48.7639L49.0118 8.45313C49.0118 8.45313 49.0472 8.33325 49.1003 8.28188C49.1535 8.2305 49.2243 8.21338 49.3305 8.21338L49.3128 8.2305ZM41.3266 17.6149H44.8682L44.9744 16.7073C44.9744 16.5703 45.063 16.5018 45.2046 16.5018H48.1795C48.3212 16.5018 48.392 16.5703 48.3743 16.7073L48.2858 17.6149H51.544L51.7388 16.1422H41.4683L41.3266 17.6149ZM44.4963 21.2282L44.638 19.8754H42.336L42.1943 21.2282H44.4963ZM47.666 24.5162C48.1795 24.5162 48.6753 24.5162 49.1357 24.5162C49.6139 24.5162 50.0743 24.5162 50.5347 24.4819C50.4815 24.3107 50.4284 24.1566 50.3753 23.9853C50.3222 23.8141 50.2867 23.6599 50.2336 23.4887H47.7722L47.666 24.5162ZM48.091 19.8754L47.967 21.2282H50.1982L50.3222 20.2179C50.3222 20.0637 50.3222 19.9781 50.269 19.9267C50.2159 19.8925 50.1097 19.8582 49.968 19.8582H48.091V19.8754Z" fill="#18BC52"/>
<path d="M64.6477 21.3139C64.4529 21.4509 64.2935 21.4166 64.205 21.2283C64.1165 21.057 64.0279 20.8686 63.9571 20.6803C63.8686 20.4919 63.78 20.3035 63.6561 20.098L63.1957 27.4788C63.1602 27.7014 63.0186 27.8042 62.7884 27.8042H60.2739C59.9906 27.8042 59.8666 27.6843 59.8843 27.4274L60.451 21.4509C60.0968 21.6906 59.7426 21.8961 59.3708 22.0674C58.9989 22.2386 58.6271 22.3927 58.2375 22.4955C58.1312 22.5297 58.025 22.4955 57.9365 22.4612C57.8479 22.4099 57.8125 22.3071 57.8125 22.153C57.8125 21.9646 57.8479 21.742 57.901 21.5194C57.9365 21.2796 57.9896 21.057 58.0427 20.8173C58.0958 20.5775 58.1489 20.3549 58.1844 20.1494C58.2198 19.9439 58.2729 19.7555 58.326 19.5843C58.3614 19.5158 58.3969 19.4473 58.45 19.3959C58.5031 19.3445 58.5385 19.2932 58.5916 19.276C59.5479 18.7109 60.3447 18.0944 60.9468 17.3923C61.5488 16.7073 62.0092 15.8682 62.2926 14.9092H60.6989C60.1676 14.9092 59.7249 14.7037 59.3531 14.2927C58.9812 13.8817 58.7687 13.2995 58.7333 12.546C58.7333 12.3919 58.7864 12.3234 58.9104 12.3234H64.3467C65.1081 12.3234 65.5862 12.5117 65.7987 12.8714C65.9935 13.231 66.0112 13.7105 65.8164 14.2927C65.4977 15.286 65.0196 16.2963 64.3998 17.2896C64.7362 17.5978 65.055 17.906 65.3206 18.2143C65.6039 18.5225 65.8341 18.8308 66.0289 19.1048L67.0914 9.94302C67.1268 9.77177 67.1799 9.6519 67.2684 9.61765C67.357 9.5834 67.4809 9.54915 67.658 9.54915H74.5463C75.5026 9.54915 76.1223 9.73752 76.4234 10.0971C76.7244 10.4568 76.8306 11.1075 76.7244 12.0151L76.0515 20.8686C76.0161 21.0741 75.9098 21.1769 75.7151 21.1769H73.2891C73.0412 21.1769 72.9349 21.0741 72.9703 20.8515L73.7318 12.8029C73.7672 12.4946 73.661 12.3576 73.3953 12.3576H69.8538L68.7205 20.9714C68.6851 21.1598 68.5434 21.2625 68.3309 21.2625H66.082C65.8872 21.2625 65.7987 21.1426 65.8341 20.92L65.8695 20.4405C65.6748 20.6118 65.48 20.7659 65.2675 20.92C65.0727 21.0741 64.8779 21.2111 64.6654 21.331L64.6477 21.3139ZM63.5675 8.19629C64.0988 8.19629 64.5592 8.36754 64.931 8.72716C65.3029 9.08678 65.4977 9.5149 65.4977 10.0458C65.4977 10.5766 65.3029 11.0048 64.931 11.3644C64.5592 11.724 64.0988 11.9124 63.5675 11.9124C63.0363 11.9124 62.5759 11.724 62.204 11.3644C61.8322 11.0048 61.6374 10.5595 61.6374 10.0458C61.6374 9.53202 61.8322 9.08678 62.204 8.72716C62.5759 8.36754 63.0363 8.19629 63.5675 8.19629ZM70.1902 13.1967C70.2256 13.0084 70.3319 12.9056 70.5267 12.9056H72.8287C73.0766 12.9056 73.1828 13.0084 73.1474 13.2139C73.0058 14.7893 72.8641 16.1936 72.7224 17.4265C72.5808 18.6595 72.3683 19.7726 72.085 20.7488C72.0495 20.9029 71.9964 21.0399 71.961 21.1769C71.9256 21.3139 71.8725 21.4338 71.8193 21.5536H73.6432C73.8557 21.5536 73.962 21.6564 73.9443 21.8619L73.6964 24.4306C74.0682 24.4648 74.5463 24.3963 75.1484 24.2251C75.7505 24.0538 76.3348 23.8312 76.9015 23.5401C76.9723 23.5058 77.0431 23.5058 77.1317 23.5401C77.2025 23.5743 77.2556 23.66 77.2556 23.7627C77.2556 23.934 77.2556 24.1223 77.2202 24.3278C77.1848 24.5333 77.1671 24.756 77.1317 24.9786C77.0963 25.2012 77.0608 25.4238 77.0431 25.6122C77.0077 25.8177 76.99 25.9718 76.9546 26.1088C76.9192 26.2116 76.9015 26.2972 76.8661 26.3486C76.8306 26.3999 76.7598 26.4684 76.6713 26.5369C76.4234 26.6911 76.0692 26.8109 75.5911 26.9308C75.113 27.0336 74.5995 27.1192 74.0328 27.1706C73.4662 27.2219 72.9172 27.2391 72.3506 27.2048C71.7839 27.1706 71.3058 27.1192 70.8808 27.0164C70.5798 26.9308 70.4558 26.7424 70.4913 26.4684L70.81 23.66C70.1371 24.6875 69.2694 25.5266 68.2247 26.1602C67.1799 26.8109 65.9404 27.2904 64.4883 27.6329C64.0988 27.7357 63.9217 27.5987 63.9925 27.2391C64.0633 26.8794 64.1342 26.5198 64.2227 26.1259C64.2935 25.7492 64.3998 25.3382 64.506 24.893C64.5415 24.7046 64.6477 24.5676 64.8071 24.4991C65.356 24.2422 65.8518 23.9853 66.3122 23.7456C66.7549 23.5058 67.1622 23.249 67.4987 22.9579C67.8528 22.6667 68.1538 22.3414 68.4017 21.9817C68.6497 21.6221 68.8621 21.194 69.0392 20.6974C69.3225 19.8925 69.5528 18.8822 69.7121 17.6834C69.8892 16.4847 70.0486 14.9777 70.2079 13.1454L70.1902 13.1967Z" fill="#18BC52"/>
<path d="M89.3501 14.1214C89.3501 13.9159 89.3855 13.7789 89.4564 13.6933C89.5272 13.6076 89.6334 13.5734 89.7928 13.5734H91.8115L92.1479 12.3233H90.749C90.2178 12.3233 89.7574 12.1178 89.4032 11.7239C89.0491 11.33 88.8543 10.782 88.8366 10.097C88.8366 9.9258 88.9251 9.82305 89.0845 9.82305H98.3457C98.4519 9.82305 98.5404 9.84018 98.5936 9.89155C98.6467 9.9258 98.6467 10.0114 98.629 10.1313C98.5936 10.4738 98.5404 10.8163 98.4696 11.1417C98.3988 11.4842 98.3279 11.7753 98.2394 12.0493C98.204 12.2205 98.0623 12.289 97.8321 12.289H95.3176C95.2291 12.5288 95.1405 12.7343 95.0343 12.9398C94.9281 13.1453 94.8218 13.3508 94.6979 13.5391H95.8489C96.327 13.5391 96.7165 13.5734 96.9999 13.6248C97.2832 13.6761 97.4957 13.7789 97.6373 13.9159C97.779 14.0529 97.8498 14.2412 97.8853 14.481C97.9207 14.7207 97.9207 15.029 97.903 15.4229L97.4426 22.6838C97.4426 22.855 97.4071 22.9578 97.354 23.0091C97.2832 23.0605 97.1946 23.0948 97.053 23.0948H95.1051C94.8572 23.0948 94.751 22.992 94.751 22.718L95.2999 16.0051H91.7938L91.0146 22.5981C91.0146 22.8379 90.8907 22.9406 90.6251 22.9406H88.8012C88.5533 22.9406 88.4293 22.8208 88.447 22.5639L88.748 19.8068C88.447 20.9542 88.0043 21.9817 87.42 22.8893C86.8356 23.7969 86.1273 24.5675 85.3127 25.2354C84.4982 25.8861 83.5774 26.4341 82.5326 26.8451C81.5056 27.2561 80.39 27.5643 79.2036 27.7356C79.0442 27.7698 78.9202 27.7356 78.8494 27.6671C78.7786 27.5986 78.7432 27.4787 78.7609 27.3246C78.8317 27.0163 78.9202 26.6225 79.0442 26.1772C79.1681 25.732 79.2744 25.3381 79.3806 25.0127C79.4515 24.8415 79.5577 24.7216 79.7171 24.6874C80.6202 24.4819 81.4347 24.2079 82.143 23.8825C82.8514 23.5571 83.4534 23.129 83.9669 22.6153H82.993C82.993 22.6153 82.8336 22.5981 82.7805 22.5468C82.7274 22.4954 82.7097 22.4269 82.7097 22.307L83.2409 17.6833H81.3285C80.7795 17.6833 80.3369 17.4607 79.9827 17.0326C79.6285 16.6045 79.4515 16.0736 79.4338 15.44C79.4338 15.2859 79.5046 15.2174 79.664 15.2174H81.0452L81.541 10.2683C81.541 10.097 81.6472 10.0114 81.842 10.0457C82.6212 10.1484 83.1524 10.371 83.4534 10.6793C83.7545 10.9875 83.8784 11.4328 83.843 12.015L83.5951 15.2174H84.144L84.7992 8.52157C84.7992 8.35032 84.9055 8.2647 85.1357 8.29895C85.8971 8.36745 86.4992 8.59007 86.9241 8.94969C87.3491 9.32643 87.5439 9.7888 87.4908 10.371L87.4023 11.4157H88.7835C88.9782 11.4157 89.0668 11.5184 89.0668 11.741C89.0314 12.0322 88.996 12.3404 88.9428 12.6486C88.8897 12.974 88.8366 13.2651 88.7835 13.5391C88.748 13.7618 88.6241 13.8645 88.447 13.8645H87.1898L87.0658 15.2002H88.748C88.9605 15.2002 89.0491 15.2859 89.0314 15.5085C89.0314 15.6284 88.996 15.7825 88.9605 15.9537C88.9251 16.125 88.9074 16.2962 88.872 16.4846C88.8366 16.673 88.8189 16.8271 88.7835 16.9812C88.748 17.1353 88.7303 17.2723 88.7126 17.358C88.6772 17.5635 88.5887 17.6662 88.4116 17.6662H86.2158L85.8794 20.526C86.1273 19.9781 86.3752 19.3444 86.5877 18.6081C86.5877 18.4882 86.6939 18.4197 86.8356 18.4197H88.8366H88.8543C88.8543 18.4197 88.8543 18.4197 88.872 18.4197L89.3324 14.0358L89.3501 14.1214ZM82.5503 18.4539C82.7982 18.4539 82.9045 18.5738 82.8691 18.8307C82.692 20.1664 82.3024 21.2453 81.7358 22.0673C81.1691 22.8893 80.3723 23.4715 79.3629 23.7969C79.2567 23.8311 79.1504 23.814 79.0619 23.7284C78.9734 23.6428 78.9379 23.5571 78.9556 23.4373C78.9911 23.1461 79.0265 22.7865 79.0973 22.3584C79.1681 21.9303 79.2213 21.5364 79.2921 21.1768C79.3275 21.0569 79.3983 20.937 79.5046 20.8343C79.6108 20.7315 79.6994 20.6288 79.7879 20.5089C79.8764 20.389 79.9473 20.252 80.0181 20.0979C80.0889 19.9438 80.1598 19.7554 80.2129 19.5157C80.266 19.2759 80.3369 19.0019 80.4077 18.6594C80.4608 18.5053 80.5671 18.4368 80.7087 18.4368H82.5326L82.5503 18.4539ZM94.5916 16.6045C94.6979 16.6045 94.7864 16.6216 94.8218 16.673C94.8572 16.7243 94.8749 16.7928 94.8572 16.9127C94.8041 17.9573 94.7156 18.9848 94.627 19.9781C94.5208 20.9884 94.3614 21.896 94.1135 22.718C93.8833 23.4886 93.5468 24.1565 93.1219 24.7216C92.6792 25.2867 92.1656 25.7834 91.5636 26.1772C90.9615 26.5882 90.2886 26.9136 89.5272 27.1705C88.7835 27.4273 87.9866 27.6157 87.1543 27.7356C87.0127 27.7698 86.9064 27.7356 86.8179 27.6671C86.7294 27.5986 86.7116 27.4958 86.7471 27.3417C86.8533 26.9136 86.9596 26.4855 87.0835 26.0231C87.2075 25.5779 87.3314 25.2011 87.42 24.9271C87.4554 24.7559 87.5616 24.6702 87.7033 24.636C88.1637 24.5161 88.571 24.3962 88.9605 24.2592C89.3501 24.1394 89.7043 23.9853 90.0053 23.814C90.3063 23.6428 90.5896 23.4373 90.8198 23.2146C91.0501 22.9749 91.2271 22.7009 91.3511 22.3755C91.4927 21.9817 91.6167 21.5878 91.7052 21.1768C91.7938 20.7829 91.8646 20.3548 91.9354 19.9267C91.9886 19.4814 92.0417 19.0191 92.0771 18.5224C92.1125 18.0258 92.1479 17.4607 92.1656 16.8442C92.1656 16.673 92.2365 16.5702 92.3781 16.5702H94.6093L94.5916 16.6045ZM95.353 23.5058C95.9197 23.5058 96.3978 23.6941 96.7874 24.088C97.1769 24.4647 97.3717 24.9442 97.3717 25.5094C97.3717 26.0745 97.1769 26.5197 96.7874 26.9136C96.3978 27.2903 95.9197 27.4958 95.353 27.4958C94.7864 27.4958 94.3083 27.3075 93.901 26.9136C93.5114 26.5368 93.2989 26.0574 93.2989 25.5094C93.2989 24.9614 93.4937 24.4819 93.901 24.088C94.2906 23.7113 94.7864 23.5058 95.353 23.5058Z" fill="#18BC52"/>
</g>
<defs>
<linearGradient id="paint0_linear_21730_66366" x1="19.456" y1="17.7877" x2="3.79732" y2="26.5689" gradientUnits="userSpaceOnUse">
<stop stop-color="#179945"/>
<stop offset="1" stop-color="#18BC52"/>
</linearGradient>
<clipPath id="clip0_21730_66366">
<rect width="61.7647" height="19.6079" fill="white" transform="translate(36.8823 8.19629)"/>
</clipPath>
</defs>
</svg>
