<svg width="20" height="20" viewBox="0 0 20 20" fill="none" xmlns="http://www.w3.org/2000/svg">
<path fill-rule="evenodd" clip-rule="evenodd" d="M3.14457 2.41187C2.83014 2.41187 2.52358 2.54059 2.29372 2.77789C2.06308 3.01599 1.92944 3.34389 1.92944 3.69061V13.8343C1.92944 14.181 2.06308 14.5089 2.29372 14.747C2.52358 14.9843 2.83015 15.113 3.14457 15.113H6.58353C6.85658 15.113 7.12489 15.1787 7.36695 15.3037L7.02294 15.9701L7.36696 15.3037C7.6089 15.4286 7.81706 15.6087 7.97636 15.828L9.84322 18.3977L9.25377 18.8259L9.84322 18.3977C9.86697 18.4304 9.89617 18.4548 9.9271 18.4707C9.95788 18.4866 9.99046 18.4942 10.0225 18.4942C10.0545 18.4942 10.0871 18.4866 10.1179 18.4707C10.1488 18.4548 10.178 18.4304 10.2018 18.3977L12.0686 15.828C12.2279 15.6087 12.4361 15.4286 12.678 15.3037L13.022 15.9701L12.678 15.3037C12.9201 15.1787 13.1884 15.113 13.4615 15.113V16.613C13.4294 16.613 13.3969 16.6207 13.3661 16.6366C13.3351 16.6526 13.3059 16.6769 13.2822 16.7096L12.6754 16.2688L13.2822 16.7096L11.4153 19.2793C11.256 19.4986 11.0479 19.6787 10.8059 19.8036L10.4619 19.1372L10.8059 19.8036C10.5638 19.9286 10.2955 19.9942 10.0225 19.9942C9.74945 19.9942 9.48114 19.9286 9.23907 19.8036L9.58308 19.1372L9.23906 19.8036C8.99712 19.6787 8.78896 19.4986 8.62967 19.2793L9.23644 18.8385L8.62967 19.2793L6.7628 16.7096L7.36958 16.2688L6.7628 16.7096C6.73905 16.6769 6.70985 16.6526 6.67893 16.6366C6.64813 16.6207 6.61555 16.613 6.58353 16.613H3.14457C2.41662 16.613 1.72351 16.3143 1.2163 15.7907C0.709883 15.2678 0.429443 14.5637 0.429443 13.8343V3.69061C0.429443 2.96121 0.709883 2.25707 1.2163 1.73425C1.72351 1.21062 2.41662 0.911865 3.14457 0.911865H16.9004C17.6284 0.911865 18.3215 1.21062 18.8287 1.73425C19.3351 2.25707 19.6155 2.96121 19.6155 3.69061V7.05647H18.1155V3.69061C18.1155 3.34389 17.9819 3.016 17.7513 2.77789C17.5214 2.54059 17.2148 2.41187 16.9004 2.41187H3.14457Z" fill="#9F9F9F"/>
</svg>
