<svg width="22" height="20" viewBox="0 0 22 20" fill="none" xmlns="http://www.w3.org/2000/svg">
<path d="M14.0513 16.807C13.363 17.4037 12.5826 18.0799 11.7729 18.8001C11.5592 18.9903 11.2846 19.0952 11 19.0952C10.7153 19.0952 10.4408 18.9903 10.2268 18.7998C9.41705 18.0798 8.63718 17.4038 7.94916 16.8075C5.93423 15.0613 4.19427 13.5533 2.98364 12.0678C1.63034 10.4072 1 8.8326 1 7.11249C1 5.44126 1.56351 3.89944 2.58646 2.77085C3.62177 1.62892 5.04251 1 6.58701 1C7.74149 1 8.79877 1.37118 9.7294 2.10314C10.1992 2.47261 10.6249 2.92479 11 3.45223C11.3752 2.92463 11.8008 2.47261 12.2704 2.10314C13.2012 1.37118 14.2585 1 15.413 1C16.9575 1 18.3781 1.62892 19.4134 2.77085C20.4365 3.89944 21 5.44126 21 7.11233" stroke="#9F9F9F" stroke-width="1.5"/>
</svg>
