<svg width="24" height="24" viewBox="0 0 24 24" fill="none" xmlns="http://www.w3.org/2000/svg">
<path d="M15.5904 15.1038C16.0619 15.261 16.5716 15.0062 16.7288 14.5346C16.886 14.0631 16.6312 13.5534 16.1596 13.3962L15.5904 15.1038ZM12.5 13.125H11.6C11.6 13.5124 11.8479 13.8563 12.2154 13.9788L12.5 13.125ZM13.4 8.42087C13.4 7.92381 12.9971 7.52087 12.5 7.52087C12.0029 7.52087 11.6 7.92381 11.6 8.42087H13.4ZM16.1596 13.3962L12.7846 12.2712L12.2154 13.9788L15.5904 15.1038L16.1596 13.3962ZM13.4 13.125V8.42087H11.6V13.125H13.4ZM20.6 12C20.6 16.4735 16.9735 20.1 12.5 20.1V21.9C17.9676 21.9 22.4 17.4676 22.4 12H20.6ZM12.5 20.1C8.02649 20.1 4.4 16.4735 4.4 12H2.6C2.6 17.4676 7.03238 21.9 12.5 21.9V20.1ZM4.4 12C4.4 7.52649 8.02649 3.9 12.5 3.9V2.1C7.03238 2.1 2.6 6.53238 2.6 12H4.4ZM12.5 3.9C16.9735 3.9 20.6 7.52649 20.6 12H22.4C22.4 6.53238 17.9676 2.1 12.5 2.1V3.9Z" fill="#868686"/>
</svg>
