<svg width="75" height="28" viewBox="0 0 75 28" fill="none" xmlns="http://www.w3.org/2000/svg">
<path d="M0.085 7.862H1.615L5.406 18.487H5.457L9.248 7.862H10.778L6.29 20H4.573L0.085 7.862ZM12.6834 7.862H14.0604V20H12.6834V7.862ZM17.1156 7.862H22.0796C24.8676 7.862 26.2616 9.052 26.2616 11.432C26.2616 13.829 24.8506 15.036 22.0626 15.036H18.5096V20H17.1156V7.862ZM18.5096 9.069V13.829H21.9946C22.9806 13.829 23.6946 13.625 24.1706 13.234C24.6296 12.843 24.8676 12.248 24.8676 11.432C24.8676 10.616 24.6296 10.021 24.1536 9.664C23.6776 9.256 22.9636 9.069 21.9946 9.069H18.5096ZM35.3568 6.111H36.2408C38.3998 8.525 40.8818 10.429 43.6868 11.823L43.0238 12.996C40.2018 11.517 37.8048 9.579 35.7988 7.199C33.9628 9.443 31.5318 11.381 28.5058 13.013L27.8598 11.84C30.8518 10.31 33.3508 8.406 35.3568 6.111ZM31.6508 11.33H39.9978V12.486H31.6508V11.33ZM28.9818 14.747H42.6498V15.937H34.6428C33.8268 17.535 32.8408 18.929 31.6848 20.136C34.4558 19.966 37.0908 19.728 39.6068 19.388C39.0288 18.64 38.3998 17.858 37.7028 17.076L38.6548 16.464C40.2018 18.198 41.3918 19.694 42.2248 20.969L41.2048 21.683C40.9158 21.224 40.6098 20.765 40.2698 20.289C37.6178 20.714 34.2688 21.054 30.2058 21.292L29.8658 20.221C30.1718 20.136 30.3758 20.034 30.5118 19.898C31.5998 18.64 32.5178 17.331 33.2488 15.937H28.9818V14.747ZM59.0278 12.282V18.623H57.8208V13.404H48.7938V18.827H47.5868V12.282H59.0278ZM48.6068 6.74H58.0078V11.007H48.6068V6.74ZM56.8178 9.936V7.828H49.7968V9.936H56.8178ZM52.8398 14.509L54.0808 14.611C53.8428 17.11 53.3158 18.793 52.4998 19.677C51.6158 20.731 49.5928 21.411 46.4308 21.7L45.9548 20.595C48.7088 20.425 50.5448 19.881 51.4458 18.946C52.2278 18.079 52.7038 16.6 52.8398 14.509ZM54.5228 18.453C56.7328 19.082 58.7558 19.847 60.5918 20.731L59.9288 21.751C57.9738 20.731 55.9678 19.949 53.9108 19.371L54.5228 18.453Z" fill="white" fill-opacity="0.8"/>
<path d="M68.8133 16.3512C69.1987 16.7153 69.8013 16.7153 70.1867 16.3512L72.4353 14.2269C73.0929 13.6056 72.6532 12.5 71.7485 12.5H67.2515C66.3468 12.5 65.9071 13.6056 66.5647 14.2269L68.8133 16.3512Z" fill="white" fill-opacity="0.8"/>
</svg>
