<svg width="56" height="19" viewBox="0 0 56 19" fill="none" xmlns="http://www.w3.org/2000/svg">
<path d="M11.661 7.467V11.003H12.48V11.861H9.204C9.893 13.187 11.011 14.214 12.545 14.968L12.116 15.852C10.4 14.89 9.165 13.616 8.437 12.056C7.891 13.564 6.656 14.825 4.732 15.839L4.121 15.059C5.889 14.227 7.033 13.161 7.553 11.861H4.524V11.003H5.447V7.467H8.411C8.788 6.947 9.165 6.349 9.529 5.66H7.267C6.721 6.414 6.006 7.09 5.148 7.675L4.602 6.947C5.902 6.089 6.786 5.036 7.254 3.801L8.164 3.918C8.047 4.243 7.917 4.555 7.761 4.854H10.517V5.53C10.14 6.284 9.75 6.934 9.36 7.467H11.661ZM6.279 11.003H7.813C7.969 10.249 8.06 9.339 8.086 8.286H6.279V11.003ZM8.71 11.003H10.829V8.286H8.944C8.918 9.365 8.84 10.275 8.71 11.003ZM2.041 15.657H0.936L0.741 14.76C1.079 14.799 1.404 14.825 1.716 14.825C2.054 14.825 2.236 14.63 2.236 14.266V11.133C1.716 11.341 1.196 11.523 0.676 11.692L0.442 10.756C1.053 10.6 1.651 10.418 2.236 10.197V7.168H0.689V6.271H2.236V3.892H3.172V6.271H4.498V7.168H3.172V9.82C3.64 9.612 4.095 9.378 4.55 9.118V10.067C4.095 10.301 3.64 10.535 3.172 10.743V14.5C3.172 15.267 2.795 15.657 2.041 15.657ZM13.65 9.261H25.337V10.197H13.65V9.261ZM37.661 7.467V11.003H38.48V11.861H35.204C35.893 13.187 37.011 14.214 38.545 14.968L38.116 15.852C36.4 14.89 35.165 13.616 34.437 12.056C33.891 13.564 32.656 14.825 30.732 15.839L30.121 15.059C31.889 14.227 33.033 13.161 33.553 11.861H30.524V11.003H31.447V7.467H34.411C34.788 6.947 35.165 6.349 35.529 5.66H33.267C32.721 6.414 32.006 7.09 31.148 7.675L30.602 6.947C31.902 6.089 32.786 5.036 33.254 3.801L34.164 3.918C34.047 4.243 33.917 4.555 33.761 4.854H36.517V5.53C36.14 6.284 35.75 6.934 35.36 7.467H37.661ZM32.279 11.003H33.813C33.969 10.249 34.06 9.339 34.086 8.286H32.279V11.003ZM34.71 11.003H36.829V8.286H34.944C34.918 9.365 34.84 10.275 34.71 11.003ZM28.041 15.657H26.936L26.741 14.76C27.079 14.799 27.404 14.825 27.716 14.825C28.054 14.825 28.236 14.63 28.236 14.266V11.133C27.716 11.341 27.196 11.523 26.676 11.692L26.442 10.756C27.053 10.6 27.651 10.418 28.236 10.197V7.168H26.689V6.271H28.236V3.892H29.172V6.271H30.498V7.168H29.172V9.82C29.64 9.612 30.095 9.378 30.55 9.118V10.067C30.095 10.301 29.64 10.535 29.172 10.743V14.5C29.172 15.267 28.795 15.657 28.041 15.657Z" fill="#7A7B7D"/>
<path d="M44.3333 9.22282C44.45 8.17282 44.9166 7.18115 45.675 6.42282C46.6083 5.54782 47.775 5.08115 49 5.08115C50.1666 5.08115 51.3916 5.54782 52.325 6.42282L51.3333 7.41449H54.25V4.49782L53.1416 5.60615C50.8666 3.33115 47.1333 3.33115 44.8583 5.60615C43.925 6.53949 43.3416 7.76449 43.1666 9.10615V9.74782H44.3333C44.3333 9.57282 44.3333 9.39782 44.3333 9.22282Z" fill="#A8ABB0"/>
<path d="M53.6667 9.74805C53.6667 10.973 53.2 12.198 52.325 13.073C51.3917 13.948 50.225 14.4147 49 14.4147C47.775 14.4147 46.6083 13.948 45.675 13.073L46.6667 12.0814H43.75V14.998L44.8583 13.8897C45.9667 14.998 47.425 15.5814 49 15.5814C50.575 15.5814 52.0333 14.998 53.1417 13.8897C54.25 12.7814 54.8333 11.2647 54.8333 9.74805H53.6667Z" fill="#A8ABB0"/>
</svg>
