<svg width="66" height="19" viewBox="0 0 66 19" fill="none" xmlns="http://www.w3.org/2000/svg">
<path d="M2.639 8.754H10.413V13.538H2.639V8.754ZM9.503 12.706V11.562H3.549V12.706H9.503ZM3.549 10.769H9.503V9.586H3.549V10.769ZM1.183 5.049H6.071V3.853H6.981V5.049H11.869V5.907H7.878C8.853 6.856 10.361 7.61 12.415 8.156L12.012 9.001C9.672 8.208 8.021 7.181 7.059 5.907H6.981V8.338H6.071V5.907H5.993C4.979 7.155 3.328 8.195 1.053 9.014L0.559 8.182C2.639 7.584 4.186 6.817 5.2 5.907H1.183V5.049ZM0.923 14.552H12.09V15.423H0.923V14.552ZM14.586 6.271H18.707C18.85 5.959 18.98 5.634 19.11 5.322C17.836 5.4 16.458 5.439 14.976 5.439L14.703 4.659C18.395 4.659 21.45 4.412 23.881 3.918L24.31 4.659C23.075 4.932 21.645 5.127 20.007 5.257C19.89 5.608 19.76 5.946 19.63 6.271H24.466V7.077H19.253C19.097 7.389 18.928 7.675 18.759 7.961H25.22V8.793H18.187C17.953 9.105 17.719 9.404 17.472 9.69H23.92V15.813H23.023V15.254H17.147V15.813H16.25V10.938C15.587 11.536 14.859 12.121 14.053 12.667L13.546 11.861C14.963 10.899 16.133 9.885 17.056 8.793H13.884V7.961H17.706C17.914 7.662 18.109 7.363 18.278 7.077H14.586V6.271ZM17.147 12.056V12.875H23.023V12.056H17.147ZM23.023 11.328V10.457H17.147V11.328H23.023ZM17.147 13.603V14.487H23.023V13.603H17.147ZM26.936 4.399H38.077V5.27H32.968V6.401H36.998V11.549H32.812C32.656 12.407 32.409 13.096 32.045 13.616C33.865 14.383 36.023 14.812 38.519 14.89L38.285 15.787C35.672 15.683 33.397 15.176 31.46 14.292C30.55 15.072 29.055 15.566 26.988 15.8L26.585 14.942C28.392 14.799 29.718 14.435 30.55 13.837C29.796 13.421 29.094 12.94 28.457 12.394L29.172 11.9C29.783 12.407 30.459 12.849 31.187 13.226C31.499 12.784 31.733 12.225 31.863 11.549H28.054V6.401H32.032V5.27H26.936V4.399ZM36.075 10.73V9.352H32.968V9.807L32.929 10.73H36.075ZM31.993 10.73C32.019 10.431 32.032 10.119 32.032 9.807V9.352H28.977V10.73H31.993ZM28.977 8.572H32.032V7.207H28.977V8.572ZM32.968 7.207V8.572H36.075V7.207H32.968ZM45.448 3.84L46.28 4.282C46.046 4.542 45.799 4.789 45.539 5.023H49.27V5.764C47.866 8.26 45.253 9.664 41.457 9.963L41.054 9.118C42.224 9.04 43.264 8.871 44.2 8.598C43.797 8.104 43.368 7.649 42.926 7.246L43.745 6.856C44.213 7.298 44.655 7.766 45.071 8.286C46.423 7.74 47.476 6.921 48.204 5.855H44.408C43.394 6.453 42.198 6.908 40.807 7.22L40.261 6.362C42.575 5.92 44.304 5.088 45.448 3.84ZM44.954 11.965C45.448 12.472 45.929 13.018 46.371 13.603C47.814 12.979 48.945 12.082 49.777 10.938H45.929C44.785 11.484 43.433 11.9 41.86 12.173L41.301 11.341C44.135 11.055 46.228 10.184 47.58 8.754L48.386 9.196C48.074 9.508 47.749 9.807 47.385 10.08H50.947V10.821C49.101 13.889 45.669 15.475 40.625 15.592L40.248 14.695C42.276 14.682 44.031 14.435 45.5 13.941C45.058 13.356 44.603 12.823 44.122 12.355L44.954 11.965Z" fill="#7A7B7D"/>
<path d="M61.9165 9.49781C61.9165 9.71076 61.8413 9.88735 61.6758 10.0536L57.8148 13.9645C57.6894 14.0996 57.529 14.1671 57.3434 14.1671C56.9674 14.1671 56.6665 13.8554 56.6665 13.4659C56.6665 13.2685 56.7417 13.0971 56.8771 12.9569L60.3069 9.49262L56.8771 6.03871C56.7417 5.89848 56.6665 5.72189 56.6665 5.52971C56.6665 5.14018 56.9674 4.83374 57.3434 4.83374C57.534 4.83374 57.6894 4.89607 57.8148 5.03111L61.6758 8.94207C61.8413 9.10827 61.9115 9.28486 61.9165 9.49781Z" fill="#7A7B7D"/>
</svg>
