<svg width="44" height="45" viewBox="0 0 44 45" fill="none" xmlns="http://www.w3.org/2000/svg">
<circle cx="22" cy="22" r="22" fill="black" fill-opacity="0.14"/>
<path fill-rule="evenodd" clip-rule="evenodd" d="M31.9343 31.6359L34.9539 18.163C35.0228 17.8395 35.0143 17.5003 34.9295 17.1818C34.8446 16.8634 34.6865 16.5778 34.4722 16.3556C34.2578 16.1334 33.9953 15.9831 33.7129 15.9208C33.4304 15.8585 33.1386 15.8865 32.8688 16.0019L27.8655 18.2346C27.8149 18.2574 27.7594 18.2607 27.707 18.2442C27.6546 18.2276 27.6082 18.192 27.5746 18.1426L23.2414 11.7051C23.0951 11.4856 22.9074 11.308 22.6927 11.1858C22.4779 11.0636 22.2419 11 22.0027 11C21.7634 11 21.5274 11.0636 21.3127 11.1858C21.0979 11.308 20.9102 11.4856 20.764 11.7051L16.4307 18.1426C16.3971 18.192 16.3507 18.2276 16.2984 18.2442C16.246 18.2607 16.1904 18.2574 16.1398 18.2346L11.1365 16.0019C10.8666 15.8812 10.5732 15.8493 10.2887 15.9095C10.0041 15.9698 9.73942 16.12 9.5238 16.3435C9.30817 16.567 9.14996 16.8551 9.06662 17.1762C8.98328 17.4972 8.97803 17.8387 9.05146 18.163L12.0711 31.6359C12.1589 32.026 12.3558 32.3715 12.6309 32.6183C12.9061 32.8651 13.244 32.9993 13.5919 33H30.4135C30.7614 32.9993 31.0993 32.8651 31.3744 32.6183C31.6496 32.3715 31.8464 32.026 31.9343 31.6359ZM18 27C17.4477 27 17 27.4477 17 28C17 28.5523 17.4477 29 18 29H26C26.5523 29 27 28.5523 27 28C27 27.4477 26.5523 27 26 27H18Z" fill="#8C95A3"/>
<g clip-path="url(#clip0_48_5275)">
<path d="M42.3478 36.5072H41.9131V34.913C41.9131 32.7553 40.1579 31 38.0001 31C35.8423 31 34.087 32.7553 34.087 34.913V36.5072H33.6521C32.9329 36.5072 32.3478 37.0923 32.3478 37.8116V43.029C32.3478 43.7482 32.9329 44.3333 33.6521 44.3333H42.3478C43.067 44.3333 43.6521 43.7482 43.6521 43.029V37.8116C43.6521 37.0923 43.067 36.5072 42.3478 36.5072ZM38.4347 40.7749V42.1594C38.4347 42.3995 38.2401 42.5942 37.9999 42.5942C37.7598 42.5942 37.5651 42.3996 37.5651 42.1594V40.7749C37.0598 40.5951 36.696 40.1179 36.6956 39.5507C36.6962 38.8302 37.2794 38.247 37.9999 38.2464C38.7204 38.247 39.3037 38.8302 39.3043 39.5507C39.3038 40.1179 38.94 40.5951 38.4347 40.7749ZM40.174 36.5072H35.8262V34.913C35.8262 33.714 36.801 32.7391 38.0001 32.7391C39.1991 32.7391 40.174 33.714 40.174 34.913V36.5072H40.174Z" fill="#94B2D4"/>
</g>
<defs>
<clipPath id="clip0_48_5275">
<rect width="12" height="13.3333" fill="white" transform="translate(32 31)"/>
</clipPath>
</defs>
</svg>
