<svg width="356" height="41" viewBox="0 0 356 41" fill="none" xmlns="http://www.w3.org/2000/svg">
<rect width="356" height="41" rx="20.5" fill="url(#paint0_linear_48_5285)"/>
<path d="M143.14 13.122H157.396V14.94H154.57V19.08H158.296V20.898H154.57V28.62H152.68V20.898H148.018C147.838 22.662 147.478 24.156 146.956 25.362C146.254 26.874 145.102 28.044 143.5 28.854L142.474 27.252C143.932 26.406 144.904 25.344 145.408 24.084C145.732 23.184 145.966 22.122 146.11 20.898H142.222V19.08H146.236C146.236 18.972 146.254 18.882 146.254 18.774V14.94H143.14V13.122ZM148.162 14.94V18.774C148.162 18.882 148.144 18.972 148.144 19.08H152.68V14.94H148.162ZM162.252 12.366C163.44 13.32 164.466 14.274 165.294 15.21L163.98 16.506C163.278 15.606 162.27 14.616 160.974 13.572L162.252 12.366ZM172.512 28.584C171.522 28.584 170.442 28.566 169.29 28.548C168.12 28.53 167.166 28.422 166.41 28.242C165.69 28.026 165.06 27.612 164.52 27C164.268 26.694 164.052 26.55 163.854 26.55C163.494 26.55 162.882 27.342 161.982 28.962L160.596 27.684C161.496 26.244 162.288 25.326 163.008 24.93V19.998H160.632V18.27H164.754V25.11L164.952 25.308C165.366 25.776 165.78 26.136 166.212 26.37C166.734 26.64 167.526 26.784 168.588 26.82C169.632 26.838 170.838 26.856 172.242 26.856C173.142 26.856 174.042 26.838 174.978 26.838C175.896 26.802 176.598 26.766 177.084 26.73L176.634 28.584H172.512ZM169.326 14.274H165.924V12.726H175.878V14.04C174.852 14.904 173.754 15.66 172.566 16.29L172.602 16.326H176.238V24.3C176.238 25.416 175.626 25.992 174.402 25.992H173.052L172.638 24.444L173.88 24.498C174.276 24.498 174.474 24.3 174.474 23.922V23.166H172.062V26.082H170.334V23.166H167.994V26.1H166.23V16.326H170.226C169.668 15.966 169.056 15.588 168.372 15.21L169.326 14.274ZM171.432 15.426C172.116 15.066 172.746 14.688 173.34 14.274H169.74C170.352 14.67 170.928 15.048 171.432 15.426ZM167.994 20.52V21.654H170.334V20.52H167.994ZM172.062 20.52V21.654H174.474V20.52H172.062ZM174.474 19.008V17.874H172.062V19.008H174.474ZM170.334 19.008V17.874H167.994V19.008H170.334ZM186.566 12.168H187.934C190.184 14.634 192.776 16.578 195.728 17.982L194.702 19.818C193.658 19.278 192.686 18.666 191.768 18.018V19.314H182.786V17.946C181.832 18.612 180.806 19.242 179.726 19.836L178.718 18C181.868 16.452 184.478 14.508 186.566 12.168ZM183.326 17.55H191.156C189.68 16.452 188.384 15.228 187.25 13.86C186.134 15.192 184.838 16.434 183.326 17.55ZM179.96 21.15H194.576V22.986H186.206C185.45 24.39 184.568 25.632 183.56 26.676C185.99 26.532 188.366 26.334 190.67 26.064C190.148 25.416 189.59 24.75 188.996 24.066L190.454 23.148C192.092 24.912 193.352 26.46 194.252 27.756L192.686 28.854C192.38 28.386 192.056 27.9 191.714 27.432C188.924 27.864 185.45 28.206 181.274 28.458L180.77 26.82C181.22 26.712 181.544 26.532 181.742 26.316C182.642 25.254 183.398 24.138 184.028 22.986H179.96V21.15ZM212.014 18.63V25.488H210.142V20.34H201.376V25.776H199.504V18.63H212.014ZM200.566 12.708H210.952V17.622H200.566V12.708ZM209.134 16.002V14.364H202.384V16.002H209.134ZM204.958 21.186L206.866 21.366C206.614 24.102 206.056 25.902 205.192 26.784C204.292 27.9 202.096 28.638 198.568 28.962L197.83 27.252C200.71 27.108 202.618 26.586 203.554 25.686C204.364 24.822 204.832 23.31 204.958 21.186ZM207.226 25.218C209.548 25.83 211.672 26.55 213.616 27.414L212.608 28.98C210.556 27.972 208.45 27.18 206.29 26.604L207.226 25.218Z" fill="#201500"/>
<defs>
<linearGradient id="paint0_linear_48_5285" x1="0" y1="20.5" x2="356" y2="20.5" gradientUnits="userSpaceOnUse">
<stop stop-color="#FCF4DC"/>
<stop offset="1" stop-color="#FBD779"/>
</linearGradient>
</defs>
</svg>
