<svg width="44" height="44" viewBox="0 0 44 44" fill="none" xmlns="http://www.w3.org/2000/svg">
<circle cx="22" cy="22" r="22" fill="white" fill-opacity="0.14"/>
<path fill-rule="evenodd" clip-rule="evenodd" d="M10.4501 11C8.93129 11 7.70007 12.2312 7.70007 13.75V29.3333C7.70007 30.8521 8.93129 32.0833 10.4501 32.0833H21.8737C22.4812 32.0833 22.9737 31.5908 22.9737 30.9833V19.25C22.9737 17.7312 24.2049 16.5 25.7237 16.5H34.2834C34.8909 16.5 35.3834 16.0075 35.3834 15.4V13.75C35.3834 12.2312 34.1522 11 32.6334 11H10.4501ZM24.75 19.9834C24.75 18.9709 25.5708 18.1501 26.5834 18.1501H34.4667C35.4792 18.1501 36.3 18.9709 36.3 19.9834V31.1668C36.3 32.1793 35.4792 33.0001 34.4667 33.0001H26.5834C25.5708 33.0001 24.75 32.1793 24.75 31.1668V19.9834ZM12.1 27.5C11.4925 27.5 11 27.9925 11 28.6C11 29.2075 11.4925 29.7 12.1 29.7H16.5C17.1075 29.7 17.6 29.2075 17.6 28.6C17.6 27.9925 17.1075 27.5 16.5 27.5H12.1Z" fill="url(#paint0_linear_48_5246)"/>
<defs>
<linearGradient id="paint0_linear_48_5246" x1="22.0001" y1="11" x2="22.0001" y2="32.9999" gradientUnits="userSpaceOnUse">
<stop stop-color="#F4FAFF"/>
<stop offset="1" stop-color="#FFF8BB"/>
</linearGradient>
</defs>
</svg>
