<svg width="24" height="24" viewBox="0 0 24 24" fill="none" xmlns="http://www.w3.org/2000/svg">
<mask id="path-1-outside-1_48_5318" maskUnits="userSpaceOnUse" x="2" y="3" width="20" height="18" fill="black">
<rect fill="white" x="2" y="3" width="20" height="18"/>
<path d="M19.7644 10.71C19.4247 11.2443 18.9941 11.6498 18.3799 11.784C18.2137 11.8208 18.1927 11.9526 18.1587 12.0914C18.0026 12.7192 17.8415 13.3463 17.6833 13.9741C17.3913 15.1347 17.1059 16.2976 16.8067 17.4559C16.5437 18.4716 15.9006 18.9944 14.9171 18.9967C12.9805 19.0013 11.0439 19.0013 9.10735 18.9952C8.08342 18.9921 7.47064 18.5253 7.20328 17.4866C6.74876 15.7211 6.24799 13.9672 5.89102 12.1742C5.8679 12.0576 5.81371 11.9381 5.70748 11.866C5.42783 11.6996 5.10483 11.6383 4.8418 11.4229C4.05054 10.7774 3.82292 9.86522 4.13437 8.91313C4.43786 7.9871 5.318 7.41523 6.22848 7.50722C7.12957 7.59844 7.84929 8.30523 8.02488 9.27189C8.08269 9.59002 8.50542 9.82766 8.91225 9.69044C9.3263 9.55092 9.75192 9.416 10.1024 9.10554C10.291 8.93842 10.33 8.83417 10.1768 8.5858C9.31835 7.18985 10.1074 5.2803 11.6271 5.03423C12.5361 4.88705 13.2797 5.21438 13.7783 6.01852C14.2848 6.83646 14.3275 7.72339 13.8144 8.56587C13.6504 8.83494 13.7118 8.95299 13.9055 9.11244C14.4149 9.53329 14.993 9.68891 15.6289 9.63601C15.8305 9.61915 15.9533 9.54326 15.9649 9.29182C16.0126 8.2485 17.254 7.34854 18.2895 7.51335C19.4825 7.70346 20.2622 9.1615 19.9183 10.3183C19.8995 10.375 19.88 10.4317 19.8612 10.4884C19.8294 10.562 19.7976 10.6356 19.7658 10.7085L19.7644 10.71ZM12.1026 14.5306C11.9732 14.4662 11.9472 14.3459 11.8966 14.2478C11.5107 13.498 11.1285 12.746 10.7426 11.9963C10.5974 11.7142 10.3856 11.5778 10.0865 11.7188C9.83429 11.8376 9.77215 12.1427 9.93979 12.4747C10.4933 13.5701 11.0468 14.6648 11.6162 15.751C11.8677 16.2301 12.2731 16.2232 12.5332 15.751C12.7334 15.3884 12.914 15.0128 13.1041 14.6441C13.4719 13.9273 13.8404 13.2113 14.2082 12.4954C14.3202 12.2769 14.339 12.063 14.188 11.853C14.0587 11.672 13.8831 11.6644 13.6995 11.7111C13.5167 11.7587 13.4415 11.9281 13.3606 12.0845C12.9401 12.9001 12.5209 13.7165 12.1011 14.5314L12.1026 14.5306Z"/>
</mask>
<path d="M19.7644 10.71C19.4247 11.2443 18.9941 11.6498 18.3799 11.784C18.2137 11.8208 18.1927 11.9526 18.1587 12.0914C18.0026 12.7192 17.8415 13.3463 17.6833 13.9741C17.3913 15.1347 17.1059 16.2976 16.8067 17.4559C16.5437 18.4716 15.9006 18.9944 14.9171 18.9967C12.9805 19.0013 11.0439 19.0013 9.10735 18.9952C8.08342 18.9921 7.47064 18.5253 7.20328 17.4866C6.74876 15.7211 6.24799 13.9672 5.89102 12.1742C5.8679 12.0576 5.81371 11.9381 5.70748 11.866C5.42783 11.6996 5.10483 11.6383 4.8418 11.4229C4.05054 10.7774 3.82292 9.86522 4.13437 8.91313C4.43786 7.9871 5.318 7.41523 6.22848 7.50722C7.12957 7.59844 7.84929 8.30523 8.02488 9.27189C8.08269 9.59002 8.50542 9.82766 8.91225 9.69044C9.3263 9.55092 9.75192 9.416 10.1024 9.10554C10.291 8.93842 10.33 8.83417 10.1768 8.5858C9.31835 7.18985 10.1074 5.2803 11.6271 5.03423C12.5361 4.88705 13.2797 5.21438 13.7783 6.01852C14.2848 6.83646 14.3275 7.72339 13.8144 8.56587C13.6504 8.83494 13.7118 8.95299 13.9055 9.11244C14.4149 9.53329 14.993 9.68891 15.6289 9.63601C15.8305 9.61915 15.9533 9.54326 15.9649 9.29182C16.0126 8.2485 17.254 7.34854 18.2895 7.51335C19.4825 7.70346 20.2622 9.1615 19.9183 10.3183C19.8995 10.375 19.88 10.4317 19.8612 10.4884C19.8294 10.562 19.7976 10.6356 19.7658 10.7085L19.7644 10.71ZM12.1026 14.5306C11.9732 14.4662 11.9472 14.3459 11.8966 14.2478C11.5107 13.498 11.1285 12.746 10.7426 11.9963C10.5974 11.7142 10.3856 11.5778 10.0865 11.7188C9.83429 11.8376 9.77215 12.1427 9.93979 12.4747C10.4933 13.5701 11.0468 14.6648 11.6162 15.751C11.8677 16.2301 12.2731 16.2232 12.5332 15.751C12.7334 15.3884 12.914 15.0128 13.1041 14.6441C13.4719 13.9273 13.8404 13.2113 14.2082 12.4954C14.3202 12.2769 14.339 12.063 14.188 11.853C14.0587 11.672 13.8831 11.6644 13.6995 11.7111C13.5167 11.7587 13.4415 11.9281 13.3606 12.0845C12.9401 12.9001 12.5209 13.7165 12.1011 14.5314L12.1026 14.5306Z" stroke="white" stroke-width="2.6" mask="url(#path-1-outside-1_48_5318)"/>
</svg>
