<svg width="20" height="20" viewBox="0 0 20 20" fill="none" xmlns="http://www.w3.org/2000/svg">
<g clip-path="url(#clip0_48_5403)">
<path d="M15.5193 6.40307C15.3861 6.27362 15.1992 6.21479 15.0163 6.24487C14.8331 6.27483 14.6748 6.38987 14.5898 6.55495C14.2975 7.12288 13.9262 7.64479 13.4893 8.10616C13.5328 7.77288 13.5548 7.4376 13.5548 7.10143C13.5548 6.45639 13.4683 5.7926 13.2977 5.12827C12.7369 2.9462 11.2662 1.10084 9.26284 0.0654147C9.08843 -0.0247025 8.88062 -0.0215384 8.70901 0.0738522C8.53741 0.169282 8.42503 0.344243 8.40964 0.539946C8.25347 2.52291 7.23206 4.32698 5.60577 5.49073C5.58425 5.50623 5.56288 5.52194 5.54151 5.53756C5.49726 5.56995 5.45554 5.60057 5.41655 5.62627C5.41046 5.63034 5.4044 5.63448 5.39847 5.63873C4.37565 6.37104 3.53171 7.34721 2.95776 8.46202C2.37456 9.59596 2.07886 10.8128 2.07886 12.0786C2.07886 12.7235 2.1653 13.3872 2.33581 14.0517C3.23562 17.5539 6.38733 19.9999 10.0002 19.9999C14.3678 19.9999 17.9211 16.4464 17.9211 12.0786C17.9211 9.92471 17.0682 7.90909 15.5193 6.40307Z" fill="url(#paint0_linear_48_5403)"/>
</g>
<defs>
<linearGradient id="paint0_linear_48_5403" x1="10" y1="-2.5" x2="10" y2="20" gradientUnits="userSpaceOnUse">
<stop stop-color="#EF456D"/>
<stop offset="1" stop-color="#E6852C"/>
</linearGradient>
<clipPath id="clip0_48_5403">
<rect width="20" height="20" fill="white"/>
</clipPath>
</defs>
</svg>
