<svg width="43" height="15" viewBox="0 0 43 15" fill="none" xmlns="http://www.w3.org/2000/svg">
<path d="M0.609863 0.150391H40.4968C41.4519 0.150391 42.2261 0.924625 42.2261 1.87969V13.1201C42.2261 14.0752 41.4519 14.8494 40.4968 14.8494H0.609863V0.150391Z" fill="#FBE8B5"/>
<path d="M0.609863 1.87969C0.609863 0.924626 1.3841 0.150391 2.33916 0.150391H15.3089V14.8494H0.609863V1.87969Z" fill="#3A2B28"/>
<path d="M7.39427 5.69612H4.59L8.51598 12.2555L13.5637 2.74438H11.0398L8.51598 7.66395L7.39427 5.69612Z" fill="#FBEBBD"/>
<path d="M4.02915 4.38424L3.18787 2.74438H5.99214L6.83342 4.38424H4.02915Z" fill="#FBEBBD"/>
<path d="M19.5569 4.76069H23.2092C23.057 4.24708 22.8953 3.78104 22.7241 3.36255L23.5135 3.22939C23.6657 3.67641 23.8084 4.19002 23.951 4.76069H27.5177V5.42647H19.5569V4.76069ZM19.2335 10.7337H23.951C24.5312 9.4687 25.0353 7.88034 25.4728 5.97811L26.1957 6.16834C25.8057 7.88034 25.3206 9.40213 24.7309 10.7337H27.8411V11.3995H19.2335V10.7337ZM21.6018 6.01616C22.0203 7.25261 22.3912 8.66026 22.7146 10.2581L21.9822 10.4388C21.6969 8.99315 21.326 7.59501 20.8884 6.25394L21.6018 6.01616ZM32.8483 5.97811H34.7315V6.5678H32.8483V5.97811ZM32.9053 7.3287H34.7505V10.1345H32.9053V7.3287ZM34.2369 9.62088V7.8423H33.419V9.62088H34.2369ZM36.881 5.9686L37.4612 6.21589C37.1759 7.54745 36.7764 8.67928 36.2723 9.59235C36.3484 9.91573 36.434 10.1916 36.5291 10.4293C36.7383 10.9239 36.9286 11.1902 37.0998 11.2092C37.2234 11.1997 37.2995 10.6291 37.3185 9.49724L37.8797 9.75404C37.8702 11.1617 37.6229 11.875 37.1473 11.875C36.8144 11.875 36.5101 11.6087 36.2247 11.0856C36.0916 10.8573 35.9775 10.572 35.8728 10.2296C35.3782 10.9334 34.8076 11.4851 34.1608 11.875L33.7518 11.3519C34.5127 10.9144 35.1405 10.2676 35.6541 9.43066C35.559 9.05973 35.4829 8.65075 35.4068 8.21323C35.2451 7.2431 35.1405 6.2254 35.0834 5.15064H32.3727V7.79474C32.3347 9.51626 31.9733 10.8954 31.2789 11.9321L30.7749 11.4851C31.4026 10.6005 31.726 9.37359 31.7545 7.79474V4.5134H35.0454C35.0263 4.08539 35.0263 3.65739 35.0263 3.22939H35.6636C35.6636 3.65739 35.6731 4.08539 35.6921 4.5134H36.6623C36.5101 4.17099 36.3389 3.85713 36.1487 3.57179L36.7098 3.47668C36.881 3.78104 37.0427 4.13295 37.1949 4.5134H37.6514V5.15064H35.7207C35.7587 5.98762 35.8253 6.8246 35.9299 7.6711C35.9679 8.0135 36.0155 8.33688 36.0726 8.63172C36.415 7.86132 36.6908 6.97678 36.881 5.9686ZM29.7381 3.61935C30.3373 4.41828 30.7939 5.12211 31.1077 5.72131L30.5656 6.10176C30.2232 5.46451 29.7667 4.75117 29.177 3.97126L29.7381 3.61935ZM30.6512 7.50941L31.2409 7.74719C30.8034 9.15484 30.3088 10.4769 29.7762 11.7133L29.1389 11.428C29.7191 10.1535 30.2232 8.84097 30.6512 7.50941Z" fill="#504240"/>
</svg>
