<svg width="65" height="15" viewBox="0 0 65 15" fill="none" xmlns="http://www.w3.org/2000/svg">
<path d="M0 14.8494L4.33915 10.6943L4.25685 14.8494H0Z" fill="#EB472C"/>
<path d="M2.60986 0.150391H62.4968C63.4519 0.150391 64.2261 0.924625 64.2261 1.87969V13.1201C64.2261 14.0752 63.4519 14.8494 62.4968 14.8494H2.60986V0.150391Z" fill="#FFE3E3"/>
<path d="M2.60986 1.87969C2.60986 0.924626 3.3841 0.150391 4.33916 0.150391H17.3089V14.8494H2.60986V1.87969Z" fill="#EB472C"/>
<path d="M9.39427 5.69612H6.59L10.516 12.2555L15.5637 2.74438H13.0398L10.516 7.66395L9.39427 5.69612Z" fill="white" fill-opacity="0.8"/>
<path d="M6.02915 4.38424L5.18787 2.74438H7.99214L8.83342 4.38424H6.02915Z" fill="white" fill-opacity="0.8"/>
<path d="M21.5664 3.60984H24.4863V4.16148C24.201 5.01749 23.8586 5.90202 23.4591 6.83412C24.0678 7.6711 24.4007 8.43199 24.4388 9.11679C24.4388 9.52577 24.3341 9.82062 24.1439 10.0013C23.8776 10.2201 23.402 10.3342 22.7172 10.3437L22.489 9.64942C22.6412 9.66844 22.7648 9.68746 22.8599 9.68746C23.2118 9.66844 23.4496 9.62088 23.5732 9.54479C23.6874 9.45919 23.754 9.31653 23.754 9.11679C23.754 8.47003 23.4211 7.73768 22.7553 6.93874C23.2023 5.94958 23.5542 5.05553 23.8015 4.26611H22.2322V11.9606H21.5664V3.60984ZM25.6086 5.98762V7.06238H28.4144V5.98762H25.6086ZM28.4144 5.35989V4.26611H25.6086V5.35989H28.4144ZM26.7024 7.69012H25.6086V10.9429C26.1793 10.7717 26.75 10.553 27.3111 10.2962L27.4633 10.9334C26.7785 11.2283 25.9225 11.5136 24.8858 11.7894L24.7241 11.1997C24.8573 11.1522 24.9333 11.0761 24.9333 10.981V3.61935H29.0802V7.69012H27.3206C27.4348 8.25128 27.625 8.77439 27.9008 9.24995C28.3574 8.99315 28.8044 8.6127 29.2324 8.0991L29.6794 8.54612C29.2419 9.05973 28.7568 9.45919 28.2147 9.73502C28.6522 10.3342 29.2229 10.8478 29.9457 11.2758L29.5653 11.875C27.9864 10.8668 27.0258 9.4687 26.7024 7.69012ZM34.2301 3.94273V10.9524H33.5643V10.3152H32.1566V11.1807H31.4908V3.94273H34.2301ZM32.1566 9.67795H33.5643V7.38576H32.1566V9.67795ZM32.1566 6.74852H33.5643V4.57046H32.1566V6.74852ZM35.5997 6.77705C36.1894 7.6711 36.6459 8.45101 36.9598 9.11679L36.3891 9.51626C36.0562 8.80292 35.6092 8.00399 35.0385 7.12896L35.5997 6.77705ZM37.7682 11.856H36.1038L35.9611 11.1902C36.5127 11.2092 37.0358 11.2283 37.5399 11.2283C37.8158 11.2283 37.9584 11.0761 37.9584 10.7812V5.63571H34.6676V4.97944H37.9584V3.30548H38.6527V4.97944H39.8226V5.63571H38.6527V10.9524C38.6527 11.5516 38.3579 11.856 37.7682 11.856ZM42.3189 6.03518C42.0716 6.21589 41.8243 6.38709 41.577 6.54878L41.1395 6.02567C42.3379 5.30282 43.3175 4.36122 44.0879 3.18183L44.7727 3.34352C44.6206 3.59081 44.4589 3.82859 44.2877 4.05686H47.569V4.57997C47.1695 5.07455 46.7796 5.49304 46.3896 5.83544H48.7199V8.71732H46.5513V10.6576C46.5513 10.9715 46.6845 11.1332 46.9603 11.1332H48.4916C48.6628 11.1332 48.7769 11.0666 48.853 10.9524C48.9481 10.8003 49.0052 10.3723 49.0337 9.65893L49.69 9.86817C49.6234 10.7812 49.5093 11.3424 49.3381 11.5421C49.1859 11.7133 48.9481 11.7989 48.6152 11.7989H46.7511C46.1614 11.7989 45.8665 11.466 45.8665 10.8003V8.71732H45.3719C45.3054 8.89804 45.2293 9.06924 45.1532 9.24044C44.6396 10.3437 43.4507 11.2473 41.6055 11.9606L41.168 11.4185C42.8229 10.8098 43.9262 10.0394 44.4589 9.1263C44.5254 8.99315 44.5825 8.85048 44.6396 8.71732H42.3189V6.03518ZM45.5146 5.83544C45.9141 5.50256 46.2945 5.12211 46.675 4.6846H43.7836C43.4126 5.10309 43.0132 5.48353 42.5757 5.83544H45.5146ZM48.0636 8.07057V6.47269H45.7524C45.7334 7.05287 45.6763 7.5855 45.5622 8.07057H48.0636ZM44.8488 8.07057C44.9725 7.5855 45.0486 7.05287 45.0676 6.47269H42.9846V8.07057H44.8488ZM52.6142 5.41695L52.4621 6.01616H53.8697C53.9268 5.82593 53.9648 5.6262 53.9743 5.41695H52.6142ZM54.6401 5.41695C54.6211 5.6262 54.5926 5.82593 54.5545 6.01616H56.0287V5.41695H54.6401ZM56.6945 5.41695V6.01616H59.253C59.253 6.71998 59.1769 7.1575 59.0343 7.33821C58.8916 7.54745 58.5587 7.65207 58.0451 7.65207C57.8929 7.65207 57.7408 7.64256 57.6076 7.64256L57.4744 7.1575C57.6456 7.16701 57.8073 7.17652 57.9595 7.17652C58.2544 7.17652 58.4351 7.12896 58.5112 7.03385C58.5682 6.94825 58.5968 6.78656 58.6063 6.53927H56.6945V7.62354H56.0287V6.53927H54.3643C54.2407 6.77705 54.0885 6.98629 53.9173 7.16701C53.6129 7.45234 53.1944 7.69012 52.6428 7.88034H58.4826V10.4674H57.8073V8.48906H53.1469V10.4674H52.4716V7.93741C52.2338 8.0135 51.9865 8.08008 51.7392 8.13714L51.3968 7.59501C52.367 7.38576 53.0327 7.10994 53.4037 6.76754C53.4702 6.69145 53.5368 6.61536 53.5939 6.53927H51.7202L52.0531 4.87482H53.9743V4.26611H51.8058V3.70495H53.9743V3.21037H54.6401V3.70495H56.0287V3.21037H56.6945V3.70495H58.7965V5.41695H56.6945ZM54.6401 4.26611V4.87482H56.0287V4.26611H54.6401ZM56.6945 4.26611V4.87482H58.1497V4.26611H56.6945ZM55.9907 10.3342C57.2176 10.6291 58.34 10.9905 59.3577 11.428L58.9867 11.9987C57.9024 11.5041 56.7896 11.1236 55.6483 10.8478L55.9907 10.3342ZM55.1062 8.82195L55.791 8.88852C55.6673 9.9728 55.382 10.6956 54.935 11.0761C54.4404 11.5421 53.3466 11.837 51.6346 11.9606L51.3588 11.3519C52.871 11.2758 53.8697 11.0571 54.3548 10.6766C54.7828 10.3057 55.0301 9.68746 55.1062 8.82195Z" fill="#FF3C11"/>
</svg>
