<svg width="66" height="19" viewBox="0 0 66 19" fill="none" xmlns="http://www.w3.org/2000/svg">
<path d="M11.999 5.27V8.182H11.05V6.18H1.924V8.182H0.975V5.27H5.967C5.811 4.828 5.655 4.425 5.473 4.061L6.526 3.879C6.695 4.295 6.864 4.75 7.02 5.27H11.999ZM2.834 7.688H10.114V8.598H2.834V7.688ZM0.845 10.132H12.168V11.029H8.489V14.11C8.489 14.5 8.671 14.708 9.048 14.708H10.777C11.011 14.708 11.167 14.617 11.258 14.448C11.362 14.253 11.44 13.668 11.492 12.68L12.376 12.966C12.298 14.214 12.142 14.981 11.908 15.241C11.7 15.475 11.388 15.605 10.946 15.605H8.749C7.943 15.605 7.553 15.163 7.553 14.305V11.029H5.369V11.12C5.33 12.394 4.979 13.421 4.329 14.201C3.679 14.903 2.626 15.462 1.17 15.865L0.637 15.033C2.054 14.669 3.042 14.188 3.614 13.577C4.134 12.953 4.407 12.134 4.446 11.12V11.029H0.845V10.132ZM14.17 5.946H16.263V5.218H13.702V4.49H16.263V3.879H17.095V4.49H19.513V5.218H17.095V5.946H19.188V8.208H17.095V8.416C17.862 8.728 18.642 9.079 19.422 9.482L18.941 10.197C18.213 9.69 17.589 9.3 17.095 9.04V10.379H16.263V8.897C15.496 9.547 14.716 10.067 13.91 10.47L13.507 9.716C14.417 9.404 15.327 8.897 16.25 8.208H14.17V5.946ZM18.434 7.571V6.596H17.095V7.571H18.434ZM16.263 7.571V6.596H14.924V7.571H16.263ZM21.229 5.751C21.138 5.933 21.047 6.102 20.969 6.258C21.346 7.012 21.84 7.636 22.438 8.156L22.503 8.091C23.01 7.506 23.348 6.726 23.504 5.751H21.229ZM21.788 8.676C21.268 8.195 20.826 7.649 20.475 7.051C20.293 7.298 20.098 7.532 19.903 7.753L19.357 7.064C20.163 6.18 20.709 5.088 20.995 3.814L21.827 3.918C21.749 4.282 21.645 4.62 21.541 4.945H25.09V5.751H24.336C24.154 6.921 23.764 7.87 23.166 8.598L23.114 8.65C23.751 9.066 24.479 9.404 25.311 9.651L24.83 10.392C23.92 10.106 23.14 9.716 22.464 9.222C21.827 9.664 20.995 10.041 19.981 10.327L19.656 9.56C20.54 9.326 21.242 9.027 21.788 8.676ZM18.941 11.64H14.378V10.821H24.648V11.64H19.877V12.745H23.855V13.551H19.877V14.682H25.272V15.514H13.728V14.682H15.808V12.238H16.666V14.682H18.941V11.64ZM26.676 6.258H28.34V3.879H29.25V6.258H30.628V7.168H29.25V8.117C29.77 8.741 30.29 9.443 30.81 10.197L30.29 10.99C29.887 10.21 29.536 9.586 29.25 9.118V15.761H28.34V9.261C27.963 10.483 27.482 11.601 26.884 12.615L26.481 11.588C27.339 10.288 27.95 8.819 28.314 7.168H26.676V6.258ZM31.187 4.997H34.19C34.034 4.62 33.878 4.269 33.696 3.957L34.632 3.801C34.801 4.152 34.957 4.555 35.113 4.997H38.051V5.829H36.764C36.647 6.349 36.491 6.869 36.309 7.363H38.103V9.326H37.206V8.195H32.006V9.378H31.109V7.363H32.981C32.825 6.791 32.656 6.284 32.474 5.829H31.187V4.997ZM35.412 7.363C35.62 6.869 35.763 6.362 35.867 5.829H33.41C33.566 6.297 33.722 6.804 33.865 7.363H35.412ZM31.057 10.002H34.294C34.138 9.56 33.956 9.157 33.774 8.793L34.697 8.637C34.879 9.04 35.048 9.495 35.204 10.002H38.298V10.86H33.969C33.943 11.276 33.904 11.679 33.826 12.056H37.427C37.427 13.941 37.232 15.046 36.855 15.371C36.699 15.501 36.452 15.605 36.14 15.67C35.88 15.709 35.607 15.735 35.347 15.735H34.593L34.346 14.903H35.503C35.841 14.903 36.088 14.825 36.231 14.695C36.387 14.552 36.478 13.941 36.517 12.875H33.605C33.137 14.188 32.279 15.202 31.018 15.904L30.524 15.124C32.123 14.266 32.981 12.849 33.085 10.86H31.057V10.002ZM40.963 5.907H46.566C46.982 5.257 47.359 4.542 47.684 3.788L48.594 4.113C48.282 4.776 47.931 5.374 47.541 5.907H50.037V11.25H45.968V12.485H51.272V13.369H45.968V15.839H45.032V13.369H39.728V12.485H45.032V11.25H40.963V5.907ZM49.127 10.418V8.962H45.968V10.418H49.127ZM45.032 10.418V8.962H41.873V10.418H45.032ZM41.873 8.156H45.032V6.726H41.873V8.156ZM45.968 6.726V8.156H49.127V6.726H45.968ZM43.264 3.853C43.693 4.347 44.096 4.906 44.486 5.504L43.706 5.894C43.316 5.27 42.913 4.724 42.471 4.23L43.264 3.853Z" fill="white" fill-opacity="0.6"/>
<path d="M61.9165 9.49781C61.9165 9.71076 61.8413 9.88735 61.6758 10.0536L57.8148 13.9645C57.6894 14.0996 57.529 14.1671 57.3434 14.1671C56.9674 14.1671 56.6665 13.8554 56.6665 13.4659C56.6665 13.2685 56.7417 13.0971 56.8771 12.9569L60.3069 9.49262L56.8771 6.03871C56.7417 5.89848 56.6665 5.72189 56.6665 5.52971C56.6665 5.14018 56.9674 4.83374 57.3434 4.83374C57.534 4.83374 57.6894 4.89607 57.8148 5.03111L61.6758 8.94207C61.8413 9.10827 61.9115 9.28486 61.9165 9.49781Z" fill="white" fill-opacity="0.6"/>
</svg>
