<svg width="24" height="24" viewBox="0 0 24 24" fill="none" xmlns="http://www.w3.org/2000/svg">
<path d="M3.64286 8.78571C3.81335 8.78571 3.97687 8.71798 4.09743 8.59743C4.21798 8.47687 4.28571 8.31335 4.28571 8.14286V4.92857C4.28571 4.75808 4.35344 4.59456 4.474 4.474C4.59456 4.35344 4.75808 4.28571 4.92857 4.28571H8.46429C8.63478 4.28571 8.7983 4.21798 8.91885 4.09743C9.03941 3.97687 9.10714 3.81335 9.10714 3.64286C9.10714 3.47236 9.03941 3.30885 8.91885 3.18829C8.7983 3.06773 8.63478 3 8.46429 3H4.92857C4.41708 3 3.92654 3.20319 3.56487 3.56487C3.20319 3.92654 3 4.41708 3 4.92857V8.14286C3 8.31335 3.06773 8.47687 3.18829 8.59743C3.30885 8.71798 3.47236 8.78571 3.64286 8.78571Z" fill="#37393C" stroke="#37393C" stroke-width="0.4"/>
<path d="M19.0714 3H15.5357C15.3652 3 15.2017 3.06773 15.0811 3.18829C14.9606 3.30885 14.8928 3.47236 14.8928 3.64286C14.8928 3.81335 14.9606 3.97687 15.0811 4.09743C15.2017 4.21798 15.3652 4.28571 15.5357 4.28571H19.0714C19.2419 4.28571 19.4054 4.35344 19.526 4.474C19.6465 4.59456 19.7143 4.75808 19.7143 4.92857V8.14286C19.7143 8.31335 19.782 8.47687 19.9025 8.59743C20.0231 8.71798 20.1866 8.78571 20.3571 8.78571C20.5276 8.78571 20.6911 8.71798 20.8117 8.59743C20.9322 8.47687 21 8.31335 21 8.14286V4.92857C21 4.41708 20.7968 3.92654 20.4351 3.56487C20.0734 3.20319 19.5829 3 19.0714 3Z" fill="#37393C" stroke="#37393C" stroke-width="0.4"/>
<path d="M20.3571 15.2144C20.1866 15.2144 20.0231 15.2821 19.9025 15.4026C19.782 15.5232 19.7143 15.6867 19.7143 15.8572V19.0715C19.7143 19.242 19.6465 19.4055 19.526 19.5261C19.4054 19.6466 19.2419 19.7144 19.0714 19.7144H15.5357C15.3652 19.7144 15.2017 19.7821 15.0811 19.9026C14.9606 20.0232 14.8928 20.1867 14.8928 20.3572C14.8928 20.5277 14.9606 20.6912 15.0811 20.8118C15.2017 20.9323 15.3652 21.0001 15.5357 21.0001H19.0714C19.5829 21.0001 20.0734 20.7969 20.4351 20.4352C20.7968 20.0735 21 19.583 21 19.0715V15.8572C21 15.6867 20.9322 15.5232 20.8117 15.4026C20.6911 15.2821 20.5276 15.2144 20.3571 15.2144Z" fill="#37393C" stroke="#37393C" stroke-width="0.4"/>
<path d="M8.46429 19.7144H4.92857C4.75808 19.7144 4.59456 19.6466 4.474 19.5261C4.35344 19.4055 4.28571 19.242 4.28571 19.0715V15.8572C4.28571 15.6867 4.21798 15.5232 4.09743 15.4026C3.97687 15.2821 3.81335 15.2144 3.64286 15.2144C3.47236 15.2144 3.30885 15.2821 3.18829 15.4026C3.06773 15.5232 3 15.6867 3 15.8572V19.0715C3 19.583 3.20319 20.0735 3.56487 20.4352C3.92654 20.7969 4.41708 21.0001 4.92857 21.0001H8.46429C8.63478 21.0001 8.7983 20.9323 8.91885 20.8118C9.03941 20.6912 9.10714 20.5277 9.10714 20.3572C9.10714 20.1867 9.03941 20.0232 8.91885 19.9026C8.7983 19.7821 8.63478 19.7144 8.46429 19.7144Z" fill="#37393C" stroke="#37393C" stroke-width="0.4"/>
<path d="M20.3571 11.3572H3.64286C3.47236 11.3572 3.30885 11.4249 3.18829 11.5455C3.06773 11.666 3 11.8295 3 12C3 12.1705 3.06773 12.334 3.18829 12.4546C3.30885 12.5752 3.47236 12.6429 3.64286 12.6429H20.3571C20.5276 12.6429 20.6912 12.5752 20.8117 12.4546C20.9323 12.334 21 12.1705 21 12C21 11.8295 20.9323 11.666 20.8117 11.5455C20.6912 11.4249 20.5276 11.3572 20.3571 11.3572Z" fill="#37393C" stroke="#37393C" stroke-width="0.4"/>
</svg>
