<svg width="24" height="25" viewBox="0 0 24 25" fill="none" xmlns="http://www.w3.org/2000/svg">
<path fill-rule="evenodd" clip-rule="evenodd" d="M3.45455 12.5C3.45455 17.2195 7.28048 21.0455 12 21.0455C16.7195 21.0455 20.5455 17.2195 20.5455 12.5C20.5455 7.78048 16.7195 3.95455 12 3.95455C7.28048 3.95455 3.45455 7.78048 3.45455 12.5ZM12 2.5C6.47715 2.5 2 6.97715 2 12.5C2 18.0228 6.47715 22.5 12 22.5C17.5228 22.5 22 18.0228 22 12.5C22 6.97715 17.5228 2.5 12 2.5Z" fill="url(#paint0_linear_13_1635)"/>
<path fill-rule="evenodd" clip-rule="evenodd" d="M17.2389 9.56433C17.5361 9.88212 17.5246 10.3856 17.2133 10.689L13.2058 14.5939C12.9047 14.8874 12.4309 14.8874 12.1298 14.5939L10.4415 12.9488L7.86266 15.4617C7.55136 15.765 7.05812 15.7533 6.76098 15.4355C6.46383 15.1178 6.4753 14.6142 6.7866 14.3109L9.90345 11.2738C10.2046 10.9804 10.6784 10.9804 10.9795 11.2738L12.6678 12.9189L16.1372 9.53817C16.4485 9.23484 16.9418 9.24655 17.2389 9.56433Z" fill="url(#paint1_linear_13_1635)"/>
<defs>
<linearGradient id="paint0_linear_13_1635" x1="12" y1="2.5" x2="12" y2="22.5" gradientUnits="userSpaceOnUse">
<stop stop-color="#64B23B"/>
<stop offset="1" stop-color="#26BD6C"/>
</linearGradient>
<linearGradient id="paint1_linear_13_1635" x1="12" y1="9.31812" x2="12" y2="15.6818" gradientUnits="userSpaceOnUse">
<stop stop-color="#64B23B"/>
<stop offset="1" stop-color="#26BD6C"/>
</linearGradient>
</defs>
</svg>
