<svg width="24" height="24" viewBox="0 0 24 24" fill="none" xmlns="http://www.w3.org/2000/svg">
<g clip-path="url(#clip0_13_1050)">
<path fill-rule="evenodd" clip-rule="evenodd" d="M14.2812 2.15057C17.7804 3.00306 20.3929 6.30435 20.4167 10.2492V17.8547H21.2163C21.6517 17.8547 22.0079 18.2392 22 18.6988C22 19.1585 21.6438 19.5346 21.2004 19.5346L15.5163 19.5095C15.16 20.9471 13.925 22.0001 12.4525 22.0001C10.98 22.0001 9.73708 20.9303 9.38875 19.4928H5.375C5.29583 19.4928 5.22458 19.4845 5.14542 19.4594H3.78375C3.34833 19.4427 3 19.0666 3 18.6069C3 18.1472 3.35625 17.7711 3.79167 17.7711H4.58333V10.2492C4.60708 6.32943 7.18792 3.04485 10.6475 2.16729C10.6475 2.16729 12.0487 1.79955 14.2812 2.15057ZM14.8354 17.8213H18.8333V10.2576C18.8175 6.58852 15.9833 3.61317 12.5 3.61317C9.01667 3.61317 6.19042 6.58852 6.16667 10.2576V17.7878L12.5 17.8213H14.8354ZM11.0908 19.4928C11.3679 19.9943 11.8746 20.3286 12.4604 20.3286C13.0463 20.3286 13.5529 19.9943 13.83 19.5012H12.5H11.0908V19.4928Z" fill="#37393C"/>
</g>
<defs>
<clipPath id="clip0_13_1050">
<rect width="19" height="20" fill="white" transform="translate(3 2)"/>
</clipPath>
</defs>
</svg>
