<svg width="24" height="25" viewBox="0 0 24 25" fill="none" xmlns="http://www.w3.org/2000/svg">
<path fill-rule="evenodd" clip-rule="evenodd" d="M21.5 16.2203L17.5 15.4203V18C17.5 18.8284 16.8284 19.5 16 19.5H5C4.17157 19.5 3.5 18.8284 3.5 18V7C3.5 6.17157 4.17157 5.5 5 5.5H16C16.8284 5.5 17.5 6.17157 17.5 7V9.62971L21.5 8.82971V16.2203ZM16 4C17.4113 4 18.595 4.97451 18.9148 6.28733C18.9705 6.51576 19 6.75443 19 7V7.8L21.8039 7.23922C22.4227 7.11546 23 7.58876 23 8.2198V16.8302C23 17.4612 22.4227 17.9345 21.8039 17.8108L19 17.25V18C19 18.2627 18.9662 18.5175 18.9028 18.7603C18.5662 20.049 17.3942 21 16 21H5C3.34315 21 2 19.6569 2 18V7C2 5.34315 3.34315 4 5 4H16ZM6.43939 8C5.64444 8 5 8.64444 5 9.43939C5 10.2343 5.64444 10.8788 6.43939 10.8788C7.23434 10.8788 7.87878 10.2343 7.87878 9.43939C7.87878 8.64444 7.23434 8 6.43939 8Z" fill="url(#paint0_linear_13_1649)"/>
<defs>
<linearGradient id="paint0_linear_13_1649" x1="12.5" y1="4" x2="12.5" y2="21" gradientUnits="userSpaceOnUse">
<stop stop-color="#59B89A"/>
<stop offset="1" stop-color="#39AF97"/>
</linearGradient>
</defs>
</svg>
