<svg width="18" height="18" viewBox="0 0 18 18" fill="none" xmlns="http://www.w3.org/2000/svg">
<path d="M11.9165 8.99757C11.9165 9.21051 11.8413 9.3871 11.6758 9.55331L7.81478 13.4643C7.68943 13.5993 7.52897 13.6668 7.34344 13.6668C6.96736 13.6668 6.6665 13.3552 6.6665 12.9657C6.6665 12.7683 6.74172 12.5969 6.87711 12.4567L10.3069 8.99237L6.87711 5.53847C6.74172 5.39823 6.6665 5.22164 6.6665 5.02947C6.6665 4.63993 6.96736 4.3335 7.34344 4.3335C7.53398 4.3335 7.68943 4.39582 7.81478 4.53086L11.6758 8.44182C11.8413 8.60803 11.9115 8.78462 11.9165 8.99757Z" fill="#98703D"/>
</svg>
