<svg width="24" height="25" viewBox="0 0 24 25" fill="none" xmlns="http://www.w3.org/2000/svg">
<path fill-rule="evenodd" clip-rule="evenodd" d="M5.05789 4H19.212C20.8983 4 22.2699 5.45279 22.2699 7.23891V18.5842C22.2699 20.3703 20.8983 21.8231 19.212 21.8231H5.05789C3.37159 21.8231 2 20.3703 2 18.5842V7.23891C2 5.45279 3.37159 4 5.05789 4ZM16.7255 14.5349H20.7446V11.2882H16.7255C15.8805 11.2882 15.1928 12.0166 15.1928 12.9115C15.1928 13.8065 15.8805 14.5349 16.7255 14.5349ZM16.7255 9.67264H20.7446V7.23891C20.7446 6.34394 20.0569 5.61555 19.212 5.61555H5.05789C4.21294 5.61555 3.52525 6.34398 3.52525 7.23891V18.5842C3.52525 19.4792 4.21297 20.2076 5.05789 20.2076H19.212C20.0569 20.2076 20.7446 19.4791 20.7446 18.5842V16.1505H16.7255C15.0392 16.1505 13.6676 14.6977 13.6676 12.9115C13.6676 11.1254 15.0392 9.67264 16.7255 9.67264ZM22.081 7.23886C22.081 6.80687 21.9955 6.39564 21.8414 6.02318C21.9955 6.39565 22.081 6.8069 22.081 7.23891V18.5842C22.081 20.2599 20.794 21.6231 19.212 21.6231H5.05789C4.64508 21.6231 4.25236 21.5303 3.89735 21.3633C4.25235 21.5302 4.64506 21.623 5.05784 21.623H19.2119C20.794 21.623 22.081 20.2598 22.081 18.5841V7.23886ZM15.004 12.9115C15.004 13.3497 15.1506 13.7522 15.3947 14.067C15.1506 13.7522 15.004 13.3497 15.004 12.9115C15.004 11.9061 15.7762 11.0882 16.7255 11.0882H20.9334V11.0881H16.7254C15.7762 11.0881 15.004 11.9061 15.004 12.9115ZM19.2119 5.4155C19.4789 5.4155 19.7319 5.48021 19.9576 5.5956C19.7319 5.48023 19.4789 5.41555 19.212 5.41555H5.05789C4.10866 5.41555 3.33643 6.23353 3.33643 7.23891V18.5842C3.33643 19.0106 3.47532 19.4033 3.7077 19.7141C3.47529 19.4032 3.33639 19.0106 3.33639 18.5841V7.23886C3.33639 6.23348 4.10861 5.4155 5.05784 5.4155H19.2119ZM20.9334 15.9504V15.9505H16.7255C16.0508 15.9505 15.4298 15.7025 14.9393 15.2881C15.4297 15.7025 16.0508 15.9504 16.7254 15.9504H20.9334ZM5.77111 7.19995C5.35689 7.19995 5.02111 7.53574 5.02111 7.94995C5.02111 8.36416 5.35689 8.69995 5.77111 8.69995H8.04754C8.46176 8.69995 8.79754 8.36416 8.79754 7.94995C8.79754 7.53574 8.46176 7.19995 8.04754 7.19995H5.77111Z" fill="url(#paint0_linear_13_1492)"/>
<defs>
<linearGradient id="paint0_linear_13_1492" x1="12.1349" y1="4" x2="12.1349" y2="21.8231" gradientUnits="userSpaceOnUse">
<stop stop-color="#58BF38"/>
<stop offset="1" stop-color="#47AE77"/>
</linearGradient>
</defs>
</svg>
