<svg width="24" height="25" viewBox="0 0 24 25" fill="none" xmlns="http://www.w3.org/2000/svg">
<path d="M12 11.1V16.5M21 12C21 16.9706 16.9706 21 12 21C7.02944 21 3 16.9706 3 12C3 7.02944 7.02944 3 12 3C16.9706 3 21 7.02944 21 12Z" stroke="url(#paint0_linear_21_1750)" stroke-width="1.5" stroke-linecap="round"/>
<path d="M12.9 8.4C12.9 8.89706 12.497 9.3 12 9.3C11.5029 9.3 11.1 8.89706 11.1 8.4C11.1 7.90294 11.5029 7.5 12 7.5C12.497 7.5 12.9 7.90294 12.9 8.4Z" fill="url(#paint1_linear_21_1750)"/>
<defs>
<linearGradient id="paint0_linear_21_1750" x1="12" y1="3" x2="12" y2="21" gradientUnits="userSpaceOnUse">
<stop stop-color="#3EB1A2"/>
<stop offset="1" stop-color="#43A1A3"/>
</linearGradient>
<linearGradient id="paint1_linear_21_1750" x1="12" y1="7.5" x2="12" y2="9.3" gradientUnits="userSpaceOnUse">
<stop stop-color="#3EB1A2"/>
<stop offset="1" stop-color="#43A1A3"/>
</linearGradient>
</defs>
</svg>
