<svg width="24" height="25" viewBox="0 0 24 25" fill="none" xmlns="http://www.w3.org/2000/svg">
<path d="M15.5904 15.6038C16.0619 15.761 16.5716 15.5062 16.7288 15.0346C16.886 14.5631 16.6312 14.0534 16.1596 13.8962L15.5904 15.6038ZM12.5 13.625H11.6C11.6 14.0124 11.8479 14.3563 12.2154 14.4788L12.5 13.625ZM13.4 8.92087C13.4 8.42381 12.9971 8.02087 12.5 8.02087C12.0029 8.02087 11.6 8.42381 11.6 8.92087H13.4ZM16.1596 13.8962L12.7846 12.7712L12.2154 14.4788L15.5904 15.6038L16.1596 13.8962ZM13.4 13.625V8.92087H11.6V13.625H13.4ZM20.6 12.5C20.6 16.9735 16.9735 20.6 12.5 20.6V22.4C17.9676 22.4 22.4 17.9676 22.4 12.5H20.6ZM12.5 20.6C8.02649 20.6 4.4 16.9735 4.4 12.5H2.6C2.6 17.9676 7.03238 22.4 12.5 22.4V20.6ZM4.4 12.5C4.4 8.02649 8.02649 4.4 12.5 4.4V2.6C7.03238 2.6 2.6 7.03238 2.6 12.5H4.4ZM12.5 4.4C16.9735 4.4 20.6 8.02649 20.6 12.5H22.4C22.4 7.03238 17.9676 2.6 12.5 2.6V4.4Z" fill="url(#paint0_linear_13_1470)"/>
<defs>
<linearGradient id="paint0_linear_13_1470" x1="12.5" y1="3.5" x2="12.5" y2="21.5" gradientUnits="userSpaceOnUse">
<stop stop-color="#79B34C"/>
<stop offset="1" stop-color="#34BB6F"/>
</linearGradient>
</defs>
</svg>
