<svg width="24" height="25" viewBox="0 0 24 25" fill="none" xmlns="http://www.w3.org/2000/svg">
<path fill-rule="evenodd" clip-rule="evenodd" d="M3.66667 16.3704V5.25933C3.66667 5.11199 3.7252 4.97068 3.82938 4.86649C3.93357 4.76231 4.07488 4.70378 4.22222 4.70378H19.7778C19.9251 4.70378 20.0664 4.76231 20.1706 4.86649C20.2748 4.97068 20.3333 5.11199 20.3333 5.25933V16.3704C20.3333 16.4434 20.319 16.5156 20.291 16.583C20.2631 16.6504 20.2222 16.7117 20.1706 16.7633C20.119 16.8149 20.0578 16.8558 19.9904 16.8837C19.923 16.9116 19.8507 16.926 19.7778 16.926H15.8889C15.4576 16.926 15.0323 17.0264 14.6466 17.2193C14.2609 17.4121 13.9254 17.6921 13.6667 18.0371L12 20.2593L10.3333 18.0371C10.0746 17.6921 9.73907 17.4121 9.35337 17.2193C8.96767 17.0264 8.54235 16.926 8.11111 16.926H4.22222C4.07488 16.926 3.93357 16.8675 3.82938 16.7633C3.7252 16.6591 3.66667 16.5178 3.66667 16.3704ZM15.392 18.71C15.2377 18.7871 15.1035 18.8991 15 19.0371L12.8889 21.8519C12.7854 21.9899 12.6512 22.1019 12.4969 22.179C12.3426 22.2562 12.1725 22.2963 12 22.2963C11.8275 22.2963 11.6574 22.2562 11.5031 22.179C11.3488 22.1019 11.2146 21.9899 11.1111 21.8519L9 19.0371C8.8965 18.8991 8.7623 18.7871 8.60802 18.71C8.45373 18.6328 8.28361 18.5927 8.11111 18.5927H4.22222C3.63285 18.5927 3.06762 18.3585 2.65087 17.9418C2.23413 17.525 2 16.9598 2 16.3704V5.25933C2 4.66996 2.23413 4.10473 2.65087 3.68798C3.06762 3.27124 3.63285 3.03711 4.22222 3.03711H19.7778C20.3671 3.03711 20.9324 3.27124 21.3491 3.68798C21.7659 4.10473 22 4.66996 22 5.25933V16.3704C22 16.6623 21.9425 16.9512 21.8308 17.2209C21.7192 17.4905 21.5555 17.7354 21.3491 17.9418C21.1428 18.1481 20.8978 18.3118 20.6282 18.4235C20.3586 18.5352 20.0696 18.5927 19.7778 18.5927H15.8889C15.7164 18.5927 15.5463 18.6328 15.392 18.71ZM7.81908 12.2465C7.38246 12.1009 6.91053 12.3369 6.76499 12.7735C6.61945 13.2101 6.85541 13.6821 7.29203 13.8276L7.31039 13.8337C9.00378 14.3982 12.5924 15.5945 16.7727 13.803C17.1957 13.6217 17.3917 13.1318 17.2104 12.7088C17.0291 12.2857 16.5392 12.0898 16.1162 12.2711C12.5338 13.8064 9.4667 12.7957 7.81908 12.2465Z" fill="url(#paint0_linear_21_1731)"/>
<defs>
<linearGradient id="paint0_linear_21_1731" x1="12" y1="3.03711" x2="12" y2="22.2963" gradientUnits="userSpaceOnUse">
<stop stop-color="#37BF8D"/>
<stop offset="1" stop-color="#379E8B"/>
</linearGradient>
</defs>
</svg>
