<svg width="24" height="25" viewBox="0 0 24 25" fill="none" xmlns="http://www.w3.org/2000/svg">
<g clip-path="url(#clip0_13_1510)">
<path fill-rule="evenodd" clip-rule="evenodd" d="M4.0365 6.11013C3.72996 6.4438 3.5 6.99382 3.5 7.83006V9.73314V18.1711C3.5 19.0077 3.72991 19.5577 4.03631 19.8912C4.33669 20.2182 4.78491 20.4189 5.3985 20.4189H18.8215C19.4282 20.4189 19.8018 20.2243 20.0432 19.9263C20.3054 19.6026 20.5 19.0471 20.5 18.1711V17.2861C20.5 17.0385 20.3582 16.8811 20.2374 16.8368L20.2372 16.8367C18.7835 16.3035 17.8535 14.7192 17.8535 13.0006C17.8535 11.2818 18.7836 9.69857 20.2366 9.16463C20.3587 9.11973 20.5 8.96206 20.5 8.71502V7.83006C20.5 6.95373 20.3054 6.39823 20.0432 6.07463C19.8019 5.77678 19.4284 5.58228 18.8215 5.58228H5.3985C4.78532 5.58228 4.33703 5.783 4.0365 6.11013ZM2.93188 5.09534C3.56222 4.4092 4.43818 4.08228 5.3985 4.08228H18.8215C19.7886 4.08228 20.6293 4.41515 21.2088 5.13042C21.7674 5.81995 22 6.76335 22 7.83006V8.71502C22 9.51884 21.5313 10.2866 20.7544 10.5724L20.7541 10.5725C20.0203 10.8421 19.3535 11.7611 19.3535 13.0006C19.3535 14.2403 20.0205 15.1595 20.7538 15.4285C21.5318 15.7138 22 16.483 22 17.2861V18.1711C22 19.2376 21.7673 20.1809 21.2088 20.8705C20.6294 21.5858 19.7888 21.9189 18.8215 21.9189H5.3985C4.43809 21.9189 3.56206 21.5922 2.93169 20.906C2.30734 20.2264 2 19.2775 2 18.1711V9.73314V7.83006C2 6.72381 2.30754 5.77494 2.93188 5.09534ZM7 10.2C7 9.64767 7.44772 9.19995 8 9.19995H14C14.5523 9.19995 15 9.64767 15 10.2C15 10.7522 14.5523 11.2 14 11.2H8C7.44772 11.2 7 10.7522 7 10.2ZM8 14.6001C7.44772 14.6001 7 15.0478 7 15.6001C7 16.1524 7.44772 16.6001 8 16.6001H14C14.5523 16.6001 15 16.1524 15 15.6001C15 15.0478 14.5523 14.6001 14 14.6001H8Z" fill="url(#paint0_linear_13_1510)"/>
</g>
<defs>
<linearGradient id="paint0_linear_13_1510" x1="12" y1="4.08228" x2="12" y2="21.9189" gradientUnits="userSpaceOnUse">
<stop stop-color="#35B2B4"/>
<stop offset="1" stop-color="#479AB8"/>
</linearGradient>
<clipPath id="clip0_13_1510">
<rect width="20" height="18" fill="white" transform="translate(2 4)"/>
</clipPath>
</defs>
</svg>
