<svg width="18" height="23" viewBox="0 0 18 23" fill="none" xmlns="http://www.w3.org/2000/svg">
<path d="M12.75 11.4971C12.75 11.7709 12.6533 11.998 12.4405 12.2117L7.47636 17.2401C7.31519 17.4137 7.10888 17.5005 6.87034 17.5005C6.38682 17.5005 6 17.0998 6 16.599C6 16.3452 6.0967 16.1249 6.27077 15.9446L10.6805 11.4905L6.27077 7.04974C6.0967 6.86944 6 6.64239 6 6.39531C6 5.89448 6.38682 5.50049 6.87034 5.50049C7.11533 5.50049 7.31519 5.58062 7.47636 5.75424L12.4405 10.7826C12.6533 10.9963 12.7436 11.2234 12.75 11.4971Z" fill="#9C9C9C"/>
</svg>
