<svg width="18" height="19" viewBox="0 0 18 19" fill="none" xmlns="http://www.w3.org/2000/svg">
<circle cx="9" cy="9.5" r="8.5" fill="url(#paint0_linear_29_4399)" stroke="url(#paint1_linear_29_4399)"/>
<path d="M2.54 6.788H3.556L5.124 11.444H5.148L6.716 6.788H7.732L5.7 12.5H4.572L2.54 6.788ZM8.33344 6.788H9.26944V12.5H8.33344V6.788ZM10.3881 6.788H12.7561C14.1321 6.788 14.8281 7.372 14.8281 8.54C14.8281 9.716 14.1321 10.308 12.7401 10.308H11.3241V12.5H10.3881V6.788ZM11.3241 7.588V9.508H12.6841C13.1001 9.508 13.4041 9.428 13.5961 9.284C13.7881 9.132 13.8841 8.884 13.8841 8.54C13.8841 8.196 13.7801 7.956 13.5881 7.812C13.3961 7.66 13.0921 7.588 12.6841 7.588H11.3241Z" fill="#B05200"/>
<defs>
<linearGradient id="paint0_linear_29_4399" x1="3.5" y1="2" x2="16" y2="22" gradientUnits="userSpaceOnUse">
<stop stop-color="#FFD600"/>
<stop offset="1" stop-color="#F1831E"/>
</linearGradient>
<linearGradient id="paint1_linear_29_4399" x1="5.5" y1="1.5" x2="9" y2="18.5" gradientUnits="userSpaceOnUse">
<stop stop-color="#FFE36F"/>
<stop offset="1" stop-color="#FBB724"/>
</linearGradient>
</defs>
</svg>
