<svg width="24" height="24" viewBox="0 0 24 24" fill="none" xmlns="http://www.w3.org/2000/svg">
<path fill-rule="evenodd" clip-rule="evenodd" d="M15.7034 6.64322C18.219 9.19327 18.219 13.3277 15.7034 15.8778C13.1879 18.4278 9.10943 18.4278 6.5939 15.8778C4.07837 13.3277 4.07837 9.19327 6.5939 6.64322C9.10943 4.09317 13.1879 4.09317 15.7034 6.64322ZM17.7716 16.0751C20.0609 12.8473 19.774 8.32202 16.9107 5.41944C13.7284 2.19352 8.56895 2.19352 5.38669 5.41944C2.20444 8.64536 2.20444 13.8756 5.38669 17.1015C8.33441 20.0897 12.9786 20.3099 16.1764 17.7622L19.033 20.658C19.483 21.1142 20.2127 21.1142 20.6627 20.658C21.1127 20.2018 21.1127 19.4621 20.6627 19.0059L17.7716 16.0751Z" fill="#00DC5A"/>
</svg>
