<svg width="24" height="25" viewBox="0 0 24 25" fill="none" xmlns="http://www.w3.org/2000/svg">
<path fill-rule="evenodd" clip-rule="evenodd" d="M11.6925 7.30596C10.7624 6.48129 9.64667 5.64871 8.51297 5.02299C7.50536 4.46686 6.41834 4.03722 5.39327 3.96396C4.3449 3.88904 3.31879 4.19107 2.59339 5.12614C2.36263 5.38461 2.19596 5.74336 2.10094 6.09795C1.99851 6.48022 1.95598 6.94319 2.06013 7.40638C2.16735 7.88326 2.43128 8.35635 2.92006 8.69915C3.39854 9.03472 4.02584 9.19905 4.78455 9.19907C5.99792 9.19911 7.38941 9.40382 8.69546 9.6472C8.02032 9.94193 7.35752 10.3368 6.75063 10.8621C4.87239 12.4878 3.68311 15.223 4.10988 19.6132C4.04811 19.5996 3.98798 19.586 3.92953 19.5726C3.52587 19.4797 3.12333 19.7316 3.03045 20.1353C2.93757 20.539 3.18951 20.9415 3.59317 21.0344C6.85505 21.7849 15.1125 22.8402 22.152 21.0298C22.5531 20.9267 22.7947 20.5178 22.6915 20.1167C22.5884 19.7155 22.1795 19.4739 21.7784 19.5771C21.7243 19.591 21.6702 19.6047 21.6161 19.6182C22.0442 15.2251 20.8548 12.4884 18.9758 10.8621C17.7014 9.75912 16.1805 9.2309 14.8166 8.99819C15.5243 8.51419 16.2917 7.93359 16.9459 7.31841C17.6771 6.63084 18.3904 5.78872 18.6043 4.90304C18.7189 4.4284 18.6953 3.91716 18.4333 3.43589C18.1787 2.96826 17.7445 2.61281 17.1973 2.34406C16.684 2.09201 16.1721 1.97452 15.6694 2.00462C15.165 2.03481 14.717 2.21076 14.3296 2.47394C13.5791 2.9838 13.0381 3.83216 12.6366 4.68071C12.2459 5.50634 11.9359 6.45706 11.6925 7.30596ZM20.07 19.9548C14.7936 20.9436 9.06834 20.4747 5.65062 19.9071C5.12918 15.5795 6.26996 13.262 7.73229 11.9963C9.27533 10.6608 11.3549 10.3356 12.8632 10.3356C14.3716 10.3356 16.4511 10.6608 17.9941 11.9963C19.4618 13.2666 20.6056 15.5965 20.07 19.9548ZM12.9425 8.42315C13.1963 7.46281 13.5199 6.32103 13.9924 5.32226C14.3571 4.5516 14.7564 3.9974 15.1725 3.71472C15.3684 3.58163 15.5603 3.51383 15.759 3.50194C15.9593 3.48995 16.2135 3.53205 16.5361 3.69046C16.9064 3.87232 17.0559 4.04297 17.1159 4.15317C17.1685 4.24973 17.1904 4.36804 17.1462 4.5509C17.0425 4.98023 16.621 5.56488 15.9183 6.22566C14.9881 7.10037 13.7796 7.91411 12.9425 8.42315ZM7.78815 6.33624C8.8767 6.93704 9.9538 7.75538 10.8254 8.54288L10.7349 8.52419C10.2655 8.42722 9.73931 8.31851 9.16608 8.20947C7.78873 7.94745 6.20525 7.69912 4.7846 7.69907C4.2329 7.69905 3.93569 7.57932 3.78135 7.47107C3.63729 7.37004 3.56007 7.23954 3.52359 7.07733C3.48404 6.90141 3.49527 6.68978 3.54983 6.48619C3.60762 6.2705 3.69055 6.14808 3.71301 6.12438L3.74129 6.09453L3.76615 6.06176C4.11676 5.59951 4.60632 5.41155 5.28634 5.46014C6.00047 5.51118 6.86583 5.82719 7.78815 6.33624ZM9.8 15.6887H11.8995V17.6417H9.8V15.6887ZM17.1481 15.6887H15.0487V17.6417H17.1481V15.6887Z" fill="url(#paint0_linear_13_1501)"/>
<defs>
<linearGradient id="paint0_linear_13_1501" x1="12.3577" y1="2" x2="12.3577" y2="23.0299" gradientUnits="userSpaceOnUse">
<stop stop-color="#2BB07B"/>
<stop offset="1" stop-color="#2CB291"/>
</linearGradient>
</defs>
</svg>
