<svg width="24" height="25" viewBox="0 0 24 25" fill="none" xmlns="http://www.w3.org/2000/svg">
<path fill-rule="evenodd" clip-rule="evenodd" d="M19.2874 16.8145L17.3335 18.4626C16.9734 18.7654 16.436 18.7197 16.1323 18.3603C15.8294 18.0011 15.8753 17.4629 16.2345 17.16L18.1893 15.512C20.3457 13.6939 20.6205 10.4664 18.8025 8.30906C16.9837 6.15166 13.7561 5.87686 11.5987 7.69572L9.64492 9.34294C9.28559 9.64667 8.74738 9.60085 8.44457 9.24074C8.14169 8.88148 8.18751 8.34327 8.54677 8.04039L10.5006 6.39317C13.3765 3.96854 17.6805 4.33499 20.1051 7.21091C22.5297 10.0868 22.1633 14.3899 19.2874 16.8145ZM6.09772 5.71172L4.14057 7.35499C1.25975 9.7738 0.884615 14.077 3.30342 16.9578C5.72223 19.8386 10.0246 20.2137 12.9054 17.7949L14.8634 16.1517C15.2233 15.8487 15.2702 15.3114 14.9681 14.9507C14.6659 14.5908 14.1278 14.5439 13.7679 14.8461L11.8099 16.4901C9.64972 18.3038 6.42276 18.0225 4.60819 15.8623C2.79369 13.7012 3.07501 10.4742 5.23609 8.65975L7.19323 7.01648C7.55395 6.7144 7.60086 6.17629 7.29786 5.81634C6.9957 5.45647 6.45759 5.40956 6.09772 5.71172ZM8.93572 15.2168L15.4426 10.2424C15.817 9.95613 15.8884 9.42104 15.6021 9.04663C15.3163 8.67279 14.7808 8.6013 14.4069 8.8871L7.89951 13.862C7.52568 14.1478 7.45419 14.6834 7.73999 15.0572C8.02622 15.4316 8.56131 15.503 8.93572 15.2168ZM15.3902 9.77828C15.4665 9.61164 15.4505 9.4095 15.3314 9.25363C15.1599 9.02931 14.8382 8.98637 14.6139 9.15786L14.6139 9.15784C14.8382 8.98635 15.1599 9.02929 15.3314 9.2536C15.4506 9.40949 15.4665 9.61164 15.3902 9.77828ZM8.07371 14.16C8.08415 14.1505 8.09506 14.1414 8.10644 14.1327L8.07371 14.16Z" fill="url(#paint0_linear_13_1683)"/>
<defs>
<linearGradient id="paint0_linear_13_1683" x1="11.7087" y1="4.78955" x2="11.7087" y2="19.3896" gradientUnits="userSpaceOnUse">
<stop stop-color="#5DBEEA"/>
<stop offset="1" stop-color="#4478C0"/>
</linearGradient>
</defs>
</svg>
