<svg width="24" height="25" viewBox="0 0 24 25" fill="none" xmlns="http://www.w3.org/2000/svg">
<path fill-rule="evenodd" clip-rule="evenodd" d="M13.6977 3.45406L19.3023 6.68925V6.68857C20.3494 7.29364 21 8.42025 21 9.62972V16.1008C21 17.3102 20.3494 18.4369 19.3023 19.0419L13.6977 22.2778C13.1741 22.58 12.5867 22.7314 12 22.7314C11.4133 22.7314 10.8259 22.5807 10.3023 22.2778L4.69773 19.0426C3.65057 18.4375 3 17.3109 3 16.1015V9.63039C3 8.42093 3.65057 7.29432 4.69773 6.68925L10.3023 3.45406C11.3488 2.84899 12.6512 2.84831 13.6977 3.45406ZM18.6232 17.8657C19.2513 17.5031 19.6418 16.8267 19.6418 16.1015V9.62972C19.6418 8.90445 19.2513 8.22807 18.6232 7.86544L13.0186 4.62957C12.7042 4.44825 12.3524 4.35725 12 4.35725C11.6476 4.35725 11.2958 4.44825 10.9814 4.62957L5.37682 7.86544C4.74866 8.22807 4.35818 8.90445 4.35818 9.62972V16.1015C4.35818 16.8267 4.74866 17.5031 5.37682 17.8657L10.9814 21.1016C11.6102 21.4649 12.3898 21.4642 13.0186 21.1016L18.6232 17.8657ZM12 15C13.1046 15 14 14.1046 14 13C14 11.8954 13.1046 11 12 11C10.8954 11 10 11.8954 10 13C10 14.1046 10.8954 15 12 15Z" fill="url(#paint0_linear_21_1717)"/>
<defs>
<linearGradient id="paint0_linear_21_1717" x1="12" y1="3" x2="12" y2="22.7314" gradientUnits="userSpaceOnUse">
<stop stop-color="#5AAA39"/>
<stop offset="1" stop-color="#2EB968"/>
</linearGradient>
</defs>
</svg>
