<svg width="24" height="25" viewBox="0 0 24 25" fill="none" xmlns="http://www.w3.org/2000/svg">
<path d="M11.9069 18.4527C11.9652 18.4221 12.0348 18.4221 12.0931 18.4527L15.7121 20.3554C17.0326 21.0496 18.576 19.9283 18.3238 18.4579L17.6326 14.428C17.6215 14.3631 17.643 14.2969 17.6902 14.251L20.618 11.397C21.6864 10.3557 21.0968 8.54131 19.6204 8.32678L15.5742 7.73883C15.5091 7.72936 15.4528 7.68845 15.4236 7.62942L13.6141 3.96293C12.9539 2.62509 11.0461 2.62509 10.3859 3.96293L8.57636 7.62942C8.54722 7.68845 8.49091 7.72936 8.42577 7.73883L4.37956 8.32678C2.90316 8.54131 2.31364 10.3557 3.38197 11.397L6.30984 14.251C6.35698 14.2969 6.37849 14.3631 6.36736 14.428L5.67618 18.4579C5.42398 19.9283 6.96736 21.0496 8.28789 20.3554L11.9069 18.4527Z" stroke="url(#paint0_linear_13_1479)" stroke-width="1.6"/>
<defs>
<linearGradient id="paint0_linear_13_1479" x1="12" y1="2.5" x2="12" y2="22.5" gradientUnits="userSpaceOnUse">
<stop stop-color="#30AE7F"/>
<stop offset="1" stop-color="#43AD99"/>
</linearGradient>
</defs>
</svg>
