<svg width="24" height="24" viewBox="0 0 24 24" fill="none" xmlns="http://www.w3.org/2000/svg">
<path d="M15.834 9.27976L10.42 14.6938L7.63064 11.9044C7.25762 11.5314 6.65278 11.5314 6.27976 11.9044C5.90675 12.2774 5.90675 12.8823 6.27976 13.2553L9.74458 16.7201C9.93134 16.9069 10.1757 17 10.42 17C10.6644 17 10.9087 16.9069 11.0955 16.7201L17.1849 10.6306C17.5579 10.2576 17.5579 9.65278 17.1849 9.27976C16.8119 8.90675 16.2071 8.90675 15.834 9.27976Z" fill="#37393C"/>
<path d="M19.0714 2.91451H16.2114V2.16023C16.2114 1.72612 15.8598 1.37451 15.4257 1.37451C14.9916 1.37451 14.64 1.72612 14.64 2.16023V2.91451H9.25786V2.16023C9.25786 1.72612 8.90625 1.37451 8.47214 1.37451C8.03804 1.37451 7.68643 1.72612 7.68643 2.16023V2.91451H4.92857C2.76246 2.91451 1 4.67697 1 6.84308V18.9372C1 21.1033 2.76246 22.8658 4.92857 22.8658H19.0714C21.2375 22.8658 23 21.1033 23 18.9372V6.84308C23 4.67697 21.2375 2.91451 19.0714 2.91451ZM2.57143 7.63665V6.84308C2.57143 5.54322 3.62871 4.48594 4.92857 4.48594H7.68643V5.23973C7.68643 5.67384 8.03804 6.02545 8.47214 6.02545C8.90625 6.02545 9.25786 5.67384 9.25786 5.23973V4.48594H14.64V5.23973C14.64 5.67384 14.9916 6.02545 15.4257 6.02545C15.8598 6.02545 16.2114 5.67384 16.2114 5.23973V4.48594H19.0714C20.3713 4.48594 21.4286 5.54322 21.4286 6.84308V18.9372C21.4286 20.2371 20.3713 21.2943 19.0714 21.2943H4.92857C3.62871 21.2943 2.57143 20.2371 2.57143 18.9372V7.63665Z" fill="#37393C"/>
</svg>
