<svg width="24" height="25" viewBox="0 0 24 25" fill="none" xmlns="http://www.w3.org/2000/svg">
<path d="M12.7626 12.0361C13.4087 11.4066 13.861 10.5841 14.0601 9.67638C14.2593 8.76869 14.1959 7.81818 13.8785 6.94943C13.561 6.08068 13.0043 5.33423 12.2811 4.80792C11.558 4.28161 10.7023 4 9.82608 4C8.94991 4 8.09417 4.28161 7.37104 4.80792C6.64791 5.33423 6.09113 6.08068 5.77367 6.94943C5.45622 7.81818 5.3929 8.76869 5.59203 9.67638C5.79115 10.5841 6.24342 11.4066 6.88956 12.0361C5.44627 12.659 4.21023 13.7253 3.33931 15.099C2.46839 16.4727 2.0021 18.0913 2 19.7482C2 19.9936 2.09161 20.2288 2.25469 20.4023C2.41776 20.5758 2.63894 20.6733 2.86956 20.6733H16.7826C17.0132 20.6733 17.2344 20.5758 17.3975 20.4023C17.5606 20.2288 17.6522 19.9936 17.6522 19.7482C17.6501 18.0913 17.1838 16.4727 16.3129 15.099C15.4419 13.7253 14.2059 12.659 12.7626 12.0361ZM9.82608 5.87253C10.342 5.87253 10.8464 6.03529 11.2754 6.34023C11.7044 6.64516 12.0388 7.07858 12.2362 7.58567C12.4336 8.09276 12.4853 8.65075 12.3847 9.18907C12.284 9.72739 12.0355 10.2219 11.6707 10.61C11.3059 10.9981 10.8411 11.2624 10.335 11.3695C9.82898 11.4766 9.30446 11.4216 8.82778 11.2116C8.3511 11.0015 7.94368 10.6458 7.65703 10.1895C7.37039 9.73308 7.21739 9.19654 7.21739 8.64767C7.21739 7.91166 7.49223 7.20579 7.98146 6.68535C8.47068 6.16491 9.13421 5.87253 9.82608 5.87253ZM3.80087 18.8232C4.00893 17.281 4.73269 15.8703 5.8394 14.8499C6.9461 13.8295 8.36154 13.2678 9.82608 13.2678C11.2906 13.2678 12.7061 13.8295 13.8128 14.8499C14.9195 15.8703 15.6432 17.281 15.8513 18.8232H3.80087Z" fill="url(#paint0_linear_13_1668)"/>
<path d="M18.5017 11.1101C18.9235 10.612 19.2095 10.0008 19.3289 9.34256C19.4483 8.68427 19.3967 8.0038 19.1794 7.37444C18.9622 6.74508 18.5877 6.1907 18.0962 5.77103C17.6048 5.35135 17.015 5.08229 16.3904 4.99282C16.2752 4.97238 16.1572 4.97685 16.0437 5.00596C15.9301 5.03507 15.8232 5.08822 15.7294 5.16223C15.6356 5.23625 15.5567 5.32962 15.4976 5.43677C15.4384 5.54391 15.4002 5.66264 15.3851 5.78586C15.37 5.90909 15.3784 6.03428 15.4098 6.15397C15.4412 6.27365 15.495 6.38538 15.5679 6.48249C15.6408 6.57959 15.7313 6.66007 15.8341 6.71914C15.9368 6.7782 16.0497 6.81463 16.166 6.82626C16.5782 6.88891 16.9552 7.1076 17.228 7.44218C17.5008 7.77677 17.6509 8.20479 17.6509 8.64767C17.6509 9.09056 17.5008 9.51858 17.228 9.85317C16.9552 10.1878 16.5782 10.4064 16.166 10.4691C15.948 10.5004 15.7492 10.6185 15.6097 10.7995C15.4702 10.9806 15.4005 11.2111 15.4145 11.4447C15.4285 11.6783 15.5252 11.8976 15.6852 12.0583C15.8451 12.219 16.0564 12.3093 16.2765 12.3109C16.3125 12.3107 16.3485 12.3082 16.3843 12.3035C16.4689 12.3581 16.5619 12.3966 16.6591 12.4172C17.5207 12.575 18.3174 13.0061 18.9446 13.654C19.5718 14.302 20.0003 15.1365 20.1738 16.048H19.3912C19.1606 16.048 18.9394 16.1455 18.7764 16.319C18.6133 16.4925 18.5217 16.7277 18.5217 16.9731C18.5217 17.2184 18.6133 17.4537 18.7764 17.6272C18.9394 17.8007 19.1606 17.8981 19.3912 17.8981H21.1304C21.361 17.8981 21.5822 17.8007 21.7452 17.6272C21.9083 17.4537 21.9999 17.2184 21.9999 16.9731C22.0017 15.743 21.6735 14.5379 21.0538 13.4994C20.4342 12.4608 19.5488 11.632 18.5017 11.1101Z" fill="url(#paint1_linear_13_1668)"/>
<defs>
<linearGradient id="paint0_linear_13_1668" x1="9.82608" y1="4" x2="9.82608" y2="20.6733" gradientUnits="userSpaceOnUse">
<stop stop-color="#43AC9D"/>
<stop offset="1" stop-color="#4EA5B9"/>
</linearGradient>
<linearGradient id="paint1_linear_13_1668" x1="18.6889" y1="4.98022" x2="18.6889" y2="17.8981" gradientUnits="userSpaceOnUse">
<stop stop-color="#43AC9D"/>
<stop offset="1" stop-color="#4EA5B9"/>
</linearGradient>
</defs>
</svg>
