<svg width="56" height="23" viewBox="0 0 56 23" fill="none" xmlns="http://www.w3.org/2000/svg">
<rect width="56" height="23" rx="11.5" fill="url(#paint0_linear_13_271)"/>
<path d="M10.3333 11.4999H19.6666M14.9999 16.1666V11.4999L14.9999 6.83325" stroke="white" stroke-width="1.05" stroke-linecap="round"/>
<path d="M27.114 6.208C27.57 6.808 28.014 7.468 28.434 8.188L27.69 8.56H30.174C30.606 7.876 30.99 7.06 31.326 6.124L32.442 6.424C32.178 7.216 31.842 7.924 31.458 8.56H33.738V9.664H29.826V10.036C29.802 10.612 29.742 11.14 29.658 11.632H34.434V12.736H30.234C30.822 14.188 32.322 15.328 34.734 16.168L34.062 17.248C31.542 16.216 29.946 14.848 29.25 13.156C29.034 13.72 28.77 14.224 28.458 14.656C27.642 15.736 26.31 16.564 24.462 17.14L23.838 16.144C25.686 15.544 26.934 14.788 27.594 13.876C27.822 13.528 28.014 13.144 28.17 12.736H24.066V11.632H28.482C28.578 11.128 28.65 10.6 28.674 10.036V9.664H24.75V8.56H27.318C26.922 7.864 26.502 7.252 26.07 6.712L27.114 6.208ZM37.418 6.28C38.234 6.88 38.93 7.468 39.506 8.056L38.69 8.872C38.198 8.308 37.502 7.708 36.59 7.072L37.418 6.28ZM37.13 9.1C37.91 9.688 38.57 10.288 39.11 10.888L38.294 11.704C37.814 11.152 37.154 10.54 36.314 9.88L37.13 9.1ZM38.414 12.472L39.434 12.892C38.906 14.392 38.306 15.808 37.646 17.14L36.506 16.636C37.226 15.28 37.862 13.888 38.414 12.472ZM39.842 8.092H42.914C42.698 7.504 42.458 6.94 42.182 6.4L43.238 6.1C43.586 6.82 43.85 7.48 44.042 8.08L44.006 8.092H46.982V9.208H44.006V11.776H46.658V12.868H44.006V15.712H47.234V16.828H39.542V15.712H42.866V12.868H40.178V11.776H42.866V9.208H39.842V8.092Z" fill="white"/>
<defs>
<linearGradient id="paint0_linear_13_271" x1="-3.46731e-07" y1="32" x2="46" y2="-2.15881e-08" gradientUnits="userSpaceOnUse">
<stop stop-color="#1F9EC4"/>
<stop offset="1" stop-color="#1ED14A"/>
</linearGradient>
</defs>
</svg>
