<svg width="42" height="42" viewBox="0 0 42 42" fill="none" xmlns="http://www.w3.org/2000/svg">
<g filter="url(#filter0_d_13_282)">
<path fill-rule="evenodd" clip-rule="evenodd" d="M1.90906 27.8727V8.6227C1.90906 7.60162 2.31468 6.62236 3.0367 5.90034C3.75871 5.17833 4.73797 4.77271 5.75906 4.77271H36.559C37.5801 4.77271 38.5594 5.17833 39.2814 5.90034C40.0034 6.62236 40.409 7.60162 40.409 8.6227V27.8727C40.409 28.3783 40.3095 28.8789 40.116 29.346C39.9225 29.8131 39.6389 30.2375 39.2814 30.5951C38.9239 30.9526 38.4995 31.2361 38.0324 31.4296C37.5653 31.6231 37.0646 31.7227 36.559 31.7227H27.8965C27.5977 31.7227 27.303 31.7923 27.0357 31.9259C26.7684 32.0596 26.5359 32.2536 26.3565 32.4927L22.699 37.3693C22.5197 37.6084 22.2872 37.8024 22.0199 37.9361C21.7526 38.0697 21.4579 38.1393 21.159 38.1393C20.8602 38.1393 20.5655 38.0697 20.2982 37.9361C20.0309 37.8024 19.7984 37.6084 19.619 37.3693L15.9616 32.4927C15.7822 32.2536 15.5497 32.0596 15.2824 31.9259C15.0151 31.7923 14.7204 31.7227 14.4216 31.7227H5.75906C4.73797 31.7227 3.75871 31.3171 3.0367 30.5951C2.31468 29.873 1.90906 28.8938 1.90906 27.8727ZM11.7091 17.781C11.7091 16.9112 12.4142 16.206 13.2841 16.206H22.7341C23.6039 16.206 24.3091 16.9112 24.3091 17.781C24.3091 18.6509 23.6039 19.356 22.7341 19.356H13.2841C12.4142 19.356 11.7091 18.6509 11.7091 17.781ZM29.0341 16.206C28.1642 16.206 27.4591 16.9112 27.4591 17.781C27.4591 18.6509 28.1642 19.356 29.0341 19.356C29.9039 19.356 30.6091 18.6509 30.6091 17.781C30.6091 16.9112 29.9039 16.206 29.0341 16.206Z" fill="white" fill-opacity="0.8"/>
</g>
<defs>
<filter id="filter0_d_13_282" x="-0.477273" y="-0.477273" width="43.9091" height="43.9091" filterUnits="userSpaceOnUse" color-interpolation-filters="sRGB">
<feFlood flood-opacity="0" result="BackgroundImageFix"/>
<feColorMatrix in="SourceAlpha" type="matrix" values="0 0 0 0 0 0 0 0 0 0 0 0 0 0 0 0 0 0 127 0" result="hardAlpha"/>
<feOffset dx="0.477273" dy="0.477273"/>
<feGaussianBlur stdDeviation="0.477273"/>
<feColorMatrix type="matrix" values="0 0 0 0 0 0 0 0 0 0 0 0 0 0 0 0 0 0 0.25 0"/>
<feBlend mode="normal" in2="BackgroundImageFix" result="effect1_dropShadow_13_282"/>
<feBlend mode="normal" in="SourceGraphic" in2="effect1_dropShadow_13_282" result="shape"/>
</filter>
</defs>
</svg>
