<svg width="28" height="28" viewBox="0 0 28 28" fill="none" xmlns="http://www.w3.org/2000/svg">
<path d="M11.626 4.30422C11.2416 4.40032 11.0079 4.78981 11.104 5.17419C11.2001 5.55856 11.5896 5.79226 11.974 5.69617L11.626 4.30422ZM14 4.4502L14.5898 4.85854C14.7598 4.61297 14.7599 4.28775 14.59 4.0421C14.4201 3.79646 14.1158 3.68178 13.826 3.75422L14 4.4502ZM9.05 11.6002L8.86124 12.2923L9.35092 12.4259L9.63983 12.0085L9.05 11.6002ZM3 9.95019L3.18876 9.25808C2.9364 9.18926 2.66657 9.26324 2.48462 9.45117C2.30266 9.63909 2.23741 9.91116 2.31433 10.1612L3 9.95019ZM7.4 24.2502L6.71433 24.4612C6.80695 24.7622 7.08506 24.9676 7.4 24.9676V24.2502ZM21.15 24.2502V24.9676C21.4744 24.9676 21.7584 24.7499 21.8427 24.4367L21.15 24.2502ZM25 9.95019L25.6927 10.1367C25.7604 9.88539 25.6866 9.61715 25.5 9.43576C25.3134 9.25436 25.0431 9.18827 24.7939 9.26306L25 9.95019ZM19.5 11.6002L18.9261 12.0306L19.2265 12.4312L19.7061 12.2873L19.5 11.6002ZM16.7739 6.76976C16.5362 6.4528 16.0865 6.38856 15.7696 6.62628C15.4526 6.864 15.3884 7.31367 15.6261 7.63063L16.7739 6.76976ZM11.974 5.69617L14.174 5.14617L13.826 3.75422L11.626 4.30422L11.974 5.69617ZM13.4102 4.04185L8.46017 11.1918L9.63983 12.0085L14.5898 4.85854L13.4102 4.04185ZM9.23876 10.9081L3.18876 9.25808L2.81124 10.6423L8.86124 12.2923L9.23876 10.9081ZM2.31433 10.1612L6.71433 24.4612L8.08567 24.0392L3.68567 9.73922L2.31433 10.1612ZM7.4 24.9676H21.15V23.5328H7.4V24.9676ZM21.8427 24.4367L25.6927 10.1367L24.3073 9.76369L20.4573 24.0637L21.8427 24.4367ZM24.7939 9.26306L19.2939 10.9131L19.7061 12.2873L25.2061 10.6373L24.7939 9.26306ZM20.0739 11.1698L16.7739 6.76976L15.6261 7.63063L18.9261 12.0306L20.0739 11.1698Z" fill="currentColor"/>
<path d="M10.15 14.8999L14 18.7499L17.85 14.8999" stroke="currentColor" stroke-width="1.43478" stroke-linecap="round"/>
</svg>
