<svg width="29" height="28" viewBox="0 0 29 28" fill="none" xmlns="http://www.w3.org/2000/svg">
<path d="M22.1136 6.74321L15.8864 3.14855C14.7236 2.4755 13.2764 2.47625 12.1136 3.14855L5.88637 6.74321C4.72286 7.41551 4 8.6673 4 10.0111V17.2012C4 18.5451 4.72286 19.7969 5.88637 20.4692L12.1136 24.0638C12.6954 24.4003 13.3481 24.5679 14 24.5679C14.6519 24.5679 15.3046 24.3996 15.8864 24.0638L22.1136 20.4684C23.2771 19.7961 24 18.5443 24 17.2005V10.0104C24 8.66655 23.2771 7.41476 22.1136 6.74245V6.74321ZM22.4909 17.2012C22.4909 18.0071 22.057 18.7586 21.3591 19.1615L15.1318 22.7569C14.4331 23.1599 13.5669 23.1606 12.8682 22.7569L6.64091 19.1615C5.94296 18.7586 5.50909 18.0071 5.50909 17.2012V10.0104C5.50909 9.20454 5.94296 8.45301 6.64091 8.05008L12.8682 4.45467C13.2175 4.25321 13.6084 4.1521 14 4.1521C14.3916 4.1521 14.7825 4.25321 15.1318 4.45467L21.3591 8.05008C22.057 8.45301 22.4909 9.20454 22.4909 10.0104V17.2012Z" fill="currentColor"/>
<path d="M9.21741 13.5136H18.7826M14 18.2962V13.5136L14 8.73096" stroke="currentColor" stroke-width="1.56522" stroke-linecap="round"/>
</svg>
