<svg width="28" height="28" viewBox="0 0 28 28" fill="none" xmlns="http://www.w3.org/2000/svg">
<path fill-rule="evenodd" clip-rule="evenodd" d="M22.8863 22.7955L24.9587 11.6746C25.0204 11.4363 25.0128 11.1866 24.9369 10.9521C24.861 10.7176 24.7196 10.5073 24.5279 10.3437C24.3361 10.1801 24.1013 10.0694 23.8486 10.0235C23.596 9.97761 23.335 9.99824 23.0936 10.0832L19.2468 11.1273C19.2015 11.1441 19.1518 11.1465 19.1049 11.1344C19.0581 11.1222 19.0166 11.0959 18.9865 11.0595L15.1104 4.51919C14.9796 4.35761 14.8117 4.2268 14.6196 4.1368C14.4275 4.0468 14.2164 4 14.0024 4C13.7884 4 13.5773 4.0468 13.3852 4.1368C13.1931 4.2268 13.0252 4.35761 12.8944 4.51919L9.01827 11.0595C8.98821 11.0959 8.9467 11.1222 8.89985 11.1344C8.853 11.1465 8.80328 11.1441 8.75802 11.1273L4.91113 10.0832C4.66971 9.99434 4.40726 9.97082 4.15272 10.0152C3.89818 10.0596 3.66142 10.1702 3.46854 10.3347C3.27566 10.4993 3.13414 10.7115 3.05959 10.9479C2.98504 11.1843 2.98035 11.4358 3.04603 11.6746L5.1185 22.7955C5.1971 23.0828 5.3732 23.3372 5.61931 23.5189C5.86542 23.7006 6.16768 23.7995 6.47889 23.8H21.5259C21.8371 23.7995 22.1394 23.7006 22.3855 23.5189C22.6316 23.3372 22.8077 23.0828 22.8863 22.7955ZM14.1216 17.1034L13.1486 15.8621L11.9324 14H9.5L10.8608 15.8621L14.1216 20L18.5 14H16.3108L14.1216 17.1034Z" fill="url(#paint0_linear_48_5558)"/>
<defs>
<linearGradient id="paint0_linear_48_5558" x1="6.5" y1="8" x2="21.5" y2="24" gradientUnits="userSpaceOnUse">
<stop stop-color="#F3AB3F"/>
<stop offset="1" stop-color="#EFBE79"/>
</linearGradient>
</defs>
</svg>
