<svg width="29" height="28" viewBox="0 0 29 28" fill="none" xmlns="http://www.w3.org/2000/svg">
<rect x="4.25" y="5.41602" width="20.5" height="20.5" rx="10.25" stroke="currentColor" stroke-width="1.5"/>
<path d="M18.8833 15.666C18.8833 15.9194 18.7682 16.2315 18.4605 16.608C18.1539 16.9832 17.6995 17.3678 17.1354 17.7476C16.0082 18.5063 14.5655 19.1645 13.3533 19.6467C12.6012 19.9458 11.8203 19.4708 11.7403 18.6637C11.6533 17.7865 11.5833 16.7445 11.5833 15.666C11.5833 14.5875 11.6533 13.5455 11.7403 12.6684C11.8203 11.8612 12.6012 11.3862 13.3533 11.6853C14.5655 12.1675 16.0082 12.8258 17.1354 13.5845C17.6995 13.9642 18.1539 14.3489 18.4605 14.724C18.7682 15.1006 18.8833 15.4126 18.8833 15.666Z" stroke="currentColor" stroke-width="1.5"/>
<path d="M15.2333 2.83301V4.66634" stroke="currentColor" stroke-width="1.5" stroke-linecap="round"/>
<path d="M18.9 3.93311L17.4333 5.39977" stroke="currentColor" stroke-width="1.5" stroke-linecap="round"/>
<circle cx="15.2333" cy="2.09951" r="1.1" fill="currentColor"/>
<circle cx="19.2667" cy="3.56582" r="1.1" fill="currentColor"/>
</svg>
