<svg width="29" height="28" viewBox="0 0 29 28" fill="none" xmlns="http://www.w3.org/2000/svg">
<path fill-rule="evenodd" clip-rule="evenodd" d="M15.8864 3.1488L22.1136 6.74345C23.2771 7.41575 24 8.66679 24 10.0106V17.2007C24 18.5446 23.2771 19.7963 22.1136 20.4686L15.8864 24.0641C15.3046 24.3998 14.6519 24.5681 14 24.5681C13.3481 24.5681 12.6954 24.4006 12.1136 24.0641L5.88637 20.4694C4.72286 19.7971 4 18.5453 4 17.2015V10.0114C4 8.66755 4.72286 7.41575 5.88637 6.74345L12.1136 3.1488C13.2764 2.47649 14.7236 2.47574 15.8864 3.1488ZM14.7826 8.7312C14.7826 8.29898 14.4322 7.94859 14 7.94859C13.5678 7.94859 13.2174 8.29898 13.2174 8.7312V12.7312H9.21741C8.78518 12.7312 8.4348 13.0816 8.4348 13.5138C8.4348 13.946 8.78518 14.2964 9.21741 14.2964H13.2174V18.2964C13.2174 18.7286 13.5678 19.079 14 19.079C14.4322 19.079 14.7826 18.7286 14.7826 18.2964V14.2964H18.7826C19.2148 14.2964 19.5652 13.946 19.5652 13.5138C19.5652 13.0816 19.2148 12.7312 18.7826 12.7312H14.7826V8.7312Z" fill="url(#paint0_linear_29_4281)"/>
<defs>
<linearGradient id="paint0_linear_29_4281" x1="4" y1="3" x2="24" y2="22" gradientUnits="userSpaceOnUse">
<stop stop-color="#29CF0B"/>
<stop offset="1" stop-color="#16E7C0"/>
</linearGradient>
</defs>
</svg>
