<svg width="29" height="28" viewBox="0 0 29 28" fill="none" xmlns="http://www.w3.org/2000/svg">
<path fill-rule="evenodd" clip-rule="evenodd" d="M15.9833 2.90446C16.1987 2.70366 16.3334 2.41743 16.3334 2.09976C16.3334 1.49224 15.8409 0.999756 15.2334 0.999756C14.6258 0.999756 14.1334 1.49224 14.1334 2.09976C14.1334 2.41741 14.268 2.70361 14.4833 2.90441V4.66603C8.41587 4.67502 3.5 9.59644 3.5 15.666C3.5 21.7411 8.42487 26.666 14.5 26.666C20.5751 26.666 25.5 21.7411 25.5 15.666C25.5 10.996 22.5898 7.00572 18.4841 5.4097L19.2284 4.66541C19.2411 4.66585 19.2539 4.66606 19.2667 4.66606C19.8742 4.66606 20.3667 4.17358 20.3667 3.56606C20.3667 2.95855 19.8742 2.46606 19.2667 2.46606C18.6592 2.46606 18.1667 2.95855 18.1667 3.56606C18.1667 3.57913 18.1669 3.59214 18.1674 3.60509L16.903 4.86944C16.887 4.88551 16.8718 4.90212 16.8575 4.91923C16.5681 4.85604 16.2744 4.80424 15.977 4.76432C15.9812 4.73225 15.9833 4.69955 15.9833 4.66634V2.90446ZM13.6304 20.3436C16.0899 19.3654 19.6333 17.6174 19.6333 15.666C19.6333 13.7146 16.0899 11.9667 13.6304 10.9884C12.4141 10.5047 11.1231 11.2918 10.9939 12.5944C10.9052 13.489 10.8333 14.5566 10.8333 15.666C10.8333 16.7755 10.9052 17.8431 10.9939 18.7376C11.1231 20.0403 12.4141 20.8274 13.6304 20.3436Z" fill="url(#paint0_linear_29_4043)"/>
<defs>
<linearGradient id="paint0_linear_29_4043" x1="4" y1="5" x2="21" y2="25.5" gradientUnits="userSpaceOnUse">
<stop stop-color="#EF3C3F"/>
<stop offset="1" stop-color="#FA6084"/>
</linearGradient>
</defs>
</svg>
